G04 EAGLE Gerber RS-274X export*
G75*
%MOMM*%
%FSLAX34Y34*%
%LPD*%
%INTop Copper*%
%IPPOS*%
%AMOC8*
5,1,8,0,0,1.08239X$1,22.5*%
G01*
%ADD10C,0.130000*%
%ADD11C,0.152400*%
%ADD12C,1.981200*%
%ADD13C,1.879600*%
%ADD14C,4.318000*%
%ADD15C,1.676400*%
%ADD16C,2.705100*%
%ADD17C,3.556000*%
%ADD18R,2.100000X2.100000*%
%ADD19C,0.508000*%
%ADD20C,0.812800*%


D10*
X2438400Y736600D02*
X2438400Y691700D01*
X2616200Y691700D02*
X2616200Y736600D01*
X2615550Y711200D02*
X2439050Y711200D01*
X2464400Y714392D01*
X2464400Y708008D01*
X2439050Y711200D01*
X2464400Y712500D01*
X2464400Y709900D02*
X2439050Y711200D01*
X2464400Y713800D01*
X2464400Y708600D02*
X2439050Y711200D01*
X2590200Y714392D02*
X2615550Y711200D01*
X2590200Y714392D02*
X2590200Y708008D01*
X2615550Y711200D01*
X2590200Y712500D01*
X2590200Y709900D02*
X2615550Y711200D01*
X2590200Y713800D01*
X2590200Y708600D02*
X2615550Y711200D01*
D11*
X2500757Y733963D02*
X2496241Y730351D01*
X2500757Y733963D02*
X2500757Y717707D01*
X2505272Y717707D02*
X2496241Y717707D01*
X2511873Y732157D02*
X2511873Y733963D01*
X2520904Y733963D01*
X2516388Y717707D01*
X2526878Y717707D02*
X2526878Y718610D01*
X2527781Y718610D01*
X2527781Y717707D01*
X2526878Y717707D01*
X2533756Y732157D02*
X2533756Y733963D01*
X2542787Y733963D01*
X2538272Y717707D01*
X2549387Y722223D02*
X2549389Y722356D01*
X2549395Y722488D01*
X2549405Y722620D01*
X2549418Y722752D01*
X2549436Y722884D01*
X2549457Y723014D01*
X2549482Y723145D01*
X2549511Y723274D01*
X2549544Y723402D01*
X2549580Y723530D01*
X2549620Y723656D01*
X2549664Y723781D01*
X2549712Y723905D01*
X2549763Y724027D01*
X2549818Y724148D01*
X2549876Y724267D01*
X2549938Y724385D01*
X2550003Y724500D01*
X2550072Y724614D01*
X2550143Y724725D01*
X2550219Y724834D01*
X2550297Y724941D01*
X2550378Y725046D01*
X2550463Y725148D01*
X2550550Y725248D01*
X2550640Y725345D01*
X2550733Y725440D01*
X2550829Y725531D01*
X2550927Y725620D01*
X2551028Y725706D01*
X2551132Y725789D01*
X2551238Y725869D01*
X2551346Y725945D01*
X2551456Y726019D01*
X2551569Y726089D01*
X2551683Y726156D01*
X2551800Y726219D01*
X2551918Y726279D01*
X2552038Y726336D01*
X2552160Y726389D01*
X2552283Y726438D01*
X2552407Y726484D01*
X2552533Y726526D01*
X2552660Y726564D01*
X2552788Y726599D01*
X2552917Y726630D01*
X2553046Y726657D01*
X2553177Y726680D01*
X2553308Y726700D01*
X2553440Y726715D01*
X2553572Y726727D01*
X2553704Y726735D01*
X2553837Y726739D01*
X2553969Y726739D01*
X2554102Y726735D01*
X2554234Y726727D01*
X2554366Y726715D01*
X2554498Y726700D01*
X2554629Y726680D01*
X2554760Y726657D01*
X2554889Y726630D01*
X2555018Y726599D01*
X2555146Y726564D01*
X2555273Y726526D01*
X2555399Y726484D01*
X2555523Y726438D01*
X2555646Y726389D01*
X2555768Y726336D01*
X2555888Y726279D01*
X2556006Y726219D01*
X2556123Y726156D01*
X2556237Y726089D01*
X2556350Y726019D01*
X2556460Y725945D01*
X2556568Y725869D01*
X2556674Y725789D01*
X2556778Y725706D01*
X2556879Y725620D01*
X2556977Y725531D01*
X2557073Y725440D01*
X2557166Y725345D01*
X2557256Y725248D01*
X2557343Y725148D01*
X2557428Y725046D01*
X2557509Y724941D01*
X2557587Y724834D01*
X2557663Y724725D01*
X2557734Y724614D01*
X2557803Y724500D01*
X2557868Y724385D01*
X2557930Y724267D01*
X2557988Y724148D01*
X2558043Y724027D01*
X2558094Y723905D01*
X2558142Y723781D01*
X2558186Y723656D01*
X2558226Y723530D01*
X2558262Y723402D01*
X2558295Y723274D01*
X2558324Y723145D01*
X2558349Y723014D01*
X2558370Y722884D01*
X2558388Y722752D01*
X2558401Y722620D01*
X2558411Y722488D01*
X2558417Y722356D01*
X2558419Y722223D01*
X2558417Y722090D01*
X2558411Y721958D01*
X2558401Y721826D01*
X2558388Y721694D01*
X2558370Y721562D01*
X2558349Y721432D01*
X2558324Y721301D01*
X2558295Y721172D01*
X2558262Y721044D01*
X2558226Y720916D01*
X2558186Y720790D01*
X2558142Y720665D01*
X2558094Y720541D01*
X2558043Y720419D01*
X2557988Y720298D01*
X2557930Y720179D01*
X2557868Y720061D01*
X2557803Y719946D01*
X2557734Y719832D01*
X2557663Y719721D01*
X2557587Y719612D01*
X2557509Y719505D01*
X2557428Y719400D01*
X2557343Y719298D01*
X2557256Y719198D01*
X2557166Y719101D01*
X2557073Y719006D01*
X2556977Y718915D01*
X2556879Y718826D01*
X2556778Y718740D01*
X2556674Y718657D01*
X2556568Y718577D01*
X2556460Y718501D01*
X2556350Y718427D01*
X2556237Y718357D01*
X2556123Y718290D01*
X2556006Y718227D01*
X2555888Y718167D01*
X2555768Y718110D01*
X2555646Y718057D01*
X2555523Y718008D01*
X2555399Y717962D01*
X2555273Y717920D01*
X2555146Y717882D01*
X2555018Y717847D01*
X2554889Y717816D01*
X2554760Y717789D01*
X2554629Y717766D01*
X2554498Y717746D01*
X2554366Y717731D01*
X2554234Y717719D01*
X2554102Y717711D01*
X2553969Y717707D01*
X2553837Y717707D01*
X2553704Y717711D01*
X2553572Y717719D01*
X2553440Y717731D01*
X2553308Y717746D01*
X2553177Y717766D01*
X2553046Y717789D01*
X2552917Y717816D01*
X2552788Y717847D01*
X2552660Y717882D01*
X2552533Y717920D01*
X2552407Y717962D01*
X2552283Y718008D01*
X2552160Y718057D01*
X2552038Y718110D01*
X2551918Y718167D01*
X2551800Y718227D01*
X2551683Y718290D01*
X2551569Y718357D01*
X2551456Y718427D01*
X2551346Y718501D01*
X2551238Y718577D01*
X2551132Y718657D01*
X2551028Y718740D01*
X2550927Y718826D01*
X2550829Y718915D01*
X2550733Y719006D01*
X2550640Y719101D01*
X2550550Y719198D01*
X2550463Y719298D01*
X2550378Y719400D01*
X2550297Y719505D01*
X2550219Y719612D01*
X2550143Y719721D01*
X2550072Y719832D01*
X2550003Y719946D01*
X2549938Y720061D01*
X2549876Y720179D01*
X2549818Y720298D01*
X2549763Y720419D01*
X2549712Y720541D01*
X2549664Y720665D01*
X2549620Y720790D01*
X2549580Y720916D01*
X2549544Y721044D01*
X2549511Y721172D01*
X2549482Y721301D01*
X2549457Y721432D01*
X2549436Y721562D01*
X2549418Y721694D01*
X2549405Y721826D01*
X2549395Y721958D01*
X2549389Y722090D01*
X2549387Y722223D01*
X2550291Y730351D02*
X2550293Y730470D01*
X2550299Y730590D01*
X2550309Y730709D01*
X2550323Y730827D01*
X2550340Y730946D01*
X2550362Y731063D01*
X2550387Y731180D01*
X2550417Y731295D01*
X2550450Y731410D01*
X2550487Y731524D01*
X2550527Y731636D01*
X2550572Y731747D01*
X2550620Y731856D01*
X2550671Y731964D01*
X2550726Y732070D01*
X2550785Y732174D01*
X2550847Y732276D01*
X2550912Y732376D01*
X2550981Y732474D01*
X2551053Y732570D01*
X2551128Y732663D01*
X2551205Y732753D01*
X2551286Y732841D01*
X2551370Y732926D01*
X2551457Y733008D01*
X2551546Y733088D01*
X2551638Y733164D01*
X2551732Y733238D01*
X2551829Y733308D01*
X2551927Y733375D01*
X2552028Y733439D01*
X2552132Y733499D01*
X2552237Y733556D01*
X2552344Y733609D01*
X2552452Y733659D01*
X2552562Y733705D01*
X2552674Y733747D01*
X2552787Y733786D01*
X2552901Y733821D01*
X2553016Y733852D01*
X2553133Y733880D01*
X2553250Y733903D01*
X2553367Y733923D01*
X2553486Y733939D01*
X2553605Y733951D01*
X2553724Y733959D01*
X2553843Y733963D01*
X2553963Y733963D01*
X2554082Y733959D01*
X2554201Y733951D01*
X2554320Y733939D01*
X2554439Y733923D01*
X2554556Y733903D01*
X2554673Y733880D01*
X2554790Y733852D01*
X2554905Y733821D01*
X2555019Y733786D01*
X2555132Y733747D01*
X2555244Y733705D01*
X2555354Y733659D01*
X2555462Y733609D01*
X2555569Y733556D01*
X2555674Y733499D01*
X2555778Y733439D01*
X2555879Y733375D01*
X2555977Y733308D01*
X2556074Y733238D01*
X2556168Y733164D01*
X2556260Y733088D01*
X2556349Y733008D01*
X2556436Y732926D01*
X2556520Y732841D01*
X2556601Y732753D01*
X2556678Y732663D01*
X2556753Y732570D01*
X2556825Y732474D01*
X2556894Y732376D01*
X2556959Y732276D01*
X2557021Y732174D01*
X2557080Y732070D01*
X2557135Y731964D01*
X2557186Y731856D01*
X2557234Y731747D01*
X2557279Y731636D01*
X2557319Y731524D01*
X2557356Y731410D01*
X2557389Y731295D01*
X2557419Y731180D01*
X2557444Y731063D01*
X2557466Y730946D01*
X2557483Y730827D01*
X2557497Y730709D01*
X2557507Y730590D01*
X2557513Y730470D01*
X2557515Y730351D01*
X2557513Y730232D01*
X2557507Y730112D01*
X2557497Y729993D01*
X2557483Y729875D01*
X2557466Y729756D01*
X2557444Y729639D01*
X2557419Y729522D01*
X2557389Y729407D01*
X2557356Y729292D01*
X2557319Y729178D01*
X2557279Y729066D01*
X2557234Y728955D01*
X2557186Y728846D01*
X2557135Y728738D01*
X2557080Y728632D01*
X2557021Y728528D01*
X2556959Y728426D01*
X2556894Y728326D01*
X2556825Y728228D01*
X2556753Y728132D01*
X2556678Y728039D01*
X2556601Y727949D01*
X2556520Y727861D01*
X2556436Y727776D01*
X2556349Y727694D01*
X2556260Y727614D01*
X2556168Y727538D01*
X2556074Y727464D01*
X2555977Y727394D01*
X2555879Y727327D01*
X2555778Y727263D01*
X2555674Y727203D01*
X2555569Y727146D01*
X2555462Y727093D01*
X2555354Y727043D01*
X2555244Y726997D01*
X2555132Y726955D01*
X2555019Y726916D01*
X2554905Y726881D01*
X2554790Y726850D01*
X2554673Y726822D01*
X2554556Y726799D01*
X2554439Y726779D01*
X2554320Y726763D01*
X2554201Y726751D01*
X2554082Y726743D01*
X2553963Y726739D01*
X2553843Y726739D01*
X2553724Y726743D01*
X2553605Y726751D01*
X2553486Y726763D01*
X2553367Y726779D01*
X2553250Y726799D01*
X2553133Y726822D01*
X2553016Y726850D01*
X2552901Y726881D01*
X2552787Y726916D01*
X2552674Y726955D01*
X2552562Y726997D01*
X2552452Y727043D01*
X2552344Y727093D01*
X2552237Y727146D01*
X2552132Y727203D01*
X2552028Y727263D01*
X2551927Y727327D01*
X2551829Y727394D01*
X2551732Y727464D01*
X2551638Y727538D01*
X2551546Y727614D01*
X2551457Y727694D01*
X2551370Y727776D01*
X2551286Y727861D01*
X2551205Y727949D01*
X2551128Y728039D01*
X2551053Y728132D01*
X2550981Y728228D01*
X2550912Y728326D01*
X2550847Y728426D01*
X2550785Y728528D01*
X2550726Y728632D01*
X2550671Y728738D01*
X2550620Y728846D01*
X2550572Y728955D01*
X2550527Y729066D01*
X2550487Y729178D01*
X2550450Y729292D01*
X2550417Y729407D01*
X2550387Y729522D01*
X2550362Y729639D01*
X2550340Y729756D01*
X2550323Y729875D01*
X2550309Y729993D01*
X2550299Y730112D01*
X2550293Y730232D01*
X2550291Y730351D01*
D12*
X546100Y977900D03*
X546100Y876300D03*
X1308100Y977900D03*
X1308100Y876300D03*
X2070100Y977900D03*
X2070100Y876300D03*
X482600Y977900D03*
X482600Y876300D03*
X1244600Y977900D03*
X1244600Y876300D03*
X2006600Y977900D03*
X2006600Y876300D03*
X609600Y977900D03*
X609600Y876300D03*
X1371600Y977900D03*
X1371600Y876300D03*
X2133600Y977900D03*
X2133600Y876300D03*
X736600Y977900D03*
X736600Y876300D03*
X1498600Y977900D03*
X1498600Y876300D03*
X673100Y977900D03*
X673100Y876300D03*
X1435100Y977900D03*
X1435100Y876300D03*
X2197100Y977900D03*
X2197100Y876300D03*
X863600Y977900D03*
X863600Y876300D03*
X1625600Y977900D03*
X1625600Y876300D03*
X800100Y977900D03*
X800100Y876300D03*
X1562100Y977900D03*
X1562100Y876300D03*
X927100Y977900D03*
X927100Y876300D03*
X1689100Y977900D03*
X1689100Y876300D03*
X292100Y977900D03*
X292100Y876300D03*
X1054100Y977900D03*
X1054100Y876300D03*
X1816100Y977900D03*
X1816100Y876300D03*
X228600Y977900D03*
X228600Y876300D03*
X990600Y977900D03*
X990600Y876300D03*
X1752600Y977900D03*
X1752600Y876300D03*
X419100Y977900D03*
X419100Y876300D03*
X1181100Y977900D03*
X1181100Y876300D03*
X1943100Y977900D03*
X1943100Y876300D03*
X355600Y977900D03*
X355600Y876300D03*
X1117600Y977900D03*
X1117600Y876300D03*
X1879600Y977900D03*
X1879600Y876300D03*
D13*
X2616200Y711200D03*
X2616200Y736600D03*
X2616200Y762000D03*
X2616200Y787400D03*
X2616200Y812800D03*
X2616200Y838200D03*
X2616200Y863600D03*
X2616200Y889000D03*
X2616200Y914400D03*
X2616200Y939800D03*
X2616200Y965200D03*
X2616200Y990600D03*
X2616200Y1016000D03*
X2616200Y1041400D03*
X2616200Y1066800D03*
X2616200Y1092200D03*
X2616200Y1117600D03*
X2616200Y1143000D03*
X2616200Y1168400D03*
X2616200Y1193800D03*
X2616200Y1219200D03*
X2616200Y1244600D03*
X2616200Y1270000D03*
X2616200Y1295400D03*
X2616200Y1320800D03*
X2616200Y1346200D03*
X2616200Y1371600D03*
X2616200Y1397000D03*
X2616200Y1422400D03*
X2616200Y1447800D03*
D14*
X2298700Y1425100D03*
X2298700Y1485100D03*
X2251700Y1455100D03*
D13*
X2438400Y711200D03*
X2438400Y736600D03*
X2438400Y762000D03*
X2438400Y787400D03*
X2438400Y812800D03*
X2438400Y838200D03*
X2438400Y863600D03*
X2438400Y889000D03*
X2438400Y914400D03*
X2438400Y939800D03*
X2438400Y965200D03*
X2438400Y990600D03*
X2438400Y1016000D03*
X2438400Y1041400D03*
X2438400Y1066800D03*
X2438400Y1092200D03*
X2438400Y1117600D03*
X2438400Y1143000D03*
X2438400Y1168400D03*
X2438400Y1193800D03*
X2438400Y1219200D03*
X2438400Y1244600D03*
X2438400Y1270000D03*
X2438400Y1295400D03*
X2438400Y1320800D03*
X2438400Y1346200D03*
X2438400Y1371600D03*
X2438400Y1397000D03*
X2438400Y1422400D03*
X2438400Y1447800D03*
D15*
X554482Y1231900D02*
X537718Y1231900D01*
X537718Y1206500D02*
X554482Y1206500D01*
X554482Y1181100D02*
X537718Y1181100D01*
X1299718Y1231900D02*
X1316482Y1231900D01*
X1316482Y1206500D02*
X1299718Y1206500D01*
X1299718Y1181100D02*
X1316482Y1181100D01*
X2061718Y1231900D02*
X2078482Y1231900D01*
X2078482Y1206500D02*
X2061718Y1206500D01*
X2061718Y1181100D02*
X2078482Y1181100D01*
X490982Y1231900D02*
X474218Y1231900D01*
X474218Y1206500D02*
X490982Y1206500D01*
X490982Y1181100D02*
X474218Y1181100D01*
X1236218Y1231900D02*
X1252982Y1231900D01*
X1252982Y1206500D02*
X1236218Y1206500D01*
X1236218Y1181100D02*
X1252982Y1181100D01*
X1998218Y1231900D02*
X2014982Y1231900D01*
X2014982Y1206500D02*
X1998218Y1206500D01*
X1998218Y1181100D02*
X2014982Y1181100D01*
X617982Y1079500D02*
X601218Y1079500D01*
X601218Y1054100D02*
X617982Y1054100D01*
X617982Y1028700D02*
X601218Y1028700D01*
X1363218Y1079500D02*
X1379982Y1079500D01*
X1379982Y1054100D02*
X1363218Y1054100D01*
X1363218Y1028700D02*
X1379982Y1028700D01*
X2125218Y1079500D02*
X2141982Y1079500D01*
X2141982Y1054100D02*
X2125218Y1054100D01*
X2125218Y1028700D02*
X2141982Y1028700D01*
X744982Y1155700D02*
X728218Y1155700D01*
X728218Y1130300D02*
X744982Y1130300D01*
X744982Y1104900D02*
X728218Y1104900D01*
X1490218Y1155700D02*
X1506982Y1155700D01*
X1506982Y1130300D02*
X1490218Y1130300D01*
X1490218Y1104900D02*
X1506982Y1104900D01*
X681482Y1079500D02*
X664718Y1079500D01*
X664718Y1054100D02*
X681482Y1054100D01*
X681482Y1028700D02*
X664718Y1028700D01*
X1426718Y1079500D02*
X1443482Y1079500D01*
X1443482Y1054100D02*
X1426718Y1054100D01*
X1426718Y1028700D02*
X1443482Y1028700D01*
X2188718Y1079500D02*
X2205482Y1079500D01*
X2205482Y1054100D02*
X2188718Y1054100D01*
X2188718Y1028700D02*
X2205482Y1028700D01*
X871982Y1231900D02*
X855218Y1231900D01*
X855218Y1206500D02*
X871982Y1206500D01*
X871982Y1181100D02*
X855218Y1181100D01*
X1617218Y1231900D02*
X1633982Y1231900D01*
X1633982Y1206500D02*
X1617218Y1206500D01*
X1617218Y1181100D02*
X1633982Y1181100D01*
X808482Y1155700D02*
X791718Y1155700D01*
X791718Y1130300D02*
X808482Y1130300D01*
X808482Y1104900D02*
X791718Y1104900D01*
X1553718Y1155700D02*
X1570482Y1155700D01*
X1570482Y1130300D02*
X1553718Y1130300D01*
X1553718Y1104900D02*
X1570482Y1104900D01*
X935482Y1231900D02*
X918718Y1231900D01*
X918718Y1206500D02*
X935482Y1206500D01*
X935482Y1181100D02*
X918718Y1181100D01*
X1680718Y1231900D02*
X1697482Y1231900D01*
X1697482Y1206500D02*
X1680718Y1206500D01*
X1680718Y1181100D02*
X1697482Y1181100D01*
X300482Y1079500D02*
X283718Y1079500D01*
X283718Y1054100D02*
X300482Y1054100D01*
X300482Y1028700D02*
X283718Y1028700D01*
X1045718Y1079500D02*
X1062482Y1079500D01*
X1062482Y1054100D02*
X1045718Y1054100D01*
X1045718Y1028700D02*
X1062482Y1028700D01*
X1807718Y1079500D02*
X1824482Y1079500D01*
X1824482Y1054100D02*
X1807718Y1054100D01*
X1807718Y1028700D02*
X1824482Y1028700D01*
X236982Y1079500D02*
X220218Y1079500D01*
X220218Y1054100D02*
X236982Y1054100D01*
X236982Y1028700D02*
X220218Y1028700D01*
X982218Y1079500D02*
X998982Y1079500D01*
X998982Y1054100D02*
X982218Y1054100D01*
X982218Y1028700D02*
X998982Y1028700D01*
X1744218Y1079500D02*
X1760982Y1079500D01*
X1760982Y1054100D02*
X1744218Y1054100D01*
X1744218Y1028700D02*
X1760982Y1028700D01*
X427482Y1155700D02*
X410718Y1155700D01*
X410718Y1130300D02*
X427482Y1130300D01*
X427482Y1104900D02*
X410718Y1104900D01*
X1172718Y1155700D02*
X1189482Y1155700D01*
X1189482Y1130300D02*
X1172718Y1130300D01*
X1172718Y1104900D02*
X1189482Y1104900D01*
X1934718Y1155700D02*
X1951482Y1155700D01*
X1951482Y1130300D02*
X1934718Y1130300D01*
X1934718Y1104900D02*
X1951482Y1104900D01*
X363982Y1155700D02*
X347218Y1155700D01*
X347218Y1130300D02*
X363982Y1130300D01*
X363982Y1104900D02*
X347218Y1104900D01*
X1109218Y1155700D02*
X1125982Y1155700D01*
X1125982Y1130300D02*
X1109218Y1130300D01*
X1109218Y1104900D02*
X1125982Y1104900D01*
X1871218Y1155700D02*
X1887982Y1155700D01*
X1887982Y1130300D02*
X1871218Y1130300D01*
X1871218Y1104900D02*
X1887982Y1104900D01*
D13*
X546100Y1358900D03*
X546100Y1282700D03*
X1308100Y1358900D03*
X1308100Y1282700D03*
X2070100Y1358900D03*
X2070100Y1282700D03*
X482600Y1358900D03*
X482600Y1282700D03*
X1244600Y1358900D03*
X1244600Y1282700D03*
X2006600Y1358900D03*
X2006600Y1282700D03*
X609600Y1358900D03*
X609600Y1282700D03*
X1371600Y1358900D03*
X1371600Y1282700D03*
X2133600Y1358900D03*
X2133600Y1282700D03*
X736600Y1358900D03*
X736600Y1282700D03*
X1498600Y1358900D03*
X1498600Y1282700D03*
X673100Y1358900D03*
X673100Y1282700D03*
X1435100Y1358900D03*
X1435100Y1282700D03*
X2197100Y1358900D03*
X2197100Y1282700D03*
X863600Y1358900D03*
X863600Y1282700D03*
X1625600Y1358900D03*
X1625600Y1282700D03*
X800100Y1358900D03*
X800100Y1282700D03*
X1562100Y1358900D03*
X1562100Y1282700D03*
X927100Y1358900D03*
X927100Y1282700D03*
X1689100Y1358900D03*
X1689100Y1282700D03*
X292100Y1206500D03*
X292100Y1130300D03*
X1054100Y1358900D03*
X1054100Y1282700D03*
X1816100Y1358900D03*
X1816100Y1282700D03*
X228600Y1206500D03*
X228600Y1130300D03*
X990600Y1358900D03*
X990600Y1282700D03*
X1752600Y1358900D03*
X1752600Y1282700D03*
X419100Y1282700D03*
X419100Y1206500D03*
X1181100Y1358900D03*
X1181100Y1282700D03*
X1943100Y1358900D03*
X1943100Y1282700D03*
X355600Y1282700D03*
X355600Y1206500D03*
X1117600Y1358900D03*
X1117600Y1282700D03*
X1879600Y1358900D03*
X1879600Y1282700D03*
D14*
X2298700Y746600D03*
X2298700Y686600D03*
X2345700Y716600D03*
D16*
X148590Y1358075D02*
X148590Y1385126D01*
X101600Y1385126D02*
X101600Y1358075D01*
X54610Y1358075D02*
X54610Y1385126D01*
D17*
X546100Y698500D03*
X546100Y749300D03*
X1308100Y698500D03*
X1308100Y749300D03*
X2070100Y698500D03*
X2070100Y749300D03*
X482600Y698500D03*
X482600Y749300D03*
X1244600Y698500D03*
X1244600Y749300D03*
X2006600Y698500D03*
X2006600Y749300D03*
X609600Y698500D03*
X609600Y749300D03*
X1371600Y698500D03*
X1371600Y749300D03*
X2133600Y698500D03*
X2133600Y749300D03*
X736600Y698500D03*
X736600Y749300D03*
X1498600Y698500D03*
X1498600Y749300D03*
X673100Y698500D03*
X673100Y749300D03*
X1435100Y698500D03*
X1435100Y749300D03*
X2197100Y698500D03*
X2197100Y749300D03*
X863600Y698500D03*
X863600Y749300D03*
X1625600Y698500D03*
X1625600Y749300D03*
X800100Y698500D03*
X800100Y749300D03*
X1562100Y698500D03*
X1562100Y749300D03*
X927100Y698500D03*
X927100Y749300D03*
X1689100Y698500D03*
X1689100Y749300D03*
X292100Y698500D03*
X292100Y749300D03*
X1054100Y698500D03*
X1054100Y749300D03*
X1816100Y698500D03*
X1816100Y749300D03*
X228600Y698500D03*
X228600Y749300D03*
X990600Y698500D03*
X990600Y749300D03*
X1752600Y698500D03*
X1752600Y749300D03*
X419100Y698500D03*
X419100Y749300D03*
X1181100Y698500D03*
X1181100Y749300D03*
X1943100Y698500D03*
X1943100Y749300D03*
X355600Y698500D03*
X355600Y749300D03*
X1117600Y698500D03*
X1117600Y749300D03*
X1879600Y698500D03*
X1879600Y749300D03*
D18*
X61400Y734200D03*
X61400Y776200D03*
X61400Y818200D03*
X61400Y860200D03*
X61400Y902200D03*
X61400Y944200D03*
X61400Y986200D03*
X61400Y1028200D03*
X61400Y1070200D03*
X61400Y1112200D03*
X61400Y1154200D03*
X116400Y734200D03*
X116400Y776200D03*
X116400Y818200D03*
X116400Y860200D03*
X116400Y902200D03*
X116400Y944200D03*
X116400Y986200D03*
X116400Y1028200D03*
X116400Y1070200D03*
X116400Y1112200D03*
X61400Y1196200D03*
X116400Y1154200D03*
X116400Y1196200D03*
D19*
X228600Y1206500D02*
X339725Y1317625D01*
X415925Y1317625D01*
X542925Y1444625D01*
X1838325Y1444625D01*
X1873250Y1441450D02*
X1898650Y1416050D01*
X2263775Y1416050D01*
X2276475Y1403350D01*
D20*
X1838325Y1444625D03*
X1873250Y1441450D03*
X2276475Y1403350D03*
D19*
X292100Y1206500D02*
X292100Y1146175D01*
X301625Y1146175D01*
X320675Y1127125D01*
X320675Y908050D01*
X927100Y908050D01*
X990600Y844550D02*
X1038225Y796925D01*
X2228850Y796925D01*
X2232025Y793750D01*
D20*
X927100Y908050D03*
X990600Y844550D03*
X2232025Y793750D03*
D19*
X2438400Y1270000D02*
X2400300Y1308100D01*
X2355850Y1308100D01*
X1838325Y1504950D02*
X1816100Y1482725D01*
X523875Y1482725D01*
X381000Y1339850D01*
D20*
X2355850Y1308100D03*
X1838325Y1504950D03*
X381000Y1339850D03*
D19*
X2422525Y1228725D02*
X2438400Y1244600D01*
X2422525Y1228725D02*
X2355850Y1228725D01*
X2336800Y1209675D01*
X2235200Y889000D02*
X2203450Y857250D01*
X574675Y857250D01*
D20*
X2336800Y1209675D03*
X2235200Y889000D03*
X574675Y857250D03*
D19*
X2362200Y1219200D02*
X2438400Y1219200D01*
X2362200Y1219200D02*
X2359025Y1216025D01*
X1714500Y1431925D02*
X1711325Y1428750D01*
X625475Y1428750D01*
X577850Y1381125D01*
X504825Y1381125D01*
X482600Y1358900D01*
D20*
X2359025Y1216025D03*
X1714500Y1431925D03*
D19*
X558800Y1371600D02*
X546100Y1358900D01*
X558800Y1371600D02*
X596900Y1371600D01*
X644525Y1419225D01*
X1771650Y1419225D01*
X1784350Y1431925D01*
X1889125Y1479550D02*
X1917700Y1450975D01*
X2197100Y1450975D01*
X2209800Y1438275D01*
X2371725Y1206500D02*
X2384425Y1193800D01*
X2438400Y1193800D01*
D20*
X1784350Y1431925D03*
X1889125Y1479550D03*
X2209800Y1438275D03*
X2371725Y1206500D03*
D19*
X1838325Y1470025D02*
X720725Y1470025D01*
X1882775Y1466850D02*
X1911350Y1438275D01*
X2193925Y1438275D01*
X2295525Y1314450D02*
X2295525Y1241425D01*
X2298700Y1241425D01*
X2317750Y1222375D01*
X2317750Y1209675D01*
X2359025Y1168400D01*
X2438400Y1168400D01*
D20*
X720725Y1470025D03*
X1838325Y1470025D03*
X1882775Y1466850D03*
X2193925Y1438275D03*
X2295525Y1314450D03*
D19*
X2438400Y1143000D02*
X2428875Y1133475D01*
X2397125Y1133475D01*
X2368550Y1104900D02*
X2365375Y1101725D01*
X2193925Y1101725D01*
X2117725Y1177925D01*
X2117725Y1266825D01*
X1933575Y1266825D01*
X1908175Y1292225D01*
X1784350Y1416050D02*
X1778000Y1409700D01*
X898525Y1409700D01*
X882650Y1393825D01*
X781050Y1393825D01*
X762000Y1374775D01*
X701675Y1374775D01*
X685800Y1358900D01*
X673100Y1358900D01*
D20*
X2397125Y1133475D03*
X2368550Y1104900D03*
X1908175Y1292225D03*
X1784350Y1416050D03*
D19*
X2435225Y1120775D02*
X2438400Y1117600D01*
X2435225Y1120775D02*
X2393950Y1120775D01*
X2295525Y1219200D01*
X2295525Y1228725D01*
X1825625Y1425575D02*
X1809750Y1425575D01*
X1784350Y1400175D01*
X901700Y1400175D01*
X885825Y1384300D01*
X784225Y1384300D01*
X758825Y1358900D01*
X736600Y1358900D01*
D20*
X2295525Y1228725D03*
X1825625Y1425575D03*
D19*
X2419350Y1111250D02*
X2438400Y1092200D01*
X2419350Y1111250D02*
X2390775Y1111250D01*
X2282825Y1219200D01*
X2282825Y1311275D01*
X2190750Y1403350D02*
X2187575Y1400175D01*
X1844675Y1400175D01*
X1835150Y1390650D01*
X1812925Y1412875D02*
X1790700Y1390650D01*
X904875Y1390650D01*
X889000Y1374775D01*
X815975Y1374775D01*
X800100Y1358900D01*
D20*
X2282825Y1311275D03*
X2190750Y1403350D03*
X1835150Y1390650D03*
X1812925Y1412875D03*
D19*
X2406650Y1098550D02*
X2438400Y1066800D01*
X2406650Y1098550D02*
X2390775Y1098550D01*
X2273300Y1216025D01*
X2273300Y1304925D01*
X1847850Y1304925D01*
X1819275Y1333500D01*
X1485900Y1333500D01*
X1444625Y1374775D01*
X901700Y1374775D01*
X885825Y1358900D01*
X863600Y1358900D01*
X2286000Y901700D02*
X2289175Y898525D01*
X2286000Y901700D02*
X1289050Y901700D01*
X1285875Y898525D01*
X1260475Y923925D02*
X1171575Y1012825D01*
X1152525Y1012825D01*
X965200Y1200150D01*
X965200Y1320800D01*
D20*
X2289175Y898525D03*
X1285875Y898525D03*
X1260475Y923925D03*
X965200Y1320800D03*
D19*
X2311400Y911225D02*
X2314575Y908050D01*
X2311400Y911225D02*
X1082675Y911225D01*
X1016000Y977900D01*
X1016000Y1136650D01*
X952500Y1200150D01*
X952500Y1358900D01*
X990600Y1358900D01*
D20*
X2314575Y908050D03*
D19*
X2346325Y920750D02*
X2349500Y917575D01*
X2346325Y920750D02*
X1327150Y920750D01*
X1235075Y1012825D01*
X1184275Y1012825D01*
X1174750Y1022350D01*
X1155700Y1022350D01*
X1136650Y1041400D01*
X1136650Y1092200D01*
X1143000Y1098550D01*
X1143000Y1343025D01*
X1069975Y1343025D01*
X1054100Y1358900D01*
D20*
X2349500Y917575D03*
D19*
X2413000Y930275D02*
X2416175Y927100D01*
X2413000Y930275D02*
X1330325Y930275D01*
X1238250Y1022350D01*
X1219200Y1022350D01*
X1196975Y1044575D01*
X1196975Y1089025D01*
X1165225Y1089025D01*
X1152525Y1101725D01*
X1152525Y1358900D01*
X1117600Y1358900D01*
D20*
X2416175Y927100D03*
D19*
X2438400Y939800D02*
X1435100Y939800D01*
X1362075Y1012825D01*
X1323975Y1012825D01*
X1304925Y1031875D01*
X1273175Y1031875D01*
X1260475Y1044575D01*
X1260475Y1073150D01*
X1206500Y1127125D01*
X1206500Y1358900D01*
X1181100Y1358900D01*
X1244600Y1358900D02*
X1304925Y1298575D01*
X1317625Y1298575D01*
X1381125Y1235075D01*
X1381125Y1146175D01*
X1387475Y1146175D01*
X1438275Y1095375D01*
X1450975Y1095375D01*
X1463675Y1082675D01*
X1463675Y949325D01*
X1803400Y949325D01*
X1806575Y952500D01*
X1857375Y844550D02*
X1885950Y815975D01*
X2317750Y815975D01*
X2422525Y711200D01*
X2422525Y695325D01*
X2428875Y695325D01*
X2460625Y723900D02*
X2460625Y1320800D01*
X2616200Y1320800D01*
D20*
X1806575Y952500D03*
X1857375Y844550D03*
X2428875Y695325D03*
X2460625Y723900D03*
D19*
X1308100Y1308100D02*
X1308100Y1358900D01*
X1308100Y1308100D02*
X1320800Y1308100D01*
X1390650Y1238250D01*
X1390650Y1155700D01*
X1409700Y1155700D01*
X1435100Y1130300D01*
X1466850Y660400D02*
X1479550Y647700D01*
X2428875Y647700D01*
X2441575Y660400D01*
X2473325Y720725D02*
X2473325Y1130300D01*
X2486025Y1155700D02*
X2486025Y1295400D01*
X2616200Y1295400D01*
D20*
X1435100Y1130300D03*
X1466850Y660400D03*
X2441575Y660400D03*
X2473325Y720725D03*
X2473325Y1130300D03*
X2486025Y1155700D03*
D19*
X1431925Y1298575D02*
X1371600Y1358900D01*
X1431925Y1298575D02*
X1508125Y1298575D01*
X1587500Y1219200D01*
X1587500Y1073150D01*
X1581150Y1066800D01*
X1581150Y962025D01*
X1593850Y660400D02*
X1597025Y657225D01*
X2422525Y657225D01*
X2438400Y673100D01*
X2470150Y673100D01*
X2486025Y688975D01*
X2486025Y752475D02*
X2486025Y1104900D01*
X2489200Y1104900D01*
X2501900Y1155700D02*
X2533650Y1187450D01*
X2533650Y1270000D01*
X2616200Y1270000D01*
D20*
X1581150Y962025D03*
X1593850Y660400D03*
X2486025Y688975D03*
X2486025Y752475D03*
X2489200Y1104900D03*
X2501900Y1155700D03*
D19*
X1485900Y1308100D02*
X1435100Y1358900D01*
X1485900Y1308100D02*
X1511300Y1308100D01*
X1600200Y1219200D01*
X1600200Y1085850D01*
X1628775Y1085850D01*
X1692275Y1022350D01*
X1704975Y1022350D01*
X1714500Y844550D02*
X1752600Y806450D01*
X2247900Y806450D01*
X2270125Y784225D01*
X2333625Y784225D01*
X2409825Y708025D01*
X2511425Y752475D02*
X2511425Y1130300D01*
X2514600Y1130300D01*
X2517775Y1155700D02*
X2543175Y1181100D01*
X2543175Y1244600D01*
X2616200Y1244600D01*
D20*
X1704975Y1022350D03*
X1714500Y844550D03*
X2409825Y708025D03*
X2511425Y752475D03*
X2514600Y1130300D03*
X2517775Y1155700D03*
D19*
X1549400Y1524000D02*
X1520825Y1495425D01*
X1549400Y1524000D02*
X1841500Y1524000D01*
X2555875Y1209675D02*
X2565400Y1219200D01*
X2616200Y1219200D01*
D20*
X1520825Y1495425D03*
X1841500Y1524000D03*
X2555875Y1209675D03*
D19*
X1581150Y1377950D02*
X1562100Y1358900D01*
X1581150Y1377950D02*
X1654175Y1377950D01*
X2247900Y1536700D02*
X2251075Y1533525D01*
X2555875Y1533525D01*
D20*
X1654175Y1377950D03*
X2247900Y1536700D03*
X2555875Y1533525D03*
D19*
X1666875Y774700D02*
X1657350Y784225D01*
X1666875Y774700D02*
X2327275Y774700D01*
X2419350Y682625D01*
X2463800Y682625D01*
X2482850Y701675D01*
X2555875Y701675D01*
X2574925Y720725D02*
X2574925Y1114425D01*
X2571750Y1114425D01*
X2584450Y1155700D02*
X2597150Y1168400D01*
X2616200Y1168400D01*
D20*
X1657350Y784225D03*
X2555875Y701675D03*
X2574925Y720725D03*
X2571750Y1114425D03*
X2584450Y1155700D03*
D19*
X1704975Y1343025D02*
X1689100Y1358900D01*
X1704975Y1343025D02*
X1771650Y1343025D01*
X1860550Y1431925D01*
X1860550Y1492250D01*
X2257425Y1492250D01*
X2473325Y1308100D02*
X2473325Y1143000D01*
X2616200Y1143000D01*
D20*
X2257425Y1492250D03*
X2473325Y1308100D03*
D19*
X1774825Y1381125D02*
X1752600Y1358900D01*
X1774825Y1381125D02*
X1797050Y1381125D01*
X1851025Y1435100D01*
X1851025Y1517650D01*
X2235200Y1517650D01*
D20*
X2235200Y1517650D03*
D19*
X1860550Y1314450D02*
X1816100Y1358900D01*
X1860550Y1314450D02*
X2270125Y1314450D01*
X2289175Y1333500D01*
X2339975Y1333500D01*
X2422525Y1416050D01*
X2422525Y1457325D01*
X2571750Y1130300D02*
X2609850Y1092200D01*
X2616200Y1092200D01*
D20*
X2422525Y1457325D03*
X2571750Y1130300D03*
D19*
X1892300Y1346200D02*
X1879600Y1358900D01*
X1892300Y1346200D02*
X1930400Y1346200D01*
X1949450Y1327150D01*
X2051050Y1327150D01*
X2054225Y1323975D01*
X2266950Y1323975D01*
X2286000Y1343025D01*
X2333625Y1343025D01*
X2403475Y1412875D01*
X2362200Y1454150D02*
X2362200Y1520825D01*
X2635250Y1520825D01*
X2682875Y1473200D01*
D20*
X2403475Y1412875D03*
X2362200Y1454150D03*
X2682875Y1473200D03*
D19*
X1955800Y1346200D02*
X1943100Y1358900D01*
X1955800Y1346200D02*
X1993900Y1346200D01*
X2003425Y1336675D01*
X2054225Y1336675D01*
X2057400Y1333500D01*
X2225675Y1333500D01*
X2244725Y1352550D01*
X2327275Y1352550D01*
X2403475Y1428750D01*
X2406650Y1428750D01*
X2397125Y1508125D02*
X2400300Y1511300D01*
X2628900Y1511300D01*
X2682875Y1457325D01*
X2682875Y1101725D01*
D20*
X2406650Y1428750D03*
X2397125Y1508125D03*
X2682875Y1101725D03*
D19*
X2019300Y1346200D02*
X2006600Y1358900D01*
X2019300Y1346200D02*
X2057400Y1346200D01*
X2060575Y1343025D01*
X2222500Y1343025D01*
X2241550Y1362075D01*
X2324100Y1362075D01*
X2406650Y1444625D01*
X2409825Y1444625D01*
X2406650Y1498600D02*
X2628900Y1498600D01*
X2670175Y1457325D01*
X2670175Y1063625D01*
D20*
X2409825Y1444625D03*
X2406650Y1498600D03*
X2670175Y1063625D03*
D19*
X2101850Y1390650D02*
X2070100Y1358900D01*
X2101850Y1390650D02*
X2314575Y1390650D01*
X2413000Y1489075D01*
X2625725Y1489075D01*
X2657475Y1457325D01*
X2657475Y1025525D01*
D20*
X2657475Y1025525D03*
D19*
X2146300Y1371600D02*
X2133600Y1358900D01*
X2146300Y1371600D02*
X2184400Y1371600D01*
X2193925Y1381125D01*
X2317750Y1381125D01*
X2416175Y1479550D01*
X2622550Y1479550D01*
X2644775Y1457325D01*
X2644775Y987425D01*
D20*
X2644775Y987425D03*
D19*
X2209800Y1371600D02*
X2197100Y1358900D01*
X2209800Y1371600D02*
X2320925Y1371600D01*
X2419350Y1470025D01*
X2619375Y1470025D01*
X2632075Y1457325D01*
X2632075Y939800D01*
X2616200Y939800D01*
X292100Y698500D02*
X228600Y698500D01*
X292100Y698500D02*
X355600Y698500D01*
X419100Y698500D01*
X482600Y698500D01*
X546100Y698500D01*
X609600Y698500D01*
X673100Y698500D01*
X736600Y698500D01*
X800100Y698500D01*
X863600Y698500D01*
X927100Y698500D01*
X990600Y698500D01*
X1054100Y698500D01*
X1117600Y698500D01*
X1181100Y698500D01*
X292100Y876300D02*
X228600Y876300D01*
X292100Y876300D02*
X355600Y876300D01*
X419100Y876300D01*
X482600Y876300D01*
X546100Y876300D01*
X609600Y876300D01*
X673100Y876300D01*
X736600Y876300D01*
X800100Y876300D01*
X863600Y876300D01*
X927100Y876300D01*
X990600Y876300D01*
X1054100Y876300D01*
X1117600Y876300D01*
X1181100Y876300D01*
X98425Y1076325D02*
X63500Y1111250D01*
X98425Y1076325D02*
X98425Y962025D01*
X130175Y962025D01*
X215900Y876300D01*
X228600Y876300D01*
X63500Y1111250D02*
X61400Y1112200D01*
X1244600Y698500D02*
X1308100Y698500D01*
X1371600Y698500D01*
X1435100Y698500D01*
X1498600Y698500D01*
X1562100Y698500D01*
X1625600Y698500D01*
X1689100Y698500D01*
X1752600Y698500D01*
X1816100Y698500D01*
X1879600Y698500D01*
X1943100Y698500D01*
X2006600Y698500D01*
X2070100Y698500D01*
X2133600Y698500D01*
X2197100Y698500D01*
X1308100Y876300D02*
X1244600Y876300D01*
X1308100Y876300D02*
X1371600Y876300D01*
X1435100Y876300D01*
X1498600Y876300D01*
X1562100Y876300D01*
X1625600Y876300D01*
X1689100Y876300D01*
X1752600Y876300D01*
X1816100Y876300D01*
X1879600Y876300D01*
X1943100Y876300D01*
X2006600Y876300D01*
X2070100Y876300D01*
X2133600Y876300D01*
X2197100Y876300D01*
X98425Y1117600D02*
X63500Y1152525D01*
X98425Y1117600D02*
X98425Y1089025D01*
X130175Y1089025D01*
X209550Y1009650D01*
X209550Y895350D01*
X1225550Y895350D01*
X1244600Y876300D01*
X63500Y1152525D02*
X61400Y1154200D01*
X63500Y857250D02*
X69850Y850900D01*
X95250Y850900D01*
X107950Y838200D01*
X936625Y838200D01*
X1028700Y746125D01*
X1028700Y723900D01*
X2276475Y723900D01*
X2298700Y746125D01*
X63500Y857250D02*
X61400Y860200D01*
X2298700Y746600D02*
X2298700Y746125D01*
X228600Y1079500D02*
X228600Y1130300D01*
X228600Y1054100D02*
X238125Y1044575D01*
X244475Y1044575D01*
X254000Y1035050D01*
X254000Y977900D01*
X228600Y977900D01*
X292100Y1079500D02*
X292100Y1130300D01*
X292100Y1054100D02*
X282575Y1044575D01*
X276225Y1044575D01*
X266700Y1035050D01*
X266700Y977900D01*
X292100Y977900D01*
X346075Y1120775D02*
X355600Y1130300D01*
X346075Y1120775D02*
X339725Y1120775D01*
X330200Y1111250D01*
X330200Y977900D01*
X355600Y977900D01*
X419100Y1155700D02*
X419100Y1206500D01*
X381000Y1130300D02*
X381000Y1073150D01*
X374650Y1066800D01*
X374650Y977900D01*
X419100Y977900D01*
D20*
X381000Y1130300D03*
D19*
X482600Y1231900D02*
X482600Y1282700D01*
X482600Y1206500D02*
X473075Y1196975D01*
X466725Y1196975D01*
X457200Y1187450D01*
X457200Y1085850D01*
X479425Y1085850D01*
X498475Y1066800D01*
X498475Y977900D01*
X482600Y977900D01*
X546100Y1231900D02*
X546100Y1282700D01*
X546100Y1206500D02*
X555625Y1196975D01*
X561975Y1196975D01*
X571500Y1187450D01*
X571500Y1149350D01*
X561975Y1139825D01*
X561975Y977900D01*
X546100Y977900D01*
X609600Y1079500D02*
X635000Y1104900D01*
X635000Y1187450D01*
X609600Y1212850D01*
X609600Y1282700D01*
X609600Y1054100D02*
X600075Y1044575D01*
X593725Y1044575D01*
X584200Y1035050D01*
X584200Y977900D01*
X609600Y977900D01*
X673100Y1079500D02*
X673100Y1181100D01*
X676275Y1181100D01*
X688975Y1193800D01*
X688975Y1282700D01*
X673100Y1282700D01*
X673100Y1054100D02*
X663575Y1044575D01*
X657225Y1044575D01*
X647700Y1035050D01*
X647700Y977900D01*
X673100Y977900D01*
X1244600Y1231900D02*
X1244600Y1282700D01*
X1244600Y1206500D02*
X1235075Y1196975D01*
X1228725Y1196975D01*
X1219200Y1187450D01*
X1219200Y1127125D01*
X1276350Y1069975D01*
X1276350Y1044575D01*
D20*
X1276350Y1044575D03*
D19*
X1308100Y1231900D02*
X1308100Y1282700D01*
X1308100Y1206500D02*
X1317625Y1196975D01*
X1323975Y1196975D01*
X1333500Y1187450D01*
X1333500Y1149350D01*
X1327150Y1143000D01*
X1327150Y1041400D01*
X1330325Y1041400D01*
D20*
X1330325Y1041400D03*
D19*
X1438275Y1111250D02*
X1438275Y1117600D01*
X1450975Y1130300D01*
X1450975Y1282700D01*
X1435100Y1282700D01*
D20*
X1438275Y1111250D03*
D19*
X1435100Y1054100D02*
X1425575Y1044575D01*
X1419225Y1044575D01*
X1409700Y1035050D01*
X1409700Y977900D01*
X1435100Y977900D01*
X1498600Y1155700D02*
X1524000Y1181100D01*
X1524000Y1270000D01*
X1511300Y1270000D01*
X1498600Y1282700D01*
X1498600Y1130300D02*
X1489075Y1120775D01*
X1482725Y1120775D01*
X1473200Y1111250D01*
X1473200Y977900D01*
X1498600Y977900D01*
X1552575Y1120775D02*
X1562100Y1130300D01*
X1552575Y1120775D02*
X1546225Y1120775D01*
X1517650Y1092200D01*
X1517650Y977900D01*
X1562100Y977900D01*
X1625600Y1231900D02*
X1625600Y1282700D01*
X1625600Y1206500D02*
X1635125Y1196975D01*
X1641475Y1196975D01*
X1676400Y1162050D01*
X1685925Y1162050D01*
X1704975Y1143000D01*
X1704975Y1044575D01*
X1685925Y1044575D01*
D20*
X1685925Y1044575D03*
D19*
X1689100Y1231900D02*
X1689100Y1282700D01*
X1689100Y1206500D02*
X1698625Y1196975D01*
X1714500Y1196975D01*
X1778000Y1133475D01*
X1778000Y1009650D01*
X1701800Y1009650D01*
D20*
X1701800Y1009650D03*
D19*
X762000Y1181100D02*
X736600Y1155700D01*
X762000Y1181100D02*
X762000Y1282700D01*
X736600Y1282700D01*
X736600Y1130300D02*
X727075Y1120775D01*
X720725Y1120775D01*
X711200Y1111250D01*
X711200Y977900D01*
X736600Y977900D01*
X800100Y1155700D02*
X800100Y1282700D01*
X800100Y1130300D02*
X790575Y1120775D01*
X784225Y1120775D01*
X755650Y1092200D01*
X755650Y977900D01*
X800100Y977900D01*
X863600Y1231900D02*
X863600Y1282700D01*
X863600Y1206500D02*
X854075Y1196975D01*
X847725Y1196975D01*
X825500Y1174750D01*
X825500Y1073150D01*
X819150Y1066800D01*
X819150Y977900D01*
X863600Y977900D01*
X927100Y1231900D02*
X927100Y1282700D01*
X927100Y1206500D02*
X917575Y1196975D01*
X911225Y1196975D01*
X882650Y1168400D01*
X882650Y977900D01*
X927100Y977900D01*
X981075Y1044575D02*
X990600Y1054100D01*
X981075Y1044575D02*
X974725Y1044575D01*
X965200Y1035050D01*
X965200Y977900D01*
X990600Y977900D01*
X1076325Y1104900D02*
X1076325Y1190625D01*
X1069975Y1196975D01*
X1069975Y1282700D01*
X1054100Y1282700D01*
D20*
X1076325Y1104900D03*
D19*
X1054100Y1054100D02*
X1044575Y1044575D01*
X1038225Y1044575D01*
X1028700Y1035050D01*
X1028700Y977900D01*
X1054100Y977900D01*
X1117600Y1155700D02*
X1117600Y1181100D01*
X1120775Y1181100D01*
X1133475Y1193800D01*
X1133475Y1282700D01*
X1117600Y1282700D01*
X1181100Y1282700D02*
X1181100Y1155700D01*
X1838325Y1190625D02*
X1838325Y1114425D01*
X1838325Y1190625D02*
X1831975Y1196975D01*
X1831975Y1282700D01*
X1816100Y1282700D01*
D20*
X1838325Y1114425D03*
D19*
X1816100Y1054100D02*
X1825625Y1044575D01*
X1831975Y1044575D01*
X1841500Y1035050D01*
X1841500Y977900D01*
X1816100Y977900D01*
X2060575Y1196975D02*
X2070100Y1206500D01*
X2060575Y1196975D02*
X2054225Y1196975D01*
X2025650Y1168400D01*
X2025650Y1082675D01*
X2028825Y1082675D01*
X2085975Y1025525D01*
D20*
X2085975Y1025525D03*
D19*
X2133600Y1079500D02*
X2111375Y1101725D01*
X2105025Y1101725D01*
X2089150Y1117600D01*
X2089150Y1168400D01*
X2105025Y1184275D01*
X2105025Y1254125D01*
D20*
X2105025Y1254125D03*
D19*
X2197100Y1181100D02*
X2197100Y1114425D01*
X2197100Y1181100D02*
X2200275Y1181100D01*
X2212975Y1193800D01*
X2212975Y1282700D01*
X2197100Y1282700D01*
D20*
X2197100Y1114425D03*
D19*
X2197100Y1054100D02*
X2187575Y1044575D01*
X2181225Y1044575D01*
X2171700Y1035050D01*
X2171700Y977900D01*
X2197100Y977900D01*
X114300Y819150D02*
X92075Y841375D01*
X47625Y841375D01*
X19050Y869950D01*
X19050Y927100D01*
X34925Y942975D02*
X34925Y958850D01*
X28575Y965200D01*
X28575Y1336675D01*
X111125Y1336675D01*
X146050Y1371600D01*
X114300Y819150D02*
X116400Y818200D01*
X146050Y1371600D02*
X148590Y1371600D01*
D20*
X19050Y927100D03*
X34925Y942975D03*
D19*
X63500Y815975D02*
X98425Y781050D01*
X98425Y752475D01*
X139700Y752475D01*
X219075Y673100D01*
X2286000Y673100D01*
X2298700Y685800D01*
X63500Y815975D02*
X61400Y818200D01*
X2298700Y686600D02*
X2298700Y685800D01*
X2317750Y688975D02*
X2343150Y714375D01*
X2317750Y688975D02*
X2298700Y688975D01*
X2343150Y714375D02*
X2345700Y716600D01*
X2298700Y688975D02*
X2298700Y686600D01*
X60325Y946150D02*
X38100Y968375D01*
X38100Y1327150D01*
X384175Y1327150D01*
X514350Y1457325D01*
X1838325Y1457325D01*
X1873250Y1457325D02*
X1905000Y1425575D01*
X2298700Y1425575D01*
X61400Y944200D02*
X60325Y946150D01*
X2298700Y1425100D02*
X2298700Y1425575D01*
D20*
X1838325Y1457325D03*
X1873250Y1457325D03*
D19*
X114300Y942975D02*
X98425Y927100D01*
X34925Y927100D01*
X19050Y942975D01*
X19050Y1539875D01*
X2228850Y1539875D01*
X2282825Y1485900D01*
X2298700Y1485900D01*
X116400Y944200D02*
X114300Y942975D01*
X2298700Y1485100D02*
X2298700Y1485900D01*
X2282825Y1485900D02*
X2254250Y1457325D01*
X2251700Y1455100D01*
X2282825Y1485900D02*
X2298700Y1485100D01*
M02*
