G04 EAGLE Gerber RS-274X export*
G75*
%MOMM*%
%FSLAX34Y34*%
%LPD*%
%IN*%
%IPPOS*%
%AMOC8*
5,1,8,0,0,1.08239X$1,22.5*%
G01*
%ADD10C,0.254000*%


D10*
X0Y609600D02*
X2704900Y609600D01*
X2704900Y1558800D01*
X0Y1558800D01*
X0Y609600D01*
X720820Y1189990D02*
X719741Y1190061D01*
X718669Y1190202D01*
X717609Y1190413D01*
X716565Y1190692D01*
X715541Y1191040D01*
X714543Y1191454D01*
X713573Y1191932D01*
X712637Y1192472D01*
X711738Y1193073D01*
X710881Y1193731D01*
X710068Y1194444D01*
X709304Y1195208D01*
X708591Y1196021D01*
X707933Y1196878D01*
X707332Y1197777D01*
X706792Y1198713D01*
X706314Y1199683D01*
X705900Y1200681D01*
X705552Y1201705D01*
X705273Y1202749D01*
X705062Y1203809D01*
X704921Y1204881D01*
X704850Y1205960D01*
X704850Y1207040D01*
X704921Y1208119D01*
X705062Y1209191D01*
X705273Y1210251D01*
X705552Y1211295D01*
X705900Y1212319D01*
X706314Y1213317D01*
X706792Y1214287D01*
X707332Y1215223D01*
X707933Y1216122D01*
X708591Y1216979D01*
X709304Y1217792D01*
X710068Y1218557D01*
X710881Y1219269D01*
X711738Y1219927D01*
X712637Y1220528D01*
X713573Y1221068D01*
X714543Y1221546D01*
X715541Y1221960D01*
X716565Y1222308D01*
X717609Y1222587D01*
X718669Y1222798D01*
X719741Y1222939D01*
X720820Y1223010D01*
X721900Y1223010D01*
X722979Y1222939D01*
X724051Y1222798D01*
X725111Y1222587D01*
X726155Y1222308D01*
X727179Y1221960D01*
X728177Y1221546D01*
X729147Y1221068D01*
X730083Y1220528D01*
X730982Y1219927D01*
X731839Y1219269D01*
X732652Y1218557D01*
X733417Y1217792D01*
X734129Y1216979D01*
X734787Y1216122D01*
X735388Y1215223D01*
X735928Y1214287D01*
X736406Y1213317D01*
X736820Y1212319D01*
X737168Y1211295D01*
X737447Y1210251D01*
X737658Y1209191D01*
X737799Y1208119D01*
X737870Y1207040D01*
X737870Y1205960D01*
X737799Y1204881D01*
X737658Y1203809D01*
X737447Y1202749D01*
X737168Y1201705D01*
X736820Y1200681D01*
X736406Y1199683D01*
X735928Y1198713D01*
X735388Y1197777D01*
X734787Y1196878D01*
X734129Y1196021D01*
X733417Y1195208D01*
X732652Y1194444D01*
X731839Y1193731D01*
X730982Y1193073D01*
X730083Y1192472D01*
X729147Y1191932D01*
X728177Y1191454D01*
X727179Y1191040D01*
X726155Y1190692D01*
X725111Y1190413D01*
X724051Y1190202D01*
X722979Y1190061D01*
X721900Y1189990D01*
X720820Y1189990D01*
X1482820Y1189990D02*
X1481741Y1190061D01*
X1480669Y1190202D01*
X1479609Y1190413D01*
X1478565Y1190692D01*
X1477541Y1191040D01*
X1476543Y1191454D01*
X1475573Y1191932D01*
X1474637Y1192472D01*
X1473738Y1193073D01*
X1472881Y1193731D01*
X1472068Y1194444D01*
X1471304Y1195208D01*
X1470591Y1196021D01*
X1469933Y1196878D01*
X1469332Y1197777D01*
X1468792Y1198713D01*
X1468314Y1199683D01*
X1467900Y1200681D01*
X1467552Y1201705D01*
X1467273Y1202749D01*
X1467062Y1203809D01*
X1466921Y1204881D01*
X1466850Y1205960D01*
X1466850Y1207040D01*
X1466921Y1208119D01*
X1467062Y1209191D01*
X1467273Y1210251D01*
X1467552Y1211295D01*
X1467900Y1212319D01*
X1468314Y1213317D01*
X1468792Y1214287D01*
X1469332Y1215223D01*
X1469933Y1216122D01*
X1470591Y1216979D01*
X1471304Y1217792D01*
X1472068Y1218557D01*
X1472881Y1219269D01*
X1473738Y1219927D01*
X1474637Y1220528D01*
X1475573Y1221068D01*
X1476543Y1221546D01*
X1477541Y1221960D01*
X1478565Y1222308D01*
X1479609Y1222587D01*
X1480669Y1222798D01*
X1481741Y1222939D01*
X1482820Y1223010D01*
X1483900Y1223010D01*
X1484979Y1222939D01*
X1486051Y1222798D01*
X1487111Y1222587D01*
X1488155Y1222308D01*
X1489179Y1221960D01*
X1490177Y1221546D01*
X1491147Y1221068D01*
X1492083Y1220528D01*
X1492982Y1219927D01*
X1493839Y1219269D01*
X1494652Y1218557D01*
X1495417Y1217792D01*
X1496129Y1216979D01*
X1496787Y1216122D01*
X1497388Y1215223D01*
X1497928Y1214287D01*
X1498406Y1213317D01*
X1498820Y1212319D01*
X1499168Y1211295D01*
X1499447Y1210251D01*
X1499658Y1209191D01*
X1499799Y1208119D01*
X1499870Y1207040D01*
X1499870Y1205960D01*
X1499799Y1204881D01*
X1499658Y1203809D01*
X1499447Y1202749D01*
X1499168Y1201705D01*
X1498820Y1200681D01*
X1498406Y1199683D01*
X1497928Y1198713D01*
X1497388Y1197777D01*
X1496787Y1196878D01*
X1496129Y1196021D01*
X1495417Y1195208D01*
X1494652Y1194444D01*
X1493839Y1193731D01*
X1492982Y1193073D01*
X1492083Y1192472D01*
X1491147Y1191932D01*
X1490177Y1191454D01*
X1489179Y1191040D01*
X1488155Y1190692D01*
X1487111Y1190413D01*
X1486051Y1190202D01*
X1484979Y1190061D01*
X1483900Y1189990D01*
X1482820Y1189990D01*
X2244820Y1189990D02*
X2243741Y1190061D01*
X2242669Y1190202D01*
X2241609Y1190413D01*
X2240565Y1190692D01*
X2239541Y1191040D01*
X2238543Y1191454D01*
X2237573Y1191932D01*
X2236637Y1192472D01*
X2235738Y1193073D01*
X2234881Y1193731D01*
X2234068Y1194444D01*
X2233304Y1195208D01*
X2232591Y1196021D01*
X2231933Y1196878D01*
X2231332Y1197777D01*
X2230792Y1198713D01*
X2230314Y1199683D01*
X2229900Y1200681D01*
X2229552Y1201705D01*
X2229273Y1202749D01*
X2229062Y1203809D01*
X2228921Y1204881D01*
X2228850Y1205960D01*
X2228850Y1207040D01*
X2228921Y1208119D01*
X2229062Y1209191D01*
X2229273Y1210251D01*
X2229552Y1211295D01*
X2229900Y1212319D01*
X2230314Y1213317D01*
X2230792Y1214287D01*
X2231332Y1215223D01*
X2231933Y1216122D01*
X2232591Y1216979D01*
X2233304Y1217792D01*
X2234068Y1218557D01*
X2234881Y1219269D01*
X2235738Y1219927D01*
X2236637Y1220528D01*
X2237573Y1221068D01*
X2238543Y1221546D01*
X2239541Y1221960D01*
X2240565Y1222308D01*
X2241609Y1222587D01*
X2242669Y1222798D01*
X2243741Y1222939D01*
X2244820Y1223010D01*
X2245900Y1223010D01*
X2246979Y1222939D01*
X2248051Y1222798D01*
X2249111Y1222587D01*
X2250155Y1222308D01*
X2251179Y1221960D01*
X2252177Y1221546D01*
X2253147Y1221068D01*
X2254083Y1220528D01*
X2254982Y1219927D01*
X2255839Y1219269D01*
X2256652Y1218557D01*
X2257417Y1217792D01*
X2258129Y1216979D01*
X2258787Y1216122D01*
X2259388Y1215223D01*
X2259928Y1214287D01*
X2260406Y1213317D01*
X2260820Y1212319D01*
X2261168Y1211295D01*
X2261447Y1210251D01*
X2261658Y1209191D01*
X2261799Y1208119D01*
X2261870Y1207040D01*
X2261870Y1205960D01*
X2261799Y1204881D01*
X2261658Y1203809D01*
X2261447Y1202749D01*
X2261168Y1201705D01*
X2260820Y1200681D01*
X2260406Y1199683D01*
X2259928Y1198713D01*
X2259388Y1197777D01*
X2258787Y1196878D01*
X2258129Y1196021D01*
X2257417Y1195208D01*
X2256652Y1194444D01*
X2255839Y1193731D01*
X2254982Y1193073D01*
X2254083Y1192472D01*
X2253147Y1191932D01*
X2252177Y1191454D01*
X2251179Y1191040D01*
X2250155Y1190692D01*
X2249111Y1190413D01*
X2248051Y1190202D01*
X2246979Y1190061D01*
X2245900Y1189990D01*
X2244820Y1189990D01*
X657320Y1189990D02*
X656241Y1190061D01*
X655169Y1190202D01*
X654109Y1190413D01*
X653065Y1190692D01*
X652041Y1191040D01*
X651043Y1191454D01*
X650073Y1191932D01*
X649137Y1192472D01*
X648238Y1193073D01*
X647381Y1193731D01*
X646568Y1194444D01*
X645804Y1195208D01*
X645091Y1196021D01*
X644433Y1196878D01*
X643832Y1197777D01*
X643292Y1198713D01*
X642814Y1199683D01*
X642400Y1200681D01*
X642052Y1201705D01*
X641773Y1202749D01*
X641562Y1203809D01*
X641421Y1204881D01*
X641350Y1205960D01*
X641350Y1207040D01*
X641421Y1208119D01*
X641562Y1209191D01*
X641773Y1210251D01*
X642052Y1211295D01*
X642400Y1212319D01*
X642814Y1213317D01*
X643292Y1214287D01*
X643832Y1215223D01*
X644433Y1216122D01*
X645091Y1216979D01*
X645804Y1217792D01*
X646568Y1218557D01*
X647381Y1219269D01*
X648238Y1219927D01*
X649137Y1220528D01*
X650073Y1221068D01*
X651043Y1221546D01*
X652041Y1221960D01*
X653065Y1222308D01*
X654109Y1222587D01*
X655169Y1222798D01*
X656241Y1222939D01*
X657320Y1223010D01*
X658400Y1223010D01*
X659479Y1222939D01*
X660551Y1222798D01*
X661611Y1222587D01*
X662655Y1222308D01*
X663679Y1221960D01*
X664677Y1221546D01*
X665647Y1221068D01*
X666583Y1220528D01*
X667482Y1219927D01*
X668339Y1219269D01*
X669152Y1218557D01*
X669917Y1217792D01*
X670629Y1216979D01*
X671287Y1216122D01*
X671888Y1215223D01*
X672428Y1214287D01*
X672906Y1213317D01*
X673320Y1212319D01*
X673668Y1211295D01*
X673947Y1210251D01*
X674158Y1209191D01*
X674299Y1208119D01*
X674370Y1207040D01*
X674370Y1205960D01*
X674299Y1204881D01*
X674158Y1203809D01*
X673947Y1202749D01*
X673668Y1201705D01*
X673320Y1200681D01*
X672906Y1199683D01*
X672428Y1198713D01*
X671888Y1197777D01*
X671287Y1196878D01*
X670629Y1196021D01*
X669917Y1195208D01*
X669152Y1194444D01*
X668339Y1193731D01*
X667482Y1193073D01*
X666583Y1192472D01*
X665647Y1191932D01*
X664677Y1191454D01*
X663679Y1191040D01*
X662655Y1190692D01*
X661611Y1190413D01*
X660551Y1190202D01*
X659479Y1190061D01*
X658400Y1189990D01*
X657320Y1189990D01*
X1419320Y1189990D02*
X1418241Y1190061D01*
X1417169Y1190202D01*
X1416109Y1190413D01*
X1415065Y1190692D01*
X1414041Y1191040D01*
X1413043Y1191454D01*
X1412073Y1191932D01*
X1411137Y1192472D01*
X1410238Y1193073D01*
X1409381Y1193731D01*
X1408568Y1194444D01*
X1407804Y1195208D01*
X1407091Y1196021D01*
X1406433Y1196878D01*
X1405832Y1197777D01*
X1405292Y1198713D01*
X1404814Y1199683D01*
X1404400Y1200681D01*
X1404052Y1201705D01*
X1403773Y1202749D01*
X1403562Y1203809D01*
X1403421Y1204881D01*
X1403350Y1205960D01*
X1403350Y1207040D01*
X1403421Y1208119D01*
X1403562Y1209191D01*
X1403773Y1210251D01*
X1404052Y1211295D01*
X1404400Y1212319D01*
X1404814Y1213317D01*
X1405292Y1214287D01*
X1405832Y1215223D01*
X1406433Y1216122D01*
X1407091Y1216979D01*
X1407804Y1217792D01*
X1408568Y1218557D01*
X1409381Y1219269D01*
X1410238Y1219927D01*
X1411137Y1220528D01*
X1412073Y1221068D01*
X1413043Y1221546D01*
X1414041Y1221960D01*
X1415065Y1222308D01*
X1416109Y1222587D01*
X1417169Y1222798D01*
X1418241Y1222939D01*
X1419320Y1223010D01*
X1420400Y1223010D01*
X1421479Y1222939D01*
X1422551Y1222798D01*
X1423611Y1222587D01*
X1424655Y1222308D01*
X1425679Y1221960D01*
X1426677Y1221546D01*
X1427647Y1221068D01*
X1428583Y1220528D01*
X1429482Y1219927D01*
X1430339Y1219269D01*
X1431152Y1218557D01*
X1431917Y1217792D01*
X1432629Y1216979D01*
X1433287Y1216122D01*
X1433888Y1215223D01*
X1434428Y1214287D01*
X1434906Y1213317D01*
X1435320Y1212319D01*
X1435668Y1211295D01*
X1435947Y1210251D01*
X1436158Y1209191D01*
X1436299Y1208119D01*
X1436370Y1207040D01*
X1436370Y1205960D01*
X1436299Y1204881D01*
X1436158Y1203809D01*
X1435947Y1202749D01*
X1435668Y1201705D01*
X1435320Y1200681D01*
X1434906Y1199683D01*
X1434428Y1198713D01*
X1433888Y1197777D01*
X1433287Y1196878D01*
X1432629Y1196021D01*
X1431917Y1195208D01*
X1431152Y1194444D01*
X1430339Y1193731D01*
X1429482Y1193073D01*
X1428583Y1192472D01*
X1427647Y1191932D01*
X1426677Y1191454D01*
X1425679Y1191040D01*
X1424655Y1190692D01*
X1423611Y1190413D01*
X1422551Y1190202D01*
X1421479Y1190061D01*
X1420400Y1189990D01*
X1419320Y1189990D01*
X2181320Y1189990D02*
X2180241Y1190061D01*
X2179169Y1190202D01*
X2178109Y1190413D01*
X2177065Y1190692D01*
X2176041Y1191040D01*
X2175043Y1191454D01*
X2174073Y1191932D01*
X2173137Y1192472D01*
X2172238Y1193073D01*
X2171381Y1193731D01*
X2170568Y1194444D01*
X2169804Y1195208D01*
X2169091Y1196021D01*
X2168433Y1196878D01*
X2167832Y1197777D01*
X2167292Y1198713D01*
X2166814Y1199683D01*
X2166400Y1200681D01*
X2166052Y1201705D01*
X2165773Y1202749D01*
X2165562Y1203809D01*
X2165421Y1204881D01*
X2165350Y1205960D01*
X2165350Y1207040D01*
X2165421Y1208119D01*
X2165562Y1209191D01*
X2165773Y1210251D01*
X2166052Y1211295D01*
X2166400Y1212319D01*
X2166814Y1213317D01*
X2167292Y1214287D01*
X2167832Y1215223D01*
X2168433Y1216122D01*
X2169091Y1216979D01*
X2169804Y1217792D01*
X2170568Y1218557D01*
X2171381Y1219269D01*
X2172238Y1219927D01*
X2173137Y1220528D01*
X2174073Y1221068D01*
X2175043Y1221546D01*
X2176041Y1221960D01*
X2177065Y1222308D01*
X2178109Y1222587D01*
X2179169Y1222798D01*
X2180241Y1222939D01*
X2181320Y1223010D01*
X2182400Y1223010D01*
X2183479Y1222939D01*
X2184551Y1222798D01*
X2185611Y1222587D01*
X2186655Y1222308D01*
X2187679Y1221960D01*
X2188677Y1221546D01*
X2189647Y1221068D01*
X2190583Y1220528D01*
X2191482Y1219927D01*
X2192339Y1219269D01*
X2193152Y1218557D01*
X2193917Y1217792D01*
X2194629Y1216979D01*
X2195287Y1216122D01*
X2195888Y1215223D01*
X2196428Y1214287D01*
X2196906Y1213317D01*
X2197320Y1212319D01*
X2197668Y1211295D01*
X2197947Y1210251D01*
X2198158Y1209191D01*
X2198299Y1208119D01*
X2198370Y1207040D01*
X2198370Y1205960D01*
X2198299Y1204881D01*
X2198158Y1203809D01*
X2197947Y1202749D01*
X2197668Y1201705D01*
X2197320Y1200681D01*
X2196906Y1199683D01*
X2196428Y1198713D01*
X2195888Y1197777D01*
X2195287Y1196878D01*
X2194629Y1196021D01*
X2193917Y1195208D01*
X2193152Y1194444D01*
X2192339Y1193731D01*
X2191482Y1193073D01*
X2190583Y1192472D01*
X2189647Y1191932D01*
X2188677Y1191454D01*
X2187679Y1191040D01*
X2186655Y1190692D01*
X2185611Y1190413D01*
X2184551Y1190202D01*
X2183479Y1190061D01*
X2182400Y1189990D01*
X2181320Y1189990D01*
X784320Y1037590D02*
X783241Y1037661D01*
X782169Y1037802D01*
X781109Y1038013D01*
X780065Y1038292D01*
X779041Y1038640D01*
X778043Y1039054D01*
X777073Y1039532D01*
X776137Y1040072D01*
X775238Y1040673D01*
X774381Y1041331D01*
X773568Y1042044D01*
X772804Y1042808D01*
X772091Y1043621D01*
X771433Y1044478D01*
X770832Y1045377D01*
X770292Y1046313D01*
X769814Y1047283D01*
X769400Y1048281D01*
X769052Y1049305D01*
X768773Y1050349D01*
X768562Y1051409D01*
X768421Y1052481D01*
X768350Y1053560D01*
X768350Y1054640D01*
X768421Y1055719D01*
X768562Y1056791D01*
X768773Y1057851D01*
X769052Y1058895D01*
X769400Y1059919D01*
X769814Y1060917D01*
X770292Y1061887D01*
X770832Y1062823D01*
X771433Y1063722D01*
X772091Y1064579D01*
X772804Y1065392D01*
X773568Y1066157D01*
X774381Y1066869D01*
X775238Y1067527D01*
X776137Y1068128D01*
X777073Y1068668D01*
X778043Y1069146D01*
X779041Y1069560D01*
X780065Y1069908D01*
X781109Y1070187D01*
X782169Y1070398D01*
X783241Y1070539D01*
X784320Y1070610D01*
X785400Y1070610D01*
X786479Y1070539D01*
X787551Y1070398D01*
X788611Y1070187D01*
X789655Y1069908D01*
X790679Y1069560D01*
X791677Y1069146D01*
X792647Y1068668D01*
X793583Y1068128D01*
X794482Y1067527D01*
X795339Y1066869D01*
X796152Y1066157D01*
X796917Y1065392D01*
X797629Y1064579D01*
X798287Y1063722D01*
X798888Y1062823D01*
X799428Y1061887D01*
X799906Y1060917D01*
X800320Y1059919D01*
X800668Y1058895D01*
X800947Y1057851D01*
X801158Y1056791D01*
X801299Y1055719D01*
X801370Y1054640D01*
X801370Y1053560D01*
X801299Y1052481D01*
X801158Y1051409D01*
X800947Y1050349D01*
X800668Y1049305D01*
X800320Y1048281D01*
X799906Y1047283D01*
X799428Y1046313D01*
X798888Y1045377D01*
X798287Y1044478D01*
X797629Y1043621D01*
X796917Y1042808D01*
X796152Y1042044D01*
X795339Y1041331D01*
X794482Y1040673D01*
X793583Y1040072D01*
X792647Y1039532D01*
X791677Y1039054D01*
X790679Y1038640D01*
X789655Y1038292D01*
X788611Y1038013D01*
X787551Y1037802D01*
X786479Y1037661D01*
X785400Y1037590D01*
X784320Y1037590D01*
X1546320Y1037590D02*
X1545241Y1037661D01*
X1544169Y1037802D01*
X1543109Y1038013D01*
X1542065Y1038292D01*
X1541041Y1038640D01*
X1540043Y1039054D01*
X1539073Y1039532D01*
X1538137Y1040072D01*
X1537238Y1040673D01*
X1536381Y1041331D01*
X1535568Y1042044D01*
X1534804Y1042808D01*
X1534091Y1043621D01*
X1533433Y1044478D01*
X1532832Y1045377D01*
X1532292Y1046313D01*
X1531814Y1047283D01*
X1531400Y1048281D01*
X1531052Y1049305D01*
X1530773Y1050349D01*
X1530562Y1051409D01*
X1530421Y1052481D01*
X1530350Y1053560D01*
X1530350Y1054640D01*
X1530421Y1055719D01*
X1530562Y1056791D01*
X1530773Y1057851D01*
X1531052Y1058895D01*
X1531400Y1059919D01*
X1531814Y1060917D01*
X1532292Y1061887D01*
X1532832Y1062823D01*
X1533433Y1063722D01*
X1534091Y1064579D01*
X1534804Y1065392D01*
X1535568Y1066157D01*
X1536381Y1066869D01*
X1537238Y1067527D01*
X1538137Y1068128D01*
X1539073Y1068668D01*
X1540043Y1069146D01*
X1541041Y1069560D01*
X1542065Y1069908D01*
X1543109Y1070187D01*
X1544169Y1070398D01*
X1545241Y1070539D01*
X1546320Y1070610D01*
X1547400Y1070610D01*
X1548479Y1070539D01*
X1549551Y1070398D01*
X1550611Y1070187D01*
X1551655Y1069908D01*
X1552679Y1069560D01*
X1553677Y1069146D01*
X1554647Y1068668D01*
X1555583Y1068128D01*
X1556482Y1067527D01*
X1557339Y1066869D01*
X1558152Y1066157D01*
X1558917Y1065392D01*
X1559629Y1064579D01*
X1560287Y1063722D01*
X1560888Y1062823D01*
X1561428Y1061887D01*
X1561906Y1060917D01*
X1562320Y1059919D01*
X1562668Y1058895D01*
X1562947Y1057851D01*
X1563158Y1056791D01*
X1563299Y1055719D01*
X1563370Y1054640D01*
X1563370Y1053560D01*
X1563299Y1052481D01*
X1563158Y1051409D01*
X1562947Y1050349D01*
X1562668Y1049305D01*
X1562320Y1048281D01*
X1561906Y1047283D01*
X1561428Y1046313D01*
X1560888Y1045377D01*
X1560287Y1044478D01*
X1559629Y1043621D01*
X1558917Y1042808D01*
X1558152Y1042044D01*
X1557339Y1041331D01*
X1556482Y1040673D01*
X1555583Y1040072D01*
X1554647Y1039532D01*
X1553677Y1039054D01*
X1552679Y1038640D01*
X1551655Y1038292D01*
X1550611Y1038013D01*
X1549551Y1037802D01*
X1548479Y1037661D01*
X1547400Y1037590D01*
X1546320Y1037590D01*
X2308320Y1037590D02*
X2307241Y1037661D01*
X2306169Y1037802D01*
X2305109Y1038013D01*
X2304065Y1038292D01*
X2303041Y1038640D01*
X2302043Y1039054D01*
X2301073Y1039532D01*
X2300137Y1040072D01*
X2299238Y1040673D01*
X2298381Y1041331D01*
X2297568Y1042044D01*
X2296804Y1042808D01*
X2296091Y1043621D01*
X2295433Y1044478D01*
X2294832Y1045377D01*
X2294292Y1046313D01*
X2293814Y1047283D01*
X2293400Y1048281D01*
X2293052Y1049305D01*
X2292773Y1050349D01*
X2292562Y1051409D01*
X2292421Y1052481D01*
X2292350Y1053560D01*
X2292350Y1054640D01*
X2292421Y1055719D01*
X2292562Y1056791D01*
X2292773Y1057851D01*
X2293052Y1058895D01*
X2293400Y1059919D01*
X2293814Y1060917D01*
X2294292Y1061887D01*
X2294832Y1062823D01*
X2295433Y1063722D01*
X2296091Y1064579D01*
X2296804Y1065392D01*
X2297568Y1066157D01*
X2298381Y1066869D01*
X2299238Y1067527D01*
X2300137Y1068128D01*
X2301073Y1068668D01*
X2302043Y1069146D01*
X2303041Y1069560D01*
X2304065Y1069908D01*
X2305109Y1070187D01*
X2306169Y1070398D01*
X2307241Y1070539D01*
X2308320Y1070610D01*
X2309400Y1070610D01*
X2310479Y1070539D01*
X2311551Y1070398D01*
X2312611Y1070187D01*
X2313655Y1069908D01*
X2314679Y1069560D01*
X2315677Y1069146D01*
X2316647Y1068668D01*
X2317583Y1068128D01*
X2318482Y1067527D01*
X2319339Y1066869D01*
X2320152Y1066157D01*
X2320917Y1065392D01*
X2321629Y1064579D01*
X2322287Y1063722D01*
X2322888Y1062823D01*
X2323428Y1061887D01*
X2323906Y1060917D01*
X2324320Y1059919D01*
X2324668Y1058895D01*
X2324947Y1057851D01*
X2325158Y1056791D01*
X2325299Y1055719D01*
X2325370Y1054640D01*
X2325370Y1053560D01*
X2325299Y1052481D01*
X2325158Y1051409D01*
X2324947Y1050349D01*
X2324668Y1049305D01*
X2324320Y1048281D01*
X2323906Y1047283D01*
X2323428Y1046313D01*
X2322888Y1045377D01*
X2322287Y1044478D01*
X2321629Y1043621D01*
X2320917Y1042808D01*
X2320152Y1042044D01*
X2319339Y1041331D01*
X2318482Y1040673D01*
X2317583Y1040072D01*
X2316647Y1039532D01*
X2315677Y1039054D01*
X2314679Y1038640D01*
X2313655Y1038292D01*
X2312611Y1038013D01*
X2311551Y1037802D01*
X2310479Y1037661D01*
X2309400Y1037590D01*
X2308320Y1037590D01*
X911320Y1113790D02*
X910241Y1113861D01*
X909169Y1114002D01*
X908109Y1114213D01*
X907065Y1114492D01*
X906041Y1114840D01*
X905043Y1115254D01*
X904073Y1115732D01*
X903137Y1116272D01*
X902238Y1116873D01*
X901381Y1117531D01*
X900568Y1118244D01*
X899804Y1119008D01*
X899091Y1119821D01*
X898433Y1120678D01*
X897832Y1121577D01*
X897292Y1122513D01*
X896814Y1123483D01*
X896400Y1124481D01*
X896052Y1125505D01*
X895773Y1126549D01*
X895562Y1127609D01*
X895421Y1128681D01*
X895350Y1129760D01*
X895350Y1130840D01*
X895421Y1131919D01*
X895562Y1132991D01*
X895773Y1134051D01*
X896052Y1135095D01*
X896400Y1136119D01*
X896814Y1137117D01*
X897292Y1138087D01*
X897832Y1139023D01*
X898433Y1139922D01*
X899091Y1140779D01*
X899804Y1141592D01*
X900568Y1142357D01*
X901381Y1143069D01*
X902238Y1143727D01*
X903137Y1144328D01*
X904073Y1144868D01*
X905043Y1145346D01*
X906041Y1145760D01*
X907065Y1146108D01*
X908109Y1146387D01*
X909169Y1146598D01*
X910241Y1146739D01*
X911320Y1146810D01*
X912400Y1146810D01*
X913479Y1146739D01*
X914551Y1146598D01*
X915611Y1146387D01*
X916655Y1146108D01*
X917679Y1145760D01*
X918677Y1145346D01*
X919647Y1144868D01*
X920583Y1144328D01*
X921482Y1143727D01*
X922339Y1143069D01*
X923152Y1142357D01*
X923917Y1141592D01*
X924629Y1140779D01*
X925287Y1139922D01*
X925888Y1139023D01*
X926428Y1138087D01*
X926906Y1137117D01*
X927320Y1136119D01*
X927668Y1135095D01*
X927947Y1134051D01*
X928158Y1132991D01*
X928299Y1131919D01*
X928370Y1130840D01*
X928370Y1129760D01*
X928299Y1128681D01*
X928158Y1127609D01*
X927947Y1126549D01*
X927668Y1125505D01*
X927320Y1124481D01*
X926906Y1123483D01*
X926428Y1122513D01*
X925888Y1121577D01*
X925287Y1120678D01*
X924629Y1119821D01*
X923917Y1119008D01*
X923152Y1118244D01*
X922339Y1117531D01*
X921482Y1116873D01*
X920583Y1116272D01*
X919647Y1115732D01*
X918677Y1115254D01*
X917679Y1114840D01*
X916655Y1114492D01*
X915611Y1114213D01*
X914551Y1114002D01*
X913479Y1113861D01*
X912400Y1113790D01*
X911320Y1113790D01*
X1673320Y1113790D02*
X1672241Y1113861D01*
X1671169Y1114002D01*
X1670109Y1114213D01*
X1669065Y1114492D01*
X1668041Y1114840D01*
X1667043Y1115254D01*
X1666073Y1115732D01*
X1665137Y1116272D01*
X1664238Y1116873D01*
X1663381Y1117531D01*
X1662568Y1118244D01*
X1661804Y1119008D01*
X1661091Y1119821D01*
X1660433Y1120678D01*
X1659832Y1121577D01*
X1659292Y1122513D01*
X1658814Y1123483D01*
X1658400Y1124481D01*
X1658052Y1125505D01*
X1657773Y1126549D01*
X1657562Y1127609D01*
X1657421Y1128681D01*
X1657350Y1129760D01*
X1657350Y1130840D01*
X1657421Y1131919D01*
X1657562Y1132991D01*
X1657773Y1134051D01*
X1658052Y1135095D01*
X1658400Y1136119D01*
X1658814Y1137117D01*
X1659292Y1138087D01*
X1659832Y1139023D01*
X1660433Y1139922D01*
X1661091Y1140779D01*
X1661804Y1141592D01*
X1662568Y1142357D01*
X1663381Y1143069D01*
X1664238Y1143727D01*
X1665137Y1144328D01*
X1666073Y1144868D01*
X1667043Y1145346D01*
X1668041Y1145760D01*
X1669065Y1146108D01*
X1670109Y1146387D01*
X1671169Y1146598D01*
X1672241Y1146739D01*
X1673320Y1146810D01*
X1674400Y1146810D01*
X1675479Y1146739D01*
X1676551Y1146598D01*
X1677611Y1146387D01*
X1678655Y1146108D01*
X1679679Y1145760D01*
X1680677Y1145346D01*
X1681647Y1144868D01*
X1682583Y1144328D01*
X1683482Y1143727D01*
X1684339Y1143069D01*
X1685152Y1142357D01*
X1685917Y1141592D01*
X1686629Y1140779D01*
X1687287Y1139922D01*
X1687888Y1139023D01*
X1688428Y1138087D01*
X1688906Y1137117D01*
X1689320Y1136119D01*
X1689668Y1135095D01*
X1689947Y1134051D01*
X1690158Y1132991D01*
X1690299Y1131919D01*
X1690370Y1130840D01*
X1690370Y1129760D01*
X1690299Y1128681D01*
X1690158Y1127609D01*
X1689947Y1126549D01*
X1689668Y1125505D01*
X1689320Y1124481D01*
X1688906Y1123483D01*
X1688428Y1122513D01*
X1687888Y1121577D01*
X1687287Y1120678D01*
X1686629Y1119821D01*
X1685917Y1119008D01*
X1685152Y1118244D01*
X1684339Y1117531D01*
X1683482Y1116873D01*
X1682583Y1116272D01*
X1681647Y1115732D01*
X1680677Y1115254D01*
X1679679Y1114840D01*
X1678655Y1114492D01*
X1677611Y1114213D01*
X1676551Y1114002D01*
X1675479Y1113861D01*
X1674400Y1113790D01*
X1673320Y1113790D01*
X847820Y1037590D02*
X846741Y1037661D01*
X845669Y1037802D01*
X844609Y1038013D01*
X843565Y1038292D01*
X842541Y1038640D01*
X841543Y1039054D01*
X840573Y1039532D01*
X839637Y1040072D01*
X838738Y1040673D01*
X837881Y1041331D01*
X837068Y1042044D01*
X836304Y1042808D01*
X835591Y1043621D01*
X834933Y1044478D01*
X834332Y1045377D01*
X833792Y1046313D01*
X833314Y1047283D01*
X832900Y1048281D01*
X832552Y1049305D01*
X832273Y1050349D01*
X832062Y1051409D01*
X831921Y1052481D01*
X831850Y1053560D01*
X831850Y1054640D01*
X831921Y1055719D01*
X832062Y1056791D01*
X832273Y1057851D01*
X832552Y1058895D01*
X832900Y1059919D01*
X833314Y1060917D01*
X833792Y1061887D01*
X834332Y1062823D01*
X834933Y1063722D01*
X835591Y1064579D01*
X836304Y1065392D01*
X837068Y1066157D01*
X837881Y1066869D01*
X838738Y1067527D01*
X839637Y1068128D01*
X840573Y1068668D01*
X841543Y1069146D01*
X842541Y1069560D01*
X843565Y1069908D01*
X844609Y1070187D01*
X845669Y1070398D01*
X846741Y1070539D01*
X847820Y1070610D01*
X848900Y1070610D01*
X849979Y1070539D01*
X851051Y1070398D01*
X852111Y1070187D01*
X853155Y1069908D01*
X854179Y1069560D01*
X855177Y1069146D01*
X856147Y1068668D01*
X857083Y1068128D01*
X857982Y1067527D01*
X858839Y1066869D01*
X859652Y1066157D01*
X860417Y1065392D01*
X861129Y1064579D01*
X861787Y1063722D01*
X862388Y1062823D01*
X862928Y1061887D01*
X863406Y1060917D01*
X863820Y1059919D01*
X864168Y1058895D01*
X864447Y1057851D01*
X864658Y1056791D01*
X864799Y1055719D01*
X864870Y1054640D01*
X864870Y1053560D01*
X864799Y1052481D01*
X864658Y1051409D01*
X864447Y1050349D01*
X864168Y1049305D01*
X863820Y1048281D01*
X863406Y1047283D01*
X862928Y1046313D01*
X862388Y1045377D01*
X861787Y1044478D01*
X861129Y1043621D01*
X860417Y1042808D01*
X859652Y1042044D01*
X858839Y1041331D01*
X857982Y1040673D01*
X857083Y1040072D01*
X856147Y1039532D01*
X855177Y1039054D01*
X854179Y1038640D01*
X853155Y1038292D01*
X852111Y1038013D01*
X851051Y1037802D01*
X849979Y1037661D01*
X848900Y1037590D01*
X847820Y1037590D01*
X1609820Y1037590D02*
X1608741Y1037661D01*
X1607669Y1037802D01*
X1606609Y1038013D01*
X1605565Y1038292D01*
X1604541Y1038640D01*
X1603543Y1039054D01*
X1602573Y1039532D01*
X1601637Y1040072D01*
X1600738Y1040673D01*
X1599881Y1041331D01*
X1599068Y1042044D01*
X1598304Y1042808D01*
X1597591Y1043621D01*
X1596933Y1044478D01*
X1596332Y1045377D01*
X1595792Y1046313D01*
X1595314Y1047283D01*
X1594900Y1048281D01*
X1594552Y1049305D01*
X1594273Y1050349D01*
X1594062Y1051409D01*
X1593921Y1052481D01*
X1593850Y1053560D01*
X1593850Y1054640D01*
X1593921Y1055719D01*
X1594062Y1056791D01*
X1594273Y1057851D01*
X1594552Y1058895D01*
X1594900Y1059919D01*
X1595314Y1060917D01*
X1595792Y1061887D01*
X1596332Y1062823D01*
X1596933Y1063722D01*
X1597591Y1064579D01*
X1598304Y1065392D01*
X1599068Y1066157D01*
X1599881Y1066869D01*
X1600738Y1067527D01*
X1601637Y1068128D01*
X1602573Y1068668D01*
X1603543Y1069146D01*
X1604541Y1069560D01*
X1605565Y1069908D01*
X1606609Y1070187D01*
X1607669Y1070398D01*
X1608741Y1070539D01*
X1609820Y1070610D01*
X1610900Y1070610D01*
X1611979Y1070539D01*
X1613051Y1070398D01*
X1614111Y1070187D01*
X1615155Y1069908D01*
X1616179Y1069560D01*
X1617177Y1069146D01*
X1618147Y1068668D01*
X1619083Y1068128D01*
X1619982Y1067527D01*
X1620839Y1066869D01*
X1621652Y1066157D01*
X1622417Y1065392D01*
X1623129Y1064579D01*
X1623787Y1063722D01*
X1624388Y1062823D01*
X1624928Y1061887D01*
X1625406Y1060917D01*
X1625820Y1059919D01*
X1626168Y1058895D01*
X1626447Y1057851D01*
X1626658Y1056791D01*
X1626799Y1055719D01*
X1626870Y1054640D01*
X1626870Y1053560D01*
X1626799Y1052481D01*
X1626658Y1051409D01*
X1626447Y1050349D01*
X1626168Y1049305D01*
X1625820Y1048281D01*
X1625406Y1047283D01*
X1624928Y1046313D01*
X1624388Y1045377D01*
X1623787Y1044478D01*
X1623129Y1043621D01*
X1622417Y1042808D01*
X1621652Y1042044D01*
X1620839Y1041331D01*
X1619982Y1040673D01*
X1619083Y1040072D01*
X1618147Y1039532D01*
X1617177Y1039054D01*
X1616179Y1038640D01*
X1615155Y1038292D01*
X1614111Y1038013D01*
X1613051Y1037802D01*
X1611979Y1037661D01*
X1610900Y1037590D01*
X1609820Y1037590D01*
X2371820Y1037590D02*
X2370741Y1037661D01*
X2369669Y1037802D01*
X2368609Y1038013D01*
X2367565Y1038292D01*
X2366541Y1038640D01*
X2365543Y1039054D01*
X2364573Y1039532D01*
X2363637Y1040072D01*
X2362738Y1040673D01*
X2361881Y1041331D01*
X2361068Y1042044D01*
X2360304Y1042808D01*
X2359591Y1043621D01*
X2358933Y1044478D01*
X2358332Y1045377D01*
X2357792Y1046313D01*
X2357314Y1047283D01*
X2356900Y1048281D01*
X2356552Y1049305D01*
X2356273Y1050349D01*
X2356062Y1051409D01*
X2355921Y1052481D01*
X2355850Y1053560D01*
X2355850Y1054640D01*
X2355921Y1055719D01*
X2356062Y1056791D01*
X2356273Y1057851D01*
X2356552Y1058895D01*
X2356900Y1059919D01*
X2357314Y1060917D01*
X2357792Y1061887D01*
X2358332Y1062823D01*
X2358933Y1063722D01*
X2359591Y1064579D01*
X2360304Y1065392D01*
X2361068Y1066157D01*
X2361881Y1066869D01*
X2362738Y1067527D01*
X2363637Y1068128D01*
X2364573Y1068668D01*
X2365543Y1069146D01*
X2366541Y1069560D01*
X2367565Y1069908D01*
X2368609Y1070187D01*
X2369669Y1070398D01*
X2370741Y1070539D01*
X2371820Y1070610D01*
X2372900Y1070610D01*
X2373979Y1070539D01*
X2375051Y1070398D01*
X2376111Y1070187D01*
X2377155Y1069908D01*
X2378179Y1069560D01*
X2379177Y1069146D01*
X2380147Y1068668D01*
X2381083Y1068128D01*
X2381982Y1067527D01*
X2382839Y1066869D01*
X2383652Y1066157D01*
X2384417Y1065392D01*
X2385129Y1064579D01*
X2385787Y1063722D01*
X2386388Y1062823D01*
X2386928Y1061887D01*
X2387406Y1060917D01*
X2387820Y1059919D01*
X2388168Y1058895D01*
X2388447Y1057851D01*
X2388658Y1056791D01*
X2388799Y1055719D01*
X2388870Y1054640D01*
X2388870Y1053560D01*
X2388799Y1052481D01*
X2388658Y1051409D01*
X2388447Y1050349D01*
X2388168Y1049305D01*
X2387820Y1048281D01*
X2387406Y1047283D01*
X2386928Y1046313D01*
X2386388Y1045377D01*
X2385787Y1044478D01*
X2385129Y1043621D01*
X2384417Y1042808D01*
X2383652Y1042044D01*
X2382839Y1041331D01*
X2381982Y1040673D01*
X2381083Y1040072D01*
X2380147Y1039532D01*
X2379177Y1039054D01*
X2378179Y1038640D01*
X2377155Y1038292D01*
X2376111Y1038013D01*
X2375051Y1037802D01*
X2373979Y1037661D01*
X2372900Y1037590D01*
X2371820Y1037590D01*
X1038320Y1189990D02*
X1037241Y1190061D01*
X1036169Y1190202D01*
X1035109Y1190413D01*
X1034065Y1190692D01*
X1033041Y1191040D01*
X1032043Y1191454D01*
X1031073Y1191932D01*
X1030137Y1192472D01*
X1029238Y1193073D01*
X1028381Y1193731D01*
X1027568Y1194444D01*
X1026804Y1195208D01*
X1026091Y1196021D01*
X1025433Y1196878D01*
X1024832Y1197777D01*
X1024292Y1198713D01*
X1023814Y1199683D01*
X1023400Y1200681D01*
X1023052Y1201705D01*
X1022773Y1202749D01*
X1022562Y1203809D01*
X1022421Y1204881D01*
X1022350Y1205960D01*
X1022350Y1207040D01*
X1022421Y1208119D01*
X1022562Y1209191D01*
X1022773Y1210251D01*
X1023052Y1211295D01*
X1023400Y1212319D01*
X1023814Y1213317D01*
X1024292Y1214287D01*
X1024832Y1215223D01*
X1025433Y1216122D01*
X1026091Y1216979D01*
X1026804Y1217792D01*
X1027568Y1218557D01*
X1028381Y1219269D01*
X1029238Y1219927D01*
X1030137Y1220528D01*
X1031073Y1221068D01*
X1032043Y1221546D01*
X1033041Y1221960D01*
X1034065Y1222308D01*
X1035109Y1222587D01*
X1036169Y1222798D01*
X1037241Y1222939D01*
X1038320Y1223010D01*
X1039400Y1223010D01*
X1040479Y1222939D01*
X1041551Y1222798D01*
X1042611Y1222587D01*
X1043655Y1222308D01*
X1044679Y1221960D01*
X1045677Y1221546D01*
X1046647Y1221068D01*
X1047583Y1220528D01*
X1048482Y1219927D01*
X1049339Y1219269D01*
X1050152Y1218557D01*
X1050917Y1217792D01*
X1051629Y1216979D01*
X1052287Y1216122D01*
X1052888Y1215223D01*
X1053428Y1214287D01*
X1053906Y1213317D01*
X1054320Y1212319D01*
X1054668Y1211295D01*
X1054947Y1210251D01*
X1055158Y1209191D01*
X1055299Y1208119D01*
X1055370Y1207040D01*
X1055370Y1205960D01*
X1055299Y1204881D01*
X1055158Y1203809D01*
X1054947Y1202749D01*
X1054668Y1201705D01*
X1054320Y1200681D01*
X1053906Y1199683D01*
X1053428Y1198713D01*
X1052888Y1197777D01*
X1052287Y1196878D01*
X1051629Y1196021D01*
X1050917Y1195208D01*
X1050152Y1194444D01*
X1049339Y1193731D01*
X1048482Y1193073D01*
X1047583Y1192472D01*
X1046647Y1191932D01*
X1045677Y1191454D01*
X1044679Y1191040D01*
X1043655Y1190692D01*
X1042611Y1190413D01*
X1041551Y1190202D01*
X1040479Y1190061D01*
X1039400Y1189990D01*
X1038320Y1189990D01*
X1800320Y1189990D02*
X1799241Y1190061D01*
X1798169Y1190202D01*
X1797109Y1190413D01*
X1796065Y1190692D01*
X1795041Y1191040D01*
X1794043Y1191454D01*
X1793073Y1191932D01*
X1792137Y1192472D01*
X1791238Y1193073D01*
X1790381Y1193731D01*
X1789568Y1194444D01*
X1788804Y1195208D01*
X1788091Y1196021D01*
X1787433Y1196878D01*
X1786832Y1197777D01*
X1786292Y1198713D01*
X1785814Y1199683D01*
X1785400Y1200681D01*
X1785052Y1201705D01*
X1784773Y1202749D01*
X1784562Y1203809D01*
X1784421Y1204881D01*
X1784350Y1205960D01*
X1784350Y1207040D01*
X1784421Y1208119D01*
X1784562Y1209191D01*
X1784773Y1210251D01*
X1785052Y1211295D01*
X1785400Y1212319D01*
X1785814Y1213317D01*
X1786292Y1214287D01*
X1786832Y1215223D01*
X1787433Y1216122D01*
X1788091Y1216979D01*
X1788804Y1217792D01*
X1789568Y1218557D01*
X1790381Y1219269D01*
X1791238Y1219927D01*
X1792137Y1220528D01*
X1793073Y1221068D01*
X1794043Y1221546D01*
X1795041Y1221960D01*
X1796065Y1222308D01*
X1797109Y1222587D01*
X1798169Y1222798D01*
X1799241Y1222939D01*
X1800320Y1223010D01*
X1801400Y1223010D01*
X1802479Y1222939D01*
X1803551Y1222798D01*
X1804611Y1222587D01*
X1805655Y1222308D01*
X1806679Y1221960D01*
X1807677Y1221546D01*
X1808647Y1221068D01*
X1809583Y1220528D01*
X1810482Y1219927D01*
X1811339Y1219269D01*
X1812152Y1218557D01*
X1812917Y1217792D01*
X1813629Y1216979D01*
X1814287Y1216122D01*
X1814888Y1215223D01*
X1815428Y1214287D01*
X1815906Y1213317D01*
X1816320Y1212319D01*
X1816668Y1211295D01*
X1816947Y1210251D01*
X1817158Y1209191D01*
X1817299Y1208119D01*
X1817370Y1207040D01*
X1817370Y1205960D01*
X1817299Y1204881D01*
X1817158Y1203809D01*
X1816947Y1202749D01*
X1816668Y1201705D01*
X1816320Y1200681D01*
X1815906Y1199683D01*
X1815428Y1198713D01*
X1814888Y1197777D01*
X1814287Y1196878D01*
X1813629Y1196021D01*
X1812917Y1195208D01*
X1812152Y1194444D01*
X1811339Y1193731D01*
X1810482Y1193073D01*
X1809583Y1192472D01*
X1808647Y1191932D01*
X1807677Y1191454D01*
X1806679Y1191040D01*
X1805655Y1190692D01*
X1804611Y1190413D01*
X1803551Y1190202D01*
X1802479Y1190061D01*
X1801400Y1189990D01*
X1800320Y1189990D01*
X974820Y1113790D02*
X973741Y1113861D01*
X972669Y1114002D01*
X971609Y1114213D01*
X970565Y1114492D01*
X969541Y1114840D01*
X968543Y1115254D01*
X967573Y1115732D01*
X966637Y1116272D01*
X965738Y1116873D01*
X964881Y1117531D01*
X964068Y1118244D01*
X963304Y1119008D01*
X962591Y1119821D01*
X961933Y1120678D01*
X961332Y1121577D01*
X960792Y1122513D01*
X960314Y1123483D01*
X959900Y1124481D01*
X959552Y1125505D01*
X959273Y1126549D01*
X959062Y1127609D01*
X958921Y1128681D01*
X958850Y1129760D01*
X958850Y1130840D01*
X958921Y1131919D01*
X959062Y1132991D01*
X959273Y1134051D01*
X959552Y1135095D01*
X959900Y1136119D01*
X960314Y1137117D01*
X960792Y1138087D01*
X961332Y1139023D01*
X961933Y1139922D01*
X962591Y1140779D01*
X963304Y1141592D01*
X964068Y1142357D01*
X964881Y1143069D01*
X965738Y1143727D01*
X966637Y1144328D01*
X967573Y1144868D01*
X968543Y1145346D01*
X969541Y1145760D01*
X970565Y1146108D01*
X971609Y1146387D01*
X972669Y1146598D01*
X973741Y1146739D01*
X974820Y1146810D01*
X975900Y1146810D01*
X976979Y1146739D01*
X978051Y1146598D01*
X979111Y1146387D01*
X980155Y1146108D01*
X981179Y1145760D01*
X982177Y1145346D01*
X983147Y1144868D01*
X984083Y1144328D01*
X984982Y1143727D01*
X985839Y1143069D01*
X986652Y1142357D01*
X987417Y1141592D01*
X988129Y1140779D01*
X988787Y1139922D01*
X989388Y1139023D01*
X989928Y1138087D01*
X990406Y1137117D01*
X990820Y1136119D01*
X991168Y1135095D01*
X991447Y1134051D01*
X991658Y1132991D01*
X991799Y1131919D01*
X991870Y1130840D01*
X991870Y1129760D01*
X991799Y1128681D01*
X991658Y1127609D01*
X991447Y1126549D01*
X991168Y1125505D01*
X990820Y1124481D01*
X990406Y1123483D01*
X989928Y1122513D01*
X989388Y1121577D01*
X988787Y1120678D01*
X988129Y1119821D01*
X987417Y1119008D01*
X986652Y1118244D01*
X985839Y1117531D01*
X984982Y1116873D01*
X984083Y1116272D01*
X983147Y1115732D01*
X982177Y1115254D01*
X981179Y1114840D01*
X980155Y1114492D01*
X979111Y1114213D01*
X978051Y1114002D01*
X976979Y1113861D01*
X975900Y1113790D01*
X974820Y1113790D01*
X1736820Y1113790D02*
X1735741Y1113861D01*
X1734669Y1114002D01*
X1733609Y1114213D01*
X1732565Y1114492D01*
X1731541Y1114840D01*
X1730543Y1115254D01*
X1729573Y1115732D01*
X1728637Y1116272D01*
X1727738Y1116873D01*
X1726881Y1117531D01*
X1726068Y1118244D01*
X1725304Y1119008D01*
X1724591Y1119821D01*
X1723933Y1120678D01*
X1723332Y1121577D01*
X1722792Y1122513D01*
X1722314Y1123483D01*
X1721900Y1124481D01*
X1721552Y1125505D01*
X1721273Y1126549D01*
X1721062Y1127609D01*
X1720921Y1128681D01*
X1720850Y1129760D01*
X1720850Y1130840D01*
X1720921Y1131919D01*
X1721062Y1132991D01*
X1721273Y1134051D01*
X1721552Y1135095D01*
X1721900Y1136119D01*
X1722314Y1137117D01*
X1722792Y1138087D01*
X1723332Y1139023D01*
X1723933Y1139922D01*
X1724591Y1140779D01*
X1725304Y1141592D01*
X1726068Y1142357D01*
X1726881Y1143069D01*
X1727738Y1143727D01*
X1728637Y1144328D01*
X1729573Y1144868D01*
X1730543Y1145346D01*
X1731541Y1145760D01*
X1732565Y1146108D01*
X1733609Y1146387D01*
X1734669Y1146598D01*
X1735741Y1146739D01*
X1736820Y1146810D01*
X1737900Y1146810D01*
X1738979Y1146739D01*
X1740051Y1146598D01*
X1741111Y1146387D01*
X1742155Y1146108D01*
X1743179Y1145760D01*
X1744177Y1145346D01*
X1745147Y1144868D01*
X1746083Y1144328D01*
X1746982Y1143727D01*
X1747839Y1143069D01*
X1748652Y1142357D01*
X1749417Y1141592D01*
X1750129Y1140779D01*
X1750787Y1139922D01*
X1751388Y1139023D01*
X1751928Y1138087D01*
X1752406Y1137117D01*
X1752820Y1136119D01*
X1753168Y1135095D01*
X1753447Y1134051D01*
X1753658Y1132991D01*
X1753799Y1131919D01*
X1753870Y1130840D01*
X1753870Y1129760D01*
X1753799Y1128681D01*
X1753658Y1127609D01*
X1753447Y1126549D01*
X1753168Y1125505D01*
X1752820Y1124481D01*
X1752406Y1123483D01*
X1751928Y1122513D01*
X1751388Y1121577D01*
X1750787Y1120678D01*
X1750129Y1119821D01*
X1749417Y1119008D01*
X1748652Y1118244D01*
X1747839Y1117531D01*
X1746982Y1116873D01*
X1746083Y1116272D01*
X1745147Y1115732D01*
X1744177Y1115254D01*
X1743179Y1114840D01*
X1742155Y1114492D01*
X1741111Y1114213D01*
X1740051Y1114002D01*
X1738979Y1113861D01*
X1737900Y1113790D01*
X1736820Y1113790D01*
X1101820Y1189990D02*
X1100741Y1190061D01*
X1099669Y1190202D01*
X1098609Y1190413D01*
X1097565Y1190692D01*
X1096541Y1191040D01*
X1095543Y1191454D01*
X1094573Y1191932D01*
X1093637Y1192472D01*
X1092738Y1193073D01*
X1091881Y1193731D01*
X1091068Y1194444D01*
X1090304Y1195208D01*
X1089591Y1196021D01*
X1088933Y1196878D01*
X1088332Y1197777D01*
X1087792Y1198713D01*
X1087314Y1199683D01*
X1086900Y1200681D01*
X1086552Y1201705D01*
X1086273Y1202749D01*
X1086062Y1203809D01*
X1085921Y1204881D01*
X1085850Y1205960D01*
X1085850Y1207040D01*
X1085921Y1208119D01*
X1086062Y1209191D01*
X1086273Y1210251D01*
X1086552Y1211295D01*
X1086900Y1212319D01*
X1087314Y1213317D01*
X1087792Y1214287D01*
X1088332Y1215223D01*
X1088933Y1216122D01*
X1089591Y1216979D01*
X1090304Y1217792D01*
X1091068Y1218557D01*
X1091881Y1219269D01*
X1092738Y1219927D01*
X1093637Y1220528D01*
X1094573Y1221068D01*
X1095543Y1221546D01*
X1096541Y1221960D01*
X1097565Y1222308D01*
X1098609Y1222587D01*
X1099669Y1222798D01*
X1100741Y1222939D01*
X1101820Y1223010D01*
X1102900Y1223010D01*
X1103979Y1222939D01*
X1105051Y1222798D01*
X1106111Y1222587D01*
X1107155Y1222308D01*
X1108179Y1221960D01*
X1109177Y1221546D01*
X1110147Y1221068D01*
X1111083Y1220528D01*
X1111982Y1219927D01*
X1112839Y1219269D01*
X1113652Y1218557D01*
X1114417Y1217792D01*
X1115129Y1216979D01*
X1115787Y1216122D01*
X1116388Y1215223D01*
X1116928Y1214287D01*
X1117406Y1213317D01*
X1117820Y1212319D01*
X1118168Y1211295D01*
X1118447Y1210251D01*
X1118658Y1209191D01*
X1118799Y1208119D01*
X1118870Y1207040D01*
X1118870Y1205960D01*
X1118799Y1204881D01*
X1118658Y1203809D01*
X1118447Y1202749D01*
X1118168Y1201705D01*
X1117820Y1200681D01*
X1117406Y1199683D01*
X1116928Y1198713D01*
X1116388Y1197777D01*
X1115787Y1196878D01*
X1115129Y1196021D01*
X1114417Y1195208D01*
X1113652Y1194444D01*
X1112839Y1193731D01*
X1111982Y1193073D01*
X1111083Y1192472D01*
X1110147Y1191932D01*
X1109177Y1191454D01*
X1108179Y1191040D01*
X1107155Y1190692D01*
X1106111Y1190413D01*
X1105051Y1190202D01*
X1103979Y1190061D01*
X1102900Y1189990D01*
X1101820Y1189990D01*
X1863820Y1189990D02*
X1862741Y1190061D01*
X1861669Y1190202D01*
X1860609Y1190413D01*
X1859565Y1190692D01*
X1858541Y1191040D01*
X1857543Y1191454D01*
X1856573Y1191932D01*
X1855637Y1192472D01*
X1854738Y1193073D01*
X1853881Y1193731D01*
X1853068Y1194444D01*
X1852304Y1195208D01*
X1851591Y1196021D01*
X1850933Y1196878D01*
X1850332Y1197777D01*
X1849792Y1198713D01*
X1849314Y1199683D01*
X1848900Y1200681D01*
X1848552Y1201705D01*
X1848273Y1202749D01*
X1848062Y1203809D01*
X1847921Y1204881D01*
X1847850Y1205960D01*
X1847850Y1207040D01*
X1847921Y1208119D01*
X1848062Y1209191D01*
X1848273Y1210251D01*
X1848552Y1211295D01*
X1848900Y1212319D01*
X1849314Y1213317D01*
X1849792Y1214287D01*
X1850332Y1215223D01*
X1850933Y1216122D01*
X1851591Y1216979D01*
X1852304Y1217792D01*
X1853068Y1218557D01*
X1853881Y1219269D01*
X1854738Y1219927D01*
X1855637Y1220528D01*
X1856573Y1221068D01*
X1857543Y1221546D01*
X1858541Y1221960D01*
X1859565Y1222308D01*
X1860609Y1222587D01*
X1861669Y1222798D01*
X1862741Y1222939D01*
X1863820Y1223010D01*
X1864900Y1223010D01*
X1865979Y1222939D01*
X1867051Y1222798D01*
X1868111Y1222587D01*
X1869155Y1222308D01*
X1870179Y1221960D01*
X1871177Y1221546D01*
X1872147Y1221068D01*
X1873083Y1220528D01*
X1873982Y1219927D01*
X1874839Y1219269D01*
X1875652Y1218557D01*
X1876417Y1217792D01*
X1877129Y1216979D01*
X1877787Y1216122D01*
X1878388Y1215223D01*
X1878928Y1214287D01*
X1879406Y1213317D01*
X1879820Y1212319D01*
X1880168Y1211295D01*
X1880447Y1210251D01*
X1880658Y1209191D01*
X1880799Y1208119D01*
X1880870Y1207040D01*
X1880870Y1205960D01*
X1880799Y1204881D01*
X1880658Y1203809D01*
X1880447Y1202749D01*
X1880168Y1201705D01*
X1879820Y1200681D01*
X1879406Y1199683D01*
X1878928Y1198713D01*
X1878388Y1197777D01*
X1877787Y1196878D01*
X1877129Y1196021D01*
X1876417Y1195208D01*
X1875652Y1194444D01*
X1874839Y1193731D01*
X1873982Y1193073D01*
X1873083Y1192472D01*
X1872147Y1191932D01*
X1871177Y1191454D01*
X1870179Y1191040D01*
X1869155Y1190692D01*
X1868111Y1190413D01*
X1867051Y1190202D01*
X1865979Y1190061D01*
X1864900Y1189990D01*
X1863820Y1189990D01*
X466820Y1037590D02*
X465741Y1037661D01*
X464669Y1037802D01*
X463609Y1038013D01*
X462565Y1038292D01*
X461541Y1038640D01*
X460543Y1039054D01*
X459573Y1039532D01*
X458637Y1040072D01*
X457738Y1040673D01*
X456881Y1041331D01*
X456068Y1042044D01*
X455304Y1042808D01*
X454591Y1043621D01*
X453933Y1044478D01*
X453332Y1045377D01*
X452792Y1046313D01*
X452314Y1047283D01*
X451900Y1048281D01*
X451552Y1049305D01*
X451273Y1050349D01*
X451062Y1051409D01*
X450921Y1052481D01*
X450850Y1053560D01*
X450850Y1054640D01*
X450921Y1055719D01*
X451062Y1056791D01*
X451273Y1057851D01*
X451552Y1058895D01*
X451900Y1059919D01*
X452314Y1060917D01*
X452792Y1061887D01*
X453332Y1062823D01*
X453933Y1063722D01*
X454591Y1064579D01*
X455304Y1065392D01*
X456068Y1066157D01*
X456881Y1066869D01*
X457738Y1067527D01*
X458637Y1068128D01*
X459573Y1068668D01*
X460543Y1069146D01*
X461541Y1069560D01*
X462565Y1069908D01*
X463609Y1070187D01*
X464669Y1070398D01*
X465741Y1070539D01*
X466820Y1070610D01*
X467900Y1070610D01*
X468979Y1070539D01*
X470051Y1070398D01*
X471111Y1070187D01*
X472155Y1069908D01*
X473179Y1069560D01*
X474177Y1069146D01*
X475147Y1068668D01*
X476083Y1068128D01*
X476982Y1067527D01*
X477839Y1066869D01*
X478652Y1066157D01*
X479417Y1065392D01*
X480129Y1064579D01*
X480787Y1063722D01*
X481388Y1062823D01*
X481928Y1061887D01*
X482406Y1060917D01*
X482820Y1059919D01*
X483168Y1058895D01*
X483447Y1057851D01*
X483658Y1056791D01*
X483799Y1055719D01*
X483870Y1054640D01*
X483870Y1053560D01*
X483799Y1052481D01*
X483658Y1051409D01*
X483447Y1050349D01*
X483168Y1049305D01*
X482820Y1048281D01*
X482406Y1047283D01*
X481928Y1046313D01*
X481388Y1045377D01*
X480787Y1044478D01*
X480129Y1043621D01*
X479417Y1042808D01*
X478652Y1042044D01*
X477839Y1041331D01*
X476982Y1040673D01*
X476083Y1040072D01*
X475147Y1039532D01*
X474177Y1039054D01*
X473179Y1038640D01*
X472155Y1038292D01*
X471111Y1038013D01*
X470051Y1037802D01*
X468979Y1037661D01*
X467900Y1037590D01*
X466820Y1037590D01*
X1228820Y1037590D02*
X1227741Y1037661D01*
X1226669Y1037802D01*
X1225609Y1038013D01*
X1224565Y1038292D01*
X1223541Y1038640D01*
X1222543Y1039054D01*
X1221573Y1039532D01*
X1220637Y1040072D01*
X1219738Y1040673D01*
X1218881Y1041331D01*
X1218068Y1042044D01*
X1217304Y1042808D01*
X1216591Y1043621D01*
X1215933Y1044478D01*
X1215332Y1045377D01*
X1214792Y1046313D01*
X1214314Y1047283D01*
X1213900Y1048281D01*
X1213552Y1049305D01*
X1213273Y1050349D01*
X1213062Y1051409D01*
X1212921Y1052481D01*
X1212850Y1053560D01*
X1212850Y1054640D01*
X1212921Y1055719D01*
X1213062Y1056791D01*
X1213273Y1057851D01*
X1213552Y1058895D01*
X1213900Y1059919D01*
X1214314Y1060917D01*
X1214792Y1061887D01*
X1215332Y1062823D01*
X1215933Y1063722D01*
X1216591Y1064579D01*
X1217304Y1065392D01*
X1218068Y1066157D01*
X1218881Y1066869D01*
X1219738Y1067527D01*
X1220637Y1068128D01*
X1221573Y1068668D01*
X1222543Y1069146D01*
X1223541Y1069560D01*
X1224565Y1069908D01*
X1225609Y1070187D01*
X1226669Y1070398D01*
X1227741Y1070539D01*
X1228820Y1070610D01*
X1229900Y1070610D01*
X1230979Y1070539D01*
X1232051Y1070398D01*
X1233111Y1070187D01*
X1234155Y1069908D01*
X1235179Y1069560D01*
X1236177Y1069146D01*
X1237147Y1068668D01*
X1238083Y1068128D01*
X1238982Y1067527D01*
X1239839Y1066869D01*
X1240652Y1066157D01*
X1241417Y1065392D01*
X1242129Y1064579D01*
X1242787Y1063722D01*
X1243388Y1062823D01*
X1243928Y1061887D01*
X1244406Y1060917D01*
X1244820Y1059919D01*
X1245168Y1058895D01*
X1245447Y1057851D01*
X1245658Y1056791D01*
X1245799Y1055719D01*
X1245870Y1054640D01*
X1245870Y1053560D01*
X1245799Y1052481D01*
X1245658Y1051409D01*
X1245447Y1050349D01*
X1245168Y1049305D01*
X1244820Y1048281D01*
X1244406Y1047283D01*
X1243928Y1046313D01*
X1243388Y1045377D01*
X1242787Y1044478D01*
X1242129Y1043621D01*
X1241417Y1042808D01*
X1240652Y1042044D01*
X1239839Y1041331D01*
X1238982Y1040673D01*
X1238083Y1040072D01*
X1237147Y1039532D01*
X1236177Y1039054D01*
X1235179Y1038640D01*
X1234155Y1038292D01*
X1233111Y1038013D01*
X1232051Y1037802D01*
X1230979Y1037661D01*
X1229900Y1037590D01*
X1228820Y1037590D01*
X1990820Y1037590D02*
X1989741Y1037661D01*
X1988669Y1037802D01*
X1987609Y1038013D01*
X1986565Y1038292D01*
X1985541Y1038640D01*
X1984543Y1039054D01*
X1983573Y1039532D01*
X1982637Y1040072D01*
X1981738Y1040673D01*
X1980881Y1041331D01*
X1980068Y1042044D01*
X1979304Y1042808D01*
X1978591Y1043621D01*
X1977933Y1044478D01*
X1977332Y1045377D01*
X1976792Y1046313D01*
X1976314Y1047283D01*
X1975900Y1048281D01*
X1975552Y1049305D01*
X1975273Y1050349D01*
X1975062Y1051409D01*
X1974921Y1052481D01*
X1974850Y1053560D01*
X1974850Y1054640D01*
X1974921Y1055719D01*
X1975062Y1056791D01*
X1975273Y1057851D01*
X1975552Y1058895D01*
X1975900Y1059919D01*
X1976314Y1060917D01*
X1976792Y1061887D01*
X1977332Y1062823D01*
X1977933Y1063722D01*
X1978591Y1064579D01*
X1979304Y1065392D01*
X1980068Y1066157D01*
X1980881Y1066869D01*
X1981738Y1067527D01*
X1982637Y1068128D01*
X1983573Y1068668D01*
X1984543Y1069146D01*
X1985541Y1069560D01*
X1986565Y1069908D01*
X1987609Y1070187D01*
X1988669Y1070398D01*
X1989741Y1070539D01*
X1990820Y1070610D01*
X1991900Y1070610D01*
X1992979Y1070539D01*
X1994051Y1070398D01*
X1995111Y1070187D01*
X1996155Y1069908D01*
X1997179Y1069560D01*
X1998177Y1069146D01*
X1999147Y1068668D01*
X2000083Y1068128D01*
X2000982Y1067527D01*
X2001839Y1066869D01*
X2002652Y1066157D01*
X2003417Y1065392D01*
X2004129Y1064579D01*
X2004787Y1063722D01*
X2005388Y1062823D01*
X2005928Y1061887D01*
X2006406Y1060917D01*
X2006820Y1059919D01*
X2007168Y1058895D01*
X2007447Y1057851D01*
X2007658Y1056791D01*
X2007799Y1055719D01*
X2007870Y1054640D01*
X2007870Y1053560D01*
X2007799Y1052481D01*
X2007658Y1051409D01*
X2007447Y1050349D01*
X2007168Y1049305D01*
X2006820Y1048281D01*
X2006406Y1047283D01*
X2005928Y1046313D01*
X2005388Y1045377D01*
X2004787Y1044478D01*
X2004129Y1043621D01*
X2003417Y1042808D01*
X2002652Y1042044D01*
X2001839Y1041331D01*
X2000982Y1040673D01*
X2000083Y1040072D01*
X1999147Y1039532D01*
X1998177Y1039054D01*
X1997179Y1038640D01*
X1996155Y1038292D01*
X1995111Y1038013D01*
X1994051Y1037802D01*
X1992979Y1037661D01*
X1991900Y1037590D01*
X1990820Y1037590D01*
X403320Y1037590D02*
X402241Y1037661D01*
X401169Y1037802D01*
X400109Y1038013D01*
X399065Y1038292D01*
X398041Y1038640D01*
X397043Y1039054D01*
X396073Y1039532D01*
X395137Y1040072D01*
X394238Y1040673D01*
X393381Y1041331D01*
X392568Y1042044D01*
X391804Y1042808D01*
X391091Y1043621D01*
X390433Y1044478D01*
X389832Y1045377D01*
X389292Y1046313D01*
X388814Y1047283D01*
X388400Y1048281D01*
X388052Y1049305D01*
X387773Y1050349D01*
X387562Y1051409D01*
X387421Y1052481D01*
X387350Y1053560D01*
X387350Y1054640D01*
X387421Y1055719D01*
X387562Y1056791D01*
X387773Y1057851D01*
X388052Y1058895D01*
X388400Y1059919D01*
X388814Y1060917D01*
X389292Y1061887D01*
X389832Y1062823D01*
X390433Y1063722D01*
X391091Y1064579D01*
X391804Y1065392D01*
X392568Y1066157D01*
X393381Y1066869D01*
X394238Y1067527D01*
X395137Y1068128D01*
X396073Y1068668D01*
X397043Y1069146D01*
X398041Y1069560D01*
X399065Y1069908D01*
X400109Y1070187D01*
X401169Y1070398D01*
X402241Y1070539D01*
X403320Y1070610D01*
X404400Y1070610D01*
X405479Y1070539D01*
X406551Y1070398D01*
X407611Y1070187D01*
X408655Y1069908D01*
X409679Y1069560D01*
X410677Y1069146D01*
X411647Y1068668D01*
X412583Y1068128D01*
X413482Y1067527D01*
X414339Y1066869D01*
X415152Y1066157D01*
X415917Y1065392D01*
X416629Y1064579D01*
X417287Y1063722D01*
X417888Y1062823D01*
X418428Y1061887D01*
X418906Y1060917D01*
X419320Y1059919D01*
X419668Y1058895D01*
X419947Y1057851D01*
X420158Y1056791D01*
X420299Y1055719D01*
X420370Y1054640D01*
X420370Y1053560D01*
X420299Y1052481D01*
X420158Y1051409D01*
X419947Y1050349D01*
X419668Y1049305D01*
X419320Y1048281D01*
X418906Y1047283D01*
X418428Y1046313D01*
X417888Y1045377D01*
X417287Y1044478D01*
X416629Y1043621D01*
X415917Y1042808D01*
X415152Y1042044D01*
X414339Y1041331D01*
X413482Y1040673D01*
X412583Y1040072D01*
X411647Y1039532D01*
X410677Y1039054D01*
X409679Y1038640D01*
X408655Y1038292D01*
X407611Y1038013D01*
X406551Y1037802D01*
X405479Y1037661D01*
X404400Y1037590D01*
X403320Y1037590D01*
X1165320Y1037590D02*
X1164241Y1037661D01*
X1163169Y1037802D01*
X1162109Y1038013D01*
X1161065Y1038292D01*
X1160041Y1038640D01*
X1159043Y1039054D01*
X1158073Y1039532D01*
X1157137Y1040072D01*
X1156238Y1040673D01*
X1155381Y1041331D01*
X1154568Y1042044D01*
X1153804Y1042808D01*
X1153091Y1043621D01*
X1152433Y1044478D01*
X1151832Y1045377D01*
X1151292Y1046313D01*
X1150814Y1047283D01*
X1150400Y1048281D01*
X1150052Y1049305D01*
X1149773Y1050349D01*
X1149562Y1051409D01*
X1149421Y1052481D01*
X1149350Y1053560D01*
X1149350Y1054640D01*
X1149421Y1055719D01*
X1149562Y1056791D01*
X1149773Y1057851D01*
X1150052Y1058895D01*
X1150400Y1059919D01*
X1150814Y1060917D01*
X1151292Y1061887D01*
X1151832Y1062823D01*
X1152433Y1063722D01*
X1153091Y1064579D01*
X1153804Y1065392D01*
X1154568Y1066157D01*
X1155381Y1066869D01*
X1156238Y1067527D01*
X1157137Y1068128D01*
X1158073Y1068668D01*
X1159043Y1069146D01*
X1160041Y1069560D01*
X1161065Y1069908D01*
X1162109Y1070187D01*
X1163169Y1070398D01*
X1164241Y1070539D01*
X1165320Y1070610D01*
X1166400Y1070610D01*
X1167479Y1070539D01*
X1168551Y1070398D01*
X1169611Y1070187D01*
X1170655Y1069908D01*
X1171679Y1069560D01*
X1172677Y1069146D01*
X1173647Y1068668D01*
X1174583Y1068128D01*
X1175482Y1067527D01*
X1176339Y1066869D01*
X1177152Y1066157D01*
X1177917Y1065392D01*
X1178629Y1064579D01*
X1179287Y1063722D01*
X1179888Y1062823D01*
X1180428Y1061887D01*
X1180906Y1060917D01*
X1181320Y1059919D01*
X1181668Y1058895D01*
X1181947Y1057851D01*
X1182158Y1056791D01*
X1182299Y1055719D01*
X1182370Y1054640D01*
X1182370Y1053560D01*
X1182299Y1052481D01*
X1182158Y1051409D01*
X1181947Y1050349D01*
X1181668Y1049305D01*
X1181320Y1048281D01*
X1180906Y1047283D01*
X1180428Y1046313D01*
X1179888Y1045377D01*
X1179287Y1044478D01*
X1178629Y1043621D01*
X1177917Y1042808D01*
X1177152Y1042044D01*
X1176339Y1041331D01*
X1175482Y1040673D01*
X1174583Y1040072D01*
X1173647Y1039532D01*
X1172677Y1039054D01*
X1171679Y1038640D01*
X1170655Y1038292D01*
X1169611Y1038013D01*
X1168551Y1037802D01*
X1167479Y1037661D01*
X1166400Y1037590D01*
X1165320Y1037590D01*
X1927320Y1037590D02*
X1926241Y1037661D01*
X1925169Y1037802D01*
X1924109Y1038013D01*
X1923065Y1038292D01*
X1922041Y1038640D01*
X1921043Y1039054D01*
X1920073Y1039532D01*
X1919137Y1040072D01*
X1918238Y1040673D01*
X1917381Y1041331D01*
X1916568Y1042044D01*
X1915804Y1042808D01*
X1915091Y1043621D01*
X1914433Y1044478D01*
X1913832Y1045377D01*
X1913292Y1046313D01*
X1912814Y1047283D01*
X1912400Y1048281D01*
X1912052Y1049305D01*
X1911773Y1050349D01*
X1911562Y1051409D01*
X1911421Y1052481D01*
X1911350Y1053560D01*
X1911350Y1054640D01*
X1911421Y1055719D01*
X1911562Y1056791D01*
X1911773Y1057851D01*
X1912052Y1058895D01*
X1912400Y1059919D01*
X1912814Y1060917D01*
X1913292Y1061887D01*
X1913832Y1062823D01*
X1914433Y1063722D01*
X1915091Y1064579D01*
X1915804Y1065392D01*
X1916568Y1066157D01*
X1917381Y1066869D01*
X1918238Y1067527D01*
X1919137Y1068128D01*
X1920073Y1068668D01*
X1921043Y1069146D01*
X1922041Y1069560D01*
X1923065Y1069908D01*
X1924109Y1070187D01*
X1925169Y1070398D01*
X1926241Y1070539D01*
X1927320Y1070610D01*
X1928400Y1070610D01*
X1929479Y1070539D01*
X1930551Y1070398D01*
X1931611Y1070187D01*
X1932655Y1069908D01*
X1933679Y1069560D01*
X1934677Y1069146D01*
X1935647Y1068668D01*
X1936583Y1068128D01*
X1937482Y1067527D01*
X1938339Y1066869D01*
X1939152Y1066157D01*
X1939917Y1065392D01*
X1940629Y1064579D01*
X1941287Y1063722D01*
X1941888Y1062823D01*
X1942428Y1061887D01*
X1942906Y1060917D01*
X1943320Y1059919D01*
X1943668Y1058895D01*
X1943947Y1057851D01*
X1944158Y1056791D01*
X1944299Y1055719D01*
X1944370Y1054640D01*
X1944370Y1053560D01*
X1944299Y1052481D01*
X1944158Y1051409D01*
X1943947Y1050349D01*
X1943668Y1049305D01*
X1943320Y1048281D01*
X1942906Y1047283D01*
X1942428Y1046313D01*
X1941888Y1045377D01*
X1941287Y1044478D01*
X1940629Y1043621D01*
X1939917Y1042808D01*
X1939152Y1042044D01*
X1938339Y1041331D01*
X1937482Y1040673D01*
X1936583Y1040072D01*
X1935647Y1039532D01*
X1934677Y1039054D01*
X1933679Y1038640D01*
X1932655Y1038292D01*
X1931611Y1038013D01*
X1930551Y1037802D01*
X1929479Y1037661D01*
X1928400Y1037590D01*
X1927320Y1037590D01*
X593820Y1113790D02*
X592741Y1113861D01*
X591669Y1114002D01*
X590609Y1114213D01*
X589565Y1114492D01*
X588541Y1114840D01*
X587543Y1115254D01*
X586573Y1115732D01*
X585637Y1116272D01*
X584738Y1116873D01*
X583881Y1117531D01*
X583068Y1118244D01*
X582304Y1119008D01*
X581591Y1119821D01*
X580933Y1120678D01*
X580332Y1121577D01*
X579792Y1122513D01*
X579314Y1123483D01*
X578900Y1124481D01*
X578552Y1125505D01*
X578273Y1126549D01*
X578062Y1127609D01*
X577921Y1128681D01*
X577850Y1129760D01*
X577850Y1130840D01*
X577921Y1131919D01*
X578062Y1132991D01*
X578273Y1134051D01*
X578552Y1135095D01*
X578900Y1136119D01*
X579314Y1137117D01*
X579792Y1138087D01*
X580332Y1139023D01*
X580933Y1139922D01*
X581591Y1140779D01*
X582304Y1141592D01*
X583068Y1142357D01*
X583881Y1143069D01*
X584738Y1143727D01*
X585637Y1144328D01*
X586573Y1144868D01*
X587543Y1145346D01*
X588541Y1145760D01*
X589565Y1146108D01*
X590609Y1146387D01*
X591669Y1146598D01*
X592741Y1146739D01*
X593820Y1146810D01*
X594900Y1146810D01*
X595979Y1146739D01*
X597051Y1146598D01*
X598111Y1146387D01*
X599155Y1146108D01*
X600179Y1145760D01*
X601177Y1145346D01*
X602147Y1144868D01*
X603083Y1144328D01*
X603982Y1143727D01*
X604839Y1143069D01*
X605652Y1142357D01*
X606417Y1141592D01*
X607129Y1140779D01*
X607787Y1139922D01*
X608388Y1139023D01*
X608928Y1138087D01*
X609406Y1137117D01*
X609820Y1136119D01*
X610168Y1135095D01*
X610447Y1134051D01*
X610658Y1132991D01*
X610799Y1131919D01*
X610870Y1130840D01*
X610870Y1129760D01*
X610799Y1128681D01*
X610658Y1127609D01*
X610447Y1126549D01*
X610168Y1125505D01*
X609820Y1124481D01*
X609406Y1123483D01*
X608928Y1122513D01*
X608388Y1121577D01*
X607787Y1120678D01*
X607129Y1119821D01*
X606417Y1119008D01*
X605652Y1118244D01*
X604839Y1117531D01*
X603982Y1116873D01*
X603083Y1116272D01*
X602147Y1115732D01*
X601177Y1115254D01*
X600179Y1114840D01*
X599155Y1114492D01*
X598111Y1114213D01*
X597051Y1114002D01*
X595979Y1113861D01*
X594900Y1113790D01*
X593820Y1113790D01*
X1355820Y1113790D02*
X1354741Y1113861D01*
X1353669Y1114002D01*
X1352609Y1114213D01*
X1351565Y1114492D01*
X1350541Y1114840D01*
X1349543Y1115254D01*
X1348573Y1115732D01*
X1347637Y1116272D01*
X1346738Y1116873D01*
X1345881Y1117531D01*
X1345068Y1118244D01*
X1344304Y1119008D01*
X1343591Y1119821D01*
X1342933Y1120678D01*
X1342332Y1121577D01*
X1341792Y1122513D01*
X1341314Y1123483D01*
X1340900Y1124481D01*
X1340552Y1125505D01*
X1340273Y1126549D01*
X1340062Y1127609D01*
X1339921Y1128681D01*
X1339850Y1129760D01*
X1339850Y1130840D01*
X1339921Y1131919D01*
X1340062Y1132991D01*
X1340273Y1134051D01*
X1340552Y1135095D01*
X1340900Y1136119D01*
X1341314Y1137117D01*
X1341792Y1138087D01*
X1342332Y1139023D01*
X1342933Y1139922D01*
X1343591Y1140779D01*
X1344304Y1141592D01*
X1345068Y1142357D01*
X1345881Y1143069D01*
X1346738Y1143727D01*
X1347637Y1144328D01*
X1348573Y1144868D01*
X1349543Y1145346D01*
X1350541Y1145760D01*
X1351565Y1146108D01*
X1352609Y1146387D01*
X1353669Y1146598D01*
X1354741Y1146739D01*
X1355820Y1146810D01*
X1356900Y1146810D01*
X1357979Y1146739D01*
X1359051Y1146598D01*
X1360111Y1146387D01*
X1361155Y1146108D01*
X1362179Y1145760D01*
X1363177Y1145346D01*
X1364147Y1144868D01*
X1365083Y1144328D01*
X1365982Y1143727D01*
X1366839Y1143069D01*
X1367652Y1142357D01*
X1368417Y1141592D01*
X1369129Y1140779D01*
X1369787Y1139922D01*
X1370388Y1139023D01*
X1370928Y1138087D01*
X1371406Y1137117D01*
X1371820Y1136119D01*
X1372168Y1135095D01*
X1372447Y1134051D01*
X1372658Y1132991D01*
X1372799Y1131919D01*
X1372870Y1130840D01*
X1372870Y1129760D01*
X1372799Y1128681D01*
X1372658Y1127609D01*
X1372447Y1126549D01*
X1372168Y1125505D01*
X1371820Y1124481D01*
X1371406Y1123483D01*
X1370928Y1122513D01*
X1370388Y1121577D01*
X1369787Y1120678D01*
X1369129Y1119821D01*
X1368417Y1119008D01*
X1367652Y1118244D01*
X1366839Y1117531D01*
X1365982Y1116873D01*
X1365083Y1116272D01*
X1364147Y1115732D01*
X1363177Y1115254D01*
X1362179Y1114840D01*
X1361155Y1114492D01*
X1360111Y1114213D01*
X1359051Y1114002D01*
X1357979Y1113861D01*
X1356900Y1113790D01*
X1355820Y1113790D01*
X2117820Y1113790D02*
X2116741Y1113861D01*
X2115669Y1114002D01*
X2114609Y1114213D01*
X2113565Y1114492D01*
X2112541Y1114840D01*
X2111543Y1115254D01*
X2110573Y1115732D01*
X2109637Y1116272D01*
X2108738Y1116873D01*
X2107881Y1117531D01*
X2107068Y1118244D01*
X2106304Y1119008D01*
X2105591Y1119821D01*
X2104933Y1120678D01*
X2104332Y1121577D01*
X2103792Y1122513D01*
X2103314Y1123483D01*
X2102900Y1124481D01*
X2102552Y1125505D01*
X2102273Y1126549D01*
X2102062Y1127609D01*
X2101921Y1128681D01*
X2101850Y1129760D01*
X2101850Y1130840D01*
X2101921Y1131919D01*
X2102062Y1132991D01*
X2102273Y1134051D01*
X2102552Y1135095D01*
X2102900Y1136119D01*
X2103314Y1137117D01*
X2103792Y1138087D01*
X2104332Y1139023D01*
X2104933Y1139922D01*
X2105591Y1140779D01*
X2106304Y1141592D01*
X2107068Y1142357D01*
X2107881Y1143069D01*
X2108738Y1143727D01*
X2109637Y1144328D01*
X2110573Y1144868D01*
X2111543Y1145346D01*
X2112541Y1145760D01*
X2113565Y1146108D01*
X2114609Y1146387D01*
X2115669Y1146598D01*
X2116741Y1146739D01*
X2117820Y1146810D01*
X2118900Y1146810D01*
X2119979Y1146739D01*
X2121051Y1146598D01*
X2122111Y1146387D01*
X2123155Y1146108D01*
X2124179Y1145760D01*
X2125177Y1145346D01*
X2126147Y1144868D01*
X2127083Y1144328D01*
X2127982Y1143727D01*
X2128839Y1143069D01*
X2129652Y1142357D01*
X2130417Y1141592D01*
X2131129Y1140779D01*
X2131787Y1139922D01*
X2132388Y1139023D01*
X2132928Y1138087D01*
X2133406Y1137117D01*
X2133820Y1136119D01*
X2134168Y1135095D01*
X2134447Y1134051D01*
X2134658Y1132991D01*
X2134799Y1131919D01*
X2134870Y1130840D01*
X2134870Y1129760D01*
X2134799Y1128681D01*
X2134658Y1127609D01*
X2134447Y1126549D01*
X2134168Y1125505D01*
X2133820Y1124481D01*
X2133406Y1123483D01*
X2132928Y1122513D01*
X2132388Y1121577D01*
X2131787Y1120678D01*
X2131129Y1119821D01*
X2130417Y1119008D01*
X2129652Y1118244D01*
X2128839Y1117531D01*
X2127982Y1116873D01*
X2127083Y1116272D01*
X2126147Y1115732D01*
X2125177Y1115254D01*
X2124179Y1114840D01*
X2123155Y1114492D01*
X2122111Y1114213D01*
X2121051Y1114002D01*
X2119979Y1113861D01*
X2118900Y1113790D01*
X2117820Y1113790D01*
X530320Y1113790D02*
X529241Y1113861D01*
X528169Y1114002D01*
X527109Y1114213D01*
X526065Y1114492D01*
X525041Y1114840D01*
X524043Y1115254D01*
X523073Y1115732D01*
X522137Y1116272D01*
X521238Y1116873D01*
X520381Y1117531D01*
X519568Y1118244D01*
X518804Y1119008D01*
X518091Y1119821D01*
X517433Y1120678D01*
X516832Y1121577D01*
X516292Y1122513D01*
X515814Y1123483D01*
X515400Y1124481D01*
X515052Y1125505D01*
X514773Y1126549D01*
X514562Y1127609D01*
X514421Y1128681D01*
X514350Y1129760D01*
X514350Y1130840D01*
X514421Y1131919D01*
X514562Y1132991D01*
X514773Y1134051D01*
X515052Y1135095D01*
X515400Y1136119D01*
X515814Y1137117D01*
X516292Y1138087D01*
X516832Y1139023D01*
X517433Y1139922D01*
X518091Y1140779D01*
X518804Y1141592D01*
X519568Y1142357D01*
X520381Y1143069D01*
X521238Y1143727D01*
X522137Y1144328D01*
X523073Y1144868D01*
X524043Y1145346D01*
X525041Y1145760D01*
X526065Y1146108D01*
X527109Y1146387D01*
X528169Y1146598D01*
X529241Y1146739D01*
X530320Y1146810D01*
X531400Y1146810D01*
X532479Y1146739D01*
X533551Y1146598D01*
X534611Y1146387D01*
X535655Y1146108D01*
X536679Y1145760D01*
X537677Y1145346D01*
X538647Y1144868D01*
X539583Y1144328D01*
X540482Y1143727D01*
X541339Y1143069D01*
X542152Y1142357D01*
X542917Y1141592D01*
X543629Y1140779D01*
X544287Y1139922D01*
X544888Y1139023D01*
X545428Y1138087D01*
X545906Y1137117D01*
X546320Y1136119D01*
X546668Y1135095D01*
X546947Y1134051D01*
X547158Y1132991D01*
X547299Y1131919D01*
X547370Y1130840D01*
X547370Y1129760D01*
X547299Y1128681D01*
X547158Y1127609D01*
X546947Y1126549D01*
X546668Y1125505D01*
X546320Y1124481D01*
X545906Y1123483D01*
X545428Y1122513D01*
X544888Y1121577D01*
X544287Y1120678D01*
X543629Y1119821D01*
X542917Y1119008D01*
X542152Y1118244D01*
X541339Y1117531D01*
X540482Y1116873D01*
X539583Y1116272D01*
X538647Y1115732D01*
X537677Y1115254D01*
X536679Y1114840D01*
X535655Y1114492D01*
X534611Y1114213D01*
X533551Y1114002D01*
X532479Y1113861D01*
X531400Y1113790D01*
X530320Y1113790D01*
X1292320Y1113790D02*
X1291241Y1113861D01*
X1290169Y1114002D01*
X1289109Y1114213D01*
X1288065Y1114492D01*
X1287041Y1114840D01*
X1286043Y1115254D01*
X1285073Y1115732D01*
X1284137Y1116272D01*
X1283238Y1116873D01*
X1282381Y1117531D01*
X1281568Y1118244D01*
X1280804Y1119008D01*
X1280091Y1119821D01*
X1279433Y1120678D01*
X1278832Y1121577D01*
X1278292Y1122513D01*
X1277814Y1123483D01*
X1277400Y1124481D01*
X1277052Y1125505D01*
X1276773Y1126549D01*
X1276562Y1127609D01*
X1276421Y1128681D01*
X1276350Y1129760D01*
X1276350Y1130840D01*
X1276421Y1131919D01*
X1276562Y1132991D01*
X1276773Y1134051D01*
X1277052Y1135095D01*
X1277400Y1136119D01*
X1277814Y1137117D01*
X1278292Y1138087D01*
X1278832Y1139023D01*
X1279433Y1139922D01*
X1280091Y1140779D01*
X1280804Y1141592D01*
X1281568Y1142357D01*
X1282381Y1143069D01*
X1283238Y1143727D01*
X1284137Y1144328D01*
X1285073Y1144868D01*
X1286043Y1145346D01*
X1287041Y1145760D01*
X1288065Y1146108D01*
X1289109Y1146387D01*
X1290169Y1146598D01*
X1291241Y1146739D01*
X1292320Y1146810D01*
X1293400Y1146810D01*
X1294479Y1146739D01*
X1295551Y1146598D01*
X1296611Y1146387D01*
X1297655Y1146108D01*
X1298679Y1145760D01*
X1299677Y1145346D01*
X1300647Y1144868D01*
X1301583Y1144328D01*
X1302482Y1143727D01*
X1303339Y1143069D01*
X1304152Y1142357D01*
X1304917Y1141592D01*
X1305629Y1140779D01*
X1306287Y1139922D01*
X1306888Y1139023D01*
X1307428Y1138087D01*
X1307906Y1137117D01*
X1308320Y1136119D01*
X1308668Y1135095D01*
X1308947Y1134051D01*
X1309158Y1132991D01*
X1309299Y1131919D01*
X1309370Y1130840D01*
X1309370Y1129760D01*
X1309299Y1128681D01*
X1309158Y1127609D01*
X1308947Y1126549D01*
X1308668Y1125505D01*
X1308320Y1124481D01*
X1307906Y1123483D01*
X1307428Y1122513D01*
X1306888Y1121577D01*
X1306287Y1120678D01*
X1305629Y1119821D01*
X1304917Y1119008D01*
X1304152Y1118244D01*
X1303339Y1117531D01*
X1302482Y1116873D01*
X1301583Y1116272D01*
X1300647Y1115732D01*
X1299677Y1115254D01*
X1298679Y1114840D01*
X1297655Y1114492D01*
X1296611Y1114213D01*
X1295551Y1114002D01*
X1294479Y1113861D01*
X1293400Y1113790D01*
X1292320Y1113790D01*
X2054320Y1113790D02*
X2053241Y1113861D01*
X2052169Y1114002D01*
X2051109Y1114213D01*
X2050065Y1114492D01*
X2049041Y1114840D01*
X2048043Y1115254D01*
X2047073Y1115732D01*
X2046137Y1116272D01*
X2045238Y1116873D01*
X2044381Y1117531D01*
X2043568Y1118244D01*
X2042804Y1119008D01*
X2042091Y1119821D01*
X2041433Y1120678D01*
X2040832Y1121577D01*
X2040292Y1122513D01*
X2039814Y1123483D01*
X2039400Y1124481D01*
X2039052Y1125505D01*
X2038773Y1126549D01*
X2038562Y1127609D01*
X2038421Y1128681D01*
X2038350Y1129760D01*
X2038350Y1130840D01*
X2038421Y1131919D01*
X2038562Y1132991D01*
X2038773Y1134051D01*
X2039052Y1135095D01*
X2039400Y1136119D01*
X2039814Y1137117D01*
X2040292Y1138087D01*
X2040832Y1139023D01*
X2041433Y1139922D01*
X2042091Y1140779D01*
X2042804Y1141592D01*
X2043568Y1142357D01*
X2044381Y1143069D01*
X2045238Y1143727D01*
X2046137Y1144328D01*
X2047073Y1144868D01*
X2048043Y1145346D01*
X2049041Y1145760D01*
X2050065Y1146108D01*
X2051109Y1146387D01*
X2052169Y1146598D01*
X2053241Y1146739D01*
X2054320Y1146810D01*
X2055400Y1146810D01*
X2056479Y1146739D01*
X2057551Y1146598D01*
X2058611Y1146387D01*
X2059655Y1146108D01*
X2060679Y1145760D01*
X2061677Y1145346D01*
X2062647Y1144868D01*
X2063583Y1144328D01*
X2064482Y1143727D01*
X2065339Y1143069D01*
X2066152Y1142357D01*
X2066917Y1141592D01*
X2067629Y1140779D01*
X2068287Y1139922D01*
X2068888Y1139023D01*
X2069428Y1138087D01*
X2069906Y1137117D01*
X2070320Y1136119D01*
X2070668Y1135095D01*
X2070947Y1134051D01*
X2071158Y1132991D01*
X2071299Y1131919D01*
X2071370Y1130840D01*
X2071370Y1129760D01*
X2071299Y1128681D01*
X2071158Y1127609D01*
X2070947Y1126549D01*
X2070668Y1125505D01*
X2070320Y1124481D01*
X2069906Y1123483D01*
X2069428Y1122513D01*
X2068888Y1121577D01*
X2068287Y1120678D01*
X2067629Y1119821D01*
X2066917Y1119008D01*
X2066152Y1118244D01*
X2065339Y1117531D01*
X2064482Y1116873D01*
X2063583Y1116272D01*
X2062647Y1115732D01*
X2061677Y1115254D01*
X2060679Y1114840D01*
X2059655Y1114492D01*
X2058611Y1114213D01*
X2057551Y1114002D01*
X2056479Y1113861D01*
X2055400Y1113790D01*
X2054320Y1113790D01*
X111264Y672200D02*
X110196Y672276D01*
X109135Y672429D01*
X108088Y672657D01*
X107060Y672959D01*
X106056Y673333D01*
X105081Y673778D01*
X104141Y674292D01*
X103240Y674871D01*
X102382Y675513D01*
X101572Y676215D01*
X100815Y676972D01*
X100113Y677782D01*
X99471Y678640D01*
X98892Y679541D01*
X98378Y680481D01*
X97933Y681456D01*
X97559Y682460D01*
X97257Y683488D01*
X97029Y684535D01*
X96876Y685596D01*
X96800Y686664D01*
X96800Y687736D01*
X96876Y688804D01*
X97029Y689865D01*
X97257Y690912D01*
X97559Y691940D01*
X97933Y692944D01*
X98378Y693919D01*
X98892Y694859D01*
X99471Y695760D01*
X100113Y696618D01*
X100815Y697428D01*
X101572Y698185D01*
X102382Y698887D01*
X103240Y699529D01*
X104141Y700108D01*
X105081Y700622D01*
X106056Y701067D01*
X107060Y701441D01*
X108088Y701743D01*
X109135Y701971D01*
X110196Y702124D01*
X111264Y702200D01*
X112336Y702200D01*
X113404Y702124D01*
X114465Y701971D01*
X115512Y701743D01*
X116540Y701441D01*
X117544Y701067D01*
X118519Y700622D01*
X119459Y700108D01*
X120360Y699529D01*
X121218Y698887D01*
X122028Y698185D01*
X122785Y697428D01*
X123487Y696618D01*
X124129Y695760D01*
X124708Y694859D01*
X125222Y693919D01*
X125667Y692944D01*
X126041Y691940D01*
X126343Y690912D01*
X126571Y689865D01*
X126724Y688804D01*
X126800Y687736D01*
X126800Y686664D01*
X126724Y685596D01*
X126571Y684535D01*
X126343Y683488D01*
X126041Y682460D01*
X125667Y681456D01*
X125222Y680481D01*
X124708Y679541D01*
X124129Y678640D01*
X123487Y677782D01*
X122785Y676972D01*
X122028Y676215D01*
X121218Y675513D01*
X120360Y674871D01*
X119459Y674292D01*
X118519Y673778D01*
X117544Y673333D01*
X116540Y672959D01*
X115512Y672657D01*
X114465Y672429D01*
X113404Y672276D01*
X112336Y672200D01*
X111264Y672200D01*
X111264Y1228200D02*
X110196Y1228276D01*
X109135Y1228429D01*
X108088Y1228657D01*
X107060Y1228959D01*
X106056Y1229333D01*
X105081Y1229778D01*
X104141Y1230292D01*
X103240Y1230871D01*
X102382Y1231513D01*
X101572Y1232215D01*
X100815Y1232972D01*
X100113Y1233782D01*
X99471Y1234640D01*
X98892Y1235541D01*
X98378Y1236481D01*
X97933Y1237456D01*
X97559Y1238460D01*
X97257Y1239488D01*
X97029Y1240535D01*
X96876Y1241596D01*
X96800Y1242664D01*
X96800Y1243736D01*
X96876Y1244804D01*
X97029Y1245865D01*
X97257Y1246912D01*
X97559Y1247940D01*
X97933Y1248944D01*
X98378Y1249919D01*
X98892Y1250859D01*
X99471Y1251760D01*
X100113Y1252618D01*
X100815Y1253428D01*
X101572Y1254185D01*
X102382Y1254887D01*
X103240Y1255529D01*
X104141Y1256108D01*
X105081Y1256622D01*
X106056Y1257067D01*
X107060Y1257441D01*
X108088Y1257743D01*
X109135Y1257971D01*
X110196Y1258124D01*
X111264Y1258200D01*
X112336Y1258200D01*
X113404Y1258124D01*
X114465Y1257971D01*
X115512Y1257743D01*
X116540Y1257441D01*
X117544Y1257067D01*
X118519Y1256622D01*
X119459Y1256108D01*
X120360Y1255529D01*
X121218Y1254887D01*
X122028Y1254185D01*
X122785Y1253428D01*
X123487Y1252618D01*
X124129Y1251760D01*
X124708Y1250859D01*
X125222Y1249919D01*
X125667Y1248944D01*
X126041Y1247940D01*
X126343Y1246912D01*
X126571Y1245865D01*
X126724Y1244804D01*
X126800Y1243736D01*
X126800Y1242664D01*
X126724Y1241596D01*
X126571Y1240535D01*
X126343Y1239488D01*
X126041Y1238460D01*
X125667Y1237456D01*
X125222Y1236481D01*
X124708Y1235541D01*
X124129Y1234640D01*
X123487Y1233782D01*
X122785Y1232972D01*
X122028Y1232215D01*
X121218Y1231513D01*
X120360Y1230871D01*
X119459Y1230292D01*
X118519Y1229778D01*
X117544Y1229333D01*
X116540Y1228959D01*
X115512Y1228657D01*
X114465Y1228429D01*
X113404Y1228276D01*
X112336Y1228200D01*
X111264Y1228200D01*
M02*
