{
  "header": {
    "PPQ": 96,
    "bpm": 38.99998830000351,
    "timeSignature": [
      4,
      4
    ],
    "name": "Silent Night"
  },
  "startTime": 0,
  "duration": 55.384632,
  "tracks": [
    {
      "startTime": 0,
      "duration": 0,
      "length": 0,
      "notes": [],
      "controlChanges": {},
      "id": 0
    },
    {
      "startTime": 0,
      "duration": 55.384632,
      "length": 166,
      "notes": [
        {
          "name": "D4",
          "midi": 62,
          "time": 0,
          "velocity": 0.5590551181102362,
          "duration": 1.1538465
        },
        {
          "name": "B3",
          "midi": 59,
          "time": 0,
          "velocity": 0.5118110236220472,
          "duration": 1.1538465
        },
        {
          "name": "D3",
          "midi": 50,
          "time": 0,
          "velocity": 0.5511811023622047,
          "duration": 1.538462
        },
        {
          "name": "G2",
          "midi": 43,
          "time": 0,
          "velocity": 0.5590551181102362,
          "duration": 1.538462
        },
        {
          "name": "E4",
          "midi": 64,
          "time": 1.1538465,
          "velocity": 0.6220472440944882,
          "duration": 0.3846155
        },
        {
          "name": "C4",
          "midi": 60,
          "time": 1.1538465,
          "velocity": 0.6377952755905512,
          "duration": 0.3846155
        },
        {
          "name": "D4",
          "midi": 62,
          "time": 1.538462,
          "velocity": 0.6062992125984252,
          "duration": 0.769231
        },
        {
          "name": "B3",
          "midi": 59,
          "time": 1.538462,
          "velocity": 0.6062992125984252,
          "duration": 0.769231
        },
        {
          "name": "D3",
          "midi": 50,
          "time": 1.538462,
          "velocity": 0.5748031496062992,
          "duration": 0.769231
        },
        {
          "name": "G2",
          "midi": 43,
          "time": 1.538462,
          "velocity": 0.5826771653543307,
          "duration": 0.769231
        },
        {
          "name": "B3",
          "midi": 59,
          "time": 2.307693,
          "velocity": 0.5511811023622047,
          "duration": 2.307693
        },
        {
          "name": "G3",
          "midi": 55,
          "time": 2.307693,
          "velocity": 0.5669291338582677,
          "duration": 2.307693
        },
        {
          "name": "D3",
          "midi": 50,
          "time": 2.307693,
          "velocity": 0.5748031496062992,
          "duration": 2.307693
        },
        {
          "name": "G2",
          "midi": 43,
          "time": 2.307693,
          "velocity": 0.6220472440944882,
          "duration": 2.307693
        },
        {
          "name": "D4",
          "midi": 62,
          "time": 4.615386,
          "velocity": 0.6535433070866141,
          "duration": 1.1538465000000002
        },
        {
          "name": "B3",
          "midi": 59,
          "time": 4.615386,
          "velocity": 0.6614173228346457,
          "duration": 1.1538465000000002
        },
        {
          "name": "D3",
          "midi": 50,
          "time": 4.615386,
          "velocity": 0.5905511811023622,
          "duration": 1.538462
        },
        {
          "name": "G2",
          "midi": 43,
          "time": 4.615386,
          "velocity": 0.5984251968503937,
          "duration": 1.538462
        },
        {
          "name": "E4",
          "midi": 64,
          "time": 5.7692325,
          "velocity": 0.6377952755905512,
          "duration": 0.3846154999999998
        },
        {
          "name": "C4",
          "midi": 60,
          "time": 5.7692325,
          "velocity": 0.6614173228346457,
          "duration": 0.3846154999999998
        },
        {
          "name": "D4",
          "midi": 62,
          "time": 6.153848,
          "velocity": 0.5590551181102362,
          "duration": 0.7692309999999996
        },
        {
          "name": "B3",
          "midi": 59,
          "time": 6.153848,
          "velocity": 0.5590551181102362,
          "duration": 0.7692309999999996
        },
        {
          "name": "D3",
          "midi": 50,
          "time": 6.153848,
          "velocity": 0.6220472440944882,
          "duration": 0.7692309999999996
        },
        {
          "name": "G2",
          "midi": 43,
          "time": 6.153848,
          "velocity": 0.5748031496062992,
          "duration": 0.7692309999999996
        },
        {
          "name": "B3",
          "midi": 59,
          "time": 6.9230789999999995,
          "velocity": 0.5275590551181102,
          "duration": 2.3076930000000004
        },
        {
          "name": "G3",
          "midi": 55,
          "time": 6.9230789999999995,
          "velocity": 0.5826771653543307,
          "duration": 2.3076930000000004
        },
        {
          "name": "D3",
          "midi": 50,
          "time": 6.9230789999999995,
          "velocity": 0.6220472440944882,
          "duration": 2.3076930000000004
        },
        {
          "name": "G2",
          "midi": 43,
          "time": 6.9230789999999995,
          "velocity": 0.6299212598425197,
          "duration": 2.3076930000000004
        },
        {
          "name": "A4",
          "midi": 69,
          "time": 9.230772,
          "velocity": 0.7165354330708661,
          "duration": 1.5384620000000009
        },
        {
          "name": "C4",
          "midi": 60,
          "time": 9.230772,
          "velocity": 0.6929133858267716,
          "duration": 1.5384620000000009
        },
        {
          "name": "F#3",
          "midi": 54,
          "time": 9.230772,
          "velocity": 0.6141732283464567,
          "duration": 1.5384620000000009
        },
        {
          "name": "D3",
          "midi": 50,
          "time": 9.230772,
          "velocity": 0.6377952755905512,
          "duration": 1.5384620000000009
        },
        {
          "name": "A4",
          "midi": 69,
          "time": 10.769234,
          "velocity": 0.6220472440944882,
          "duration": 0.7692309999999996
        },
        {
          "name": "C4",
          "midi": 60,
          "time": 10.769234,
          "velocity": 0.6220472440944882,
          "duration": 0.7692309999999996
        },
        {
          "name": "F#3",
          "midi": 54,
          "time": 10.769234,
          "velocity": 0.5984251968503937,
          "duration": 0.7692309999999996
        },
        {
          "name": "D3",
          "midi": 50,
          "time": 10.769234,
          "velocity": 0.6141732283464567,
          "duration": 0.7692309999999996
        },
        {
          "name": "F#4",
          "midi": 66,
          "time": 11.538465,
          "velocity": 0.5748031496062992,
          "duration": 2.3076930000000004
        },
        {
          "name": "C4",
          "midi": 60,
          "time": 11.538465,
          "velocity": 0.6377952755905512,
          "duration": 2.3076930000000004
        },
        {
          "name": "A3",
          "midi": 57,
          "time": 11.538465,
          "velocity": 0.6456692913385826,
          "duration": 2.3076930000000004
        },
        {
          "name": "D3",
          "midi": 50,
          "time": 11.538465,
          "velocity": 0.6062992125984252,
          "duration": 2.3076930000000004
        },
        {
          "name": "G4",
          "midi": 67,
          "time": 13.846158,
          "velocity": 0.6062992125984252,
          "duration": 1.5384620000000009
        },
        {
          "name": "B3",
          "midi": 59,
          "time": 13.846158,
          "velocity": 0.6141732283464567,
          "duration": 1.5384620000000009
        },
        {
          "name": "G3",
          "midi": 55,
          "time": 13.846158,
          "velocity": 0.5511811023622047,
          "duration": 1.5384620000000009
        },
        {
          "name": "G2",
          "midi": 43,
          "time": 13.846158,
          "velocity": 0.5669291338582677,
          "duration": 1.5384620000000009
        },
        {
          "name": "G4",
          "midi": 67,
          "time": 15.384620000000002,
          "velocity": 0.5905511811023622,
          "duration": 0.7692310000000013
        },
        {
          "name": "B3",
          "midi": 59,
          "time": 15.384620000000002,
          "velocity": 0.5905511811023622,
          "duration": 0.7692310000000013
        },
        {
          "name": "G3",
          "midi": 55,
          "time": 15.384620000000002,
          "velocity": 0.5826771653543307,
          "duration": 3.0769240000000018
        },
        {
          "name": "G2",
          "midi": 43,
          "time": 15.384620000000002,
          "velocity": 0.5826771653543307,
          "duration": 0.7692310000000013
        },
        {
          "name": "D4",
          "midi": 62,
          "time": 16.153851000000003,
          "velocity": 0.49606299212598426,
          "duration": 2.3076930000000004
        },
        {
          "name": "B3",
          "midi": 59,
          "time": 16.153851000000003,
          "velocity": 0.6062992125984252,
          "duration": 2.3076930000000004
        },
        {
          "name": "G2",
          "midi": 43,
          "time": 16.153851000000003,
          "velocity": 0.5984251968503937,
          "duration": 2.3076930000000004
        },
        {
          "name": "E4",
          "midi": 64,
          "time": 18.461544000000004,
          "velocity": 0.6377952755905512,
          "duration": 1.538461999999999
        },
        {
          "name": "C4",
          "midi": 60,
          "time": 18.461544000000004,
          "velocity": 0.6141732283464567,
          "duration": 1.538461999999999
        },
        {
          "name": "G3",
          "midi": 55,
          "time": 18.461544000000004,
          "velocity": 0.5984251968503937,
          "duration": 1.538461999999999
        },
        {
          "name": "C3",
          "midi": 48,
          "time": 18.461544000000004,
          "velocity": 0.6614173228346457,
          "duration": 1.538461999999999
        },
        {
          "name": "E4",
          "midi": 64,
          "time": 20.000006000000003,
          "velocity": 0.5590551181102362,
          "duration": 0.7692310000000013
        },
        {
          "name": "C4",
          "midi": 60,
          "time": 20.000006000000003,
          "velocity": 0.6062992125984252,
          "duration": 0.7692310000000013
        },
        {
          "name": "G3",
          "midi": 55,
          "time": 20.000006000000003,
          "velocity": 0.6062992125984252,
          "duration": 0.7692310000000013
        },
        {
          "name": "C3",
          "midi": 48,
          "time": 20.000006000000003,
          "velocity": 0.5905511811023622,
          "duration": 0.7692310000000013
        },
        {
          "name": "G4",
          "midi": 67,
          "time": 20.769237000000004,
          "velocity": 0.6456692913385826,
          "duration": 1.1538465000000002
        },
        {
          "name": "E4",
          "midi": 64,
          "time": 20.769237000000004,
          "velocity": 0.6771653543307087,
          "duration": 1.1538465000000002
        },
        {
          "name": "G3",
          "midi": 55,
          "time": 20.769237000000004,
          "velocity": 0.5748031496062992,
          "duration": 1.538461999999999
        },
        {
          "name": "C3",
          "midi": 48,
          "time": 20.769237000000004,
          "velocity": 0.6062992125984252,
          "duration": 1.538461999999999
        },
        {
          "name": "F#4",
          "midi": 66,
          "time": 21.923083500000004,
          "velocity": 0.6062992125984252,
          "duration": 0.3846154999999989
        },
        {
          "name": "D4",
          "midi": 62,
          "time": 21.923083500000004,
          "velocity": 0.5826771653543307,
          "duration": 0.3846154999999989
        },
        {
          "name": "E4",
          "midi": 64,
          "time": 22.307699000000003,
          "velocity": 0.5196850393700787,
          "duration": 0.7692310000000013
        },
        {
          "name": "C4",
          "midi": 60,
          "time": 22.307699000000003,
          "velocity": 0.5590551181102362,
          "duration": 0.7692310000000013
        },
        {
          "name": "G3",
          "midi": 55,
          "time": 22.307699000000003,
          "velocity": 0.6299212598425197,
          "duration": 0.7692310000000013
        },
        {
          "name": "C3",
          "midi": 48,
          "time": 22.307699000000003,
          "velocity": 0.5984251968503937,
          "duration": 0.7692310000000013
        },
        {
          "name": "D4",
          "midi": 62,
          "time": 23.076930000000004,
          "velocity": 0.5433070866141733,
          "duration": 1.1538465000000002
        },
        {
          "name": "B3",
          "midi": 59,
          "time": 23.076930000000004,
          "velocity": 0.5590551181102362,
          "duration": 1.1538465000000002
        },
        {
          "name": "G3",
          "midi": 55,
          "time": 23.076930000000004,
          "velocity": 0.6456692913385826,
          "duration": 1.1538465000000002
        },
        {
          "name": "G2",
          "midi": 43,
          "time": 23.076930000000004,
          "velocity": 0.5590551181102362,
          "duration": 1.1538465000000002
        },
        {
          "name": "E4",
          "midi": 64,
          "time": 24.230776500000005,
          "velocity": 0.6377952755905512,
          "duration": 0.3846154999999989
        },
        {
          "name": "C4",
          "midi": 60,
          "time": 24.230776500000005,
          "velocity": 0.6141732283464567,
          "duration": 0.3846154999999989
        },
        {
          "name": "G3",
          "midi": 55,
          "time": 24.230776500000005,
          "velocity": 0.6220472440944882,
          "duration": 0.3846154999999989
        },
        {
          "name": "G2",
          "midi": 43,
          "time": 24.230776500000005,
          "velocity": 0.5984251968503937,
          "duration": 0.3846154999999989
        },
        {
          "name": "D4",
          "midi": 62,
          "time": 24.615392000000003,
          "velocity": 0.5748031496062992,
          "duration": 0.7692310000000013
        },
        {
          "name": "B3",
          "midi": 59,
          "time": 24.615392000000003,
          "velocity": 0.5826771653543307,
          "duration": 0.7692310000000013
        },
        {
          "name": "G2",
          "midi": 43,
          "time": 24.615392000000003,
          "velocity": 0.5905511811023622,
          "duration": 0.7692310000000013
        },
        {
          "name": "G3",
          "midi": 55,
          "time": 24.615392000000003,
          "velocity": 0.5826771653543307,
          "duration": 0.7692310000000013
        },
        {
          "name": "B3",
          "midi": 59,
          "time": 25.384623000000005,
          "velocity": 0.5354330708661418,
          "duration": 2.3076930000000004
        },
        {
          "name": "G2",
          "midi": 43,
          "time": 25.384623000000005,
          "velocity": 0.6220472440944882,
          "duration": 2.3076930000000004
        },
        {
          "name": "G3",
          "midi": 55,
          "time": 25.384623000000005,
          "velocity": 0.5826771653543307,
          "duration": 2.3076930000000004
        },
        {
          "name": "E4",
          "midi": 64,
          "time": 27.692316000000005,
          "velocity": 0.6929133858267716,
          "duration": 1.538461999999999
        },
        {
          "name": "C4",
          "midi": 60,
          "time": 27.692316000000005,
          "velocity": 0.6929133858267716,
          "duration": 1.538461999999999
        },
        {
          "name": "G3",
          "midi": 55,
          "time": 27.692316000000005,
          "velocity": 0.5826771653543307,
          "duration": 1.538461999999999
        },
        {
          "name": "C3",
          "midi": 48,
          "time": 27.692316000000005,
          "velocity": 0.6220472440944882,
          "duration": 1.538461999999999
        },
        {
          "name": "E4",
          "midi": 64,
          "time": 29.230778000000004,
          "velocity": 0.5826771653543307,
          "duration": 0.7692310000000013
        },
        {
          "name": "C4",
          "midi": 60,
          "time": 29.230778000000004,
          "velocity": 0.6141732283464567,
          "duration": 0.7692310000000013
        },
        {
          "name": "G3",
          "midi": 55,
          "time": 29.230778000000004,
          "velocity": 0.5748031496062992,
          "duration": 0.7692310000000013
        },
        {
          "name": "C3",
          "midi": 48,
          "time": 29.230778000000004,
          "velocity": 0.6141732283464567,
          "duration": 0.7692310000000013
        },
        {
          "name": "G4",
          "midi": 67,
          "time": 30.000009000000006,
          "velocity": 0.6141732283464567,
          "duration": 1.1538465000000002
        },
        {
          "name": "E4",
          "midi": 64,
          "time": 30.000009000000006,
          "velocity": 0.6456692913385826,
          "duration": 1.1538465000000002
        },
        {
          "name": "G3",
          "midi": 55,
          "time": 30.000009000000006,
          "velocity": 0.5984251968503937,
          "duration": 1.1538465000000002
        },
        {
          "name": "C3",
          "midi": 48,
          "time": 30.000009000000006,
          "velocity": 0.6141732283464567,
          "duration": 1.1538465000000002
        },
        {
          "name": "F#4",
          "midi": 66,
          "time": 31.153855500000006,
          "velocity": 0.5511811023622047,
          "duration": 0.3846154999999989
        },
        {
          "name": "D4",
          "midi": 62,
          "time": 31.153855500000006,
          "velocity": 0.5984251968503937,
          "duration": 0.3846154999999989
        },
        {
          "name": "G3",
          "midi": 55,
          "time": 31.153855500000006,
          "velocity": 0.5826771653543307,
          "duration": 0.3846154999999989
        },
        {
          "name": "C3",
          "midi": 48,
          "time": 31.153855500000006,
          "velocity": 0.5905511811023622,
          "duration": 0.3846154999999989
        },
        {
          "name": "E4",
          "midi": 64,
          "time": 31.538471000000005,
          "velocity": 0.5433070866141733,
          "duration": 0.7692310000000013
        },
        {
          "name": "C4",
          "midi": 60,
          "time": 31.538471000000005,
          "velocity": 0.5590551181102362,
          "duration": 0.7692310000000013
        },
        {
          "name": "G3",
          "midi": 55,
          "time": 31.538471000000005,
          "velocity": 0.5905511811023622,
          "duration": 0.7692310000000013
        },
        {
          "name": "C3",
          "midi": 48,
          "time": 31.538471000000005,
          "velocity": 0.6299212598425197,
          "duration": 0.7692310000000013
        },
        {
          "name": "D4",
          "midi": 62,
          "time": 32.307702000000006,
          "velocity": 0.5669291338582677,
          "duration": 1.1538465000000002
        },
        {
          "name": "B3",
          "midi": 59,
          "time": 32.307702000000006,
          "velocity": 0.6062992125984252,
          "duration": 1.1538465000000002
        },
        {
          "name": "G3",
          "midi": 55,
          "time": 32.307702000000006,
          "velocity": 0.6141732283464567,
          "duration": 1.1538465000000002
        },
        {
          "name": "G2",
          "midi": 43,
          "time": 32.307702000000006,
          "velocity": 0.5905511811023622,
          "duration": 1.1538465000000002
        },
        {
          "name": "E4",
          "midi": 64,
          "time": 33.461548500000006,
          "velocity": 0.6220472440944882,
          "duration": 0.38461550000000244
        },
        {
          "name": "C4",
          "midi": 60,
          "time": 33.461548500000006,
          "velocity": 0.6220472440944882,
          "duration": 0.38461550000000244
        },
        {
          "name": "G3",
          "midi": 55,
          "time": 33.461548500000006,
          "velocity": 0.6062992125984252,
          "duration": 0.38461550000000244
        },
        {
          "name": "G2",
          "midi": 43,
          "time": 33.461548500000006,
          "velocity": 0.6141732283464567,
          "duration": 0.38461550000000244
        },
        {
          "name": "D4",
          "midi": 62,
          "time": 33.84616400000001,
          "velocity": 0.5748031496062992,
          "duration": 0.7692309999999978
        },
        {
          "name": "B3",
          "midi": 59,
          "time": 33.84616400000001,
          "velocity": 0.5590551181102362,
          "duration": 0.7692309999999978
        },
        {
          "name": "G2",
          "midi": 43,
          "time": 33.84616400000001,
          "velocity": 0.6299212598425197,
          "duration": 0.7692309999999978
        },
        {
          "name": "G3",
          "midi": 55,
          "time": 33.84616400000001,
          "velocity": 0.7874015748031497,
          "duration": 3.076923999999998
        },
        {
          "name": "B3",
          "midi": 59,
          "time": 34.61539500000001,
          "velocity": 0.5354330708661418,
          "duration": 2.3076930000000004
        },
        {
          "name": "G2",
          "midi": 43,
          "time": 34.61539500000001,
          "velocity": 0.5984251968503937,
          "duration": 2.3076930000000004
        },
        {
          "name": "A4",
          "midi": 69,
          "time": 36.92308800000001,
          "velocity": 0.7165354330708661,
          "duration": 1.5384620000000027
        },
        {
          "name": "D4",
          "midi": 62,
          "time": 36.92308800000001,
          "velocity": 0.6692913385826772,
          "duration": 1.5384620000000027
        },
        {
          "name": "F#3",
          "midi": 54,
          "time": 36.92308800000001,
          "velocity": 0.6062992125984252,
          "duration": 1.5384620000000027
        },
        {
          "name": "D3",
          "midi": 50,
          "time": 36.92308800000001,
          "velocity": 0.6692913385826772,
          "duration": 1.5384620000000027
        },
        {
          "name": "A4",
          "midi": 69,
          "time": 38.46155000000001,
          "velocity": 0.6456692913385826,
          "duration": 0.7692309999999978
        },
        {
          "name": "D4",
          "midi": 62,
          "time": 38.46155000000001,
          "velocity": 0.6614173228346457,
          "duration": 0.7692309999999978
        },
        {
          "name": "F#3",
          "midi": 54,
          "time": 38.46155000000001,
          "velocity": 0.6062992125984252,
          "duration": 0.7692309999999978
        },
        {
          "name": "D3",
          "midi": 50,
          "time": 38.46155000000001,
          "velocity": 0.5826771653543307,
          "duration": 0.7692309999999978
        },
        {
          "name": "C5",
          "midi": 72,
          "time": 39.23078100000001,
          "velocity": 0.6535433070866141,
          "duration": 1.1538465000000002
        },
        {
          "name": "D4",
          "midi": 62,
          "time": 39.23078100000001,
          "velocity": 0.5826771653543307,
          "duration": 1.1538465000000002
        },
        {
          "name": "F#3",
          "midi": 54,
          "time": 39.23078100000001,
          "velocity": 0.6062992125984252,
          "duration": 1.1538465000000002
        },
        {
          "name": "D3",
          "midi": 50,
          "time": 39.23078100000001,
          "velocity": 0.5984251968503937,
          "duration": 1.1538465000000002
        },
        {
          "name": "A4",
          "midi": 69,
          "time": 40.38462750000001,
          "velocity": 0.6062992125984252,
          "duration": 0.38461550000000244
        },
        {
          "name": "D4",
          "midi": 62,
          "time": 40.38462750000001,
          "velocity": 0.5905511811023622,
          "duration": 0.38461550000000244
        },
        {
          "name": "F#3",
          "midi": 54,
          "time": 40.38462750000001,
          "velocity": 0.5984251968503937,
          "duration": 0.38461550000000244
        },
        {
          "name": "D3",
          "midi": 50,
          "time": 40.38462750000001,
          "velocity": 0.6299212598425197,
          "duration": 0.38461550000000244
        },
        {
          "name": "F#4",
          "midi": 66,
          "time": 40.76924300000001,
          "velocity": 0.5275590551181102,
          "duration": 0.7692309999999978
        },
        {
          "name": "D4",
          "midi": 62,
          "time": 40.76924300000001,
          "velocity": 0.6062992125984252,
          "duration": 0.7692309999999978
        },
        {
          "name": "C4",
          "midi": 60,
          "time": 40.76924300000001,
          "velocity": 0.7165354330708661,
          "duration": 0.7692309999999978
        },
        {
          "name": "D3",
          "midi": 50,
          "time": 40.76924300000001,
          "velocity": 0.5984251968503937,
          "duration": 0.7692309999999978
        },
        {
          "name": "G4",
          "midi": 67,
          "time": 41.53847400000001,
          "velocity": 0.5984251968503937,
          "duration": 2.3076930000000004
        },
        {
          "name": "D4",
          "midi": 62,
          "time": 41.53847400000001,
          "velocity": 0.6220472440944882,
          "duration": 2.3076930000000004
        },
        {
          "name": "C4",
          "midi": 60,
          "time": 41.53847400000001,
          "velocity": 0.6614173228346457,
          "duration": 2.3076930000000004
        },
        {
          "name": "G3",
          "midi": 55,
          "time": 41.53847400000001,
          "velocity": 0.6850393700787402,
          "duration": 2.3076930000000004
        },
        {
          "name": "B4",
          "midi": 71,
          "time": 43.84616700000001,
          "velocity": 0.7007874015748031,
          "duration": 2.3076930000000004
        },
        {
          "name": "D4",
          "midi": 62,
          "time": 43.84616700000001,
          "velocity": 0.5669291338582677,
          "duration": 2.3076930000000004
        },
        {
          "name": "G3",
          "midi": 55,
          "time": 43.84616700000001,
          "velocity": 0.7874015748031497,
          "duration": 2.3076930000000004
        },
        {
          "name": "G4",
          "midi": 67,
          "time": 46.15386000000001,
          "velocity": 0.5433070866141733,
          "duration": 0.7692309999999978
        },
        {
          "name": "D3",
          "midi": 50,
          "time": 46.15386000000001,
          "velocity": 0.5433070866141733,
          "duration": 1.5384619999999956
        },
        {
          "name": "B2",
          "midi": 47,
          "time": 46.15386000000001,
          "velocity": 0.5354330708661418,
          "duration": 1.5384619999999956
        },
        {
          "name": "G3",
          "midi": 55,
          "time": 46.15386000000001,
          "velocity": 0.7874015748031497,
          "duration": 1.5384619999999956
        },
        {
          "name": "D4",
          "midi": 62,
          "time": 46.92309100000001,
          "velocity": 0.5196850393700787,
          "duration": 0.7692309999999978
        },
        {
          "name": "B3",
          "midi": 59,
          "time": 47.692322000000004,
          "velocity": 0.5669291338582677,
          "duration": 0.7692309999999978
        },
        {
          "name": "D3",
          "midi": 50,
          "time": 47.692322000000004,
          "velocity": 0.5748031496062992,
          "duration": 0.7692309999999978
        },
        {
          "name": "G2",
          "midi": 43,
          "time": 47.692322000000004,
          "velocity": 0.5826771653543307,
          "duration": 0.7692309999999978
        },
        {
          "name": "G3",
          "midi": 55,
          "time": 47.692322000000004,
          "velocity": 0.7874015748031497,
          "duration": 0.7692309999999978
        },
        {
          "name": "D4",
          "midi": 62,
          "time": 48.461553,
          "velocity": 0.6456692913385826,
          "duration": 1.1538465000000002
        },
        {
          "name": "F#3",
          "midi": 54,
          "time": 48.461553,
          "velocity": 0.5748031496062992,
          "duration": 1.1538465000000002
        },
        {
          "name": "D3",
          "midi": 50,
          "time": 48.461553,
          "velocity": 0.6141732283464567,
          "duration": 1.1538465000000002
        },
        {
          "name": "C4",
          "midi": 60,
          "time": 49.6153995,
          "velocity": 0.5984251968503937,
          "duration": 0.38461550000000244
        },
        {
          "name": "F#3",
          "midi": 54,
          "time": 49.6153995,
          "velocity": 0.6062992125984252,
          "duration": 0.38461550000000244
        },
        {
          "name": "D3",
          "midi": 50,
          "time": 49.6153995,
          "velocity": 0.6299212598425197,
          "duration": 0.38461550000000244
        },
        {
          "name": "A3",
          "midi": 57,
          "time": 50.000015000000005,
          "velocity": 0.5433070866141733,
          "duration": 0.7692309999999978
        },
        {
          "name": "F#3",
          "midi": 54,
          "time": 50.000015000000005,
          "velocity": 0.6220472440944882,
          "duration": 0.7692309999999978
        },
        {
          "name": "D3",
          "midi": 50,
          "time": 50.000015000000005,
          "velocity": 0.5905511811023622,
          "duration": 0.7692309999999978
        },
        {
          "name": "G3",
          "midi": 55,
          "time": 50.769246,
          "velocity": 0.5748031496062992,
          "duration": 4.615386000000001
        },
        {
          "name": "B2",
          "midi": 47,
          "time": 50.769246,
          "velocity": 0.5984251968503937,
          "duration": 4.615386000000001
        },
        {
          "name": "G2",
          "midi": 43,
          "time": 50.769246,
          "velocity": 0.6692913385826772,
          "duration": 4.615386000000001
        }
      ],
      "controlChanges": {},
      "id": 1,
      "name": "FL Keys 1",
      "channelNumber": 0,
      "isPercussion": false
    }
  ]
}
