{
  "header": {
    "PPQ": 192,
    "timeSignature": [
      4,
      4
    ],
    "bpm": 120,
    "name": "93S"
  },
  "startTime": 0,
  "duration": 102.14062499999893,
  "tracks": [
    {
      "startTime": 0,
      "duration": 0,
      "length": 0,
      "notes": [],
      "controlChanges": {},
      "id": 0,
      "name": "93S"
    },
    {
      "startTime": 0.453125,
      "duration": 102.14062499999893,
      "length": 1954,
      "notes": [
        {
          "name": "A3",
          "midi": 57,
          "time": 0.453125,
          "velocity": 0.6299212598425197,
          "duration": 0.25260416666666674
        },
        {
          "name": "C6",
          "midi": 84,
          "time": 0.4713541666666667,
          "velocity": 0.6299212598425197,
          "duration": 0.11458333333333331
        },
        {
          "name": "D6",
          "midi": 86,
          "time": 0.5859375,
          "velocity": 0.6299212598425197,
          "duration": 0.10677083333333337
        },
        {
          "name": "C6",
          "midi": 84,
          "time": 0.6875,
          "velocity": 0.6299212598425197,
          "duration": 0.1328125
        },
        {
          "name": "C5",
          "midi": 72,
          "time": 0.75,
          "velocity": 0.6299212598425197,
          "duration": 0.125
        },
        {
          "name": "A5",
          "midi": 81,
          "time": 0.75,
          "velocity": 0.6299212598425197,
          "duration": 0.125
        },
        {
          "name": "E4",
          "midi": 64,
          "time": 0.7526041666666666,
          "velocity": 0.6299212598425197,
          "duration": 0.1484375
        },
        {
          "name": "A#5",
          "midi": 82,
          "time": 0.9375,
          "velocity": 0.6299212598425197,
          "duration": 0.10416666666666652
        },
        {
          "name": "E3",
          "midi": 52,
          "time": 0.9869791666666666,
          "velocity": 0.6299212598425197,
          "duration": 0.3255208333333329
        },
        {
          "name": "B5",
          "midi": 83,
          "time": 1.0026041666666665,
          "velocity": 0.6299212598425197,
          "duration": 0.10677083333333326
        },
        {
          "name": "E6",
          "midi": 88,
          "time": 1.114583333333333,
          "velocity": 0.6299212598425197,
          "duration": 0.18749999999999978
        },
        {
          "name": "B3",
          "midi": 59,
          "time": 1.1197916666666663,
          "velocity": 0.6299212598425197,
          "duration": 0.19270833333333326
        },
        {
          "name": "D5",
          "midi": 74,
          "time": 1.1197916666666663,
          "velocity": 0.6299212598425197,
          "duration": 0.16927083333333326
        },
        {
          "name": "E5",
          "midi": 76,
          "time": 1.1197916666666663,
          "velocity": 0.6299212598425197,
          "duration": 0.16927083333333326
        },
        {
          "name": "G#5",
          "midi": 80,
          "time": 1.1197916666666663,
          "velocity": 0.6299212598425197,
          "duration": 0.18229166666666652
        },
        {
          "name": "G#4",
          "midi": 68,
          "time": 1.1249999999999996,
          "velocity": 0.6299212598425197,
          "duration": 0.15104166666666674
        },
        {
          "name": "A2",
          "midi": 45,
          "time": 1.4453124999999996,
          "velocity": 0.6299212598425197,
          "duration": 0.1796875
        },
        {
          "name": "C5",
          "midi": 72,
          "time": 1.4635416666666663,
          "velocity": 0.6299212598425197,
          "duration": 0.08333333333333326
        },
        {
          "name": "D5",
          "midi": 74,
          "time": 1.5416666666666663,
          "velocity": 0.6299212598425197,
          "duration": 0.09895833333333326
        },
        {
          "name": "C5",
          "midi": 72,
          "time": 1.6406249999999996,
          "velocity": 0.6299212598425197,
          "duration": 0.10416666666666652
        },
        {
          "name": "E3",
          "midi": 52,
          "time": 1.6718749999999996,
          "velocity": 0.6299212598425197,
          "duration": 0.14843749999999978
        },
        {
          "name": "C4",
          "midi": 60,
          "time": 1.6953124999999996,
          "velocity": 0.6299212598425197,
          "duration": 0.11979166666666652
        },
        {
          "name": "A4",
          "midi": 69,
          "time": 1.7005208333333328,
          "velocity": 0.6299212598425197,
          "duration": 0.12499999999999978
        },
        {
          "name": "A#4",
          "midi": 70,
          "time": 1.8854166666666659,
          "velocity": 0.6299212598425197,
          "duration": 0.06510416666666674
        },
        {
          "name": "B4",
          "midi": 71,
          "time": 1.9348958333333326,
          "velocity": 0.6299212598425197,
          "duration": 0.0703125
        },
        {
          "name": "E2",
          "midi": 40,
          "time": 1.9374999999999993,
          "velocity": 0.6299212598425197,
          "duration": 0.2604166666666663
        },
        {
          "name": "B2",
          "midi": 47,
          "time": 2.0364583333333326,
          "velocity": 0.6299212598425197,
          "duration": 0.15104166666666652
        },
        {
          "name": "D4",
          "midi": 62,
          "time": 2.0364583333333326,
          "velocity": 0.6299212598425197,
          "duration": 0.15104166666666652
        },
        {
          "name": "G#4",
          "midi": 68,
          "time": 2.0364583333333326,
          "velocity": 0.6299212598425197,
          "duration": 0.16145833333333304
        },
        {
          "name": "E5",
          "midi": 76,
          "time": 2.0364583333333326,
          "velocity": 0.6299212598425197,
          "duration": 0.17447916666666652
        },
        {
          "name": "G#3",
          "midi": 56,
          "time": 2.054687499999999,
          "velocity": 0.6299212598425197,
          "duration": 0.14322916666666652
        },
        {
          "name": "F#3",
          "midi": 54,
          "time": 2.3020833333333326,
          "velocity": 0.6299212598425197,
          "duration": 0.05989583333333304
        },
        {
          "name": "G3",
          "midi": 55,
          "time": 2.343749999999999,
          "velocity": 0.6299212598425197,
          "duration": 0.05208333333333348
        },
        {
          "name": "F#4",
          "midi": 66,
          "time": 2.374999999999999,
          "velocity": 0.6299212598425197,
          "duration": 0.11458333333333348
        },
        {
          "name": "G#3",
          "midi": 56,
          "time": 2.3776041666666656,
          "velocity": 0.6299212598425197,
          "duration": 0.05729166666666696
        },
        {
          "name": "D#4",
          "midi": 63,
          "time": 2.3776041666666656,
          "velocity": 0.6299212598425197,
          "duration": 0.11197916666666696
        },
        {
          "name": "C5",
          "midi": 72,
          "time": 2.3776041666666656,
          "velocity": 0.6299212598425197,
          "duration": 0.12239583333333348
        },
        {
          "name": "A3",
          "midi": 57,
          "time": 2.390624999999999,
          "velocity": 0.6299212598425197,
          "duration": 0.109375
        },
        {
          "name": "A3",
          "midi": 57,
          "time": 2.5989583333333326,
          "velocity": 0.6299212598425197,
          "duration": 0.39843750000000044
        },
        {
          "name": "D#4",
          "midi": 63,
          "time": 2.5989583333333326,
          "velocity": 0.6299212598425197,
          "duration": 0.38541666666666696
        },
        {
          "name": "F#4",
          "midi": 66,
          "time": 2.611979166666666,
          "velocity": 0.6299212598425197,
          "duration": 0.3671875
        },
        {
          "name": "C5",
          "midi": 72,
          "time": 2.611979166666666,
          "velocity": 0.6299212598425197,
          "duration": 0.38541666666666696
        },
        {
          "name": "A3",
          "midi": 57,
          "time": 3.1171874999999996,
          "velocity": 0.6299212598425197,
          "duration": 0.15885416666666696
        },
        {
          "name": "D#4",
          "midi": 63,
          "time": 3.1171874999999996,
          "velocity": 0.6299212598425197,
          "duration": 0.11197916666666652
        },
        {
          "name": "B4",
          "midi": 71,
          "time": 3.122395833333333,
          "velocity": 0.6299212598425197,
          "duration": 0.125
        },
        {
          "name": "F#4",
          "midi": 66,
          "time": 3.1249999999999996,
          "velocity": 0.6299212598425197,
          "duration": 0.109375
        },
        {
          "name": "G#3",
          "midi": 56,
          "time": 3.3671875,
          "velocity": 0.6299212598425197,
          "duration": 0.35416666666666696
        },
        {
          "name": "D4",
          "midi": 62,
          "time": 3.3671875,
          "velocity": 0.6299212598425197,
          "duration": 0.3411458333333335
        },
        {
          "name": "E5",
          "midi": 76,
          "time": 3.3671875,
          "velocity": 0.6299212598425197,
          "duration": 0.35416666666666696
        },
        {
          "name": "G#4",
          "midi": 68,
          "time": 3.3723958333333335,
          "velocity": 0.6299212598425197,
          "duration": 0.3489583333333335
        },
        {
          "name": "E2",
          "midi": 40,
          "time": 3.776041666666667,
          "velocity": 0.6299212598425197,
          "duration": 0.2265625
        },
        {
          "name": "B2",
          "midi": 47,
          "time": 3.807291666666667,
          "velocity": 0.6299212598425197,
          "duration": 0.38020833333333304
        },
        {
          "name": "G#5",
          "midi": 80,
          "time": 3.8359375000000004,
          "velocity": 0.6299212598425197,
          "duration": 0.3619791666666665
        },
        {
          "name": "D5",
          "midi": 74,
          "time": 3.841145833333334,
          "velocity": 0.6299212598425197,
          "duration": 0.35677083333333304
        },
        {
          "name": "E6",
          "midi": 88,
          "time": 3.8463541666666674,
          "velocity": 0.6299212598425197,
          "duration": 0.35156249999999956
        },
        {
          "name": "G#3",
          "midi": 56,
          "time": 3.872395833333334,
          "velocity": 0.6299212598425197,
          "duration": 0.3151041666666661
        },
        {
          "name": "A2",
          "midi": 45,
          "time": 4.265625,
          "velocity": 0.6299212598425197,
          "duration": 0.1718749999999991
        },
        {
          "name": "C5",
          "midi": 72,
          "time": 4.3046875,
          "velocity": 0.6299212598425197,
          "duration": 0.06510416666666607
        },
        {
          "name": "D5",
          "midi": 74,
          "time": 4.364583333333333,
          "velocity": 0.6299212598425197,
          "duration": 0.08854166666666607
        },
        {
          "name": "C5",
          "midi": 72,
          "time": 4.458333333333332,
          "velocity": 0.6299212598425197,
          "duration": 0.09114583333333304
        },
        {
          "name": "E3",
          "midi": 52,
          "time": 4.513020833333332,
          "velocity": 0.6299212598425197,
          "duration": 0.18489583333333304
        },
        {
          "name": "C4",
          "midi": 60,
          "time": 4.513020833333332,
          "velocity": 0.6299212598425197,
          "duration": 0.15625
        },
        {
          "name": "A4",
          "midi": 69,
          "time": 4.518229166666665,
          "velocity": 0.6299212598425197,
          "duration": 0.1640625
        },
        {
          "name": "A#4",
          "midi": 70,
          "time": 4.716145833333332,
          "velocity": 0.6299212598425197,
          "duration": 0.0859375
        },
        {
          "name": "E2",
          "midi": 40,
          "time": 4.757812499999999,
          "velocity": 0.6299212598425197,
          "duration": 0.2526041666666652
        },
        {
          "name": "B4",
          "midi": 71,
          "time": 4.770833333333332,
          "velocity": 0.6299212598425197,
          "duration": 0.12499999999999911
        },
        {
          "name": "B2",
          "midi": 47,
          "time": 4.861979166666665,
          "velocity": 0.6299212598425197,
          "duration": 0.2760416666666652
        },
        {
          "name": "G#3",
          "midi": 56,
          "time": 4.890624999999998,
          "velocity": 0.6299212598425197,
          "duration": 0.19270833333333215
        },
        {
          "name": "D4",
          "midi": 62,
          "time": 4.890624999999998,
          "velocity": 0.6299212598425197,
          "duration": 0.19270833333333215
        },
        {
          "name": "G#4",
          "midi": 68,
          "time": 4.890624999999998,
          "velocity": 0.6299212598425197,
          "duration": 0.19270833333333215
        },
        {
          "name": "E5",
          "midi": 76,
          "time": 4.890624999999998,
          "velocity": 0.6299212598425197,
          "duration": 0.19270833333333215
        },
        {
          "name": "D5",
          "midi": 74,
          "time": 5.143229166666663,
          "velocity": 0.6299212598425197,
          "duration": 0.12499999999999911
        },
        {
          "name": "A2",
          "midi": 45,
          "time": 5.2578124999999964,
          "velocity": 0.6299212598425197,
          "duration": 0.16927083333333215
        },
        {
          "name": "C5",
          "midi": 72,
          "time": 5.2630208333333295,
          "velocity": 0.6299212598425197,
          "duration": 0.09635416666666607
        },
        {
          "name": "D5",
          "midi": 74,
          "time": 5.3541666666666625,
          "velocity": 0.6299212598425197,
          "duration": 0.08854166666666607
        },
        {
          "name": "C5",
          "midi": 72,
          "time": 5.437499999999996,
          "velocity": 0.6299212598425197,
          "duration": 0.08854166666666696
        },
        {
          "name": "E3",
          "midi": 52,
          "time": 5.492187499999996,
          "velocity": 0.6299212598425197,
          "duration": 0.10677083333333393
        },
        {
          "name": "A4",
          "midi": 69,
          "time": 5.497395833333329,
          "velocity": 0.6299212598425197,
          "duration": 0.14322916666666785
        },
        {
          "name": "C4",
          "midi": 60,
          "time": 5.499999999999996,
          "velocity": 0.6299212598425197,
          "duration": 0.08072916666666696
        },
        {
          "name": "A#4",
          "midi": 70,
          "time": 5.666666666666663,
          "velocity": 0.6299212598425197,
          "duration": 0.09635416666666607
        },
        {
          "name": "E2",
          "midi": 40,
          "time": 5.721354166666663,
          "velocity": 0.6299212598425197,
          "duration": 0.2916666666666661
        },
        {
          "name": "B4",
          "midi": 71,
          "time": 5.7265624999999964,
          "velocity": 0.6299212598425197,
          "duration": 0.1171875
        },
        {
          "name": "B2",
          "midi": 47,
          "time": 5.8020833333333295,
          "velocity": 0.6299212598425197,
          "duration": 0.2109375
        },
        {
          "name": "G#3",
          "midi": 56,
          "time": 5.8437499999999964,
          "velocity": 0.6299212598425197,
          "duration": 0.1796874999999991
        },
        {
          "name": "D4",
          "midi": 62,
          "time": 5.8437499999999964,
          "velocity": 0.6299212598425197,
          "duration": 0.11458333333333304
        },
        {
          "name": "G#4",
          "midi": 68,
          "time": 5.8437499999999964,
          "velocity": 0.6299212598425197,
          "duration": 0.1796874999999991
        },
        {
          "name": "E5",
          "midi": 76,
          "time": 5.8437499999999964,
          "velocity": 0.6299212598425197,
          "duration": 0.17447916666666607
        },
        {
          "name": "D5",
          "midi": 74,
          "time": 6.078124999999996,
          "velocity": 0.6299212598425197,
          "duration": 0.09895833333333304
        },
        {
          "name": "A2",
          "midi": 45,
          "time": 6.192708333333329,
          "velocity": 0.6299212598425197,
          "duration": 0.16927083333333304
        },
        {
          "name": "C5",
          "midi": 72,
          "time": 6.192708333333329,
          "velocity": 0.6299212598425197,
          "duration": 0.09635416666666607
        },
        {
          "name": "D5",
          "midi": 74,
          "time": 6.283854166666662,
          "velocity": 0.6299212598425197,
          "duration": 0.1015625
        },
        {
          "name": "C5",
          "midi": 72,
          "time": 6.374999999999995,
          "velocity": 0.6299212598425197,
          "duration": 0.0859375
        },
        {
          "name": "E3",
          "midi": 52,
          "time": 6.424479166666662,
          "velocity": 0.6299212598425197,
          "duration": 0.15104166666666607
        },
        {
          "name": "C4",
          "midi": 60,
          "time": 6.424479166666662,
          "velocity": 0.6299212598425197,
          "duration": 0.09635416666666607
        },
        {
          "name": "A4",
          "midi": 69,
          "time": 6.437499999999995,
          "velocity": 0.6299212598425197,
          "duration": 0.14322916666666607
        },
        {
          "name": "A#4",
          "midi": 70,
          "time": 6.611979166666661,
          "velocity": 0.6299212598425197,
          "duration": 0.09114583333333304
        },
        {
          "name": "E2",
          "midi": 40,
          "time": 6.666666666666661,
          "velocity": 0.6299212598425197,
          "duration": 0.2968749999999991
        },
        {
          "name": "B4",
          "midi": 71,
          "time": 6.679687499999994,
          "velocity": 0.6299212598425197,
          "duration": 0.08333333333333304
        },
        {
          "name": "B2",
          "midi": 47,
          "time": 6.789062499999994,
          "velocity": 0.6299212598425197,
          "duration": 0.17447916666666607
        },
        {
          "name": "D4",
          "midi": 62,
          "time": 6.789062499999994,
          "velocity": 0.6299212598425197,
          "duration": 0.18489583333333215
        },
        {
          "name": "G#4",
          "midi": 68,
          "time": 6.802083333333327,
          "velocity": 0.6299212598425197,
          "duration": 0.1718749999999991
        },
        {
          "name": "E5",
          "midi": 76,
          "time": 6.802083333333327,
          "velocity": 0.6299212598425197,
          "duration": 0.16666666666666607
        },
        {
          "name": "G#3",
          "midi": 56,
          "time": 6.817708333333327,
          "velocity": 0.6299212598425197,
          "duration": 0.1562499999999991
        },
        {
          "name": "C5",
          "midi": 72,
          "time": 7.046874999999993,
          "velocity": 0.6299212598425197,
          "duration": 0.08333333333333304
        },
        {
          "name": "A2",
          "midi": 45,
          "time": 7.130208333333326,
          "velocity": 0.6299212598425197,
          "duration": 0.3124999999999991
        },
        {
          "name": "A4",
          "midi": 69,
          "time": 7.174479166666659,
          "velocity": 0.6299212598425197,
          "duration": 0.11458333333333304
        },
        {
          "name": "E3",
          "midi": 52,
          "time": 7.416666666666659,
          "velocity": 0.6299212598425197,
          "duration": 0.1562499999999991
        },
        {
          "name": "C#4",
          "midi": 61,
          "time": 7.416666666666659,
          "velocity": 0.6299212598425197,
          "duration": 0.11979166666666607
        },
        {
          "name": "G4",
          "midi": 67,
          "time": 7.416666666666659,
          "velocity": 0.6299212598425197,
          "duration": 0.09374999999999911
        },
        {
          "name": "A4",
          "midi": 69,
          "time": 7.421874999999992,
          "velocity": 0.6299212598425197,
          "duration": 0.11458333333333304
        },
        {
          "name": "A#5",
          "midi": 82,
          "time": 7.421874999999992,
          "velocity": 0.6299212598425197,
          "duration": 0.12760416666666607
        },
        {
          "name": "C#5",
          "midi": 73,
          "time": 7.427083333333325,
          "velocity": 0.6299212598425197,
          "duration": 0.12239583333333304
        },
        {
          "name": "A2",
          "midi": 45,
          "time": 7.632812499999991,
          "velocity": 0.6299212598425197,
          "duration": 0.22395833333333215
        },
        {
          "name": "E3",
          "midi": 52,
          "time": 7.664062499999991,
          "velocity": 0.6299212598425197,
          "duration": 0.19270833333333215
        },
        {
          "name": "C#4",
          "midi": 61,
          "time": 7.664062499999991,
          "velocity": 0.6299212598425197,
          "duration": 0.1874999999999991
        },
        {
          "name": "G4",
          "midi": 67,
          "time": 7.664062499999991,
          "velocity": 0.6299212598425197,
          "duration": 0.12239583333333304
        },
        {
          "name": "A4",
          "midi": 69,
          "time": 7.677083333333324,
          "velocity": 0.6299212598425197,
          "duration": 0.109375
        },
        {
          "name": "C#5",
          "midi": 73,
          "time": 7.677083333333324,
          "velocity": 0.6299212598425197,
          "duration": 0.12239583333333304
        },
        {
          "name": "A#5",
          "midi": 82,
          "time": 7.677083333333324,
          "velocity": 0.6299212598425197,
          "duration": 0.12239583333333304
        },
        {
          "name": "G4",
          "midi": 67,
          "time": 7.903645833333323,
          "velocity": 0.6299212598425197,
          "duration": 0.15364583333333393
        },
        {
          "name": "A4",
          "midi": 69,
          "time": 7.903645833333323,
          "velocity": 0.6299212598425197,
          "duration": 0.15364583333333393
        },
        {
          "name": "C#5",
          "midi": 73,
          "time": 7.903645833333323,
          "velocity": 0.6299212598425197,
          "duration": 0.1640625
        },
        {
          "name": "A5",
          "midi": 81,
          "time": 7.916666666666656,
          "velocity": 0.6299212598425197,
          "duration": 0.15104166666666696
        },
        {
          "name": "D2",
          "midi": 38,
          "time": 8.135416666666657,
          "velocity": 0.6299212598425197,
          "duration": 0.19791666666666785
        },
        {
          "name": "A2",
          "midi": 45,
          "time": 8.148437499999991,
          "velocity": 0.6299212598425197,
          "duration": 0.16666666666666785
        },
        {
          "name": "F5",
          "midi": 77,
          "time": 8.148437499999991,
          "velocity": 0.6299212598425197,
          "duration": 0.1015625
        },
        {
          "name": "G5",
          "midi": 79,
          "time": 8.255208333333325,
          "velocity": 0.6299212598425197,
          "duration": 0.08333333333333393
        },
        {
          "name": "F5",
          "midi": 77,
          "time": 8.333333333333325,
          "velocity": 0.6299212598425197,
          "duration": 0.09375000000000178
        },
        {
          "name": "D4",
          "midi": 62,
          "time": 8.385416666666659,
          "velocity": 0.6299212598425197,
          "duration": 0.08333333333333393
        },
        {
          "name": "D5",
          "midi": 74,
          "time": 8.385416666666659,
          "velocity": 0.6299212598425197,
          "duration": 0.12500000000000178
        },
        {
          "name": "A3",
          "midi": 57,
          "time": 8.390624999999993,
          "velocity": 0.6299212598425197,
          "duration": 0.078125
        },
        {
          "name": "F4",
          "midi": 65,
          "time": 8.390624999999993,
          "velocity": 0.6299212598425197,
          "duration": 0.09114583333333393
        },
        {
          "name": "D#5",
          "midi": 75,
          "time": 8.554687499999995,
          "velocity": 0.6299212598425197,
          "duration": 0.09375
        },
        {
          "name": "A1",
          "midi": 33,
          "time": 8.601562499999995,
          "velocity": 0.6299212598425197,
          "duration": 0.171875
        },
        {
          "name": "E5",
          "midi": 76,
          "time": 8.614583333333329,
          "velocity": 0.6299212598425197,
          "duration": 0.11197916666666607
        },
        {
          "name": "A5",
          "midi": 81,
          "time": 8.72135416666666,
          "velocity": 0.6299212598425197,
          "duration": 0.15885416666666785
        },
        {
          "name": "G4",
          "midi": 67,
          "time": 8.726562499999995,
          "velocity": 0.6299212598425197,
          "duration": 0.14322916666666785
        },
        {
          "name": "A4",
          "midi": 69,
          "time": 8.726562499999995,
          "velocity": 0.6299212598425197,
          "duration": 0.15364583333333393
        },
        {
          "name": "C#5",
          "midi": 73,
          "time": 8.726562499999995,
          "velocity": 0.6299212598425197,
          "duration": 0.15364583333333393
        },
        {
          "name": "A3",
          "midi": 57,
          "time": 8.820312499999995,
          "velocity": 0.6299212598425197,
          "duration": 0.09895833333333393
        },
        {
          "name": "C#4",
          "midi": 61,
          "time": 8.820312499999995,
          "velocity": 0.6299212598425197,
          "duration": 0.0859375
        },
        {
          "name": "E4",
          "midi": 64,
          "time": 8.825520833333329,
          "velocity": 0.6299212598425197,
          "duration": 0.09375
        },
        {
          "name": "G5",
          "midi": 79,
          "time": 8.960937499999995,
          "velocity": 0.6299212598425197,
          "duration": 0.09114583333333393
        },
        {
          "name": "D2",
          "midi": 38,
          "time": 9.067708333333329,
          "velocity": 0.6299212598425197,
          "duration": 0.1848958333333357
        },
        {
          "name": "F5",
          "midi": 77,
          "time": 9.072916666666663,
          "velocity": 0.6299212598425197,
          "duration": 0.09114583333333393
        },
        {
          "name": "G5",
          "midi": 79,
          "time": 9.16927083333333,
          "velocity": 0.6299212598425197,
          "duration": 0.08854166666666785
        },
        {
          "name": "F5",
          "midi": 77,
          "time": 9.270833333333332,
          "velocity": 0.6299212598425197,
          "duration": 0.09114583333333393
        },
        {
          "name": "A3",
          "midi": 57,
          "time": 9.325520833333332,
          "velocity": 0.6299212598425197,
          "duration": 0.09635416666666785
        },
        {
          "name": "D4",
          "midi": 62,
          "time": 9.325520833333332,
          "velocity": 0.6299212598425197,
          "duration": 0.09635416666666785
        },
        {
          "name": "D5",
          "midi": 74,
          "time": 9.325520833333332,
          "velocity": 0.6299212598425197,
          "duration": 0.13020833333333393
        },
        {
          "name": "F4",
          "midi": 65,
          "time": 9.330729166666666,
          "velocity": 0.6299212598425197,
          "duration": 0.09114583333333393
        },
        {
          "name": "D#5",
          "midi": 75,
          "time": 9.515625,
          "velocity": 0.6299212598425197,
          "duration": 0.08854166666666785
        },
        {
          "name": "A1",
          "midi": 33,
          "time": 9.5625,
          "velocity": 0.6299212598425197,
          "duration": 0.11979166666666785
        },
        {
          "name": "E5",
          "midi": 76,
          "time": 9.567708333333334,
          "velocity": 0.6299212598425197,
          "duration": 0.11458333333333393
        },
        {
          "name": "G4",
          "midi": 67,
          "time": 9.682291666666668,
          "velocity": 0.6299212598425197,
          "duration": 0.17447916666666607
        },
        {
          "name": "C#5",
          "midi": 73,
          "time": 9.682291666666668,
          "velocity": 0.6299212598425197,
          "duration": 0.17447916666666607
        },
        {
          "name": "A5",
          "midi": 81,
          "time": 9.682291666666668,
          "velocity": 0.6299212598425197,
          "duration": 0.1875
        },
        {
          "name": "A3",
          "midi": 57,
          "time": 9.802083333333334,
          "velocity": 0.6299212598425197,
          "duration": 0.08854166666666785
        },
        {
          "name": "C#4",
          "midi": 61,
          "time": 9.802083333333334,
          "velocity": 0.6299212598425197,
          "duration": 0.08854166666666785
        },
        {
          "name": "E4",
          "midi": 64,
          "time": 9.802083333333334,
          "velocity": 0.6299212598425197,
          "duration": 0.08333333333333393
        },
        {
          "name": "G5",
          "midi": 79,
          "time": 9.927083333333336,
          "velocity": 0.6299212598425197,
          "duration": 0.07552083333333393
        },
        {
          "name": "D2",
          "midi": 38,
          "time": 10.028645833333336,
          "velocity": 0.6299212598425197,
          "duration": 0.09114583333333393
        },
        {
          "name": "F5",
          "midi": 77,
          "time": 10.03385416666667,
          "velocity": 0.6299212598425197,
          "duration": 0.09635416666666607
        },
        {
          "name": "G5",
          "midi": 79,
          "time": 10.14322916666667,
          "velocity": 0.6299212598425197,
          "duration": 0.07291666666666607
        },
        {
          "name": "F5",
          "midi": 77,
          "time": 10.216145833333336,
          "velocity": 0.6299212598425197,
          "duration": 0.09635416666666607
        },
        {
          "name": "A3",
          "midi": 57,
          "time": 10.289062500000002,
          "velocity": 0.6299212598425197,
          "duration": 0.078125
        },
        {
          "name": "D4",
          "midi": 62,
          "time": 10.289062500000002,
          "velocity": 0.6299212598425197,
          "duration": 0.07291666666666607
        },
        {
          "name": "F4",
          "midi": 65,
          "time": 10.289062500000002,
          "velocity": 0.6299212598425197,
          "duration": 0.078125
        },
        {
          "name": "D5",
          "midi": 74,
          "time": 10.289062500000002,
          "velocity": 0.6299212598425197,
          "duration": 0.11197916666666607
        },
        {
          "name": "D#5",
          "midi": 75,
          "time": 10.460937500000002,
          "velocity": 0.6299212598425197,
          "duration": 0.11458333333333393
        },
        {
          "name": "A1",
          "midi": 33,
          "time": 10.515625000000002,
          "velocity": 0.6299212598425197,
          "duration": 0.11458333333333393
        },
        {
          "name": "E5",
          "midi": 76,
          "time": 10.528645833333336,
          "velocity": 0.6299212598425197,
          "duration": 0.078125
        },
        {
          "name": "A5",
          "midi": 81,
          "time": 10.630208333333336,
          "velocity": 0.6299212598425197,
          "duration": 0.17447916666666785
        },
        {
          "name": "G4",
          "midi": 67,
          "time": 10.63541666666667,
          "velocity": 0.6299212598425197,
          "duration": 0.15625
        },
        {
          "name": "C#5",
          "midi": 73,
          "time": 10.640625000000004,
          "velocity": 0.6299212598425197,
          "duration": 0.15104166666666607
        },
        {
          "name": "A3",
          "midi": 57,
          "time": 10.74479166666667,
          "velocity": 0.6299212598425197,
          "duration": 0.08333333333333393
        },
        {
          "name": "C#4",
          "midi": 61,
          "time": 10.74479166666667,
          "velocity": 0.6299212598425197,
          "duration": 0.08333333333333393
        },
        {
          "name": "E4",
          "midi": 64,
          "time": 10.74479166666667,
          "velocity": 0.6299212598425197,
          "duration": 0.08333333333333393
        },
        {
          "name": "F5",
          "midi": 77,
          "time": 10.859375000000004,
          "velocity": 0.6299212598425197,
          "duration": 0.18229166666666785
        },
        {
          "name": "D2",
          "midi": 38,
          "time": 10.973958333333337,
          "velocity": 0.6299212598425197,
          "duration": 0.21354166666666785
        },
        {
          "name": "A4",
          "midi": 69,
          "time": 10.973958333333337,
          "velocity": 0.6299212598425197,
          "duration": 0.36979166666666785
        },
        {
          "name": "D5",
          "midi": 74,
          "time": 10.973958333333337,
          "velocity": 0.6299212598425197,
          "duration": 0.3098958333333357
        },
        {
          "name": "A3",
          "midi": 57,
          "time": 11.21614583333334,
          "velocity": 0.6299212598425197,
          "duration": 0.09635416666666607
        },
        {
          "name": "D4",
          "midi": 62,
          "time": 11.21614583333334,
          "velocity": 0.6299212598425197,
          "duration": 0.0859375
        },
        {
          "name": "F4",
          "midi": 65,
          "time": 11.21614583333334,
          "velocity": 0.6299212598425197,
          "duration": 0.09635416666666607
        },
        {
          "name": "A#2",
          "midi": 46,
          "time": 11.440104166666671,
          "velocity": 0.6299212598425197,
          "duration": 0.11197916666666607
        },
        {
          "name": "A4",
          "midi": 69,
          "time": 11.471354166666671,
          "velocity": 0.6299212598425197,
          "duration": 0.20572916666666785
        },
        {
          "name": "D5",
          "midi": 74,
          "time": 11.471354166666671,
          "velocity": 0.6299212598425197,
          "duration": 0.109375
        },
        {
          "name": "F5",
          "midi": 77,
          "time": 11.471354166666671,
          "velocity": 0.6299212598425197,
          "duration": 0.109375
        },
        {
          "name": "A#3",
          "midi": 58,
          "time": 11.497395833333337,
          "velocity": 0.6299212598425197,
          "duration": 0.08333333333333393
        },
        {
          "name": "C#5",
          "midi": 73,
          "time": 11.593750000000005,
          "velocity": 0.6299212598425197,
          "duration": 0.08333333333333393
        },
        {
          "name": "A2",
          "midi": 45,
          "time": 11.671875000000005,
          "velocity": 0.6299212598425197,
          "duration": 0.11458333333333393
        },
        {
          "name": "D5",
          "midi": 74,
          "time": 11.70052083333334,
          "velocity": 0.6299212598425197,
          "duration": 0.09114583333333393
        },
        {
          "name": "A3",
          "midi": 57,
          "time": 11.73177083333334,
          "velocity": 0.6299212598425197,
          "duration": 0.09375000000000178
        },
        {
          "name": "E5",
          "midi": 76,
          "time": 11.820312500000007,
          "velocity": 0.6299212598425197,
          "duration": 0.09635416666666607
        },
        {
          "name": "G#2",
          "midi": 44,
          "time": 11.898437500000007,
          "velocity": 0.6299212598425197,
          "duration": 0.12760416666666607
        },
        {
          "name": "B4",
          "midi": 71,
          "time": 11.940104166666673,
          "velocity": 0.6299212598425197,
          "duration": 0.1171875
        },
        {
          "name": "D5",
          "midi": 74,
          "time": 11.940104166666673,
          "velocity": 0.6299212598425197,
          "duration": 0.1171875
        },
        {
          "name": "F5",
          "midi": 77,
          "time": 11.940104166666673,
          "velocity": 0.6299212598425197,
          "duration": 0.1171875
        },
        {
          "name": "G#3",
          "midi": 56,
          "time": 11.971354166666673,
          "velocity": 0.6299212598425197,
          "duration": 0.0859375
        },
        {
          "name": "E2",
          "midi": 40,
          "time": 12.135416666666673,
          "velocity": 0.6299212598425197,
          "duration": 0.08333333333333215
        },
        {
          "name": "B4",
          "midi": 71,
          "time": 12.166666666666673,
          "velocity": 0.6299212598425197,
          "duration": 0.10416666666666607
        },
        {
          "name": "D5",
          "midi": 74,
          "time": 12.166666666666673,
          "velocity": 0.6299212598425197,
          "duration": 0.10416666666666607
        },
        {
          "name": "F5",
          "midi": 77,
          "time": 12.166666666666673,
          "velocity": 0.6299212598425197,
          "duration": 0.10416666666666607
        },
        {
          "name": "E3",
          "midi": 52,
          "time": 12.18489583333334,
          "velocity": 0.6299212598425197,
          "duration": 0.08072916666666607
        },
        {
          "name": "F2",
          "midi": 41,
          "time": 12.377604166666673,
          "velocity": 0.6299212598425197,
          "duration": 0.08333333333333215
        },
        {
          "name": "D5",
          "midi": 74,
          "time": 12.39583333333334,
          "velocity": 0.6299212598425197,
          "duration": 0.11197916666666607
        },
        {
          "name": "F5",
          "midi": 77,
          "time": 12.39583333333334,
          "velocity": 0.6299212598425197,
          "duration": 0.11197916666666607
        },
        {
          "name": "B4",
          "midi": 71,
          "time": 12.401041666666673,
          "velocity": 0.6299212598425197,
          "duration": 0.10677083333333215
        },
        {
          "name": "F3",
          "midi": 53,
          "time": 12.42708333333334,
          "velocity": 0.6299212598425197,
          "duration": 0.08072916666666607
        },
        {
          "name": "E5",
          "midi": 76,
          "time": 12.51302083333334,
          "velocity": 0.6299212598425197,
          "duration": 0.11979166666666607
        },
        {
          "name": "G2",
          "midi": 43,
          "time": 12.59114583333334,
          "velocity": 0.6299212598425197,
          "duration": 0.09635416666666607
        },
        {
          "name": "G3",
          "midi": 55,
          "time": 12.651041666666671,
          "velocity": 0.6299212598425197,
          "duration": 0.09635416666666785
        },
        {
          "name": "G#4",
          "midi": 68,
          "time": 12.742187500000005,
          "velocity": 0.6299212598425197,
          "duration": 0.4453125
        },
        {
          "name": "D5",
          "midi": 74,
          "time": 12.742187500000005,
          "velocity": 0.6299212598425197,
          "duration": 0.4166666666666661
        },
        {
          "name": "B5",
          "midi": 83,
          "time": 12.742187500000005,
          "velocity": 0.6299212598425197,
          "duration": 0.4583333333333339
        },
        {
          "name": "G#2",
          "midi": 44,
          "time": 12.822916666666673,
          "velocity": 0.6299212598425197,
          "duration": 0.0859375
        },
        {
          "name": "G#3",
          "midi": 56,
          "time": 12.882812500000007,
          "velocity": 0.6299212598425197,
          "duration": 0.10416666666666607
        },
        {
          "name": "E2",
          "midi": 40,
          "time": 13.07552083333334,
          "velocity": 0.6299212598425197,
          "duration": 0.08333333333333215
        },
        {
          "name": "E3",
          "midi": 52,
          "time": 13.125000000000005,
          "velocity": 0.6299212598425197,
          "duration": 0.1015625
        },
        {
          "name": "D#2",
          "midi": 39,
          "time": 13.315104166666671,
          "velocity": 0.6299212598425197,
          "duration": 0.09635416666666607
        },
        {
          "name": "D#3",
          "midi": 51,
          "time": 13.393229166666671,
          "velocity": 0.6299212598425197,
          "duration": 0.09114583333333215
        },
        {
          "name": "C#5",
          "midi": 73,
          "time": 13.55729166666667,
          "velocity": 0.6299212598425197,
          "duration": 0.078125
        },
        {
          "name": "D2",
          "midi": 38,
          "time": 13.58072916666667,
          "velocity": 0.6299212598425197,
          "duration": 0.09375
        },
        {
          "name": "D5",
          "midi": 74,
          "time": 13.61197916666667,
          "velocity": 0.6299212598425197,
          "duration": 0.09114583333333393
        },
        {
          "name": "D3",
          "midi": 50,
          "time": 13.648437500000004,
          "velocity": 0.6299212598425197,
          "duration": 0.08072916666666607
        },
        {
          "name": "E5",
          "midi": 76,
          "time": 13.72916666666667,
          "velocity": 0.6299212598425197,
          "duration": 0.08854166666666607
        },
        {
          "name": "C2",
          "midi": 36,
          "time": 13.848958333333336,
          "velocity": 0.6299212598425197,
          "duration": 0.15625
        },
        {
          "name": "C3",
          "midi": 48,
          "time": 13.848958333333336,
          "velocity": 0.6299212598425197,
          "duration": 0.15625
        },
        {
          "name": "A4",
          "midi": 69,
          "time": 13.86197916666667,
          "velocity": 0.6299212598425197,
          "duration": 0.1015625
        },
        {
          "name": "C5",
          "midi": 72,
          "time": 13.86197916666667,
          "velocity": 0.6299212598425197,
          "duration": 0.1015625
        },
        {
          "name": "F5",
          "midi": 77,
          "time": 13.86197916666667,
          "velocity": 0.6299212598425197,
          "duration": 0.1015625
        },
        {
          "name": "A4",
          "midi": 69,
          "time": 14.091145833333336,
          "velocity": 0.6299212598425197,
          "duration": 0.11718750000000178
        },
        {
          "name": "A3",
          "midi": 57,
          "time": 14.09635416666667,
          "velocity": 0.6299212598425197,
          "duration": 0.078125
        },
        {
          "name": "E4",
          "midi": 64,
          "time": 14.09635416666667,
          "velocity": 0.6299212598425197,
          "duration": 0.078125
        },
        {
          "name": "C5",
          "midi": 72,
          "time": 14.09635416666667,
          "velocity": 0.6299212598425197,
          "duration": 0.11197916666666785
        },
        {
          "name": "F5",
          "midi": 77,
          "time": 14.09635416666667,
          "velocity": 0.6299212598425197,
          "duration": 0.10677083333333393
        },
        {
          "name": "C4",
          "midi": 60,
          "time": 14.101562500000004,
          "velocity": 0.6299212598425197,
          "duration": 0.07291666666666607
        },
        {
          "name": "A4",
          "midi": 69,
          "time": 14.315104166666671,
          "velocity": 0.6299212598425197,
          "duration": 0.22656250000000178
        },
        {
          "name": "A1",
          "midi": 33,
          "time": 14.320312500000005,
          "velocity": 0.6299212598425197,
          "duration": 0.15625
        },
        {
          "name": "C5",
          "midi": 72,
          "time": 14.32552083333334,
          "velocity": 0.6299212598425197,
          "duration": 0.21614583333333393
        },
        {
          "name": "F5",
          "midi": 77,
          "time": 14.32552083333334,
          "velocity": 0.6299212598425197,
          "duration": 0.11979166666666607
        },
        {
          "name": "E5",
          "midi": 76,
          "time": 14.445312500000005,
          "velocity": 0.6299212598425197,
          "duration": 0.11979166666666785
        },
        {
          "name": "A3",
          "midi": 57,
          "time": 14.565104166666673,
          "velocity": 0.6299212598425197,
          "duration": 0.0859375
        },
        {
          "name": "C4",
          "midi": 60,
          "time": 14.565104166666673,
          "velocity": 0.6299212598425197,
          "duration": 0.09114583333333393
        },
        {
          "name": "E4",
          "midi": 64,
          "time": 14.565104166666673,
          "velocity": 0.6299212598425197,
          "duration": 0.0859375
        },
        {
          "name": "A4",
          "midi": 69,
          "time": 14.682291666666673,
          "velocity": 0.6299212598425197,
          "duration": 0.5833333333333357
        },
        {
          "name": "C5",
          "midi": 72,
          "time": 14.682291666666673,
          "velocity": 0.6299212598425197,
          "duration": 0.5833333333333357
        },
        {
          "name": "E5",
          "midi": 76,
          "time": 14.682291666666673,
          "velocity": 0.6299212598425197,
          "duration": 0.5937500000000036
        },
        {
          "name": "A5",
          "midi": 81,
          "time": 14.682291666666673,
          "velocity": 0.6299212598425197,
          "duration": 0.5937500000000036
        },
        {
          "name": "C2",
          "midi": 36,
          "time": 14.765625000000007,
          "velocity": 0.6299212598425197,
          "duration": 0.23177083333333393
        },
        {
          "name": "A3",
          "midi": 57,
          "time": 15.020833333333341,
          "velocity": 0.6299212598425197,
          "duration": 0.10416666666666785
        },
        {
          "name": "E4",
          "midi": 64,
          "time": 15.020833333333341,
          "velocity": 0.6299212598425197,
          "duration": 0.10416666666666785
        },
        {
          "name": "C4",
          "midi": 60,
          "time": 15.026041666666675,
          "velocity": 0.6299212598425197,
          "duration": 0.09895833333333393
        },
        {
          "name": "E3",
          "midi": 52,
          "time": 15.260416666666675,
          "velocity": 0.6299212598425197,
          "duration": 0.12760416666666963
        },
        {
          "name": "A3",
          "midi": 57,
          "time": 15.270833333333343,
          "velocity": 0.6299212598425197,
          "duration": 0.11718750000000178
        },
        {
          "name": "A2",
          "midi": 45,
          "time": 15.276041666666677,
          "velocity": 0.6299212598425197,
          "duration": 0.11197916666666785
        },
        {
          "name": "A4",
          "midi": 69,
          "time": 15.38281250000001,
          "velocity": 0.6299212598425197,
          "duration": 0.08854166666666785
        },
        {
          "name": "D#5",
          "midi": 75,
          "time": 15.393229166666679,
          "velocity": 0.6299212598425197,
          "duration": 0.078125
        },
        {
          "name": "G2",
          "midi": 43,
          "time": 15.513020833333345,
          "velocity": 0.6299212598425197,
          "duration": 0.09114583333333393
        },
        {
          "name": "D3",
          "midi": 50,
          "time": 15.513020833333345,
          "velocity": 0.6299212598425197,
          "duration": 0.09114583333333393
        },
        {
          "name": "G3",
          "midi": 55,
          "time": 15.513020833333345,
          "velocity": 0.6299212598425197,
          "duration": 0.09635416666666785
        },
        {
          "name": "E5",
          "midi": 76,
          "time": 15.513020833333345,
          "velocity": 0.6299212598425197,
          "duration": 0.09635416666666785
        },
        {
          "name": "F#5",
          "midi": 78,
          "time": 15.638020833333346,
          "velocity": 0.6299212598425197,
          "duration": 0.109375
        },
        {
          "name": "F#2",
          "midi": 42,
          "time": 15.757812500000012,
          "velocity": 0.6299212598425197,
          "duration": 0.13281250000000355
        },
        {
          "name": "A4",
          "midi": 69,
          "time": 15.757812500000012,
          "velocity": 0.6299212598425197,
          "duration": 0.0833333333333357
        },
        {
          "name": "F#3",
          "midi": 54,
          "time": 15.763020833333346,
          "velocity": 0.6299212598425197,
          "duration": 0.1145833333333357
        },
        {
          "name": "D#5",
          "midi": 75,
          "time": 15.76822916666668,
          "velocity": 0.6299212598425197,
          "duration": 0.08593750000000178
        },
        {
          "name": "G5",
          "midi": 79,
          "time": 15.76822916666668,
          "velocity": 0.6299212598425197,
          "duration": 0.06770833333333393
        },
        {
          "name": "B2",
          "midi": 47,
          "time": 16.000000000000014,
          "velocity": 0.6299212598425197,
          "duration": 0.11197916666666785
        },
        {
          "name": "B3",
          "midi": 59,
          "time": 16.000000000000014,
          "velocity": 0.6299212598425197,
          "duration": 0.1067708333333357
        },
        {
          "name": "A4",
          "midi": 69,
          "time": 16.000000000000014,
          "velocity": 0.6299212598425197,
          "duration": 0.1067708333333357
        },
        {
          "name": "D#5",
          "midi": 75,
          "time": 16.000000000000014,
          "velocity": 0.6299212598425197,
          "duration": 0.1067708333333357
        },
        {
          "name": "G5",
          "midi": 79,
          "time": 16.002604166666682,
          "velocity": 0.6299212598425197,
          "duration": 0.10416666666666785
        },
        {
          "name": "F#5",
          "midi": 78,
          "time": 16.111979166666682,
          "velocity": 0.6299212598425197,
          "duration": 0.0729166666666643
        },
        {
          "name": "C#3",
          "midi": 49,
          "time": 16.208333333333346,
          "velocity": 0.6299212598425197,
          "duration": 0.08333333333333215
        },
        {
          "name": "C#4",
          "midi": 61,
          "time": 16.208333333333346,
          "velocity": 0.6299212598425197,
          "duration": 0.08333333333333215
        },
        {
          "name": "A4",
          "midi": 69,
          "time": 16.208333333333346,
          "velocity": 0.6299212598425197,
          "duration": 0.1119791666666643
        },
        {
          "name": "D#5",
          "midi": 75,
          "time": 16.21354166666668,
          "velocity": 0.6299212598425197,
          "duration": 0.10677083333333215
        },
        {
          "name": "G5",
          "midi": 79,
          "time": 16.21875000000001,
          "velocity": 0.6299212598425197,
          "duration": 0.1015625
        },
        {
          "name": "D3",
          "midi": 50,
          "time": 16.44010416666668,
          "velocity": 0.6299212598425197,
          "duration": 0.08333333333333215
        },
        {
          "name": "D4",
          "midi": 62,
          "time": 16.44531250000001,
          "velocity": 0.6299212598425197,
          "duration": 0.078125
        },
        {
          "name": "A4",
          "midi": 69,
          "time": 16.44531250000001,
          "velocity": 0.6299212598425197,
          "duration": 0.3489583333333357
        },
        {
          "name": "D#5",
          "midi": 75,
          "time": 16.44531250000001,
          "velocity": 0.6299212598425197,
          "duration": 0.3098958333333357
        },
        {
          "name": "G5",
          "midi": 79,
          "time": 16.44531250000001,
          "velocity": 0.6299212598425197,
          "duration": 0.078125
        },
        {
          "name": "B4",
          "midi": 71,
          "time": 16.55468750000001,
          "velocity": 0.6299212598425197,
          "duration": 0.2395833333333357
        },
        {
          "name": "F#5",
          "midi": 78,
          "time": 16.559895833333343,
          "velocity": 0.6299212598425197,
          "duration": 0.23437500000000355
        },
        {
          "name": "B5",
          "midi": 83,
          "time": 16.559895833333343,
          "velocity": 0.6299212598425197,
          "duration": 0.23437500000000355
        },
        {
          "name": "D#3",
          "midi": 51,
          "time": 16.64843750000001,
          "velocity": 0.6299212598425197,
          "duration": 0.1458333333333357
        },
        {
          "name": "D#4",
          "midi": 63,
          "time": 16.66666666666668,
          "velocity": 0.6299212598425197,
          "duration": 0.1145833333333357
        },
        {
          "name": "B3",
          "midi": 59,
          "time": 16.895833333333346,
          "velocity": 0.6299212598425197,
          "duration": 0.09114583333333215
        },
        {
          "name": "B4",
          "midi": 71,
          "time": 16.90104166666668,
          "velocity": 0.6299212598425197,
          "duration": 0.0859375
        },
        {
          "name": "B5",
          "midi": 83,
          "time": 16.90625000000001,
          "velocity": 0.6299212598425197,
          "duration": 0.0859375
        },
        {
          "name": "A#3",
          "midi": 58,
          "time": 17.01562500000001,
          "velocity": 0.6299212598425197,
          "duration": 0.0963541666666643
        },
        {
          "name": "A#5",
          "midi": 82,
          "time": 17.020833333333343,
          "velocity": 0.6299212598425197,
          "duration": 0.09114583333333215
        },
        {
          "name": "A#4",
          "midi": 70,
          "time": 17.026041666666675,
          "velocity": 0.6299212598425197,
          "duration": 0.0859375
        },
        {
          "name": "B3",
          "midi": 59,
          "time": 17.135416666666675,
          "velocity": 0.6299212598425197,
          "duration": 0.08333333333333215
        },
        {
          "name": "B4",
          "midi": 71,
          "time": 17.140625000000007,
          "velocity": 0.6299212598425197,
          "duration": 0.078125
        },
        {
          "name": "B5",
          "midi": 83,
          "time": 17.140625000000007,
          "velocity": 0.6299212598425197,
          "duration": 0.09114583333333215
        },
        {
          "name": "C4",
          "midi": 60,
          "time": 17.250000000000007,
          "velocity": 0.6299212598425197,
          "duration": 0.08854166666666785
        },
        {
          "name": "C5",
          "midi": 72,
          "time": 17.250000000000007,
          "velocity": 0.6299212598425197,
          "duration": 0.1015625
        },
        {
          "name": "C6",
          "midi": 84,
          "time": 17.252604166666675,
          "velocity": 0.6299212598425197,
          "duration": 0.09895833333333215
        },
        {
          "name": "B3",
          "midi": 59,
          "time": 17.375000000000007,
          "velocity": 0.6299212598425197,
          "duration": 0.08333333333333215
        },
        {
          "name": "B4",
          "midi": 71,
          "time": 17.375000000000007,
          "velocity": 0.6299212598425197,
          "duration": 0.08333333333333215
        },
        {
          "name": "B5",
          "midi": 83,
          "time": 17.38020833333334,
          "velocity": 0.6299212598425197,
          "duration": 0.09114583333333215
        },
        {
          "name": "A3",
          "midi": 57,
          "time": 17.49479166666667,
          "velocity": 0.6299212598425197,
          "duration": 0.1015625
        },
        {
          "name": "A4",
          "midi": 69,
          "time": 17.49479166666667,
          "velocity": 0.6299212598425197,
          "duration": 0.1015625
        },
        {
          "name": "A5",
          "midi": 81,
          "time": 17.49479166666667,
          "velocity": 0.6299212598425197,
          "duration": 0.1015625
        },
        {
          "name": "G#3",
          "midi": 56,
          "time": 17.63020833333334,
          "velocity": 0.6299212598425197,
          "duration": 0.0911458333333357
        },
        {
          "name": "G#4",
          "midi": 68,
          "time": 17.63020833333334,
          "velocity": 0.6299212598425197,
          "duration": 0.0911458333333357
        },
        {
          "name": "G#5",
          "midi": 80,
          "time": 17.63020833333334,
          "velocity": 0.6299212598425197,
          "duration": 0.0911458333333357
        },
        {
          "name": "E3",
          "midi": 52,
          "time": 17.890625000000007,
          "velocity": 0.6299212598425197,
          "duration": 0.1119791666666643
        },
        {
          "name": "E4",
          "midi": 64,
          "time": 17.89583333333334,
          "velocity": 0.6299212598425197,
          "duration": 0.10677083333333215
        },
        {
          "name": "E5",
          "midi": 76,
          "time": 17.90104166666667,
          "velocity": 0.6299212598425197,
          "duration": 0.11458333333333215
        },
        {
          "name": "E3",
          "midi": 52,
          "time": 18.11979166666667,
          "velocity": 0.6299212598425197,
          "duration": 0.3411458333333357
        },
        {
          "name": "E4",
          "midi": 64,
          "time": 18.125000000000004,
          "velocity": 0.6299212598425197,
          "duration": 0.33593750000000355
        },
        {
          "name": "E5",
          "midi": 76,
          "time": 18.13541666666667,
          "velocity": 0.6299212598425197,
          "duration": 0.33072916666666785
        },
        {
          "name": "E2",
          "midi": 40,
          "time": 18.57291666666667,
          "velocity": 0.6299212598425197,
          "duration": 0.0859375
        },
        {
          "name": "E3",
          "midi": 52,
          "time": 18.57291666666667,
          "velocity": 0.6299212598425197,
          "duration": 0.0859375
        },
        {
          "name": "E4",
          "midi": 64,
          "time": 18.57291666666667,
          "velocity": 0.6299212598425197,
          "duration": 0.0859375
        },
        {
          "name": "F2",
          "midi": 41,
          "time": 18.70052083333334,
          "velocity": 0.6299212598425197,
          "duration": 0.078125
        },
        {
          "name": "F3",
          "midi": 53,
          "time": 18.70052083333334,
          "velocity": 0.6299212598425197,
          "duration": 0.078125
        },
        {
          "name": "F4",
          "midi": 65,
          "time": 18.70052083333334,
          "velocity": 0.6299212598425197,
          "duration": 0.078125
        },
        {
          "name": "E3",
          "midi": 52,
          "time": 18.804687500000007,
          "velocity": 0.6299212598425197,
          "duration": 0.0807291666666643
        },
        {
          "name": "E2",
          "midi": 40,
          "time": 18.80989583333334,
          "velocity": 0.6299212598425197,
          "duration": 0.0807291666666643
        },
        {
          "name": "E4",
          "midi": 64,
          "time": 18.80989583333334,
          "velocity": 0.6299212598425197,
          "duration": 0.07552083333333215
        },
        {
          "name": "D2",
          "midi": 38,
          "time": 18.91666666666667,
          "velocity": 0.6299212598425197,
          "duration": 0.09374999999999645
        },
        {
          "name": "D3",
          "midi": 50,
          "time": 18.929687500000004,
          "velocity": 0.6299212598425197,
          "duration": 0.07552083333333215
        },
        {
          "name": "D4",
          "midi": 62,
          "time": 18.929687500000004,
          "velocity": 0.6299212598425197,
          "duration": 0.07552083333333215
        },
        {
          "name": "C2",
          "midi": 36,
          "time": 19.0234375,
          "velocity": 0.6299212598425197,
          "duration": 0.0859375
        },
        {
          "name": "C3",
          "midi": 48,
          "time": 19.0234375,
          "velocity": 0.6299212598425197,
          "duration": 0.0859375
        },
        {
          "name": "C4",
          "midi": 60,
          "time": 19.0234375,
          "velocity": 0.6299212598425197,
          "duration": 0.0859375
        },
        {
          "name": "B3",
          "midi": 59,
          "time": 19.252604166666668,
          "velocity": 0.6299212598425197,
          "duration": 0.1822916666666643
        },
        {
          "name": "B1",
          "midi": 35,
          "time": 19.2578125,
          "velocity": 0.6299212598425197,
          "duration": 0.17708333333333215
        },
        {
          "name": "B2",
          "midi": 47,
          "time": 19.2578125,
          "velocity": 0.6299212598425197,
          "duration": 0.17708333333333215
        },
        {
          "name": "A1",
          "midi": 33,
          "time": 19.463541666666664,
          "velocity": 0.6299212598425197,
          "duration": 0.15625
        },
        {
          "name": "A2",
          "midi": 45,
          "time": 19.494791666666664,
          "velocity": 0.6299212598425197,
          "duration": 0.16666666666666785
        },
        {
          "name": "C5",
          "midi": 72,
          "time": 19.505208333333332,
          "velocity": 0.6299212598425197,
          "duration": 0.09114583333333215
        },
        {
          "name": "D5",
          "midi": 74,
          "time": 19.601562499999996,
          "velocity": 0.6299212598425197,
          "duration": 0.08593750000000355
        },
        {
          "name": "C5",
          "midi": 72,
          "time": 19.703125,
          "velocity": 0.6299212598425197,
          "duration": 0.08333333333333215
        },
        {
          "name": "A4",
          "midi": 69,
          "time": 19.75,
          "velocity": 0.6299212598425197,
          "duration": 0.1328125
        },
        {
          "name": "E3",
          "midi": 52,
          "time": 19.755208333333332,
          "velocity": 0.6299212598425197,
          "duration": 0.15885416666666785
        },
        {
          "name": "C4",
          "midi": 60,
          "time": 19.755208333333332,
          "velocity": 0.6299212598425197,
          "duration": 0.0859375
        },
        {
          "name": "A#4",
          "midi": 70,
          "time": 19.953125,
          "velocity": 0.6299212598425197,
          "duration": 0.08333333333333215
        },
        {
          "name": "B4",
          "midi": 71,
          "time": 20,
          "velocity": 0.6299212598425197,
          "duration": 0.0963541666666643
        },
        {
          "name": "E2",
          "midi": 40,
          "time": 20.005208333333332,
          "velocity": 0.6299212598425197,
          "duration": 0.29687499999999645
        },
        {
          "name": "B2",
          "midi": 47,
          "time": 20.096354166666664,
          "velocity": 0.6299212598425197,
          "duration": 0.2057291666666643
        },
        {
          "name": "G#3",
          "midi": 56,
          "time": 20.124999999999996,
          "velocity": 0.6299212598425197,
          "duration": 0.17708333333333215
        },
        {
          "name": "D4",
          "midi": 62,
          "time": 20.124999999999996,
          "velocity": 0.6299212598425197,
          "duration": 0.17708333333333215
        },
        {
          "name": "G#4",
          "midi": 68,
          "time": 20.124999999999996,
          "velocity": 0.6299212598425197,
          "duration": 0.17708333333333215
        },
        {
          "name": "E5",
          "midi": 76,
          "time": 20.124999999999996,
          "velocity": 0.6299212598425197,
          "duration": 0.17708333333333215
        },
        {
          "name": "D5",
          "midi": 74,
          "time": 20.36979166666666,
          "velocity": 0.6299212598425197,
          "duration": 0.08333333333333215
        },
        {
          "name": "A2",
          "midi": 45,
          "time": 20.484374999999993,
          "velocity": 0.6299212598425197,
          "duration": 0.1640625
        },
        {
          "name": "C5",
          "midi": 72,
          "time": 20.484374999999993,
          "velocity": 0.6299212598425197,
          "duration": 0.08072916666666785
        },
        {
          "name": "D5",
          "midi": 74,
          "time": 20.562499999999993,
          "velocity": 0.6299212598425197,
          "duration": 0.08072916666666785
        },
        {
          "name": "C5",
          "midi": 72,
          "time": 20.653645833333325,
          "velocity": 0.6299212598425197,
          "duration": 0.078125
        },
        {
          "name": "E3",
          "midi": 52,
          "time": 20.695312499999993,
          "velocity": 0.6299212598425197,
          "duration": 0.16406249999999645
        },
        {
          "name": "A4",
          "midi": 69,
          "time": 20.700520833333325,
          "velocity": 0.6299212598425197,
          "duration": 0.1588541666666643
        },
        {
          "name": "C4",
          "midi": 60,
          "time": 20.705729166666657,
          "velocity": 0.6299212598425197,
          "duration": 0.09375
        },
        {
          "name": "A#4",
          "midi": 70,
          "time": 20.88281249999999,
          "velocity": 0.6299212598425197,
          "duration": 0.09114583333333215
        },
        {
          "name": "B4",
          "midi": 71,
          "time": 20.95052083333332,
          "velocity": 0.6299212598425197,
          "duration": 0.1171875
        },
        {
          "name": "E2",
          "midi": 40,
          "time": 20.955729166666654,
          "velocity": 0.6299212598425197,
          "duration": 0.14322916666666785
        },
        {
          "name": "B2",
          "midi": 47,
          "time": 21.06249999999999,
          "velocity": 0.6299212598425197,
          "duration": 0.1640625
        },
        {
          "name": "D4",
          "midi": 62,
          "time": 21.06249999999999,
          "velocity": 0.6299212598425197,
          "duration": 0.17708333333333215
        },
        {
          "name": "G#4",
          "midi": 68,
          "time": 21.06249999999999,
          "velocity": 0.6299212598425197,
          "duration": 0.1640625
        },
        {
          "name": "E5",
          "midi": 76,
          "time": 21.06249999999999,
          "velocity": 0.6299212598425197,
          "duration": 0.17708333333333215
        },
        {
          "name": "G#3",
          "midi": 56,
          "time": 21.09374999999999,
          "velocity": 0.6299212598425197,
          "duration": 0.14583333333333215
        },
        {
          "name": "D5",
          "midi": 74,
          "time": 21.299479166666654,
          "velocity": 0.6299212598425197,
          "duration": 0.08333333333333215
        },
        {
          "name": "A2",
          "midi": 45,
          "time": 21.414062499999986,
          "velocity": 0.6299212598425197,
          "duration": 0.1796875
        },
        {
          "name": "C5",
          "midi": 72,
          "time": 21.414062499999986,
          "velocity": 0.6299212598425197,
          "duration": 0.08854166666666785
        },
        {
          "name": "D5",
          "midi": 74,
          "time": 21.507812499999986,
          "velocity": 0.6299212598425197,
          "duration": 0.0859375
        },
        {
          "name": "C5",
          "midi": 72,
          "time": 21.598958333333318,
          "velocity": 0.6299212598425197,
          "duration": 0.0885416666666643
        },
        {
          "name": "E3",
          "midi": 52,
          "time": 21.653645833333318,
          "velocity": 0.6299212598425197,
          "duration": 0.15625
        },
        {
          "name": "C4",
          "midi": 60,
          "time": 21.653645833333318,
          "velocity": 0.6299212598425197,
          "duration": 0.09114583333333215
        },
        {
          "name": "A4",
          "midi": 69,
          "time": 21.65885416666665,
          "velocity": 0.6299212598425197,
          "duration": 0.11979166666666785
        },
        {
          "name": "A#4",
          "midi": 70,
          "time": 21.864583333333318,
          "velocity": 0.6299212598425197,
          "duration": 0.08333333333333215
        },
        {
          "name": "B4",
          "midi": 71,
          "time": 21.919270833333318,
          "velocity": 0.6299212598425197,
          "duration": 0.1328125
        },
        {
          "name": "E2",
          "midi": 40,
          "time": 21.92447916666665,
          "velocity": 0.6299212598425197,
          "duration": 0.1484375
        },
        {
          "name": "B2",
          "midi": 47,
          "time": 22.052083333333318,
          "velocity": 0.6299212598425197,
          "duration": 0.171875
        },
        {
          "name": "G#4",
          "midi": 68,
          "time": 22.052083333333318,
          "velocity": 0.6299212598425197,
          "duration": 0.171875
        },
        {
          "name": "G#3",
          "midi": 56,
          "time": 22.05729166666665,
          "velocity": 0.6299212598425197,
          "duration": 0.16666666666666785
        },
        {
          "name": "D4",
          "midi": 62,
          "time": 22.05729166666665,
          "velocity": 0.6299212598425197,
          "duration": 0.16666666666666785
        },
        {
          "name": "E5",
          "midi": 76,
          "time": 22.05729166666665,
          "velocity": 0.6299212598425197,
          "duration": 0.16666666666666785
        },
        {
          "name": "C5",
          "midi": 72,
          "time": 22.289062499999986,
          "velocity": 0.6299212598425197,
          "duration": 0.0859375
        },
        {
          "name": "A2",
          "midi": 45,
          "time": 22.377604166666654,
          "velocity": 0.6299212598425197,
          "duration": 0.17708333333333215
        },
        {
          "name": "A4",
          "midi": 69,
          "time": 22.408854166666654,
          "velocity": 0.6299212598425197,
          "duration": 0.14583333333333215
        },
        {
          "name": "E3",
          "midi": 52,
          "time": 22.638020833333318,
          "velocity": 0.6299212598425197,
          "duration": 0.10677083333333215
        },
        {
          "name": "C#4",
          "midi": 61,
          "time": 22.64322916666665,
          "velocity": 0.6299212598425197,
          "duration": 0.11197916666666785
        },
        {
          "name": "G4",
          "midi": 67,
          "time": 22.64322916666665,
          "velocity": 0.6299212598425197,
          "duration": 0.08333333333333215
        },
        {
          "name": "A4",
          "midi": 69,
          "time": 22.648437499999982,
          "velocity": 0.6299212598425197,
          "duration": 0.1067708333333357
        },
        {
          "name": "C#5",
          "midi": 73,
          "time": 22.648437499999982,
          "velocity": 0.6299212598425197,
          "duration": 0.1067708333333357
        },
        {
          "name": "A#5",
          "midi": 82,
          "time": 22.648437499999982,
          "velocity": 0.6299212598425197,
          "duration": 0.1067708333333357
        },
        {
          "name": "A2",
          "midi": 45,
          "time": 22.84635416666665,
          "velocity": 0.6299212598425197,
          "duration": 0.1119791666666643
        },
        {
          "name": "E3",
          "midi": 52,
          "time": 22.864583333333318,
          "velocity": 0.6299212598425197,
          "duration": 0.09374999999999645
        },
        {
          "name": "C#4",
          "midi": 61,
          "time": 22.864583333333318,
          "velocity": 0.6299212598425197,
          "duration": 0.12499999999999645
        },
        {
          "name": "A4",
          "midi": 69,
          "time": 22.864583333333318,
          "velocity": 0.6299212598425197,
          "duration": 0.12499999999999645
        },
        {
          "name": "G4",
          "midi": 67,
          "time": 22.86979166666665,
          "velocity": 0.6299212598425197,
          "duration": 0.10677083333333215
        },
        {
          "name": "C#5",
          "midi": 73,
          "time": 22.874999999999982,
          "velocity": 0.6299212598425197,
          "duration": 0.1015625
        },
        {
          "name": "A#5",
          "midi": 82,
          "time": 22.874999999999982,
          "velocity": 0.6299212598425197,
          "duration": 0.11458333333333215
        },
        {
          "name": "G4",
          "midi": 67,
          "time": 23.098958333333314,
          "velocity": 0.6299212598425197,
          "duration": 0.11458333333333215
        },
        {
          "name": "A4",
          "midi": 69,
          "time": 23.098958333333314,
          "velocity": 0.6299212598425197,
          "duration": 0.11458333333333215
        },
        {
          "name": "C#5",
          "midi": 73,
          "time": 23.111979166666647,
          "velocity": 0.6299212598425197,
          "duration": 0.1015625
        },
        {
          "name": "A5",
          "midi": 81,
          "time": 23.111979166666647,
          "velocity": 0.6299212598425197,
          "duration": 0.11458333333333215
        },
        {
          "name": "D2",
          "midi": 38,
          "time": 23.32812499999998,
          "velocity": 0.6299212598425197,
          "duration": 0.17187499999999645
        },
        {
          "name": "A2",
          "midi": 45,
          "time": 23.33333333333331,
          "velocity": 0.6299212598425197,
          "duration": 0.1666666666666643
        },
        {
          "name": "F5",
          "midi": 77,
          "time": 23.33333333333331,
          "velocity": 0.6299212598425197,
          "duration": 0.09114583333333215
        },
        {
          "name": "G5",
          "midi": 79,
          "time": 23.429687499999975,
          "velocity": 0.6299212598425197,
          "duration": 0.0703125
        },
        {
          "name": "F5",
          "midi": 77,
          "time": 23.513020833333307,
          "velocity": 0.6299212598425197,
          "duration": 0.078125
        },
        {
          "name": "D4",
          "midi": 62,
          "time": 23.567708333333307,
          "velocity": 0.6299212598425197,
          "duration": 0.08854166666666785
        },
        {
          "name": "F4",
          "midi": 65,
          "time": 23.567708333333307,
          "velocity": 0.6299212598425197,
          "duration": 0.08854166666666785
        },
        {
          "name": "A3",
          "midi": 57,
          "time": 23.57291666666664,
          "velocity": 0.6299212598425197,
          "duration": 0.0833333333333357
        },
        {
          "name": "D5",
          "midi": 74,
          "time": 23.57291666666664,
          "velocity": 0.6299212598425197,
          "duration": 0.1145833333333357
        },
        {
          "name": "D#5",
          "midi": 75,
          "time": 23.757812499999975,
          "velocity": 0.6299212598425197,
          "duration": 0.08333333333333215
        },
        {
          "name": "A1",
          "midi": 33,
          "time": 23.807291666666643,
          "velocity": 0.6299212598425197,
          "duration": 0.09374999999999645
        },
        {
          "name": "E5",
          "midi": 76,
          "time": 23.812499999999975,
          "velocity": 0.6299212598425197,
          "duration": 0.1197916666666643
        },
        {
          "name": "G4",
          "midi": 67,
          "time": 23.942708333333307,
          "velocity": 0.6299212598425197,
          "duration": 0.1770833333333357
        },
        {
          "name": "C#5",
          "midi": 73,
          "time": 23.942708333333307,
          "velocity": 0.6299212598425197,
          "duration": 0.1770833333333357
        },
        {
          "name": "A5",
          "midi": 81,
          "time": 23.942708333333307,
          "velocity": 0.6299212598425197,
          "duration": 0.1770833333333357
        },
        {
          "name": "C#4",
          "midi": 61,
          "time": 24.059895833333307,
          "velocity": 0.6299212598425197,
          "duration": 0.09375
        },
        {
          "name": "A3",
          "midi": 57,
          "time": 24.062499999999975,
          "velocity": 0.6299212598425197,
          "duration": 0.0859375
        },
        {
          "name": "E4",
          "midi": 64,
          "time": 24.062499999999975,
          "velocity": 0.6299212598425197,
          "duration": 0.09114583333333215
        },
        {
          "name": "G5",
          "midi": 79,
          "time": 24.187499999999975,
          "velocity": 0.6299212598425197,
          "duration": 0.078125
        },
        {
          "name": "D2",
          "midi": 38,
          "time": 24.302083333333307,
          "velocity": 0.6299212598425197,
          "duration": 0.08333333333333215
        },
        {
          "name": "F5",
          "midi": 77,
          "time": 24.302083333333307,
          "velocity": 0.6299212598425197,
          "duration": 0.08333333333333215
        },
        {
          "name": "G5",
          "midi": 79,
          "time": 24.39062499999997,
          "velocity": 0.6299212598425197,
          "duration": 0.078125
        },
        {
          "name": "F5",
          "midi": 77,
          "time": 24.473958333333304,
          "velocity": 0.6299212598425197,
          "duration": 0.09375
        },
        {
          "name": "A3",
          "midi": 57,
          "time": 24.533854166666636,
          "velocity": 0.6299212598425197,
          "duration": 0.09375000000000355
        },
        {
          "name": "D4",
          "midi": 62,
          "time": 24.533854166666636,
          "velocity": 0.6299212598425197,
          "duration": 0.0833333333333357
        },
        {
          "name": "F4",
          "midi": 65,
          "time": 24.533854166666636,
          "velocity": 0.6299212598425197,
          "duration": 0.09375000000000355
        },
        {
          "name": "D5",
          "midi": 74,
          "time": 24.533854166666636,
          "velocity": 0.6299212598425197,
          "duration": 0.1119791666666714
        },
        {
          "name": "D#5",
          "midi": 75,
          "time": 24.70572916666664,
          "velocity": 0.6299212598425197,
          "duration": 0.0859375
        },
        {
          "name": "A1",
          "midi": 33,
          "time": 24.75260416666664,
          "velocity": 0.6299212598425197,
          "duration": 0.1588541666666643
        },
        {
          "name": "E5",
          "midi": 76,
          "time": 24.76562499999997,
          "velocity": 0.6299212598425197,
          "duration": 0.11458333333333215
        },
        {
          "name": "G4",
          "midi": 67,
          "time": 24.87499999999997,
          "velocity": 0.6299212598425197,
          "duration": 0.16927083333333215
        },
        {
          "name": "C#5",
          "midi": 73,
          "time": 24.87499999999997,
          "velocity": 0.6299212598425197,
          "duration": 0.16927083333333215
        },
        {
          "name": "A5",
          "midi": 81,
          "time": 24.885416666666636,
          "velocity": 0.6299212598425197,
          "duration": 0.15885416666666785
        },
        {
          "name": "A3",
          "midi": 57,
          "time": 24.997395833333304,
          "velocity": 0.6299212598425197,
          "duration": 0.07552083333333215
        },
        {
          "name": "C#4",
          "midi": 61,
          "time": 24.997395833333304,
          "velocity": 0.6299212598425197,
          "duration": 0.07552083333333215
        },
        {
          "name": "E4",
          "midi": 64,
          "time": 24.997395833333304,
          "velocity": 0.6299212598425197,
          "duration": 0.07552083333333215
        },
        {
          "name": "G5",
          "midi": 79,
          "time": 25.109374999999968,
          "velocity": 0.6299212598425197,
          "duration": 0.078125
        },
        {
          "name": "D2",
          "midi": 38,
          "time": 25.210937499999968,
          "velocity": 0.6299212598425197,
          "duration": 0.171875
        },
        {
          "name": "F5",
          "midi": 77,
          "time": 25.210937499999968,
          "velocity": 0.6299212598425197,
          "duration": 0.09114583333333215
        },
        {
          "name": "G5",
          "midi": 79,
          "time": 25.3020833333333,
          "velocity": 0.6299212598425197,
          "duration": 0.07291666666666785
        },
        {
          "name": "F5",
          "midi": 77,
          "time": 25.377604166666636,
          "velocity": 0.6299212598425197,
          "duration": 0.0833333333333286
        },
        {
          "name": "A3",
          "midi": 57,
          "time": 25.4270833333333,
          "velocity": 0.6299212598425197,
          "duration": 0.08593749999999645
        },
        {
          "name": "D4",
          "midi": 62,
          "time": 25.4270833333333,
          "velocity": 0.6299212598425197,
          "duration": 0.0807291666666643
        },
        {
          "name": "D5",
          "midi": 74,
          "time": 25.4270833333333,
          "velocity": 0.6299212598425197,
          "duration": 0.1119791666666643
        },
        {
          "name": "F4",
          "midi": 65,
          "time": 25.432291666666632,
          "velocity": 0.6299212598425197,
          "duration": 0.07552083333333215
        },
        {
          "name": "D#5",
          "midi": 75,
          "time": 25.611979166666632,
          "velocity": 0.6299212598425197,
          "duration": 0.08333333333333215
        },
        {
          "name": "A2",
          "midi": 45,
          "time": 25.658854166666632,
          "velocity": 0.6299212598425197,
          "duration": 0.17968749999999645
        },
        {
          "name": "E5",
          "midi": 76,
          "time": 25.671874999999964,
          "velocity": 0.6299212598425197,
          "duration": 0.11458333333333215
        },
        {
          "name": "G4",
          "midi": 67,
          "time": 25.781249999999964,
          "velocity": 0.6299212598425197,
          "duration": 0.17187499999999645
        },
        {
          "name": "A4",
          "midi": 69,
          "time": 25.781249999999964,
          "velocity": 0.6299212598425197,
          "duration": 0.17187499999999645
        },
        {
          "name": "C#5",
          "midi": 73,
          "time": 25.786458333333297,
          "velocity": 0.6299212598425197,
          "duration": 0.16145833333333215
        },
        {
          "name": "A5",
          "midi": 81,
          "time": 25.79166666666663,
          "velocity": 0.6299212598425197,
          "duration": 0.15625
        },
        {
          "name": "E4",
          "midi": 64,
          "time": 25.89322916666663,
          "velocity": 0.6299212598425197,
          "duration": 0.0963541666666643
        },
        {
          "name": "A3",
          "midi": 57,
          "time": 25.90624999999996,
          "velocity": 0.6299212598425197,
          "duration": 0.08333333333333215
        },
        {
          "name": "C#4",
          "midi": 61,
          "time": 25.90624999999996,
          "velocity": 0.6299212598425197,
          "duration": 0.078125
        },
        {
          "name": "F5",
          "midi": 77,
          "time": 26.03124999999996,
          "velocity": 0.6299212598425197,
          "duration": 0.19270833333333215
        },
        {
          "name": "A4",
          "midi": 69,
          "time": 26.13281249999996,
          "velocity": 0.6299212598425197,
          "duration": 0.3723958333333286
        },
        {
          "name": "D2",
          "midi": 38,
          "time": 26.138020833333293,
          "velocity": 0.6299212598425197,
          "duration": 0.14583333333333215
        },
        {
          "name": "D3",
          "midi": 50,
          "time": 26.138020833333293,
          "velocity": 0.6299212598425197,
          "duration": 0.14583333333333215
        },
        {
          "name": "D5",
          "midi": 74,
          "time": 26.138020833333293,
          "velocity": 0.6299212598425197,
          "duration": 0.36718749999999645
        },
        {
          "name": "A#2",
          "midi": 46,
          "time": 26.385416666666625,
          "velocity": 0.6299212598425197,
          "duration": 0.09114583333333215
        },
        {
          "name": "A#3",
          "midi": 58,
          "time": 26.416666666666625,
          "velocity": 0.6299212598425197,
          "duration": 0.0885416666666643
        },
        {
          "name": "A2",
          "midi": 45,
          "time": 26.609374999999957,
          "velocity": 0.6299212598425197,
          "duration": 0.1328125
        },
        {
          "name": "A4",
          "midi": 69,
          "time": 26.63802083333329,
          "velocity": 0.6299212598425197,
          "duration": 0.10416666666666785
        },
        {
          "name": "D5",
          "midi": 74,
          "time": 26.63802083333329,
          "velocity": 0.6299212598425197,
          "duration": 0.10416666666666785
        },
        {
          "name": "F5",
          "midi": 77,
          "time": 26.63802083333329,
          "velocity": 0.6299212598425197,
          "duration": 0.10416666666666785
        },
        {
          "name": "A3",
          "midi": 57,
          "time": 26.66927083333329,
          "velocity": 0.6299212598425197,
          "duration": 0.07291666666666785
        },
        {
          "name": "C#5",
          "midi": 73,
          "time": 26.807291666666625,
          "velocity": 0.6299212598425197,
          "duration": 0.078125
        },
        {
          "name": "G#2",
          "midi": 44,
          "time": 26.830729166666625,
          "velocity": 0.6299212598425197,
          "duration": 0.1197916666666643
        },
        {
          "name": "D5",
          "midi": 74,
          "time": 26.856770833333293,
          "velocity": 0.6299212598425197,
          "duration": 0.0885416666666643
        },
        {
          "name": "G#3",
          "midi": 56,
          "time": 26.885416666666625,
          "velocity": 0.6299212598425197,
          "duration": 0.0963541666666643
        },
        {
          "name": "E5",
          "midi": 76,
          "time": 27.046874999999957,
          "velocity": 0.6299212598425197,
          "duration": 0.0885416666666643
        },
        {
          "name": "G#2",
          "midi": 44,
          "time": 27.070312499999957,
          "velocity": 0.6299212598425197,
          "duration": 0.11458333333333215
        },
        {
          "name": "B4",
          "midi": 71,
          "time": 27.10677083333329,
          "velocity": 0.6299212598425197,
          "duration": 0.10677083333333215
        },
        {
          "name": "D5",
          "midi": 74,
          "time": 27.10677083333329,
          "velocity": 0.6299212598425197,
          "duration": 0.10677083333333215
        },
        {
          "name": "F5",
          "midi": 77,
          "time": 27.10677083333329,
          "velocity": 0.6299212598425197,
          "duration": 0.10677083333333215
        },
        {
          "name": "G#3",
          "midi": 56,
          "time": 27.13020833333329,
          "velocity": 0.6299212598425197,
          "duration": 0.0885416666666643
        },
        {
          "name": "E2",
          "midi": 40,
          "time": 27.309895833333286,
          "velocity": 0.6299212598425197,
          "duration": 0.1119791666666643
        },
        {
          "name": "B4",
          "midi": 71,
          "time": 27.338541666666618,
          "velocity": 0.6299212598425197,
          "duration": 0.1119791666666643
        },
        {
          "name": "D5",
          "midi": 74,
          "time": 27.338541666666618,
          "velocity": 0.6299212598425197,
          "duration": 0.1119791666666643
        },
        {
          "name": "F5",
          "midi": 77,
          "time": 27.338541666666618,
          "velocity": 0.6299212598425197,
          "duration": 0.1119791666666643
        },
        {
          "name": "E3",
          "midi": 52,
          "time": 27.356770833333282,
          "velocity": 0.6299212598425197,
          "duration": 0.09375
        },
        {
          "name": "E2",
          "midi": 40,
          "time": 27.546874999999947,
          "velocity": 0.6299212598425197,
          "duration": 0.10677083333333215
        },
        {
          "name": "B4",
          "midi": 71,
          "time": 27.570312499999947,
          "velocity": 0.6299212598425197,
          "duration": 0.11718749999999645
        },
        {
          "name": "F5",
          "midi": 77,
          "time": 27.570312499999947,
          "velocity": 0.6299212598425197,
          "duration": 0.11718749999999645
        },
        {
          "name": "D5",
          "midi": 74,
          "time": 27.57552083333328,
          "velocity": 0.6299212598425197,
          "duration": 0.09635416666666785
        },
        {
          "name": "A2",
          "midi": 45,
          "time": 27.593749999999947,
          "velocity": 0.6299212598425197,
          "duration": 0.08333333333333215
        },
        {
          "name": "F#3",
          "midi": 54,
          "time": 27.593749999999947,
          "velocity": 0.6299212598425197,
          "duration": 0.08333333333333215
        },
        {
          "name": "E5",
          "midi": 76,
          "time": 27.68229166666661,
          "velocity": 0.6299212598425197,
          "duration": 0.11458333333333215
        },
        {
          "name": "E2",
          "midi": 40,
          "time": 27.770833333333275,
          "velocity": 0.6299212598425197,
          "duration": 0.11979166666666785
        },
        {
          "name": "B2",
          "midi": 47,
          "time": 27.796874999999943,
          "velocity": 0.6299212598425197,
          "duration": 0.09375
        },
        {
          "name": "G3",
          "midi": 55,
          "time": 27.796874999999943,
          "velocity": 0.6299212598425197,
          "duration": 0.09375
        },
        {
          "name": "D5",
          "midi": 74,
          "time": 27.921874999999943,
          "velocity": 0.6299212598425197,
          "duration": 0.48958333333333215
        },
        {
          "name": "B5",
          "midi": 83,
          "time": 27.921874999999943,
          "velocity": 0.6299212598425197,
          "duration": 0.4635416666666643
        },
        {
          "name": "G#4",
          "midi": 68,
          "time": 27.927083333333275,
          "velocity": 0.6299212598425197,
          "duration": 0.4479166666666643
        },
        {
          "name": "E2",
          "midi": 40,
          "time": 28.015624999999943,
          "velocity": 0.6299212598425197,
          "duration": 0.32812499999999645
        },
        {
          "name": "G#3",
          "midi": 56,
          "time": 28.046874999999943,
          "velocity": 0.6299212598425197,
          "duration": 0.1119791666666643
        },
        {
          "name": "B2",
          "midi": 47,
          "time": 28.052083333333275,
          "velocity": 0.6299212598425197,
          "duration": 0.2447916666666643
        },
        {
          "name": "B3",
          "midi": 59,
          "time": 28.291666666666607,
          "velocity": 0.6299212598425197,
          "duration": 0.08333333333333215
        },
        {
          "name": "E3",
          "midi": 52,
          "time": 28.29687499999994,
          "velocity": 0.6299212598425197,
          "duration": 0.078125
        },
        {
          "name": "E4",
          "midi": 64,
          "time": 28.29687499999994,
          "velocity": 0.6299212598425197,
          "duration": 0.06510416666666785
        },
        {
          "name": "G#3",
          "midi": 56,
          "time": 28.30208333333327,
          "velocity": 0.6299212598425197,
          "duration": 0.07291666666666785
        },
        {
          "name": "D#3",
          "midi": 51,
          "time": 28.539062499999943,
          "velocity": 0.6299212598425197,
          "duration": 0.0859375
        },
        {
          "name": "F#3",
          "midi": 54,
          "time": 28.539062499999943,
          "velocity": 0.6299212598425197,
          "duration": 0.0859375
        },
        {
          "name": "A#3",
          "midi": 58,
          "time": 28.539062499999943,
          "velocity": 0.6299212598425197,
          "duration": 0.0859375
        },
        {
          "name": "D#4",
          "midi": 63,
          "time": 28.539062499999943,
          "velocity": 0.6299212598425197,
          "duration": 0.0859375
        },
        {
          "name": "G5",
          "midi": 79,
          "time": 28.65885416666661,
          "velocity": 0.6299212598425197,
          "duration": 0.078125
        },
        {
          "name": "A3",
          "midi": 57,
          "time": 28.77083333333328,
          "velocity": 0.6299212598425197,
          "duration": 0.0885416666666643
        },
        {
          "name": "D4",
          "midi": 62,
          "time": 28.77083333333328,
          "velocity": 0.6299212598425197,
          "duration": 0.08333333333333215
        },
        {
          "name": "D3",
          "midi": 50,
          "time": 28.77604166666661,
          "velocity": 0.6299212598425197,
          "duration": 0.08333333333333215
        },
        {
          "name": "G#5",
          "midi": 80,
          "time": 28.781249999999943,
          "velocity": 0.6299212598425197,
          "duration": 0.09114583333333215
        },
        {
          "name": "A5",
          "midi": 81,
          "time": 28.895833333333275,
          "velocity": 0.6299212598425197,
          "duration": 0.0859375
        },
        {
          "name": "C#3",
          "midi": 49,
          "time": 28.981770833333275,
          "velocity": 0.6299212598425197,
          "duration": 0.3307291666666714
        },
        {
          "name": "C#4",
          "midi": 61,
          "time": 28.999999999999943,
          "velocity": 0.6299212598425197,
          "duration": 0.1067708333333357
        },
        {
          "name": "A#5",
          "midi": 82,
          "time": 29.00260416666661,
          "velocity": 0.6299212598425197,
          "duration": 0.1328125
        },
        {
          "name": "E4",
          "midi": 64,
          "time": 29.24479166666661,
          "velocity": 0.6299212598425197,
          "duration": 0.0833333333333357
        },
        {
          "name": "A3",
          "midi": 57,
          "time": 29.25520833333328,
          "velocity": 0.6299212598425197,
          "duration": 0.11979166666666785
        },
        {
          "name": "C#4",
          "midi": 61,
          "time": 29.25520833333328,
          "velocity": 0.6299212598425197,
          "duration": 0.07291666666666785
        },
        {
          "name": "G4",
          "midi": 67,
          "time": 29.25520833333328,
          "velocity": 0.6299212598425197,
          "duration": 0.07291666666666785
        },
        {
          "name": "C#5",
          "midi": 73,
          "time": 29.25520833333328,
          "velocity": 0.6299212598425197,
          "duration": 0.109375
        },
        {
          "name": "G5",
          "midi": 79,
          "time": 29.25520833333328,
          "velocity": 0.6299212598425197,
          "duration": 0.109375
        },
        {
          "name": "A#5",
          "midi": 82,
          "time": 29.25520833333328,
          "velocity": 0.6299212598425197,
          "duration": 0.11979166666666785
        },
        {
          "name": "E3",
          "midi": 52,
          "time": 29.479166666666615,
          "velocity": 0.6299212598425197,
          "duration": 0.14583333333333215
        },
        {
          "name": "E2",
          "midi": 40,
          "time": 29.484374999999947,
          "velocity": 0.6299212598425197,
          "duration": 0.140625
        },
        {
          "name": "C#5",
          "midi": 73,
          "time": 29.48958333333328,
          "velocity": 0.6299212598425197,
          "duration": 0.1015625
        },
        {
          "name": "G5",
          "midi": 79,
          "time": 29.48958333333328,
          "velocity": 0.6299212598425197,
          "duration": 0.1015625
        },
        {
          "name": "A#5",
          "midi": 82,
          "time": 29.48958333333328,
          "velocity": 0.6299212598425197,
          "duration": 0.1015625
        },
        {
          "name": "A3",
          "midi": 57,
          "time": 29.71614583333328,
          "velocity": 0.6299212598425197,
          "duration": 0.078125
        },
        {
          "name": "C#4",
          "midi": 61,
          "time": 29.71614583333328,
          "velocity": 0.6299212598425197,
          "duration": 0.078125
        },
        {
          "name": "E4",
          "midi": 64,
          "time": 29.71614583333328,
          "velocity": 0.6299212598425197,
          "duration": 0.078125
        },
        {
          "name": "G4",
          "midi": 67,
          "time": 29.71614583333328,
          "velocity": 0.6299212598425197,
          "duration": 0.078125
        },
        {
          "name": "A5",
          "midi": 81,
          "time": 29.71614583333328,
          "velocity": 0.6299212598425197,
          "duration": 0.11197916666666785
        },
        {
          "name": "C#2",
          "midi": 37,
          "time": 29.937499999999947,
          "velocity": 0.6299212598425197,
          "duration": 0.21875
        },
        {
          "name": "C#3",
          "midi": 49,
          "time": 29.947916666666615,
          "velocity": 0.6299212598425197,
          "duration": 0.2135416666666643
        },
        {
          "name": "C#6",
          "midi": 85,
          "time": 29.947916666666615,
          "velocity": 0.6299212598425197,
          "duration": 0.37239583333333215
        },
        {
          "name": "E5",
          "midi": 76,
          "time": 29.953124999999947,
          "velocity": 0.6299212598425197,
          "duration": 0.3671875
        },
        {
          "name": "G5",
          "midi": 79,
          "time": 29.95833333333328,
          "velocity": 0.6299212598425197,
          "duration": 0.31510416666666785
        },
        {
          "name": "E6",
          "midi": 88,
          "time": 29.95833333333328,
          "velocity": 0.6299212598425197,
          "duration": 0.36197916666666785
        },
        {
          "name": "C#4",
          "midi": 61,
          "time": 30.195312499999947,
          "velocity": 0.6299212598425197,
          "duration": 0.109375
        },
        {
          "name": "G4",
          "midi": 67,
          "time": 30.195312499999947,
          "velocity": 0.6299212598425197,
          "duration": 0.109375
        },
        {
          "name": "A3",
          "midi": 57,
          "time": 30.20052083333328,
          "velocity": 0.6299212598425197,
          "duration": 0.109375
        },
        {
          "name": "G5",
          "midi": 79,
          "time": 30.424479166666615,
          "velocity": 0.6299212598425197,
          "duration": 0.37239583333333925
        },
        {
          "name": "A1",
          "midi": 33,
          "time": 30.437499999999947,
          "velocity": 0.6299212598425197,
          "duration": 0.1901041666666714
        },
        {
          "name": "A2",
          "midi": 45,
          "time": 30.447916666666615,
          "velocity": 0.6299212598425197,
          "duration": 0.11979166666666785
        },
        {
          "name": "E5",
          "midi": 76,
          "time": 30.447916666666615,
          "velocity": 0.6299212598425197,
          "duration": 0.34895833333333925
        },
        {
          "name": "C#6",
          "midi": 85,
          "time": 30.447916666666615,
          "velocity": 0.6299212598425197,
          "duration": 0.34895833333333925
        },
        {
          "name": "E6",
          "midi": 88,
          "time": 30.447916666666615,
          "velocity": 0.6299212598425197,
          "duration": 0.34895833333333925
        },
        {
          "name": "G4",
          "midi": 67,
          "time": 30.684895833333286,
          "velocity": 0.6299212598425197,
          "duration": 0.11197916666666785
        },
        {
          "name": "G3",
          "midi": 55,
          "time": 30.687499999999954,
          "velocity": 0.6299212598425197,
          "duration": 0.109375
        },
        {
          "name": "A3",
          "midi": 57,
          "time": 30.687499999999954,
          "velocity": 0.6299212598425197,
          "duration": 0.109375
        },
        {
          "name": "C#4",
          "midi": 61,
          "time": 30.687499999999954,
          "velocity": 0.6299212598425197,
          "duration": 0.109375
        },
        {
          "name": "D3",
          "midi": 50,
          "time": 30.903645833333286,
          "velocity": 0.6299212598425197,
          "duration": 0.09114583333333215
        },
        {
          "name": "A5",
          "midi": 81,
          "time": 30.903645833333286,
          "velocity": 0.6299212598425197,
          "duration": 0.0651041666666643
        },
        {
          "name": "D2",
          "midi": 38,
          "time": 30.908854166666618,
          "velocity": 0.6299212598425197,
          "duration": 0.0859375
        },
        {
          "name": "F5",
          "midi": 77,
          "time": 30.908854166666618,
          "velocity": 0.6299212598425197,
          "duration": 0.09114583333333215
        },
        {
          "name": "D6",
          "midi": 86,
          "time": 30.91406249999995,
          "velocity": 0.6299212598425197,
          "duration": 0.08854166666666785
        },
        {
          "name": "F6",
          "midi": 89,
          "time": 30.91406249999995,
          "velocity": 0.6299212598425197,
          "duration": 0.0859375
        },
        {
          "name": "E5",
          "midi": 76,
          "time": 31.028645833333286,
          "velocity": 0.6299212598425197,
          "duration": 0.078125
        },
        {
          "name": "A5",
          "midi": 81,
          "time": 31.028645833333286,
          "velocity": 0.6299212598425197,
          "duration": 0.078125
        },
        {
          "name": "E6",
          "midi": 88,
          "time": 31.028645833333286,
          "velocity": 0.6299212598425197,
          "duration": 0.08333333333333215
        },
        {
          "name": "E3",
          "midi": 52,
          "time": 31.127604166666618,
          "velocity": 0.6299212598425197,
          "duration": 0.0963541666666643
        },
        {
          "name": "D2",
          "midi": 38,
          "time": 31.13281249999995,
          "velocity": 0.6299212598425197,
          "duration": 0.09114583333333215
        },
        {
          "name": "D6",
          "midi": 86,
          "time": 31.24999999999995,
          "velocity": 0.6299212598425197,
          "duration": 0.2369791666666643
        },
        {
          "name": "D5",
          "midi": 74,
          "time": 31.252604166666618,
          "velocity": 0.6299212598425197,
          "duration": 0.22395833333333215
        },
        {
          "name": "A5",
          "midi": 81,
          "time": 31.252604166666618,
          "velocity": 0.6299212598425197,
          "duration": 0.23437499999999645
        },
        {
          "name": "C3",
          "midi": 48,
          "time": 31.369791666666618,
          "velocity": 0.6299212598425197,
          "duration": 0.3359374999999929
        },
        {
          "name": "F3",
          "midi": 53,
          "time": 31.369791666666618,
          "velocity": 0.6299212598425197,
          "duration": 0.3359374999999929
        },
        {
          "name": "F2",
          "midi": 41,
          "time": 31.37499999999995,
          "velocity": 0.6299212598425197,
          "duration": 0.33072916666666075
        },
        {
          "name": "C#5",
          "midi": 73,
          "time": 31.481770833333282,
          "velocity": 0.6299212598425197,
          "duration": 0.0807291666666643
        },
        {
          "name": "C#6",
          "midi": 85,
          "time": 31.481770833333282,
          "velocity": 0.6299212598425197,
          "duration": 0.0807291666666643
        },
        {
          "name": "D5",
          "midi": 74,
          "time": 31.580729166666615,
          "velocity": 0.6299212598425197,
          "duration": 0.0963541666666643
        },
        {
          "name": "A5",
          "midi": 81,
          "time": 31.593749999999947,
          "velocity": 0.6299212598425197,
          "duration": 0.046875
        },
        {
          "name": "D6",
          "midi": 86,
          "time": 31.593749999999947,
          "velocity": 0.6299212598425197,
          "duration": 0.08333333333333215
        },
        {
          "name": "D#6",
          "midi": 87,
          "time": 31.70052083333328,
          "velocity": 0.6299212598425197,
          "duration": 0.0963541666666643
        },
        {
          "name": "D#5",
          "midi": 75,
          "time": 31.70572916666661,
          "velocity": 0.6299212598425197,
          "duration": 0.078125
        },
        {
          "name": "A5",
          "midi": 81,
          "time": 31.70572916666661,
          "velocity": 0.6299212598425197,
          "duration": 0.16145833333333215
        },
        {
          "name": "A2",
          "midi": 45,
          "time": 31.812499999999943,
          "velocity": 0.6299212598425197,
          "duration": 0.09114583333333215
        },
        {
          "name": "C#3",
          "midi": 49,
          "time": 31.812499999999943,
          "velocity": 0.6299212598425197,
          "duration": 0.09114583333333215
        },
        {
          "name": "E3",
          "midi": 52,
          "time": 31.812499999999943,
          "velocity": 0.6299212598425197,
          "duration": 0.078125
        },
        {
          "name": "A3",
          "midi": 57,
          "time": 31.812499999999943,
          "velocity": 0.6299212598425197,
          "duration": 0.09114583333333215
        },
        {
          "name": "E5",
          "midi": 76,
          "time": 31.812499999999943,
          "velocity": 0.6299212598425197,
          "duration": 0.09114583333333215
        },
        {
          "name": "E6",
          "midi": 88,
          "time": 31.817708333333275,
          "velocity": 0.6299212598425197,
          "duration": 0.0859375
        },
        {
          "name": "D5",
          "midi": 74,
          "time": 31.937499999999943,
          "velocity": 0.6299212598425197,
          "duration": 0.1744791666666714
        },
        {
          "name": "A5",
          "midi": 81,
          "time": 31.937499999999943,
          "velocity": 0.6299212598425197,
          "duration": 0.1744791666666714
        },
        {
          "name": "D6",
          "midi": 86,
          "time": 31.937499999999943,
          "velocity": 0.6299212598425197,
          "duration": 0.1744791666666714
        },
        {
          "name": "B3",
          "midi": 59,
          "time": 32.04687499999994,
          "velocity": 0.6299212598425197,
          "duration": 0.0989583333333357
        },
        {
          "name": "B2",
          "midi": 47,
          "time": 32.05208333333328,
          "velocity": 0.6299212598425197,
          "duration": 0.09375
        },
        {
          "name": "F3",
          "midi": 53,
          "time": 32.05208333333328,
          "velocity": 0.6299212598425197,
          "duration": 0.09375
        },
        {
          "name": "C6",
          "midi": 84,
          "time": 32.182291666666615,
          "velocity": 0.6299212598425197,
          "duration": 0.12239583333334281
        },
        {
          "name": "C5",
          "midi": 72,
          "time": 32.18749999999995,
          "velocity": 0.6299212598425197,
          "duration": 0.0755208333333357
        },
        {
          "name": "G5",
          "midi": 79,
          "time": 32.18749999999995,
          "velocity": 0.6299212598425197,
          "duration": 0.1067708333333357
        },
        {
          "name": "G3",
          "midi": 55,
          "time": 32.28906249999995,
          "velocity": 0.6299212598425197,
          "duration": 0.09895833333334281
        },
        {
          "name": "C3",
          "midi": 48,
          "time": 32.294270833333286,
          "velocity": 0.6299212598425197,
          "duration": 0.0937500000000071
        },
        {
          "name": "C4",
          "midi": 60,
          "time": 32.29947916666662,
          "velocity": 0.6299212598425197,
          "duration": 0.0885416666666714
        },
        {
          "name": "C5",
          "midi": 72,
          "time": 32.42447916666663,
          "velocity": 0.6299212598425197,
          "duration": 0.0833333333333357
        },
        {
          "name": "C6",
          "midi": 84,
          "time": 32.42447916666663,
          "velocity": 0.6299212598425197,
          "duration": 0.1250000000000071
        },
        {
          "name": "G5",
          "midi": 79,
          "time": 32.437499999999964,
          "velocity": 0.6299212598425197,
          "duration": 0.1015625
        },
        {
          "name": "A3",
          "midi": 57,
          "time": 32.5442708333333,
          "velocity": 0.6299212598425197,
          "duration": 0.0885416666666714
        },
        {
          "name": "D3",
          "midi": 50,
          "time": 32.549479166666636,
          "velocity": 0.6299212598425197,
          "duration": 0.0833333333333357
        },
        {
          "name": "D4",
          "midi": 62,
          "time": 32.549479166666636,
          "velocity": 0.6299212598425197,
          "duration": 0.0833333333333357
        },
        {
          "name": "B5",
          "midi": 83,
          "time": 32.658854166666636,
          "velocity": 0.6299212598425197,
          "duration": 0.09375
        },
        {
          "name": "D#3",
          "midi": 51,
          "time": 32.783854166666636,
          "velocity": 0.6299212598425197,
          "duration": 0.1197916666666714
        },
        {
          "name": "A#3",
          "midi": 58,
          "time": 32.783854166666636,
          "velocity": 0.6299212598425197,
          "duration": 0.1067708333333357
        },
        {
          "name": "C5",
          "midi": 72,
          "time": 32.783854166666636,
          "velocity": 0.6299212598425197,
          "duration": 0.1067708333333357
        },
        {
          "name": "F#5",
          "midi": 78,
          "time": 32.783854166666636,
          "velocity": 0.6299212598425197,
          "duration": 0.1197916666666714
        },
        {
          "name": "C6",
          "midi": 84,
          "time": 32.783854166666636,
          "velocity": 0.6299212598425197,
          "duration": 0.1197916666666714
        },
        {
          "name": "F#5",
          "midi": 78,
          "time": 33.01041666666664,
          "velocity": 0.6299212598425197,
          "duration": 0.1145833333333357
        },
        {
          "name": "C6",
          "midi": 84,
          "time": 33.01041666666664,
          "velocity": 0.6299212598425197,
          "duration": 0.1145833333333357
        },
        {
          "name": "D#3",
          "midi": 51,
          "time": 33.01562499999998,
          "velocity": 0.6299212598425197,
          "duration": 0.0911458333333357
        },
        {
          "name": "A#3",
          "midi": 58,
          "time": 33.01562499999998,
          "velocity": 0.6299212598425197,
          "duration": 0.078125
        },
        {
          "name": "D#4",
          "midi": 63,
          "time": 33.01562499999998,
          "velocity": 0.6299212598425197,
          "duration": 0.078125
        },
        {
          "name": "C5",
          "midi": 72,
          "time": 33.01562499999998,
          "velocity": 0.6299212598425197,
          "duration": 0.109375
        },
        {
          "name": "E5",
          "midi": 76,
          "time": 33.24479166666664,
          "velocity": 0.6299212598425197,
          "duration": 0.1119791666666714
        },
        {
          "name": "C6",
          "midi": 84,
          "time": 33.24479166666664,
          "velocity": 0.6299212598425197,
          "duration": 0.1119791666666714
        },
        {
          "name": "E3",
          "midi": 52,
          "time": 33.24999999999998,
          "velocity": 0.6299212598425197,
          "duration": 0.0755208333333357
        },
        {
          "name": "E4",
          "midi": 64,
          "time": 33.24999999999998,
          "velocity": 0.6299212598425197,
          "duration": 0.0755208333333357
        },
        {
          "name": "C5",
          "midi": 72,
          "time": 33.24999999999998,
          "velocity": 0.6299212598425197,
          "duration": 0.1067708333333357
        },
        {
          "name": "G#5",
          "midi": 80,
          "time": 33.24999999999998,
          "velocity": 0.6299212598425197,
          "duration": 0.1067708333333357
        },
        {
          "name": "B4",
          "midi": 71,
          "time": 33.481770833333314,
          "velocity": 0.6299212598425197,
          "duration": 0.1119791666666714
        },
        {
          "name": "B5",
          "midi": 83,
          "time": 33.481770833333314,
          "velocity": 0.6299212598425197,
          "duration": 0.1119791666666714
        },
        {
          "name": "D3",
          "midi": 50,
          "time": 33.48697916666665,
          "velocity": 0.6299212598425197,
          "duration": 0.1067708333333357
        },
        {
          "name": "D4",
          "midi": 62,
          "time": 33.48697916666665,
          "velocity": 0.6299212598425197,
          "duration": 0.1067708333333357
        },
        {
          "name": "E5",
          "midi": 76,
          "time": 33.48697916666665,
          "velocity": 0.6299212598425197,
          "duration": 0.1067708333333357
        },
        {
          "name": "A4",
          "midi": 69,
          "time": 33.700520833333314,
          "velocity": 0.6299212598425197,
          "duration": 0.1119791666666714
        },
        {
          "name": "C3",
          "midi": 48,
          "time": 33.70572916666665,
          "velocity": 0.6299212598425197,
          "duration": 0.1119791666666714
        },
        {
          "name": "C4",
          "midi": 60,
          "time": 33.70572916666665,
          "velocity": 0.6299212598425197,
          "duration": 0.1119791666666714
        },
        {
          "name": "E5",
          "midi": 76,
          "time": 33.70572916666665,
          "velocity": 0.6299212598425197,
          "duration": 0.1171875000000071
        },
        {
          "name": "A5",
          "midi": 81,
          "time": 33.70572916666665,
          "velocity": 0.6299212598425197,
          "duration": 0.1171875000000071
        },
        {
          "name": "A4",
          "midi": 69,
          "time": 33.93749999999999,
          "velocity": 0.6299212598425197,
          "duration": 0.1250000000000071
        },
        {
          "name": "A5",
          "midi": 81,
          "time": 33.94270833333333,
          "velocity": 0.6299212598425197,
          "duration": 0.1197916666666714
        },
        {
          "name": "A3",
          "midi": 57,
          "time": 33.947916666666664,
          "velocity": 0.6299212598425197,
          "duration": 0.1145833333333357
        },
        {
          "name": "A#3",
          "midi": 58,
          "time": 34.1796875,
          "velocity": 0.6299212598425197,
          "duration": 0.1197916666666714
        },
        {
          "name": "A#4",
          "midi": 70,
          "time": 34.184895833333336,
          "velocity": 0.6299212598425197,
          "duration": 0.1145833333333357
        },
        {
          "name": "A#5",
          "midi": 82,
          "time": 34.184895833333336,
          "velocity": 0.6299212598425197,
          "duration": 0.1145833333333357
        },
        {
          "name": "B5",
          "midi": 83,
          "time": 34.4375,
          "velocity": 0.6299212598425197,
          "duration": 0.125
        },
        {
          "name": "B3",
          "midi": 59,
          "time": 34.440104166666664,
          "velocity": 0.6299212598425197,
          "duration": 0.109375
        },
        {
          "name": "B4",
          "midi": 71,
          "time": 34.440104166666664,
          "velocity": 0.6299212598425197,
          "duration": 0.109375
        },
        {
          "name": "C2",
          "midi": 36,
          "time": 34.669270833333336,
          "velocity": 0.6299212598425197,
          "duration": 0.1953125
        },
        {
          "name": "A5",
          "midi": 81,
          "time": 34.67447916666667,
          "velocity": 0.6299212598425197,
          "duration": 0.3567708333333357
        },
        {
          "name": "C6",
          "midi": 84,
          "time": 34.67968750000001,
          "velocity": 0.6299212598425197,
          "duration": 0.3515625
        },
        {
          "name": "C5",
          "midi": 72,
          "time": 34.79947916666667,
          "velocity": 0.6299212598425197,
          "duration": 0.1380208333333357
        },
        {
          "name": "A3",
          "midi": 57,
          "time": 34.92447916666667,
          "velocity": 0.6299212598425197,
          "duration": 0.0755208333333357
        },
        {
          "name": "C4",
          "midi": 60,
          "time": 34.92447916666667,
          "velocity": 0.6299212598425197,
          "duration": 0.0755208333333357
        },
        {
          "name": "F4",
          "midi": 65,
          "time": 34.92447916666667,
          "velocity": 0.6299212598425197,
          "duration": 0.0755208333333357
        },
        {
          "name": "D2",
          "midi": 38,
          "time": 35.15104166666667,
          "velocity": 0.6299212598425197,
          "duration": 0.1744791666666714
        },
        {
          "name": "G#5",
          "midi": 80,
          "time": 35.15625000000001,
          "velocity": 0.6299212598425197,
          "duration": 0.1145833333333357
        },
        {
          "name": "B5",
          "midi": 83,
          "time": 35.15625000000001,
          "velocity": 0.6299212598425197,
          "duration": 0.1145833333333357
        },
        {
          "name": "B4",
          "midi": 71,
          "time": 35.26562500000001,
          "velocity": 0.6299212598425197,
          "duration": 0.1796875000000071
        },
        {
          "name": "F4",
          "midi": 65,
          "time": 35.38541666666668,
          "velocity": 0.6299212598425197,
          "duration": 0.0911458333333357
        },
        {
          "name": "G#3",
          "midi": 56,
          "time": 35.390625000000014,
          "velocity": 0.6299212598425197,
          "duration": 0.0859375
        },
        {
          "name": "D4",
          "midi": 62,
          "time": 35.390625000000014,
          "velocity": 0.6299212598425197,
          "duration": 0.0859375
        },
        {
          "name": "G#5",
          "midi": 80,
          "time": 35.390625000000014,
          "velocity": 0.6299212598425197,
          "duration": 0.1145833333333357
        },
        {
          "name": "B5",
          "midi": 83,
          "time": 35.390625000000014,
          "velocity": 0.6299212598425197,
          "duration": 0.1145833333333357
        },
        {
          "name": "E3",
          "midi": 52,
          "time": 35.62239583333335,
          "velocity": 0.6299212598425197,
          "duration": 0.1484375
        },
        {
          "name": "A#5",
          "midi": 82,
          "time": 35.62239583333335,
          "velocity": 0.6299212598425197,
          "duration": 0.3541666666666643
        },
        {
          "name": "E2",
          "midi": 40,
          "time": 35.625000000000014,
          "velocity": 0.6299212598425197,
          "duration": 0.1588541666666714
        },
        {
          "name": "G5",
          "midi": 79,
          "time": 35.63020833333335,
          "velocity": 0.6299212598425197,
          "duration": 0.3333333333333286
        },
        {
          "name": "A#4",
          "midi": 70,
          "time": 35.74739583333335,
          "velocity": 0.6299212598425197,
          "duration": 0.1614583333333357
        },
        {
          "name": "A#3",
          "midi": 58,
          "time": 35.84895833333335,
          "velocity": 0.6299212598425197,
          "duration": 0.0963541666666643
        },
        {
          "name": "C4",
          "midi": 60,
          "time": 35.861979166666686,
          "velocity": 0.6299212598425197,
          "duration": 0.0833333333333286
        },
        {
          "name": "E4",
          "midi": 64,
          "time": 35.861979166666686,
          "velocity": 0.6299212598425197,
          "duration": 0.0729166666666643
        },
        {
          "name": "F5",
          "midi": 77,
          "time": 36.08333333333335,
          "velocity": 0.6299212598425197,
          "duration": 0.1119791666666714
        },
        {
          "name": "A5",
          "midi": 81,
          "time": 36.08333333333335,
          "velocity": 0.6299212598425197,
          "duration": 0.12239583333334281
        },
        {
          "name": "F3",
          "midi": 53,
          "time": 36.08333333333335,
          "velocity": 0.6299212598425197,
          "duration": 0.1770833333333428
        },
        {
          "name": "F2",
          "midi": 41,
          "time": 36.088541666666686,
          "velocity": 0.6299212598425197,
          "duration": 0.1718750000000071
        },
        {
          "name": "A4",
          "midi": 69,
          "time": 36.20052083333336,
          "velocity": 0.6299212598425197,
          "duration": 0.1458333333333357
        },
        {
          "name": "A3",
          "midi": 57,
          "time": 36.32031250000003,
          "velocity": 0.6299212598425197,
          "duration": 0.0807291666666643
        },
        {
          "name": "C4",
          "midi": 60,
          "time": 36.32031250000003,
          "velocity": 0.6299212598425197,
          "duration": 0.0807291666666643
        },
        {
          "name": "F4",
          "midi": 65,
          "time": 36.32031250000003,
          "velocity": 0.6299212598425197,
          "duration": 0.09375
        },
        {
          "name": "F5",
          "midi": 77,
          "time": 36.32031250000003,
          "velocity": 0.6299212598425197,
          "duration": 0.1223958333333357
        },
        {
          "name": "A5",
          "midi": 81,
          "time": 36.32031250000003,
          "velocity": 0.6299212598425197,
          "duration": 0.1223958333333357
        },
        {
          "name": "G2",
          "midi": 43,
          "time": 36.575520833333364,
          "velocity": 0.6299212598425197,
          "duration": 0.1875000000000071
        },
        {
          "name": "B3",
          "midi": 59,
          "time": 36.575520833333364,
          "velocity": 0.6299212598425197,
          "duration": 0.1223958333333357
        },
        {
          "name": "G5",
          "midi": 79,
          "time": 36.5885416666667,
          "velocity": 0.6299212598425197,
          "duration": 0.109375
        },
        {
          "name": "C#5",
          "midi": 73,
          "time": 36.757812500000036,
          "velocity": 0.6299212598425197,
          "duration": 0.1015625000000071
        },
        {
          "name": "G3",
          "midi": 55,
          "time": 36.82291666666671,
          "velocity": 0.6299212598425197,
          "duration": 0.0911458333333357
        },
        {
          "name": "B3",
          "midi": 59,
          "time": 36.82291666666671,
          "velocity": 0.6299212598425197,
          "duration": 0.0963541666666714
        },
        {
          "name": "F4",
          "midi": 65,
          "time": 36.82291666666671,
          "velocity": 0.6299212598425197,
          "duration": 0.0911458333333357
        },
        {
          "name": "D5",
          "midi": 74,
          "time": 36.82812500000004,
          "velocity": 0.6299212598425197,
          "duration": 0.0859375
        },
        {
          "name": "D#5",
          "midi": 75,
          "time": 36.94270833333338,
          "velocity": 0.6299212598425197,
          "duration": 0.0911458333333357
        },
        {
          "name": "A#2",
          "midi": 46,
          "time": 37.06770833333338,
          "velocity": 0.6299212598425197,
          "duration": 0.1432291666666714
        },
        {
          "name": "A#3",
          "midi": 58,
          "time": 37.06770833333338,
          "velocity": 0.6299212598425197,
          "duration": 0.1432291666666714
        },
        {
          "name": "E5",
          "midi": 76,
          "time": 37.06770833333338,
          "velocity": 0.6299212598425197,
          "duration": 0.0494791666666643
        },
        {
          "name": "E5",
          "midi": 76,
          "time": 37.17708333333338,
          "velocity": 0.6299212598425197,
          "duration": 0.0885416666666714
        },
        {
          "name": "A5",
          "midi": 81,
          "time": 37.17708333333338,
          "velocity": 0.6299212598425197,
          "duration": 0.0885416666666714
        },
        {
          "name": "C5",
          "midi": 72,
          "time": 37.182291666666714,
          "velocity": 0.6299212598425197,
          "duration": 0.0833333333333357
        },
        {
          "name": "C4",
          "midi": 60,
          "time": 37.283854166666714,
          "velocity": 0.6299212598425197,
          "duration": 0.0911458333333357
        },
        {
          "name": "A#3",
          "midi": 58,
          "time": 37.28906250000005,
          "velocity": 0.6299212598425197,
          "duration": 0.0859375
        },
        {
          "name": "E4",
          "midi": 64,
          "time": 37.28906250000005,
          "velocity": 0.6299212598425197,
          "duration": 0.0859375
        },
        {
          "name": "A#4",
          "midi": 70,
          "time": 37.377604166666714,
          "velocity": 0.6299212598425197,
          "duration": 0.0911458333333357
        },
        {
          "name": "G5",
          "midi": 79,
          "time": 37.377604166666714,
          "velocity": 0.6299212598425197,
          "duration": 0.0911458333333357
        },
        {
          "name": "A4",
          "midi": 69,
          "time": 37.51562500000005,
          "velocity": 0.6299212598425197,
          "duration": 0.2447916666666785
        },
        {
          "name": "A3",
          "midi": 57,
          "time": 37.520833333333385,
          "velocity": 0.6299212598425197,
          "duration": 0.1197916666666714
        },
        {
          "name": "F5",
          "midi": 77,
          "time": 37.520833333333385,
          "velocity": 0.6299212598425197,
          "duration": 0.2395833333333428
        },
        {
          "name": "F2",
          "midi": 41,
          "time": 37.53385416666672,
          "velocity": 0.6299212598425197,
          "duration": 0.1796875000000071
        },
        {
          "name": "A3",
          "midi": 57,
          "time": 37.75520833333339,
          "velocity": 0.6299212598425197,
          "duration": 0.0833333333333357
        },
        {
          "name": "C4",
          "midi": 60,
          "time": 37.75520833333339,
          "velocity": 0.6299212598425197,
          "duration": 0.0833333333333357
        },
        {
          "name": "F4",
          "midi": 65,
          "time": 37.75520833333339,
          "velocity": 0.6299212598425197,
          "duration": 0.0833333333333357
        },
        {
          "name": "A4",
          "midi": 69,
          "time": 37.875000000000064,
          "velocity": 0.6299212598425197,
          "duration": 0.2213541666666714
        },
        {
          "name": "C5",
          "midi": 72,
          "time": 37.875000000000064,
          "velocity": 0.6299212598425197,
          "duration": 0.2213541666666714
        },
        {
          "name": "F5",
          "midi": 77,
          "time": 37.875000000000064,
          "velocity": 0.6299212598425197,
          "duration": 0.2213541666666714
        },
        {
          "name": "C2",
          "midi": 36,
          "time": 37.9817708333334,
          "velocity": 0.6299212598425197,
          "duration": 0.1822916666666714
        },
        {
          "name": "G5",
          "midi": 79,
          "time": 38.10937500000007,
          "velocity": 0.6299212598425197,
          "duration": 0.078125
        },
        {
          "name": "A3",
          "midi": 57,
          "time": 38.213541666666735,
          "velocity": 0.6299212598425197,
          "duration": 0.0833333333333357
        },
        {
          "name": "F4",
          "midi": 65,
          "time": 38.213541666666735,
          "velocity": 0.6299212598425197,
          "duration": 0.0833333333333357
        },
        {
          "name": "F5",
          "midi": 77,
          "time": 38.213541666666735,
          "velocity": 0.6299212598425197,
          "duration": 0.1171875
        },
        {
          "name": "C5",
          "midi": 72,
          "time": 38.21875000000007,
          "velocity": 0.6299212598425197,
          "duration": 0.1119791666666643
        },
        {
          "name": "A5",
          "midi": 81,
          "time": 38.21875000000007,
          "velocity": 0.6299212598425197,
          "duration": 0.1119791666666643
        },
        {
          "name": "C4",
          "midi": 60,
          "time": 38.22395833333341,
          "velocity": 0.6299212598425197,
          "duration": 0.0729166666666643
        },
        {
          "name": "A3",
          "midi": 57,
          "time": 38.4505208333334,
          "velocity": 0.6299212598425197,
          "duration": 0.1354166666666785
        },
        {
          "name": "C5",
          "midi": 72,
          "time": 38.455729166666735,
          "velocity": 0.6299212598425197,
          "duration": 0.3046875000000142
        },
        {
          "name": "F5",
          "midi": 77,
          "time": 38.455729166666735,
          "velocity": 0.6299212598425197,
          "duration": 0.1250000000000071
        },
        {
          "name": "A5",
          "midi": 81,
          "time": 38.455729166666735,
          "velocity": 0.6299212598425197,
          "duration": 0.2447916666666785
        },
        {
          "name": "C6",
          "midi": 84,
          "time": 38.455729166666735,
          "velocity": 0.6299212598425197,
          "duration": 0.3098958333333499
        },
        {
          "name": "A2",
          "midi": 45,
          "time": 38.46093750000007,
          "velocity": 0.6299212598425197,
          "duration": 0.2161458333333428
        },
        {
          "name": "A3",
          "midi": 57,
          "time": 38.70572916666675,
          "velocity": 0.6299212598425197,
          "duration": 0.0859375
        },
        {
          "name": "C4",
          "midi": 60,
          "time": 38.70572916666675,
          "velocity": 0.6299212598425197,
          "duration": 0.0859375
        },
        {
          "name": "F4",
          "midi": 65,
          "time": 38.70572916666675,
          "velocity": 0.6299212598425197,
          "duration": 0.0859375
        },
        {
          "name": "B2",
          "midi": 47,
          "time": 38.94010416666675,
          "velocity": 0.6299212598425197,
          "duration": 0.1744791666666714
        },
        {
          "name": "B3",
          "midi": 59,
          "time": 38.94010416666675,
          "velocity": 0.6299212598425197,
          "duration": 0.2864583333333357
        },
        {
          "name": "F5",
          "midi": 77,
          "time": 38.94010416666675,
          "velocity": 0.6299212598425197,
          "duration": 0.3203125
        },
        {
          "name": "B5",
          "midi": 83,
          "time": 38.94010416666675,
          "velocity": 0.6299212598425197,
          "duration": 0.3203125
        },
        {
          "name": "D5",
          "midi": 74,
          "time": 38.945312500000085,
          "velocity": 0.6299212598425197,
          "duration": 0.3151041666666643
        },
        {
          "name": "D6",
          "midi": 86,
          "time": 38.95052083333342,
          "velocity": 0.6299212598425197,
          "duration": 0.3098958333333286
        },
        {
          "name": "D4",
          "midi": 62,
          "time": 39.179687500000085,
          "velocity": 0.6299212598425197,
          "duration": 0.0807291666666643
        },
        {
          "name": "B4",
          "midi": 71,
          "time": 39.179687500000085,
          "velocity": 0.6299212598425197,
          "duration": 0.0807291666666643
        },
        {
          "name": "F4",
          "midi": 65,
          "time": 39.18489583333342,
          "velocity": 0.6299212598425197,
          "duration": 0.0755208333333286
        },
        {
          "name": "G#4",
          "midi": 68,
          "time": 39.18489583333342,
          "velocity": 0.6299212598425197,
          "duration": 0.0755208333333286
        },
        {
          "name": "A#3",
          "midi": 58,
          "time": 39.406250000000085,
          "velocity": 0.6299212598425197,
          "duration": 0.0885416666666714
        },
        {
          "name": "D5",
          "midi": 74,
          "time": 39.406250000000085,
          "velocity": 0.6299212598425197,
          "duration": 0.3437500000000142
        },
        {
          "name": "E5",
          "midi": 76,
          "time": 39.41145833333342,
          "velocity": 0.6299212598425197,
          "duration": 0.3385416666666785
        },
        {
          "name": "G5",
          "midi": 79,
          "time": 39.41145833333342,
          "velocity": 0.6299212598425197,
          "duration": 0.1979166666666714
        },
        {
          "name": "A#5",
          "midi": 82,
          "time": 39.41145833333342,
          "velocity": 0.6299212598425197,
          "duration": 0.3385416666666785
        },
        {
          "name": "D6",
          "midi": 86,
          "time": 39.41145833333342,
          "velocity": 0.6299212598425197,
          "duration": 0.3385416666666785
        },
        {
          "name": "G2",
          "midi": 43,
          "time": 39.41666666666676,
          "velocity": 0.6299212598425197,
          "duration": 0.2213541666666714
        },
        {
          "name": "G3",
          "midi": 55,
          "time": 39.63281250000009,
          "velocity": 0.6299212598425197,
          "duration": 0.0885416666666714
        },
        {
          "name": "A#3",
          "midi": 58,
          "time": 39.63281250000009,
          "velocity": 0.6299212598425197,
          "duration": 0.0885416666666714
        },
        {
          "name": "E4",
          "midi": 64,
          "time": 39.643229166666764,
          "velocity": 0.6299212598425197,
          "duration": 0.078125
        },
        {
          "name": "G2",
          "midi": 43,
          "time": 39.8671875000001,
          "velocity": 0.6299212598425197,
          "duration": 0.0807291666666714
        },
        {
          "name": "G3",
          "midi": 55,
          "time": 39.8671875000001,
          "velocity": 0.6299212598425197,
          "duration": 0.0807291666666714
        },
        {
          "name": "D5",
          "midi": 74,
          "time": 39.8671875000001,
          "velocity": 0.6299212598425197,
          "duration": 0.1718750000000071
        },
        {
          "name": "E5",
          "midi": 76,
          "time": 39.8671875000001,
          "velocity": 0.6299212598425197,
          "duration": 0.1718750000000071
        },
        {
          "name": "A#5",
          "midi": 82,
          "time": 39.8671875000001,
          "velocity": 0.6299212598425197,
          "duration": 0.1171875000000071
        },
        {
          "name": "G5",
          "midi": 79,
          "time": 39.872395833333435,
          "velocity": 0.6299212598425197,
          "duration": 0.1666666666666714
        },
        {
          "name": "D6",
          "midi": 86,
          "time": 39.872395833333435,
          "velocity": 0.6299212598425197,
          "duration": 0.1119791666666714
        },
        {
          "name": "B5",
          "midi": 83,
          "time": 40.03906250000011,
          "velocity": 0.6299212598425197,
          "duration": 0.0859375
        },
        {
          "name": "G2",
          "midi": 43,
          "time": 40.09375000000011,
          "velocity": 0.6299212598425197,
          "duration": 0.1744791666666714
        },
        {
          "name": "F3",
          "midi": 53,
          "time": 40.09375000000011,
          "velocity": 0.6299212598425197,
          "duration": 0.0911458333333357
        },
        {
          "name": "C5",
          "midi": 72,
          "time": 40.09375000000011,
          "velocity": 0.6299212598425197,
          "duration": 0.0911458333333357
        },
        {
          "name": "C6",
          "midi": 84,
          "time": 40.09375000000011,
          "velocity": 0.6299212598425197,
          "duration": 0.0911458333333357
        },
        {
          "name": "C#5",
          "midi": 73,
          "time": 40.273437500000114,
          "velocity": 0.6299212598425197,
          "duration": 0.0859375
        },
        {
          "name": "C#6",
          "midi": 85,
          "time": 40.273437500000114,
          "velocity": 0.6299212598425197,
          "duration": 0.0989583333333357
        },
        {
          "name": "C3",
          "midi": 48,
          "time": 40.328125000000114,
          "velocity": 0.6299212598425197,
          "duration": 0.1588541666666714
        },
        {
          "name": "E3",
          "midi": 52,
          "time": 40.328125000000114,
          "velocity": 0.6299212598425197,
          "duration": 0.1276041666666714
        },
        {
          "name": "D5",
          "midi": 74,
          "time": 40.33333333333345,
          "velocity": 0.6299212598425197,
          "duration": 0.3567708333333428
        },
        {
          "name": "G5",
          "midi": 79,
          "time": 40.33333333333345,
          "velocity": 0.6299212598425197,
          "duration": 0.3567708333333428
        },
        {
          "name": "A#5",
          "midi": 82,
          "time": 40.33333333333345,
          "velocity": 0.6299212598425197,
          "duration": 0.3567708333333428
        },
        {
          "name": "D6",
          "midi": 86,
          "time": 40.33333333333345,
          "velocity": 0.6299212598425197,
          "duration": 0.3697916666666785
        },
        {
          "name": "E3",
          "midi": 52,
          "time": 40.57031250000012,
          "velocity": 0.6299212598425197,
          "duration": 0.0911458333333357
        },
        {
          "name": "G2",
          "midi": 43,
          "time": 40.58333333333346,
          "velocity": 0.6299212598425197,
          "duration": 0.078125
        },
        {
          "name": "A#3",
          "midi": 58,
          "time": 40.58333333333346,
          "velocity": 0.6299212598425197,
          "duration": 0.078125
        },
        {
          "name": "G2",
          "midi": 43,
          "time": 40.79947916666679,
          "velocity": 0.6299212598425197,
          "duration": 0.1067708333333357
        },
        {
          "name": "E3",
          "midi": 52,
          "time": 40.82291666666679,
          "velocity": 0.6299212598425197,
          "duration": 0.0833333333333357
        },
        {
          "name": "B3",
          "midi": 59,
          "time": 40.82291666666679,
          "velocity": 0.6299212598425197,
          "duration": 0.0833333333333357
        },
        {
          "name": "E5",
          "midi": 76,
          "time": 40.82291666666679,
          "velocity": 0.6299212598425197,
          "duration": 0.3567708333333357
        },
        {
          "name": "A#5",
          "midi": 82,
          "time": 40.82291666666679,
          "velocity": 0.6299212598425197,
          "duration": 0.3567708333333357
        },
        {
          "name": "E6",
          "midi": 88,
          "time": 40.82812500000013,
          "velocity": 0.6299212598425197,
          "duration": 0.359375
        },
        {
          "name": "G5",
          "midi": 79,
          "time": 40.833333333333464,
          "velocity": 0.6299212598425197,
          "duration": 0.3463541666666643
        },
        {
          "name": "E3",
          "midi": 52,
          "time": 41.06250000000013,
          "velocity": 0.6299212598425197,
          "duration": 0.0911458333333357
        },
        {
          "name": "G2",
          "midi": 43,
          "time": 41.067708333333464,
          "velocity": 0.6299212598425197,
          "duration": 0.1171875
        },
        {
          "name": "E3",
          "midi": 52,
          "time": 41.29687500000013,
          "velocity": 0.6299212598425197,
          "duration": 0.2031250000000071
        },
        {
          "name": "C#4",
          "midi": 61,
          "time": 41.302083333333464,
          "velocity": 0.6299212598425197,
          "duration": 0.1067708333333357
        },
        {
          "name": "E6",
          "midi": 88,
          "time": 41.302083333333464,
          "velocity": 0.6299212598425197,
          "duration": 0.3385416666666785
        },
        {
          "name": "A2",
          "midi": 45,
          "time": 41.3072916666668,
          "velocity": 0.6299212598425197,
          "duration": 0.1614583333333357
        },
        {
          "name": "E5",
          "midi": 76,
          "time": 41.3072916666668,
          "velocity": 0.6299212598425197,
          "duration": 0.3333333333333428
        },
        {
          "name": "A5",
          "midi": 81,
          "time": 41.3072916666668,
          "velocity": 0.6299212598425197,
          "duration": 0.3333333333333428
        },
        {
          "name": "C#6",
          "midi": 85,
          "time": 41.3072916666668,
          "velocity": 0.6299212598425197,
          "duration": 0.3333333333333428
        },
        {
          "name": "C#4",
          "midi": 61,
          "time": 41.5104166666668,
          "velocity": 0.6299212598425197,
          "duration": 0.1015625000000071
        },
        {
          "name": "A3",
          "midi": 57,
          "time": 41.515625000000135,
          "velocity": 0.6299212598425197,
          "duration": 0.1015625000000071
        },
        {
          "name": "E4",
          "midi": 64,
          "time": 41.515625000000135,
          "velocity": 0.6299212598425197,
          "duration": 0.0911458333333357
        },
        {
          "name": "C3",
          "midi": 48,
          "time": 41.760416666666806,
          "velocity": 0.6299212598425197,
          "duration": 0.1848958333333428
        },
        {
          "name": "C4",
          "midi": 60,
          "time": 41.76562500000014,
          "velocity": 0.6299212598425197,
          "duration": 0.1145833333333357
        },
        {
          "name": "C6",
          "midi": 84,
          "time": 41.76562500000014,
          "velocity": 0.6299212598425197,
          "duration": 0.0911458333333357
        },
        {
          "name": "E6",
          "midi": 88,
          "time": 41.76562500000014,
          "velocity": 0.6299212598425197,
          "duration": 0.1588541666666714
        },
        {
          "name": "E5",
          "midi": 76,
          "time": 41.77083333333348,
          "velocity": 0.6299212598425197,
          "duration": 0.1536458333333357
        },
        {
          "name": "A#5",
          "midi": 82,
          "time": 41.77083333333348,
          "velocity": 0.6299212598425197,
          "duration": 0.1536458333333357
        },
        {
          "name": "C6",
          "midi": 84,
          "time": 41.94010416666681,
          "velocity": 0.6299212598425197,
          "duration": 0.1067708333333357
        },
        {
          "name": "A#3",
          "midi": 58,
          "time": 42.01041666666681,
          "velocity": 0.6299212598425197,
          "duration": 0.0833333333333357
        },
        {
          "name": "E4",
          "midi": 64,
          "time": 42.01041666666681,
          "velocity": 0.6299212598425197,
          "duration": 0.0833333333333357
        },
        {
          "name": "D5",
          "midi": 74,
          "time": 42.01041666666681,
          "velocity": 0.6299212598425197,
          "duration": 0.0833333333333357
        },
        {
          "name": "A#5",
          "midi": 82,
          "time": 42.01041666666681,
          "velocity": 0.6299212598425197,
          "duration": 0.0833333333333357
        },
        {
          "name": "D6",
          "midi": 86,
          "time": 42.01041666666681,
          "velocity": 0.6299212598425197,
          "duration": 0.0833333333333357
        },
        {
          "name": "E6",
          "midi": 88,
          "time": 42.18750000000015,
          "velocity": 0.6299212598425197,
          "duration": 0.0781250000000071
        },
        {
          "name": "A2",
          "midi": 45,
          "time": 42.21875000000015,
          "velocity": 0.6299212598425197,
          "duration": 0.2265625000000071
        },
        {
          "name": "C6",
          "midi": 84,
          "time": 42.21875000000015,
          "velocity": 0.6299212598425197,
          "duration": 0.3723958333333428
        },
        {
          "name": "F5",
          "midi": 77,
          "time": 42.231770833333485,
          "velocity": 0.6299212598425197,
          "duration": 0.3593750000000071
        },
        {
          "name": "A5",
          "midi": 81,
          "time": 42.231770833333485,
          "velocity": 0.6299212598425197,
          "duration": 0.3593750000000071
        },
        {
          "name": "F6",
          "midi": 89,
          "time": 42.231770833333485,
          "velocity": 0.6299212598425197,
          "duration": 0.3645833333333428
        },
        {
          "name": "A3",
          "midi": 57,
          "time": 42.23697916666682,
          "velocity": 0.6299212598425197,
          "duration": 0.1067708333333357
        },
        {
          "name": "A3",
          "midi": 57,
          "time": 42.47135416666682,
          "velocity": 0.6299212598425197,
          "duration": 0.0911458333333357
        },
        {
          "name": "C4",
          "midi": 60,
          "time": 42.47135416666682,
          "velocity": 0.6299212598425197,
          "duration": 0.0911458333333357
        },
        {
          "name": "F4",
          "midi": 65,
          "time": 42.47135416666682,
          "velocity": 0.6299212598425197,
          "duration": 0.0911458333333357
        },
        {
          "name": "G2",
          "midi": 43,
          "time": 42.72916666666683,
          "velocity": 0.6299212598425197,
          "duration": 0.2083333333333357
        },
        {
          "name": "A#3",
          "midi": 58,
          "time": 42.72916666666683,
          "velocity": 0.6299212598425197,
          "duration": 0.1770833333333357
        },
        {
          "name": "E5",
          "midi": 76,
          "time": 42.73437500000016,
          "velocity": 0.6299212598425197,
          "duration": 0.3619791666666643
        },
        {
          "name": "A#5",
          "midi": 82,
          "time": 42.73437500000016,
          "velocity": 0.6299212598425197,
          "duration": 0.3619791666666643
        },
        {
          "name": "C6",
          "midi": 84,
          "time": 42.73437500000016,
          "velocity": 0.6299212598425197,
          "duration": 0.3619791666666643
        },
        {
          "name": "E6",
          "midi": 88,
          "time": 42.7395833333335,
          "velocity": 0.6299212598425197,
          "duration": 0.3567708333333286
        },
        {
          "name": "C4",
          "midi": 60,
          "time": 42.97916666666683,
          "velocity": 0.6299212598425197,
          "duration": 0.078125
        },
        {
          "name": "E4",
          "midi": 64,
          "time": 42.97916666666683,
          "velocity": 0.6299212598425197,
          "duration": 0.078125
        },
        {
          "name": "A2",
          "midi": 45,
          "time": 43.18750000000016,
          "velocity": 0.6299212598425197,
          "duration": 0.1718750000000071
        },
        {
          "name": "C4",
          "midi": 60,
          "time": 43.2161458333335,
          "velocity": 0.6299212598425197,
          "duration": 0.1119791666666714
        },
        {
          "name": "C6",
          "midi": 84,
          "time": 43.2161458333335,
          "velocity": 0.6299212598425197,
          "duration": 0.3411458333333357
        },
        {
          "name": "D#6",
          "midi": 87,
          "time": 43.2161458333335,
          "velocity": 0.6299212598425197,
          "duration": 0.3411458333333357
        },
        {
          "name": "D#5",
          "midi": 75,
          "time": 43.221354166666835,
          "velocity": 0.6299212598425197,
          "duration": 0.3359375
        },
        {
          "name": "A5",
          "midi": 81,
          "time": 43.221354166666835,
          "velocity": 0.6299212598425197,
          "duration": 0.3359375
        },
        {
          "name": "A3",
          "midi": 57,
          "time": 43.447916666666835,
          "velocity": 0.6299212598425197,
          "duration": 0.078125
        },
        {
          "name": "C4",
          "midi": 60,
          "time": 43.447916666666835,
          "velocity": 0.6299212598425197,
          "duration": 0.078125
        },
        {
          "name": "F4",
          "midi": 65,
          "time": 43.447916666666835,
          "velocity": 0.6299212598425197,
          "duration": 0.078125
        },
        {
          "name": "A#2",
          "midi": 46,
          "time": 43.67187500000017,
          "velocity": 0.6299212598425197,
          "duration": 0.1171875000000071
        },
        {
          "name": "F3",
          "midi": 53,
          "time": 43.67187500000017,
          "velocity": 0.6299212598425197,
          "duration": 0.1171875000000071
        },
        {
          "name": "F5",
          "midi": 77,
          "time": 43.67187500000017,
          "velocity": 0.6299212598425197,
          "duration": 0.3385416666666785
        },
        {
          "name": "A#5",
          "midi": 82,
          "time": 43.67187500000017,
          "velocity": 0.6299212598425197,
          "duration": 0.3489583333333499
        },
        {
          "name": "D4",
          "midi": 62,
          "time": 43.677083333333506,
          "velocity": 0.6299212598425197,
          "duration": 0.1119791666666714
        },
        {
          "name": "D5",
          "midi": 74,
          "time": 43.677083333333506,
          "velocity": 0.6299212598425197,
          "duration": 0.3333333333333428
        },
        {
          "name": "D6",
          "midi": 86,
          "time": 43.68229166666684,
          "velocity": 0.6299212598425197,
          "duration": 0.3281250000000071
        },
        {
          "name": "A#2",
          "midi": 46,
          "time": 43.89583333333351,
          "velocity": 0.6299212598425197,
          "duration": 0.1145833333333357
        },
        {
          "name": "A#3",
          "midi": 58,
          "time": 43.89583333333351,
          "velocity": 0.6299212598425197,
          "duration": 0.1197916666666714
        },
        {
          "name": "A2",
          "midi": 45,
          "time": 44.10677083333352,
          "velocity": 0.6299212598425197,
          "duration": 0.1380208333333357
        },
        {
          "name": "A3",
          "midi": 57,
          "time": 44.135416666666856,
          "velocity": 0.6299212598425197,
          "duration": 0.1145833333333357
        },
        {
          "name": "C5",
          "midi": 72,
          "time": 44.135416666666856,
          "velocity": 0.6299212598425197,
          "duration": 0.1380208333333357
        },
        {
          "name": "F#5",
          "midi": 78,
          "time": 44.135416666666856,
          "velocity": 0.6299212598425197,
          "duration": 0.1145833333333357
        },
        {
          "name": "A5",
          "midi": 81,
          "time": 44.135416666666856,
          "velocity": 0.6299212598425197,
          "duration": 0.1041666666666643
        },
        {
          "name": "C6",
          "midi": 84,
          "time": 44.135416666666856,
          "velocity": 0.6299212598425197,
          "duration": 0.1510416666666714
        },
        {
          "name": "D5",
          "midi": 74,
          "time": 44.25000000000019,
          "velocity": 0.6299212598425197,
          "duration": 0.0833333333333357
        },
        {
          "name": "A3",
          "midi": 57,
          "time": 44.35937500000019,
          "velocity": 0.6299212598425197,
          "duration": 0.0989583333333357
        },
        {
          "name": "C4",
          "midi": 60,
          "time": 44.35937500000019,
          "velocity": 0.6299212598425197,
          "duration": 0.0859375
        },
        {
          "name": "F#4",
          "midi": 66,
          "time": 44.35937500000019,
          "velocity": 0.6299212598425197,
          "duration": 0.0859375
        },
        {
          "name": "E5",
          "midi": 76,
          "time": 44.35937500000019,
          "velocity": 0.6299212598425197,
          "duration": 0.0807291666666643
        },
        {
          "name": "F5",
          "midi": 77,
          "time": 44.48437500000019,
          "velocity": 0.6299212598425197,
          "duration": 0.0833333333333357
        },
        {
          "name": "D2",
          "midi": 38,
          "time": 44.61197916666686,
          "velocity": 0.6299212598425197,
          "duration": 0.4322916666666714
        },
        {
          "name": "F#5",
          "midi": 78,
          "time": 44.61197916666686,
          "velocity": 0.6299212598425197,
          "duration": 0.0546875
        },
        {
          "name": "C5",
          "midi": 72,
          "time": 44.7265625000002,
          "velocity": 0.6299212598425197,
          "duration": 0.1848958333333357
        },
        {
          "name": "F#5",
          "midi": 78,
          "time": 44.7265625000002,
          "velocity": 0.6299212598425197,
          "duration": 0.1848958333333357
        },
        {
          "name": "D6",
          "midi": 86,
          "time": 44.7265625000002,
          "velocity": 0.6299212598425197,
          "duration": 0.1848958333333357
        },
        {
          "name": "D5",
          "midi": 74,
          "time": 44.731770833333535,
          "velocity": 0.6299212598425197,
          "duration": 0.1796875
        },
        {
          "name": "C6",
          "midi": 84,
          "time": 44.9843750000002,
          "velocity": 0.6299212598425197,
          "duration": 0.0885416666666714
        },
        {
          "name": "G2",
          "midi": 43,
          "time": 45.07291666666687,
          "velocity": 0.6299212598425197,
          "duration": 0.3828125000000071
        },
        {
          "name": "D5",
          "midi": 74,
          "time": 45.109375000000206,
          "velocity": 0.6299212598425197,
          "duration": 0.5182291666666785
        },
        {
          "name": "G5",
          "midi": 79,
          "time": 45.109375000000206,
          "velocity": 0.6299212598425197,
          "duration": 0.5182291666666785
        },
        {
          "name": "A#5",
          "midi": 82,
          "time": 45.109375000000206,
          "velocity": 0.6299212598425197,
          "duration": 0.5182291666666785
        },
        {
          "name": "D3",
          "midi": 50,
          "time": 45.34895833333354,
          "velocity": 0.6299212598425197,
          "duration": 0.2187500000000071
        },
        {
          "name": "A#3",
          "midi": 58,
          "time": 45.56250000000021,
          "velocity": 0.6299212598425197,
          "duration": 0.3854166666666785
        },
        {
          "name": "C#5",
          "midi": 73,
          "time": 45.744791666666885,
          "velocity": 0.6299212598425197,
          "duration": 0.0703125
        },
        {
          "name": "D5",
          "midi": 74,
          "time": 45.799479166666885,
          "velocity": 0.6299212598425197,
          "duration": 0.0833333333333357
        },
        {
          "name": "F5",
          "midi": 77,
          "time": 45.919270833333556,
          "velocity": 0.6299212598425197,
          "duration": 0.0546875
        },
        {
          "name": "A4",
          "midi": 69,
          "time": 46.028645833333556,
          "velocity": 0.6299212598425197,
          "duration": 0.0963541666666714
        },
        {
          "name": "B3",
          "midi": 59,
          "time": 46.03385416666689,
          "velocity": 0.6299212598425197,
          "duration": 0.1145833333333357
        },
        {
          "name": "D4",
          "midi": 62,
          "time": 46.03385416666689,
          "velocity": 0.6299212598425197,
          "duration": 0.1276041666666714
        },
        {
          "name": "F4",
          "midi": 65,
          "time": 46.03385416666689,
          "velocity": 0.6299212598425197,
          "duration": 0.1145833333333357
        },
        {
          "name": "D5",
          "midi": 74,
          "time": 46.03385416666689,
          "velocity": 0.6299212598425197,
          "duration": 0.1145833333333357
        },
        {
          "name": "F5",
          "midi": 77,
          "time": 46.03385416666689,
          "velocity": 0.6299212598425197,
          "duration": 0.1145833333333357
        },
        {
          "name": "A5",
          "midi": 81,
          "time": 46.04687500000023,
          "velocity": 0.6299212598425197,
          "duration": 0.1015625
        },
        {
          "name": "D4",
          "midi": 62,
          "time": 46.25520833333356,
          "velocity": 0.6299212598425197,
          "duration": 0.1145833333333357
        },
        {
          "name": "F5",
          "midi": 77,
          "time": 46.25520833333356,
          "velocity": 0.6299212598425197,
          "duration": 0.1197916666666714
        },
        {
          "name": "B3",
          "midi": 59,
          "time": 46.2604166666669,
          "velocity": 0.6299212598425197,
          "duration": 0.109375
        },
        {
          "name": "F4",
          "midi": 65,
          "time": 46.2604166666669,
          "velocity": 0.6299212598425197,
          "duration": 0.1171875
        },
        {
          "name": "G4",
          "midi": 67,
          "time": 46.2604166666669,
          "velocity": 0.6299212598425197,
          "duration": 0.0833333333333357
        },
        {
          "name": "D5",
          "midi": 74,
          "time": 46.265625000000234,
          "velocity": 0.6299212598425197,
          "duration": 0.109375
        },
        {
          "name": "G5",
          "midi": 79,
          "time": 46.265625000000234,
          "velocity": 0.6299212598425197,
          "duration": 0.1041666666666643
        },
        {
          "name": "A4",
          "midi": 69,
          "time": 46.4791666666669,
          "velocity": 0.6299212598425197,
          "duration": 0.1119791666666714
        },
        {
          "name": "A5",
          "midi": 81,
          "time": 46.4791666666669,
          "velocity": 0.6299212598425197,
          "duration": 0.1119791666666714
        },
        {
          "name": "B3",
          "midi": 59,
          "time": 46.484375000000234,
          "velocity": 0.6299212598425197,
          "duration": 0.1067708333333357
        },
        {
          "name": "D4",
          "midi": 62,
          "time": 46.484375000000234,
          "velocity": 0.6299212598425197,
          "duration": 0.1067708333333357
        },
        {
          "name": "F4",
          "midi": 65,
          "time": 46.484375000000234,
          "velocity": 0.6299212598425197,
          "duration": 0.1067708333333357
        },
        {
          "name": "D5",
          "midi": 74,
          "time": 46.484375000000234,
          "velocity": 0.6299212598425197,
          "duration": 0.078125
        },
        {
          "name": "F5",
          "midi": 77,
          "time": 46.484375000000234,
          "velocity": 0.6299212598425197,
          "duration": 0.1067708333333357
        },
        {
          "name": "B3",
          "midi": 59,
          "time": 46.710937500000234,
          "velocity": 0.6299212598425197,
          "duration": 0.1197916666666714
        },
        {
          "name": "D4",
          "midi": 62,
          "time": 46.710937500000234,
          "velocity": 0.6299212598425197,
          "duration": 0.1197916666666714
        },
        {
          "name": "F4",
          "midi": 65,
          "time": 46.710937500000234,
          "velocity": 0.6299212598425197,
          "duration": 0.1197916666666714
        },
        {
          "name": "G4",
          "midi": 67,
          "time": 46.710937500000234,
          "velocity": 0.6299212598425197,
          "duration": 0.1197916666666714
        },
        {
          "name": "D5",
          "midi": 74,
          "time": 46.710937500000234,
          "velocity": 0.6299212598425197,
          "duration": 0.1197916666666714
        },
        {
          "name": "F5",
          "midi": 77,
          "time": 46.710937500000234,
          "velocity": 0.6299212598425197,
          "duration": 0.1197916666666714
        },
        {
          "name": "G5",
          "midi": 79,
          "time": 46.71614583333357,
          "velocity": 0.6299212598425197,
          "duration": 0.1145833333333357
        },
        {
          "name": "C4",
          "midi": 60,
          "time": 46.96875000000024,
          "velocity": 0.6299212598425197,
          "duration": 0.1171875
        },
        {
          "name": "F4",
          "midi": 65,
          "time": 46.96875000000024,
          "velocity": 0.6299212598425197,
          "duration": 0.1171875
        },
        {
          "name": "A4",
          "midi": 69,
          "time": 46.96875000000024,
          "velocity": 0.6299212598425197,
          "duration": 0.1171875
        },
        {
          "name": "F5",
          "midi": 77,
          "time": 46.96875000000024,
          "velocity": 0.6299212598425197,
          "duration": 0.1171875
        },
        {
          "name": "D5",
          "midi": 74,
          "time": 46.97395833333358,
          "velocity": 0.6299212598425197,
          "duration": 0.1119791666666643
        },
        {
          "name": "A5",
          "midi": 81,
          "time": 46.97395833333358,
          "velocity": 0.6299212598425197,
          "duration": 0.1119791666666643
        },
        {
          "name": "D6",
          "midi": 86,
          "time": 46.97395833333358,
          "velocity": 0.6299212598425197,
          "duration": 0.1119791666666643
        },
        {
          "name": "A3",
          "midi": 57,
          "time": 47.21093750000024,
          "velocity": 0.6299212598425197,
          "duration": 0.0911458333333357
        },
        {
          "name": "F4",
          "midi": 65,
          "time": 47.21093750000024,
          "velocity": 0.6299212598425197,
          "duration": 0.078125
        },
        {
          "name": "A4",
          "midi": 69,
          "time": 47.21093750000024,
          "velocity": 0.6299212598425197,
          "duration": 0.078125
        },
        {
          "name": "C5",
          "midi": 72,
          "time": 47.21093750000024,
          "velocity": 0.6299212598425197,
          "duration": 0.078125
        },
        {
          "name": "F5",
          "midi": 77,
          "time": 47.21093750000024,
          "velocity": 0.6299212598425197,
          "duration": 0.078125
        },
        {
          "name": "A5",
          "midi": 81,
          "time": 47.21093750000024,
          "velocity": 0.6299212598425197,
          "duration": 0.1067708333333357
        },
        {
          "name": "C6",
          "midi": 84,
          "time": 47.21093750000024,
          "velocity": 0.6299212598425197,
          "duration": 0.1197916666666714
        },
        {
          "name": "F#4",
          "midi": 66,
          "time": 47.44270833333358,
          "velocity": 0.6299212598425197,
          "duration": 0.1197916666666714
        },
        {
          "name": "A3",
          "midi": 57,
          "time": 47.44791666666691,
          "velocity": 0.6299212598425197,
          "duration": 0.3411458333333428
        },
        {
          "name": "F#5",
          "midi": 78,
          "time": 47.44791666666691,
          "velocity": 0.6299212598425197,
          "duration": 0.109375
        },
        {
          "name": "A5",
          "midi": 81,
          "time": 47.44791666666691,
          "velocity": 0.6299212598425197,
          "duration": 0.109375
        },
        {
          "name": "D6",
          "midi": 86,
          "time": 47.44791666666691,
          "velocity": 0.6299212598425197,
          "duration": 0.109375
        },
        {
          "name": "D5",
          "midi": 74,
          "time": 47.45312500000025,
          "velocity": 0.6299212598425197,
          "duration": 0.1041666666666643
        },
        {
          "name": "D4",
          "midi": 62,
          "time": 47.669270833333584,
          "velocity": 0.6299212598425197,
          "duration": 0.1197916666666714
        },
        {
          "name": "F#4",
          "midi": 66,
          "time": 47.669270833333584,
          "velocity": 0.6299212598425197,
          "duration": 0.1067708333333357
        },
        {
          "name": "C5",
          "midi": 72,
          "time": 47.67447916666692,
          "velocity": 0.6299212598425197,
          "duration": 0.1015625
        },
        {
          "name": "F#5",
          "midi": 78,
          "time": 47.67447916666692,
          "velocity": 0.6299212598425197,
          "duration": 0.1145833333333357
        },
        {
          "name": "A5",
          "midi": 81,
          "time": 47.67447916666692,
          "velocity": 0.6299212598425197,
          "duration": 0.1015625
        },
        {
          "name": "C6",
          "midi": 84,
          "time": 47.67447916666692,
          "velocity": 0.6299212598425197,
          "duration": 0.1145833333333357
        },
        {
          "name": "B3",
          "midi": 59,
          "time": 47.90885416666692,
          "velocity": 0.6299212598425197,
          "duration": 0.3411458333333286
        },
        {
          "name": "F4",
          "midi": 65,
          "time": 47.914062500000256,
          "velocity": 0.6299212598425197,
          "duration": 0.1197916666666643
        },
        {
          "name": "C#5",
          "midi": 73,
          "time": 48.08854166666692,
          "velocity": 0.6299212598425197,
          "duration": 0.0729166666666643
        },
        {
          "name": "D4",
          "midi": 62,
          "time": 48.13541666666692,
          "velocity": 0.6299212598425197,
          "duration": 0.1276041666666643
        },
        {
          "name": "F4",
          "midi": 65,
          "time": 48.13541666666692,
          "velocity": 0.6299212598425197,
          "duration": 0.1145833333333286
        },
        {
          "name": "D5",
          "midi": 74,
          "time": 48.13541666666692,
          "velocity": 0.6299212598425197,
          "duration": 0.1276041666666643
        },
        {
          "name": "F5",
          "midi": 77,
          "time": 48.32291666666692,
          "velocity": 0.6299212598425197,
          "duration": 0.0833333333333286
        },
        {
          "name": "A#3",
          "midi": 58,
          "time": 48.372395833333584,
          "velocity": 0.6299212598425197,
          "duration": 0.3645833333333357
        },
        {
          "name": "E4",
          "midi": 64,
          "time": 48.372395833333584,
          "velocity": 0.6299212598425197,
          "duration": 0.0807291666666643
        },
        {
          "name": "A5",
          "midi": 81,
          "time": 48.372395833333584,
          "velocity": 0.6299212598425197,
          "duration": 0.1119791666666643
        },
        {
          "name": "G5",
          "midi": 79,
          "time": 48.497395833333584,
          "velocity": 0.6299212598425197,
          "duration": 0.0703125
        },
        {
          "name": "E4",
          "midi": 64,
          "time": 48.60416666666692,
          "velocity": 0.6299212598425197,
          "duration": 0.1328125
        },
        {
          "name": "E5",
          "midi": 76,
          "time": 48.60416666666692,
          "velocity": 0.6299212598425197,
          "duration": 0.1328125
        },
        {
          "name": "C5",
          "midi": 72,
          "time": 48.73697916666692,
          "velocity": 0.6299212598425197,
          "duration": 0.0833333333333357
        },
        {
          "name": "A3",
          "midi": 57,
          "time": 48.86458333333359,
          "velocity": 0.6299212598425197,
          "duration": 0.0937500000000071
        },
        {
          "name": "C4",
          "midi": 60,
          "time": 48.86458333333359,
          "velocity": 0.6299212598425197,
          "duration": 0.0885416666666714
        },
        {
          "name": "F4",
          "midi": 65,
          "time": 48.86458333333359,
          "velocity": 0.6299212598425197,
          "duration": 0.0937500000000071
        },
        {
          "name": "F5",
          "midi": 77,
          "time": 48.86458333333359,
          "velocity": 0.6299212598425197,
          "duration": 0.0937500000000071
        },
        {
          "name": "E2",
          "midi": 40,
          "time": 49.28125000000026,
          "velocity": 0.6299212598425197,
          "duration": 0.3880208333333357
        },
        {
          "name": "G#3",
          "midi": 56,
          "time": 49.3723958333336,
          "velocity": 0.6299212598425197,
          "duration": 0.296875
        },
        {
          "name": "D4",
          "midi": 62,
          "time": 49.3723958333336,
          "velocity": 0.6299212598425197,
          "duration": 0.2057291666666643
        },
        {
          "name": "G#4",
          "midi": 68,
          "time": 49.3723958333336,
          "velocity": 0.6299212598425197,
          "duration": 0.296875
        },
        {
          "name": "C5",
          "midi": 72,
          "time": 49.3723958333336,
          "velocity": 0.6299212598425197,
          "duration": 0.2838541666666643
        },
        {
          "name": "E5",
          "midi": 76,
          "time": 49.3723958333336,
          "velocity": 0.6299212598425197,
          "duration": 0.296875
        },
        {
          "name": "B2",
          "midi": 47,
          "time": 49.37500000000026,
          "velocity": 0.6299212598425197,
          "duration": 0.2942708333333357
        },
        {
          "name": "B4",
          "midi": 71,
          "time": 49.73437500000026,
          "velocity": 0.6299212598425197,
          "duration": 0.0807291666666643
        },
        {
          "name": "A2",
          "midi": 45,
          "time": 49.81250000000026,
          "velocity": 0.6299212598425197,
          "duration": 0.2187499999999929
        },
        {
          "name": "C5",
          "midi": 72,
          "time": 49.84114583333359,
          "velocity": 0.6299212598425197,
          "duration": 0.0833333333333357
        },
        {
          "name": "D5",
          "midi": 74,
          "time": 49.91927083333359,
          "velocity": 0.6299212598425197,
          "duration": 0.09375
        },
        {
          "name": "C5",
          "midi": 72,
          "time": 50.01302083333359,
          "velocity": 0.6299212598425197,
          "duration": 0.078125
        },
        {
          "name": "E3",
          "midi": 52,
          "time": 50.05729166666692,
          "velocity": 0.6299212598425197,
          "duration": 0.1250000000000071
        },
        {
          "name": "C4",
          "midi": 60,
          "time": 50.062500000000256,
          "velocity": 0.6299212598425197,
          "duration": 0.1197916666666714
        },
        {
          "name": "A4",
          "midi": 69,
          "time": 50.062500000000256,
          "velocity": 0.6299212598425197,
          "duration": 0.1197916666666714
        },
        {
          "name": "A#4",
          "midi": 70,
          "time": 50.24739583333359,
          "velocity": 0.6299212598425197,
          "duration": 0.078125
        },
        {
          "name": "E2",
          "midi": 40,
          "time": 50.30208333333359,
          "velocity": 0.6299212598425197,
          "duration": 0.2760416666666714
        },
        {
          "name": "B4",
          "midi": 71,
          "time": 50.30208333333359,
          "velocity": 0.6299212598425197,
          "duration": 0.1145833333333357
        },
        {
          "name": "B2",
          "midi": 47,
          "time": 50.38020833333359,
          "velocity": 0.6299212598425197,
          "duration": 0.2213541666666714
        },
        {
          "name": "G#3",
          "midi": 56,
          "time": 50.41145833333359,
          "velocity": 0.6299212598425197,
          "duration": 0.1718750000000071
        },
        {
          "name": "D4",
          "midi": 62,
          "time": 50.41145833333359,
          "velocity": 0.6299212598425197,
          "duration": 0.1536458333333357
        },
        {
          "name": "G#4",
          "midi": 68,
          "time": 50.41145833333359,
          "velocity": 0.6299212598425197,
          "duration": 0.1666666666666714
        },
        {
          "name": "E5",
          "midi": 76,
          "time": 50.41145833333359,
          "velocity": 0.6299212598425197,
          "duration": 0.1666666666666714
        },
        {
          "name": "D5",
          "midi": 74,
          "time": 50.6302083333336,
          "velocity": 0.6299212598425197,
          "duration": 0.1041666666666643
        },
        {
          "name": "C5",
          "midi": 72,
          "time": 50.75781250000026,
          "velocity": 0.6299212598425197,
          "duration": 0.078125
        },
        {
          "name": "A2",
          "midi": 45,
          "time": 50.7630208333336,
          "velocity": 0.6299212598425197,
          "duration": 0.1979166666666714
        },
        {
          "name": "D5",
          "midi": 74,
          "time": 50.8411458333336,
          "velocity": 0.6299212598425197,
          "duration": 0.0833333333333357
        },
        {
          "name": "C5",
          "midi": 72,
          "time": 50.93750000000027,
          "velocity": 0.6299212598425197,
          "duration": 0.0833333333333357
        },
        {
          "name": "E3",
          "midi": 52,
          "time": 50.986979166666934,
          "velocity": 0.6299212598425197,
          "duration": 0.1953125
        },
        {
          "name": "A4",
          "midi": 69,
          "time": 50.99218750000027,
          "velocity": 0.6299212598425197,
          "duration": 0.125
        },
        {
          "name": "C4",
          "midi": 60,
          "time": 50.997395833333606,
          "velocity": 0.6299212598425197,
          "duration": 0.0885416666666643
        },
        {
          "name": "A#4",
          "midi": 70,
          "time": 51.18750000000027,
          "velocity": 0.6299212598425197,
          "duration": 0.0911458333333286
        },
        {
          "name": "E2",
          "midi": 40,
          "time": 51.24218750000027,
          "velocity": 0.6299212598425197,
          "duration": 0.2057291666666643
        },
        {
          "name": "B4",
          "midi": 71,
          "time": 51.252604166666934,
          "velocity": 0.6299212598425197,
          "duration": 0.109375
        },
        {
          "name": "B2",
          "midi": 47,
          "time": 51.36718750000027,
          "velocity": 0.6299212598425197,
          "duration": 0.1588541666666643
        },
        {
          "name": "D4",
          "midi": 62,
          "time": 51.36718750000027,
          "velocity": 0.6299212598425197,
          "duration": 0.1588541666666643
        },
        {
          "name": "G#4",
          "midi": 68,
          "time": 51.36718750000027,
          "velocity": 0.6299212598425197,
          "duration": 0.1588541666666643
        },
        {
          "name": "E5",
          "midi": 76,
          "time": 51.36718750000027,
          "velocity": 0.6299212598425197,
          "duration": 0.171875
        },
        {
          "name": "G#3",
          "midi": 56,
          "time": 51.38281250000027,
          "velocity": 0.6299212598425197,
          "duration": 0.1432291666666643
        },
        {
          "name": "D5",
          "midi": 74,
          "time": 51.611979166666934,
          "velocity": 0.6299212598425197,
          "duration": 0.0885416666666643
        },
        {
          "name": "A2",
          "midi": 45,
          "time": 51.736979166666934,
          "velocity": 0.6299212598425197,
          "duration": 0.1848958333333286
        },
        {
          "name": "C5",
          "midi": 72,
          "time": 51.736979166666934,
          "velocity": 0.6299212598425197,
          "duration": 0.0729166666666643
        },
        {
          "name": "D5",
          "midi": 74,
          "time": 51.8098958333336,
          "velocity": 0.6299212598425197,
          "duration": 0.09375
        },
        {
          "name": "C5",
          "midi": 72,
          "time": 51.89843750000026,
          "velocity": 0.6299212598425197,
          "duration": 0.0833333333333357
        },
        {
          "name": "E3",
          "midi": 52,
          "time": 51.94531250000026,
          "velocity": 0.6299212598425197,
          "duration": 0.1432291666666714
        },
        {
          "name": "A4",
          "midi": 69,
          "time": 51.9505208333336,
          "velocity": 0.6299212598425197,
          "duration": 0.1197916666666714
        },
        {
          "name": "C4",
          "midi": 60,
          "time": 51.955729166666934,
          "velocity": 0.6299212598425197,
          "duration": 0.0859375
        },
        {
          "name": "A#4",
          "midi": 70,
          "time": 52.130208333333606,
          "velocity": 0.6299212598425197,
          "duration": 0.0859375
        },
        {
          "name": "E2",
          "midi": 40,
          "time": 52.19010416666694,
          "velocity": 0.6299212598425197,
          "duration": 0.1380208333333286
        },
        {
          "name": "B4",
          "midi": 71,
          "time": 52.19010416666694,
          "velocity": 0.6299212598425197,
          "duration": 0.1145833333333286
        },
        {
          "name": "B2",
          "midi": 47,
          "time": 52.28125000000027,
          "velocity": 0.6299212598425197,
          "duration": 0.1927083333333357
        },
        {
          "name": "D4",
          "midi": 62,
          "time": 52.299479166666934,
          "velocity": 0.6299212598425197,
          "duration": 0.1744791666666714
        },
        {
          "name": "G#3",
          "midi": 56,
          "time": 52.30468750000027,
          "velocity": 0.6299212598425197,
          "duration": 0.1692708333333357
        },
        {
          "name": "E5",
          "midi": 76,
          "time": 52.30468750000027,
          "velocity": 0.6299212598425197,
          "duration": 0.1692708333333357
        },
        {
          "name": "G#4",
          "midi": 68,
          "time": 52.30468750000027,
          "velocity": 0.6299212598425197,
          "duration": 0.1692708333333357
        },
        {
          "name": "C5",
          "midi": 72,
          "time": 52.50000000000027,
          "velocity": 0.6299212598425197,
          "duration": 0.0885416666666643
        },
        {
          "name": "A2",
          "midi": 45,
          "time": 52.6145833333336,
          "velocity": 0.6299212598425197,
          "duration": 0.2265625
        },
        {
          "name": "A4",
          "midi": 69,
          "time": 52.6380208333336,
          "velocity": 0.6299212598425197,
          "duration": 0.1197916666666643
        },
        {
          "name": "A4",
          "midi": 69,
          "time": 52.8723958333336,
          "velocity": 0.6299212598425197,
          "duration": 0.1119791666666643
        },
        {
          "name": "A#5",
          "midi": 82,
          "time": 52.8723958333336,
          "velocity": 0.6299212598425197,
          "duration": 0.1119791666666643
        },
        {
          "name": "E3",
          "midi": 52,
          "time": 52.87500000000026,
          "velocity": 0.6299212598425197,
          "duration": 0.1145833333333357
        },
        {
          "name": "C#4",
          "midi": 61,
          "time": 52.87500000000026,
          "velocity": 0.6299212598425197,
          "duration": 0.109375
        },
        {
          "name": "G4",
          "midi": 67,
          "time": 52.87500000000026,
          "velocity": 0.6299212598425197,
          "duration": 0.109375
        },
        {
          "name": "C#5",
          "midi": 73,
          "time": 52.87500000000026,
          "velocity": 0.6299212598425197,
          "duration": 0.109375
        },
        {
          "name": "A2",
          "midi": 45,
          "time": 53.049479166666934,
          "velocity": 0.6299212598425197,
          "duration": 0.1770833333333357
        },
        {
          "name": "E3",
          "midi": 52,
          "time": 53.1145833333336,
          "velocity": 0.6299212598425197,
          "duration": 0.2968750000000071
        },
        {
          "name": "C#4",
          "midi": 61,
          "time": 53.1145833333336,
          "velocity": 0.6299212598425197,
          "duration": 0.2968750000000071
        },
        {
          "name": "G4",
          "midi": 67,
          "time": 53.1145833333336,
          "velocity": 0.6299212598425197,
          "duration": 0.1119791666666714
        },
        {
          "name": "A4",
          "midi": 69,
          "time": 53.1145833333336,
          "velocity": 0.6299212598425197,
          "duration": 0.1119791666666714
        },
        {
          "name": "C#5",
          "midi": 73,
          "time": 53.1145833333336,
          "velocity": 0.6299212598425197,
          "duration": 0.1119791666666714
        },
        {
          "name": "A#5",
          "midi": 82,
          "time": 53.1145833333336,
          "velocity": 0.6299212598425197,
          "duration": 0.1067708333333357
        },
        {
          "name": "G4",
          "midi": 67,
          "time": 53.346354166666934,
          "velocity": 0.6299212598425197,
          "duration": 0.1302083333333428
        },
        {
          "name": "A4",
          "midi": 69,
          "time": 53.364583333333606,
          "velocity": 0.6299212598425197,
          "duration": 0.1119791666666714
        },
        {
          "name": "C#5",
          "midi": 73,
          "time": 53.364583333333606,
          "velocity": 0.6299212598425197,
          "duration": 0.1015625
        },
        {
          "name": "A5",
          "midi": 81,
          "time": 53.364583333333606,
          "velocity": 0.6299212598425197,
          "duration": 0.1067708333333357
        },
        {
          "name": "D2",
          "midi": 38,
          "time": 53.58854166666694,
          "velocity": 0.6299212598425197,
          "duration": 0.1484375000000071
        },
        {
          "name": "F5",
          "midi": 77,
          "time": 53.58854166666694,
          "velocity": 0.6299212598425197,
          "duration": 0.0885416666666714
        },
        {
          "name": "A2",
          "midi": 45,
          "time": 53.59375000000028,
          "velocity": 0.6299212598425197,
          "duration": 0.1432291666666714
        },
        {
          "name": "G5",
          "midi": 79,
          "time": 53.67708333333361,
          "velocity": 0.6299212598425197,
          "duration": 0.0833333333333357
        },
        {
          "name": "F5",
          "midi": 77,
          "time": 53.765625000000284,
          "velocity": 0.6299212598425197,
          "duration": 0.0833333333333357
        },
        {
          "name": "A3",
          "midi": 57,
          "time": 53.812500000000284,
          "velocity": 0.6299212598425197,
          "duration": 0.0885416666666714
        },
        {
          "name": "D4",
          "midi": 62,
          "time": 53.812500000000284,
          "velocity": 0.6299212598425197,
          "duration": 0.0833333333333357
        },
        {
          "name": "F4",
          "midi": 65,
          "time": 53.812500000000284,
          "velocity": 0.6299212598425197,
          "duration": 0.0833333333333357
        },
        {
          "name": "D5",
          "midi": 74,
          "time": 53.812500000000284,
          "velocity": 0.6299212598425197,
          "duration": 0.1197916666666714
        },
        {
          "name": "D#5",
          "midi": 75,
          "time": 53.986979166666956,
          "velocity": 0.6299212598425197,
          "duration": 0.0833333333333357
        },
        {
          "name": "A1",
          "midi": 33,
          "time": 54.04687500000029,
          "velocity": 0.6299212598425197,
          "duration": 0.1197916666666714
        },
        {
          "name": "E5",
          "midi": 76,
          "time": 54.04687500000029,
          "velocity": 0.6299212598425197,
          "duration": 0.1145833333333357
        },
        {
          "name": "G4",
          "midi": 67,
          "time": 54.16145833333363,
          "velocity": 0.6299212598425197,
          "duration": 0.171875
        },
        {
          "name": "C#5",
          "midi": 73,
          "time": 54.16145833333363,
          "velocity": 0.6299212598425197,
          "duration": 0.171875
        },
        {
          "name": "A5",
          "midi": 81,
          "time": 54.16145833333363,
          "velocity": 0.6299212598425197,
          "duration": 0.171875
        },
        {
          "name": "A3",
          "midi": 57,
          "time": 54.27864583333363,
          "velocity": 0.6299212598425197,
          "duration": 0.0859375
        },
        {
          "name": "C#4",
          "midi": 61,
          "time": 54.27864583333363,
          "velocity": 0.6299212598425197,
          "duration": 0.0859375
        },
        {
          "name": "E4",
          "midi": 64,
          "time": 54.27864583333363,
          "velocity": 0.6299212598425197,
          "duration": 0.0859375
        },
        {
          "name": "G5",
          "midi": 79,
          "time": 54.40625000000029,
          "velocity": 0.6299212598425197,
          "duration": 0.0729166666666643
        },
        {
          "name": "D2",
          "midi": 38,
          "time": 54.50781250000029,
          "velocity": 0.6299212598425197,
          "duration": 0.1484375000000071
        },
        {
          "name": "F5",
          "midi": 77,
          "time": 54.51302083333363,
          "velocity": 0.6299212598425197,
          "duration": 0.0833333333333357
        },
        {
          "name": "G5",
          "midi": 79,
          "time": 54.6015625000003,
          "velocity": 0.6299212598425197,
          "duration": 0.0859375
        },
        {
          "name": "F5",
          "midi": 77,
          "time": 54.6875000000003,
          "velocity": 0.6299212598425197,
          "duration": 0.0885416666666643
        },
        {
          "name": "A3",
          "midi": 57,
          "time": 54.7421875000003,
          "velocity": 0.6299212598425197,
          "duration": 0.0807291666666643
        },
        {
          "name": "D4",
          "midi": 62,
          "time": 54.7421875000003,
          "velocity": 0.6299212598425197,
          "duration": 0.0807291666666643
        },
        {
          "name": "F4",
          "midi": 65,
          "time": 54.7421875000003,
          "velocity": 0.6299212598425197,
          "duration": 0.0807291666666643
        },
        {
          "name": "D5",
          "midi": 74,
          "time": 54.7421875000003,
          "velocity": 0.6299212598425197,
          "duration": 0.1171875
        },
        {
          "name": "D#5",
          "midi": 75,
          "time": 54.92447916666696,
          "velocity": 0.6299212598425197,
          "duration": 0.0833333333333357
        },
        {
          "name": "A1",
          "midi": 33,
          "time": 54.97916666666696,
          "velocity": 0.6299212598425197,
          "duration": 0.1302083333333428
        },
        {
          "name": "E5",
          "midi": 76,
          "time": 54.9921875000003,
          "velocity": 0.6299212598425197,
          "duration": 0.1119791666666714
        },
        {
          "name": "C#5",
          "midi": 73,
          "time": 55.098958333333634,
          "velocity": 0.6299212598425197,
          "duration": 0.1770833333333357
        },
        {
          "name": "G4",
          "midi": 67,
          "time": 55.10416666666697,
          "velocity": 0.6299212598425197,
          "duration": 0.1770833333333357
        },
        {
          "name": "A4",
          "midi": 69,
          "time": 55.10416666666697,
          "velocity": 0.6299212598425197,
          "duration": 0.1770833333333357
        },
        {
          "name": "A5",
          "midi": 81,
          "time": 55.109375000000306,
          "velocity": 0.6299212598425197,
          "duration": 0.171875
        },
        {
          "name": "A3",
          "midi": 57,
          "time": 55.22916666666697,
          "velocity": 0.6299212598425197,
          "duration": 0.0859375
        },
        {
          "name": "C#4",
          "midi": 61,
          "time": 55.22916666666697,
          "velocity": 0.6299212598425197,
          "duration": 0.0859375
        },
        {
          "name": "F4",
          "midi": 65,
          "time": 55.234375000000306,
          "velocity": 0.6299212598425197,
          "duration": 0.0807291666666643
        },
        {
          "name": "G5",
          "midi": 79,
          "time": 55.364583333333634,
          "velocity": 0.6299212598425197,
          "duration": 0.0885416666666643
        },
        {
          "name": "D2",
          "midi": 38,
          "time": 55.4531250000003,
          "velocity": 0.6299212598425197,
          "duration": 0.1510416666666643
        },
        {
          "name": "D3",
          "midi": 50,
          "time": 55.4843750000003,
          "velocity": 0.6299212598425197,
          "duration": 0.1302083333333357
        },
        {
          "name": "F5",
          "midi": 77,
          "time": 55.4843750000003,
          "velocity": 0.6299212598425197,
          "duration": 0.09375
        },
        {
          "name": "G5",
          "midi": 79,
          "time": 55.6093750000003,
          "velocity": 0.6299212598425197,
          "duration": 0.0963541666666714
        },
        {
          "name": "F5",
          "midi": 77,
          "time": 55.68229166666697,
          "velocity": 0.6299212598425197,
          "duration": 0.0885416666666714
        },
        {
          "name": "A3",
          "midi": 57,
          "time": 55.742187500000306,
          "velocity": 0.6299212598425197,
          "duration": 0.0885416666666714
        },
        {
          "name": "D4",
          "midi": 62,
          "time": 55.74739583333364,
          "velocity": 0.6299212598425197,
          "duration": 0.0833333333333357
        },
        {
          "name": "F4",
          "midi": 65,
          "time": 55.74739583333364,
          "velocity": 0.6299212598425197,
          "duration": 0.0833333333333357
        },
        {
          "name": "D5",
          "midi": 74,
          "time": 55.74739583333364,
          "velocity": 0.6299212598425197,
          "duration": 0.1197916666666714
        },
        {
          "name": "D#5",
          "midi": 75,
          "time": 55.92187500000031,
          "velocity": 0.6299212598425197,
          "duration": 0.0937500000000071
        },
        {
          "name": "A1",
          "midi": 33,
          "time": 55.96875000000031,
          "velocity": 0.6299212598425197,
          "duration": 0.1354166666666785
        },
        {
          "name": "E5",
          "midi": 76,
          "time": 55.98177083333365,
          "velocity": 0.6299212598425197,
          "duration": 0.1171875000000071
        },
        {
          "name": "A2",
          "midi": 45,
          "time": 55.986979166666984,
          "velocity": 0.6299212598425197,
          "duration": 0.1171875000000071
        },
        {
          "name": "A4",
          "midi": 69,
          "time": 56.098958333333655,
          "velocity": 0.6299212598425197,
          "duration": 0.1718750000000071
        },
        {
          "name": "C#5",
          "midi": 73,
          "time": 56.098958333333655,
          "velocity": 0.6299212598425197,
          "duration": 0.1588541666666714
        },
        {
          "name": "A5",
          "midi": 81,
          "time": 56.098958333333655,
          "velocity": 0.6299212598425197,
          "duration": 0.1718750000000071
        },
        {
          "name": "G4",
          "midi": 67,
          "time": 56.10416666666699,
          "velocity": 0.6299212598425197,
          "duration": 0.1536458333333357
        },
        {
          "name": "C#4",
          "midi": 61,
          "time": 56.19791666666699,
          "velocity": 0.6299212598425197,
          "duration": 0.1041666666666714
        },
        {
          "name": "A3",
          "midi": 57,
          "time": 56.20312500000033,
          "velocity": 0.6299212598425197,
          "duration": 0.0989583333333357
        },
        {
          "name": "F4",
          "midi": 65,
          "time": 56.20312500000033,
          "velocity": 0.6299212598425197,
          "duration": 0.0989583333333357
        },
        {
          "name": "F5",
          "midi": 77,
          "time": 56.32552083333366,
          "velocity": 0.6299212598425197,
          "duration": 0.3489583333333428
        },
        {
          "name": "D2",
          "midi": 38,
          "time": 56.43750000000033,
          "velocity": 0.6299212598425197,
          "duration": 0.1848958333333428
        },
        {
          "name": "A4",
          "midi": 69,
          "time": 56.447916666667,
          "velocity": 0.6299212598425197,
          "duration": 0.3072916666666714
        },
        {
          "name": "D5",
          "midi": 74,
          "time": 56.447916666667,
          "velocity": 0.6299212598425197,
          "duration": 0.3072916666666714
        },
        {
          "name": "D3",
          "midi": 50,
          "time": 56.453125000000334,
          "velocity": 0.6299212598425197,
          "duration": 0.1692708333333357
        },
        {
          "name": "F4",
          "midi": 65,
          "time": 56.66927083333367,
          "velocity": 0.6299212598425197,
          "duration": 0.0859375
        },
        {
          "name": "A3",
          "midi": 57,
          "time": 56.674479166667005,
          "velocity": 0.6299212598425197,
          "duration": 0.0807291666666643
        },
        {
          "name": "D4",
          "midi": 62,
          "time": 56.674479166667005,
          "velocity": 0.6299212598425197,
          "duration": 0.0807291666666643
        },
        {
          "name": "F5",
          "midi": 77,
          "time": 56.781250000000334,
          "velocity": 0.6299212598425197,
          "duration": 0.2317708333333428
        },
        {
          "name": "A#3",
          "midi": 58,
          "time": 56.88802083333367,
          "velocity": 0.6299212598425197,
          "duration": 0.0833333333333357
        },
        {
          "name": "A4",
          "midi": 69,
          "time": 56.88802083333367,
          "velocity": 0.6299212598425197,
          "duration": 0.3333333333333428
        },
        {
          "name": "D5",
          "midi": 74,
          "time": 56.88802083333367,
          "velocity": 0.6299212598425197,
          "duration": 0.1250000000000071
        },
        {
          "name": "A#2",
          "midi": 46,
          "time": 56.893229166667005,
          "velocity": 0.6299212598425197,
          "duration": 0.0911458333333357
        },
        {
          "name": "C#5",
          "midi": 73,
          "time": 57.06770833333368,
          "velocity": 0.6299212598425197,
          "duration": 0.0859375
        },
        {
          "name": "A2",
          "midi": 45,
          "time": 57.09895833333368,
          "velocity": 0.6299212598425197,
          "duration": 0.0911458333333357
        },
        {
          "name": "D5",
          "midi": 74,
          "time": 57.12760416666701,
          "velocity": 0.6299212598425197,
          "duration": 0.09375
        },
        {
          "name": "A3",
          "midi": 57,
          "time": 57.16666666666701,
          "velocity": 0.6299212598425197,
          "duration": 0.0833333333333357
        },
        {
          "name": "E5",
          "midi": 76,
          "time": 57.31510416666701,
          "velocity": 0.6299212598425197,
          "duration": 0.09375
        },
        {
          "name": "G#2",
          "midi": 44,
          "time": 57.34635416666701,
          "velocity": 0.6299212598425197,
          "duration": 0.0911458333333357
        },
        {
          "name": "B4",
          "midi": 71,
          "time": 57.38541666666701,
          "velocity": 0.6299212598425197,
          "duration": 0.1145833333333357
        },
        {
          "name": "D5",
          "midi": 74,
          "time": 57.38541666666701,
          "velocity": 0.6299212598425197,
          "duration": 0.1145833333333357
        },
        {
          "name": "F5",
          "midi": 77,
          "time": 57.39062500000035,
          "velocity": 0.6299212598425197,
          "duration": 0.109375
        },
        {
          "name": "G#3",
          "midi": 56,
          "time": 57.41406250000035,
          "velocity": 0.6299212598425197,
          "duration": 0.0859375
        },
        {
          "name": "E2",
          "midi": 40,
          "time": 57.60156250000035,
          "velocity": 0.6299212598425197,
          "duration": 0.0885416666666643
        },
        {
          "name": "B2",
          "midi": 47,
          "time": 57.62500000000035,
          "velocity": 0.6299212598425197,
          "duration": 0.0833333333333286
        },
        {
          "name": "B4",
          "midi": 71,
          "time": 57.62500000000035,
          "velocity": 0.6299212598425197,
          "duration": 0.1145833333333286
        },
        {
          "name": "D5",
          "midi": 74,
          "time": 57.62500000000035,
          "velocity": 0.6299212598425197,
          "duration": 0.1093749999999929
        },
        {
          "name": "F5",
          "midi": 77,
          "time": 57.62500000000035,
          "velocity": 0.6299212598425197,
          "duration": 0.1093749999999929
        },
        {
          "name": "E3",
          "midi": 52,
          "time": 57.65625000000035,
          "velocity": 0.6299212598425197,
          "duration": 0.0833333333333286
        },
        {
          "name": "E2",
          "midi": 40,
          "time": 57.82812500000034,
          "velocity": 0.6299212598425197,
          "duration": 0.0963541666666714
        },
        {
          "name": "B4",
          "midi": 71,
          "time": 57.854166666667005,
          "velocity": 0.6299212598425197,
          "duration": 0.0859375000000071
        },
        {
          "name": "D5",
          "midi": 74,
          "time": 57.85937500000034,
          "velocity": 0.6299212598425197,
          "duration": 0.0807291666666714
        },
        {
          "name": "F5",
          "midi": 77,
          "time": 57.87239583333368,
          "velocity": 0.6299212598425197,
          "duration": 0.0677083333333357
        },
        {
          "name": "F#3",
          "midi": 54,
          "time": 57.88802083333368,
          "velocity": 0.6299212598425197,
          "duration": 0.0885416666666714
        },
        {
          "name": "B2",
          "midi": 47,
          "time": 57.89322916666701,
          "velocity": 0.6299212598425197,
          "duration": 0.0833333333333357
        },
        {
          "name": "E5",
          "midi": 76,
          "time": 57.99479166666701,
          "velocity": 0.6299212598425197,
          "duration": 0.1614583333333357
        },
        {
          "name": "E2",
          "midi": 40,
          "time": 58.06510416666701,
          "velocity": 0.6299212598425197,
          "duration": 0.0963541666666714
        },
        {
          "name": "B2",
          "midi": 47,
          "time": 58.09635416666701,
          "velocity": 0.6299212598425197,
          "duration": 0.1171875000000071
        },
        {
          "name": "G3",
          "midi": 55,
          "time": 58.12500000000035,
          "velocity": 0.6299212598425197,
          "duration": 0.0885416666666714
        },
        {
          "name": "D5",
          "midi": 74,
          "time": 58.208333333333684,
          "velocity": 0.6299212598425197,
          "duration": 0.4791666666666714
        },
        {
          "name": "B5",
          "midi": 83,
          "time": 58.208333333333684,
          "velocity": 0.6299212598425197,
          "duration": 0.4921875000000071
        },
        {
          "name": "G#4",
          "midi": 68,
          "time": 58.218750000000355,
          "velocity": 0.6299212598425197,
          "duration": 0.4817708333333357
        },
        {
          "name": "E2",
          "midi": 40,
          "time": 58.296875000000355,
          "velocity": 0.6299212598425197,
          "duration": 0.2369791666666643
        },
        {
          "name": "B2",
          "midi": 47,
          "time": 58.33072916666702,
          "velocity": 0.6299212598425197,
          "duration": 0.28125
        },
        {
          "name": "G#3",
          "midi": 56,
          "time": 58.36197916666702,
          "velocity": 0.6299212598425197,
          "duration": 0.0755208333333357
        },
        {
          "name": "E3",
          "midi": 52,
          "time": 58.546875000000355,
          "velocity": 0.6299212598425197,
          "duration": 0.0807291666666643
        },
        {
          "name": "G#3",
          "midi": 56,
          "time": 58.55989583333369,
          "velocity": 0.6299212598425197,
          "duration": 0.0807291666666643
        },
        {
          "name": "C4",
          "midi": 60,
          "time": 58.562500000000355,
          "velocity": 0.6299212598425197,
          "duration": 0.0651041666666643
        },
        {
          "name": "E4",
          "midi": 64,
          "time": 58.562500000000355,
          "velocity": 0.6299212598425197,
          "duration": 0.0651041666666643
        },
        {
          "name": "A#3",
          "midi": 58,
          "time": 58.77864583333369,
          "velocity": 0.6299212598425197,
          "duration": 0.1145833333333357
        },
        {
          "name": "D#4",
          "midi": 63,
          "time": 58.77864583333369,
          "velocity": 0.6299212598425197,
          "duration": 0.1145833333333357
        },
        {
          "name": "D#3",
          "midi": 51,
          "time": 58.79166666666703,
          "velocity": 0.6299212598425197,
          "duration": 0.1015625
        },
        {
          "name": "G5",
          "midi": 79,
          "time": 58.90625000000036,
          "velocity": 0.6299212598425197,
          "duration": 0.078125
        },
        {
          "name": "D4",
          "midi": 62,
          "time": 59.0130208333337,
          "velocity": 0.6299212598425197,
          "duration": 0.0885416666666714
        },
        {
          "name": "D3",
          "midi": 50,
          "time": 59.018229166667034,
          "velocity": 0.6299212598425197,
          "duration": 0.0833333333333357
        },
        {
          "name": "A3",
          "midi": 57,
          "time": 59.018229166667034,
          "velocity": 0.6299212598425197,
          "duration": 0.0833333333333357
        },
        {
          "name": "G#5",
          "midi": 80,
          "time": 59.02343750000037,
          "velocity": 0.6299212598425197,
          "duration": 0.078125
        },
        {
          "name": "A5",
          "midi": 81,
          "time": 59.143229166667034,
          "velocity": 0.6299212598425197,
          "duration": 0.0911458333333357
        },
        {
          "name": "C#3",
          "midi": 49,
          "time": 59.239583333333705,
          "velocity": 0.6299212598425197,
          "duration": 0.3515624999999929
        },
        {
          "name": "G#3",
          "midi": 56,
          "time": 59.255208333333705,
          "velocity": 0.6299212598425197,
          "duration": 0.1458333333333286
        },
        {
          "name": "C#4",
          "midi": 61,
          "time": 59.26041666666704,
          "velocity": 0.6299212598425197,
          "duration": 0.1145833333333286
        },
        {
          "name": "A#5",
          "midi": 82,
          "time": 59.26041666666704,
          "velocity": 0.6299212598425197,
          "duration": 0.1041666666666643
        },
        {
          "name": "A3",
          "midi": 57,
          "time": 59.4973958333337,
          "velocity": 0.6299212598425197,
          "duration": 0.0807291666666643
        },
        {
          "name": "C#4",
          "midi": 61,
          "time": 59.4973958333337,
          "velocity": 0.6299212598425197,
          "duration": 0.0807291666666643
        },
        {
          "name": "C#5",
          "midi": 73,
          "time": 59.4973958333337,
          "velocity": 0.6299212598425197,
          "duration": 0.1119791666666643
        },
        {
          "name": "A#5",
          "midi": 82,
          "time": 59.4973958333337,
          "velocity": 0.6299212598425197,
          "duration": 0.1119791666666643
        },
        {
          "name": "E4",
          "midi": 64,
          "time": 59.50000000000036,
          "velocity": 0.6299212598425197,
          "duration": 0.078125
        },
        {
          "name": "G4",
          "midi": 67,
          "time": 59.50000000000036,
          "velocity": 0.6299212598425197,
          "duration": 0.078125
        },
        {
          "name": "G5",
          "midi": 79,
          "time": 59.5052083333337,
          "velocity": 0.6299212598425197,
          "duration": 0.1041666666666643
        },
        {
          "name": "E2",
          "midi": 40,
          "time": 59.72135416666703,
          "velocity": 0.6299212598425197,
          "duration": 0.2083333333333357
        },
        {
          "name": "E3",
          "midi": 52,
          "time": 59.73958333333369,
          "velocity": 0.6299212598425197,
          "duration": 0.1848958333333357
        },
        {
          "name": "C#5",
          "midi": 73,
          "time": 59.73958333333369,
          "velocity": 0.6299212598425197,
          "duration": 0.1067708333333357
        },
        {
          "name": "A#5",
          "midi": 82,
          "time": 59.73958333333369,
          "velocity": 0.6299212598425197,
          "duration": 0.1067708333333357
        },
        {
          "name": "G5",
          "midi": 79,
          "time": 59.74479166666703,
          "velocity": 0.6299212598425197,
          "duration": 0.1067708333333357
        },
        {
          "name": "A5",
          "midi": 81,
          "time": 59.86979166666703,
          "velocity": 0.6299212598425197,
          "duration": 0.1067708333333357
        },
        {
          "name": "A3",
          "midi": 57,
          "time": 59.97135416666703,
          "velocity": 0.6299212598425197,
          "duration": 0.1302083333333357
        },
        {
          "name": "C#4",
          "midi": 61,
          "time": 59.97135416666703,
          "velocity": 0.6299212598425197,
          "duration": 0.0989583333333357
        },
        {
          "name": "G4",
          "midi": 67,
          "time": 59.97656250000036,
          "velocity": 0.6299212598425197,
          "duration": 0.125
        },
        {
          "name": "E5",
          "midi": 76,
          "time": 60.1067708333337,
          "velocity": 0.6299212598425197,
          "duration": 0.2890625000000071
        },
        {
          "name": "G5",
          "midi": 79,
          "time": 60.1067708333337,
          "velocity": 0.6299212598425197,
          "duration": 0.2838541666666714
        },
        {
          "name": "C#6",
          "midi": 85,
          "time": 60.1067708333337,
          "velocity": 0.6299212598425197,
          "duration": 0.2890625000000071
        },
        {
          "name": "E6",
          "midi": 88,
          "time": 60.1067708333337,
          "velocity": 0.6299212598425197,
          "duration": 0.2890625000000071
        },
        {
          "name": "C#2",
          "midi": 37,
          "time": 60.2005208333337,
          "velocity": 0.6299212598425197,
          "duration": 0.1744791666666714
        },
        {
          "name": "C#3",
          "midi": 49,
          "time": 60.205729166667034,
          "velocity": 0.6299212598425197,
          "duration": 0.1640625
        },
        {
          "name": "A3",
          "midi": 57,
          "time": 60.42187500000037,
          "velocity": 0.6299212598425197,
          "duration": 0.1015625
        },
        {
          "name": "C#4",
          "midi": 61,
          "time": 60.42187500000037,
          "velocity": 0.6299212598425197,
          "duration": 0.1015625
        },
        {
          "name": "G4",
          "midi": 67,
          "time": 60.42187500000037,
          "velocity": 0.6299212598425197,
          "duration": 0.0885416666666643
        },
        {
          "name": "E5",
          "midi": 76,
          "time": 60.549479166667034,
          "velocity": 0.6299212598425197,
          "duration": 0.1640625000000071
        },
        {
          "name": "C#6",
          "midi": 85,
          "time": 60.549479166667034,
          "velocity": 0.6299212598425197,
          "duration": 0.1119791666666714
        },
        {
          "name": "G5",
          "midi": 79,
          "time": 60.55468750000037,
          "velocity": 0.6299212598425197,
          "duration": 0.1536458333333357
        },
        {
          "name": "E6",
          "midi": 88,
          "time": 60.55468750000037,
          "velocity": 0.6299212598425197,
          "duration": 0.1588541666666714
        },
        {
          "name": "A1",
          "midi": 33,
          "time": 60.661458333333705,
          "velocity": 0.6299212598425197,
          "duration": 0.0885416666666714
        },
        {
          "name": "A2",
          "midi": 45,
          "time": 60.66666666666704,
          "velocity": 0.6299212598425197,
          "duration": 0.0833333333333357
        },
        {
          "name": "D#6",
          "midi": 87,
          "time": 60.83072916666704,
          "velocity": 0.6299212598425197,
          "duration": 0.0885416666666714
        },
        {
          "name": "D#5",
          "midi": 75,
          "time": 60.83593750000038,
          "velocity": 0.6299212598425197,
          "duration": 0.0833333333333357
        },
        {
          "name": "A3",
          "midi": 57,
          "time": 60.88281250000038,
          "velocity": 0.6299212598425197,
          "duration": 0.1171875
        },
        {
          "name": "C#4",
          "midi": 61,
          "time": 60.88281250000038,
          "velocity": 0.6299212598425197,
          "duration": 0.1171875
        },
        {
          "name": "E5",
          "midi": 76,
          "time": 60.88281250000038,
          "velocity": 0.6299212598425197,
          "duration": 0.1015625
        },
        {
          "name": "C#6",
          "midi": 85,
          "time": 60.88802083333371,
          "velocity": 0.6299212598425197,
          "duration": 0.0963541666666643
        },
        {
          "name": "E6",
          "midi": 88,
          "time": 60.88802083333371,
          "velocity": 0.6299212598425197,
          "duration": 0.078125
        },
        {
          "name": "F5",
          "midi": 77,
          "time": 61.11458333333371,
          "velocity": 0.6299212598425197,
          "duration": 0.1119791666666714
        },
        {
          "name": "D6",
          "midi": 86,
          "time": 61.11458333333371,
          "velocity": 0.6299212598425197,
          "duration": 0.1119791666666714
        },
        {
          "name": "D2",
          "midi": 38,
          "time": 61.11979166666705,
          "velocity": 0.6299212598425197,
          "duration": 0.1119791666666714
        },
        {
          "name": "D3",
          "midi": 50,
          "time": 61.11979166666705,
          "velocity": 0.6299212598425197,
          "duration": 0.1067708333333357
        },
        {
          "name": "F6",
          "midi": 89,
          "time": 61.11979166666705,
          "velocity": 0.6299212598425197,
          "duration": 0.1067708333333357
        },
        {
          "name": "C6",
          "midi": 84,
          "time": 61.23177083333372,
          "velocity": 0.6299212598425197,
          "duration": 0.1119791666666714
        },
        {
          "name": "E6",
          "midi": 88,
          "time": 61.23177083333372,
          "velocity": 0.6299212598425197,
          "duration": 0.1119791666666714
        },
        {
          "name": "E5",
          "midi": 76,
          "time": 61.236979166667055,
          "velocity": 0.6299212598425197,
          "duration": 0.1067708333333357
        },
        {
          "name": "E3",
          "midi": 52,
          "time": 61.34375000000039,
          "velocity": 0.6299212598425197,
          "duration": 0.125
        },
        {
          "name": "E2",
          "midi": 40,
          "time": 61.35677083333373,
          "velocity": 0.6299212598425197,
          "duration": 0.1119791666666643
        },
        {
          "name": "A5",
          "midi": 81,
          "time": 61.46875000000039,
          "velocity": 0.6299212598425197,
          "duration": 0.1822916666666714
        },
        {
          "name": "D5",
          "midi": 74,
          "time": 61.47395833333373,
          "velocity": 0.6299212598425197,
          "duration": 0.2500000000000071
        },
        {
          "name": "D6",
          "midi": 86,
          "time": 61.47395833333373,
          "velocity": 0.6299212598425197,
          "duration": 0.1901041666666714
        },
        {
          "name": "C3",
          "midi": 48,
          "time": 61.56770833333373,
          "velocity": 0.6299212598425197,
          "duration": 0.3854166666666785
        },
        {
          "name": "F2",
          "midi": 41,
          "time": 61.58072916666706,
          "velocity": 0.6299212598425197,
          "duration": 0.3776041666666785
        },
        {
          "name": "F3",
          "midi": 53,
          "time": 61.59895833333373,
          "velocity": 0.6299212598425197,
          "duration": 0.3593750000000142
        },
        {
          "name": "C#5",
          "midi": 73,
          "time": 61.77604166666707,
          "velocity": 0.6299212598425197,
          "duration": 0.0833333333333357
        },
        {
          "name": "C#6",
          "midi": 85,
          "time": 61.77604166666707,
          "velocity": 0.6299212598425197,
          "duration": 0.0963541666666714
        },
        {
          "name": "A5",
          "midi": 81,
          "time": 61.835937500000405,
          "velocity": 0.6299212598425197,
          "duration": 0.0833333333333357
        },
        {
          "name": "D6",
          "midi": 86,
          "time": 61.835937500000405,
          "velocity": 0.6299212598425197,
          "duration": 0.0833333333333357
        },
        {
          "name": "D5",
          "midi": 74,
          "time": 61.84114583333374,
          "velocity": 0.6299212598425197,
          "duration": 0.078125
        },
        {
          "name": "D#5",
          "midi": 75,
          "time": 62.023437500000405,
          "velocity": 0.6299212598425197,
          "duration": 0.0833333333333357
        },
        {
          "name": "D#6",
          "midi": 87,
          "time": 62.023437500000405,
          "velocity": 0.6299212598425197,
          "duration": 0.0833333333333357
        },
        {
          "name": "A3",
          "midi": 57,
          "time": 62.070312500000405,
          "velocity": 0.6299212598425197,
          "duration": 0.1302083333333357
        },
        {
          "name": "A2",
          "midi": 45,
          "time": 62.07552083333374,
          "velocity": 0.6299212598425197,
          "duration": 0.1197916666666643
        },
        {
          "name": "E5",
          "midi": 76,
          "time": 62.080729166667076,
          "velocity": 0.6299212598425197,
          "duration": 0.0911458333333286
        },
        {
          "name": "E6",
          "midi": 88,
          "time": 62.080729166667076,
          "velocity": 0.6299212598425197,
          "duration": 0.0729166666666643
        },
        {
          "name": "A5",
          "midi": 81,
          "time": 62.195312500000405,
          "velocity": 0.6299212598425197,
          "duration": 0.1145833333333357
        },
        {
          "name": "D6",
          "midi": 86,
          "time": 62.195312500000405,
          "velocity": 0.6299212598425197,
          "duration": 0.1145833333333357
        },
        {
          "name": "D5",
          "midi": 74,
          "time": 62.20052083333374,
          "velocity": 0.6299212598425197,
          "duration": 0.109375
        },
        {
          "name": "B3",
          "midi": 59,
          "time": 62.304687500000405,
          "velocity": 0.6299212598425197,
          "duration": 0.1171875
        },
        {
          "name": "B2",
          "midi": 47,
          "time": 62.312500000000405,
          "velocity": 0.6299212598425197,
          "duration": 0.1145833333333357
        },
        {
          "name": "C5",
          "midi": 72,
          "time": 62.42708333333374,
          "velocity": 0.6299212598425197,
          "duration": 0.1197916666666643
        },
        {
          "name": "C6",
          "midi": 84,
          "time": 62.42708333333374,
          "velocity": 0.6299212598425197,
          "duration": 0.1197916666666643
        },
        {
          "name": "G5",
          "midi": 79,
          "time": 62.437500000000405,
          "velocity": 0.6299212598425197,
          "duration": 0.109375
        },
        {
          "name": "C3",
          "midi": 48,
          "time": 62.55989583333374,
          "velocity": 0.6299212598425197,
          "duration": 0.1119791666666643
        },
        {
          "name": "C4",
          "midi": 60,
          "time": 62.55989583333374,
          "velocity": 0.6299212598425197,
          "duration": 0.1119791666666643
        },
        {
          "name": "C5",
          "midi": 72,
          "time": 62.67708333333374,
          "velocity": 0.6299212598425197,
          "duration": 0.1119791666666643
        },
        {
          "name": "G5",
          "midi": 79,
          "time": 62.682291666667076,
          "velocity": 0.6299212598425197,
          "duration": 0.1067708333333286
        },
        {
          "name": "C6",
          "midi": 84,
          "time": 62.682291666667076,
          "velocity": 0.6299212598425197,
          "duration": 0.1197916666666643
        },
        {
          "name": "D3",
          "midi": 50,
          "time": 62.76302083333374,
          "velocity": 0.6299212598425197,
          "duration": 0.15625
        },
        {
          "name": "D4",
          "midi": 62,
          "time": 62.789062500000405,
          "velocity": 0.6299212598425197,
          "duration": 0.125
        },
        {
          "name": "B5",
          "midi": 83,
          "time": 62.971354166667076,
          "velocity": 0.6299212598425197,
          "duration": 0.0911458333333357
        },
        {
          "name": "D#3",
          "midi": 51,
          "time": 62.98958333333374,
          "velocity": 0.6299212598425197,
          "duration": 0.1822916666666714
        },
        {
          "name": "C6",
          "midi": 84,
          "time": 63.018229166667076,
          "velocity": 0.6299212598425197,
          "duration": 0.1276041666666714
        },
        {
          "name": "C5",
          "midi": 72,
          "time": 63.02343750000041,
          "velocity": 0.6299212598425197,
          "duration": 0.109375
        },
        {
          "name": "F#5",
          "midi": 78,
          "time": 63.02343750000041,
          "velocity": 0.6299212598425197,
          "duration": 0.1223958333333357
        },
        {
          "name": "D#4",
          "midi": 63,
          "time": 63.049479166667076,
          "velocity": 0.6299212598425197,
          "duration": 0.0833333333333357
        },
        {
          "name": "D#3",
          "midi": 51,
          "time": 63.252604166667076,
          "velocity": 0.6299212598425197,
          "duration": 0.1145833333333357
        },
        {
          "name": "C5",
          "midi": 72,
          "time": 63.252604166667076,
          "velocity": 0.6299212598425197,
          "duration": 0.1145833333333357
        },
        {
          "name": "F#5",
          "midi": 78,
          "time": 63.252604166667076,
          "velocity": 0.6299212598425197,
          "duration": 0.125
        },
        {
          "name": "C6",
          "midi": 84,
          "time": 63.252604166667076,
          "velocity": 0.6299212598425197,
          "duration": 0.1145833333333357
        },
        {
          "name": "D#4",
          "midi": 63,
          "time": 63.283854166667076,
          "velocity": 0.6299212598425197,
          "duration": 0.0833333333333357
        },
        {
          "name": "C6",
          "midi": 84,
          "time": 63.48177083333374,
          "velocity": 0.6299212598425197,
          "duration": 0.1041666666666714
        },
        {
          "name": "E3",
          "midi": 52,
          "time": 63.486979166667076,
          "velocity": 0.6299212598425197,
          "duration": 0.0989583333333357
        },
        {
          "name": "C5",
          "midi": 72,
          "time": 63.486979166667076,
          "velocity": 0.6299212598425197,
          "duration": 0.0989583333333357
        },
        {
          "name": "E5",
          "midi": 76,
          "time": 63.486979166667076,
          "velocity": 0.6299212598425197,
          "duration": 0.0989583333333357
        },
        {
          "name": "G#5",
          "midi": 80,
          "time": 63.49218750000041,
          "velocity": 0.6299212598425197,
          "duration": 0.09375
        },
        {
          "name": "E4",
          "midi": 64,
          "time": 63.50781250000041,
          "velocity": 0.6299212598425197,
          "duration": 0.078125
        },
        {
          "name": "D3",
          "midi": 50,
          "time": 63.736979166667076,
          "velocity": 0.6299212598425197,
          "duration": 0.1067708333333357
        },
        {
          "name": "D4",
          "midi": 62,
          "time": 63.736979166667076,
          "velocity": 0.6299212598425197,
          "duration": 0.1119791666666714
        },
        {
          "name": "B4",
          "midi": 71,
          "time": 63.736979166667076,
          "velocity": 0.6299212598425197,
          "duration": 0.1171875000000071
        },
        {
          "name": "E5",
          "midi": 76,
          "time": 63.736979166667076,
          "velocity": 0.6299212598425197,
          "duration": 0.1171875000000071
        },
        {
          "name": "B5",
          "midi": 83,
          "time": 63.736979166667076,
          "velocity": 0.6299212598425197,
          "duration": 0.1119791666666714
        },
        {
          "name": "C3",
          "midi": 48,
          "time": 63.95572916666708,
          "velocity": 0.6299212598425197,
          "duration": 0.1328125
        },
        {
          "name": "C4",
          "midi": 60,
          "time": 63.95572916666708,
          "velocity": 0.6299212598425197,
          "duration": 0.1328125
        },
        {
          "name": "A4",
          "midi": 69,
          "time": 63.96875000000042,
          "velocity": 0.6299212598425197,
          "duration": 0.1197916666666643
        },
        {
          "name": "A5",
          "midi": 81,
          "time": 63.96875000000042,
          "velocity": 0.6299212598425197,
          "duration": 0.1197916666666643
        },
        {
          "name": "C5",
          "midi": 72,
          "time": 63.973958333333755,
          "velocity": 0.6299212598425197,
          "duration": 0.1015625
        },
        {
          "name": "E5",
          "midi": 76,
          "time": 63.973958333333755,
          "velocity": 0.6299212598425197,
          "duration": 0.1145833333333286
        },
        {
          "name": "A2",
          "midi": 45,
          "time": 64.20833333333375,
          "velocity": 0.6299212598425197,
          "duration": 0.1848958333333286
        },
        {
          "name": "E3",
          "midi": 52,
          "time": 64.20833333333375,
          "velocity": 0.6299212598425197,
          "duration": 0.1848958333333286
        },
        {
          "name": "C4",
          "midi": 60,
          "time": 64.41927083333375,
          "velocity": 0.6299212598425197,
          "duration": 0.23177083333331439
        },
        {
          "name": "A5",
          "midi": 81,
          "time": 64.44270833333375,
          "velocity": 0.6299212598425197,
          "duration": 0.1744791666666572
        },
        {
          "name": "C6",
          "midi": 84,
          "time": 64.45572916666708,
          "velocity": 0.6299212598425197,
          "duration": 0.1614583333333286
        },
        {
          "name": "E6",
          "midi": 88,
          "time": 64.45572916666708,
          "velocity": 0.6299212598425197,
          "duration": 0.1666666666666572
        },
        {
          "name": "A6",
          "midi": 93,
          "time": 64.45572916666708,
          "velocity": 0.6299212598425197,
          "duration": 0.1614583333333286
        },
        {
          "name": "F5",
          "midi": 77,
          "time": 64.9140625000004,
          "velocity": 0.6299212598425197,
          "duration": 0.1197916666666714
        },
        {
          "name": "A#4",
          "midi": 70,
          "time": 64.93229166666707,
          "velocity": 0.6299212598425197,
          "duration": 0.1015625
        },
        {
          "name": "G5",
          "midi": 79,
          "time": 64.93229166666707,
          "velocity": 0.6299212598425197,
          "duration": 0.1015625
        },
        {
          "name": "A5",
          "midi": 81,
          "time": 65.1406250000004,
          "velocity": 0.6299212598425197,
          "duration": 0.11718749999998579
        },
        {
          "name": "C5",
          "midi": 72,
          "time": 65.14583333333373,
          "velocity": 0.6299212598425197,
          "duration": 0.11197916666665719
        },
        {
          "name": "F5",
          "midi": 77,
          "time": 65.15104166666706,
          "velocity": 0.6299212598425197,
          "duration": 0.11979166666665719
        },
        {
          "name": "F5",
          "midi": 77,
          "time": 65.38281250000038,
          "velocity": 0.6299212598425197,
          "duration": 0.0546875
        },
        {
          "name": "A#5",
          "midi": 82,
          "time": 65.38281250000038,
          "velocity": 0.6299212598425197,
          "duration": 0.1171875
        },
        {
          "name": "D5",
          "midi": 74,
          "time": 65.38802083333371,
          "velocity": 0.6299212598425197,
          "duration": 0.1015625
        },
        {
          "name": "F5",
          "midi": 77,
          "time": 65.50000000000038,
          "velocity": 0.6299212598425197,
          "duration": 0.3411458333333428
        },
        {
          "name": "D6",
          "midi": 86,
          "time": 65.50000000000038,
          "velocity": 0.6299212598425197,
          "duration": 0.3411458333333428
        },
        {
          "name": "A#3",
          "midi": 58,
          "time": 65.8671875000004,
          "velocity": 0.6299212598425197,
          "duration": 0.1171875
        },
        {
          "name": "G4",
          "midi": 67,
          "time": 65.8671875000004,
          "velocity": 0.6299212598425197,
          "duration": 0.1171875
        },
        {
          "name": "F4",
          "midi": 65,
          "time": 65.87239583333373,
          "velocity": 0.6299212598425197,
          "duration": 0.1171875
        },
        {
          "name": "C4",
          "midi": 60,
          "time": 66.1015625000004,
          "velocity": 0.6299212598425197,
          "duration": 0.1171875
        },
        {
          "name": "A4",
          "midi": 69,
          "time": 66.1015625000004,
          "velocity": 0.6299212598425197,
          "duration": 0.1171875
        },
        {
          "name": "F4",
          "midi": 65,
          "time": 66.10677083333373,
          "velocity": 0.6299212598425197,
          "duration": 0.1119791666666714
        },
        {
          "name": "F4",
          "midi": 65,
          "time": 66.33072916666707,
          "velocity": 0.6299212598425197,
          "duration": 0.059895833333328596
        },
        {
          "name": "D4",
          "midi": 62,
          "time": 66.3359375000004,
          "velocity": 0.6299212598425197,
          "duration": 0.3359374999999858
        },
        {
          "name": "A#4",
          "midi": 70,
          "time": 66.3359375000004,
          "velocity": 0.6299212598425197,
          "duration": 0.1145833333333286
        },
        {
          "name": "D5",
          "midi": 74,
          "time": 66.45052083333373,
          "velocity": 0.6299212598425197,
          "duration": 0.2760416666666572
        },
        {
          "name": "F4",
          "midi": 65,
          "time": 66.45572916666706,
          "velocity": 0.6299212598425197,
          "duration": 0.2161458333333286
        },
        {
          "name": "A4",
          "midi": 69,
          "time": 66.69531250000038,
          "velocity": 0.6299212598425197,
          "duration": 0.059895833333328596
        },
        {
          "name": "A#4",
          "midi": 70,
          "time": 66.77343750000038,
          "velocity": 0.6299212598425197,
          "duration": 0.0833333333333286
        },
        {
          "name": "B3",
          "midi": 59,
          "time": 66.79166666666706,
          "velocity": 0.6299212598425197,
          "duration": 0.11197916666665719
        },
        {
          "name": "D4",
          "midi": 62,
          "time": 66.79166666666706,
          "velocity": 0.6299212598425197,
          "duration": 0.11197916666665719
        },
        {
          "name": "F4",
          "midi": 65,
          "time": 66.79166666666706,
          "velocity": 0.6299212598425197,
          "duration": 0.11197916666665719
        },
        {
          "name": "A4",
          "midi": 69,
          "time": 66.82031250000038,
          "velocity": 0.6299212598425197,
          "duration": 0.0833333333333286
        },
        {
          "name": "B3",
          "midi": 59,
          "time": 67.02343750000038,
          "velocity": 0.6299212598425197,
          "duration": 0.328125
        },
        {
          "name": "D4",
          "midi": 62,
          "time": 67.02343750000038,
          "velocity": 0.6299212598425197,
          "duration": 0.328125
        },
        {
          "name": "F4",
          "midi": 65,
          "time": 67.02343750000038,
          "velocity": 0.6299212598425197,
          "duration": 0.328125
        },
        {
          "name": "A4",
          "midi": 69,
          "time": 67.02343750000038,
          "velocity": 0.6299212598425197,
          "duration": 0.328125
        },
        {
          "name": "D4",
          "midi": 62,
          "time": 67.46354166666706,
          "velocity": 0.6299212598425197,
          "duration": 0.10937499999998579
        },
        {
          "name": "B3",
          "midi": 59,
          "time": 67.46875000000038,
          "velocity": 0.6299212598425197,
          "duration": 0.10937499999998579
        },
        {
          "name": "F4",
          "midi": 65,
          "time": 67.46875000000038,
          "velocity": 0.6299212598425197,
          "duration": 0.10937499999998579
        },
        {
          "name": "G4",
          "midi": 67,
          "time": 67.46875000000038,
          "velocity": 0.6299212598425197,
          "duration": 0.10937499999998579
        },
        {
          "name": "A#3",
          "midi": 58,
          "time": 67.69010416666704,
          "velocity": 0.6299212598425197,
          "duration": 0.375
        },
        {
          "name": "G4",
          "midi": 67,
          "time": 67.69010416666704,
          "velocity": 0.6299212598425197,
          "duration": 0.375
        },
        {
          "name": "E4",
          "midi": 64,
          "time": 67.70312500000037,
          "velocity": 0.6299212598425197,
          "duration": 0.3619791666666714
        },
        {
          "name": "C5",
          "midi": 72,
          "time": 67.70312500000037,
          "velocity": 0.6299212598425197,
          "duration": 0.3619791666666714
        },
        {
          "name": "C4",
          "midi": 60,
          "time": 67.7083333333337,
          "velocity": 0.6299212598425197,
          "duration": 0.3567708333333428
        },
        {
          "name": "C3",
          "midi": 48,
          "time": 68.19531250000037,
          "velocity": 0.6299212598425197,
          "duration": 0.3515624999999858
        },
        {
          "name": "E5",
          "midi": 76,
          "time": 68.19531250000037,
          "velocity": 0.6299212598425197,
          "duration": 0.3567708333333144
        },
        {
          "name": "C6",
          "midi": 84,
          "time": 68.19531250000037,
          "velocity": 0.6299212598425197,
          "duration": 0.3567708333333144
        },
        {
          "name": "C2",
          "midi": 36,
          "time": 68.2005208333337,
          "velocity": 0.6299212598425197,
          "duration": 0.3567708333333144
        },
        {
          "name": "A#4",
          "midi": 70,
          "time": 68.2005208333337,
          "velocity": 0.6299212598425197,
          "duration": 0.3515624999999858
        },
        {
          "name": "G5",
          "midi": 79,
          "time": 68.20572916666703,
          "velocity": 0.6299212598425197,
          "duration": 0.3411458333333286
        },
        {
          "name": "D5",
          "midi": 74,
          "time": 68.66406250000034,
          "velocity": 0.6299212598425197,
          "duration": 0.1171875
        },
        {
          "name": "G2",
          "midi": 43,
          "time": 68.66927083333367,
          "velocity": 0.6299212598425197,
          "duration": 0.1119791666666714
        },
        {
          "name": "G3",
          "midi": 55,
          "time": 68.66927083333367,
          "velocity": 0.6299212598425197,
          "duration": 0.1119791666666714
        },
        {
          "name": "A#4",
          "midi": 70,
          "time": 68.66927083333367,
          "velocity": 0.6299212598425197,
          "duration": 0.1119791666666714
        },
        {
          "name": "F#4",
          "midi": 66,
          "time": 68.84114583333368,
          "velocity": 0.6299212598425197,
          "duration": 0.0989583333333286
        },
        {
          "name": "A#3",
          "midi": 58,
          "time": 68.90104166666701,
          "velocity": 0.6299212598425197,
          "duration": 0.0885416666666714
        },
        {
          "name": "G4",
          "midi": 67,
          "time": 68.90104166666701,
          "velocity": 0.6299212598425197,
          "duration": 0.0885416666666714
        },
        {
          "name": "G3",
          "midi": 55,
          "time": 68.90625000000034,
          "velocity": 0.6299212598425197,
          "duration": 0.08333333333334281
        },
        {
          "name": "E4",
          "midi": 64,
          "time": 68.90625000000034,
          "velocity": 0.6299212598425197,
          "duration": 0.08333333333334281
        },
        {
          "name": "A4",
          "midi": 69,
          "time": 69.07812500000036,
          "velocity": 0.6299212598425197,
          "duration": 0.09114583333334281
        },
        {
          "name": "C2",
          "midi": 36,
          "time": 69.14322916666703,
          "velocity": 0.6299212598425197,
          "duration": 0.0911458333333286
        },
        {
          "name": "C3",
          "midi": 48,
          "time": 69.14322916666703,
          "velocity": 0.6299212598425197,
          "duration": 0.0911458333333286
        },
        {
          "name": "A#4",
          "midi": 70,
          "time": 69.14322916666703,
          "velocity": 0.6299212598425197,
          "duration": 0.0859375
        },
        {
          "name": "C5",
          "midi": 72,
          "time": 69.26302083333368,
          "velocity": 0.6299212598425197,
          "duration": 0.15625
        },
        {
          "name": "E5",
          "midi": 76,
          "time": 69.26302083333368,
          "velocity": 0.6299212598425197,
          "duration": 0.1614583333333286
        },
        {
          "name": "G3",
          "midi": 55,
          "time": 69.37239583333368,
          "velocity": 0.6299212598425197,
          "duration": 0.0859375
        },
        {
          "name": "A#3",
          "midi": 58,
          "time": 69.37500000000036,
          "velocity": 0.6299212598425197,
          "duration": 0.0833333333333286
        },
        {
          "name": "E4",
          "midi": 64,
          "time": 69.37500000000036,
          "velocity": 0.6299212598425197,
          "duration": 0.0833333333333286
        },
        {
          "name": "A#4",
          "midi": 70,
          "time": 69.48958333333368,
          "velocity": 0.6299212598425197,
          "duration": 0.0807291666666714
        },
        {
          "name": "D5",
          "midi": 74,
          "time": 69.48958333333368,
          "velocity": 0.6299212598425197,
          "duration": 0.0807291666666714
        },
        {
          "name": "F2",
          "midi": 41,
          "time": 69.59635416666703,
          "velocity": 0.6299212598425197,
          "duration": 0.1692708333333286
        },
        {
          "name": "F3",
          "midi": 53,
          "time": 69.6145833333337,
          "velocity": 0.6299212598425197,
          "duration": 0.11197916666665719
        },
        {
          "name": "A4",
          "midi": 69,
          "time": 69.6145833333337,
          "velocity": 0.6299212598425197,
          "duration": 0.11197916666665719
        },
        {
          "name": "C5",
          "midi": 72,
          "time": 69.6145833333337,
          "velocity": 0.6299212598425197,
          "duration": 0.0989583333333286
        },
        {
          "name": "A3",
          "midi": 57,
          "time": 69.83854166666703,
          "velocity": 0.6299212598425197,
          "duration": 0.0911458333333286
        },
        {
          "name": "C4",
          "midi": 60,
          "time": 69.83854166666703,
          "velocity": 0.6299212598425197,
          "duration": 0.09635416666665719
        },
        {
          "name": "F4",
          "midi": 65,
          "time": 69.83854166666703,
          "velocity": 0.6299212598425197,
          "duration": 0.0911458333333286
        },
        {
          "name": "G5",
          "midi": 79,
          "time": 69.85156250000036,
          "velocity": 0.6299212598425197,
          "duration": 0.11197916666665719
        },
        {
          "name": "C6",
          "midi": 84,
          "time": 69.85156250000036,
          "velocity": 0.6299212598425197,
          "duration": 0.2109375
        },
        {
          "name": "D6",
          "midi": 86,
          "time": 69.85156250000036,
          "velocity": 0.6299212598425197,
          "duration": 0.2109375
        },
        {
          "name": "G#5",
          "midi": 80,
          "time": 69.98177083333368,
          "velocity": 0.6299212598425197,
          "duration": 0.0807291666666714
        },
        {
          "name": "C2",
          "midi": 36,
          "time": 70.09895833333368,
          "velocity": 0.6299212598425197,
          "duration": 0.11979166666665719
        },
        {
          "name": "A5",
          "midi": 81,
          "time": 70.09895833333368,
          "velocity": 0.6299212598425197,
          "duration": 0.059895833333328596
        },
        {
          "name": "A5",
          "midi": 81,
          "time": 70.22395833333367,
          "velocity": 0.6299212598425197,
          "duration": 0.2135416666666572
        },
        {
          "name": "C6",
          "midi": 84,
          "time": 70.22395833333367,
          "velocity": 0.6299212598425197,
          "duration": 0.2135416666666572
        },
        {
          "name": "D6",
          "midi": 86,
          "time": 70.22395833333367,
          "velocity": 0.6299212598425197,
          "duration": 0.2135416666666572
        },
        {
          "name": "A3",
          "midi": 57,
          "time": 70.322916666667,
          "velocity": 0.6299212598425197,
          "duration": 0.08854166666665719
        },
        {
          "name": "C4",
          "midi": 60,
          "time": 70.32812500000033,
          "velocity": 0.6299212598425197,
          "duration": 0.0833333333333286
        },
        {
          "name": "F4",
          "midi": 65,
          "time": 70.32812500000033,
          "velocity": 0.6299212598425197,
          "duration": 0.0833333333333286
        },
        {
          "name": "G2",
          "midi": 43,
          "time": 70.565104166667,
          "velocity": 0.6299212598425197,
          "duration": 0.1562499999999858
        },
        {
          "name": "E3",
          "midi": 52,
          "time": 70.565104166667,
          "velocity": 0.6299212598425197,
          "duration": 0.1562499999999858
        },
        {
          "name": "A#4",
          "midi": 70,
          "time": 70.565104166667,
          "velocity": 0.6299212598425197,
          "duration": 0.10416666666665719
        },
        {
          "name": "D5",
          "midi": 74,
          "time": 70.565104166667,
          "velocity": 0.6299212598425197,
          "duration": 0.0911458333333286
        },
        {
          "name": "F#4",
          "midi": 66,
          "time": 70.71614583333366,
          "velocity": 0.6299212598425197,
          "duration": 0.08854166666665719
        },
        {
          "name": "G4",
          "midi": 67,
          "time": 70.76822916666698,
          "velocity": 0.6299212598425197,
          "duration": 0.11718749999998579
        },
        {
          "name": "G3",
          "midi": 55,
          "time": 70.77343750000031,
          "velocity": 0.6299212598425197,
          "duration": 0.0833333333333286
        },
        {
          "name": "A#3",
          "midi": 58,
          "time": 70.77343750000031,
          "velocity": 0.6299212598425197,
          "duration": 0.0833333333333286
        },
        {
          "name": "E4",
          "midi": 64,
          "time": 70.77343750000031,
          "velocity": 0.6299212598425197,
          "duration": 0.0833333333333286
        },
        {
          "name": "A4",
          "midi": 69,
          "time": 70.95052083333364,
          "velocity": 0.6299212598425197,
          "duration": 0.08333333333334281
        },
        {
          "name": "C2",
          "midi": 36,
          "time": 71.01562500000031,
          "velocity": 0.6299212598425197,
          "duration": 0.171875
        },
        {
          "name": "C3",
          "midi": 48,
          "time": 71.01562500000031,
          "velocity": 0.6299212598425197,
          "duration": 0.1979166666666714
        },
        {
          "name": "A#4",
          "midi": 70,
          "time": 71.01562500000031,
          "velocity": 0.6299212598425197,
          "duration": 0.078125
        },
        {
          "name": "E5",
          "midi": 76,
          "time": 71.12500000000031,
          "velocity": 0.6299212598425197,
          "duration": 0.1744791666666714
        },
        {
          "name": "C5",
          "midi": 72,
          "time": 71.12760416666698,
          "velocity": 0.6299212598425197,
          "duration": 0.171875
        },
        {
          "name": "G3",
          "midi": 55,
          "time": 71.23958333333366,
          "velocity": 0.6299212598425197,
          "duration": 0.0833333333333286
        },
        {
          "name": "A#3",
          "midi": 58,
          "time": 71.23958333333366,
          "velocity": 0.6299212598425197,
          "duration": 0.0833333333333286
        },
        {
          "name": "E4",
          "midi": 64,
          "time": 71.23958333333366,
          "velocity": 0.6299212598425197,
          "duration": 0.0833333333333286
        },
        {
          "name": "D5",
          "midi": 74,
          "time": 71.35937500000031,
          "velocity": 0.6299212598425197,
          "duration": 0.08072916666665719
        },
        {
          "name": "A#4",
          "midi": 70,
          "time": 71.36458333333364,
          "velocity": 0.6299212598425197,
          "duration": 0.0755208333333286
        },
        {
          "name": "F2",
          "midi": 41,
          "time": 71.45833333333364,
          "velocity": 0.6299212598425197,
          "duration": 0.1328124999999858
        },
        {
          "name": "C3",
          "midi": 48,
          "time": 71.46354166666697,
          "velocity": 0.6299212598425197,
          "duration": 0.0859375
        },
        {
          "name": "F3",
          "midi": 53,
          "time": 71.4765625000003,
          "velocity": 0.6299212598425197,
          "duration": 0.0859375
        },
        {
          "name": "A4",
          "midi": 69,
          "time": 71.4765625000003,
          "velocity": 0.6299212598425197,
          "duration": 0.1145833333333286
        },
        {
          "name": "C5",
          "midi": 72,
          "time": 71.4765625000003,
          "velocity": 0.6299212598425197,
          "duration": 0.1145833333333286
        },
        {
          "name": "E3",
          "midi": 52,
          "time": 71.69010416666697,
          "velocity": 0.6299212598425197,
          "duration": 0.12499999999998579
        },
        {
          "name": "A2",
          "midi": 45,
          "time": 71.7031250000003,
          "velocity": 0.6299212598425197,
          "duration": 0.11197916666665719
        },
        {
          "name": "A3",
          "midi": 57,
          "time": 71.7031250000003,
          "velocity": 0.6299212598425197,
          "duration": 0.11197916666665719
        },
        {
          "name": "C6",
          "midi": 84,
          "time": 71.7031250000003,
          "velocity": 0.6299212598425197,
          "duration": 0.24739583333331439
        },
        {
          "name": "D6",
          "midi": 86,
          "time": 71.7031250000003,
          "velocity": 0.6299212598425197,
          "duration": 0.2369791666666572
        },
        {
          "name": "G5",
          "midi": 79,
          "time": 71.71614583333363,
          "velocity": 0.6299212598425197,
          "duration": 0.0989583333333286
        },
        {
          "name": "G#5",
          "midi": 80,
          "time": 71.82812500000028,
          "velocity": 0.6299212598425197,
          "duration": 0.078125
        },
        {
          "name": "F3",
          "midi": 53,
          "time": 71.94531250000028,
          "velocity": 0.6299212598425197,
          "duration": 0.12239583333331439
        },
        {
          "name": "B3",
          "midi": 59,
          "time": 71.94531250000028,
          "velocity": 0.6299212598425197,
          "duration": 0.12239583333331439
        },
        {
          "name": "B2",
          "midi": 47,
          "time": 71.95572916666694,
          "velocity": 0.6299212598425197,
          "duration": 0.11718749999998579
        },
        {
          "name": "A5",
          "midi": 81,
          "time": 71.95572916666694,
          "velocity": 0.6299212598425197,
          "duration": 0.052083333333328596
        },
        {
          "name": "A5",
          "midi": 81,
          "time": 72.07812500000026,
          "velocity": 0.6299212598425197,
          "duration": 0.21875
        },
        {
          "name": "C6",
          "midi": 84,
          "time": 72.07812500000026,
          "velocity": 0.6299212598425197,
          "duration": 0.2317708333333286
        },
        {
          "name": "D6",
          "midi": 86,
          "time": 72.07812500000026,
          "velocity": 0.6299212598425197,
          "duration": 0.2317708333333286
        },
        {
          "name": "C3",
          "midi": 48,
          "time": 72.18750000000026,
          "velocity": 0.6299212598425197,
          "duration": 0.109375
        },
        {
          "name": "G3",
          "midi": 55,
          "time": 72.19010416666693,
          "velocity": 0.6299212598425197,
          "duration": 0.11979166666665719
        },
        {
          "name": "C4",
          "midi": 60,
          "time": 72.19531250000026,
          "velocity": 0.6299212598425197,
          "duration": 0.1145833333333286
        },
        {
          "name": "C#3",
          "midi": 49,
          "time": 72.42968750000026,
          "velocity": 0.6299212598425197,
          "duration": 0.1171875
        },
        {
          "name": "E5",
          "midi": 76,
          "time": 72.43489583333358,
          "velocity": 0.6299212598425197,
          "duration": 0.1354166666666714
        },
        {
          "name": "G5",
          "midi": 79,
          "time": 72.44531250000026,
          "velocity": 0.6299212598425197,
          "duration": 0.1927083333333286
        },
        {
          "name": "C#5",
          "midi": 73,
          "time": 72.61458333333358,
          "velocity": 0.6299212598425197,
          "duration": 0.0729166666666714
        },
        {
          "name": "A3",
          "midi": 57,
          "time": 72.65625000000026,
          "velocity": 0.6299212598425197,
          "duration": 0.125
        },
        {
          "name": "C#4",
          "midi": 61,
          "time": 72.66145833333358,
          "velocity": 0.6299212598425197,
          "duration": 0.1197916666666714
        },
        {
          "name": "D5",
          "midi": 74,
          "time": 72.66145833333358,
          "velocity": 0.6299212598425197,
          "duration": 0.1197916666666714
        },
        {
          "name": "D#5",
          "midi": 75,
          "time": 72.84114583333358,
          "velocity": 0.6299212598425197,
          "duration": 0.0859375
        },
        {
          "name": "G2",
          "midi": 43,
          "time": 72.90104166666691,
          "velocity": 0.6299212598425197,
          "duration": 0.1197916666666714
        },
        {
          "name": "G3",
          "midi": 55,
          "time": 72.90104166666691,
          "velocity": 0.6299212598425197,
          "duration": 0.11458333333334281
        },
        {
          "name": "E5",
          "midi": 76,
          "time": 72.90104166666691,
          "velocity": 0.6299212598425197,
          "duration": 0.11458333333334281
        },
        {
          "name": "G4",
          "midi": 67,
          "time": 73.01562500000026,
          "velocity": 0.6299212598425197,
          "duration": 0.1640624999999858
        },
        {
          "name": "A4",
          "midi": 69,
          "time": 73.02604166666691,
          "velocity": 0.6299212598425197,
          "duration": 0.1588541666666572
        },
        {
          "name": "C#5",
          "midi": 73,
          "time": 73.02604166666691,
          "velocity": 0.6299212598425197,
          "duration": 0.1484375
        },
        {
          "name": "A5",
          "midi": 81,
          "time": 73.02604166666691,
          "velocity": 0.6299212598425197,
          "duration": 0.1484375
        },
        {
          "name": "A3",
          "midi": 57,
          "time": 73.12500000000024,
          "velocity": 0.6299212598425197,
          "duration": 0.0833333333333286
        },
        {
          "name": "C#4",
          "midi": 61,
          "time": 73.12500000000024,
          "velocity": 0.6299212598425197,
          "duration": 0.0833333333333286
        },
        {
          "name": "F4",
          "midi": 65,
          "time": 73.12500000000024,
          "velocity": 0.6299212598425197,
          "duration": 0.0833333333333286
        },
        {
          "name": "G5",
          "midi": 79,
          "time": 73.25520833333357,
          "velocity": 0.6299212598425197,
          "duration": 0.06510416666665719
        },
        {
          "name": "A4",
          "midi": 69,
          "time": 73.3151041666669,
          "velocity": 0.6299212598425197,
          "duration": 0.3645833333333286
        },
        {
          "name": "F2",
          "midi": 41,
          "time": 73.32552083333356,
          "velocity": 0.6299212598425197,
          "duration": 0.3697916666666714
        },
        {
          "name": "D5",
          "midi": 74,
          "time": 73.35677083333356,
          "velocity": 0.6299212598425197,
          "duration": 0.3229166666666714
        },
        {
          "name": "F5",
          "midi": 77,
          "time": 73.35677083333356,
          "velocity": 0.6299212598425197,
          "duration": 0.3229166666666714
        },
        {
          "name": "F3",
          "midi": 53,
          "time": 73.5651041666669,
          "velocity": 0.6299212598425197,
          "duration": 0.1145833333333286
        },
        {
          "name": "A3",
          "midi": 57,
          "time": 73.5651041666669,
          "velocity": 0.6299212598425197,
          "duration": 0.1145833333333286
        },
        {
          "name": "D4",
          "midi": 62,
          "time": 73.5651041666669,
          "velocity": 0.6299212598425197,
          "duration": 0.1145833333333286
        },
        {
          "name": "A1",
          "midi": 33,
          "time": 73.80468750000023,
          "velocity": 0.6299212598425197,
          "duration": 0.1953124999999858
        },
        {
          "name": "A4",
          "midi": 69,
          "time": 73.80468750000023,
          "velocity": 0.6299212598425197,
          "duration": 0.11979166666665719
        },
        {
          "name": "D5",
          "midi": 74,
          "time": 73.80468750000023,
          "velocity": 0.6299212598425197,
          "duration": 0.1067708333333286
        },
        {
          "name": "F5",
          "midi": 77,
          "time": 73.80468750000023,
          "velocity": 0.6299212598425197,
          "duration": 0.11979166666665719
        },
        {
          "name": "C#5",
          "midi": 73,
          "time": 73.97656250000021,
          "velocity": 0.6299212598425197,
          "duration": 0.0807291666666714
        },
        {
          "name": "F3",
          "midi": 53,
          "time": 74.03385416666688,
          "velocity": 0.6299212598425197,
          "duration": 0.1223958333333286
        },
        {
          "name": "A3",
          "midi": 57,
          "time": 74.03385416666688,
          "velocity": 0.6299212598425197,
          "duration": 0.1223958333333286
        },
        {
          "name": "D4",
          "midi": 62,
          "time": 74.03906250000021,
          "velocity": 0.6299212598425197,
          "duration": 0.1171875
        },
        {
          "name": "D5",
          "midi": 74,
          "time": 74.03906250000021,
          "velocity": 0.6299212598425197,
          "duration": 0.1171875
        },
        {
          "name": "F5",
          "midi": 77,
          "time": 74.15625000000021,
          "velocity": 0.6299212598425197,
          "duration": 0.059895833333328596
        },
        {
          "name": "B3",
          "midi": 59,
          "time": 74.27604166666687,
          "velocity": 0.6299212598425197,
          "duration": 0.11979166666665719
        },
        {
          "name": "D4",
          "midi": 62,
          "time": 74.2812500000002,
          "velocity": 0.6299212598425197,
          "duration": 0.1145833333333286
        },
        {
          "name": "A4",
          "midi": 69,
          "time": 74.2812500000002,
          "velocity": 0.6299212598425197,
          "duration": 0.078125
        },
        {
          "name": "D5",
          "midi": 74,
          "time": 74.2812500000002,
          "velocity": 0.6299212598425197,
          "duration": 0.1015625
        },
        {
          "name": "F5",
          "midi": 77,
          "time": 74.2812500000002,
          "velocity": 0.6299212598425197,
          "duration": 0.1145833333333286
        },
        {
          "name": "A5",
          "midi": 81,
          "time": 74.2812500000002,
          "velocity": 0.6299212598425197,
          "duration": 0.1145833333333286
        },
        {
          "name": "F4",
          "midi": 65,
          "time": 74.28645833333353,
          "velocity": 0.6299212598425197,
          "duration": 0.109375
        },
        {
          "name": "B3",
          "midi": 59,
          "time": 74.52083333333353,
          "velocity": 0.6299212598425197,
          "duration": 0.10937499999998579
        },
        {
          "name": "D4",
          "midi": 62,
          "time": 74.52083333333353,
          "velocity": 0.6299212598425197,
          "duration": 0.10937499999998579
        },
        {
          "name": "G4",
          "midi": 67,
          "time": 74.52083333333353,
          "velocity": 0.6299212598425197,
          "duration": 0.10937499999998579
        },
        {
          "name": "D5",
          "midi": 74,
          "time": 74.52083333333353,
          "velocity": 0.6299212598425197,
          "duration": 0.10937499999998579
        },
        {
          "name": "F5",
          "midi": 77,
          "time": 74.52083333333353,
          "velocity": 0.6299212598425197,
          "duration": 0.12239583333331439
        },
        {
          "name": "F4",
          "midi": 65,
          "time": 74.52604166666686,
          "velocity": 0.6299212598425197,
          "duration": 0.10416666666665719
        },
        {
          "name": "G5",
          "midi": 79,
          "time": 74.53125000000018,
          "velocity": 0.6299212598425197,
          "duration": 0.0989583333333286
        },
        {
          "name": "B3",
          "midi": 59,
          "time": 74.75520833333351,
          "velocity": 0.6299212598425197,
          "duration": 0.1145833333333286
        },
        {
          "name": "D4",
          "midi": 62,
          "time": 74.75520833333351,
          "velocity": 0.6299212598425197,
          "duration": 0.1145833333333286
        },
        {
          "name": "F4",
          "midi": 65,
          "time": 74.75520833333351,
          "velocity": 0.6299212598425197,
          "duration": 0.1145833333333286
        },
        {
          "name": "A4",
          "midi": 69,
          "time": 74.75520833333351,
          "velocity": 0.6299212598425197,
          "duration": 0.1015625
        },
        {
          "name": "D5",
          "midi": 74,
          "time": 74.75520833333351,
          "velocity": 0.6299212598425197,
          "duration": 0.1145833333333286
        },
        {
          "name": "F5",
          "midi": 77,
          "time": 74.75520833333351,
          "velocity": 0.6299212598425197,
          "duration": 0.1015625
        },
        {
          "name": "A5",
          "midi": 81,
          "time": 74.75520833333351,
          "velocity": 0.6299212598425197,
          "duration": 0.1015625
        },
        {
          "name": "F5",
          "midi": 77,
          "time": 74.98177083333351,
          "velocity": 0.6299212598425197,
          "duration": 0.11718749999998579
        },
        {
          "name": "B3",
          "midi": 59,
          "time": 74.98697916666684,
          "velocity": 0.6299212598425197,
          "duration": 0.1406249999999858
        },
        {
          "name": "F4",
          "midi": 65,
          "time": 74.98697916666684,
          "velocity": 0.6299212598425197,
          "duration": 0.11197916666665719
        },
        {
          "name": "G4",
          "midi": 67,
          "time": 74.98697916666684,
          "velocity": 0.6299212598425197,
          "duration": 0.11197916666665719
        },
        {
          "name": "D5",
          "midi": 74,
          "time": 74.98697916666684,
          "velocity": 0.6299212598425197,
          "duration": 0.0989583333333286
        },
        {
          "name": "G5",
          "midi": 79,
          "time": 74.98697916666684,
          "velocity": 0.6299212598425197,
          "duration": 0.11197916666665719
        },
        {
          "name": "C4",
          "midi": 60,
          "time": 75.22395833333348,
          "velocity": 0.6299212598425197,
          "duration": 0.10416666666665719
        },
        {
          "name": "F4",
          "midi": 65,
          "time": 75.22916666666681,
          "velocity": 0.6299212598425197,
          "duration": 0.10416666666665719
        },
        {
          "name": "G#4",
          "midi": 68,
          "time": 75.22916666666681,
          "velocity": 0.6299212598425197,
          "duration": 0.10416666666665719
        },
        {
          "name": "D5",
          "midi": 74,
          "time": 75.22916666666681,
          "velocity": 0.6299212598425197,
          "duration": 0.2109375
        },
        {
          "name": "G#5",
          "midi": 80,
          "time": 75.22916666666681,
          "velocity": 0.6299212598425197,
          "duration": 0.10416666666665719
        },
        {
          "name": "D6",
          "midi": 86,
          "time": 75.22916666666681,
          "velocity": 0.6299212598425197,
          "duration": 0.2291666666666572
        },
        {
          "name": "C4",
          "midi": 60,
          "time": 75.45312500000014,
          "velocity": 0.6299212598425197,
          "duration": 0.109375
        },
        {
          "name": "F4",
          "midi": 65,
          "time": 75.45312500000014,
          "velocity": 0.6299212598425197,
          "duration": 0.109375
        },
        {
          "name": "A4",
          "midi": 69,
          "time": 75.45312500000014,
          "velocity": 0.6299212598425197,
          "duration": 0.1067708333333286
        },
        {
          "name": "C5",
          "midi": 72,
          "time": 75.45312500000014,
          "velocity": 0.6299212598425197,
          "duration": 0.109375
        },
        {
          "name": "A5",
          "midi": 81,
          "time": 75.45312500000014,
          "velocity": 0.6299212598425197,
          "duration": 0.109375
        },
        {
          "name": "C6",
          "midi": 84,
          "time": 75.45312500000014,
          "velocity": 0.6299212598425197,
          "duration": 0.109375
        },
        {
          "name": "C4",
          "midi": 60,
          "time": 75.68489583333347,
          "velocity": 0.6299212598425197,
          "duration": 0.1145833333333286
        },
        {
          "name": "F4",
          "midi": 65,
          "time": 75.68750000000014,
          "velocity": 0.6299212598425197,
          "duration": 0.11197916666665719
        },
        {
          "name": "G#4",
          "midi": 68,
          "time": 75.68750000000014,
          "velocity": 0.6299212598425197,
          "duration": 0.11197916666665719
        },
        {
          "name": "D5",
          "midi": 74,
          "time": 75.68750000000014,
          "velocity": 0.6299212598425197,
          "duration": 0.11197916666665719
        },
        {
          "name": "G#5",
          "midi": 80,
          "time": 75.68750000000014,
          "velocity": 0.6299212598425197,
          "duration": 0.1015625
        },
        {
          "name": "D6",
          "midi": 86,
          "time": 75.68750000000014,
          "velocity": 0.6299212598425197,
          "duration": 0.1067708333333286
        },
        {
          "name": "C4",
          "midi": 60,
          "time": 75.91927083333346,
          "velocity": 0.6299212598425197,
          "duration": 0.11718749999998579
        },
        {
          "name": "F4",
          "midi": 65,
          "time": 75.92447916666679,
          "velocity": 0.6299212598425197,
          "duration": 0.11197916666665719
        },
        {
          "name": "A4",
          "midi": 69,
          "time": 75.92447916666679,
          "velocity": 0.6299212598425197,
          "duration": 0.11197916666665719
        },
        {
          "name": "A5",
          "midi": 81,
          "time": 75.92447916666679,
          "velocity": 0.6299212598425197,
          "duration": 0.11197916666665719
        },
        {
          "name": "C5",
          "midi": 72,
          "time": 75.92968750000011,
          "velocity": 0.6299212598425197,
          "duration": 0.1067708333333286
        },
        {
          "name": "C6",
          "midi": 84,
          "time": 75.92968750000011,
          "velocity": 0.6299212598425197,
          "duration": 0.1067708333333286
        },
        {
          "name": "D5",
          "midi": 74,
          "time": 76.17447916666677,
          "velocity": 0.6299212598425197,
          "duration": 0.3411458333333002
        },
        {
          "name": "G2",
          "midi": 43,
          "time": 76.1796875000001,
          "velocity": 0.6299212598425197,
          "duration": 0.10416666666665719
        },
        {
          "name": "G3",
          "midi": 55,
          "time": 76.1796875000001,
          "velocity": 0.6299212598425197,
          "duration": 0.11718749999998579
        },
        {
          "name": "A#4",
          "midi": 70,
          "time": 76.18489583333343,
          "velocity": 0.6299212598425197,
          "duration": 0.2786458333333144
        },
        {
          "name": "F#4",
          "midi": 66,
          "time": 76.34375000000009,
          "velocity": 0.6299212598425197,
          "duration": 0.09374999999998579
        },
        {
          "name": "A#3",
          "midi": 58,
          "time": 76.40364583333341,
          "velocity": 0.6299212598425197,
          "duration": 0.11197916666665719
        },
        {
          "name": "G3",
          "midi": 55,
          "time": 76.40885416666674,
          "velocity": 0.6299212598425197,
          "duration": 0.1067708333333286
        },
        {
          "name": "G4",
          "midi": 67,
          "time": 76.40885416666674,
          "velocity": 0.6299212598425197,
          "duration": 0.1067708333333286
        },
        {
          "name": "A4",
          "midi": 69,
          "time": 76.6067708333334,
          "velocity": 0.6299212598425197,
          "duration": 0.078125
        },
        {
          "name": "C2",
          "midi": 36,
          "time": 76.65885416666673,
          "velocity": 0.6299212598425197,
          "duration": 0.11458333333334281
        },
        {
          "name": "C3",
          "midi": 48,
          "time": 76.65885416666673,
          "velocity": 0.6299212598425197,
          "duration": 0.11458333333334281
        },
        {
          "name": "A#4",
          "midi": 70,
          "time": 76.65885416666673,
          "velocity": 0.6299212598425197,
          "duration": 0.11458333333334281
        },
        {
          "name": "C5",
          "midi": 72,
          "time": 76.7864583333334,
          "velocity": 0.6299212598425197,
          "duration": 0.1536458333333286
        },
        {
          "name": "E5",
          "midi": 76,
          "time": 76.7864583333334,
          "velocity": 0.6299212598425197,
          "duration": 0.1536458333333286
        },
        {
          "name": "A#3",
          "midi": 58,
          "time": 76.89322916666673,
          "velocity": 0.6299212598425197,
          "duration": 0.0833333333333286
        },
        {
          "name": "C4",
          "midi": 60,
          "time": 76.89322916666673,
          "velocity": 0.6299212598425197,
          "duration": 0.0833333333333286
        },
        {
          "name": "E4",
          "midi": 64,
          "time": 76.89322916666673,
          "velocity": 0.6299212598425197,
          "duration": 0.0833333333333286
        },
        {
          "name": "A#4",
          "midi": 70,
          "time": 77.00000000000006,
          "velocity": 0.6299212598425197,
          "duration": 0.0911458333333286
        },
        {
          "name": "D5",
          "midi": 74,
          "time": 77.00000000000006,
          "velocity": 0.6299212598425197,
          "duration": 0.0911458333333286
        },
        {
          "name": "C3",
          "midi": 48,
          "time": 77.12500000000006,
          "velocity": 0.6299212598425197,
          "duration": 0.109375
        },
        {
          "name": "F3",
          "midi": 53,
          "time": 77.12500000000006,
          "velocity": 0.6299212598425197,
          "duration": 0.1223958333333286
        },
        {
          "name": "A4",
          "midi": 69,
          "time": 77.12500000000006,
          "velocity": 0.6299212598425197,
          "duration": 0.3411458333333428
        },
        {
          "name": "C5",
          "midi": 72,
          "time": 77.12500000000006,
          "velocity": 0.6299212598425197,
          "duration": 0.3411458333333428
        },
        {
          "name": "F2",
          "midi": 41,
          "time": 77.13802083333339,
          "velocity": 0.6299212598425197,
          "duration": 0.1119791666666714
        },
        {
          "name": "B2",
          "midi": 47,
          "time": 77.35416666666673,
          "velocity": 0.6299212598425197,
          "duration": 0.1119791666666714
        },
        {
          "name": "B3",
          "midi": 59,
          "time": 77.35416666666673,
          "velocity": 0.6299212598425197,
          "duration": 0.1119791666666714
        },
        {
          "name": "C4",
          "midi": 60,
          "time": 77.56510416666673,
          "velocity": 0.6299212598425197,
          "duration": 0.11979166666665719
        },
        {
          "name": "A4",
          "midi": 69,
          "time": 77.56510416666673,
          "velocity": 0.6299212598425197,
          "duration": 0.11979166666665719
        },
        {
          "name": "C3",
          "midi": 48,
          "time": 77.57031250000006,
          "velocity": 0.6299212598425197,
          "duration": 0.1145833333333286
        },
        {
          "name": "C5",
          "midi": 72,
          "time": 77.57031250000006,
          "velocity": 0.6299212598425197,
          "duration": 0.1145833333333286
        },
        {
          "name": "D4",
          "midi": 62,
          "time": 77.80468750000006,
          "velocity": 0.6299212598425197,
          "duration": 0.1171875
        },
        {
          "name": "D3",
          "midi": 50,
          "time": 77.80989583333339,
          "velocity": 0.6299212598425197,
          "duration": 0.1119791666666714
        },
        {
          "name": "F5",
          "midi": 77,
          "time": 77.92708333333339,
          "velocity": 0.6299212598425197,
          "duration": 0.1197916666666714
        },
        {
          "name": "D#3",
          "midi": 51,
          "time": 78.01562500000006,
          "velocity": 0.6299212598425197,
          "duration": 0.2213541666666572
        },
        {
          "name": "A4",
          "midi": 69,
          "time": 78.05208333333339,
          "velocity": 0.6299212598425197,
          "duration": 0.1067708333333286
        },
        {
          "name": "D#5",
          "midi": 75,
          "time": 78.05208333333339,
          "velocity": 0.6299212598425197,
          "duration": 0.1067708333333286
        },
        {
          "name": "G5",
          "midi": 79,
          "time": 78.05208333333339,
          "velocity": 0.6299212598425197,
          "duration": 0.1067708333333286
        },
        {
          "name": "F5",
          "midi": 77,
          "time": 78.23697916666671,
          "velocity": 0.6299212598425197,
          "duration": 0.07812499999998579
        },
        {
          "name": "D#4",
          "midi": 63,
          "time": 78.28906250000004,
          "velocity": 0.6299212598425197,
          "duration": 0.11458333333331439
        },
        {
          "name": "A3",
          "midi": 57,
          "time": 78.29427083333337,
          "velocity": 0.6299212598425197,
          "duration": 0.10937499999998579
        },
        {
          "name": "F4",
          "midi": 65,
          "time": 78.29427083333337,
          "velocity": 0.6299212598425197,
          "duration": 0.10937499999998579
        },
        {
          "name": "A4",
          "midi": 69,
          "time": 78.29427083333337,
          "velocity": 0.6299212598425197,
          "duration": 0.10937499999998579
        },
        {
          "name": "D#5",
          "midi": 75,
          "time": 78.29427083333337,
          "velocity": 0.6299212598425197,
          "duration": 0.10416666666665719
        },
        {
          "name": "G5",
          "midi": 79,
          "time": 78.2994791666667,
          "velocity": 0.6299212598425197,
          "duration": 0.10416666666665719
        },
        {
          "name": "F5",
          "midi": 77,
          "time": 78.46875000000003,
          "velocity": 0.6299212598425197,
          "duration": 0.08593749999998579
        },
        {
          "name": "F2",
          "midi": 41,
          "time": 78.52864583333336,
          "velocity": 0.6299212598425197,
          "duration": 0.1328125
        },
        {
          "name": "F3",
          "midi": 53,
          "time": 78.52864583333336,
          "velocity": 0.6299212598425197,
          "duration": 0.1145833333333286
        },
        {
          "name": "A4",
          "midi": 69,
          "time": 78.52864583333336,
          "velocity": 0.6299212598425197,
          "duration": 0.1979166666666714
        },
        {
          "name": "D#5",
          "midi": 75,
          "time": 78.52864583333336,
          "velocity": 0.6299212598425197,
          "duration": 0.1145833333333286
        },
        {
          "name": "G5",
          "midi": 79,
          "time": 78.54166666666669,
          "velocity": 0.6299212598425197,
          "duration": 0.1015625
        },
        {
          "name": "F5",
          "midi": 77,
          "time": 78.64322916666669,
          "velocity": 0.6299212598425197,
          "duration": 0.1770833333333286
        },
        {
          "name": "D#2",
          "midi": 39,
          "time": 78.75520833333336,
          "velocity": 0.6299212598425197,
          "duration": 0.12499999999998579
        },
        {
          "name": "D#3",
          "midi": 51,
          "time": 78.76822916666669,
          "velocity": 0.6299212598425197,
          "duration": 0.08854166666665719
        },
        {
          "name": "A#4",
          "midi": 70,
          "time": 78.88020833333334,
          "velocity": 0.6299212598425197,
          "duration": 0.4817708333333286
        },
        {
          "name": "D5",
          "midi": 74,
          "time": 78.88020833333334,
          "velocity": 0.6299212598425197,
          "duration": 0.5416666666666572
        },
        {
          "name": "D2",
          "midi": 38,
          "time": 78.96354166666667,
          "velocity": 0.6299212598425197,
          "duration": 0.2239583333333286
        },
        {
          "name": "D3",
          "midi": 50,
          "time": 79,
          "velocity": 0.6299212598425197,
          "duration": 0.1875
        },
        {
          "name": "A#2",
          "midi": 46,
          "time": 79.21875,
          "velocity": 0.6299212598425197,
          "duration": 0.1119791666666714
        },
        {
          "name": "A#3",
          "midi": 58,
          "time": 79.21875,
          "velocity": 0.6299212598425197,
          "duration": 0.1119791666666714
        },
        {
          "name": "A#3",
          "midi": 58,
          "time": 79.45052083333333,
          "velocity": 0.6299212598425197,
          "duration": 0.1171875
        },
        {
          "name": "A#2",
          "midi": 46,
          "time": 79.45572916666666,
          "velocity": 0.6299212598425197,
          "duration": 0.1119791666666714
        },
        {
          "name": "C4",
          "midi": 60,
          "time": 79.67708333333333,
          "velocity": 0.6299212598425197,
          "duration": 0.1223958333333286
        },
        {
          "name": "A#2",
          "midi": 46,
          "time": 79.68229166666666,
          "velocity": 0.6299212598425197,
          "duration": 0.0807291666666714
        },
        {
          "name": "F3",
          "midi": 53,
          "time": 79.68229166666666,
          "velocity": 0.6299212598425197,
          "duration": 0.1171875
        },
        {
          "name": "A#2",
          "midi": 46,
          "time": 79.87499999999999,
          "velocity": 0.6299212598425197,
          "duration": 0.885416666666643
        },
        {
          "name": "F3",
          "midi": 53,
          "time": 79.90624999999999,
          "velocity": 0.6299212598425197,
          "duration": 0.9140624999999716
        },
        {
          "name": "D4",
          "midi": 62,
          "time": 79.90624999999999,
          "velocity": 0.6299212598425197,
          "duration": 0.9453124999999716
        },
        {
          "name": "A#5",
          "midi": 82,
          "time": 80.08333333333331,
          "velocity": 0.6299212598425197,
          "duration": 0.0833333333333286
        },
        {
          "name": "A#4",
          "midi": 70,
          "time": 80.09635416666664,
          "velocity": 0.6299212598425197,
          "duration": 0.0833333333333286
        },
        {
          "name": "B4",
          "midi": 71,
          "time": 80.14322916666664,
          "velocity": 0.6299212598425197,
          "duration": 0.11718749999998579
        },
        {
          "name": "B5",
          "midi": 83,
          "time": 80.14843749999997,
          "velocity": 0.6299212598425197,
          "duration": 0.0833333333333286
        },
        {
          "name": "C5",
          "midi": 72,
          "time": 80.3255208333333,
          "velocity": 0.6299212598425197,
          "duration": 0.0859375
        },
        {
          "name": "C6",
          "midi": 84,
          "time": 80.3255208333333,
          "velocity": 0.6299212598425197,
          "duration": 0.0859375
        },
        {
          "name": "C#5",
          "midi": 73,
          "time": 80.38541666666663,
          "velocity": 0.6299212598425197,
          "duration": 0.109375
        },
        {
          "name": "C#6",
          "midi": 85,
          "time": 80.38541666666663,
          "velocity": 0.6299212598425197,
          "duration": 0.1041666666666714
        },
        {
          "name": "G5",
          "midi": 79,
          "time": 80.51822916666663,
          "velocity": 0.6299212598425197,
          "duration": 0.15625
        },
        {
          "name": "G6",
          "midi": 91,
          "time": 80.51822916666663,
          "velocity": 0.6299212598425197,
          "duration": 0.1614583333333286
        },
        {
          "name": "F#5",
          "midi": 78,
          "time": 80.79687499999996,
          "velocity": 0.6299212598425197,
          "duration": 0.0833333333333286
        },
        {
          "name": "F#6",
          "midi": 90,
          "time": 80.79687499999996,
          "velocity": 0.6299212598425197,
          "duration": 0.0833333333333286
        },
        {
          "name": "G6",
          "midi": 91,
          "time": 80.85156249999996,
          "velocity": 0.6299212598425197,
          "duration": 0.08854166666665719
        },
        {
          "name": "G5",
          "midi": 79,
          "time": 80.85677083333329,
          "velocity": 0.6299212598425197,
          "duration": 0.1015625
        },
        {
          "name": "F5",
          "midi": 77,
          "time": 80.96354166666661,
          "velocity": 0.6299212598425197,
          "duration": 0.11197916666665719
        },
        {
          "name": "F6",
          "midi": 89,
          "time": 80.96354166666661,
          "velocity": 0.6299212598425197,
          "duration": 0.0833333333333286
        },
        {
          "name": "C#5",
          "midi": 73,
          "time": 81.07031249999994,
          "velocity": 0.6299212598425197,
          "duration": 0.11458333333331439
        },
        {
          "name": "C#6",
          "midi": 85,
          "time": 81.0807291666666,
          "velocity": 0.6299212598425197,
          "duration": 0.0911458333333286
        },
        {
          "name": "C5",
          "midi": 72,
          "time": 81.19531249999993,
          "velocity": 0.6299212598425197,
          "duration": 0.109375
        },
        {
          "name": "C6",
          "midi": 84,
          "time": 81.19531249999993,
          "velocity": 0.6299212598425197,
          "duration": 0.0833333333333286
        },
        {
          "name": "A#4",
          "midi": 70,
          "time": 81.32031249999993,
          "velocity": 0.6299212598425197,
          "duration": 0.3671875
        },
        {
          "name": "A#5",
          "midi": 82,
          "time": 81.32031249999993,
          "velocity": 0.6299212598425197,
          "duration": 0.3671875
        },
        {
          "name": "C#4",
          "midi": 61,
          "time": 81.5416666666666,
          "velocity": 0.6299212598425197,
          "duration": 0.11197916666665719
        },
        {
          "name": "A#2",
          "midi": 46,
          "time": 81.54687499999993,
          "velocity": 0.6299212598425197,
          "duration": 0.1067708333333286
        },
        {
          "name": "F3",
          "midi": 53,
          "time": 81.54687499999993,
          "velocity": 0.6299212598425197,
          "duration": 0.1067708333333286
        },
        {
          "name": "A2",
          "midi": 45,
          "time": 81.7526041666666,
          "velocity": 0.6299212598425197,
          "duration": 0.5598958333333428
        },
        {
          "name": "F3",
          "midi": 53,
          "time": 81.77083333333327,
          "velocity": 0.6299212598425197,
          "duration": 0.5364583333333428
        },
        {
          "name": "C4",
          "midi": 60,
          "time": 81.77083333333327,
          "velocity": 0.6299212598425197,
          "duration": 0.5364583333333428
        },
        {
          "name": "E5",
          "midi": 76,
          "time": 81.94270833333327,
          "velocity": 0.6299212598425197,
          "duration": 0.08333333333334281
        },
        {
          "name": "E4",
          "midi": 64,
          "time": 81.9479166666666,
          "velocity": 0.6299212598425197,
          "duration": 0.07812500000001421
        },
        {
          "name": "F4",
          "midi": 65,
          "time": 82.00781249999994,
          "velocity": 0.6299212598425197,
          "duration": 0.11458333333334281
        },
        {
          "name": "F5",
          "midi": 77,
          "time": 82.00781249999994,
          "velocity": 0.6299212598425197,
          "duration": 0.11458333333334281
        },
        {
          "name": "G#4",
          "midi": 68,
          "time": 82.19270833333329,
          "velocity": 0.6299212598425197,
          "duration": 0.0833333333333286
        },
        {
          "name": "G#5",
          "midi": 80,
          "time": 82.19791666666661,
          "velocity": 0.6299212598425197,
          "duration": 0.0833333333333286
        },
        {
          "name": "A4",
          "midi": 69,
          "time": 82.24999999999994,
          "velocity": 0.6299212598425197,
          "duration": 0.1328125
        },
        {
          "name": "A5",
          "midi": 81,
          "time": 82.24999999999994,
          "velocity": 0.6299212598425197,
          "duration": 0.0911458333333286
        },
        {
          "name": "E6",
          "midi": 88,
          "time": 82.41927083333327,
          "velocity": 0.6299212598425197,
          "duration": 0.1432291666666572
        },
        {
          "name": "E5",
          "midi": 76,
          "time": 82.4244791666666,
          "velocity": 0.6299212598425197,
          "duration": 0.1380208333333286
        },
        {
          "name": "D2",
          "midi": 38,
          "time": 82.68749999999993,
          "velocity": 0.6299212598425197,
          "duration": 0.5677083333333002
        },
        {
          "name": "D#5",
          "midi": 75,
          "time": 82.6901041666666,
          "velocity": 0.6299212598425197,
          "duration": 0.0729166666666714
        },
        {
          "name": "D#6",
          "midi": 87,
          "time": 82.6901041666666,
          "velocity": 0.6299212598425197,
          "duration": 0.0859375
        },
        {
          "name": "A2",
          "midi": 45,
          "time": 82.70833333333327,
          "velocity": 0.6299212598425197,
          "duration": 0.5468749999999574
        },
        {
          "name": "F#3",
          "midi": 54,
          "time": 82.73958333333327,
          "velocity": 0.6299212598425197,
          "duration": 0.5156249999999574
        },
        {
          "name": "E5",
          "midi": 76,
          "time": 82.73958333333327,
          "velocity": 0.6299212598425197,
          "duration": 0.12499999999998579
        },
        {
          "name": "E6",
          "midi": 88,
          "time": 82.74999999999994,
          "velocity": 0.6299212598425197,
          "duration": 0.07291666666665719
        },
        {
          "name": "D6",
          "midi": 86,
          "time": 82.85937499999993,
          "velocity": 0.6299212598425197,
          "duration": 0.0859375
        },
        {
          "name": "D5",
          "midi": 74,
          "time": 82.86458333333326,
          "velocity": 0.6299212598425197,
          "duration": 0.1041666666666714
        },
        {
          "name": "C5",
          "midi": 72,
          "time": 82.97395833333326,
          "velocity": 0.6299212598425197,
          "duration": 0.11197916666665719
        },
        {
          "name": "C6",
          "midi": 84,
          "time": 82.97395833333326,
          "velocity": 0.6299212598425197,
          "duration": 0.0833333333333286
        },
        {
          "name": "A4",
          "midi": 69,
          "time": 83.09114583333324,
          "velocity": 0.6299212598425197,
          "duration": 0.12239583333331439
        },
        {
          "name": "A5",
          "midi": 81,
          "time": 83.09635416666657,
          "velocity": 0.6299212598425197,
          "duration": 0.0703125
        },
        {
          "name": "F#4",
          "midi": 66,
          "time": 83.1953124999999,
          "velocity": 0.6299212598425197,
          "duration": 0.2916666666666714
        },
        {
          "name": "F#5",
          "midi": 78,
          "time": 83.20833333333323,
          "velocity": 0.6299212598425197,
          "duration": 0.2916666666666714
        },
        {
          "name": "D2",
          "midi": 38,
          "time": 83.40364583333323,
          "velocity": 0.6299212598425197,
          "duration": 0.1484375
        },
        {
          "name": "F#3",
          "midi": 54,
          "time": 83.43489583333323,
          "velocity": 0.6299212598425197,
          "duration": 0.1171875
        },
        {
          "name": "A2",
          "midi": 45,
          "time": 83.4374999999999,
          "velocity": 0.6299212598425197,
          "duration": 0.1145833333333286
        },
        {
          "name": "G2",
          "midi": 43,
          "time": 83.66927083333323,
          "velocity": 0.6299212598425197,
          "duration": 0.11197916666665719
        },
        {
          "name": "G3",
          "midi": 55,
          "time": 83.66927083333323,
          "velocity": 0.6299212598425197,
          "duration": 0.11197916666665719
        },
        {
          "name": "A#4",
          "midi": 70,
          "time": 83.66927083333323,
          "velocity": 0.6299212598425197,
          "duration": 0.11197916666665719
        },
        {
          "name": "D5",
          "midi": 74,
          "time": 83.66927083333323,
          "velocity": 0.6299212598425197,
          "duration": 0.0989583333333286
        },
        {
          "name": "F#4",
          "midi": 66,
          "time": 83.83333333333321,
          "velocity": 0.6299212598425197,
          "duration": 0.09374999999998579
        },
        {
          "name": "G4",
          "midi": 67,
          "time": 83.88541666666654,
          "velocity": 0.6299212598425197,
          "duration": 0.1223958333333286
        },
        {
          "name": "G3",
          "midi": 55,
          "time": 83.89062499999987,
          "velocity": 0.6299212598425197,
          "duration": 0.1171875
        },
        {
          "name": "A#3",
          "midi": 58,
          "time": 83.89062499999987,
          "velocity": 0.6299212598425197,
          "duration": 0.1171875
        },
        {
          "name": "C4",
          "midi": 60,
          "time": 83.8958333333332,
          "velocity": 0.6299212598425197,
          "duration": 0.1119791666666714
        },
        {
          "name": "E4",
          "midi": 64,
          "time": 83.8958333333332,
          "velocity": 0.6299212598425197,
          "duration": 0.1119791666666714
        },
        {
          "name": "A4",
          "midi": 69,
          "time": 84.07812499999987,
          "velocity": 0.6299212598425197,
          "duration": 0.08072916666665719
        },
        {
          "name": "G2",
          "midi": 43,
          "time": 84.1302083333332,
          "velocity": 0.6299212598425197,
          "duration": 0.1067708333333286
        },
        {
          "name": "A#4",
          "midi": 70,
          "time": 84.1302083333332,
          "velocity": 0.6299212598425197,
          "duration": 0.11718749999998579
        },
        {
          "name": "G1",
          "midi": 31,
          "time": 84.13541666666653,
          "velocity": 0.6299212598425197,
          "duration": 0.11197916666665719
        },
        {
          "name": "C5",
          "midi": 72,
          "time": 84.24218749999986,
          "velocity": 0.6299212598425197,
          "duration": 0.1692708333333286
        },
        {
          "name": "E5",
          "midi": 76,
          "time": 84.24218749999986,
          "velocity": 0.6299212598425197,
          "duration": 0.1822916666666572
        },
        {
          "name": "G3",
          "midi": 55,
          "time": 84.36458333333319,
          "velocity": 0.6299212598425197,
          "duration": 0.11979166666665719
        },
        {
          "name": "A#3",
          "midi": 58,
          "time": 84.36458333333319,
          "velocity": 0.6299212598425197,
          "duration": 0.12499999999998579
        },
        {
          "name": "E4",
          "midi": 64,
          "time": 84.36458333333319,
          "velocity": 0.6299212598425197,
          "duration": 0.12499999999998579
        },
        {
          "name": "A4",
          "midi": 69,
          "time": 84.5651041666665,
          "velocity": 0.6299212598425197,
          "duration": 0.08072916666665719
        },
        {
          "name": "C3",
          "midi": 48,
          "time": 84.61458333333317,
          "velocity": 0.6299212598425197,
          "duration": 0.11458333333331439
        },
        {
          "name": "C2",
          "midi": 36,
          "time": 84.6197916666665,
          "velocity": 0.6299212598425197,
          "duration": 0.11458333333331439
        },
        {
          "name": "A#4",
          "midi": 70,
          "time": 84.6197916666665,
          "velocity": 0.6299212598425197,
          "duration": 0.11458333333331439
        },
        {
          "name": "D5",
          "midi": 74,
          "time": 84.62499999999983,
          "velocity": 0.6299212598425197,
          "duration": 0.10416666666665719
        },
        {
          "name": "F#4",
          "midi": 66,
          "time": 84.79427083333314,
          "velocity": 0.6299212598425197,
          "duration": 0.08854166666665719
        },
        {
          "name": "G3",
          "midi": 55,
          "time": 84.85416666666647,
          "velocity": 0.6299212598425197,
          "duration": 0.11718749999998579
        },
        {
          "name": "A#3",
          "midi": 58,
          "time": 84.85416666666647,
          "velocity": 0.6299212598425197,
          "duration": 0.1067708333333286
        },
        {
          "name": "E4",
          "midi": 64,
          "time": 84.85416666666647,
          "velocity": 0.6299212598425197,
          "duration": 0.1067708333333286
        },
        {
          "name": "G4",
          "midi": 67,
          "time": 84.85416666666647,
          "velocity": 0.6299212598425197,
          "duration": 0.11197916666665719
        },
        {
          "name": "A4",
          "midi": 69,
          "time": 85.02343749999979,
          "velocity": 0.6299212598425197,
          "duration": 0.0885416666666714
        },
        {
          "name": "G2",
          "midi": 43,
          "time": 85.08854166666646,
          "velocity": 0.6299212598425197,
          "duration": 0.09375
        },
        {
          "name": "G3",
          "midi": 55,
          "time": 85.08854166666646,
          "velocity": 0.6299212598425197,
          "duration": 0.1041666666666714
        },
        {
          "name": "A#4",
          "midi": 70,
          "time": 85.09374999999979,
          "velocity": 0.6299212598425197,
          "duration": 0.09895833333334281
        },
        {
          "name": "C5",
          "midi": 72,
          "time": 85.19270833333313,
          "velocity": 0.6299212598425197,
          "duration": 0.1692708333333286
        },
        {
          "name": "E5",
          "midi": 76,
          "time": 85.19270833333313,
          "velocity": 0.6299212598425197,
          "duration": 0.1744791666666572
        },
        {
          "name": "F3",
          "midi": 53,
          "time": 85.30208333333313,
          "velocity": 0.6299212598425197,
          "duration": 0.11718749999998579
        },
        {
          "name": "F2",
          "midi": 41,
          "time": 85.31770833333313,
          "velocity": 0.6299212598425197,
          "duration": 0.11458333333331439
        },
        {
          "name": "A4",
          "midi": 69,
          "time": 85.48437499999977,
          "velocity": 0.6299212598425197,
          "duration": 0.08072916666665719
        },
        {
          "name": "E3",
          "midi": 52,
          "time": 85.53124999999977,
          "velocity": 0.6299212598425197,
          "duration": 0.11718749999998579
        },
        {
          "name": "D5",
          "midi": 74,
          "time": 85.53124999999977,
          "velocity": 0.6299212598425197,
          "duration": 0.11718749999998579
        },
        {
          "name": "E2",
          "midi": 40,
          "time": 85.5442708333331,
          "velocity": 0.6299212598425197,
          "duration": 0.10937499999998579
        },
        {
          "name": "A#4",
          "midi": 70,
          "time": 85.5442708333331,
          "velocity": 0.6299212598425197,
          "duration": 0.10937499999998579
        },
        {
          "name": "A4",
          "midi": 69,
          "time": 85.70052083333309,
          "velocity": 0.6299212598425197,
          "duration": 0.0885416666666714
        },
        {
          "name": "G3",
          "midi": 55,
          "time": 85.76562499999976,
          "velocity": 0.6299212598425197,
          "duration": 0.1067708333333286
        },
        {
          "name": "A#3",
          "midi": 58,
          "time": 85.76562499999976,
          "velocity": 0.6299212598425197,
          "duration": 0.1067708333333286
        },
        {
          "name": "A#4",
          "midi": 70,
          "time": 85.76562499999976,
          "velocity": 0.6299212598425197,
          "duration": 0.1067708333333286
        },
        {
          "name": "D5",
          "midi": 74,
          "time": 85.76562499999976,
          "velocity": 0.6299212598425197,
          "duration": 0.1067708333333286
        },
        {
          "name": "A4",
          "midi": 69,
          "time": 85.93229166666642,
          "velocity": 0.6299212598425197,
          "duration": 0.0911458333333286
        },
        {
          "name": "C3",
          "midi": 48,
          "time": 85.98437499999974,
          "velocity": 0.6299212598425197,
          "duration": 0.1302083333333286
        },
        {
          "name": "A#4",
          "midi": 70,
          "time": 85.99739583333307,
          "velocity": 0.6299212598425197,
          "duration": 0.1171875
        },
        {
          "name": "C2",
          "midi": 36,
          "time": 85.99999999999974,
          "velocity": 0.6299212598425197,
          "duration": 0.1145833333333286
        },
        {
          "name": "D5",
          "midi": 74,
          "time": 85.99999999999974,
          "velocity": 0.6299212598425197,
          "duration": 0.1015625
        },
        {
          "name": "A#3",
          "midi": 58,
          "time": 86.22656249999974,
          "velocity": 0.6299212598425197,
          "duration": 0.10937499999998579
        },
        {
          "name": "G3",
          "midi": 55,
          "time": 86.23177083333307,
          "velocity": 0.6299212598425197,
          "duration": 0.10416666666665719
        },
        {
          "name": "E4",
          "midi": 64,
          "time": 86.23177083333307,
          "velocity": 0.6299212598425197,
          "duration": 0.10416666666665719
        },
        {
          "name": "C5",
          "midi": 72,
          "time": 86.2369791666664,
          "velocity": 0.6299212598425197,
          "duration": 0.0989583333333286
        },
        {
          "name": "F2",
          "midi": 41,
          "time": 86.46093749999973,
          "velocity": 0.6299212598425197,
          "duration": 0.3072916666666572
        },
        {
          "name": "A3",
          "midi": 57,
          "time": 86.4791666666664,
          "velocity": 0.6299212598425197,
          "duration": 0.3411458333333144
        },
        {
          "name": "A4",
          "midi": 69,
          "time": 86.4791666666664,
          "velocity": 0.6299212598425197,
          "duration": 0.3411458333333144
        },
        {
          "name": "C5",
          "midi": 72,
          "time": 86.4791666666664,
          "velocity": 0.6299212598425197,
          "duration": 0.3411458333333144
        },
        {
          "name": "F5",
          "midi": 77,
          "time": 86.4791666666664,
          "velocity": 0.6299212598425197,
          "duration": 0.3411458333333144
        },
        {
          "name": "E2",
          "midi": 40,
          "time": 86.89062499999972,
          "velocity": 0.6299212598425197,
          "duration": 0.3619791666666714
        },
        {
          "name": "B2",
          "midi": 47,
          "time": 86.92187499999972,
          "velocity": 0.6299212598425197,
          "duration": 0.3307291666666714
        },
        {
          "name": "G#3",
          "midi": 56,
          "time": 86.93749999999972,
          "velocity": 0.6299212598425197,
          "duration": 0.3125
        },
        {
          "name": "D4",
          "midi": 62,
          "time": 86.95052083333304,
          "velocity": 0.6299212598425197,
          "duration": 0.2994791666666714
        },
        {
          "name": "G#4",
          "midi": 68,
          "time": 86.95052083333304,
          "velocity": 0.6299212598425197,
          "duration": 0.2994791666666714
        },
        {
          "name": "C5",
          "midi": 72,
          "time": 86.95052083333304,
          "velocity": 0.6299212598425197,
          "duration": 0.2994791666666714
        },
        {
          "name": "E5",
          "midi": 76,
          "time": 86.95052083333304,
          "velocity": 0.6299212598425197,
          "duration": 0.2994791666666714
        },
        {
          "name": "B4",
          "midi": 71,
          "time": 87.27604166666639,
          "velocity": 0.6299212598425197,
          "duration": 0.0911458333333286
        },
        {
          "name": "A2",
          "midi": 45,
          "time": 87.37239583333304,
          "velocity": 0.6299212598425197,
          "duration": 0.19270833333331439
        },
        {
          "name": "C5",
          "midi": 72,
          "time": 87.38802083333304,
          "velocity": 0.6299212598425197,
          "duration": 0.09635416666665719
        },
        {
          "name": "D5",
          "midi": 74,
          "time": 87.47916666666637,
          "velocity": 0.6299212598425197,
          "duration": 0.08593749999998579
        },
        {
          "name": "C5",
          "midi": 72,
          "time": 87.56510416666636,
          "velocity": 0.6299212598425197,
          "duration": 0.0807291666666714
        },
        {
          "name": "E3",
          "midi": 52,
          "time": 87.61979166666636,
          "velocity": 0.6299212598425197,
          "duration": 0.109375
        },
        {
          "name": "C4",
          "midi": 60,
          "time": 87.62499999999969,
          "velocity": 0.6299212598425197,
          "duration": 0.1041666666666714
        },
        {
          "name": "A4",
          "midi": 69,
          "time": 87.62760416666636,
          "velocity": 0.6299212598425197,
          "duration": 0.1145833333333286
        },
        {
          "name": "A#4",
          "midi": 70,
          "time": 87.78906249999969,
          "velocity": 0.6299212598425197,
          "duration": 0.09375
        },
        {
          "name": "E2",
          "midi": 40,
          "time": 87.85416666666636,
          "velocity": 0.6299212598425197,
          "duration": 0.18749999999997158
        },
        {
          "name": "B4",
          "midi": 71,
          "time": 87.85416666666636,
          "velocity": 0.6299212598425197,
          "duration": 0.10677083333331439
        },
        {
          "name": "B2",
          "midi": 47,
          "time": 87.94270833333302,
          "velocity": 0.6299212598425197,
          "duration": 0.18489583333331439
        },
        {
          "name": "D4",
          "midi": 62,
          "time": 87.966145833333,
          "velocity": 0.6299212598425197,
          "duration": 0.109375
        },
        {
          "name": "G#4",
          "midi": 68,
          "time": 87.966145833333,
          "velocity": 0.6299212598425197,
          "duration": 0.1614583333333286
        },
        {
          "name": "E5",
          "midi": 76,
          "time": 87.966145833333,
          "velocity": 0.6299212598425197,
          "duration": 0.1744791666666572
        },
        {
          "name": "G#3",
          "midi": 56,
          "time": 87.97135416666633,
          "velocity": 0.6299212598425197,
          "duration": 0.1692708333333286
        },
        {
          "name": "E4",
          "midi": 64,
          "time": 87.97135416666633,
          "velocity": 0.6299212598425197,
          "duration": 0.15625
        },
        {
          "name": "D5",
          "midi": 74,
          "time": 88.18749999999966,
          "velocity": 0.6299212598425197,
          "duration": 0.0963541666666714
        },
        {
          "name": "A2",
          "midi": 45,
          "time": 88.28906249999966,
          "velocity": 0.6299212598425197,
          "duration": 0.2447916666666572
        },
        {
          "name": "C5",
          "midi": 72,
          "time": 88.31770833333299,
          "velocity": 0.6299212598425197,
          "duration": 0.0911458333333286
        },
        {
          "name": "D5",
          "midi": 74,
          "time": 88.40885416666632,
          "velocity": 0.6299212598425197,
          "duration": 0.0833333333333286
        },
        {
          "name": "C5",
          "midi": 72,
          "time": 88.50260416666632,
          "velocity": 0.6299212598425197,
          "duration": 0.09635416666665719
        },
        {
          "name": "E3",
          "midi": 52,
          "time": 88.56249999999964,
          "velocity": 0.6299212598425197,
          "duration": 0.1614583333333286
        },
        {
          "name": "C4",
          "midi": 60,
          "time": 88.57552083333297,
          "velocity": 0.6299212598425197,
          "duration": 0.0885416666666714
        },
        {
          "name": "A4",
          "midi": 69,
          "time": 88.57552083333297,
          "velocity": 0.6299212598425197,
          "duration": 0.1171875
        },
        {
          "name": "A#4",
          "midi": 70,
          "time": 88.75781249999964,
          "velocity": 0.6299212598425197,
          "duration": 0.0703125
        },
        {
          "name": "E2",
          "midi": 40,
          "time": 88.81249999999964,
          "velocity": 0.6299212598425197,
          "duration": 0.1484374999999858
        },
        {
          "name": "B4",
          "midi": 71,
          "time": 88.81249999999964,
          "velocity": 0.6299212598425197,
          "duration": 0.1119791666666714
        },
        {
          "name": "B2",
          "midi": 47,
          "time": 88.92968749999964,
          "velocity": 0.6299212598425197,
          "duration": 0.16927083333331439
        },
        {
          "name": "G#3",
          "midi": 56,
          "time": 88.92968749999964,
          "velocity": 0.6299212598425197,
          "duration": 0.16927083333331439
        },
        {
          "name": "D4",
          "midi": 62,
          "time": 88.92968749999964,
          "velocity": 0.6299212598425197,
          "duration": 0.16927083333331439
        },
        {
          "name": "G#4",
          "midi": 68,
          "time": 88.93489583333297,
          "velocity": 0.6299212598425197,
          "duration": 0.1640624999999858
        },
        {
          "name": "E5",
          "midi": 76,
          "time": 88.93489583333297,
          "velocity": 0.6299212598425197,
          "duration": 0.1640624999999858
        },
        {
          "name": "D5",
          "midi": 74,
          "time": 89.16927083333296,
          "velocity": 0.6299212598425197,
          "duration": 0.0703125
        },
        {
          "name": "A2",
          "midi": 45,
          "time": 89.24479166666629,
          "velocity": 0.6299212598425197,
          "duration": 0.20052083333331439
        },
        {
          "name": "C5",
          "midi": 72,
          "time": 89.27343749999962,
          "velocity": 0.6299212598425197,
          "duration": 0.0911458333333286
        },
        {
          "name": "D5",
          "midi": 74,
          "time": 89.35156249999962,
          "velocity": 0.6299212598425197,
          "duration": 0.08854166666665719
        },
        {
          "name": "C5",
          "midi": 72,
          "time": 89.45052083333293,
          "velocity": 0.6299212598425197,
          "duration": 0.0703125
        },
        {
          "name": "E3",
          "midi": 52,
          "time": 89.4999999999996,
          "velocity": 0.6299212598425197,
          "duration": 0.1432291666666572
        },
        {
          "name": "C4",
          "midi": 60,
          "time": 89.4999999999996,
          "velocity": 0.6299212598425197,
          "duration": 0.0911458333333286
        },
        {
          "name": "A4",
          "midi": 69,
          "time": 89.4999999999996,
          "velocity": 0.6299212598425197,
          "duration": 0.1223958333333286
        },
        {
          "name": "A#4",
          "midi": 70,
          "time": 89.67447916666626,
          "velocity": 0.6299212598425197,
          "duration": 0.08593749999998579
        },
        {
          "name": "B4",
          "midi": 71,
          "time": 89.72656249999959,
          "velocity": 0.6299212598425197,
          "duration": 0.11718749999998579
        },
        {
          "name": "E2",
          "midi": 40,
          "time": 89.73177083333292,
          "velocity": 0.6299212598425197,
          "duration": 0.14322916666664298
        },
        {
          "name": "D4",
          "midi": 62,
          "time": 89.8489583333329,
          "velocity": 0.6299212598425197,
          "duration": 0.16145833333331439
        },
        {
          "name": "G#4",
          "midi": 68,
          "time": 89.8489583333329,
          "velocity": 0.6299212598425197,
          "duration": 0.16145833333331439
        },
        {
          "name": "E5",
          "midi": 76,
          "time": 89.8489583333329,
          "velocity": 0.6299212598425197,
          "duration": 0.16145833333331439
        },
        {
          "name": "B2",
          "midi": 47,
          "time": 89.85416666666623,
          "velocity": 0.6299212598425197,
          "duration": 0.1562499999999858
        },
        {
          "name": "G#3",
          "midi": 56,
          "time": 89.86718749999956,
          "velocity": 0.6299212598425197,
          "duration": 0.1432291666666572
        },
        {
          "name": "C5",
          "midi": 72,
          "time": 90.07031249999955,
          "velocity": 0.6299212598425197,
          "duration": 0.0911458333333286
        },
        {
          "name": "A2",
          "midi": 45,
          "time": 90.16145833333287,
          "velocity": 0.6299212598425197,
          "duration": 0.2369791666666572
        },
        {
          "name": "A4",
          "midi": 69,
          "time": 90.19531249999955,
          "velocity": 0.6299212598425197,
          "duration": 0.1145833333333286
        },
        {
          "name": "E3",
          "midi": 52,
          "time": 90.3854166666662,
          "velocity": 0.6299212598425197,
          "duration": 0.1484374999999858
        },
        {
          "name": "G4",
          "midi": 67,
          "time": 90.4166666666662,
          "velocity": 0.6299212598425197,
          "duration": 0.11718749999998579
        },
        {
          "name": "C#4",
          "midi": 61,
          "time": 90.42968749999953,
          "velocity": 0.6299212598425197,
          "duration": 0.0989583333333286
        },
        {
          "name": "A4",
          "midi": 69,
          "time": 90.42968749999953,
          "velocity": 0.6299212598425197,
          "duration": 0.11718749999998579
        },
        {
          "name": "C#5",
          "midi": 73,
          "time": 90.42968749999953,
          "velocity": 0.6299212598425197,
          "duration": 0.0989583333333286
        },
        {
          "name": "A#5",
          "midi": 82,
          "time": 90.42968749999953,
          "velocity": 0.6299212598425197,
          "duration": 0.0989583333333286
        },
        {
          "name": "A2",
          "midi": 45,
          "time": 90.61197916666617,
          "velocity": 0.6299212598425197,
          "duration": 0.3567708333333144
        },
        {
          "name": "A#5",
          "midi": 82,
          "time": 90.6640624999995,
          "velocity": 0.6299212598425197,
          "duration": 0.1171875
        },
        {
          "name": "E3",
          "midi": 52,
          "time": 90.66927083333283,
          "velocity": 0.6299212598425197,
          "duration": 0.3515624999999858
        },
        {
          "name": "C#4",
          "midi": 61,
          "time": 90.66927083333283,
          "velocity": 0.6299212598425197,
          "duration": 0.3515624999999858
        },
        {
          "name": "G4",
          "midi": 67,
          "time": 90.66927083333283,
          "velocity": 0.6299212598425197,
          "duration": 0.1119791666666714
        },
        {
          "name": "A4",
          "midi": 69,
          "time": 90.66927083333283,
          "velocity": 0.6299212598425197,
          "duration": 0.125
        },
        {
          "name": "C#5",
          "midi": 73,
          "time": 90.66927083333283,
          "velocity": 0.6299212598425197,
          "duration": 0.1119791666666714
        },
        {
          "name": "G4",
          "midi": 67,
          "time": 90.91145833333283,
          "velocity": 0.6299212598425197,
          "duration": 0.10937499999998579
        },
        {
          "name": "C#5",
          "midi": 73,
          "time": 90.91666666666616,
          "velocity": 0.6299212598425197,
          "duration": 0.10416666666665719
        },
        {
          "name": "A5",
          "midi": 81,
          "time": 90.92187499999949,
          "velocity": 0.6299212598425197,
          "duration": 0.0989583333333286
        },
        {
          "name": "F5",
          "midi": 77,
          "time": 91.14062499999949,
          "velocity": 0.6299212598425197,
          "duration": 0.08854166666665719
        },
        {
          "name": "D2",
          "midi": 38,
          "time": 91.14583333333282,
          "velocity": 0.6299212598425197,
          "duration": 0.1067708333333286
        },
        {
          "name": "A2",
          "midi": 45,
          "time": 91.14583333333282,
          "velocity": 0.6299212598425197,
          "duration": 0.1067708333333286
        },
        {
          "name": "G5",
          "midi": 79,
          "time": 91.24218749999947,
          "velocity": 0.6299212598425197,
          "duration": 0.0703125
        },
        {
          "name": "F5",
          "midi": 77,
          "time": 91.33072916666615,
          "velocity": 0.6299212598425197,
          "duration": 0.07031249999998579
        },
        {
          "name": "A3",
          "midi": 57,
          "time": 91.36718749999947,
          "velocity": 0.6299212598425197,
          "duration": 0.11718749999998579
        },
        {
          "name": "D5",
          "midi": 74,
          "time": 91.36718749999947,
          "velocity": 0.6299212598425197,
          "duration": 0.11718749999998579
        },
        {
          "name": "D4",
          "midi": 62,
          "time": 91.3723958333328,
          "velocity": 0.6299212598425197,
          "duration": 0.0755208333333286
        },
        {
          "name": "D#5",
          "midi": 75,
          "time": 91.54427083333279,
          "velocity": 0.6299212598425197,
          "duration": 0.08854166666665719
        },
        {
          "name": "A2",
          "midi": 45,
          "time": 91.60416666666612,
          "velocity": 0.6299212598425197,
          "duration": 0.11197916666665719
        },
        {
          "name": "A3",
          "midi": 57,
          "time": 91.60416666666612,
          "velocity": 0.6299212598425197,
          "duration": 0.12239583333331439
        },
        {
          "name": "E5",
          "midi": 76,
          "time": 91.61718749999945,
          "velocity": 0.6299212598425197,
          "duration": 0.10937499999998579
        },
        {
          "name": "G4",
          "midi": 67,
          "time": 91.7213541666661,
          "velocity": 0.6299212598425197,
          "duration": 0.16145833333331439
        },
        {
          "name": "C#5",
          "midi": 73,
          "time": 91.7213541666661,
          "velocity": 0.6299212598425197,
          "duration": 0.16145833333331439
        },
        {
          "name": "A5",
          "midi": 81,
          "time": 91.7213541666661,
          "velocity": 0.6299212598425197,
          "duration": 0.16145833333331439
        },
        {
          "name": "C#4",
          "midi": 61,
          "time": 91.82552083333276,
          "velocity": 0.6299212598425197,
          "duration": 0.08854166666665719
        },
        {
          "name": "A3",
          "midi": 57,
          "time": 91.83072916666609,
          "velocity": 0.6299212598425197,
          "duration": 0.0833333333333286
        },
        {
          "name": "F4",
          "midi": 65,
          "time": 91.83072916666609,
          "velocity": 0.6299212598425197,
          "duration": 0.0833333333333286
        },
        {
          "name": "G5",
          "midi": 79,
          "time": 91.94791666666609,
          "velocity": 0.6299212598425197,
          "duration": 0.078125
        },
        {
          "name": "D2",
          "midi": 38,
          "time": 92.04947916666609,
          "velocity": 0.6299212598425197,
          "duration": 0.1145833333333286
        },
        {
          "name": "F5",
          "midi": 77,
          "time": 92.05468749999942,
          "velocity": 0.6299212598425197,
          "duration": 0.07291666666665719
        },
        {
          "name": "D3",
          "midi": 50,
          "time": 92.05989583333275,
          "velocity": 0.6299212598425197,
          "duration": 0.1041666666666714
        },
        {
          "name": "G5",
          "midi": 79,
          "time": 92.14583333333275,
          "velocity": 0.6299212598425197,
          "duration": 0.0651041666666714
        },
        {
          "name": "F5",
          "midi": 77,
          "time": 92.22395833333275,
          "velocity": 0.6299212598425197,
          "duration": 0.0755208333333286
        },
        {
          "name": "A3",
          "midi": 57,
          "time": 92.27604166666607,
          "velocity": 0.6299212598425197,
          "duration": 0.0833333333333286
        },
        {
          "name": "D4",
          "midi": 62,
          "time": 92.27604166666607,
          "velocity": 0.6299212598425197,
          "duration": 0.0833333333333286
        },
        {
          "name": "F4",
          "midi": 65,
          "time": 92.27604166666607,
          "velocity": 0.6299212598425197,
          "duration": 0.0833333333333286
        },
        {
          "name": "D5",
          "midi": 74,
          "time": 92.27604166666607,
          "velocity": 0.6299212598425197,
          "duration": 0.10416666666665719
        },
        {
          "name": "D#5",
          "midi": 75,
          "time": 92.45833333333273,
          "velocity": 0.6299212598425197,
          "duration": 0.078125
        },
        {
          "name": "A1",
          "midi": 33,
          "time": 92.50520833333273,
          "velocity": 0.6299212598425197,
          "duration": 0.1302083333333286
        },
        {
          "name": "A2",
          "midi": 45,
          "time": 92.5234374999994,
          "velocity": 0.6299212598425197,
          "duration": 0.11197916666665719
        },
        {
          "name": "E5",
          "midi": 76,
          "time": 92.5234374999994,
          "velocity": 0.6299212598425197,
          "duration": 0.11197916666665719
        },
        {
          "name": "A4",
          "midi": 69,
          "time": 92.63541666666606,
          "velocity": 0.6299212598425197,
          "duration": 0.1770833333333286
        },
        {
          "name": "G4",
          "midi": 67,
          "time": 92.64062499999939,
          "velocity": 0.6299212598425197,
          "duration": 0.171875
        },
        {
          "name": "C#5",
          "midi": 73,
          "time": 92.64062499999939,
          "velocity": 0.6299212598425197,
          "duration": 0.171875
        },
        {
          "name": "A5",
          "midi": 81,
          "time": 92.64583333333272,
          "velocity": 0.6299212598425197,
          "duration": 0.1666666666666714
        },
        {
          "name": "A3",
          "midi": 57,
          "time": 92.76302083333272,
          "velocity": 0.6299212598425197,
          "duration": 0.08333333333334281
        },
        {
          "name": "C#4",
          "midi": 61,
          "time": 92.76302083333272,
          "velocity": 0.6299212598425197,
          "duration": 0.08333333333334281
        },
        {
          "name": "F4",
          "midi": 65,
          "time": 92.76302083333272,
          "velocity": 0.6299212598425197,
          "duration": 0.08333333333334281
        },
        {
          "name": "G5",
          "midi": 79,
          "time": 92.89843749999939,
          "velocity": 0.6299212598425197,
          "duration": 0.0651041666666714
        },
        {
          "name": "D2",
          "midi": 38,
          "time": 92.99999999999939,
          "velocity": 0.6299212598425197,
          "duration": 0.125
        },
        {
          "name": "D3",
          "midi": 50,
          "time": 92.99999999999939,
          "velocity": 0.6299212598425197,
          "duration": 0.1119791666666714
        },
        {
          "name": "F5",
          "midi": 77,
          "time": 92.99999999999939,
          "velocity": 0.6299212598425197,
          "duration": 0.09375
        },
        {
          "name": "G5",
          "midi": 79,
          "time": 93.09374999999939,
          "velocity": 0.6299212598425197,
          "duration": 0.078125
        },
        {
          "name": "F5",
          "midi": 77,
          "time": 93.17708333333272,
          "velocity": 0.6299212598425197,
          "duration": 0.07812499999998579
        },
        {
          "name": "A3",
          "midi": 57,
          "time": 93.22916666666605,
          "velocity": 0.6299212598425197,
          "duration": 0.08593749999998579
        },
        {
          "name": "F4",
          "midi": 65,
          "time": 93.22916666666605,
          "velocity": 0.6299212598425197,
          "duration": 0.08593749999998579
        },
        {
          "name": "D5",
          "midi": 74,
          "time": 93.22916666666605,
          "velocity": 0.6299212598425197,
          "duration": 0.12239583333331439
        },
        {
          "name": "D4",
          "midi": 62,
          "time": 93.23437499999937,
          "velocity": 0.6299212598425197,
          "duration": 0.08072916666665719
        },
        {
          "name": "D#5",
          "midi": 75,
          "time": 93.41145833333269,
          "velocity": 0.6299212598425197,
          "duration": 0.07812499999998579
        },
        {
          "name": "A1",
          "midi": 33,
          "time": 93.45833333333269,
          "velocity": 0.6299212598425197,
          "duration": 0.11197916666665719
        },
        {
          "name": "A2",
          "midi": 45,
          "time": 93.47135416666602,
          "velocity": 0.6299212598425197,
          "duration": 0.0989583333333286
        },
        {
          "name": "E5",
          "midi": 76,
          "time": 93.47656249999935,
          "velocity": 0.6299212598425197,
          "duration": 0.09375
        },
        {
          "name": "G4",
          "midi": 67,
          "time": 93.57552083333267,
          "velocity": 0.6299212598425197,
          "duration": 0.1692708333333286
        },
        {
          "name": "A4",
          "midi": 69,
          "time": 93.57552083333267,
          "velocity": 0.6299212598425197,
          "duration": 0.1692708333333286
        },
        {
          "name": "C#5",
          "midi": 73,
          "time": 93.57552083333267,
          "velocity": 0.6299212598425197,
          "duration": 0.15625
        },
        {
          "name": "A5",
          "midi": 81,
          "time": 93.57552083333267,
          "velocity": 0.6299212598425197,
          "duration": 0.1692708333333286
        },
        {
          "name": "A3",
          "midi": 57,
          "time": 93.68489583333267,
          "velocity": 0.6299212598425197,
          "duration": 0.08854166666665719
        },
        {
          "name": "F4",
          "midi": 65,
          "time": 93.68489583333267,
          "velocity": 0.6299212598425197,
          "duration": 0.08854166666665719
        },
        {
          "name": "C#4",
          "midi": 61,
          "time": 93.68749999999935,
          "velocity": 0.6299212598425197,
          "duration": 0.08593749999998579
        },
        {
          "name": "F5",
          "midi": 77,
          "time": 93.79687499999933,
          "velocity": 0.6299212598425197,
          "duration": 0.2838541666666572
        },
        {
          "name": "D2",
          "midi": 38,
          "time": 93.91406249999933,
          "velocity": 0.6299212598425197,
          "duration": 0.11979166666665719
        },
        {
          "name": "D5",
          "midi": 74,
          "time": 93.91406249999933,
          "velocity": 0.6299212598425197,
          "duration": 0.1666666666666572
        },
        {
          "name": "A5",
          "midi": 81,
          "time": 93.91406249999933,
          "velocity": 0.6299212598425197,
          "duration": 0.1666666666666572
        },
        {
          "name": "D3",
          "midi": 50,
          "time": 93.92708333333266,
          "velocity": 0.6299212598425197,
          "duration": 0.09375
        },
        {
          "name": "A4",
          "midi": 69,
          "time": 93.92708333333266,
          "velocity": 0.6299212598425197,
          "duration": 0.1536458333333286
        },
        {
          "name": "F4",
          "midi": 65,
          "time": 94.13281249999932,
          "velocity": 0.6299212598425197,
          "duration": 0.09375
        },
        {
          "name": "A3",
          "midi": 57,
          "time": 94.13802083333265,
          "velocity": 0.6299212598425197,
          "duration": 0.0885416666666714
        },
        {
          "name": "D4",
          "midi": 62,
          "time": 94.13802083333265,
          "velocity": 0.6299212598425197,
          "duration": 0.0703125
        },
        {
          "name": "A4",
          "midi": 69,
          "time": 94.24999999999932,
          "velocity": 0.6299212598425197,
          "duration": 0.19791666666664298
        },
        {
          "name": "D5",
          "midi": 74,
          "time": 94.24999999999932,
          "velocity": 0.6299212598425197,
          "duration": 0.19270833333331439
        },
        {
          "name": "F5",
          "midi": 77,
          "time": 94.24999999999932,
          "velocity": 0.6299212598425197,
          "duration": 0.19791666666664298
        },
        {
          "name": "A5",
          "midi": 81,
          "time": 94.24999999999932,
          "velocity": 0.6299212598425197,
          "duration": 0.1874999999999858
        },
        {
          "name": "A#3",
          "midi": 58,
          "time": 94.35677083333265,
          "velocity": 0.6299212598425197,
          "duration": 0.09114583333331439
        },
        {
          "name": "A#2",
          "midi": 46,
          "time": 94.36197916666598,
          "velocity": 0.6299212598425197,
          "duration": 0.08593749999998579
        },
        {
          "name": "C#5",
          "midi": 73,
          "time": 94.48437499999929,
          "velocity": 0.6299212598425197,
          "duration": 0.078125
        },
        {
          "name": "D5",
          "midi": 74,
          "time": 94.59114583333262,
          "velocity": 0.6299212598425197,
          "duration": 0.0885416666666714
        },
        {
          "name": "A2",
          "midi": 45,
          "time": 94.59635416666595,
          "velocity": 0.6299212598425197,
          "duration": 0.1484375
        },
        {
          "name": "A3",
          "midi": 57,
          "time": 94.66145833333262,
          "velocity": 0.6299212598425197,
          "duration": 0.0989583333333286
        },
        {
          "name": "E5",
          "midi": 76,
          "time": 94.73177083333262,
          "velocity": 0.6299212598425197,
          "duration": 0.08854166666665719
        },
        {
          "name": "G#2",
          "midi": 44,
          "time": 94.84374999999928,
          "velocity": 0.6299212598425197,
          "duration": 0.10937499999998579
        },
        {
          "name": "B4",
          "midi": 71,
          "time": 94.8489583333326,
          "velocity": 0.6299212598425197,
          "duration": 0.0989583333333286
        },
        {
          "name": "D5",
          "midi": 74,
          "time": 94.8489583333326,
          "velocity": 0.6299212598425197,
          "duration": 0.10416666666665719
        },
        {
          "name": "F5",
          "midi": 77,
          "time": 94.8489583333326,
          "velocity": 0.6299212598425197,
          "duration": 0.10937499999998579
        },
        {
          "name": "G#3",
          "midi": 56,
          "time": 94.90104166666593,
          "velocity": 0.6299212598425197,
          "duration": 0.09374999999998579
        },
        {
          "name": "E2",
          "midi": 40,
          "time": 95.04687499999925,
          "velocity": 0.6299212598425197,
          "duration": 0.11458333333331439
        },
        {
          "name": "B4",
          "midi": 71,
          "time": 95.06770833333258,
          "velocity": 0.6299212598425197,
          "duration": 0.12239583333331439
        },
        {
          "name": "B2",
          "midi": 47,
          "time": 95.0729166666659,
          "velocity": 0.6299212598425197,
          "duration": 0.11718749999998579
        },
        {
          "name": "E3",
          "midi": 52,
          "time": 95.0729166666659,
          "velocity": 0.6299212598425197,
          "duration": 0.11718749999998579
        },
        {
          "name": "F5",
          "midi": 77,
          "time": 95.0729166666659,
          "velocity": 0.6299212598425197,
          "duration": 0.11718749999998579
        },
        {
          "name": "D5",
          "midi": 74,
          "time": 95.07812499999923,
          "velocity": 0.6299212598425197,
          "duration": 0.11197916666665719
        },
        {
          "name": "E2",
          "midi": 40,
          "time": 95.27343749999922,
          "velocity": 0.6299212598425197,
          "duration": 0.109375
        },
        {
          "name": "F#3",
          "midi": 54,
          "time": 95.30989583333255,
          "velocity": 0.6299212598425197,
          "duration": 0.1041666666666714
        },
        {
          "name": "B2",
          "midi": 47,
          "time": 95.31249999999922,
          "velocity": 0.6299212598425197,
          "duration": 0.1015625
        },
        {
          "name": "B4",
          "midi": 71,
          "time": 95.31249999999922,
          "velocity": 0.6299212598425197,
          "duration": 0.1015625
        },
        {
          "name": "D5",
          "midi": 74,
          "time": 95.31249999999922,
          "velocity": 0.6299212598425197,
          "duration": 0.1015625
        },
        {
          "name": "F5",
          "midi": 77,
          "time": 95.31249999999922,
          "velocity": 0.6299212598425197,
          "duration": 0.1145833333333286
        },
        {
          "name": "E5",
          "midi": 76,
          "time": 95.42708333333255,
          "velocity": 0.6299212598425197,
          "duration": 0.171875
        },
        {
          "name": "E2",
          "midi": 40,
          "time": 95.50781249999922,
          "velocity": 0.6299212598425197,
          "duration": 0.1145833333333286
        },
        {
          "name": "B2",
          "midi": 47,
          "time": 95.53906249999922,
          "velocity": 0.6299212598425197,
          "duration": 0.0833333333333286
        },
        {
          "name": "G3",
          "midi": 55,
          "time": 95.53906249999922,
          "velocity": 0.6299212598425197,
          "duration": 0.1302083333333286
        },
        {
          "name": "D5",
          "midi": 74,
          "time": 95.63802083333255,
          "velocity": 0.6299212598425197,
          "duration": 0.2890624999999858
        },
        {
          "name": "B5",
          "midi": 83,
          "time": 95.63802083333255,
          "velocity": 0.6299212598425197,
          "duration": 0.2656249999999858
        },
        {
          "name": "G#4",
          "midi": 68,
          "time": 95.65104166666588,
          "velocity": 0.6299212598425197,
          "duration": 0.2760416666666572
        },
        {
          "name": "E2",
          "midi": 40,
          "time": 95.73958333333255,
          "velocity": 0.6299212598425197,
          "duration": 0.1979166666666572
        },
        {
          "name": "G#3",
          "midi": 56,
          "time": 95.75520833333255,
          "velocity": 0.6299212598425197,
          "duration": 0.15364583333331439
        },
        {
          "name": "B2",
          "midi": 47,
          "time": 95.76041666666588,
          "velocity": 0.6299212598425197,
          "duration": 0.1380208333333286
        },
        {
          "name": "E3",
          "midi": 52,
          "time": 95.9921874999992,
          "velocity": 0.6299212598425197,
          "duration": 0.0807291666666714
        },
        {
          "name": "G#3",
          "midi": 56,
          "time": 95.9921874999992,
          "velocity": 0.6299212598425197,
          "duration": 0.0807291666666714
        },
        {
          "name": "B3",
          "midi": 59,
          "time": 95.9921874999992,
          "velocity": 0.6299212598425197,
          "duration": 0.0807291666666714
        },
        {
          "name": "E4",
          "midi": 64,
          "time": 95.9921874999992,
          "velocity": 0.6299212598425197,
          "duration": 0.0807291666666714
        },
        {
          "name": "D#4",
          "midi": 63,
          "time": 96.21614583333255,
          "velocity": 0.6299212598425197,
          "duration": 0.09374999999998579
        },
        {
          "name": "F#3",
          "midi": 54,
          "time": 96.22135416666588,
          "velocity": 0.6299212598425197,
          "duration": 0.0833333333333286
        },
        {
          "name": "D#3",
          "midi": 51,
          "time": 96.2265624999992,
          "velocity": 0.6299212598425197,
          "duration": 0.0833333333333286
        },
        {
          "name": "A#3",
          "midi": 58,
          "time": 96.2265624999992,
          "velocity": 0.6299212598425197,
          "duration": 0.0859375
        },
        {
          "name": "G5",
          "midi": 79,
          "time": 96.3437499999992,
          "velocity": 0.6299212598425197,
          "duration": 0.0833333333333286
        },
        {
          "name": "D3",
          "midi": 50,
          "time": 96.45312499999919,
          "velocity": 0.6299212598425197,
          "duration": 0.0833333333333286
        },
        {
          "name": "A3",
          "midi": 57,
          "time": 96.45312499999919,
          "velocity": 0.6299212598425197,
          "duration": 0.0833333333333286
        },
        {
          "name": "D4",
          "midi": 62,
          "time": 96.45312499999919,
          "velocity": 0.6299212598425197,
          "duration": 0.0833333333333286
        },
        {
          "name": "G#5",
          "midi": 80,
          "time": 96.45312499999919,
          "velocity": 0.6299212598425197,
          "duration": 0.0703125
        },
        {
          "name": "A5",
          "midi": 81,
          "time": 96.57031249999919,
          "velocity": 0.6299212598425197,
          "duration": 0.0755208333333286
        },
        {
          "name": "C#3",
          "midi": 49,
          "time": 96.66406249999919,
          "velocity": 0.6299212598425197,
          "duration": 0.2161458333333286
        },
        {
          "name": "A#5",
          "midi": 82,
          "time": 96.68749999999919,
          "velocity": 0.6299212598425197,
          "duration": 0.1171875
        },
        {
          "name": "A3",
          "midi": 57,
          "time": 96.94531249999919,
          "velocity": 0.6299212598425197,
          "duration": 0.125
        },
        {
          "name": "C#4",
          "midi": 61,
          "time": 96.94531249999919,
          "velocity": 0.6299212598425197,
          "duration": 0.1145833333333286
        },
        {
          "name": "C#5",
          "midi": 73,
          "time": 96.94531249999919,
          "velocity": 0.6299212598425197,
          "duration": 0.109375
        },
        {
          "name": "A#5",
          "midi": 82,
          "time": 96.94531249999919,
          "velocity": 0.6299212598425197,
          "duration": 0.1145833333333286
        },
        {
          "name": "G5",
          "midi": 79,
          "time": 96.95833333333252,
          "velocity": 0.6299212598425197,
          "duration": 0.1015625
        },
        {
          "name": "E3",
          "midi": 52,
          "time": 97.17187499999919,
          "velocity": 0.6299212598425197,
          "duration": 0.12239583333331439
        },
        {
          "name": "E2",
          "midi": 40,
          "time": 97.18229166666585,
          "velocity": 0.6299212598425197,
          "duration": 0.11197916666665719
        },
        {
          "name": "C#5",
          "midi": 73,
          "time": 97.18229166666585,
          "velocity": 0.6299212598425197,
          "duration": 0.1067708333333286
        },
        {
          "name": "G5",
          "midi": 79,
          "time": 97.18229166666585,
          "velocity": 0.6299212598425197,
          "duration": 0.1067708333333286
        },
        {
          "name": "A#5",
          "midi": 82,
          "time": 97.18229166666585,
          "velocity": 0.6299212598425197,
          "duration": 0.1067708333333286
        },
        {
          "name": "A5",
          "midi": 81,
          "time": 97.29947916666583,
          "velocity": 0.6299212598425197,
          "duration": 0.1822916666666572
        },
        {
          "name": "C#4",
          "midi": 61,
          "time": 97.41666666666583,
          "velocity": 0.6299212598425197,
          "duration": 0.12239583333331439
        },
        {
          "name": "A3",
          "midi": 57,
          "time": 97.42187499999916,
          "velocity": 0.6299212598425197,
          "duration": 0.11718749999998579
        },
        {
          "name": "E5",
          "midi": 76,
          "time": 97.53385416666582,
          "velocity": 0.6299212598425197,
          "duration": 0.3489583333333428
        },
        {
          "name": "C#6",
          "midi": 85,
          "time": 97.53385416666582,
          "velocity": 0.6299212598425197,
          "duration": 0.3541666666666714
        },
        {
          "name": "G5",
          "midi": 79,
          "time": 97.54427083333248,
          "velocity": 0.6299212598425197,
          "duration": 0.333333333333357
        },
        {
          "name": "E6",
          "midi": 88,
          "time": 97.54427083333248,
          "velocity": 0.6299212598425197,
          "duration": 0.3307291666666856
        },
        {
          "name": "E2",
          "midi": 40,
          "time": 97.61458333333248,
          "velocity": 0.6299212598425197,
          "duration": 0.2421875000000142
        },
        {
          "name": "G3",
          "midi": 55,
          "time": 97.87760416666583,
          "velocity": 0.6299212598425197,
          "duration": 0.08072916666665719
        },
        {
          "name": "C#4",
          "midi": 61,
          "time": 97.87760416666583,
          "velocity": 0.6299212598425197,
          "duration": 0.08072916666665719
        },
        {
          "name": "G4",
          "midi": 67,
          "time": 97.87760416666583,
          "velocity": 0.6299212598425197,
          "duration": 0.08072916666665719
        },
        {
          "name": "A3",
          "midi": 57,
          "time": 97.88281249999916,
          "velocity": 0.6299212598425197,
          "duration": 0.0755208333333286
        },
        {
          "name": "C#6",
          "midi": 85,
          "time": 97.99479166666582,
          "velocity": 0.6299212598425197,
          "duration": 0.1588541666666572
        },
        {
          "name": "E6",
          "midi": 88,
          "time": 97.99479166666582,
          "velocity": 0.6299212598425197,
          "duration": 0.1588541666666572
        },
        {
          "name": "E5",
          "midi": 76,
          "time": 97.99999999999915,
          "velocity": 0.6299212598425197,
          "duration": 0.1536458333333286
        },
        {
          "name": "G5",
          "midi": 79,
          "time": 98.00260416666582,
          "velocity": 0.6299212598425197,
          "duration": 0.1458333333333286
        },
        {
          "name": "A1",
          "midi": 33,
          "time": 98.09114583333249,
          "velocity": 0.6299212598425197,
          "duration": 0.14583333333331439
        },
        {
          "name": "A2",
          "midi": 45,
          "time": 98.10156249999915,
          "velocity": 0.6299212598425197,
          "duration": 0.1354166666666572
        },
        {
          "name": "D#5",
          "midi": 75,
          "time": 98.26562499999913,
          "velocity": 0.6299212598425197,
          "duration": 0.0833333333333286
        },
        {
          "name": "D#6",
          "midi": 87,
          "time": 98.26562499999913,
          "velocity": 0.6299212598425197,
          "duration": 0.09635416666665719
        },
        {
          "name": "A3",
          "midi": 57,
          "time": 98.32552083333246,
          "velocity": 0.6299212598425197,
          "duration": 0.11197916666665719
        },
        {
          "name": "C#4",
          "midi": 61,
          "time": 98.32552083333246,
          "velocity": 0.6299212598425197,
          "duration": 0.11197916666665719
        },
        {
          "name": "E5",
          "midi": 76,
          "time": 98.32552083333246,
          "velocity": 0.6299212598425197,
          "duration": 0.11197916666665719
        },
        {
          "name": "C#6",
          "midi": 85,
          "time": 98.33072916666579,
          "velocity": 0.6299212598425197,
          "duration": 0.1067708333333286
        },
        {
          "name": "E6",
          "midi": 88,
          "time": 98.33072916666579,
          "velocity": 0.6299212598425197,
          "duration": 0.1067708333333286
        },
        {
          "name": "D2",
          "midi": 38,
          "time": 98.55208333333245,
          "velocity": 0.6299212598425197,
          "duration": 0.1171875
        },
        {
          "name": "D3",
          "midi": 50,
          "time": 98.55208333333245,
          "velocity": 0.6299212598425197,
          "duration": 0.1171875
        },
        {
          "name": "F5",
          "midi": 77,
          "time": 98.55729166666578,
          "velocity": 0.6299212598425197,
          "duration": 0.1119791666666714
        },
        {
          "name": "F6",
          "midi": 89,
          "time": 98.55729166666578,
          "velocity": 0.6299212598425197,
          "duration": 0.1119791666666714
        },
        {
          "name": "D6",
          "midi": 86,
          "time": 98.56770833333245,
          "velocity": 0.6299212598425197,
          "duration": 0.1015625
        },
        {
          "name": "C6",
          "midi": 84,
          "time": 98.66927083333245,
          "velocity": 0.6299212598425197,
          "duration": 0.11718749999998579
        },
        {
          "name": "E5",
          "midi": 76,
          "time": 98.68229166666578,
          "velocity": 0.6299212598425197,
          "duration": 0.10416666666665719
        },
        {
          "name": "E6",
          "midi": 88,
          "time": 98.6874999999991,
          "velocity": 0.6299212598425197,
          "duration": 0.0859375
        },
        {
          "name": "E2",
          "midi": 40,
          "time": 98.79166666666576,
          "velocity": 0.6299212598425197,
          "duration": 0.0989583333333286
        },
        {
          "name": "E3",
          "midi": 52,
          "time": 98.79687499999909,
          "velocity": 0.6299212598425197,
          "duration": 0.0807291666666714
        },
        {
          "name": "A5",
          "midi": 81,
          "time": 98.91406249999909,
          "velocity": 0.6299212598425197,
          "duration": 0.2161458333333286
        },
        {
          "name": "D6",
          "midi": 86,
          "time": 98.91406249999909,
          "velocity": 0.6299212598425197,
          "duration": 0.2656249999999858
        },
        {
          "name": "D5",
          "midi": 74,
          "time": 98.91927083333242,
          "velocity": 0.6299212598425197,
          "duration": 0.2109375
        },
        {
          "name": "F3",
          "midi": 53,
          "time": 99.03645833333242,
          "velocity": 0.6299212598425197,
          "duration": 0.276041666666643
        },
        {
          "name": "F2",
          "midi": 41,
          "time": 99.04947916666575,
          "velocity": 0.6299212598425197,
          "duration": 0.276041666666643
        },
        {
          "name": "C#5",
          "midi": 73,
          "time": 99.2005208333324,
          "velocity": 0.6299212598425197,
          "duration": 0.0833333333333286
        },
        {
          "name": "C#6",
          "midi": 85,
          "time": 99.21354166666573,
          "velocity": 0.6299212598425197,
          "duration": 0.0703125
        },
        {
          "name": "D5",
          "midi": 74,
          "time": 99.26041666666573,
          "velocity": 0.6299212598425197,
          "duration": 0.08854166666665719
        },
        {
          "name": "A5",
          "midi": 81,
          "time": 99.26041666666573,
          "velocity": 0.6299212598425197,
          "duration": 0.08854166666665719
        },
        {
          "name": "D6",
          "midi": 86,
          "time": 99.26562499999906,
          "velocity": 0.6299212598425197,
          "duration": 0.0833333333333286
        },
        {
          "name": "D#5",
          "midi": 75,
          "time": 99.43749999999906,
          "velocity": 0.6299212598425197,
          "duration": 0.07291666666665719
        },
        {
          "name": "A5",
          "midi": 81,
          "time": 99.44010416666573,
          "velocity": 0.6299212598425197,
          "duration": 0.08333333333331439
        },
        {
          "name": "D#6",
          "midi": 87,
          "time": 99.44531249999906,
          "velocity": 0.6299212598425197,
          "duration": 0.07812499999998579
        },
        {
          "name": "A2",
          "midi": 45,
          "time": 99.48958333333239,
          "velocity": 0.6299212598425197,
          "duration": 0.11718749999998579
        },
        {
          "name": "A3",
          "midi": 57,
          "time": 99.48958333333239,
          "velocity": 0.6299212598425197,
          "duration": 0.11718749999998579
        },
        {
          "name": "E5",
          "midi": 76,
          "time": 99.49999999999906,
          "velocity": 0.6299212598425197,
          "duration": 0.07031249999998579
        },
        {
          "name": "E6",
          "midi": 88,
          "time": 99.50520833333239,
          "velocity": 0.6299212598425197,
          "duration": 0.06510416666665719
        },
        {
          "name": "D5",
          "midi": 74,
          "time": 99.60677083333238,
          "velocity": 0.6299212598425197,
          "duration": 0.1510416666666572
        },
        {
          "name": "D6",
          "midi": 86,
          "time": 99.60677083333238,
          "velocity": 0.6299212598425197,
          "duration": 0.1510416666666572
        },
        {
          "name": "A5",
          "midi": 81,
          "time": 99.6119791666657,
          "velocity": 0.6299212598425197,
          "duration": 0.1458333333333286
        },
        {
          "name": "B2",
          "midi": 47,
          "time": 99.7057291666657,
          "velocity": 0.6299212598425197,
          "duration": 0.11718749999998579
        },
        {
          "name": "B3",
          "midi": 59,
          "time": 99.7057291666657,
          "velocity": 0.6299212598425197,
          "duration": 0.11197916666665719
        },
        {
          "name": "C5",
          "midi": 72,
          "time": 99.82291666666569,
          "velocity": 0.6299212598425197,
          "duration": 0.1171875
        },
        {
          "name": "C6",
          "midi": 84,
          "time": 99.82291666666569,
          "velocity": 0.6299212598425197,
          "duration": 0.1145833333333286
        },
        {
          "name": "G5",
          "midi": 79,
          "time": 99.83593749999902,
          "velocity": 0.6299212598425197,
          "duration": 0.0963541666666714
        },
        {
          "name": "C3",
          "midi": 48,
          "time": 99.93749999999902,
          "velocity": 0.6299212598425197,
          "duration": 0.0807291666666714
        },
        {
          "name": "C4",
          "midi": 60,
          "time": 99.93749999999902,
          "velocity": 0.6299212598425197,
          "duration": 0.0807291666666714
        },
        {
          "name": "C5",
          "midi": 72,
          "time": 100.06249999999902,
          "velocity": 0.6299212598425197,
          "duration": 0.1901041666666714
        },
        {
          "name": "C6",
          "midi": 84,
          "time": 100.06510416666569,
          "velocity": 0.6299212598425197,
          "duration": 0.1875
        },
        {
          "name": "G5",
          "midi": 79,
          "time": 100.07031249999902,
          "velocity": 0.6299212598425197,
          "duration": 0.1666666666666714
        },
        {
          "name": "D4",
          "midi": 62,
          "time": 100.16666666666569,
          "velocity": 0.6299212598425197,
          "duration": 0.0859375
        },
        {
          "name": "D3",
          "midi": 50,
          "time": 100.17187499999902,
          "velocity": 0.6299212598425197,
          "duration": 0.0807291666666714
        },
        {
          "name": "B4",
          "midi": 71,
          "time": 100.33593749999902,
          "velocity": 0.6299212598425197,
          "duration": 0.07552083333331439
        },
        {
          "name": "B5",
          "midi": 83,
          "time": 100.33593749999902,
          "velocity": 0.6299212598425197,
          "duration": 0.08854166666664298
        },
        {
          "name": "C5",
          "midi": 72,
          "time": 100.38802083333235,
          "velocity": 0.6299212598425197,
          "duration": 0.11197916666664298
        },
        {
          "name": "D#4",
          "midi": 63,
          "time": 100.39322916666568,
          "velocity": 0.6299212598425197,
          "duration": 0.10677083333331439
        },
        {
          "name": "D#3",
          "midi": 51,
          "time": 100.398437499999,
          "velocity": 0.6299212598425197,
          "duration": 0.10156249999998579
        },
        {
          "name": "F#5",
          "midi": 78,
          "time": 100.398437499999,
          "velocity": 0.6299212598425197,
          "duration": 0.10156249999998579
        },
        {
          "name": "A5",
          "midi": 81,
          "time": 100.398437499999,
          "velocity": 0.6299212598425197,
          "duration": 0.10156249999998579
        },
        {
          "name": "C6",
          "midi": 84,
          "time": 100.398437499999,
          "velocity": 0.6299212598425197,
          "duration": 0.10156249999998579
        },
        {
          "name": "D4",
          "midi": 62,
          "time": 100.61979166666565,
          "velocity": 0.6299212598425197,
          "duration": 0.1171875
        },
        {
          "name": "E5",
          "midi": 76,
          "time": 100.61979166666565,
          "velocity": 0.6299212598425197,
          "duration": 0.1171875
        },
        {
          "name": "C6",
          "midi": 84,
          "time": 100.62499999999898,
          "velocity": 0.6299212598425197,
          "duration": 0.1119791666666714
        },
        {
          "name": "D3",
          "midi": 50,
          "time": 100.62760416666565,
          "velocity": 0.6299212598425197,
          "duration": 0.0963541666666714
        },
        {
          "name": "C5",
          "midi": 72,
          "time": 100.62760416666565,
          "velocity": 0.6299212598425197,
          "duration": 0.0963541666666714
        },
        {
          "name": "G#5",
          "midi": 80,
          "time": 100.62760416666565,
          "velocity": 0.6299212598425197,
          "duration": 0.0963541666666714
        },
        {
          "name": "E3",
          "midi": 52,
          "time": 100.86197916666565,
          "velocity": 0.6299212598425197,
          "duration": 0.10416666666665719
        },
        {
          "name": "E4",
          "midi": 64,
          "time": 100.86197916666565,
          "velocity": 0.6299212598425197,
          "duration": 0.11718749999998579
        },
        {
          "name": "E5",
          "midi": 76,
          "time": 100.86197916666565,
          "velocity": 0.6299212598425197,
          "duration": 0.11718749999998579
        },
        {
          "name": "C5",
          "midi": 72,
          "time": 100.8723958333323,
          "velocity": 0.6299212598425197,
          "duration": 0.09375
        },
        {
          "name": "G#5",
          "midi": 80,
          "time": 100.8723958333323,
          "velocity": 0.6299212598425197,
          "duration": 0.09375
        },
        {
          "name": "C6",
          "midi": 84,
          "time": 100.8723958333323,
          "velocity": 0.6299212598425197,
          "duration": 0.1067708333333286
        },
        {
          "name": "B4",
          "midi": 71,
          "time": 101.0911458333323,
          "velocity": 0.6299212598425197,
          "duration": 0.10416666666665719
        },
        {
          "name": "D3",
          "midi": 50,
          "time": 101.09635416666563,
          "velocity": 0.6299212598425197,
          "duration": 0.0989583333333286
        },
        {
          "name": "D4",
          "midi": 62,
          "time": 101.09635416666563,
          "velocity": 0.6299212598425197,
          "duration": 0.11197916666665719
        },
        {
          "name": "E5",
          "midi": 76,
          "time": 101.09635416666563,
          "velocity": 0.6299212598425197,
          "duration": 0.11197916666665719
        },
        {
          "name": "G#5",
          "midi": 80,
          "time": 101.09635416666563,
          "velocity": 0.6299212598425197,
          "duration": 0.11197916666665719
        },
        {
          "name": "B5",
          "midi": 83,
          "time": 101.09635416666563,
          "velocity": 0.6299212598425197,
          "duration": 0.11197916666665719
        },
        {
          "name": "C3",
          "midi": 48,
          "time": 101.33854166666562,
          "velocity": 0.6299212598425197,
          "duration": 0.09375
        },
        {
          "name": "A4",
          "midi": 69,
          "time": 101.33854166666562,
          "velocity": 0.6299212598425197,
          "duration": 0.1041666666666714
        },
        {
          "name": "E5",
          "midi": 76,
          "time": 101.33854166666562,
          "velocity": 0.6299212598425197,
          "duration": 0.1041666666666714
        },
        {
          "name": "A5",
          "midi": 81,
          "time": 101.33854166666562,
          "velocity": 0.6299212598425197,
          "duration": 0.1041666666666714
        },
        {
          "name": "C4",
          "midi": 60,
          "time": 101.34374999999895,
          "velocity": 0.6299212598425197,
          "duration": 0.09895833333334281
        },
        {
          "name": "C5",
          "midi": 72,
          "time": 101.34374999999895,
          "velocity": 0.6299212598425197,
          "duration": 0.0885416666666714
        },
        {
          "name": "A2",
          "midi": 45,
          "time": 101.54427083333229,
          "velocity": 0.6299212598425197,
          "duration": 0.3515624999999858
        },
        {
          "name": "E3",
          "midi": 52,
          "time": 101.56510416666562,
          "velocity": 0.6299212598425197,
          "duration": 0.3307291666666572
        },
        {
          "name": "C4",
          "midi": 60,
          "time": 101.79687499999895,
          "velocity": 0.6299212598425197,
          "duration": 0.3333333333333286
        },
        {
          "name": "A5",
          "midi": 81,
          "time": 101.79687499999895,
          "velocity": 0.6299212598425197,
          "duration": 0.3333333333333286
        },
        {
          "name": "C6",
          "midi": 84,
          "time": 101.79687499999895,
          "velocity": 0.6299212598425197,
          "duration": 0.3385416666666572
        },
        {
          "name": "A6",
          "midi": 93,
          "time": 101.79687499999895,
          "velocity": 0.6299212598425197,
          "duration": 0.3385416666666572
        },
        {
          "name": "E6",
          "midi": 88,
          "time": 101.80208333333228,
          "velocity": 0.6299212598425197,
          "duration": 0.3385416666666572
        }
      ],
      "controlChanges": {
        "64": [
          {
            "number": 64,
            "time": 0.7317708333333334,
            "value": 1
          },
          {
            "number": 64,
            "time": 0.8645833333333334,
            "value": 0
          },
          {
            "number": 64,
            "time": 1.6666666666666663,
            "value": 1
          },
          {
            "number": 64,
            "time": 1.8203124999999993,
            "value": 0
          },
          {
            "number": 64,
            "time": 2.815104166666666,
            "value": 1
          },
          {
            "number": 64,
            "time": 3.067708333333333,
            "value": 0
          },
          {
            "number": 64,
            "time": 4.291666666666667,
            "value": 1
          },
          {
            "number": 64,
            "time": 4.440104166666666,
            "value": 0
          },
          {
            "number": 64,
            "time": 4.877604166666665,
            "value": 1
          },
          {
            "number": 64,
            "time": 5.070312499999997,
            "value": 0
          },
          {
            "number": 64,
            "time": 6.789062499999994,
            "value": 1
          },
          {
            "number": 64,
            "time": 6.934895833333327,
            "value": 0
          },
          {
            "number": 64,
            "time": 7.664062499999991,
            "value": 1
          },
          {
            "number": 64,
            "time": 7.846354166666657,
            "value": 0
          },
          {
            "number": 64,
            "time": 8.74479166666666,
            "value": 1
          },
          {
            "number": 64,
            "time": 8.869791666666663,
            "value": 0
          },
          {
            "number": 64,
            "time": 11.065104166666671,
            "value": 1
          },
          {
            "number": 64,
            "time": 11.210937500000005,
            "value": 0
          },
          {
            "number": 64,
            "time": 11.96614583333334,
            "value": 1
          },
          {
            "number": 64,
            "time": 12.111979166666673,
            "value": 0
          },
          {
            "number": 64,
            "time": 12.39583333333334,
            "value": 1
          },
          {
            "number": 64,
            "time": 12.54427083333334,
            "value": 0
          },
          {
            "number": 64,
            "time": 12.877604166666673,
            "value": 1
          },
          {
            "number": 64,
            "time": 13.158854166666671,
            "value": 0
          },
          {
            "number": 64,
            "time": 14.320312500000005,
            "value": 1
          },
          {
            "number": 64,
            "time": 14.50520833333334,
            "value": 0
          },
          {
            "number": 64,
            "time": 15.270833333333343,
            "value": 1
          },
          {
            "number": 64,
            "time": 15.424479166666679,
            "value": 0
          },
          {
            "number": 64,
            "time": 16.002604166666682,
            "value": 1
          },
          {
            "number": 64,
            "time": 16.125000000000014,
            "value": 0
          },
          {
            "number": 64,
            "time": 16.559895833333343,
            "value": 1
          },
          {
            "number": 64,
            "time": 16.96093750000001,
            "value": 0
          },
          {
            "number": 64,
            "time": 17.48958333333334,
            "value": 1
          },
          {
            "number": 64,
            "time": 17.679687500000007,
            "value": 0
          },
          {
            "number": 64,
            "time": 18.18489583333334,
            "value": 1
          },
          {
            "number": 64,
            "time": 18.406250000000007,
            "value": 0
          },
          {
            "number": 64,
            "time": 19.252604166666668,
            "value": 1
          },
          {
            "number": 64,
            "time": 19.403645833333332,
            "value": 0
          },
          {
            "number": 64,
            "time": 19.760416666666664,
            "value": 1
          },
          {
            "number": 64,
            "time": 19.919270833333332,
            "value": 0
          },
          {
            "number": 64,
            "time": 22.40364583333332,
            "value": 1
          },
          {
            "number": 64,
            "time": 22.554687499999986,
            "value": 0
          },
          {
            "number": 64,
            "time": 22.86979166666665,
            "value": 1
          },
          {
            "number": 64,
            "time": 23.072916666666647,
            "value": 0
          },
          {
            "number": 64,
            "time": 23.38802083333331,
            "value": 1
          },
          {
            "number": 64,
            "time": 23.544270833333307,
            "value": 0
          },
          {
            "number": 64,
            "time": 24.296874999999975,
            "value": 1
          },
          {
            "number": 64,
            "time": 24.450520833333304,
            "value": 0
          },
          {
            "number": 64,
            "time": 25.2161458333333,
            "value": 1
          },
          {
            "number": 64,
            "time": 25.3489583333333,
            "value": 0
          },
          {
            "number": 64,
            "time": 25.809895833333297,
            "value": 1
          },
          {
            "number": 64,
            "time": 25.95312499999996,
            "value": 0
          },
          {
            "number": 64,
            "time": 26.632812499999957,
            "value": 1
          },
          {
            "number": 64,
            "time": 26.776041666666625,
            "value": 0
          },
          {
            "number": 64,
            "time": 27.34374999999995,
            "value": 1
          },
          {
            "number": 64,
            "time": 27.486979166666615,
            "value": 0
          },
          {
            "number": 64,
            "time": 28.04166666666661,
            "value": 1
          },
          {
            "number": 64,
            "time": 28.31770833333327,
            "value": 0
          },
          {
            "number": 64,
            "time": 29.479166666666615,
            "value": 1
          },
          {
            "number": 64,
            "time": 29.656249999999947,
            "value": 0
          },
          {
            "number": 64,
            "time": 30.466145833333282,
            "value": 1
          },
          {
            "number": 64,
            "time": 30.62499999999995,
            "value": 0
          },
          {
            "number": 64,
            "time": 31.39843749999995,
            "value": 1
          },
          {
            "number": 64,
            "time": 31.640624999999947,
            "value": 0
          },
          {
            "number": 64,
            "time": 33.47656249999998,
            "value": 1
          },
          {
            "number": 64,
            "time": 33.62760416666665,
            "value": 0
          },
          {
            "number": 64,
            "time": 34.1796875,
            "value": 1
          },
          {
            "number": 64,
            "time": 34.333333333333336,
            "value": 0
          },
          {
            "number": 64,
            "time": 35.18229166666667,
            "value": 1
          },
          {
            "number": 64,
            "time": 35.33854166666668,
            "value": 0
          },
          {
            "number": 64,
            "time": 36.08333333333335,
            "value": 1
          },
          {
            "number": 64,
            "time": 36.23177083333336,
            "value": 0
          },
          {
            "number": 64,
            "time": 36.614583333333364,
            "value": 1
          },
          {
            "number": 64,
            "time": 36.77604166666671,
            "value": 0
          },
          {
            "number": 64,
            "time": 37.51562500000005,
            "value": 1
          },
          {
            "number": 64,
            "time": 37.70052083333339,
            "value": 0
          },
          {
            "number": 64,
            "time": 38.0052083333334,
            "value": 1
          },
          {
            "number": 64,
            "time": 38.16406250000007,
            "value": 0
          },
          {
            "number": 64,
            "time": 38.52083333333341,
            "value": 1
          },
          {
            "number": 64,
            "time": 38.67187500000008,
            "value": 0
          },
          {
            "number": 64,
            "time": 39.41145833333342,
            "value": 1
          },
          {
            "number": 64,
            "time": 39.643229166666764,
            "value": 0
          },
          {
            "number": 64,
            "time": 40.328125000000114,
            "value": 1
          },
          {
            "number": 64,
            "time": 40.486979166666785,
            "value": 0
          },
          {
            "number": 64,
            "time": 40.82812500000013,
            "value": 1
          },
          {
            "number": 64,
            "time": 40.97916666666679,
            "value": 0
          },
          {
            "number": 64,
            "time": 41.302083333333464,
            "value": 1
          },
          {
            "number": 64,
            "time": 41.468750000000135,
            "value": 0
          },
          {
            "number": 64,
            "time": 42.23697916666682,
            "value": 1
          },
          {
            "number": 64,
            "time": 42.476562500000156,
            "value": 0
          },
          {
            "number": 64,
            "time": 42.8880208333335,
            "value": 1
          },
          {
            "number": 64,
            "time": 43.06250000000016,
            "value": 0
          },
          {
            "number": 64,
            "time": 43.393229166666835,
            "value": 1
          },
          {
            "number": 64,
            "time": 43.557291666666835,
            "value": 0
          },
          {
            "number": 64,
            "time": 44.221354166666856,
            "value": 1
          },
          {
            "number": 64,
            "time": 44.424479166666856,
            "value": 0
          },
          {
            "number": 64,
            "time": 45.10416666666687,
            "value": 1
          },
          {
            "number": 64,
            "time": 45.85937500000022,
            "value": 0
          },
          {
            "number": 64,
            "time": 46.47395833333356,
            "value": 1
          },
          {
            "number": 64,
            "time": 46.62239583333357,
            "value": 0
          },
          {
            "number": 64,
            "time": 47.44270833333358,
            "value": 1
          },
          {
            "number": 64,
            "time": 47.687500000000256,
            "value": 0
          },
          {
            "number": 64,
            "time": 48.37500000000025,
            "value": 1
          },
          {
            "number": 64,
            "time": 48.520833333333584,
            "value": 0
          },
          {
            "number": 64,
            "time": 48.86979166666693,
            "value": 1
          },
          {
            "number": 64,
            "time": 49.02343750000026,
            "value": 0
          },
          {
            "number": 64,
            "time": 49.5130208333336,
            "value": 1
          },
          {
            "number": 64,
            "time": 49.6692708333336,
            "value": 0
          },
          {
            "number": 64,
            "time": 50.44010416666693,
            "value": 1
          },
          {
            "number": 64,
            "time": 50.57812500000026,
            "value": 0
          },
          {
            "number": 64,
            "time": 51.9505208333336,
            "value": 1
          },
          {
            "number": 64,
            "time": 52.10156250000027,
            "value": 0
          },
          {
            "number": 64,
            "time": 52.38281250000027,
            "value": 1
          },
          {
            "number": 64,
            "time": 52.533854166666934,
            "value": 0
          },
          {
            "number": 64,
            "time": 53.35937500000027,
            "value": 1
          },
          {
            "number": 64,
            "time": 53.59375000000028,
            "value": 0
          },
          {
            "number": 64,
            "time": 54.50781250000029,
            "value": 1
          },
          {
            "number": 64,
            "time": 54.661458333333634,
            "value": 0
          },
          {
            "number": 64,
            "time": 55.489583333333634,
            "value": 1
          },
          {
            "number": 64,
            "time": 55.638020833333634,
            "value": 0
          },
          {
            "number": 64,
            "time": 56.44270833333366,
            "value": 1
          },
          {
            "number": 64,
            "time": 56.59114583333367,
            "value": 0
          },
          {
            "number": 64,
            "time": 57.38020833333368,
            "value": 1
          },
          {
            "number": 64,
            "time": 57.528645833333684,
            "value": 0
          },
          {
            "number": 64,
            "time": 57.88281250000034,
            "value": 1
          },
          {
            "number": 64,
            "time": 58.03645833333368,
            "value": 0
          },
          {
            "number": 64,
            "time": 58.437500000000355,
            "value": 1
          },
          {
            "number": 64,
            "time": 58.593750000000355,
            "value": 0
          },
          {
            "number": 64,
            "time": 59.73958333333369,
            "value": 1
          },
          {
            "number": 64,
            "time": 59.89322916666703,
            "value": 0
          },
          {
            "number": 64,
            "time": 60.2317708333337,
            "value": 1
          },
          {
            "number": 64,
            "time": 60.37500000000037,
            "value": 0
          },
          {
            "number": 64,
            "time": 61.6640625000004,
            "value": 1
          },
          {
            "number": 64,
            "time": 61.812500000000405,
            "value": 0
          },
          {
            "number": 64,
            "time": 63.02343750000041,
            "value": 1
          },
          {
            "number": 64,
            "time": 63.17187500000041,
            "value": 0
          },
          {
            "number": 64,
            "time": 63.502604166667076,
            "value": 1
          },
          {
            "number": 64,
            "time": 63.658854166667076,
            "value": 0
          },
          {
            "number": 64,
            "time": 64.05208333333375,
            "value": 1
          },
          {
            "number": 64,
            "time": 64.65104166666707,
            "value": 0
          },
          {
            "number": 64,
            "time": 65.52604166666706,
            "value": 1
          },
          {
            "number": 64,
            "time": 65.68229166666706,
            "value": 0
          },
          {
            "number": 64,
            "time": 66.36197916666707,
            "value": 1
          },
          {
            "number": 64,
            "time": 66.67187500000038,
            "value": 0
          },
          {
            "number": 64,
            "time": 67.29166666666706,
            "value": 1
          },
          {
            "number": 64,
            "time": 67.52083333333371,
            "value": 0
          },
          {
            "number": 64,
            "time": 68.02343750000037,
            "value": 1
          },
          {
            "number": 64,
            "time": 68.26562500000036,
            "value": 0
          },
          {
            "number": 64,
            "time": 68.66406250000034,
            "value": 1
          },
          {
            "number": 64,
            "time": 68.81510416666701,
            "value": 0
          },
          {
            "number": 64,
            "time": 69.14322916666703,
            "value": 1
          },
          {
            "number": 64,
            "time": 69.29947916666701,
            "value": 0
          },
          {
            "number": 64,
            "time": 69.6145833333337,
            "value": 1
          },
          {
            "number": 64,
            "time": 69.76041666666703,
            "value": 0
          },
          {
            "number": 64,
            "time": 70.56250000000033,
            "value": 1
          },
          {
            "number": 64,
            "time": 70.70312500000033,
            "value": 0
          },
          {
            "number": 64,
            "time": 71.46354166666697,
            "value": 1
          },
          {
            "number": 64,
            "time": 71.6250000000003,
            "value": 0
          },
          {
            "number": 64,
            "time": 71.95052083333361,
            "value": 1
          },
          {
            "number": 64,
            "time": 72.10416666666693,
            "value": 0
          },
          {
            "number": 64,
            "time": 72.42968750000026,
            "value": 1
          },
          {
            "number": 64,
            "time": 72.57031250000026,
            "value": 0
          },
          {
            "number": 64,
            "time": 73.39843750000023,
            "value": 1
          },
          {
            "number": 64,
            "time": 73.98177083333354,
            "value": 0
          },
          {
            "number": 64,
            "time": 74.76041666666684,
            "value": 1
          },
          {
            "number": 64,
            "time": 74.90364583333351,
            "value": 0
          },
          {
            "number": 64,
            "time": 75.21875000000016,
            "value": 1
          },
          {
            "number": 64,
            "time": 75.37500000000014,
            "value": 0
          },
          {
            "number": 64,
            "time": 75.68489583333347,
            "value": 1
          },
          {
            "number": 64,
            "time": 75.82812500000013,
            "value": 0
          },
          {
            "number": 64,
            "time": 76.1796875000001,
            "value": 1
          },
          {
            "number": 64,
            "time": 76.32552083333341,
            "value": 0
          },
          {
            "number": 64,
            "time": 77.12239583333339,
            "value": 1
          },
          {
            "number": 64,
            "time": 77.27604166666673,
            "value": 0
          },
          {
            "number": 64,
            "time": 77.57031250000006,
            "value": 1
          },
          {
            "number": 64,
            "time": 77.80989583333339,
            "value": 0
          },
          {
            "number": 64,
            "time": 78.99479166666667,
            "value": 1
          },
          {
            "number": 64,
            "time": 79.6640625,
            "value": 0
          },
          {
            "number": 64,
            "time": 81.7760416666666,
            "value": 1
          },
          {
            "number": 64,
            "time": 81.99739583333327,
            "value": 0
          },
          {
            "number": 64,
            "time": 86.50781249999973,
            "value": 1
          },
          {
            "number": 64,
            "time": 86.74739583333306,
            "value": 0
          },
          {
            "number": 64,
            "time": 87.54427083333303,
            "value": 1
          },
          {
            "number": 64,
            "time": 87.67708333333303,
            "value": 0
          },
          {
            "number": 64,
            "time": 87.95572916666634,
            "value": 1
          },
          {
            "number": 64,
            "time": 88.11197916666633,
            "value": 0
          },
          {
            "number": 64,
            "time": 88.9557291666663,
            "value": 1
          },
          {
            "number": 64,
            "time": 89.09895833333296,
            "value": 0
          },
          {
            "number": 64,
            "time": 89.87239583333289,
            "value": 1
          },
          {
            "number": 64,
            "time": 90.00520833333289,
            "value": 0
          },
          {
            "number": 64,
            "time": 90.42968749999953,
            "value": 1
          },
          {
            "number": 64,
            "time": 90.57552083333285,
            "value": 0
          },
          {
            "number": 64,
            "time": 90.91666666666616,
            "value": 1
          },
          {
            "number": 64,
            "time": 91.05208333333282,
            "value": 0
          },
          {
            "number": 64,
            "time": 93.93749999999933,
            "value": 1
          },
          {
            "number": 64,
            "time": 94.08072916666599,
            "value": 0
          },
          {
            "number": 64,
            "time": 94.84374999999928,
            "value": 1
          },
          {
            "number": 64,
            "time": 94.98958333333259,
            "value": 0
          },
          {
            "number": 64,
            "time": 95.36197916666589,
            "value": 1
          },
          {
            "number": 64,
            "time": 95.50781249999922,
            "value": 0
          },
          {
            "number": 64,
            "time": 95.8203124999992,
            "value": 1
          },
          {
            "number": 64,
            "time": 95.9609374999992,
            "value": 0
          },
          {
            "number": 64,
            "time": 96.44791666666586,
            "value": 1
          },
          {
            "number": 64,
            "time": 96.59374999999919,
            "value": 0
          },
          {
            "number": 64,
            "time": 97.17708333333252,
            "value": 1
          },
          {
            "number": 64,
            "time": 97.32031249999916,
            "value": 0
          },
          {
            "number": 64,
            "time": 97.65624999999915,
            "value": 1
          },
          {
            "number": 64,
            "time": 97.79166666666582,
            "value": 0
          },
          {
            "number": 64,
            "time": 98.09635416666582,
            "value": 1
          },
          {
            "number": 64,
            "time": 98.2526041666658,
            "value": 0
          },
          {
            "number": 64,
            "time": 99.03645833333242,
            "value": 1
          },
          {
            "number": 64,
            "time": 99.17447916666575,
            "value": 0
          },
          {
            "number": 64,
            "time": 100.38802083333235,
            "value": 1
          },
          {
            "number": 64,
            "time": 100.53645833333232,
            "value": 0
          },
          {
            "number": 64,
            "time": 100.86718749999898,
            "value": 1
          },
          {
            "number": 64,
            "time": 101.0130208333323,
            "value": 0
          },
          {
            "number": 64,
            "time": 101.32552083333229,
            "value": 1
          },
          {
            "number": 64,
            "time": 101.47916666666562,
            "value": 0
          },
          {
            "number": 64,
            "time": 101.8776041666656,
            "value": 1
          },
          {
            "number": 64,
            "time": 102.11458333333228,
            "value": 0
          }
        ]
      },
      "id": 1,
      "name": "Rialto Ripples (1916)",
      "channelNumber": 0,
      "isPercussion": false
    },
    {
      "startTime": 0,
      "duration": 0,
      "length": 0,
      "notes": [],
      "controlChanges": {},
      "id": 2,
      "name": "c/b George Gershwin"
    },
    {
      "startTime": 0,
      "duration": 0,
      "length": 0,
      "notes": [],
      "controlChanges": {},
      "id": 3,
      "name": "p/b George Gershwin"
    },
    {
      "startTime": 0,
      "duration": 0,
      "length": 0,
      "notes": [],
      "controlChanges": {},
      "id": 4,
      "name": ""
    },
    {
      "startTime": 0,
      "duration": 0,
      "length": 0,
      "notes": [],
      "controlChanges": {},
      "id": 5,
      "name": "Scan of a player piano roll"
    },
    {
      "startTime": 0,
      "duration": 0,
      "length": 0,
      "notes": [],
      "controlChanges": {},
      "id": 6
    }
  ]
}