{
  "header": {
    "PPQ": 96,
    "bpm": 109.99990833340972,
    "timeSignature": [
      4,
      4
    ],
    "name": "Aggie War Hymn"
  },
  "startTime": 0,
  "duration": 144.00012000000004,
  "tracks": [
    {
      "startTime": 0,
      "duration": 0,
      "length": 0,
      "notes": [],
      "controlChanges": {},
      "id": 0
    },
    {
      "startTime": 0,
      "duration": 144.00012000000004,
      "length": 1575,
      "notes": [
        {
          "name": "A#3",
          "midi": 58,
          "time": 0,
          "velocity": 0.9921259842519685,
          "duration": 0.2727275
        },
        {
          "name": "A#3",
          "midi": 58,
          "time": 0.2727275,
          "velocity": 0.9921259842519685,
          "duration": 0.13636375
        },
        {
          "name": "A#3",
          "midi": 58,
          "time": 0.40909125,
          "velocity": 0.9921259842519685,
          "duration": 0.13636375
        },
        {
          "name": "A#3",
          "midi": 58,
          "time": 0.545455,
          "velocity": 0.9921259842519685,
          "duration": 0.2727275
        },
        {
          "name": "A#3",
          "midi": 58,
          "time": 0.8181825,
          "velocity": 0.9921259842519685,
          "duration": 0.2727275
        },
        {
          "name": "D4",
          "midi": 62,
          "time": 1.09091,
          "velocity": 0.9921259842519685,
          "duration": 0.545455
        },
        {
          "name": "A#3",
          "midi": 58,
          "time": 1.636365,
          "velocity": 0.9921259842519685,
          "duration": 0.2727275
        },
        {
          "name": "D4",
          "midi": 62,
          "time": 1.9090925,
          "velocity": 0.9921259842519685,
          "duration": 0.2727275
        },
        {
          "name": "F4",
          "midi": 65,
          "time": 2.18182,
          "velocity": 0.9921259842519685,
          "duration": 0.27272750000000023
        },
        {
          "name": "F4",
          "midi": 65,
          "time": 2.4545475000000003,
          "velocity": 0.9921259842519685,
          "duration": 0.13636375000000012
        },
        {
          "name": "F4",
          "midi": 65,
          "time": 2.5909112500000004,
          "velocity": 0.9921259842519685,
          "duration": 0.13636375000000012
        },
        {
          "name": "F4",
          "midi": 65,
          "time": 2.7272750000000006,
          "velocity": 0.9921259842519685,
          "duration": 0.27272750000000023
        },
        {
          "name": "D4",
          "midi": 62,
          "time": 3.000002500000001,
          "velocity": 0.9921259842519685,
          "duration": 0.27272750000000023
        },
        {
          "name": "F4",
          "midi": 65,
          "time": 3.272730000000001,
          "velocity": 0.9921259842519685,
          "duration": 0.27272750000000023
        },
        {
          "name": "D4",
          "midi": 62,
          "time": 3.5454575000000013,
          "velocity": 0.9921259842519685,
          "duration": 0.27272750000000023
        },
        {
          "name": "A#3",
          "midi": 58,
          "time": 3.8181850000000015,
          "velocity": 0.9921259842519685,
          "duration": 0.5454550000000005
        },
        {
          "name": "D#4",
          "midi": 63,
          "time": 4.363640000000002,
          "velocity": 0.9921259842519685,
          "duration": 0.27272750000000023
        },
        {
          "name": "D#3",
          "midi": 51,
          "time": 4.363640000000002,
          "velocity": 0.9921259842519685,
          "duration": 0.27272750000000023
        },
        {
          "name": "D#4",
          "midi": 63,
          "time": 4.636367500000002,
          "velocity": 0.9921259842519685,
          "duration": 0.13636375000000012
        },
        {
          "name": "D#3",
          "midi": 51,
          "time": 4.636367500000002,
          "velocity": 0.9921259842519685,
          "duration": 0.13636375000000012
        },
        {
          "name": "D#4",
          "midi": 63,
          "time": 4.772731250000002,
          "velocity": 0.9921259842519685,
          "duration": 0.13636375000000012
        },
        {
          "name": "D#3",
          "midi": 51,
          "time": 4.772731250000002,
          "velocity": 0.9921259842519685,
          "duration": 0.13636375000000012
        },
        {
          "name": "D#4",
          "midi": 63,
          "time": 4.909095000000002,
          "velocity": 0.9921259842519685,
          "duration": 0.27272750000000023
        },
        {
          "name": "D#3",
          "midi": 51,
          "time": 4.909095000000002,
          "velocity": 0.9921259842519685,
          "duration": 0.27272750000000023
        },
        {
          "name": "D#4",
          "midi": 63,
          "time": 5.181822500000003,
          "velocity": 0.9921259842519685,
          "duration": 0.27272750000000023
        },
        {
          "name": "D#3",
          "midi": 51,
          "time": 5.181822500000003,
          "velocity": 0.9921259842519685,
          "duration": 0.27272750000000023
        },
        {
          "name": "G4",
          "midi": 67,
          "time": 5.454550000000003,
          "velocity": 0.9921259842519685,
          "duration": 0.5454550000000005
        },
        {
          "name": "G3",
          "midi": 55,
          "time": 5.454550000000003,
          "velocity": 0.9921259842519685,
          "duration": 0.5454550000000005
        },
        {
          "name": "D#4",
          "midi": 63,
          "time": 6.000005000000003,
          "velocity": 0.9921259842519685,
          "duration": 0.27272750000000023
        },
        {
          "name": "D#3",
          "midi": 51,
          "time": 6.000005000000003,
          "velocity": 0.9921259842519685,
          "duration": 0.27272750000000023
        },
        {
          "name": "G4",
          "midi": 67,
          "time": 6.272732500000004,
          "velocity": 0.9921259842519685,
          "duration": 0.27272750000000023
        },
        {
          "name": "G3",
          "midi": 55,
          "time": 6.272732500000004,
          "velocity": 0.9921259842519685,
          "duration": 0.27272750000000023
        },
        {
          "name": "A#4",
          "midi": 70,
          "time": 6.545460000000004,
          "velocity": 0.9921259842519685,
          "duration": 0.27272750000000023
        },
        {
          "name": "A#3",
          "midi": 58,
          "time": 6.545460000000004,
          "velocity": 0.9921259842519685,
          "duration": 0.27272750000000023
        },
        {
          "name": "A#4",
          "midi": 70,
          "time": 6.818187500000004,
          "velocity": 0.9921259842519685,
          "duration": 0.13636375000000012
        },
        {
          "name": "A#3",
          "midi": 58,
          "time": 6.818187500000004,
          "velocity": 0.9921259842519685,
          "duration": 0.13636375000000012
        },
        {
          "name": "A#4",
          "midi": 70,
          "time": 6.954551250000004,
          "velocity": 0.9921259842519685,
          "duration": 0.13636375000000012
        },
        {
          "name": "A#3",
          "midi": 58,
          "time": 6.954551250000004,
          "velocity": 0.9921259842519685,
          "duration": 0.13636375000000012
        },
        {
          "name": "A#4",
          "midi": 70,
          "time": 7.090915000000004,
          "velocity": 0.9921259842519685,
          "duration": 0.27272750000000023
        },
        {
          "name": "A#3",
          "midi": 58,
          "time": 7.090915000000004,
          "velocity": 0.9921259842519685,
          "duration": 0.27272750000000023
        },
        {
          "name": "G4",
          "midi": 67,
          "time": 7.3636425000000045,
          "velocity": 0.9921259842519685,
          "duration": 0.27272750000000023
        },
        {
          "name": "G3",
          "midi": 55,
          "time": 7.3636425000000045,
          "velocity": 0.9921259842519685,
          "duration": 0.27272750000000023
        },
        {
          "name": "D#4",
          "midi": 63,
          "time": 7.636370000000005,
          "velocity": 0.9921259842519685,
          "duration": 1.0909099999999992
        },
        {
          "name": "D#3",
          "midi": 51,
          "time": 7.636370000000005,
          "velocity": 0.9921259842519685,
          "duration": 1.0909099999999992
        },
        {
          "name": "D#4",
          "midi": 63,
          "time": 8.727280000000004,
          "velocity": 0.9921259842519685,
          "duration": 0.18181833333333408
        },
        {
          "name": "A#3",
          "midi": 58,
          "time": 8.727280000000004,
          "velocity": 0.9921259842519685,
          "duration": 0.18181833333333408
        },
        {
          "name": "G3",
          "midi": 55,
          "time": 8.727280000000004,
          "velocity": 0.9921259842519685,
          "duration": 0.18181833333333408
        },
        {
          "name": "D#3",
          "midi": 51,
          "time": 8.727280000000004,
          "velocity": 0.9921259842519685,
          "duration": 0.18181833333333408
        },
        {
          "name": "D#3",
          "midi": 51,
          "time": 8.909098333333338,
          "velocity": 0.9921259842519685,
          "duration": 0.18181833333333408
        },
        {
          "name": "G3",
          "midi": 55,
          "time": 8.909098333333338,
          "velocity": 0.9921259842519685,
          "duration": 0.18181833333333408
        },
        {
          "name": "A#3",
          "midi": 58,
          "time": 8.909098333333338,
          "velocity": 0.9921259842519685,
          "duration": 0.18181833333333408
        },
        {
          "name": "D#4",
          "midi": 63,
          "time": 8.909098333333338,
          "velocity": 0.9921259842519685,
          "duration": 0.18181833333333408
        },
        {
          "name": "D#3",
          "midi": 51,
          "time": 9.090916666666672,
          "velocity": 0.9921259842519685,
          "duration": 0.18181833333333408
        },
        {
          "name": "G3",
          "midi": 55,
          "time": 9.090916666666672,
          "velocity": 0.9921259842519685,
          "duration": 0.18181833333333408
        },
        {
          "name": "A#3",
          "midi": 58,
          "time": 9.090916666666672,
          "velocity": 0.9921259842519685,
          "duration": 0.18181833333333408
        },
        {
          "name": "D#4",
          "midi": 63,
          "time": 9.090916666666672,
          "velocity": 0.9921259842519685,
          "duration": 0.18181833333333408
        },
        {
          "name": "D#3",
          "midi": 51,
          "time": 9.272735000000006,
          "velocity": 0.9921259842519685,
          "duration": 0.3636366666666664
        },
        {
          "name": "G3",
          "midi": 55,
          "time": 9.272735000000006,
          "velocity": 0.9921259842519685,
          "duration": 0.3636366666666664
        },
        {
          "name": "A#3",
          "midi": 58,
          "time": 9.272735000000006,
          "velocity": 0.9921259842519685,
          "duration": 0.3636366666666664
        },
        {
          "name": "D#4",
          "midi": 63,
          "time": 9.272735000000006,
          "velocity": 0.9921259842519685,
          "duration": 0.3636366666666664
        },
        {
          "name": "D#3",
          "midi": 51,
          "time": 9.636371666666673,
          "velocity": 0.9921259842519685,
          "duration": 0.18181833333333408
        },
        {
          "name": "G3",
          "midi": 55,
          "time": 9.636371666666673,
          "velocity": 0.9921259842519685,
          "duration": 0.18181833333333408
        },
        {
          "name": "A#3",
          "midi": 58,
          "time": 9.636371666666673,
          "velocity": 0.9921259842519685,
          "duration": 0.18181833333333408
        },
        {
          "name": "D#4",
          "midi": 63,
          "time": 9.636371666666673,
          "velocity": 0.9921259842519685,
          "duration": 0.18181833333333408
        },
        {
          "name": "D#3",
          "midi": 51,
          "time": 9.818190000000007,
          "velocity": 0.9921259842519685,
          "duration": 0.3636366666666664
        },
        {
          "name": "G3",
          "midi": 55,
          "time": 9.818190000000007,
          "velocity": 0.9921259842519685,
          "duration": 0.3636366666666664
        },
        {
          "name": "A#3",
          "midi": 58,
          "time": 9.818190000000007,
          "velocity": 0.9921259842519685,
          "duration": 0.3636366666666664
        },
        {
          "name": "D#4",
          "midi": 63,
          "time": 9.818190000000007,
          "velocity": 0.9921259842519685,
          "duration": 0.3636366666666664
        },
        {
          "name": "D#3",
          "midi": 51,
          "time": 10.181826666666673,
          "velocity": 0.9921259842519685,
          "duration": 0.18181833333333408
        },
        {
          "name": "G3",
          "midi": 55,
          "time": 10.181826666666673,
          "velocity": 0.9921259842519685,
          "duration": 0.18181833333333408
        },
        {
          "name": "A#3",
          "midi": 58,
          "time": 10.181826666666673,
          "velocity": 0.9921259842519685,
          "duration": 0.18181833333333408
        },
        {
          "name": "D#4",
          "midi": 63,
          "time": 10.181826666666673,
          "velocity": 0.9921259842519685,
          "duration": 0.18181833333333408
        },
        {
          "name": "D#3",
          "midi": 51,
          "time": 10.363645000000007,
          "velocity": 0.9921259842519685,
          "duration": 0.5454550000000005
        },
        {
          "name": "G3",
          "midi": 55,
          "time": 10.363645000000007,
          "velocity": 0.9921259842519685,
          "duration": 0.5454550000000005
        },
        {
          "name": "A#3",
          "midi": 58,
          "time": 10.363645000000007,
          "velocity": 0.9921259842519685,
          "duration": 0.5454550000000005
        },
        {
          "name": "D#4",
          "midi": 63,
          "time": 10.363645000000007,
          "velocity": 0.9921259842519685,
          "duration": 0.5454550000000005
        },
        {
          "name": "D#3",
          "midi": 51,
          "time": 10.909100000000008,
          "velocity": 0.9921259842519685,
          "duration": 0.18181833333333408
        },
        {
          "name": "G3",
          "midi": 55,
          "time": 10.909100000000008,
          "velocity": 0.9921259842519685,
          "duration": 0.18181833333333408
        },
        {
          "name": "A#3",
          "midi": 58,
          "time": 10.909100000000008,
          "velocity": 0.9921259842519685,
          "duration": 0.18181833333333408
        },
        {
          "name": "D#4",
          "midi": 63,
          "time": 10.909100000000008,
          "velocity": 0.9921259842519685,
          "duration": 0.18181833333333408
        },
        {
          "name": "D#3",
          "midi": 51,
          "time": 11.090918333333342,
          "velocity": 0.9921259842519685,
          "duration": 0.18181833333333408
        },
        {
          "name": "G3",
          "midi": 55,
          "time": 11.090918333333342,
          "velocity": 0.9921259842519685,
          "duration": 0.18181833333333408
        },
        {
          "name": "A#3",
          "midi": 58,
          "time": 11.090918333333342,
          "velocity": 0.9921259842519685,
          "duration": 0.18181833333333408
        },
        {
          "name": "D#4",
          "midi": 63,
          "time": 11.090918333333342,
          "velocity": 0.9921259842519685,
          "duration": 0.18181833333333408
        },
        {
          "name": "D#3",
          "midi": 51,
          "time": 11.272736666666676,
          "velocity": 0.9921259842519685,
          "duration": 0.18181833333333408
        },
        {
          "name": "G3",
          "midi": 55,
          "time": 11.272736666666676,
          "velocity": 0.9921259842519685,
          "duration": 0.18181833333333408
        },
        {
          "name": "A#3",
          "midi": 58,
          "time": 11.272736666666676,
          "velocity": 0.9921259842519685,
          "duration": 0.18181833333333408
        },
        {
          "name": "D#4",
          "midi": 63,
          "time": 11.272736666666676,
          "velocity": 0.9921259842519685,
          "duration": 0.18181833333333408
        },
        {
          "name": "D#3",
          "midi": 51,
          "time": 11.45455500000001,
          "velocity": 0.9921259842519685,
          "duration": 0.3636366666666664
        },
        {
          "name": "G3",
          "midi": 55,
          "time": 11.45455500000001,
          "velocity": 0.9921259842519685,
          "duration": 0.3636366666666664
        },
        {
          "name": "A#3",
          "midi": 58,
          "time": 11.45455500000001,
          "velocity": 0.9921259842519685,
          "duration": 0.3636366666666664
        },
        {
          "name": "D#4",
          "midi": 63,
          "time": 11.45455500000001,
          "velocity": 0.9921259842519685,
          "duration": 0.3636366666666664
        },
        {
          "name": "D#3",
          "midi": 51,
          "time": 11.818191666666676,
          "velocity": 0.9921259842519685,
          "duration": 0.18181833333333408
        },
        {
          "name": "G3",
          "midi": 55,
          "time": 11.818191666666676,
          "velocity": 0.9921259842519685,
          "duration": 0.18181833333333408
        },
        {
          "name": "A#3",
          "midi": 58,
          "time": 11.818191666666676,
          "velocity": 0.9921259842519685,
          "duration": 0.18181833333333408
        },
        {
          "name": "D#4",
          "midi": 63,
          "time": 11.818191666666676,
          "velocity": 0.9921259842519685,
          "duration": 0.18181833333333408
        },
        {
          "name": "D#3",
          "midi": 51,
          "time": 12.00001000000001,
          "velocity": 0.9921259842519685,
          "duration": 0.3636366666666664
        },
        {
          "name": "G3",
          "midi": 55,
          "time": 12.00001000000001,
          "velocity": 0.9921259842519685,
          "duration": 0.3636366666666664
        },
        {
          "name": "A#3",
          "midi": 58,
          "time": 12.00001000000001,
          "velocity": 0.9921259842519685,
          "duration": 0.3636366666666664
        },
        {
          "name": "D#4",
          "midi": 63,
          "time": 12.00001000000001,
          "velocity": 0.9921259842519685,
          "duration": 0.3636366666666664
        },
        {
          "name": "D#3",
          "midi": 51,
          "time": 12.363646666666677,
          "velocity": 0.9921259842519685,
          "duration": 0.18181833333333408
        },
        {
          "name": "G3",
          "midi": 55,
          "time": 12.363646666666677,
          "velocity": 0.9921259842519685,
          "duration": 0.18181833333333408
        },
        {
          "name": "A#3",
          "midi": 58,
          "time": 12.363646666666677,
          "velocity": 0.9921259842519685,
          "duration": 0.18181833333333408
        },
        {
          "name": "D#4",
          "midi": 63,
          "time": 12.363646666666677,
          "velocity": 0.9921259842519685,
          "duration": 0.18181833333333408
        },
        {
          "name": "D#3",
          "midi": 51,
          "time": 12.54546500000001,
          "velocity": 0.9921259842519685,
          "duration": 0.5454550000000005
        },
        {
          "name": "G3",
          "midi": 55,
          "time": 12.54546500000001,
          "velocity": 0.9921259842519685,
          "duration": 0.5454550000000005
        },
        {
          "name": "A#3",
          "midi": 58,
          "time": 12.54546500000001,
          "velocity": 0.9921259842519685,
          "duration": 0.5454550000000005
        },
        {
          "name": "D#4",
          "midi": 63,
          "time": 12.54546500000001,
          "velocity": 0.9921259842519685,
          "duration": 0.5454550000000005
        },
        {
          "name": "D#3",
          "midi": 51,
          "time": 13.090920000000011,
          "velocity": 0.9921259842519685,
          "duration": 0.5454550000000005
        },
        {
          "name": "G3",
          "midi": 55,
          "time": 13.090920000000011,
          "velocity": 0.9921259842519685,
          "duration": 0.27272750000000023
        },
        {
          "name": "A#3",
          "midi": 58,
          "time": 13.090920000000011,
          "velocity": 0.9921259842519685,
          "duration": 0.27272750000000023
        },
        {
          "name": "D#4",
          "midi": 63,
          "time": 13.090920000000011,
          "velocity": 0.9921259842519685,
          "duration": 0.27272750000000023
        },
        {
          "name": "G3",
          "midi": 55,
          "time": 13.363647500000011,
          "velocity": 0.9921259842519685,
          "duration": 0.5454550000000005
        },
        {
          "name": "A#3",
          "midi": 58,
          "time": 13.363647500000011,
          "velocity": 0.9921259842519685,
          "duration": 0.5454550000000005
        },
        {
          "name": "D#4",
          "midi": 63,
          "time": 13.363647500000011,
          "velocity": 0.9921259842519685,
          "duration": 0.5454550000000005
        },
        {
          "name": "D3",
          "midi": 50,
          "time": 13.636375000000012,
          "velocity": 0.9921259842519685,
          "duration": 0.5454550000000005
        },
        {
          "name": "G3",
          "midi": 55,
          "time": 13.909102500000012,
          "velocity": 0.9921259842519685,
          "duration": 0.27272750000000023
        },
        {
          "name": "A#3",
          "midi": 58,
          "time": 13.909102500000012,
          "velocity": 0.9921259842519685,
          "duration": 0.27272750000000023
        },
        {
          "name": "D4",
          "midi": 62,
          "time": 13.909102500000012,
          "velocity": 0.9921259842519685,
          "duration": 0.27272750000000023
        },
        {
          "name": "D#4",
          "midi": 63,
          "time": 14.181830000000012,
          "velocity": 0.9921259842519685,
          "duration": 0.27272750000000023
        },
        {
          "name": "A#3",
          "midi": 58,
          "time": 14.181830000000012,
          "velocity": 0.9921259842519685,
          "duration": 0.27272750000000023
        },
        {
          "name": "G3",
          "midi": 55,
          "time": 14.181830000000012,
          "velocity": 0.9921259842519685,
          "duration": 0.27272750000000023
        },
        {
          "name": "C3",
          "midi": 48,
          "time": 14.181830000000012,
          "velocity": 0.9921259842519685,
          "duration": 0.5454550000000005
        },
        {
          "name": "D4",
          "midi": 62,
          "time": 14.454557500000012,
          "velocity": 0.9921259842519685,
          "duration": 0.27272750000000023
        },
        {
          "name": "A#3",
          "midi": 58,
          "time": 14.454557500000012,
          "velocity": 0.9921259842519685,
          "duration": 0.27272750000000023
        },
        {
          "name": "G3",
          "midi": 55,
          "time": 14.454557500000012,
          "velocity": 0.9921259842519685,
          "duration": 0.27272750000000023
        },
        {
          "name": "A#2",
          "midi": 46,
          "time": 14.727285000000013,
          "velocity": 0.9921259842519685,
          "duration": 0.5454550000000005
        },
        {
          "name": "G3",
          "midi": 55,
          "time": 14.727285000000013,
          "velocity": 0.9921259842519685,
          "duration": 0.27272750000000023
        },
        {
          "name": "A#3",
          "midi": 58,
          "time": 14.727285000000013,
          "velocity": 0.9921259842519685,
          "duration": 0.27272750000000023
        },
        {
          "name": "D#4",
          "midi": 63,
          "time": 14.727285000000013,
          "velocity": 0.9921259842519685,
          "duration": 0.27272750000000023
        },
        {
          "name": "G3",
          "midi": 55,
          "time": 15.000012500000013,
          "velocity": 0.9921259842519685,
          "duration": 0.27272750000000023
        },
        {
          "name": "A#3",
          "midi": 58,
          "time": 15.000012500000013,
          "velocity": 0.9921259842519685,
          "duration": 0.27272750000000023
        },
        {
          "name": "E4",
          "midi": 64,
          "time": 15.000012500000013,
          "velocity": 0.9921259842519685,
          "duration": 0.27272750000000023
        },
        {
          "name": "F2",
          "midi": 41,
          "time": 15.272740000000013,
          "velocity": 0.9921259842519685,
          "duration": 0.27272750000000023
        },
        {
          "name": "F3",
          "midi": 53,
          "time": 15.272740000000013,
          "velocity": 0.9921259842519685,
          "duration": 0.27272750000000023
        },
        {
          "name": "A3",
          "midi": 57,
          "time": 15.545467500000013,
          "velocity": 0.9921259842519685,
          "duration": 0.5454549999999987
        },
        {
          "name": "F4",
          "midi": 65,
          "time": 15.545467500000013,
          "velocity": 0.9921259842519685,
          "duration": 0.5454549999999987
        },
        {
          "name": "F3",
          "midi": 53,
          "time": 15.818195000000014,
          "velocity": 0.9921259842519685,
          "duration": 0.27272749999999846
        },
        {
          "name": "F3",
          "midi": 53,
          "time": 15.818195000000014,
          "velocity": 0.9921259842519685,
          "duration": 0.27272749999999846
        },
        {
          "name": "D#4",
          "midi": 63,
          "time": 16.090922500000012,
          "velocity": 0.9921259842519685,
          "duration": 0.27272749999999846
        },
        {
          "name": "A3",
          "midi": 57,
          "time": 16.090922500000012,
          "velocity": 0.9921259842519685,
          "duration": 0.27272749999999846
        },
        {
          "name": "C4",
          "midi": 60,
          "time": 16.36365000000001,
          "velocity": 0.9921259842519685,
          "duration": 0.8181825000000025
        },
        {
          "name": "A3",
          "midi": 57,
          "time": 16.36365000000001,
          "velocity": 0.9921259842519685,
          "duration": 0.8181825000000025
        },
        {
          "name": "F3",
          "midi": 53,
          "time": 16.36365000000001,
          "velocity": 0.9921259842519685,
          "duration": 0.8181825000000025
        },
        {
          "name": "C3",
          "midi": 48,
          "time": 16.36365000000001,
          "velocity": 0.9921259842519685,
          "duration": 0.27272749999999846
        },
        {
          "name": "C3",
          "midi": 48,
          "time": 16.36365000000001,
          "velocity": 0.9921259842519685,
          "duration": 0.27272749999999846
        },
        {
          "name": "D#3",
          "midi": 51,
          "time": 16.63637750000001,
          "velocity": 0.9921259842519685,
          "duration": 0.136363750000001
        },
        {
          "name": "D3",
          "midi": 50,
          "time": 16.77274125000001,
          "velocity": 0.9921259842519685,
          "duration": 0.136363750000001
        },
        {
          "name": "C3",
          "midi": 48,
          "time": 16.90910500000001,
          "velocity": 0.9921259842519685,
          "duration": 0.136363750000001
        },
        {
          "name": "D3",
          "midi": 50,
          "time": 16.90910500000001,
          "velocity": 0.9921259842519685,
          "duration": 0.272727500000002
        },
        {
          "name": "A#2",
          "midi": 46,
          "time": 17.045468750000012,
          "velocity": 0.9921259842519685,
          "duration": 0.136363750000001
        },
        {
          "name": "A2",
          "midi": 45,
          "time": 17.181832500000013,
          "velocity": 0.9921259842519685,
          "duration": 0.136363750000001
        },
        {
          "name": "C3",
          "midi": 48,
          "time": 17.181832500000013,
          "velocity": 0.9921259842519685,
          "duration": 0.272727500000002
        },
        {
          "name": "G2",
          "midi": 43,
          "time": 17.318196250000014,
          "velocity": 0.9921259842519685,
          "duration": 0.136363750000001
        },
        {
          "name": "A#2",
          "midi": 46,
          "time": 17.454560000000015,
          "velocity": 0.9921259842519685,
          "duration": 0.27272749999999846
        },
        {
          "name": "A#3",
          "midi": 58,
          "time": 17.454560000000015,
          "velocity": 0.9921259842519685,
          "duration": 0.27272749999999846
        },
        {
          "name": "G#3",
          "midi": 56,
          "time": 17.454560000000015,
          "velocity": 0.9921259842519685,
          "duration": 0.27272749999999846
        },
        {
          "name": "D4",
          "midi": 62,
          "time": 17.454560000000015,
          "velocity": 0.9921259842519685,
          "duration": 0.27272749999999846
        },
        {
          "name": "A#3",
          "midi": 58,
          "time": 17.727287500000013,
          "velocity": 0.9921259842519685,
          "duration": 0.5454549999999969
        },
        {
          "name": "G#3",
          "midi": 56,
          "time": 17.727287500000013,
          "velocity": 0.9921259842519685,
          "duration": 0.5454549999999969
        },
        {
          "name": "D4",
          "midi": 62,
          "time": 17.727287500000013,
          "velocity": 0.9921259842519685,
          "duration": 0.5454549999999969
        },
        {
          "name": "F2",
          "midi": 41,
          "time": 18.000015000000012,
          "velocity": 0.9921259842519685,
          "duration": 0.27272749999999846
        },
        {
          "name": "F3",
          "midi": 53,
          "time": 18.000015000000012,
          "velocity": 0.9921259842519685,
          "duration": 0.27272749999999846
        },
        {
          "name": "A#3",
          "midi": 58,
          "time": 18.27274250000001,
          "velocity": 0.9921259842519685,
          "duration": 0.136363750000001
        },
        {
          "name": "G#3",
          "midi": 56,
          "time": 18.27274250000001,
          "velocity": 0.9921259842519685,
          "duration": 0.136363750000001
        },
        {
          "name": "D4",
          "midi": 62,
          "time": 18.27274250000001,
          "velocity": 0.9921259842519685,
          "duration": 0.136363750000001
        },
        {
          "name": "G#3",
          "midi": 56,
          "time": 18.40910625000001,
          "velocity": 0.9921259842519685,
          "duration": 0.136363750000001
        },
        {
          "name": "A#3",
          "midi": 58,
          "time": 18.40910625000001,
          "velocity": 0.9921259842519685,
          "duration": 0.136363750000001
        },
        {
          "name": "D4",
          "midi": 62,
          "time": 18.40910625000001,
          "velocity": 0.9921259842519685,
          "duration": 0.136363750000001
        },
        {
          "name": "A#2",
          "midi": 46,
          "time": 18.545470000000012,
          "velocity": 0.9921259842519685,
          "duration": 0.27272749999999846
        },
        {
          "name": "G#3",
          "midi": 56,
          "time": 18.545470000000012,
          "velocity": 0.9921259842519685,
          "duration": 0.27272749999999846
        },
        {
          "name": "A#3",
          "midi": 58,
          "time": 18.545470000000012,
          "velocity": 0.9921259842519685,
          "duration": 0.27272749999999846
        },
        {
          "name": "D4",
          "midi": 62,
          "time": 18.545470000000012,
          "velocity": 0.9921259842519685,
          "duration": 0.27272749999999846
        },
        {
          "name": "D3",
          "midi": 50,
          "time": 18.81819750000001,
          "velocity": 0.9921259842519685,
          "duration": 0.27272749999999846
        },
        {
          "name": "G#3",
          "midi": 56,
          "time": 18.81819750000001,
          "velocity": 0.9921259842519685,
          "duration": 0.27272749999999846
        },
        {
          "name": "A#3",
          "midi": 58,
          "time": 18.81819750000001,
          "velocity": 0.9921259842519685,
          "duration": 0.27272749999999846
        },
        {
          "name": "F2",
          "midi": 41,
          "time": 19.09092500000001,
          "velocity": 0.9921259842519685,
          "duration": 0.27272749999999846
        },
        {
          "name": "F3",
          "midi": 53,
          "time": 19.09092500000001,
          "velocity": 0.9921259842519685,
          "duration": 0.27272749999999846
        },
        {
          "name": "G#3",
          "midi": 56,
          "time": 19.09092500000001,
          "velocity": 0.9921259842519685,
          "duration": 0.27272749999999846
        },
        {
          "name": "D3",
          "midi": 50,
          "time": 19.09092500000001,
          "velocity": 0.9921259842519685,
          "duration": 0.27272749999999846
        },
        {
          "name": "C4",
          "midi": 60,
          "time": 19.09092500000001,
          "velocity": 0.9921259842519685,
          "duration": 0.27272749999999846
        },
        {
          "name": "G#3",
          "midi": 56,
          "time": 19.363652500000008,
          "velocity": 0.9921259842519685,
          "duration": 0.27272749999999846
        },
        {
          "name": "D3",
          "midi": 50,
          "time": 19.363652500000008,
          "velocity": 0.9921259842519685,
          "duration": 0.27272749999999846
        },
        {
          "name": "D4",
          "midi": 62,
          "time": 19.363652500000008,
          "velocity": 0.9921259842519685,
          "duration": 0.27272749999999846
        },
        {
          "name": "D#4",
          "midi": 63,
          "time": 19.636380000000006,
          "velocity": 0.9921259842519685,
          "duration": 0.5454549999999969
        },
        {
          "name": "D#3",
          "midi": 51,
          "time": 19.636380000000006,
          "velocity": 0.9921259842519685,
          "duration": 0.5454549999999969
        },
        {
          "name": "G3",
          "midi": 55,
          "time": 19.909107500000005,
          "velocity": 0.9921259842519685,
          "duration": 0.27272749999999846
        },
        {
          "name": "A#3",
          "midi": 58,
          "time": 19.909107500000005,
          "velocity": 0.9921259842519685,
          "duration": 0.27272749999999846
        },
        {
          "name": "C3",
          "midi": 48,
          "time": 20.181835000000003,
          "velocity": 0.9921259842519685,
          "duration": 0.5454549999999969
        },
        {
          "name": "C4",
          "midi": 60,
          "time": 20.181835000000003,
          "velocity": 0.9921259842519685,
          "duration": 0.5454549999999969
        },
        {
          "name": "D#3",
          "midi": 51,
          "time": 20.181835000000003,
          "velocity": 0.9921259842519685,
          "duration": 0.27272749999999846
        },
        {
          "name": "D#3",
          "midi": 51,
          "time": 20.4545625,
          "velocity": 0.9921259842519685,
          "duration": 0.27272749999999846
        },
        {
          "name": "G3",
          "midi": 55,
          "time": 20.4545625,
          "velocity": 0.9921259842519685,
          "duration": 0.27272749999999846
        },
        {
          "name": "G3",
          "midi": 55,
          "time": 20.72729,
          "velocity": 0.9921259842519685,
          "duration": 0.5454549999999969
        },
        {
          "name": "D#3",
          "midi": 51,
          "time": 20.72729,
          "velocity": 0.9921259842519685,
          "duration": 0.5454549999999969
        },
        {
          "name": "A#3",
          "midi": 58,
          "time": 20.72729,
          "velocity": 0.9921259842519685,
          "duration": 0.5454549999999969
        },
        {
          "name": "A#2",
          "midi": 46,
          "time": 21.0000175,
          "velocity": 0.9921259842519685,
          "duration": 0.27272749999999846
        },
        {
          "name": "C4",
          "midi": 60,
          "time": 21.272744999999997,
          "velocity": 0.9921259842519685,
          "duration": 0.27272749999999846
        },
        {
          "name": "C3",
          "midi": 48,
          "time": 21.272744999999997,
          "velocity": 0.9921259842519685,
          "duration": 0.27272749999999846
        },
        {
          "name": "D4",
          "midi": 62,
          "time": 21.545472499999995,
          "velocity": 0.9921259842519685,
          "duration": 0.27272749999999846
        },
        {
          "name": "D3",
          "midi": 50,
          "time": 21.545472499999995,
          "velocity": 0.9921259842519685,
          "duration": 0.27272749999999846
        },
        {
          "name": "D#3",
          "midi": 51,
          "time": 21.818199999999994,
          "velocity": 0.9921259842519685,
          "duration": 0.27272749999999846
        },
        {
          "name": "G3",
          "midi": 55,
          "time": 21.818199999999994,
          "velocity": 0.9921259842519685,
          "duration": 0.27272749999999846
        },
        {
          "name": "A#3",
          "midi": 58,
          "time": 21.818199999999994,
          "velocity": 0.9921259842519685,
          "duration": 0.27272749999999846
        },
        {
          "name": "D#4",
          "midi": 63,
          "time": 21.818199999999994,
          "velocity": 0.9921259842519685,
          "duration": 0.27272749999999846
        },
        {
          "name": "G3",
          "midi": 55,
          "time": 22.090927499999992,
          "velocity": 0.9921259842519685,
          "duration": 0.5454549999999969
        },
        {
          "name": "A#3",
          "midi": 58,
          "time": 22.090927499999992,
          "velocity": 0.9921259842519685,
          "duration": 0.5454549999999969
        },
        {
          "name": "D#4",
          "midi": 63,
          "time": 22.090927499999992,
          "velocity": 0.9921259842519685,
          "duration": 0.5454549999999969
        },
        {
          "name": "A#2",
          "midi": 46,
          "time": 22.36365499999999,
          "velocity": 0.9921259842519685,
          "duration": 0.27272749999999846
        },
        {
          "name": "D4",
          "midi": 62,
          "time": 22.63638249999999,
          "velocity": 0.9921259842519685,
          "duration": 0.27272749999999846
        },
        {
          "name": "A#3",
          "midi": 58,
          "time": 22.63638249999999,
          "velocity": 0.9921259842519685,
          "duration": 0.27272749999999846
        },
        {
          "name": "G3",
          "midi": 55,
          "time": 22.63638249999999,
          "velocity": 0.9921259842519685,
          "duration": 0.27272749999999846
        },
        {
          "name": "D#4",
          "midi": 63,
          "time": 22.909109999999988,
          "velocity": 0.9921259842519685,
          "duration": 0.27272749999999846
        },
        {
          "name": "A#3",
          "midi": 58,
          "time": 22.909109999999988,
          "velocity": 0.9921259842519685,
          "duration": 0.27272749999999846
        },
        {
          "name": "G3",
          "midi": 55,
          "time": 22.909109999999988,
          "velocity": 0.9921259842519685,
          "duration": 0.27272749999999846
        },
        {
          "name": "D#3",
          "midi": 51,
          "time": 22.909109999999988,
          "velocity": 0.9921259842519685,
          "duration": 0.27272749999999846
        },
        {
          "name": "D4",
          "midi": 62,
          "time": 23.181837499999986,
          "velocity": 0.9921259842519685,
          "duration": 0.27272749999999846
        },
        {
          "name": "A#3",
          "midi": 58,
          "time": 23.181837499999986,
          "velocity": 0.9921259842519685,
          "duration": 0.27272749999999846
        },
        {
          "name": "G3",
          "midi": 55,
          "time": 23.181837499999986,
          "velocity": 0.9921259842519685,
          "duration": 0.27272749999999846
        },
        {
          "name": "A#2",
          "midi": 46,
          "time": 23.454564999999985,
          "velocity": 0.9921259842519685,
          "duration": 0.27272749999999846
        },
        {
          "name": "G3",
          "midi": 55,
          "time": 23.454564999999985,
          "velocity": 0.9921259842519685,
          "duration": 0.27272749999999846
        },
        {
          "name": "A#3",
          "midi": 58,
          "time": 23.454564999999985,
          "velocity": 0.9921259842519685,
          "duration": 0.27272749999999846
        },
        {
          "name": "D#4",
          "midi": 63,
          "time": 23.454564999999985,
          "velocity": 0.9921259842519685,
          "duration": 0.27272749999999846
        },
        {
          "name": "E4",
          "midi": 64,
          "time": 23.727292499999983,
          "velocity": 0.9921259842519685,
          "duration": 0.27272749999999846
        },
        {
          "name": "A#3",
          "midi": 58,
          "time": 23.727292499999983,
          "velocity": 0.9921259842519685,
          "duration": 0.27272749999999846
        },
        {
          "name": "G3",
          "midi": 55,
          "time": 23.727292499999983,
          "velocity": 0.9921259842519685,
          "duration": 0.27272749999999846
        },
        {
          "name": "C3",
          "midi": 48,
          "time": 24.00001999999998,
          "velocity": 0.9921259842519685,
          "duration": 0.27272749999999846
        },
        {
          "name": "A3",
          "midi": 57,
          "time": 24.27274749999998,
          "velocity": 0.9921259842519685,
          "duration": 0.5454549999999969
        },
        {
          "name": "F4",
          "midi": 65,
          "time": 24.27274749999998,
          "velocity": 0.9921259842519685,
          "duration": 0.5454549999999969
        },
        {
          "name": "F3",
          "midi": 53,
          "time": 24.54547499999998,
          "velocity": 0.9921259842519685,
          "duration": 0.27272749999999846
        },
        {
          "name": "F2",
          "midi": 41,
          "time": 24.54547499999998,
          "velocity": 0.9921259842519685,
          "duration": 0.27272749999999846
        },
        {
          "name": "D#4",
          "midi": 63,
          "time": 24.818202499999977,
          "velocity": 0.9921259842519685,
          "duration": 0.27272749999999846
        },
        {
          "name": "A3",
          "midi": 57,
          "time": 24.818202499999977,
          "velocity": 0.9921259842519685,
          "duration": 0.27272749999999846
        },
        {
          "name": "C4",
          "midi": 60,
          "time": 25.090929999999975,
          "velocity": 0.9921259842519685,
          "duration": 0.8181825000000025
        },
        {
          "name": "A3",
          "midi": 57,
          "time": 25.090929999999975,
          "velocity": 0.9921259842519685,
          "duration": 0.8181825000000025
        },
        {
          "name": "F3",
          "midi": 53,
          "time": 25.090929999999975,
          "velocity": 0.9921259842519685,
          "duration": 0.8181825000000025
        },
        {
          "name": "C3",
          "midi": 48,
          "time": 25.090929999999975,
          "velocity": 0.9921259842519685,
          "duration": 0.27272749999999846
        },
        {
          "name": "C3",
          "midi": 48,
          "time": 25.090929999999975,
          "velocity": 0.9921259842519685,
          "duration": 0.27272749999999846
        },
        {
          "name": "C3",
          "midi": 48,
          "time": 25.363657499999974,
          "velocity": 0.9921259842519685,
          "duration": 0.272727500000002
        },
        {
          "name": "D#3",
          "midi": 51,
          "time": 25.363657499999974,
          "velocity": 0.9921259842519685,
          "duration": 0.136363750000001
        },
        {
          "name": "D3",
          "midi": 50,
          "time": 25.500021249999975,
          "velocity": 0.9921259842519685,
          "duration": 0.136363750000001
        },
        {
          "name": "D3",
          "midi": 50,
          "time": 25.636384999999976,
          "velocity": 0.9921259842519685,
          "duration": 0.272727500000002
        },
        {
          "name": "C3",
          "midi": 48,
          "time": 25.636384999999976,
          "velocity": 0.9921259842519685,
          "duration": 0.136363750000001
        },
        {
          "name": "A#2",
          "midi": 46,
          "time": 25.772748749999977,
          "velocity": 0.9921259842519685,
          "duration": 0.136363750000001
        },
        {
          "name": "A2",
          "midi": 45,
          "time": 25.909112499999978,
          "velocity": 0.9921259842519685,
          "duration": 0.136363750000001
        },
        {
          "name": "D#3",
          "midi": 51,
          "time": 25.909112499999978,
          "velocity": 0.9921259842519685,
          "duration": 0.272727500000002
        },
        {
          "name": "G2",
          "midi": 43,
          "time": 26.04547624999998,
          "velocity": 0.9921259842519685,
          "duration": 0.136363750000001
        },
        {
          "name": "F3",
          "midi": 53,
          "time": 26.18183999999998,
          "velocity": 0.9921259842519685,
          "duration": 0.27272749999999846
        },
        {
          "name": "F3",
          "midi": 53,
          "time": 26.18183999999998,
          "velocity": 0.9921259842519685,
          "duration": 0.27272749999999846
        },
        {
          "name": "A3",
          "midi": 57,
          "time": 26.18183999999998,
          "velocity": 0.9921259842519685,
          "duration": 0.27272749999999846
        },
        {
          "name": "C4",
          "midi": 60,
          "time": 26.18183999999998,
          "velocity": 0.9921259842519685,
          "duration": 0.27272749999999846
        },
        {
          "name": "F4",
          "midi": 65,
          "time": 26.18183999999998,
          "velocity": 0.9921259842519685,
          "duration": 0.27272749999999846
        },
        {
          "name": "A3",
          "midi": 57,
          "time": 26.45456749999998,
          "velocity": 0.9921259842519685,
          "duration": 0.5454549999999969
        },
        {
          "name": "C4",
          "midi": 60,
          "time": 26.45456749999998,
          "velocity": 0.9921259842519685,
          "duration": 0.5454549999999969
        },
        {
          "name": "F4",
          "midi": 65,
          "time": 26.45456749999998,
          "velocity": 0.9921259842519685,
          "duration": 0.5454549999999969
        },
        {
          "name": "C3",
          "midi": 48,
          "time": 26.727294999999977,
          "velocity": 0.9921259842519685,
          "duration": 0.27272749999999846
        },
        {
          "name": "F4",
          "midi": 65,
          "time": 27.000022499999975,
          "velocity": 0.9921259842519685,
          "duration": 0.27272749999999846
        },
        {
          "name": "C4",
          "midi": 60,
          "time": 27.000022499999975,
          "velocity": 0.9921259842519685,
          "duration": 0.27272749999999846
        },
        {
          "name": "A3",
          "midi": 57,
          "time": 27.000022499999975,
          "velocity": 0.9921259842519685,
          "duration": 0.27272749999999846
        },
        {
          "name": "F4",
          "midi": 65,
          "time": 27.272749999999974,
          "velocity": 0.9921259842519685,
          "duration": 0.27272749999999846
        },
        {
          "name": "C4",
          "midi": 60,
          "time": 27.272749999999974,
          "velocity": 0.9921259842519685,
          "duration": 0.27272749999999846
        },
        {
          "name": "A3",
          "midi": 57,
          "time": 27.272749999999974,
          "velocity": 0.9921259842519685,
          "duration": 0.27272749999999846
        },
        {
          "name": "F3",
          "midi": 53,
          "time": 27.272749999999974,
          "velocity": 0.9921259842519685,
          "duration": 0.27272749999999846
        },
        {
          "name": "F3",
          "midi": 53,
          "time": 27.272749999999974,
          "velocity": 0.9921259842519685,
          "duration": 0.27272749999999846
        },
        {
          "name": "C4",
          "midi": 60,
          "time": 27.545477499999972,
          "velocity": 0.9921259842519685,
          "duration": 0.27272749999999846
        },
        {
          "name": "D#3",
          "midi": 51,
          "time": 27.545477499999972,
          "velocity": 0.9921259842519685,
          "duration": 0.27272749999999846
        },
        {
          "name": "D4",
          "midi": 62,
          "time": 27.81820499999997,
          "velocity": 0.9921259842519685,
          "duration": 0.27272749999999846
        },
        {
          "name": "C3",
          "midi": 48,
          "time": 27.81820499999997,
          "velocity": 0.9921259842519685,
          "duration": 0.27272749999999846
        },
        {
          "name": "D3",
          "midi": 50,
          "time": 27.81820499999997,
          "velocity": 0.9921259842519685,
          "duration": 0.27272749999999846
        },
        {
          "name": "D#4",
          "midi": 63,
          "time": 28.09093249999997,
          "velocity": 0.9921259842519685,
          "duration": 0.27272749999999846
        },
        {
          "name": "C3",
          "midi": 48,
          "time": 28.09093249999997,
          "velocity": 0.9921259842519685,
          "duration": 0.27272749999999846
        },
        {
          "name": "F4",
          "midi": 65,
          "time": 28.363659999999967,
          "velocity": 0.9921259842519685,
          "duration": 0.5454549999999969
        },
        {
          "name": "C4",
          "midi": 60,
          "time": 28.363659999999967,
          "velocity": 0.9921259842519685,
          "duration": 0.5454549999999969
        },
        {
          "name": "A3",
          "midi": 57,
          "time": 28.363659999999967,
          "velocity": 0.9921259842519685,
          "duration": 0.5454549999999969
        },
        {
          "name": "F3",
          "midi": 53,
          "time": 28.363659999999967,
          "velocity": 0.9921259842519685,
          "duration": 0.27272749999999846
        },
        {
          "name": "F3",
          "midi": 53,
          "time": 28.363659999999967,
          "velocity": 0.9921259842519685,
          "duration": 0.27272749999999846
        },
        {
          "name": "A#2",
          "midi": 46,
          "time": 28.363659999999967,
          "velocity": 0.9921259842519685,
          "duration": 0.27272749999999846
        },
        {
          "name": "C3",
          "midi": 48,
          "time": 28.636387499999966,
          "velocity": 0.9921259842519685,
          "duration": 0.27272749999999846
        },
        {
          "name": "A#2",
          "midi": 46,
          "time": 28.909114999999964,
          "velocity": 0.9921259842519685,
          "duration": 0.27272749999999846
        },
        {
          "name": "G#3",
          "midi": 56,
          "time": 28.909114999999964,
          "velocity": 0.9921259842519685,
          "duration": 0.5454549999999969
        },
        {
          "name": "D3",
          "midi": 50,
          "time": 28.909114999999964,
          "velocity": 0.9921259842519685,
          "duration": 0.27272749999999846
        },
        {
          "name": "D4",
          "midi": 62,
          "time": 28.909114999999964,
          "velocity": 0.9921259842519685,
          "duration": 0.5454549999999969
        },
        {
          "name": "D#3",
          "midi": 51,
          "time": 29.181842499999963,
          "velocity": 0.9921259842519685,
          "duration": 0.27272749999999846
        },
        {
          "name": "F3",
          "midi": 53,
          "time": 29.45456999999996,
          "velocity": 0.9921259842519685,
          "duration": 0.5454550000000005
        },
        {
          "name": "C3",
          "midi": 48,
          "time": 29.45456999999996,
          "velocity": 0.9921259842519685,
          "duration": 0.5454550000000005
        },
        {
          "name": "D3",
          "midi": 50,
          "time": 29.45456999999996,
          "velocity": 0.9921259842519685,
          "duration": 0.5454550000000005
        },
        {
          "name": "G#3",
          "midi": 56,
          "time": 29.45456999999996,
          "velocity": 0.9921259842519685,
          "duration": 0.5454550000000005
        },
        {
          "name": "C4",
          "midi": 60,
          "time": 29.45456999999996,
          "velocity": 0.9921259842519685,
          "duration": 0.5454550000000005
        },
        {
          "name": "A#3",
          "midi": 58,
          "time": 30.00002499999996,
          "velocity": 0.9921259842519685,
          "duration": 0.5454550000000005
        },
        {
          "name": "G#3",
          "midi": 56,
          "time": 30.00002499999996,
          "velocity": 0.9921259842519685,
          "duration": 0.5454550000000005
        },
        {
          "name": "D3",
          "midi": 50,
          "time": 30.00002499999996,
          "velocity": 0.9921259842519685,
          "duration": 0.5454550000000005
        },
        {
          "name": "D3",
          "midi": 50,
          "time": 30.00002499999996,
          "velocity": 0.9921259842519685,
          "duration": 0.5454550000000005
        },
        {
          "name": "D#4",
          "midi": 63,
          "time": 30.545479999999962,
          "velocity": 0.9921259842519685,
          "duration": 0.8181824999999954
        },
        {
          "name": "A#3",
          "midi": 58,
          "time": 30.545479999999962,
          "velocity": 0.9921259842519685,
          "duration": 0.8181824999999954
        },
        {
          "name": "G3",
          "midi": 55,
          "time": 30.545479999999962,
          "velocity": 0.9921259842519685,
          "duration": 0.8181824999999954
        },
        {
          "name": "D#3",
          "midi": 51,
          "time": 30.545479999999962,
          "velocity": 0.9921259842519685,
          "duration": 0.27272749999999846
        },
        {
          "name": "A#2",
          "midi": 46,
          "time": 31.09093499999996,
          "velocity": 0.9921259842519685,
          "duration": 0.27272749999999846
        },
        {
          "name": "D4",
          "midi": 62,
          "time": 31.363662499999958,
          "velocity": 0.9921259842519685,
          "duration": 0.27272749999999846
        },
        {
          "name": "A#3",
          "midi": 58,
          "time": 31.363662499999958,
          "velocity": 0.9921259842519685,
          "duration": 0.27272749999999846
        },
        {
          "name": "G3",
          "midi": 55,
          "time": 31.363662499999958,
          "velocity": 0.9921259842519685,
          "duration": 0.27272749999999846
        },
        {
          "name": "D#4",
          "midi": 63,
          "time": 31.636389999999956,
          "velocity": 0.9921259842519685,
          "duration": 0.27272749999999846
        },
        {
          "name": "A#3",
          "midi": 58,
          "time": 31.636389999999956,
          "velocity": 0.9921259842519685,
          "duration": 0.27272749999999846
        },
        {
          "name": "G3",
          "midi": 55,
          "time": 31.636389999999956,
          "velocity": 0.9921259842519685,
          "duration": 0.27272749999999846
        },
        {
          "name": "D#3",
          "midi": 51,
          "time": 31.636389999999956,
          "velocity": 0.9921259842519685,
          "duration": 0.27272749999999846
        },
        {
          "name": "D4",
          "midi": 62,
          "time": 31.909117499999955,
          "velocity": 0.9921259842519685,
          "duration": 0.27272749999999846
        },
        {
          "name": "A#3",
          "midi": 58,
          "time": 31.909117499999955,
          "velocity": 0.9921259842519685,
          "duration": 0.27272749999999846
        },
        {
          "name": "G3",
          "midi": 55,
          "time": 31.909117499999955,
          "velocity": 0.9921259842519685,
          "duration": 0.27272749999999846
        },
        {
          "name": "A#2",
          "midi": 46,
          "time": 32.18184499999995,
          "velocity": 0.9921259842519685,
          "duration": 0.272727500000002
        },
        {
          "name": "G3",
          "midi": 55,
          "time": 32.18184499999995,
          "velocity": 0.9921259842519685,
          "duration": 0.272727500000002
        },
        {
          "name": "A#3",
          "midi": 58,
          "time": 32.18184499999995,
          "velocity": 0.9921259842519685,
          "duration": 0.272727500000002
        },
        {
          "name": "D#4",
          "midi": 63,
          "time": 32.18184499999995,
          "velocity": 0.9921259842519685,
          "duration": 0.272727500000002
        },
        {
          "name": "E4",
          "midi": 64,
          "time": 32.454572499999955,
          "velocity": 0.9921259842519685,
          "duration": 0.272727500000002
        },
        {
          "name": "A#3",
          "midi": 58,
          "time": 32.454572499999955,
          "velocity": 0.9921259842519685,
          "duration": 0.272727500000002
        },
        {
          "name": "G3",
          "midi": 55,
          "time": 32.454572499999955,
          "velocity": 0.9921259842519685,
          "duration": 0.272727500000002
        },
        {
          "name": "C3",
          "midi": 48,
          "time": 32.72729999999996,
          "velocity": 0.9921259842519685,
          "duration": 0.272727500000002
        },
        {
          "name": "A3",
          "midi": 57,
          "time": 33.00002749999996,
          "velocity": 0.9921259842519685,
          "duration": 0.545455000000004
        },
        {
          "name": "F4",
          "midi": 65,
          "time": 33.00002749999996,
          "velocity": 0.9921259842519685,
          "duration": 0.545455000000004
        },
        {
          "name": "F3",
          "midi": 53,
          "time": 33.27275499999996,
          "velocity": 0.9921259842519685,
          "duration": 0.272727500000002
        },
        {
          "name": "F2",
          "midi": 41,
          "time": 33.27275499999996,
          "velocity": 0.9921259842519685,
          "duration": 0.272727500000002
        },
        {
          "name": "D#4",
          "midi": 63,
          "time": 33.54548249999996,
          "velocity": 0.9921259842519685,
          "duration": 0.272727500000002
        },
        {
          "name": "A3",
          "midi": 57,
          "time": 33.54548249999996,
          "velocity": 0.9921259842519685,
          "duration": 0.272727500000002
        },
        {
          "name": "C4",
          "midi": 60,
          "time": 33.818209999999965,
          "velocity": 0.9921259842519685,
          "duration": 0.818182500000006
        },
        {
          "name": "A3",
          "midi": 57,
          "time": 33.818209999999965,
          "velocity": 0.9921259842519685,
          "duration": 0.818182500000006
        },
        {
          "name": "F3",
          "midi": 53,
          "time": 33.818209999999965,
          "velocity": 0.9921259842519685,
          "duration": 0.818182500000006
        },
        {
          "name": "C3",
          "midi": 48,
          "time": 33.818209999999965,
          "velocity": 0.9921259842519685,
          "duration": 0.272727500000002
        },
        {
          "name": "C3",
          "midi": 48,
          "time": 33.818209999999965,
          "velocity": 0.9921259842519685,
          "duration": 0.272727500000002
        },
        {
          "name": "D#3",
          "midi": 51,
          "time": 34.09093749999997,
          "velocity": 0.9921259842519685,
          "duration": 0.136363750000001
        },
        {
          "name": "D3",
          "midi": 50,
          "time": 34.22730124999997,
          "velocity": 0.9921259842519685,
          "duration": 0.136363750000001
        },
        {
          "name": "C3",
          "midi": 48,
          "time": 34.36366499999997,
          "velocity": 0.9921259842519685,
          "duration": 0.136363750000001
        },
        {
          "name": "D3",
          "midi": 50,
          "time": 34.36366499999997,
          "velocity": 0.9921259842519685,
          "duration": 0.272727500000002
        },
        {
          "name": "A#2",
          "midi": 46,
          "time": 34.50002874999997,
          "velocity": 0.9921259842519685,
          "duration": 0.136363750000001
        },
        {
          "name": "A2",
          "midi": 45,
          "time": 34.63639249999997,
          "velocity": 0.9921259842519685,
          "duration": 0.136363750000001
        },
        {
          "name": "C3",
          "midi": 48,
          "time": 34.63639249999997,
          "velocity": 0.9921259842519685,
          "duration": 0.272727500000002
        },
        {
          "name": "G2",
          "midi": 43,
          "time": 34.77275624999997,
          "velocity": 0.9921259842519685,
          "duration": 0.136363750000001
        },
        {
          "name": "A#2",
          "midi": 46,
          "time": 34.90911999999997,
          "velocity": 0.9921259842519685,
          "duration": 0.272727500000002
        },
        {
          "name": "G#3",
          "midi": 56,
          "time": 34.90911999999997,
          "velocity": 0.9921259842519685,
          "duration": 0.272727500000002
        },
        {
          "name": "A#3",
          "midi": 58,
          "time": 34.90911999999997,
          "velocity": 0.9921259842519685,
          "duration": 0.272727500000002
        },
        {
          "name": "D4",
          "midi": 62,
          "time": 34.90911999999997,
          "velocity": 0.9921259842519685,
          "duration": 0.272727500000002
        },
        {
          "name": "G#3",
          "midi": 56,
          "time": 35.181847499999975,
          "velocity": 0.9921259842519685,
          "duration": 0.545455000000004
        },
        {
          "name": "A#3",
          "midi": 58,
          "time": 35.181847499999975,
          "velocity": 0.9921259842519685,
          "duration": 0.545455000000004
        },
        {
          "name": "D4",
          "midi": 62,
          "time": 35.181847499999975,
          "velocity": 0.9921259842519685,
          "duration": 0.545455000000004
        },
        {
          "name": "F2",
          "midi": 41,
          "time": 35.45457499999998,
          "velocity": 0.9921259842519685,
          "duration": 0.272727500000002
        },
        {
          "name": "F3",
          "midi": 53,
          "time": 35.45457499999998,
          "velocity": 0.9921259842519685,
          "duration": 0.272727500000002
        },
        {
          "name": "G#3",
          "midi": 56,
          "time": 35.72730249999998,
          "velocity": 0.9921259842519685,
          "duration": 0.272727500000002
        },
        {
          "name": "A#3",
          "midi": 58,
          "time": 35.72730249999998,
          "velocity": 0.9921259842519685,
          "duration": 0.272727500000002
        },
        {
          "name": "D4",
          "midi": 62,
          "time": 35.72730249999998,
          "velocity": 0.9921259842519685,
          "duration": 0.272727500000002
        },
        {
          "name": "A#2",
          "midi": 46,
          "time": 36.00002999999998,
          "velocity": 0.9921259842519685,
          "duration": 0.272727500000002
        },
        {
          "name": "G#3",
          "midi": 56,
          "time": 36.00002999999998,
          "velocity": 0.9921259842519685,
          "duration": 0.272727500000002
        },
        {
          "name": "A#3",
          "midi": 58,
          "time": 36.00002999999998,
          "velocity": 0.9921259842519685,
          "duration": 0.272727500000002
        },
        {
          "name": "D4",
          "midi": 62,
          "time": 36.00002999999998,
          "velocity": 0.9921259842519685,
          "duration": 0.272727500000002
        },
        {
          "name": "G#3",
          "midi": 56,
          "time": 36.27275749999998,
          "velocity": 0.9921259842519685,
          "duration": 0.272727500000002
        },
        {
          "name": "A#3",
          "midi": 58,
          "time": 36.27275749999998,
          "velocity": 0.9921259842519685,
          "duration": 0.272727500000002
        },
        {
          "name": "D4",
          "midi": 62,
          "time": 36.27275749999998,
          "velocity": 0.9921259842519685,
          "duration": 0.272727500000002
        },
        {
          "name": "F2",
          "midi": 41,
          "time": 36.545484999999985,
          "velocity": 0.9921259842519685,
          "duration": 0.272727500000002
        },
        {
          "name": "F3",
          "midi": 53,
          "time": 36.545484999999985,
          "velocity": 0.9921259842519685,
          "duration": 0.272727500000002
        },
        {
          "name": "G#3",
          "midi": 56,
          "time": 36.545484999999985,
          "velocity": 0.9921259842519685,
          "duration": 0.272727500000002
        },
        {
          "name": "A#3",
          "midi": 58,
          "time": 36.545484999999985,
          "velocity": 0.9921259842519685,
          "duration": 0.272727500000002
        },
        {
          "name": "D#4",
          "midi": 63,
          "time": 36.545484999999985,
          "velocity": 0.9921259842519685,
          "duration": 0.272727500000002
        },
        {
          "name": "G#3",
          "midi": 56,
          "time": 36.81821249999999,
          "velocity": 0.9921259842519685,
          "duration": 0.272727500000002
        },
        {
          "name": "A#3",
          "midi": 58,
          "time": 36.81821249999999,
          "velocity": 0.9921259842519685,
          "duration": 0.272727500000002
        },
        {
          "name": "F4",
          "midi": 65,
          "time": 36.81821249999999,
          "velocity": 0.9921259842519685,
          "duration": 0.272727500000002
        },
        {
          "name": "G4",
          "midi": 67,
          "time": 37.09093999999999,
          "velocity": 0.9921259842519685,
          "duration": 1.363637500000003
        },
        {
          "name": "D4",
          "midi": 62,
          "time": 37.09093999999999,
          "velocity": 0.9921259842519685,
          "duration": 1.363637500000003
        },
        {
          "name": "G3",
          "midi": 55,
          "time": 37.09093999999999,
          "velocity": 0.9921259842519685,
          "duration": 1.363637500000003
        },
        {
          "name": "B3",
          "midi": 59,
          "time": 37.09093999999999,
          "velocity": 0.9921259842519685,
          "duration": 1.363637500000003
        },
        {
          "name": "G2",
          "midi": 43,
          "time": 37.09093999999999,
          "velocity": 0.9921259842519685,
          "duration": 0.272727500000002
        },
        {
          "name": "D3",
          "midi": 50,
          "time": 37.36366749999999,
          "velocity": 0.9921259842519685,
          "duration": 0.5454549999999969
        },
        {
          "name": "B2",
          "midi": 47,
          "time": 37.90912249999999,
          "velocity": 0.9921259842519685,
          "duration": 0.272727500000002
        },
        {
          "name": "B2",
          "midi": 47,
          "time": 37.90912249999999,
          "velocity": 0.9921259842519685,
          "duration": 0.272727500000002
        },
        {
          "name": "G2",
          "midi": 43,
          "time": 38.18184999999999,
          "velocity": 0.9921259842519685,
          "duration": 0.272727500000002
        },
        {
          "name": "A#2",
          "midi": 46,
          "time": 38.727304999999994,
          "velocity": 0.9921259842519685,
          "duration": 0.5454549999999969
        },
        {
          "name": "D3",
          "midi": 50,
          "time": 38.727304999999994,
          "velocity": 0.9921259842519685,
          "duration": 0.5454549999999969
        },
        {
          "name": "G#3",
          "midi": 56,
          "time": 38.727304999999994,
          "velocity": 0.9921259842519685,
          "duration": 0.5454549999999969
        },
        {
          "name": "A#3",
          "midi": 58,
          "time": 38.727304999999994,
          "velocity": 0.9921259842519685,
          "duration": 0.5454549999999969
        },
        {
          "name": "D#3",
          "midi": 51,
          "time": 39.27275999999999,
          "velocity": 0.9921259842519685,
          "duration": 0.272727500000002
        },
        {
          "name": "G3",
          "midi": 55,
          "time": 39.27275999999999,
          "velocity": 0.9921259842519685,
          "duration": 0.272727500000002
        },
        {
          "name": "A#3",
          "midi": 58,
          "time": 39.27275999999999,
          "velocity": 0.9921259842519685,
          "duration": 0.272727500000002
        },
        {
          "name": "D#4",
          "midi": 63,
          "time": 39.27275999999999,
          "velocity": 0.9921259842519685,
          "duration": 0.272727500000002
        },
        {
          "name": "D#4",
          "midi": 63,
          "time": 39.54548749999999,
          "velocity": 0.9921259842519685,
          "duration": 0.545455000000004
        },
        {
          "name": "A#3",
          "midi": 58,
          "time": 39.54548749999999,
          "velocity": 0.9921259842519685,
          "duration": 0.545455000000004
        },
        {
          "name": "G3",
          "midi": 55,
          "time": 39.54548749999999,
          "velocity": 0.9921259842519685,
          "duration": 0.545455000000004
        },
        {
          "name": "A#2",
          "midi": 46,
          "time": 39.818214999999995,
          "velocity": 0.9921259842519685,
          "duration": 0.272727500000002
        },
        {
          "name": "D4",
          "midi": 62,
          "time": 40.0909425,
          "velocity": 0.9921259842519685,
          "duration": 0.272727500000002
        },
        {
          "name": "A#3",
          "midi": 58,
          "time": 40.0909425,
          "velocity": 0.9921259842519685,
          "duration": 0.272727500000002
        },
        {
          "name": "G3",
          "midi": 55,
          "time": 40.0909425,
          "velocity": 0.9921259842519685,
          "duration": 0.272727500000002
        },
        {
          "name": "D#4",
          "midi": 63,
          "time": 40.36367,
          "velocity": 0.9921259842519685,
          "duration": 0.272727500000002
        },
        {
          "name": "A#3",
          "midi": 58,
          "time": 40.36367,
          "velocity": 0.9921259842519685,
          "duration": 0.272727500000002
        },
        {
          "name": "G3",
          "midi": 55,
          "time": 40.36367,
          "velocity": 0.9921259842519685,
          "duration": 0.272727500000002
        },
        {
          "name": "D#3",
          "midi": 51,
          "time": 40.36367,
          "velocity": 0.9921259842519685,
          "duration": 0.272727500000002
        },
        {
          "name": "D4",
          "midi": 62,
          "time": 40.6363975,
          "velocity": 0.9921259842519685,
          "duration": 0.272727500000002
        },
        {
          "name": "A#3",
          "midi": 58,
          "time": 40.6363975,
          "velocity": 0.9921259842519685,
          "duration": 0.272727500000002
        },
        {
          "name": "G3",
          "midi": 55,
          "time": 40.6363975,
          "velocity": 0.9921259842519685,
          "duration": 0.272727500000002
        },
        {
          "name": "A#2",
          "midi": 46,
          "time": 40.909125,
          "velocity": 0.9921259842519685,
          "duration": 0.272727500000002
        },
        {
          "name": "G3",
          "midi": 55,
          "time": 40.909125,
          "velocity": 0.9921259842519685,
          "duration": 0.272727500000002
        },
        {
          "name": "A#3",
          "midi": 58,
          "time": 40.909125,
          "velocity": 0.9921259842519685,
          "duration": 0.272727500000002
        },
        {
          "name": "D#4",
          "midi": 63,
          "time": 40.909125,
          "velocity": 0.9921259842519685,
          "duration": 0.272727500000002
        },
        {
          "name": "E4",
          "midi": 64,
          "time": 41.181852500000005,
          "velocity": 0.9921259842519685,
          "duration": 0.272727500000002
        },
        {
          "name": "A#3",
          "midi": 58,
          "time": 41.181852500000005,
          "velocity": 0.9921259842519685,
          "duration": 0.272727500000002
        },
        {
          "name": "G3",
          "midi": 55,
          "time": 41.181852500000005,
          "velocity": 0.9921259842519685,
          "duration": 0.272727500000002
        },
        {
          "name": "C3",
          "midi": 48,
          "time": 41.45458000000001,
          "velocity": 0.9921259842519685,
          "duration": 0.272727500000002
        },
        {
          "name": "A3",
          "midi": 57,
          "time": 41.72730750000001,
          "velocity": 0.9921259842519685,
          "duration": 0.545455000000004
        },
        {
          "name": "F4",
          "midi": 65,
          "time": 41.72730750000001,
          "velocity": 0.9921259842519685,
          "duration": 0.545455000000004
        },
        {
          "name": "F3",
          "midi": 53,
          "time": 42.00003500000001,
          "velocity": 0.9921259842519685,
          "duration": 0.272727500000002
        },
        {
          "name": "D#4",
          "midi": 63,
          "time": 42.27276250000001,
          "velocity": 0.9921259842519685,
          "duration": 0.272727500000002
        },
        {
          "name": "A3",
          "midi": 57,
          "time": 42.27276250000001,
          "velocity": 0.9921259842519685,
          "duration": 0.272727500000002
        },
        {
          "name": "C4",
          "midi": 60,
          "time": 42.545490000000015,
          "velocity": 0.9921259842519685,
          "duration": 0.818182500000006
        },
        {
          "name": "A3",
          "midi": 57,
          "time": 42.545490000000015,
          "velocity": 0.9921259842519685,
          "duration": 0.818182500000006
        },
        {
          "name": "F3",
          "midi": 53,
          "time": 42.545490000000015,
          "velocity": 0.9921259842519685,
          "duration": 0.818182500000006
        },
        {
          "name": "C3",
          "midi": 48,
          "time": 42.545490000000015,
          "velocity": 0.9921259842519685,
          "duration": 0.272727500000002
        },
        {
          "name": "C3",
          "midi": 48,
          "time": 42.545490000000015,
          "velocity": 0.9921259842519685,
          "duration": 0.272727500000002
        },
        {
          "name": "D#3",
          "midi": 51,
          "time": 42.81821750000002,
          "velocity": 0.9921259842519685,
          "duration": 0.136363750000001
        },
        {
          "name": "D3",
          "midi": 50,
          "time": 42.95458125000002,
          "velocity": 0.9921259842519685,
          "duration": 0.136363750000001
        },
        {
          "name": "C3",
          "midi": 48,
          "time": 43.09094500000002,
          "velocity": 0.9921259842519685,
          "duration": 0.136363750000001
        },
        {
          "name": "D3",
          "midi": 50,
          "time": 43.09094500000002,
          "velocity": 0.9921259842519685,
          "duration": 0.272727500000002
        },
        {
          "name": "A#2",
          "midi": 46,
          "time": 43.22730875000002,
          "velocity": 0.9921259842519685,
          "duration": 0.136363750000001
        },
        {
          "name": "A2",
          "midi": 45,
          "time": 43.36367250000002,
          "velocity": 0.9921259842519685,
          "duration": 0.136363750000001
        },
        {
          "name": "C3",
          "midi": 48,
          "time": 43.36367250000002,
          "velocity": 0.9921259842519685,
          "duration": 0.272727500000002
        },
        {
          "name": "G2",
          "midi": 43,
          "time": 43.50003625000002,
          "velocity": 0.9921259842519685,
          "duration": 0.136363750000001
        },
        {
          "name": "A#2",
          "midi": 46,
          "time": 43.63640000000002,
          "velocity": 0.9921259842519685,
          "duration": 0.272727500000002
        },
        {
          "name": "G#3",
          "midi": 56,
          "time": 43.63640000000002,
          "velocity": 0.9921259842519685,
          "duration": 0.272727500000002
        },
        {
          "name": "A#3",
          "midi": 58,
          "time": 43.63640000000002,
          "velocity": 0.9921259842519685,
          "duration": 0.272727500000002
        },
        {
          "name": "D4",
          "midi": 62,
          "time": 43.63640000000002,
          "velocity": 0.9921259842519685,
          "duration": 0.272727500000002
        },
        {
          "name": "G#3",
          "midi": 56,
          "time": 43.909127500000025,
          "velocity": 0.9921259842519685,
          "duration": 0.545455000000004
        },
        {
          "name": "A#3",
          "midi": 58,
          "time": 43.909127500000025,
          "velocity": 0.9921259842519685,
          "duration": 0.545455000000004
        },
        {
          "name": "D4",
          "midi": 62,
          "time": 43.909127500000025,
          "velocity": 0.9921259842519685,
          "duration": 0.545455000000004
        },
        {
          "name": "F2",
          "midi": 41,
          "time": 44.18185500000003,
          "velocity": 0.9921259842519685,
          "duration": 0.272727500000002
        },
        {
          "name": "F3",
          "midi": 53,
          "time": 44.18185500000003,
          "velocity": 0.9921259842519685,
          "duration": 0.272727500000002
        },
        {
          "name": "G#3",
          "midi": 56,
          "time": 44.45458250000003,
          "velocity": 0.9921259842519685,
          "duration": 0.272727500000002
        },
        {
          "name": "A#3",
          "midi": 58,
          "time": 44.45458250000003,
          "velocity": 0.9921259842519685,
          "duration": 0.272727500000002
        },
        {
          "name": "D4",
          "midi": 62,
          "time": 44.45458250000003,
          "velocity": 0.9921259842519685,
          "duration": 0.272727500000002
        },
        {
          "name": "A#2",
          "midi": 46,
          "time": 44.72731000000003,
          "velocity": 0.9921259842519685,
          "duration": 0.272727500000002
        },
        {
          "name": "G#3",
          "midi": 56,
          "time": 44.72731000000003,
          "velocity": 0.9921259842519685,
          "duration": 0.272727500000002
        },
        {
          "name": "A#3",
          "midi": 58,
          "time": 44.72731000000003,
          "velocity": 0.9921259842519685,
          "duration": 0.272727500000002
        },
        {
          "name": "D4",
          "midi": 62,
          "time": 44.72731000000003,
          "velocity": 0.9921259842519685,
          "duration": 0.272727500000002
        },
        {
          "name": "D3",
          "midi": 50,
          "time": 45.00003750000003,
          "velocity": 0.9921259842519685,
          "duration": 0.272727500000002
        },
        {
          "name": "G#3",
          "midi": 56,
          "time": 45.00003750000003,
          "velocity": 0.9921259842519685,
          "duration": 0.272727500000002
        },
        {
          "name": "A#3",
          "midi": 58,
          "time": 45.00003750000003,
          "velocity": 0.9921259842519685,
          "duration": 0.272727500000002
        },
        {
          "name": "F2",
          "midi": 41,
          "time": 45.272765000000035,
          "velocity": 0.9921259842519685,
          "duration": 0.272727500000002
        },
        {
          "name": "F3",
          "midi": 53,
          "time": 45.272765000000035,
          "velocity": 0.9921259842519685,
          "duration": 0.272727500000002
        },
        {
          "name": "D3",
          "midi": 50,
          "time": 45.272765000000035,
          "velocity": 0.9921259842519685,
          "duration": 0.272727500000002
        },
        {
          "name": "G#3",
          "midi": 56,
          "time": 45.272765000000035,
          "velocity": 0.9921259842519685,
          "duration": 0.272727500000002
        },
        {
          "name": "C4",
          "midi": 60,
          "time": 45.272765000000035,
          "velocity": 0.9921259842519685,
          "duration": 0.272727500000002
        },
        {
          "name": "D3",
          "midi": 50,
          "time": 45.54549250000004,
          "velocity": 0.9921259842519685,
          "duration": 0.272727500000002
        },
        {
          "name": "G#3",
          "midi": 56,
          "time": 45.54549250000004,
          "velocity": 0.9921259842519685,
          "duration": 0.272727500000002
        },
        {
          "name": "D4",
          "midi": 62,
          "time": 45.54549250000004,
          "velocity": 0.9921259842519685,
          "duration": 0.272727500000002
        },
        {
          "name": "D#4",
          "midi": 63,
          "time": 45.81822000000004,
          "velocity": 0.9921259842519685,
          "duration": 0.136363750000001
        },
        {
          "name": "A#3",
          "midi": 58,
          "time": 45.81822000000004,
          "velocity": 0.9921259842519685,
          "duration": 0.136363750000001
        },
        {
          "name": "G3",
          "midi": 55,
          "time": 45.81822000000004,
          "velocity": 0.9921259842519685,
          "duration": 0.136363750000001
        },
        {
          "name": "D#3",
          "midi": 51,
          "time": 45.81822000000004,
          "velocity": 0.9921259842519685,
          "duration": 0.136363750000001
        },
        {
          "name": "D#3",
          "midi": 51,
          "time": 45.95458375000004,
          "velocity": 0.9921259842519685,
          "duration": 0.136363750000001
        },
        {
          "name": "G3",
          "midi": 55,
          "time": 45.95458375000004,
          "velocity": 0.9921259842519685,
          "duration": 0.136363750000001
        },
        {
          "name": "A#3",
          "midi": 58,
          "time": 45.95458375000004,
          "velocity": 0.9921259842519685,
          "duration": 0.136363750000001
        },
        {
          "name": "D#4",
          "midi": 63,
          "time": 45.95458375000004,
          "velocity": 0.9921259842519685,
          "duration": 0.136363750000001
        },
        {
          "name": "D#3",
          "midi": 51,
          "time": 46.09094750000004,
          "velocity": 0.9921259842519685,
          "duration": 0.136363750000001
        },
        {
          "name": "G3",
          "midi": 55,
          "time": 46.09094750000004,
          "velocity": 0.9921259842519685,
          "duration": 0.136363750000001
        },
        {
          "name": "A#3",
          "midi": 58,
          "time": 46.09094750000004,
          "velocity": 0.9921259842519685,
          "duration": 0.136363750000001
        },
        {
          "name": "D#4",
          "midi": 63,
          "time": 46.09094750000004,
          "velocity": 0.9921259842519685,
          "duration": 0.136363750000001
        },
        {
          "name": "D#3",
          "midi": 51,
          "time": 46.22731125000004,
          "velocity": 0.9921259842519685,
          "duration": 0.136363750000001
        },
        {
          "name": "G3",
          "midi": 55,
          "time": 46.22731125000004,
          "velocity": 0.9921259842519685,
          "duration": 0.136363750000001
        },
        {
          "name": "A#3",
          "midi": 58,
          "time": 46.22731125000004,
          "velocity": 0.9921259842519685,
          "duration": 0.136363750000001
        },
        {
          "name": "D#4",
          "midi": 63,
          "time": 46.22731125000004,
          "velocity": 0.9921259842519685,
          "duration": 0.136363750000001
        },
        {
          "name": "D#3",
          "midi": 51,
          "time": 46.36367500000004,
          "velocity": 0.9921259842519685,
          "duration": 0.5454549999999969
        },
        {
          "name": "G3",
          "midi": 55,
          "time": 46.36367500000004,
          "velocity": 0.9921259842519685,
          "duration": 0.5454549999999969
        },
        {
          "name": "A#3",
          "midi": 58,
          "time": 46.36367500000004,
          "velocity": 0.9921259842519685,
          "duration": 0.5454549999999969
        },
        {
          "name": "D#4",
          "midi": 63,
          "time": 46.36367500000004,
          "velocity": 0.9921259842519685,
          "duration": 0.5454549999999969
        },
        {
          "name": "D#3",
          "midi": 51,
          "time": 46.90913000000004,
          "velocity": 0.9921259842519685,
          "duration": 0.136363750000001
        },
        {
          "name": "C4",
          "midi": 60,
          "time": 46.90913000000004,
          "velocity": 0.9921259842519685,
          "duration": 0.136363750000001
        },
        {
          "name": "G3",
          "midi": 55,
          "time": 46.90913000000004,
          "velocity": 0.9921259842519685,
          "duration": 0.136363750000001
        },
        {
          "name": "D#4",
          "midi": 63,
          "time": 46.90913000000004,
          "velocity": 0.9921259842519685,
          "duration": 0.136363750000001
        },
        {
          "name": "D#3",
          "midi": 51,
          "time": 47.04549375000004,
          "velocity": 0.9921259842519685,
          "duration": 0.136363750000001
        },
        {
          "name": "C4",
          "midi": 60,
          "time": 47.04549375000004,
          "velocity": 0.9921259842519685,
          "duration": 0.136363750000001
        },
        {
          "name": "G3",
          "midi": 55,
          "time": 47.04549375000004,
          "velocity": 0.9921259842519685,
          "duration": 0.136363750000001
        },
        {
          "name": "D#4",
          "midi": 63,
          "time": 47.04549375000004,
          "velocity": 0.9921259842519685,
          "duration": 0.136363750000001
        },
        {
          "name": "D#3",
          "midi": 51,
          "time": 47.18185750000004,
          "velocity": 0.9921259842519685,
          "duration": 0.136363750000001
        },
        {
          "name": "B3",
          "midi": 59,
          "time": 47.18185750000004,
          "velocity": 0.9921259842519685,
          "duration": 0.136363750000001
        },
        {
          "name": "G3",
          "midi": 55,
          "time": 47.18185750000004,
          "velocity": 0.9921259842519685,
          "duration": 0.136363750000001
        },
        {
          "name": "D#4",
          "midi": 63,
          "time": 47.18185750000004,
          "velocity": 0.9921259842519685,
          "duration": 0.136363750000001
        },
        {
          "name": "D#3",
          "midi": 51,
          "time": 47.31822125000004,
          "velocity": 0.9921259842519685,
          "duration": 0.136363750000001
        },
        {
          "name": "B3",
          "midi": 59,
          "time": 47.31822125000004,
          "velocity": 0.9921259842519685,
          "duration": 0.136363750000001
        },
        {
          "name": "G3",
          "midi": 55,
          "time": 47.31822125000004,
          "velocity": 0.9921259842519685,
          "duration": 0.136363750000001
        },
        {
          "name": "D#4",
          "midi": 63,
          "time": 47.31822125000004,
          "velocity": 0.9921259842519685,
          "duration": 0.136363750000001
        },
        {
          "name": "D#3",
          "midi": 51,
          "time": 47.454585000000044,
          "velocity": 0.9921259842519685,
          "duration": 0.5454549999999969
        },
        {
          "name": "G3",
          "midi": 55,
          "time": 47.454585000000044,
          "velocity": 0.9921259842519685,
          "duration": 0.5454549999999969
        },
        {
          "name": "A#3",
          "midi": 58,
          "time": 47.454585000000044,
          "velocity": 0.9921259842519685,
          "duration": 0.5454549999999969
        },
        {
          "name": "D#4",
          "midi": 63,
          "time": 47.454585000000044,
          "velocity": 0.9921259842519685,
          "duration": 0.5454549999999969
        },
        {
          "name": "D#3",
          "midi": 51,
          "time": 48.00004000000004,
          "velocity": 0.9921259842519685,
          "duration": 0.272727500000002
        },
        {
          "name": "G3",
          "midi": 55,
          "time": 48.00004000000004,
          "velocity": 0.9921259842519685,
          "duration": 0.272727500000002
        },
        {
          "name": "A#3",
          "midi": 58,
          "time": 48.00004000000004,
          "velocity": 0.9921259842519685,
          "duration": 0.272727500000002
        },
        {
          "name": "D#4",
          "midi": 63,
          "time": 48.00004000000004,
          "velocity": 0.9921259842519685,
          "duration": 0.272727500000002
        },
        {
          "name": "D#3",
          "midi": 51,
          "time": 48.27276750000004,
          "velocity": 0.9921259842519685,
          "duration": 0.136363750000001
        },
        {
          "name": "G3",
          "midi": 55,
          "time": 48.27276750000004,
          "velocity": 0.9921259842519685,
          "duration": 0.136363750000001
        },
        {
          "name": "A#3",
          "midi": 58,
          "time": 48.27276750000004,
          "velocity": 0.9921259842519685,
          "duration": 0.136363750000001
        },
        {
          "name": "D#4",
          "midi": 63,
          "time": 48.27276750000004,
          "velocity": 0.9921259842519685,
          "duration": 0.136363750000001
        },
        {
          "name": "D#3",
          "midi": 51,
          "time": 48.409131250000044,
          "velocity": 0.9921259842519685,
          "duration": 0.136363750000001
        },
        {
          "name": "G3",
          "midi": 55,
          "time": 48.409131250000044,
          "velocity": 0.9921259842519685,
          "duration": 0.136363750000001
        },
        {
          "name": "A#3",
          "midi": 58,
          "time": 48.409131250000044,
          "velocity": 0.9921259842519685,
          "duration": 0.136363750000001
        },
        {
          "name": "D#4",
          "midi": 63,
          "time": 48.409131250000044,
          "velocity": 0.9921259842519685,
          "duration": 0.136363750000001
        },
        {
          "name": "D#3",
          "midi": 51,
          "time": 48.545495000000045,
          "velocity": 0.9921259842519685,
          "duration": 0.272727500000002
        },
        {
          "name": "G3",
          "midi": 55,
          "time": 48.545495000000045,
          "velocity": 0.9921259842519685,
          "duration": 0.272727500000002
        },
        {
          "name": "A#3",
          "midi": 58,
          "time": 48.545495000000045,
          "velocity": 0.9921259842519685,
          "duration": 0.272727500000002
        },
        {
          "name": "D#4",
          "midi": 63,
          "time": 48.545495000000045,
          "velocity": 0.9921259842519685,
          "duration": 0.272727500000002
        },
        {
          "name": "D#3",
          "midi": 51,
          "time": 48.81822250000005,
          "velocity": 0.9921259842519685,
          "duration": 0.272727500000002
        },
        {
          "name": "G3",
          "midi": 55,
          "time": 48.81822250000005,
          "velocity": 0.9921259842519685,
          "duration": 0.272727500000002
        },
        {
          "name": "A#3",
          "midi": 58,
          "time": 48.81822250000005,
          "velocity": 0.9921259842519685,
          "duration": 0.272727500000002
        },
        {
          "name": "F4",
          "midi": 65,
          "time": 48.81822250000005,
          "velocity": 0.9921259842519685,
          "duration": 0.272727500000002
        },
        {
          "name": "D#3",
          "midi": 51,
          "time": 49.09095000000005,
          "velocity": 0.9921259842519685,
          "duration": 0.272727500000002
        },
        {
          "name": "G3",
          "midi": 55,
          "time": 49.09095000000005,
          "velocity": 0.9921259842519685,
          "duration": 0.136363750000001
        },
        {
          "name": "A#3",
          "midi": 58,
          "time": 49.09095000000005,
          "velocity": 0.9921259842519685,
          "duration": 0.136363750000001
        },
        {
          "name": "G4",
          "midi": 67,
          "time": 49.09095000000005,
          "velocity": 0.9921259842519685,
          "duration": 0.136363750000001
        },
        {
          "name": "G3",
          "midi": 55,
          "time": 49.22731375000005,
          "velocity": 0.9921259842519685,
          "duration": 0.136363750000001
        },
        {
          "name": "A#3",
          "midi": 58,
          "time": 49.22731375000005,
          "velocity": 0.9921259842519685,
          "duration": 0.136363750000001
        },
        {
          "name": "G4",
          "midi": 67,
          "time": 49.22731375000005,
          "velocity": 0.9921259842519685,
          "duration": 0.136363750000001
        },
        {
          "name": "D#3",
          "midi": 51,
          "time": 49.36367750000005,
          "velocity": 0.9921259842519685,
          "duration": 0.272727500000002
        },
        {
          "name": "G3",
          "midi": 55,
          "time": 49.36367750000005,
          "velocity": 0.9921259842519685,
          "duration": 0.136363750000001
        },
        {
          "name": "A#3",
          "midi": 58,
          "time": 49.36367750000005,
          "velocity": 0.9921259842519685,
          "duration": 0.136363750000001
        },
        {
          "name": "F4",
          "midi": 65,
          "time": 49.36367750000005,
          "velocity": 0.9921259842519685,
          "duration": 0.136363750000001
        },
        {
          "name": "G3",
          "midi": 55,
          "time": 49.50004125000005,
          "velocity": 0.9921259842519685,
          "duration": 0.136363750000001
        },
        {
          "name": "A#3",
          "midi": 58,
          "time": 49.50004125000005,
          "velocity": 0.9921259842519685,
          "duration": 0.136363750000001
        },
        {
          "name": "F4",
          "midi": 65,
          "time": 49.50004125000005,
          "velocity": 0.9921259842519685,
          "duration": 0.136363750000001
        },
        {
          "name": "D#3",
          "midi": 51,
          "time": 49.63640500000005,
          "velocity": 0.9921259842519685,
          "duration": 0.545455000000004
        },
        {
          "name": "G3",
          "midi": 55,
          "time": 49.63640500000005,
          "velocity": 0.9921259842519685,
          "duration": 0.136363750000001
        },
        {
          "name": "A#3",
          "midi": 58,
          "time": 49.63640500000005,
          "velocity": 0.9921259842519685,
          "duration": 0.136363750000001
        },
        {
          "name": "D#4",
          "midi": 63,
          "time": 49.63640500000005,
          "velocity": 0.9921259842519685,
          "duration": 0.136363750000001
        },
        {
          "name": "A#3",
          "midi": 58,
          "time": 49.772768750000054,
          "velocity": 0.9921259842519685,
          "duration": 0.136363750000001
        },
        {
          "name": "C4",
          "midi": 60,
          "time": 49.909132500000055,
          "velocity": 0.9921259842519685,
          "duration": 0.136363750000001
        },
        {
          "name": "D4",
          "midi": 62,
          "time": 50.045496250000056,
          "velocity": 0.9921259842519685,
          "duration": 0.136363750000001
        },
        {
          "name": "D#3",
          "midi": 51,
          "time": 50.18186000000006,
          "velocity": 0.9921259842519685,
          "duration": 0.545455000000004
        },
        {
          "name": "G3",
          "midi": 55,
          "time": 50.18186000000006,
          "velocity": 0.9921259842519685,
          "duration": 0.272727500000002
        },
        {
          "name": "A#3",
          "midi": 58,
          "time": 50.18186000000006,
          "velocity": 0.9921259842519685,
          "duration": 0.272727500000002
        },
        {
          "name": "D#4",
          "midi": 63,
          "time": 50.18186000000006,
          "velocity": 0.9921259842519685,
          "duration": 0.272727500000002
        },
        {
          "name": "G3",
          "midi": 55,
          "time": 50.45458750000006,
          "velocity": 0.9921259842519685,
          "duration": 0.545455000000004
        },
        {
          "name": "A#3",
          "midi": 58,
          "time": 50.45458750000006,
          "velocity": 0.9921259842519685,
          "duration": 0.545455000000004
        },
        {
          "name": "D#4",
          "midi": 63,
          "time": 50.45458750000006,
          "velocity": 0.9921259842519685,
          "duration": 0.545455000000004
        },
        {
          "name": "D3",
          "midi": 50,
          "time": 50.72731500000006,
          "velocity": 0.9921259842519685,
          "duration": 0.545455000000004
        },
        {
          "name": "G3",
          "midi": 55,
          "time": 51.00004250000006,
          "velocity": 0.9921259842519685,
          "duration": 0.272727500000002
        },
        {
          "name": "A#3",
          "midi": 58,
          "time": 51.00004250000006,
          "velocity": 0.9921259842519685,
          "duration": 0.272727500000002
        },
        {
          "name": "D4",
          "midi": 62,
          "time": 51.00004250000006,
          "velocity": 0.9921259842519685,
          "duration": 0.272727500000002
        },
        {
          "name": "D#4",
          "midi": 63,
          "time": 51.272770000000065,
          "velocity": 0.9921259842519685,
          "duration": 0.272727500000002
        },
        {
          "name": "A#3",
          "midi": 58,
          "time": 51.272770000000065,
          "velocity": 0.9921259842519685,
          "duration": 0.272727500000002
        },
        {
          "name": "G3",
          "midi": 55,
          "time": 51.272770000000065,
          "velocity": 0.9921259842519685,
          "duration": 0.272727500000002
        },
        {
          "name": "C3",
          "midi": 48,
          "time": 51.272770000000065,
          "velocity": 0.9921259842519685,
          "duration": 0.545455000000004
        },
        {
          "name": "D4",
          "midi": 62,
          "time": 51.54549750000007,
          "velocity": 0.9921259842519685,
          "duration": 0.272727500000002
        },
        {
          "name": "A#3",
          "midi": 58,
          "time": 51.54549750000007,
          "velocity": 0.9921259842519685,
          "duration": 0.272727500000002
        },
        {
          "name": "G3",
          "midi": 55,
          "time": 51.54549750000007,
          "velocity": 0.9921259842519685,
          "duration": 0.272727500000002
        },
        {
          "name": "A#2",
          "midi": 46,
          "time": 51.81822500000007,
          "velocity": 0.9921259842519685,
          "duration": 0.545455000000004
        },
        {
          "name": "G3",
          "midi": 55,
          "time": 51.81822500000007,
          "velocity": 0.9921259842519685,
          "duration": 0.272727500000002
        },
        {
          "name": "A#3",
          "midi": 58,
          "time": 51.81822500000007,
          "velocity": 0.9921259842519685,
          "duration": 0.272727500000002
        },
        {
          "name": "D#4",
          "midi": 63,
          "time": 51.81822500000007,
          "velocity": 0.9921259842519685,
          "duration": 0.272727500000002
        },
        {
          "name": "G3",
          "midi": 55,
          "time": 52.09095250000007,
          "velocity": 0.9921259842519685,
          "duration": 0.272727500000002
        },
        {
          "name": "A#3",
          "midi": 58,
          "time": 52.09095250000007,
          "velocity": 0.9921259842519685,
          "duration": 0.272727500000002
        },
        {
          "name": "E4",
          "midi": 64,
          "time": 52.09095250000007,
          "velocity": 0.9921259842519685,
          "duration": 0.272727500000002
        },
        {
          "name": "F2",
          "midi": 41,
          "time": 52.36368000000007,
          "velocity": 0.9921259842519685,
          "duration": 0.272727500000002
        },
        {
          "name": "F3",
          "midi": 53,
          "time": 52.36368000000007,
          "velocity": 0.9921259842519685,
          "duration": 0.272727500000002
        },
        {
          "name": "A3",
          "midi": 57,
          "time": 52.636407500000075,
          "velocity": 0.9921259842519685,
          "duration": 0.545455000000004
        },
        {
          "name": "F4",
          "midi": 65,
          "time": 52.636407500000075,
          "velocity": 0.9921259842519685,
          "duration": 0.545455000000004
        },
        {
          "name": "F3",
          "midi": 53,
          "time": 52.90913500000008,
          "velocity": 0.9921259842519685,
          "duration": 0.272727500000002
        },
        {
          "name": "F3",
          "midi": 53,
          "time": 52.90913500000008,
          "velocity": 0.9921259842519685,
          "duration": 0.272727500000002
        },
        {
          "name": "D#4",
          "midi": 63,
          "time": 53.18186250000008,
          "velocity": 0.9921259842519685,
          "duration": 0.272727500000002
        },
        {
          "name": "A3",
          "midi": 57,
          "time": 53.18186250000008,
          "velocity": 0.9921259842519685,
          "duration": 0.272727500000002
        },
        {
          "name": "C4",
          "midi": 60,
          "time": 53.45459000000008,
          "velocity": 0.9921259842519685,
          "duration": 0.818182500000006
        },
        {
          "name": "A3",
          "midi": 57,
          "time": 53.45459000000008,
          "velocity": 0.9921259842519685,
          "duration": 0.818182500000006
        },
        {
          "name": "F3",
          "midi": 53,
          "time": 53.45459000000008,
          "velocity": 0.9921259842519685,
          "duration": 0.818182500000006
        },
        {
          "name": "C3",
          "midi": 48,
          "time": 53.45459000000008,
          "velocity": 0.9921259842519685,
          "duration": 0.272727500000002
        },
        {
          "name": "C3",
          "midi": 48,
          "time": 53.45459000000008,
          "velocity": 0.9921259842519685,
          "duration": 0.272727500000002
        },
        {
          "name": "D#3",
          "midi": 51,
          "time": 53.72731750000008,
          "velocity": 0.9921259842519685,
          "duration": 0.136363750000001
        },
        {
          "name": "D3",
          "midi": 50,
          "time": 53.863681250000084,
          "velocity": 0.9921259842519685,
          "duration": 0.136363750000001
        },
        {
          "name": "C3",
          "midi": 48,
          "time": 54.000045000000085,
          "velocity": 0.9921259842519685,
          "duration": 0.136363750000001
        },
        {
          "name": "D3",
          "midi": 50,
          "time": 54.000045000000085,
          "velocity": 0.9921259842519685,
          "duration": 0.272727500000002
        },
        {
          "name": "A#2",
          "midi": 46,
          "time": 54.136408750000086,
          "velocity": 0.9921259842519685,
          "duration": 0.136363750000001
        },
        {
          "name": "A2",
          "midi": 45,
          "time": 54.27277250000009,
          "velocity": 0.9921259842519685,
          "duration": 0.136363750000001
        },
        {
          "name": "C3",
          "midi": 48,
          "time": 54.27277250000009,
          "velocity": 0.9921259842519685,
          "duration": 0.272727500000002
        },
        {
          "name": "G2",
          "midi": 43,
          "time": 54.40913625000009,
          "velocity": 0.9921259842519685,
          "duration": 0.136363750000001
        },
        {
          "name": "A#2",
          "midi": 46,
          "time": 54.54550000000009,
          "velocity": 0.9921259842519685,
          "duration": 0.272727500000002
        },
        {
          "name": "A#3",
          "midi": 58,
          "time": 54.54550000000009,
          "velocity": 0.9921259842519685,
          "duration": 0.272727500000002
        },
        {
          "name": "G#3",
          "midi": 56,
          "time": 54.54550000000009,
          "velocity": 0.9921259842519685,
          "duration": 0.272727500000002
        },
        {
          "name": "D4",
          "midi": 62,
          "time": 54.54550000000009,
          "velocity": 0.9921259842519685,
          "duration": 0.272727500000002
        },
        {
          "name": "A#3",
          "midi": 58,
          "time": 54.81822750000009,
          "velocity": 0.9921259842519685,
          "duration": 0.545455000000004
        },
        {
          "name": "G#3",
          "midi": 56,
          "time": 54.81822750000009,
          "velocity": 0.9921259842519685,
          "duration": 0.545455000000004
        },
        {
          "name": "D4",
          "midi": 62,
          "time": 54.81822750000009,
          "velocity": 0.9921259842519685,
          "duration": 0.545455000000004
        },
        {
          "name": "F2",
          "midi": 41,
          "time": 55.09095500000009,
          "velocity": 0.9921259842519685,
          "duration": 0.272727500000002
        },
        {
          "name": "F3",
          "midi": 53,
          "time": 55.09095500000009,
          "velocity": 0.9921259842519685,
          "duration": 0.272727500000002
        },
        {
          "name": "A#3",
          "midi": 58,
          "time": 55.363682500000095,
          "velocity": 0.9921259842519685,
          "duration": 0.136363750000001
        },
        {
          "name": "G#3",
          "midi": 56,
          "time": 55.363682500000095,
          "velocity": 0.9921259842519685,
          "duration": 0.136363750000001
        },
        {
          "name": "D4",
          "midi": 62,
          "time": 55.363682500000095,
          "velocity": 0.9921259842519685,
          "duration": 0.136363750000001
        },
        {
          "name": "G#3",
          "midi": 56,
          "time": 55.500046250000096,
          "velocity": 0.9921259842519685,
          "duration": 0.136363750000001
        },
        {
          "name": "A#3",
          "midi": 58,
          "time": 55.500046250000096,
          "velocity": 0.9921259842519685,
          "duration": 0.136363750000001
        },
        {
          "name": "D4",
          "midi": 62,
          "time": 55.500046250000096,
          "velocity": 0.9921259842519685,
          "duration": 0.136363750000001
        },
        {
          "name": "A#2",
          "midi": 46,
          "time": 55.6364100000001,
          "velocity": 0.9921259842519685,
          "duration": 0.272727500000002
        },
        {
          "name": "G#3",
          "midi": 56,
          "time": 55.6364100000001,
          "velocity": 0.9921259842519685,
          "duration": 0.272727500000002
        },
        {
          "name": "A#3",
          "midi": 58,
          "time": 55.6364100000001,
          "velocity": 0.9921259842519685,
          "duration": 0.272727500000002
        },
        {
          "name": "D4",
          "midi": 62,
          "time": 55.6364100000001,
          "velocity": 0.9921259842519685,
          "duration": 0.272727500000002
        },
        {
          "name": "D3",
          "midi": 50,
          "time": 55.9091375000001,
          "velocity": 0.9921259842519685,
          "duration": 0.272727500000002
        },
        {
          "name": "G#3",
          "midi": 56,
          "time": 55.9091375000001,
          "velocity": 0.9921259842519685,
          "duration": 0.272727500000002
        },
        {
          "name": "A#3",
          "midi": 58,
          "time": 55.9091375000001,
          "velocity": 0.9921259842519685,
          "duration": 0.272727500000002
        },
        {
          "name": "F2",
          "midi": 41,
          "time": 56.1818650000001,
          "velocity": 0.9921259842519685,
          "duration": 0.272727500000002
        },
        {
          "name": "F3",
          "midi": 53,
          "time": 56.1818650000001,
          "velocity": 0.9921259842519685,
          "duration": 0.272727500000002
        },
        {
          "name": "G#3",
          "midi": 56,
          "time": 56.1818650000001,
          "velocity": 0.9921259842519685,
          "duration": 0.272727500000002
        },
        {
          "name": "D3",
          "midi": 50,
          "time": 56.1818650000001,
          "velocity": 0.9921259842519685,
          "duration": 0.272727500000002
        },
        {
          "name": "C4",
          "midi": 60,
          "time": 56.1818650000001,
          "velocity": 0.9921259842519685,
          "duration": 0.272727500000002
        },
        {
          "name": "G#3",
          "midi": 56,
          "time": 56.4545925000001,
          "velocity": 0.9921259842519685,
          "duration": 0.272727500000002
        },
        {
          "name": "D3",
          "midi": 50,
          "time": 56.4545925000001,
          "velocity": 0.9921259842519685,
          "duration": 0.272727500000002
        },
        {
          "name": "D4",
          "midi": 62,
          "time": 56.4545925000001,
          "velocity": 0.9921259842519685,
          "duration": 0.272727500000002
        },
        {
          "name": "D#4",
          "midi": 63,
          "time": 56.727320000000105,
          "velocity": 0.9921259842519685,
          "duration": 0.545455000000004
        },
        {
          "name": "D#3",
          "midi": 51,
          "time": 56.727320000000105,
          "velocity": 0.9921259842519685,
          "duration": 0.545455000000004
        },
        {
          "name": "G3",
          "midi": 55,
          "time": 57.00004750000011,
          "velocity": 0.9921259842519685,
          "duration": 0.272727500000002
        },
        {
          "name": "A#3",
          "midi": 58,
          "time": 57.00004750000011,
          "velocity": 0.9921259842519685,
          "duration": 0.272727500000002
        },
        {
          "name": "C3",
          "midi": 48,
          "time": 57.27277500000011,
          "velocity": 0.9921259842519685,
          "duration": 0.545455000000004
        },
        {
          "name": "C4",
          "midi": 60,
          "time": 57.27277500000011,
          "velocity": 0.9921259842519685,
          "duration": 0.545455000000004
        },
        {
          "name": "D#3",
          "midi": 51,
          "time": 57.27277500000011,
          "velocity": 0.9921259842519685,
          "duration": 0.272727500000002
        },
        {
          "name": "D#3",
          "midi": 51,
          "time": 57.54550250000011,
          "velocity": 0.9921259842519685,
          "duration": 0.272727500000002
        },
        {
          "name": "G3",
          "midi": 55,
          "time": 57.54550250000011,
          "velocity": 0.9921259842519685,
          "duration": 0.272727500000002
        },
        {
          "name": "G3",
          "midi": 55,
          "time": 57.81823000000011,
          "velocity": 0.9921259842519685,
          "duration": 0.545455000000004
        },
        {
          "name": "D#3",
          "midi": 51,
          "time": 57.81823000000011,
          "velocity": 0.9921259842519685,
          "duration": 0.545455000000004
        },
        {
          "name": "A#3",
          "midi": 58,
          "time": 57.81823000000011,
          "velocity": 0.9921259842519685,
          "duration": 0.545455000000004
        },
        {
          "name": "A#2",
          "midi": 46,
          "time": 58.090957500000115,
          "velocity": 0.9921259842519685,
          "duration": 0.272727500000002
        },
        {
          "name": "C4",
          "midi": 60,
          "time": 58.36368500000012,
          "velocity": 0.9921259842519685,
          "duration": 0.272727500000002
        },
        {
          "name": "C3",
          "midi": 48,
          "time": 58.36368500000012,
          "velocity": 0.9921259842519685,
          "duration": 0.272727500000002
        },
        {
          "name": "D4",
          "midi": 62,
          "time": 58.63641250000012,
          "velocity": 0.9921259842519685,
          "duration": 0.272727500000002
        },
        {
          "name": "D3",
          "midi": 50,
          "time": 58.63641250000012,
          "velocity": 0.9921259842519685,
          "duration": 0.272727500000002
        },
        {
          "name": "D#3",
          "midi": 51,
          "time": 58.90914000000012,
          "velocity": 0.9921259842519685,
          "duration": 0.272727500000002
        },
        {
          "name": "G3",
          "midi": 55,
          "time": 58.90914000000012,
          "velocity": 0.9921259842519685,
          "duration": 0.272727500000002
        },
        {
          "name": "A#3",
          "midi": 58,
          "time": 58.90914000000012,
          "velocity": 0.9921259842519685,
          "duration": 0.272727500000002
        },
        {
          "name": "D#4",
          "midi": 63,
          "time": 58.90914000000012,
          "velocity": 0.9921259842519685,
          "duration": 0.272727500000002
        },
        {
          "name": "G3",
          "midi": 55,
          "time": 59.18186750000012,
          "velocity": 0.9921259842519685,
          "duration": 0.545455000000004
        },
        {
          "name": "A#3",
          "midi": 58,
          "time": 59.18186750000012,
          "velocity": 0.9921259842519685,
          "duration": 0.545455000000004
        },
        {
          "name": "D#4",
          "midi": 63,
          "time": 59.18186750000012,
          "velocity": 0.9921259842519685,
          "duration": 0.545455000000004
        },
        {
          "name": "A#2",
          "midi": 46,
          "time": 59.454595000000126,
          "velocity": 0.9921259842519685,
          "duration": 0.272727500000002
        },
        {
          "name": "D4",
          "midi": 62,
          "time": 59.72732250000013,
          "velocity": 0.9921259842519685,
          "duration": 0.272727500000002
        },
        {
          "name": "A#3",
          "midi": 58,
          "time": 59.72732250000013,
          "velocity": 0.9921259842519685,
          "duration": 0.272727500000002
        },
        {
          "name": "G3",
          "midi": 55,
          "time": 59.72732250000013,
          "velocity": 0.9921259842519685,
          "duration": 0.272727500000002
        },
        {
          "name": "D#4",
          "midi": 63,
          "time": 60.00005000000013,
          "velocity": 0.9921259842519685,
          "duration": 0.272727500000002
        },
        {
          "name": "A#3",
          "midi": 58,
          "time": 60.00005000000013,
          "velocity": 0.9921259842519685,
          "duration": 0.272727500000002
        },
        {
          "name": "G3",
          "midi": 55,
          "time": 60.00005000000013,
          "velocity": 0.9921259842519685,
          "duration": 0.272727500000002
        },
        {
          "name": "D#3",
          "midi": 51,
          "time": 60.00005000000013,
          "velocity": 0.9921259842519685,
          "duration": 0.272727500000002
        },
        {
          "name": "D4",
          "midi": 62,
          "time": 60.27277750000013,
          "velocity": 0.9921259842519685,
          "duration": 0.272727500000002
        },
        {
          "name": "A#3",
          "midi": 58,
          "time": 60.27277750000013,
          "velocity": 0.9921259842519685,
          "duration": 0.272727500000002
        },
        {
          "name": "G3",
          "midi": 55,
          "time": 60.27277750000013,
          "velocity": 0.9921259842519685,
          "duration": 0.272727500000002
        },
        {
          "name": "A#2",
          "midi": 46,
          "time": 60.545505000000134,
          "velocity": 0.9921259842519685,
          "duration": 0.272727500000002
        },
        {
          "name": "G3",
          "midi": 55,
          "time": 60.545505000000134,
          "velocity": 0.9921259842519685,
          "duration": 0.272727500000002
        },
        {
          "name": "A#3",
          "midi": 58,
          "time": 60.545505000000134,
          "velocity": 0.9921259842519685,
          "duration": 0.272727500000002
        },
        {
          "name": "D#4",
          "midi": 63,
          "time": 60.545505000000134,
          "velocity": 0.9921259842519685,
          "duration": 0.272727500000002
        },
        {
          "name": "E4",
          "midi": 64,
          "time": 60.818232500000136,
          "velocity": 0.9921259842519685,
          "duration": 0.272727500000002
        },
        {
          "name": "A#3",
          "midi": 58,
          "time": 60.818232500000136,
          "velocity": 0.9921259842519685,
          "duration": 0.272727500000002
        },
        {
          "name": "G3",
          "midi": 55,
          "time": 60.818232500000136,
          "velocity": 0.9921259842519685,
          "duration": 0.272727500000002
        },
        {
          "name": "C3",
          "midi": 48,
          "time": 61.09096000000014,
          "velocity": 0.9921259842519685,
          "duration": 0.272727500000002
        },
        {
          "name": "A3",
          "midi": 57,
          "time": 61.36368750000014,
          "velocity": 0.9921259842519685,
          "duration": 0.545455000000004
        },
        {
          "name": "F4",
          "midi": 65,
          "time": 61.36368750000014,
          "velocity": 0.9921259842519685,
          "duration": 0.545455000000004
        },
        {
          "name": "F3",
          "midi": 53,
          "time": 61.63641500000014,
          "velocity": 0.9921259842519685,
          "duration": 0.272727500000002
        },
        {
          "name": "F2",
          "midi": 41,
          "time": 61.63641500000014,
          "velocity": 0.9921259842519685,
          "duration": 0.272727500000002
        },
        {
          "name": "D#4",
          "midi": 63,
          "time": 61.909142500000144,
          "velocity": 0.9921259842519685,
          "duration": 0.272727500000002
        },
        {
          "name": "A3",
          "midi": 57,
          "time": 61.909142500000144,
          "velocity": 0.9921259842519685,
          "duration": 0.272727500000002
        },
        {
          "name": "C4",
          "midi": 60,
          "time": 62.181870000000146,
          "velocity": 0.9921259842519685,
          "duration": 0.818182500000006
        },
        {
          "name": "A3",
          "midi": 57,
          "time": 62.181870000000146,
          "velocity": 0.9921259842519685,
          "duration": 0.818182500000006
        },
        {
          "name": "F3",
          "midi": 53,
          "time": 62.181870000000146,
          "velocity": 0.9921259842519685,
          "duration": 0.818182500000006
        },
        {
          "name": "C3",
          "midi": 48,
          "time": 62.181870000000146,
          "velocity": 0.9921259842519685,
          "duration": 0.272727500000002
        },
        {
          "name": "C3",
          "midi": 48,
          "time": 62.181870000000146,
          "velocity": 0.9921259842519685,
          "duration": 0.272727500000002
        },
        {
          "name": "C3",
          "midi": 48,
          "time": 62.45459750000015,
          "velocity": 0.9921259842519685,
          "duration": 0.272727500000002
        },
        {
          "name": "D#3",
          "midi": 51,
          "time": 62.45459750000015,
          "velocity": 0.9921259842519685,
          "duration": 0.136363750000001
        },
        {
          "name": "D3",
          "midi": 50,
          "time": 62.59096125000015,
          "velocity": 0.9921259842519685,
          "duration": 0.136363750000001
        },
        {
          "name": "D3",
          "midi": 50,
          "time": 62.72732500000015,
          "velocity": 0.9921259842519685,
          "duration": 0.272727500000002
        },
        {
          "name": "C3",
          "midi": 48,
          "time": 62.72732500000015,
          "velocity": 0.9921259842519685,
          "duration": 0.136363750000001
        },
        {
          "name": "A#2",
          "midi": 46,
          "time": 62.86368875000015,
          "velocity": 0.9921259842519685,
          "duration": 0.136363750000001
        },
        {
          "name": "A2",
          "midi": 45,
          "time": 63.00005250000015,
          "velocity": 0.9921259842519685,
          "duration": 0.136363750000001
        },
        {
          "name": "D#3",
          "midi": 51,
          "time": 63.00005250000015,
          "velocity": 0.9921259842519685,
          "duration": 0.272727500000002
        },
        {
          "name": "G2",
          "midi": 43,
          "time": 63.13641625000015,
          "velocity": 0.9921259842519685,
          "duration": 0.136363750000001
        },
        {
          "name": "F3",
          "midi": 53,
          "time": 63.272780000000154,
          "velocity": 0.9921259842519685,
          "duration": 0.272727500000002
        },
        {
          "name": "F3",
          "midi": 53,
          "time": 63.272780000000154,
          "velocity": 0.9921259842519685,
          "duration": 0.272727500000002
        },
        {
          "name": "A3",
          "midi": 57,
          "time": 63.272780000000154,
          "velocity": 0.9921259842519685,
          "duration": 0.272727500000002
        },
        {
          "name": "C4",
          "midi": 60,
          "time": 63.272780000000154,
          "velocity": 0.9921259842519685,
          "duration": 0.272727500000002
        },
        {
          "name": "F4",
          "midi": 65,
          "time": 63.272780000000154,
          "velocity": 0.9921259842519685,
          "duration": 0.272727500000002
        },
        {
          "name": "A3",
          "midi": 57,
          "time": 63.545507500000156,
          "velocity": 0.9921259842519685,
          "duration": 0.545455000000004
        },
        {
          "name": "C4",
          "midi": 60,
          "time": 63.545507500000156,
          "velocity": 0.9921259842519685,
          "duration": 0.545455000000004
        },
        {
          "name": "F4",
          "midi": 65,
          "time": 63.545507500000156,
          "velocity": 0.9921259842519685,
          "duration": 0.545455000000004
        },
        {
          "name": "C3",
          "midi": 48,
          "time": 63.81823500000016,
          "velocity": 0.9921259842519685,
          "duration": 0.272727500000002
        },
        {
          "name": "F4",
          "midi": 65,
          "time": 64.09096250000016,
          "velocity": 0.9921259842519685,
          "duration": 0.272727500000002
        },
        {
          "name": "C4",
          "midi": 60,
          "time": 64.09096250000016,
          "velocity": 0.9921259842519685,
          "duration": 0.272727500000002
        },
        {
          "name": "A3",
          "midi": 57,
          "time": 64.09096250000016,
          "velocity": 0.9921259842519685,
          "duration": 0.272727500000002
        },
        {
          "name": "F4",
          "midi": 65,
          "time": 64.36369000000016,
          "velocity": 0.9921259842519685,
          "duration": 0.272727500000002
        },
        {
          "name": "C4",
          "midi": 60,
          "time": 64.36369000000016,
          "velocity": 0.9921259842519685,
          "duration": 0.272727500000002
        },
        {
          "name": "A3",
          "midi": 57,
          "time": 64.36369000000016,
          "velocity": 0.9921259842519685,
          "duration": 0.272727500000002
        },
        {
          "name": "F3",
          "midi": 53,
          "time": 64.36369000000016,
          "velocity": 0.9921259842519685,
          "duration": 0.272727500000002
        },
        {
          "name": "F3",
          "midi": 53,
          "time": 64.36369000000016,
          "velocity": 0.9921259842519685,
          "duration": 0.272727500000002
        },
        {
          "name": "C4",
          "midi": 60,
          "time": 64.63641750000016,
          "velocity": 0.9921259842519685,
          "duration": 0.272727500000002
        },
        {
          "name": "D#3",
          "midi": 51,
          "time": 64.63641750000016,
          "velocity": 0.9921259842519685,
          "duration": 0.272727500000002
        },
        {
          "name": "D4",
          "midi": 62,
          "time": 64.90914500000017,
          "velocity": 0.9921259842519685,
          "duration": 0.272727500000002
        },
        {
          "name": "C3",
          "midi": 48,
          "time": 64.90914500000017,
          "velocity": 0.9921259842519685,
          "duration": 0.272727500000002
        },
        {
          "name": "D3",
          "midi": 50,
          "time": 64.90914500000017,
          "velocity": 0.9921259842519685,
          "duration": 0.272727500000002
        },
        {
          "name": "D#4",
          "midi": 63,
          "time": 65.18187250000017,
          "velocity": 0.9921259842519685,
          "duration": 0.272727500000002
        },
        {
          "name": "C3",
          "midi": 48,
          "time": 65.18187250000017,
          "velocity": 0.9921259842519685,
          "duration": 0.272727500000002
        },
        {
          "name": "F4",
          "midi": 65,
          "time": 65.45460000000017,
          "velocity": 0.9921259842519685,
          "duration": 0.545455000000004
        },
        {
          "name": "C4",
          "midi": 60,
          "time": 65.45460000000017,
          "velocity": 0.9921259842519685,
          "duration": 0.545455000000004
        },
        {
          "name": "A3",
          "midi": 57,
          "time": 65.45460000000017,
          "velocity": 0.9921259842519685,
          "duration": 0.545455000000004
        },
        {
          "name": "F3",
          "midi": 53,
          "time": 65.45460000000017,
          "velocity": 0.9921259842519685,
          "duration": 0.272727500000002
        },
        {
          "name": "F3",
          "midi": 53,
          "time": 65.45460000000017,
          "velocity": 0.9921259842519685,
          "duration": 0.272727500000002
        },
        {
          "name": "A#2",
          "midi": 46,
          "time": 65.45460000000017,
          "velocity": 0.9921259842519685,
          "duration": 0.272727500000002
        },
        {
          "name": "C3",
          "midi": 48,
          "time": 65.72732750000017,
          "velocity": 0.9921259842519685,
          "duration": 0.272727500000002
        },
        {
          "name": "A#2",
          "midi": 46,
          "time": 66.00005500000017,
          "velocity": 0.9921259842519685,
          "duration": 0.272727500000002
        },
        {
          "name": "G#3",
          "midi": 56,
          "time": 66.00005500000017,
          "velocity": 0.9921259842519685,
          "duration": 0.545455000000004
        },
        {
          "name": "D3",
          "midi": 50,
          "time": 66.00005500000017,
          "velocity": 0.9921259842519685,
          "duration": 0.272727500000002
        },
        {
          "name": "D4",
          "midi": 62,
          "time": 66.00005500000017,
          "velocity": 0.9921259842519685,
          "duration": 0.545455000000004
        },
        {
          "name": "D#3",
          "midi": 51,
          "time": 66.27278250000018,
          "velocity": 0.9921259842519685,
          "duration": 0.272727500000002
        },
        {
          "name": "F3",
          "midi": 53,
          "time": 66.54551000000018,
          "velocity": 0.9921259842519685,
          "duration": 0.545455000000004
        },
        {
          "name": "C3",
          "midi": 48,
          "time": 66.54551000000018,
          "velocity": 0.9921259842519685,
          "duration": 0.545455000000004
        },
        {
          "name": "D3",
          "midi": 50,
          "time": 66.54551000000018,
          "velocity": 0.9921259842519685,
          "duration": 0.545455000000004
        },
        {
          "name": "G#3",
          "midi": 56,
          "time": 66.54551000000018,
          "velocity": 0.9921259842519685,
          "duration": 0.545455000000004
        },
        {
          "name": "C4",
          "midi": 60,
          "time": 66.54551000000018,
          "velocity": 0.9921259842519685,
          "duration": 0.545455000000004
        },
        {
          "name": "A#3",
          "midi": 58,
          "time": 67.09096500000018,
          "velocity": 0.9921259842519685,
          "duration": 0.545455000000004
        },
        {
          "name": "G#3",
          "midi": 56,
          "time": 67.09096500000018,
          "velocity": 0.9921259842519685,
          "duration": 0.545455000000004
        },
        {
          "name": "D3",
          "midi": 50,
          "time": 67.09096500000018,
          "velocity": 0.9921259842519685,
          "duration": 0.545455000000004
        },
        {
          "name": "D3",
          "midi": 50,
          "time": 67.09096500000018,
          "velocity": 0.9921259842519685,
          "duration": 0.545455000000004
        },
        {
          "name": "D#4",
          "midi": 63,
          "time": 67.63642000000019,
          "velocity": 0.9921259842519685,
          "duration": 0.818182500000006
        },
        {
          "name": "A#3",
          "midi": 58,
          "time": 67.63642000000019,
          "velocity": 0.9921259842519685,
          "duration": 0.818182500000006
        },
        {
          "name": "G3",
          "midi": 55,
          "time": 67.63642000000019,
          "velocity": 0.9921259842519685,
          "duration": 0.818182500000006
        },
        {
          "name": "D#3",
          "midi": 51,
          "time": 67.63642000000019,
          "velocity": 0.9921259842519685,
          "duration": 0.272727500000002
        },
        {
          "name": "A#2",
          "midi": 46,
          "time": 68.18187500000019,
          "velocity": 0.9921259842519685,
          "duration": 0.272727500000002
        },
        {
          "name": "D4",
          "midi": 62,
          "time": 68.45460250000019,
          "velocity": 0.9921259842519685,
          "duration": 0.272727500000002
        },
        {
          "name": "A#3",
          "midi": 58,
          "time": 68.45460250000019,
          "velocity": 0.9921259842519685,
          "duration": 0.272727500000002
        },
        {
          "name": "G3",
          "midi": 55,
          "time": 68.45460250000019,
          "velocity": 0.9921259842519685,
          "duration": 0.272727500000002
        },
        {
          "name": "D#4",
          "midi": 63,
          "time": 68.7273300000002,
          "velocity": 0.9921259842519685,
          "duration": 0.272727500000002
        },
        {
          "name": "A#3",
          "midi": 58,
          "time": 68.7273300000002,
          "velocity": 0.9921259842519685,
          "duration": 0.272727500000002
        },
        {
          "name": "G3",
          "midi": 55,
          "time": 68.7273300000002,
          "velocity": 0.9921259842519685,
          "duration": 0.272727500000002
        },
        {
          "name": "D#3",
          "midi": 51,
          "time": 68.7273300000002,
          "velocity": 0.9921259842519685,
          "duration": 0.272727500000002
        },
        {
          "name": "D4",
          "midi": 62,
          "time": 69.0000575000002,
          "velocity": 0.9921259842519685,
          "duration": 0.272727500000002
        },
        {
          "name": "A#3",
          "midi": 58,
          "time": 69.0000575000002,
          "velocity": 0.9921259842519685,
          "duration": 0.272727500000002
        },
        {
          "name": "G3",
          "midi": 55,
          "time": 69.0000575000002,
          "velocity": 0.9921259842519685,
          "duration": 0.272727500000002
        },
        {
          "name": "A#2",
          "midi": 46,
          "time": 69.2727850000002,
          "velocity": 0.9921259842519685,
          "duration": 0.272727500000002
        },
        {
          "name": "G3",
          "midi": 55,
          "time": 69.2727850000002,
          "velocity": 0.9921259842519685,
          "duration": 0.272727500000002
        },
        {
          "name": "A#3",
          "midi": 58,
          "time": 69.2727850000002,
          "velocity": 0.9921259842519685,
          "duration": 0.272727500000002
        },
        {
          "name": "D#4",
          "midi": 63,
          "time": 69.2727850000002,
          "velocity": 0.9921259842519685,
          "duration": 0.272727500000002
        },
        {
          "name": "E4",
          "midi": 64,
          "time": 69.5455125000002,
          "velocity": 0.9921259842519685,
          "duration": 0.272727500000002
        },
        {
          "name": "A#3",
          "midi": 58,
          "time": 69.5455125000002,
          "velocity": 0.9921259842519685,
          "duration": 0.272727500000002
        },
        {
          "name": "G3",
          "midi": 55,
          "time": 69.5455125000002,
          "velocity": 0.9921259842519685,
          "duration": 0.272727500000002
        },
        {
          "name": "C3",
          "midi": 48,
          "time": 69.8182400000002,
          "velocity": 0.9921259842519685,
          "duration": 0.272727500000002
        },
        {
          "name": "A3",
          "midi": 57,
          "time": 70.0909675000002,
          "velocity": 0.9921259842519685,
          "duration": 0.545455000000004
        },
        {
          "name": "F4",
          "midi": 65,
          "time": 70.0909675000002,
          "velocity": 0.9921259842519685,
          "duration": 0.545455000000004
        },
        {
          "name": "F3",
          "midi": 53,
          "time": 70.3636950000002,
          "velocity": 0.9921259842519685,
          "duration": 0.272727500000002
        },
        {
          "name": "F2",
          "midi": 41,
          "time": 70.3636950000002,
          "velocity": 0.9921259842519685,
          "duration": 0.272727500000002
        },
        {
          "name": "D#4",
          "midi": 63,
          "time": 70.63642250000021,
          "velocity": 0.9921259842519685,
          "duration": 0.272727500000002
        },
        {
          "name": "A3",
          "midi": 57,
          "time": 70.63642250000021,
          "velocity": 0.9921259842519685,
          "duration": 0.272727500000002
        },
        {
          "name": "C4",
          "midi": 60,
          "time": 70.90915000000021,
          "velocity": 0.9921259842519685,
          "duration": 0.818182500000006
        },
        {
          "name": "A3",
          "midi": 57,
          "time": 70.90915000000021,
          "velocity": 0.9921259842519685,
          "duration": 0.818182500000006
        },
        {
          "name": "F3",
          "midi": 53,
          "time": 70.90915000000021,
          "velocity": 0.9921259842519685,
          "duration": 0.818182500000006
        },
        {
          "name": "C3",
          "midi": 48,
          "time": 70.90915000000021,
          "velocity": 0.9921259842519685,
          "duration": 0.272727500000002
        },
        {
          "name": "C3",
          "midi": 48,
          "time": 70.90915000000021,
          "velocity": 0.9921259842519685,
          "duration": 0.272727500000002
        },
        {
          "name": "D#3",
          "midi": 51,
          "time": 71.18187750000021,
          "velocity": 0.9921259842519685,
          "duration": 0.136363750000001
        },
        {
          "name": "D3",
          "midi": 50,
          "time": 71.31824125000021,
          "velocity": 0.9921259842519685,
          "duration": 0.136363750000001
        },
        {
          "name": "C3",
          "midi": 48,
          "time": 71.45460500000021,
          "velocity": 0.9921259842519685,
          "duration": 0.136363750000001
        },
        {
          "name": "D3",
          "midi": 50,
          "time": 71.45460500000021,
          "velocity": 0.9921259842519685,
          "duration": 0.272727500000002
        },
        {
          "name": "A#2",
          "midi": 46,
          "time": 71.59096875000021,
          "velocity": 0.9921259842519685,
          "duration": 0.136363750000001
        },
        {
          "name": "A2",
          "midi": 45,
          "time": 71.72733250000022,
          "velocity": 0.9921259842519685,
          "duration": 0.136363750000001
        },
        {
          "name": "C3",
          "midi": 48,
          "time": 71.72733250000022,
          "velocity": 0.9921259842519685,
          "duration": 0.272727500000002
        },
        {
          "name": "G2",
          "midi": 43,
          "time": 71.86369625000022,
          "velocity": 0.9921259842519685,
          "duration": 0.136363750000001
        },
        {
          "name": "A#2",
          "midi": 46,
          "time": 72.00006000000022,
          "velocity": 0.9921259842519685,
          "duration": 0.272727500000002
        },
        {
          "name": "G#3",
          "midi": 56,
          "time": 72.00006000000022,
          "velocity": 0.9921259842519685,
          "duration": 0.272727500000002
        },
        {
          "name": "A#3",
          "midi": 58,
          "time": 72.00006000000022,
          "velocity": 0.9921259842519685,
          "duration": 0.272727500000002
        },
        {
          "name": "D4",
          "midi": 62,
          "time": 72.00006000000022,
          "velocity": 0.9921259842519685,
          "duration": 0.272727500000002
        },
        {
          "name": "G#3",
          "midi": 56,
          "time": 72.27278750000022,
          "velocity": 0.9921259842519685,
          "duration": 0.545455000000004
        },
        {
          "name": "A#3",
          "midi": 58,
          "time": 72.27278750000022,
          "velocity": 0.9921259842519685,
          "duration": 0.545455000000004
        },
        {
          "name": "D4",
          "midi": 62,
          "time": 72.27278750000022,
          "velocity": 0.9921259842519685,
          "duration": 0.545455000000004
        },
        {
          "name": "F2",
          "midi": 41,
          "time": 72.54551500000022,
          "velocity": 0.9921259842519685,
          "duration": 0.272727500000002
        },
        {
          "name": "F3",
          "midi": 53,
          "time": 72.54551500000022,
          "velocity": 0.9921259842519685,
          "duration": 0.272727500000002
        },
        {
          "name": "G#3",
          "midi": 56,
          "time": 72.81824250000022,
          "velocity": 0.9921259842519685,
          "duration": 0.272727500000002
        },
        {
          "name": "A#3",
          "midi": 58,
          "time": 72.81824250000022,
          "velocity": 0.9921259842519685,
          "duration": 0.272727500000002
        },
        {
          "name": "D4",
          "midi": 62,
          "time": 72.81824250000022,
          "velocity": 0.9921259842519685,
          "duration": 0.272727500000002
        },
        {
          "name": "A#2",
          "midi": 46,
          "time": 73.09097000000023,
          "velocity": 0.9921259842519685,
          "duration": 0.272727500000002
        },
        {
          "name": "G#3",
          "midi": 56,
          "time": 73.09097000000023,
          "velocity": 0.9921259842519685,
          "duration": 0.272727500000002
        },
        {
          "name": "A#3",
          "midi": 58,
          "time": 73.09097000000023,
          "velocity": 0.9921259842519685,
          "duration": 0.272727500000002
        },
        {
          "name": "D4",
          "midi": 62,
          "time": 73.09097000000023,
          "velocity": 0.9921259842519685,
          "duration": 0.272727500000002
        },
        {
          "name": "G#3",
          "midi": 56,
          "time": 73.36369750000023,
          "velocity": 0.9921259842519685,
          "duration": 0.272727500000002
        },
        {
          "name": "A#3",
          "midi": 58,
          "time": 73.36369750000023,
          "velocity": 0.9921259842519685,
          "duration": 0.272727500000002
        },
        {
          "name": "D4",
          "midi": 62,
          "time": 73.36369750000023,
          "velocity": 0.9921259842519685,
          "duration": 0.272727500000002
        },
        {
          "name": "F2",
          "midi": 41,
          "time": 73.63642500000023,
          "velocity": 0.9921259842519685,
          "duration": 0.272727500000002
        },
        {
          "name": "F3",
          "midi": 53,
          "time": 73.63642500000023,
          "velocity": 0.9921259842519685,
          "duration": 0.272727500000002
        },
        {
          "name": "G#3",
          "midi": 56,
          "time": 73.63642500000023,
          "velocity": 0.9921259842519685,
          "duration": 0.272727500000002
        },
        {
          "name": "A#3",
          "midi": 58,
          "time": 73.63642500000023,
          "velocity": 0.9921259842519685,
          "duration": 0.272727500000002
        },
        {
          "name": "D#4",
          "midi": 63,
          "time": 73.63642500000023,
          "velocity": 0.9921259842519685,
          "duration": 0.272727500000002
        },
        {
          "name": "G#3",
          "midi": 56,
          "time": 73.90915250000023,
          "velocity": 0.9921259842519685,
          "duration": 0.272727500000002
        },
        {
          "name": "A#3",
          "midi": 58,
          "time": 73.90915250000023,
          "velocity": 0.9921259842519685,
          "duration": 0.272727500000002
        },
        {
          "name": "F4",
          "midi": 65,
          "time": 73.90915250000023,
          "velocity": 0.9921259842519685,
          "duration": 0.272727500000002
        },
        {
          "name": "G4",
          "midi": 67,
          "time": 74.18188000000023,
          "velocity": 0.9921259842519685,
          "duration": 1.36363750000001
        },
        {
          "name": "D4",
          "midi": 62,
          "time": 74.18188000000023,
          "velocity": 0.9921259842519685,
          "duration": 1.36363750000001
        },
        {
          "name": "G3",
          "midi": 55,
          "time": 74.18188000000023,
          "velocity": 0.9921259842519685,
          "duration": 1.36363750000001
        },
        {
          "name": "B3",
          "midi": 59,
          "time": 74.18188000000023,
          "velocity": 0.9921259842519685,
          "duration": 1.36363750000001
        },
        {
          "name": "G2",
          "midi": 43,
          "time": 74.18188000000023,
          "velocity": 0.9921259842519685,
          "duration": 0.272727500000002
        },
        {
          "name": "D3",
          "midi": 50,
          "time": 74.45460750000024,
          "velocity": 0.9921259842519685,
          "duration": 0.545455000000004
        },
        {
          "name": "B2",
          "midi": 47,
          "time": 75.00006250000024,
          "velocity": 0.9921259842519685,
          "duration": 0.272727500000002
        },
        {
          "name": "B2",
          "midi": 47,
          "time": 75.00006250000024,
          "velocity": 0.9921259842519685,
          "duration": 0.272727500000002
        },
        {
          "name": "G2",
          "midi": 43,
          "time": 75.27279000000024,
          "velocity": 0.9921259842519685,
          "duration": 0.272727500000002
        },
        {
          "name": "A#2",
          "midi": 46,
          "time": 75.81824500000025,
          "velocity": 0.9921259842519685,
          "duration": 0.545455000000004
        },
        {
          "name": "D3",
          "midi": 50,
          "time": 75.81824500000025,
          "velocity": 0.9921259842519685,
          "duration": 0.545455000000004
        },
        {
          "name": "G#3",
          "midi": 56,
          "time": 75.81824500000025,
          "velocity": 0.9921259842519685,
          "duration": 0.545455000000004
        },
        {
          "name": "A#3",
          "midi": 58,
          "time": 75.81824500000025,
          "velocity": 0.9921259842519685,
          "duration": 0.545455000000004
        },
        {
          "name": "D#3",
          "midi": 51,
          "time": 76.36370000000025,
          "velocity": 0.9921259842519685,
          "duration": 0.272727500000002
        },
        {
          "name": "G3",
          "midi": 55,
          "time": 76.36370000000025,
          "velocity": 0.9921259842519685,
          "duration": 0.272727500000002
        },
        {
          "name": "A#3",
          "midi": 58,
          "time": 76.36370000000025,
          "velocity": 0.9921259842519685,
          "duration": 0.272727500000002
        },
        {
          "name": "D#4",
          "midi": 63,
          "time": 76.36370000000025,
          "velocity": 0.9921259842519685,
          "duration": 0.272727500000002
        },
        {
          "name": "D#4",
          "midi": 63,
          "time": 76.63642750000025,
          "velocity": 0.9921259842519685,
          "duration": 0.545455000000004
        },
        {
          "name": "A#3",
          "midi": 58,
          "time": 76.63642750000025,
          "velocity": 0.9921259842519685,
          "duration": 0.545455000000004
        },
        {
          "name": "G3",
          "midi": 55,
          "time": 76.63642750000025,
          "velocity": 0.9921259842519685,
          "duration": 0.545455000000004
        },
        {
          "name": "A#2",
          "midi": 46,
          "time": 76.90915500000025,
          "velocity": 0.9921259842519685,
          "duration": 0.272727500000002
        },
        {
          "name": "D4",
          "midi": 62,
          "time": 77.18188250000026,
          "velocity": 0.9921259842519685,
          "duration": 0.272727500000002
        },
        {
          "name": "A#3",
          "midi": 58,
          "time": 77.18188250000026,
          "velocity": 0.9921259842519685,
          "duration": 0.272727500000002
        },
        {
          "name": "G3",
          "midi": 55,
          "time": 77.18188250000026,
          "velocity": 0.9921259842519685,
          "duration": 0.272727500000002
        },
        {
          "name": "D#4",
          "midi": 63,
          "time": 77.45461000000026,
          "velocity": 0.9921259842519685,
          "duration": 0.272727500000002
        },
        {
          "name": "A#3",
          "midi": 58,
          "time": 77.45461000000026,
          "velocity": 0.9921259842519685,
          "duration": 0.272727500000002
        },
        {
          "name": "G3",
          "midi": 55,
          "time": 77.45461000000026,
          "velocity": 0.9921259842519685,
          "duration": 0.272727500000002
        },
        {
          "name": "D#3",
          "midi": 51,
          "time": 77.45461000000026,
          "velocity": 0.9921259842519685,
          "duration": 0.272727500000002
        },
        {
          "name": "D4",
          "midi": 62,
          "time": 77.72733750000026,
          "velocity": 0.9921259842519685,
          "duration": 0.272727500000002
        },
        {
          "name": "A#3",
          "midi": 58,
          "time": 77.72733750000026,
          "velocity": 0.9921259842519685,
          "duration": 0.272727500000002
        },
        {
          "name": "G3",
          "midi": 55,
          "time": 77.72733750000026,
          "velocity": 0.9921259842519685,
          "duration": 0.272727500000002
        },
        {
          "name": "A#2",
          "midi": 46,
          "time": 78.00006500000026,
          "velocity": 0.9921259842519685,
          "duration": 0.272727500000002
        },
        {
          "name": "G3",
          "midi": 55,
          "time": 78.00006500000026,
          "velocity": 0.9921259842519685,
          "duration": 0.272727500000002
        },
        {
          "name": "A#3",
          "midi": 58,
          "time": 78.00006500000026,
          "velocity": 0.9921259842519685,
          "duration": 0.272727500000002
        },
        {
          "name": "D#4",
          "midi": 63,
          "time": 78.00006500000026,
          "velocity": 0.9921259842519685,
          "duration": 0.272727500000002
        },
        {
          "name": "E4",
          "midi": 64,
          "time": 78.27279250000026,
          "velocity": 0.9921259842519685,
          "duration": 0.272727500000002
        },
        {
          "name": "A#3",
          "midi": 58,
          "time": 78.27279250000026,
          "velocity": 0.9921259842519685,
          "duration": 0.272727500000002
        },
        {
          "name": "G3",
          "midi": 55,
          "time": 78.27279250000026,
          "velocity": 0.9921259842519685,
          "duration": 0.272727500000002
        },
        {
          "name": "C3",
          "midi": 48,
          "time": 78.54552000000027,
          "velocity": 0.9921259842519685,
          "duration": 0.272727500000002
        },
        {
          "name": "A3",
          "midi": 57,
          "time": 78.81824750000027,
          "velocity": 0.9921259842519685,
          "duration": 0.545455000000004
        },
        {
          "name": "F4",
          "midi": 65,
          "time": 78.81824750000027,
          "velocity": 0.9921259842519685,
          "duration": 0.545455000000004
        },
        {
          "name": "F3",
          "midi": 53,
          "time": 79.09097500000027,
          "velocity": 0.9921259842519685,
          "duration": 0.272727500000002
        },
        {
          "name": "D#4",
          "midi": 63,
          "time": 79.36370250000027,
          "velocity": 0.9921259842519685,
          "duration": 0.272727500000002
        },
        {
          "name": "A3",
          "midi": 57,
          "time": 79.36370250000027,
          "velocity": 0.9921259842519685,
          "duration": 0.272727500000002
        },
        {
          "name": "C4",
          "midi": 60,
          "time": 79.63643000000027,
          "velocity": 0.9921259842519685,
          "duration": 0.818182500000006
        },
        {
          "name": "A3",
          "midi": 57,
          "time": 79.63643000000027,
          "velocity": 0.9921259842519685,
          "duration": 0.818182500000006
        },
        {
          "name": "F3",
          "midi": 53,
          "time": 79.63643000000027,
          "velocity": 0.9921259842519685,
          "duration": 0.818182500000006
        },
        {
          "name": "C3",
          "midi": 48,
          "time": 79.63643000000027,
          "velocity": 0.9921259842519685,
          "duration": 0.272727500000002
        },
        {
          "name": "C3",
          "midi": 48,
          "time": 79.63643000000027,
          "velocity": 0.9921259842519685,
          "duration": 0.272727500000002
        },
        {
          "name": "D#3",
          "midi": 51,
          "time": 79.90915750000028,
          "velocity": 0.9921259842519685,
          "duration": 0.136363750000001
        },
        {
          "name": "D3",
          "midi": 50,
          "time": 80.04552125000028,
          "velocity": 0.9921259842519685,
          "duration": 0.136363750000001
        },
        {
          "name": "C3",
          "midi": 48,
          "time": 80.18188500000028,
          "velocity": 0.9921259842519685,
          "duration": 0.136363750000001
        },
        {
          "name": "D3",
          "midi": 50,
          "time": 80.18188500000028,
          "velocity": 0.9921259842519685,
          "duration": 0.272727500000002
        },
        {
          "name": "A#2",
          "midi": 46,
          "time": 80.31824875000028,
          "velocity": 0.9921259842519685,
          "duration": 0.136363750000001
        },
        {
          "name": "A2",
          "midi": 45,
          "time": 80.45461250000028,
          "velocity": 0.9921259842519685,
          "duration": 0.136363750000001
        },
        {
          "name": "C3",
          "midi": 48,
          "time": 80.45461250000028,
          "velocity": 0.9921259842519685,
          "duration": 0.272727500000002
        },
        {
          "name": "G2",
          "midi": 43,
          "time": 80.59097625000028,
          "velocity": 0.9921259842519685,
          "duration": 0.136363750000001
        },
        {
          "name": "A#2",
          "midi": 46,
          "time": 80.72734000000028,
          "velocity": 0.9921259842519685,
          "duration": 0.272727500000002
        },
        {
          "name": "G#3",
          "midi": 56,
          "time": 80.72734000000028,
          "velocity": 0.9921259842519685,
          "duration": 0.272727500000002
        },
        {
          "name": "A#3",
          "midi": 58,
          "time": 80.72734000000028,
          "velocity": 0.9921259842519685,
          "duration": 0.272727500000002
        },
        {
          "name": "D4",
          "midi": 62,
          "time": 80.72734000000028,
          "velocity": 0.9921259842519685,
          "duration": 0.272727500000002
        },
        {
          "name": "G#3",
          "midi": 56,
          "time": 81.00006750000028,
          "velocity": 0.9921259842519685,
          "duration": 0.545455000000004
        },
        {
          "name": "A#3",
          "midi": 58,
          "time": 81.00006750000028,
          "velocity": 0.9921259842519685,
          "duration": 0.545455000000004
        },
        {
          "name": "D4",
          "midi": 62,
          "time": 81.00006750000028,
          "velocity": 0.9921259842519685,
          "duration": 0.545455000000004
        },
        {
          "name": "F2",
          "midi": 41,
          "time": 81.27279500000029,
          "velocity": 0.9921259842519685,
          "duration": 0.272727500000002
        },
        {
          "name": "F3",
          "midi": 53,
          "time": 81.27279500000029,
          "velocity": 0.9921259842519685,
          "duration": 0.272727500000002
        },
        {
          "name": "G#3",
          "midi": 56,
          "time": 81.54552250000029,
          "velocity": 0.9921259842519685,
          "duration": 0.272727500000002
        },
        {
          "name": "A#3",
          "midi": 58,
          "time": 81.54552250000029,
          "velocity": 0.9921259842519685,
          "duration": 0.272727500000002
        },
        {
          "name": "D4",
          "midi": 62,
          "time": 81.54552250000029,
          "velocity": 0.9921259842519685,
          "duration": 0.272727500000002
        },
        {
          "name": "A#2",
          "midi": 46,
          "time": 81.81825000000029,
          "velocity": 0.9921259842519685,
          "duration": 0.272727500000002
        },
        {
          "name": "G#3",
          "midi": 56,
          "time": 81.81825000000029,
          "velocity": 0.9921259842519685,
          "duration": 0.272727500000002
        },
        {
          "name": "A#3",
          "midi": 58,
          "time": 81.81825000000029,
          "velocity": 0.9921259842519685,
          "duration": 0.272727500000002
        },
        {
          "name": "D4",
          "midi": 62,
          "time": 81.81825000000029,
          "velocity": 0.9921259842519685,
          "duration": 0.272727500000002
        },
        {
          "name": "D3",
          "midi": 50,
          "time": 82.09097750000029,
          "velocity": 0.9921259842519685,
          "duration": 0.272727500000002
        },
        {
          "name": "G#3",
          "midi": 56,
          "time": 82.09097750000029,
          "velocity": 0.9921259842519685,
          "duration": 0.272727500000002
        },
        {
          "name": "A#3",
          "midi": 58,
          "time": 82.09097750000029,
          "velocity": 0.9921259842519685,
          "duration": 0.272727500000002
        },
        {
          "name": "F2",
          "midi": 41,
          "time": 82.3637050000003,
          "velocity": 0.9921259842519685,
          "duration": 0.272727500000002
        },
        {
          "name": "F3",
          "midi": 53,
          "time": 82.3637050000003,
          "velocity": 0.9921259842519685,
          "duration": 0.272727500000002
        },
        {
          "name": "D3",
          "midi": 50,
          "time": 82.3637050000003,
          "velocity": 0.9921259842519685,
          "duration": 0.272727500000002
        },
        {
          "name": "G#3",
          "midi": 56,
          "time": 82.3637050000003,
          "velocity": 0.9921259842519685,
          "duration": 0.272727500000002
        },
        {
          "name": "C4",
          "midi": 60,
          "time": 82.3637050000003,
          "velocity": 0.9921259842519685,
          "duration": 0.272727500000002
        },
        {
          "name": "D3",
          "midi": 50,
          "time": 82.6364325000003,
          "velocity": 0.9921259842519685,
          "duration": 0.272727500000002
        },
        {
          "name": "G#3",
          "midi": 56,
          "time": 82.6364325000003,
          "velocity": 0.9921259842519685,
          "duration": 0.272727500000002
        },
        {
          "name": "D4",
          "midi": 62,
          "time": 82.6364325000003,
          "velocity": 0.9921259842519685,
          "duration": 0.272727500000002
        },
        {
          "name": "D#4",
          "midi": 63,
          "time": 82.9091600000003,
          "velocity": 0.9921259842519685,
          "duration": 0.136363750000001
        },
        {
          "name": "A#3",
          "midi": 58,
          "time": 82.9091600000003,
          "velocity": 0.9921259842519685,
          "duration": 0.136363750000001
        },
        {
          "name": "G3",
          "midi": 55,
          "time": 82.9091600000003,
          "velocity": 0.9921259842519685,
          "duration": 0.136363750000001
        },
        {
          "name": "D#3",
          "midi": 51,
          "time": 82.9091600000003,
          "velocity": 0.9921259842519685,
          "duration": 0.136363750000001
        },
        {
          "name": "D#4",
          "midi": 63,
          "time": 83.0455237500003,
          "velocity": 0.9921259842519685,
          "duration": 0.136363750000001
        },
        {
          "name": "A#3",
          "midi": 58,
          "time": 83.0455237500003,
          "velocity": 0.9921259842519685,
          "duration": 0.136363750000001
        },
        {
          "name": "G3",
          "midi": 55,
          "time": 83.0455237500003,
          "velocity": 0.9921259842519685,
          "duration": 0.136363750000001
        },
        {
          "name": "D#3",
          "midi": 51,
          "time": 83.0455237500003,
          "velocity": 0.9921259842519685,
          "duration": 0.136363750000001
        },
        {
          "name": "D#4",
          "midi": 63,
          "time": 83.1818875000003,
          "velocity": 0.9921259842519685,
          "duration": 0.136363750000001
        },
        {
          "name": "A#3",
          "midi": 58,
          "time": 83.1818875000003,
          "velocity": 0.9921259842519685,
          "duration": 0.136363750000001
        },
        {
          "name": "G3",
          "midi": 55,
          "time": 83.1818875000003,
          "velocity": 0.9921259842519685,
          "duration": 0.136363750000001
        },
        {
          "name": "D#3",
          "midi": 51,
          "time": 83.1818875000003,
          "velocity": 0.9921259842519685,
          "duration": 0.136363750000001
        },
        {
          "name": "D#4",
          "midi": 63,
          "time": 83.3182512500003,
          "velocity": 0.9921259842519685,
          "duration": 0.136363750000001
        },
        {
          "name": "A#3",
          "midi": 58,
          "time": 83.3182512500003,
          "velocity": 0.9921259842519685,
          "duration": 0.136363750000001
        },
        {
          "name": "G3",
          "midi": 55,
          "time": 83.3182512500003,
          "velocity": 0.9921259842519685,
          "duration": 0.136363750000001
        },
        {
          "name": "D#3",
          "midi": 51,
          "time": 83.3182512500003,
          "velocity": 0.9921259842519685,
          "duration": 0.136363750000001
        },
        {
          "name": "D#4",
          "midi": 63,
          "time": 83.4546150000003,
          "velocity": 0.9921259842519685,
          "duration": 0.545455000000004
        },
        {
          "name": "A#3",
          "midi": 58,
          "time": 83.4546150000003,
          "velocity": 0.9921259842519685,
          "duration": 0.545455000000004
        },
        {
          "name": "G3",
          "midi": 55,
          "time": 83.4546150000003,
          "velocity": 0.9921259842519685,
          "duration": 0.545455000000004
        },
        {
          "name": "D#3",
          "midi": 51,
          "time": 83.4546150000003,
          "velocity": 0.9921259842519685,
          "duration": 0.545455000000004
        },
        {
          "name": "D#4",
          "midi": 63,
          "time": 84.0000700000003,
          "velocity": 0.9921259842519685,
          "duration": 0.136363750000001
        },
        {
          "name": "G3",
          "midi": 55,
          "time": 84.0000700000003,
          "velocity": 0.9921259842519685,
          "duration": 0.136363750000001
        },
        {
          "name": "C4",
          "midi": 60,
          "time": 84.0000700000003,
          "velocity": 0.9921259842519685,
          "duration": 0.136363750000001
        },
        {
          "name": "D#3",
          "midi": 51,
          "time": 84.0000700000003,
          "velocity": 0.9921259842519685,
          "duration": 0.136363750000001
        },
        {
          "name": "D#4",
          "midi": 63,
          "time": 84.13643375000031,
          "velocity": 0.9921259842519685,
          "duration": 0.136363750000001
        },
        {
          "name": "G3",
          "midi": 55,
          "time": 84.13643375000031,
          "velocity": 0.9921259842519685,
          "duration": 0.136363750000001
        },
        {
          "name": "C4",
          "midi": 60,
          "time": 84.13643375000031,
          "velocity": 0.9921259842519685,
          "duration": 0.136363750000001
        },
        {
          "name": "D#3",
          "midi": 51,
          "time": 84.13643375000031,
          "velocity": 0.9921259842519685,
          "duration": 0.136363750000001
        },
        {
          "name": "D#4",
          "midi": 63,
          "time": 84.27279750000031,
          "velocity": 0.9921259842519685,
          "duration": 0.136363750000001
        },
        {
          "name": "G3",
          "midi": 55,
          "time": 84.27279750000031,
          "velocity": 0.9921259842519685,
          "duration": 0.136363750000001
        },
        {
          "name": "B3",
          "midi": 59,
          "time": 84.27279750000031,
          "velocity": 0.9921259842519685,
          "duration": 0.136363750000001
        },
        {
          "name": "D#3",
          "midi": 51,
          "time": 84.27279750000031,
          "velocity": 0.9921259842519685,
          "duration": 0.136363750000001
        },
        {
          "name": "D#4",
          "midi": 63,
          "time": 84.40916125000031,
          "velocity": 0.9921259842519685,
          "duration": 0.136363750000001
        },
        {
          "name": "G3",
          "midi": 55,
          "time": 84.40916125000031,
          "velocity": 0.9921259842519685,
          "duration": 0.136363750000001
        },
        {
          "name": "B3",
          "midi": 59,
          "time": 84.40916125000031,
          "velocity": 0.9921259842519685,
          "duration": 0.136363750000001
        },
        {
          "name": "D#3",
          "midi": 51,
          "time": 84.40916125000031,
          "velocity": 0.9921259842519685,
          "duration": 0.136363750000001
        },
        {
          "name": "D#4",
          "midi": 63,
          "time": 84.54552500000031,
          "velocity": 0.9921259842519685,
          "duration": 0.545455000000004
        },
        {
          "name": "A#3",
          "midi": 58,
          "time": 84.54552500000031,
          "velocity": 0.9921259842519685,
          "duration": 0.545455000000004
        },
        {
          "name": "G3",
          "midi": 55,
          "time": 84.54552500000031,
          "velocity": 0.9921259842519685,
          "duration": 0.545455000000004
        },
        {
          "name": "D#3",
          "midi": 51,
          "time": 84.54552500000031,
          "velocity": 0.9921259842519685,
          "duration": 0.545455000000004
        },
        {
          "name": "D#4",
          "midi": 63,
          "time": 85.09098000000031,
          "velocity": 0.9921259842519685,
          "duration": 0.272727500000002
        },
        {
          "name": "A#3",
          "midi": 58,
          "time": 85.09098000000031,
          "velocity": 0.9921259842519685,
          "duration": 0.272727500000002
        },
        {
          "name": "G3",
          "midi": 55,
          "time": 85.09098000000031,
          "velocity": 0.9921259842519685,
          "duration": 0.272727500000002
        },
        {
          "name": "D#3",
          "midi": 51,
          "time": 85.09098000000031,
          "velocity": 0.9921259842519685,
          "duration": 0.272727500000002
        },
        {
          "name": "D#4",
          "midi": 63,
          "time": 85.36370750000032,
          "velocity": 0.9921259842519685,
          "duration": 0.136363750000001
        },
        {
          "name": "A#3",
          "midi": 58,
          "time": 85.36370750000032,
          "velocity": 0.9921259842519685,
          "duration": 0.136363750000001
        },
        {
          "name": "G3",
          "midi": 55,
          "time": 85.36370750000032,
          "velocity": 0.9921259842519685,
          "duration": 0.136363750000001
        },
        {
          "name": "D#3",
          "midi": 51,
          "time": 85.36370750000032,
          "velocity": 0.9921259842519685,
          "duration": 0.136363750000001
        },
        {
          "name": "D#4",
          "midi": 63,
          "time": 85.50007125000032,
          "velocity": 0.9921259842519685,
          "duration": 0.136363750000001
        },
        {
          "name": "A#3",
          "midi": 58,
          "time": 85.50007125000032,
          "velocity": 0.9921259842519685,
          "duration": 0.136363750000001
        },
        {
          "name": "G3",
          "midi": 55,
          "time": 85.50007125000032,
          "velocity": 0.9921259842519685,
          "duration": 0.136363750000001
        },
        {
          "name": "D#3",
          "midi": 51,
          "time": 85.50007125000032,
          "velocity": 0.9921259842519685,
          "duration": 0.136363750000001
        },
        {
          "name": "D#4",
          "midi": 63,
          "time": 85.63643500000032,
          "velocity": 0.9921259842519685,
          "duration": 0.272727500000002
        },
        {
          "name": "A#3",
          "midi": 58,
          "time": 85.63643500000032,
          "velocity": 0.9921259842519685,
          "duration": 0.272727500000002
        },
        {
          "name": "G3",
          "midi": 55,
          "time": 85.63643500000032,
          "velocity": 0.9921259842519685,
          "duration": 0.272727500000002
        },
        {
          "name": "D#3",
          "midi": 51,
          "time": 85.63643500000032,
          "velocity": 0.9921259842519685,
          "duration": 0.272727500000002
        },
        {
          "name": "F4",
          "midi": 65,
          "time": 85.90916250000032,
          "velocity": 0.9921259842519685,
          "duration": 0.272727500000002
        },
        {
          "name": "A#3",
          "midi": 58,
          "time": 85.90916250000032,
          "velocity": 0.9921259842519685,
          "duration": 0.272727500000002
        },
        {
          "name": "G3",
          "midi": 55,
          "time": 85.90916250000032,
          "velocity": 0.9921259842519685,
          "duration": 0.272727500000002
        },
        {
          "name": "D#3",
          "midi": 51,
          "time": 85.90916250000032,
          "velocity": 0.9921259842519685,
          "duration": 0.272727500000002
        },
        {
          "name": "G4",
          "midi": 67,
          "time": 86.18189000000032,
          "velocity": 0.9921259842519685,
          "duration": 0.136363750000001
        },
        {
          "name": "A#3",
          "midi": 58,
          "time": 86.18189000000032,
          "velocity": 0.9921259842519685,
          "duration": 0.136363750000001
        },
        {
          "name": "G3",
          "midi": 55,
          "time": 86.18189000000032,
          "velocity": 0.9921259842519685,
          "duration": 0.136363750000001
        },
        {
          "name": "D#3",
          "midi": 51,
          "time": 86.18189000000032,
          "velocity": 0.9921259842519685,
          "duration": 0.272727500000002
        },
        {
          "name": "G4",
          "midi": 67,
          "time": 86.31825375000032,
          "velocity": 0.9921259842519685,
          "duration": 0.136363750000001
        },
        {
          "name": "A#3",
          "midi": 58,
          "time": 86.31825375000032,
          "velocity": 0.9921259842519685,
          "duration": 0.136363750000001
        },
        {
          "name": "G3",
          "midi": 55,
          "time": 86.31825375000032,
          "velocity": 0.9921259842519685,
          "duration": 0.136363750000001
        },
        {
          "name": "F4",
          "midi": 65,
          "time": 86.45461750000032,
          "velocity": 0.9921259842519685,
          "duration": 0.136363750000001
        },
        {
          "name": "A#3",
          "midi": 58,
          "time": 86.45461750000032,
          "velocity": 0.9921259842519685,
          "duration": 0.136363750000001
        },
        {
          "name": "G3",
          "midi": 55,
          "time": 86.45461750000032,
          "velocity": 0.9921259842519685,
          "duration": 0.136363750000001
        },
        {
          "name": "D#3",
          "midi": 51,
          "time": 86.45461750000032,
          "velocity": 0.9921259842519685,
          "duration": 0.272727500000002
        },
        {
          "name": "F4",
          "midi": 65,
          "time": 86.59098125000033,
          "velocity": 0.9921259842519685,
          "duration": 0.136363750000001
        },
        {
          "name": "A#3",
          "midi": 58,
          "time": 86.59098125000033,
          "velocity": 0.9921259842519685,
          "duration": 0.136363750000001
        },
        {
          "name": "G3",
          "midi": 55,
          "time": 86.59098125000033,
          "velocity": 0.9921259842519685,
          "duration": 0.136363750000001
        },
        {
          "name": "D#4",
          "midi": 63,
          "time": 86.72734500000033,
          "velocity": 0.9921259842519685,
          "duration": 0.272727500000002
        },
        {
          "name": "A#3",
          "midi": 58,
          "time": 86.72734500000033,
          "velocity": 0.9921259842519685,
          "duration": 0.272727500000002
        },
        {
          "name": "G3",
          "midi": 55,
          "time": 86.72734500000033,
          "velocity": 0.9921259842519685,
          "duration": 0.272727500000002
        },
        {
          "name": "D#3",
          "midi": 51,
          "time": 86.72734500000033,
          "velocity": 0.9921259842519685,
          "duration": 0.272727500000002
        },
        {
          "name": "D#4",
          "midi": 63,
          "time": 87.27280000000033,
          "velocity": 0.9921259842519685,
          "duration": 0.272727500000002
        },
        {
          "name": "A#3",
          "midi": 58,
          "time": 87.27280000000033,
          "velocity": 0.9921259842519685,
          "duration": 0.272727500000002
        },
        {
          "name": "D#3",
          "midi": 51,
          "time": 87.27280000000033,
          "velocity": 0.9921259842519685,
          "duration": 1.090910000000008
        },
        {
          "name": "G4",
          "midi": 67,
          "time": 87.27280000000033,
          "velocity": 0.9921259842519685,
          "duration": 0.818182500000006
        },
        {
          "name": "G3",
          "midi": 55,
          "time": 87.27280000000033,
          "velocity": 0.9921259842519685,
          "duration": 0.272727500000002
        },
        {
          "name": "A#3",
          "midi": 58,
          "time": 87.54552750000033,
          "velocity": 0.9921259842519685,
          "duration": 0.136363750000001
        },
        {
          "name": "G3",
          "midi": 55,
          "time": 87.54552750000033,
          "velocity": 0.9921259842519685,
          "duration": 0.136363750000001
        },
        {
          "name": "A#3",
          "midi": 58,
          "time": 87.68189125000033,
          "velocity": 0.9921259842519685,
          "duration": 0.136363750000001
        },
        {
          "name": "G3",
          "midi": 55,
          "time": 87.68189125000033,
          "velocity": 0.9921259842519685,
          "duration": 0.136363750000001
        },
        {
          "name": "D#4",
          "midi": 63,
          "time": 87.81825500000033,
          "velocity": 0.9921259842519685,
          "duration": 0.272727500000002
        },
        {
          "name": "A#3",
          "midi": 58,
          "time": 87.81825500000033,
          "velocity": 0.9921259842519685,
          "duration": 0.272727500000002
        },
        {
          "name": "D#4",
          "midi": 63,
          "time": 88.09098250000034,
          "velocity": 0.9921259842519685,
          "duration": 0.272727500000002
        },
        {
          "name": "G4",
          "midi": 67,
          "time": 88.09098250000034,
          "velocity": 0.9921259842519685,
          "duration": 0.272727500000002
        },
        {
          "name": "D#4",
          "midi": 63,
          "time": 88.36371000000034,
          "velocity": 0.9921259842519685,
          "duration": 0.272727500000002
        },
        {
          "name": "A#3",
          "midi": 58,
          "time": 88.36371000000034,
          "velocity": 0.9921259842519685,
          "duration": 0.272727500000002
        },
        {
          "name": "G4",
          "midi": 67,
          "time": 88.36371000000034,
          "velocity": 0.9921259842519685,
          "duration": 0.545455000000004
        },
        {
          "name": "A#2",
          "midi": 46,
          "time": 88.36371000000034,
          "velocity": 0.9921259842519685,
          "duration": 0.545455000000004
        },
        {
          "name": "G3",
          "midi": 55,
          "time": 88.36371000000034,
          "velocity": 0.9921259842519685,
          "duration": 0.272727500000002
        },
        {
          "name": "A#3",
          "midi": 58,
          "time": 88.63643750000034,
          "velocity": 0.9921259842519685,
          "duration": 0.136363750000001
        },
        {
          "name": "G3",
          "midi": 55,
          "time": 88.63643750000034,
          "velocity": 0.9921259842519685,
          "duration": 0.136363750000001
        },
        {
          "name": "A#3",
          "midi": 58,
          "time": 88.77280125000034,
          "velocity": 0.9921259842519685,
          "duration": 0.136363750000001
        },
        {
          "name": "G3",
          "midi": 55,
          "time": 88.77280125000034,
          "velocity": 0.9921259842519685,
          "duration": 0.136363750000001
        },
        {
          "name": "D#4",
          "midi": 63,
          "time": 88.90916500000034,
          "velocity": 0.9921259842519685,
          "duration": 0.272727500000002
        },
        {
          "name": "A#3",
          "midi": 58,
          "time": 88.90916500000034,
          "velocity": 0.9921259842519685,
          "duration": 0.272727500000002
        },
        {
          "name": "F3",
          "midi": 53,
          "time": 88.90916500000034,
          "velocity": 0.9921259842519685,
          "duration": 0.545455000000004
        },
        {
          "name": "F4",
          "midi": 65,
          "time": 88.90916500000034,
          "velocity": 0.9921259842519685,
          "duration": 0.545455000000004
        },
        {
          "name": "D3",
          "midi": 50,
          "time": 88.90916500000034,
          "velocity": 0.9921259842519685,
          "duration": 0.545455000000004
        },
        {
          "name": "G4",
          "midi": 67,
          "time": 89.18189250000034,
          "velocity": 0.9921259842519685,
          "duration": 0.272727500000002
        },
        {
          "name": "D#4",
          "midi": 63,
          "time": 89.18189250000034,
          "velocity": 0.9921259842519685,
          "duration": 0.272727500000002
        },
        {
          "name": "D#4",
          "midi": 63,
          "time": 89.45462000000035,
          "velocity": 0.9921259842519685,
          "duration": 1.090910000000008
        },
        {
          "name": "G4",
          "midi": 67,
          "time": 89.45462000000035,
          "velocity": 0.9921259842519685,
          "duration": 0.545455000000004
        },
        {
          "name": "D#3",
          "midi": 51,
          "time": 89.45462000000035,
          "velocity": 0.9921259842519685,
          "duration": 1.090910000000008
        },
        {
          "name": "G4",
          "midi": 67,
          "time": 90.00007500000035,
          "velocity": 0.9921259842519685,
          "duration": 0.409091250000003
        },
        {
          "name": "A#3",
          "midi": 58,
          "time": 90.00007500000035,
          "velocity": 0.9921259842519685,
          "duration": 0.545455000000004
        },
        {
          "name": "A#2",
          "midi": 46,
          "time": 90.00007500000035,
          "velocity": 0.9921259842519685,
          "duration": 0.545455000000004
        },
        {
          "name": "A#4",
          "midi": 70,
          "time": 90.00007500000035,
          "velocity": 0.9921259842519685,
          "duration": 0.409091250000003
        },
        {
          "name": "A#4",
          "midi": 70,
          "time": 90.40916625000035,
          "velocity": 0.9921259842519685,
          "duration": 0.136363750000001
        },
        {
          "name": "G4",
          "midi": 67,
          "time": 90.40916625000035,
          "velocity": 0.9921259842519685,
          "duration": 0.136363750000001
        },
        {
          "name": "G3",
          "midi": 55,
          "time": 90.54553000000035,
          "velocity": 0.9921259842519685,
          "duration": 0.545455000000004
        },
        {
          "name": "G2",
          "midi": 43,
          "time": 90.54553000000035,
          "velocity": 0.9921259842519685,
          "duration": 0.545455000000004
        },
        {
          "name": "G4",
          "midi": 67,
          "time": 90.54553000000035,
          "velocity": 0.9921259842519685,
          "duration": 0.272727500000002
        },
        {
          "name": "D#4",
          "midi": 63,
          "time": 90.54553000000035,
          "velocity": 0.9921259842519685,
          "duration": 0.545455000000004
        },
        {
          "name": "A#4",
          "midi": 70,
          "time": 90.54553000000035,
          "velocity": 0.9921259842519685,
          "duration": 0.272727500000002
        },
        {
          "name": "D#3",
          "midi": 51,
          "time": 90.54553000000035,
          "velocity": 0.9921259842519685,
          "duration": 0.545455000000004
        },
        {
          "name": "A#4",
          "midi": 70,
          "time": 90.81825750000036,
          "velocity": 0.9921259842519685,
          "duration": 0.272727500000002
        },
        {
          "name": "G4",
          "midi": 67,
          "time": 90.81825750000036,
          "velocity": 0.9921259842519685,
          "duration": 0.272727500000002
        },
        {
          "name": "G4",
          "midi": 67,
          "time": 91.09098500000036,
          "velocity": 0.9921259842519685,
          "duration": 0.272727500000002
        },
        {
          "name": "D#4",
          "midi": 63,
          "time": 91.09098500000036,
          "velocity": 0.9921259842519685,
          "duration": 0.272727500000002
        },
        {
          "name": "D#3",
          "midi": 51,
          "time": 91.09098500000036,
          "velocity": 0.9921259842519685,
          "duration": 0.545455000000004
        },
        {
          "name": "D#4",
          "midi": 63,
          "time": 91.36371250000036,
          "velocity": 0.9921259842519685,
          "duration": 0.272727500000002
        },
        {
          "name": "A#3",
          "midi": 58,
          "time": 91.36371250000036,
          "velocity": 0.9921259842519685,
          "duration": 0.272727500000002
        },
        {
          "name": "F3",
          "midi": 53,
          "time": 91.63644000000036,
          "velocity": 0.9921259842519685,
          "duration": 1.090910000000008
        },
        {
          "name": "D3",
          "midi": 50,
          "time": 91.63644000000036,
          "velocity": 0.9921259842519685,
          "duration": 0.545455000000004
        },
        {
          "name": "F4",
          "midi": 65,
          "time": 91.63644000000036,
          "velocity": 0.9921259842519685,
          "duration": 0.272727500000002
        },
        {
          "name": "G#4",
          "midi": 68,
          "time": 91.63644000000036,
          "velocity": 0.9921259842519685,
          "duration": 0.272727500000002
        },
        {
          "name": "F2",
          "midi": 41,
          "time": 91.63644000000036,
          "velocity": 0.9921259842519685,
          "duration": 1.090910000000008
        },
        {
          "name": "G#4",
          "midi": 68,
          "time": 91.90916750000036,
          "velocity": 0.9921259842519685,
          "duration": 0.136363750000001
        },
        {
          "name": "F4",
          "midi": 65,
          "time": 91.90916750000036,
          "velocity": 0.9921259842519685,
          "duration": 0.136363750000001
        },
        {
          "name": "F4",
          "midi": 65,
          "time": 92.04553125000037,
          "velocity": 0.9921259842519685,
          "duration": 0.136363750000001
        },
        {
          "name": "G#4",
          "midi": 68,
          "time": 92.04553125000037,
          "velocity": 0.9921259842519685,
          "duration": 0.136363750000001
        },
        {
          "name": "F4",
          "midi": 65,
          "time": 92.18189500000037,
          "velocity": 0.9921259842519685,
          "duration": 0.272727500000002
        },
        {
          "name": "A#2",
          "midi": 46,
          "time": 92.18189500000037,
          "velocity": 0.9921259842519685,
          "duration": 0.545455000000004
        },
        {
          "name": "G#4",
          "midi": 68,
          "time": 92.18189500000037,
          "velocity": 0.9921259842519685,
          "duration": 0.272727500000002
        },
        {
          "name": "G#4",
          "midi": 68,
          "time": 92.45462250000037,
          "velocity": 0.9921259842519685,
          "duration": 0.272727500000002
        },
        {
          "name": "F4",
          "midi": 65,
          "time": 92.45462250000037,
          "velocity": 0.9921259842519685,
          "duration": 0.272727500000002
        },
        {
          "name": "F3",
          "midi": 53,
          "time": 92.72735000000037,
          "velocity": 0.9921259842519685,
          "duration": 0.545455000000004
        },
        {
          "name": "F2",
          "midi": 41,
          "time": 92.72735000000037,
          "velocity": 0.9921259842519685,
          "duration": 0.545455000000004
        },
        {
          "name": "C3",
          "midi": 48,
          "time": 92.72735000000037,
          "velocity": 0.9921259842519685,
          "duration": 0.545455000000004
        },
        {
          "name": "G#4",
          "midi": 68,
          "time": 92.72735000000037,
          "velocity": 0.9921259842519685,
          "duration": 0.272727500000002
        },
        {
          "name": "F4",
          "midi": 65,
          "time": 92.72735000000037,
          "velocity": 0.9921259842519685,
          "duration": 0.272727500000002
        },
        {
          "name": "G#4",
          "midi": 68,
          "time": 93.00007750000037,
          "velocity": 0.9921259842519685,
          "duration": 0.136363750000001
        },
        {
          "name": "F4",
          "midi": 65,
          "time": 93.00007750000037,
          "velocity": 0.9921259842519685,
          "duration": 0.136363750000001
        },
        {
          "name": "G#4",
          "midi": 68,
          "time": 93.13644125000037,
          "velocity": 0.9921259842519685,
          "duration": 0.136363750000001
        },
        {
          "name": "F4",
          "midi": 65,
          "time": 93.13644125000037,
          "velocity": 0.9921259842519685,
          "duration": 0.136363750000001
        },
        {
          "name": "F4",
          "midi": 65,
          "time": 93.27280500000037,
          "velocity": 0.9921259842519685,
          "duration": 0.272727500000002
        },
        {
          "name": "G#2",
          "midi": 44,
          "time": 93.27280500000037,
          "velocity": 0.9921259842519685,
          "duration": 0.545455000000004
        },
        {
          "name": "G#3",
          "midi": 56,
          "time": 93.27280500000037,
          "velocity": 0.9921259842519685,
          "duration": 0.545455000000004
        },
        {
          "name": "D3",
          "midi": 50,
          "time": 93.27280500000037,
          "velocity": 0.9921259842519685,
          "duration": 0.545455000000004
        },
        {
          "name": "G#4",
          "midi": 68,
          "time": 93.27280500000037,
          "velocity": 0.9921259842519685,
          "duration": 0.272727500000002
        },
        {
          "name": "G#4",
          "midi": 68,
          "time": 93.54553250000038,
          "velocity": 0.9921259842519685,
          "duration": 0.272727500000002
        },
        {
          "name": "F4",
          "midi": 65,
          "time": 93.54553250000038,
          "velocity": 0.9921259842519685,
          "duration": 0.272727500000002
        },
        {
          "name": "D#4",
          "midi": 63,
          "time": 93.81826000000038,
          "velocity": 0.9921259842519685,
          "duration": 0.272727500000002
        },
        {
          "name": "A#3",
          "midi": 58,
          "time": 93.81826000000038,
          "velocity": 0.9921259842519685,
          "duration": 0.272727500000002
        },
        {
          "name": "G2",
          "midi": 43,
          "time": 93.81826000000038,
          "velocity": 0.9921259842519685,
          "duration": 0.545455000000004
        },
        {
          "name": "G4",
          "midi": 67,
          "time": 93.81826000000038,
          "velocity": 0.9921259842519685,
          "duration": 0.545455000000004
        },
        {
          "name": "D#3",
          "midi": 51,
          "time": 93.81826000000038,
          "velocity": 0.9921259842519685,
          "duration": 0.545455000000004
        },
        {
          "name": "G3",
          "midi": 55,
          "time": 93.81826000000038,
          "velocity": 0.9921259842519685,
          "duration": 0.272727500000002
        },
        {
          "name": "G3",
          "midi": 55,
          "time": 94.09098750000038,
          "velocity": 0.9921259842519685,
          "duration": 0.272727500000002
        },
        {
          "name": "A#3",
          "midi": 58,
          "time": 94.09098750000038,
          "velocity": 0.9921259842519685,
          "duration": 0.272727500000002
        },
        {
          "name": "D#4",
          "midi": 63,
          "time": 94.36371500000038,
          "velocity": 0.9921259842519685,
          "duration": 0.272727500000002
        },
        {
          "name": "A#3",
          "midi": 58,
          "time": 94.36371500000038,
          "velocity": 0.9921259842519685,
          "duration": 0.272727500000002
        },
        {
          "name": "F2",
          "midi": 41,
          "time": 94.36371500000038,
          "velocity": 0.9921259842519685,
          "duration": 0.545455000000004
        },
        {
          "name": "F3",
          "midi": 53,
          "time": 94.36371500000038,
          "velocity": 0.9921259842519685,
          "duration": 0.545455000000004
        },
        {
          "name": "F4",
          "midi": 65,
          "time": 94.36371500000038,
          "velocity": 0.9921259842519685,
          "duration": 0.545455000000004
        },
        {
          "name": "A#3",
          "midi": 58,
          "time": 94.63644250000038,
          "velocity": 0.9921259842519685,
          "duration": 0.272727500000002
        },
        {
          "name": "G3",
          "midi": 55,
          "time": 94.63644250000038,
          "velocity": 0.9921259842519685,
          "duration": 0.272727500000002
        },
        {
          "name": "A#3",
          "midi": 58,
          "time": 94.90917000000039,
          "velocity": 0.9921259842519685,
          "duration": 0.272727500000002
        },
        {
          "name": "D#3",
          "midi": 51,
          "time": 94.90917000000039,
          "velocity": 0.9921259842519685,
          "duration": 1.090910000000008
        },
        {
          "name": "D#4",
          "midi": 63,
          "time": 94.90917000000039,
          "velocity": 0.9921259842519685,
          "duration": 0.545455000000004
        },
        {
          "name": "G3",
          "midi": 55,
          "time": 94.90917000000039,
          "velocity": 0.9921259842519685,
          "duration": 0.272727500000002
        },
        {
          "name": "A#3",
          "midi": 58,
          "time": 95.18189750000039,
          "velocity": 0.9921259842519685,
          "duration": 0.136363750000001
        },
        {
          "name": "G3",
          "midi": 55,
          "time": 95.18189750000039,
          "velocity": 0.9921259842519685,
          "duration": 0.136363750000001
        },
        {
          "name": "A#3",
          "midi": 58,
          "time": 95.31826125000039,
          "velocity": 0.9921259842519685,
          "duration": 0.136363750000001
        },
        {
          "name": "G3",
          "midi": 55,
          "time": 95.31826125000039,
          "velocity": 0.9921259842519685,
          "duration": 0.681818750000005
        },
        {
          "name": "D#4",
          "midi": 63,
          "time": 95.45462500000039,
          "velocity": 0.9921259842519685,
          "duration": 0.272727500000002
        },
        {
          "name": "A#3",
          "midi": 58,
          "time": 95.45462500000039,
          "velocity": 0.9921259842519685,
          "duration": 0.272727500000002
        },
        {
          "name": "G4",
          "midi": 67,
          "time": 95.72735250000039,
          "velocity": 0.9921259842519685,
          "duration": 0.272727500000002
        },
        {
          "name": "D#4",
          "midi": 63,
          "time": 95.72735250000039,
          "velocity": 0.9921259842519685,
          "duration": 0.272727500000002
        },
        {
          "name": "D#4",
          "midi": 63,
          "time": 96.0000800000004,
          "velocity": 0.9921259842519685,
          "duration": 0.272727500000002
        },
        {
          "name": "A#4",
          "midi": 70,
          "time": 96.0000800000004,
          "velocity": 0.9921259842519685,
          "duration": 1.090910000000008
        },
        {
          "name": "D#3",
          "midi": 51,
          "time": 96.0000800000004,
          "velocity": 0.9921259842519685,
          "duration": 0.545455000000004
        },
        {
          "name": "A#3",
          "midi": 58,
          "time": 96.0000800000004,
          "velocity": 0.9921259842519685,
          "duration": 0.272727500000002
        },
        {
          "name": "A#2",
          "midi": 46,
          "time": 96.0000800000004,
          "velocity": 0.9921259842519685,
          "duration": 0.545455000000004
        },
        {
          "name": "A#3",
          "midi": 58,
          "time": 96.2728075000004,
          "velocity": 0.9921259842519685,
          "duration": 0.136363750000001
        },
        {
          "name": "G3",
          "midi": 55,
          "time": 96.2728075000004,
          "velocity": 0.9921259842519685,
          "duration": 0.136363750000001
        },
        {
          "name": "A#3",
          "midi": 58,
          "time": 96.4091712500004,
          "velocity": 0.9921259842519685,
          "duration": 0.136363750000001
        },
        {
          "name": "G3",
          "midi": 55,
          "time": 96.4091712500004,
          "velocity": 0.9921259842519685,
          "duration": 0.136363750000001
        },
        {
          "name": "D#4",
          "midi": 63,
          "time": 96.5455350000004,
          "velocity": 0.9921259842519685,
          "duration": 0.272727500000002
        },
        {
          "name": "A#3",
          "midi": 58,
          "time": 96.5455350000004,
          "velocity": 0.9921259842519685,
          "duration": 0.545455000000004
        },
        {
          "name": "A#2",
          "midi": 46,
          "time": 96.5455350000004,
          "velocity": 0.9921259842519685,
          "duration": 0.545455000000004
        },
        {
          "name": "G4",
          "midi": 67,
          "time": 96.8182625000004,
          "velocity": 0.9921259842519685,
          "duration": 0.272727500000002
        },
        {
          "name": "D#4",
          "midi": 63,
          "time": 96.8182625000004,
          "velocity": 0.9921259842519685,
          "duration": 0.272727500000002
        },
        {
          "name": "D#4",
          "midi": 63,
          "time": 97.0909900000004,
          "velocity": 0.9921259842519685,
          "duration": 0.272727500000002
        },
        {
          "name": "A#4",
          "midi": 70,
          "time": 97.0909900000004,
          "velocity": 0.9921259842519685,
          "duration": 0.545455000000004
        },
        {
          "name": "A#2",
          "midi": 46,
          "time": 97.0909900000004,
          "velocity": 0.9921259842519685,
          "duration": 0.545455000000004
        },
        {
          "name": "D#3",
          "midi": 51,
          "time": 97.0909900000004,
          "velocity": 0.9921259842519685,
          "duration": 0.545455000000004
        },
        {
          "name": "A#3",
          "midi": 58,
          "time": 97.0909900000004,
          "velocity": 0.9921259842519685,
          "duration": 0.272727500000002
        },
        {
          "name": "A#3",
          "midi": 58,
          "time": 97.3637175000004,
          "velocity": 0.9921259842519685,
          "duration": 0.136363750000001
        },
        {
          "name": "G3",
          "midi": 55,
          "time": 97.3637175000004,
          "velocity": 0.9921259842519685,
          "duration": 0.136363750000001
        },
        {
          "name": "A#3",
          "midi": 58,
          "time": 97.5000812500004,
          "velocity": 0.9921259842519685,
          "duration": 0.136363750000001
        },
        {
          "name": "G3",
          "midi": 55,
          "time": 97.5000812500004,
          "velocity": 0.9921259842519685,
          "duration": 0.136363750000001
        },
        {
          "name": "D#4",
          "midi": 63,
          "time": 97.6364450000004,
          "velocity": 0.9921259842519685,
          "duration": 0.272727500000002
        },
        {
          "name": "A#3",
          "midi": 58,
          "time": 97.6364450000004,
          "velocity": 0.9921259842519685,
          "duration": 0.272727500000002
        },
        {
          "name": "G#4",
          "midi": 68,
          "time": 97.6364450000004,
          "velocity": 0.9921259842519685,
          "duration": 0.545455000000004
        },
        {
          "name": "G#3",
          "midi": 56,
          "time": 97.6364450000004,
          "velocity": 0.9921259842519685,
          "duration": 0.545455000000004
        },
        {
          "name": "G#2",
          "midi": 44,
          "time": 97.6364450000004,
          "velocity": 0.9921259842519685,
          "duration": 0.545455000000004
        },
        {
          "name": "A#2",
          "midi": 46,
          "time": 97.6364450000004,
          "velocity": 0.9921259842519685,
          "duration": 0.545455000000004
        },
        {
          "name": "G4",
          "midi": 67,
          "time": 97.90917250000041,
          "velocity": 0.9921259842519685,
          "duration": 0.272727500000002
        },
        {
          "name": "D#4",
          "midi": 63,
          "time": 97.90917250000041,
          "velocity": 0.9921259842519685,
          "duration": 0.272727500000002
        },
        {
          "name": "D#4",
          "midi": 63,
          "time": 98.18190000000041,
          "velocity": 0.9921259842519685,
          "duration": 0.272727500000002
        },
        {
          "name": "A#3",
          "midi": 58,
          "time": 98.18190000000041,
          "velocity": 0.9921259842519685,
          "duration": 0.272727500000002
        },
        {
          "name": "G2",
          "midi": 43,
          "time": 98.18190000000041,
          "velocity": 0.9921259842519685,
          "duration": 1.090910000000008
        },
        {
          "name": "D#3",
          "midi": 51,
          "time": 98.18190000000041,
          "velocity": 0.9921259842519685,
          "duration": 0.545455000000004
        },
        {
          "name": "G4",
          "midi": 67,
          "time": 98.18190000000041,
          "velocity": 0.9921259842519685,
          "duration": 0.818182500000006
        },
        {
          "name": "G3",
          "midi": 55,
          "time": 98.18190000000041,
          "velocity": 0.9921259842519685,
          "duration": 0.272727500000002
        },
        {
          "name": "A#3",
          "midi": 58,
          "time": 98.45462750000041,
          "velocity": 0.9921259842519685,
          "duration": 0.136363750000001
        },
        {
          "name": "G3",
          "midi": 55,
          "time": 98.45462750000041,
          "velocity": 0.9921259842519685,
          "duration": 0.136363750000001
        },
        {
          "name": "A#3",
          "midi": 58,
          "time": 98.59099125000041,
          "velocity": 0.9921259842519685,
          "duration": 0.136363750000001
        },
        {
          "name": "G3",
          "midi": 55,
          "time": 98.59099125000041,
          "velocity": 0.9921259842519685,
          "duration": 0.681818750000005
        },
        {
          "name": "D#4",
          "midi": 63,
          "time": 98.72735500000041,
          "velocity": 0.9921259842519685,
          "duration": 0.272727500000002
        },
        {
          "name": "A#3",
          "midi": 58,
          "time": 98.72735500000041,
          "velocity": 0.9921259842519685,
          "duration": 0.272727500000002
        },
        {
          "name": "A#2",
          "midi": 46,
          "time": 98.72735500000041,
          "velocity": 0.9921259842519685,
          "duration": 0.545455000000004
        },
        {
          "name": "G4",
          "midi": 67,
          "time": 99.00008250000042,
          "velocity": 0.9921259842519685,
          "duration": 0.272727500000002
        },
        {
          "name": "D#4",
          "midi": 63,
          "time": 99.00008250000042,
          "velocity": 0.9921259842519685,
          "duration": 0.272727500000002
        },
        {
          "name": "D#4",
          "midi": 63,
          "time": 99.27281000000042,
          "velocity": 0.9921259842519685,
          "duration": 0.272727500000002
        },
        {
          "name": "A#3",
          "midi": 58,
          "time": 99.27281000000042,
          "velocity": 0.9921259842519685,
          "duration": 0.272727500000002
        },
        {
          "name": "G2",
          "midi": 43,
          "time": 99.27281000000042,
          "velocity": 0.9921259842519685,
          "duration": 1.090910000000008
        },
        {
          "name": "D#3",
          "midi": 51,
          "time": 99.27281000000042,
          "velocity": 0.9921259842519685,
          "duration": 0.545455000000004
        },
        {
          "name": "G4",
          "midi": 67,
          "time": 99.27281000000042,
          "velocity": 0.9921259842519685,
          "duration": 0.818182500000006
        },
        {
          "name": "G3",
          "midi": 55,
          "time": 99.27281000000042,
          "velocity": 0.9921259842519685,
          "duration": 0.272727500000002
        },
        {
          "name": "A#3",
          "midi": 58,
          "time": 99.54553750000042,
          "velocity": 0.9921259842519685,
          "duration": 0.136363750000001
        },
        {
          "name": "G3",
          "midi": 55,
          "time": 99.54553750000042,
          "velocity": 0.9921259842519685,
          "duration": 0.136363750000001
        },
        {
          "name": "A#3",
          "midi": 58,
          "time": 99.68190125000042,
          "velocity": 0.9921259842519685,
          "duration": 0.136363750000001
        },
        {
          "name": "G3",
          "midi": 55,
          "time": 99.68190125000042,
          "velocity": 0.9921259842519685,
          "duration": 0.136363750000001
        },
        {
          "name": "D#4",
          "midi": 63,
          "time": 99.81826500000042,
          "velocity": 0.9921259842519685,
          "duration": 0.272727500000002
        },
        {
          "name": "A#3",
          "midi": 58,
          "time": 99.81826500000042,
          "velocity": 0.9921259842519685,
          "duration": 0.272727500000002
        },
        {
          "name": "G2",
          "midi": 43,
          "time": 99.81826500000042,
          "velocity": 0.9921259842519685,
          "duration": 0.545455000000004
        },
        {
          "name": "G3",
          "midi": 55,
          "time": 99.81826500000042,
          "velocity": 0.9921259842519685,
          "duration": 0.545455000000004
        },
        {
          "name": "G4",
          "midi": 67,
          "time": 100.09099250000043,
          "velocity": 0.9921259842519685,
          "duration": 0.272727500000002
        },
        {
          "name": "D#4",
          "midi": 63,
          "time": 100.09099250000043,
          "velocity": 0.9921259842519685,
          "duration": 0.272727500000002
        },
        {
          "name": "F4",
          "midi": 65,
          "time": 100.36372000000043,
          "velocity": 0.9921259842519685,
          "duration": 0.272727500000002
        },
        {
          "name": "C4",
          "midi": 60,
          "time": 100.36372000000043,
          "velocity": 0.9921259842519685,
          "duration": 0.272727500000002
        },
        {
          "name": "F4",
          "midi": 65,
          "time": 100.36372000000043,
          "velocity": 0.9921259842519685,
          "duration": 0.272727500000002
        },
        {
          "name": "F2",
          "midi": 41,
          "time": 100.36372000000043,
          "velocity": 0.9921259842519685,
          "duration": 0.545455000000004
        },
        {
          "name": "F3",
          "midi": 53,
          "time": 100.36372000000043,
          "velocity": 0.9921259842519685,
          "duration": 0.545455000000004
        },
        {
          "name": "D#4",
          "midi": 63,
          "time": 102.54554000000043,
          "velocity": 0.9921259842519685,
          "duration": 0.272727500000002
        },
        {
          "name": "A#3",
          "midi": 58,
          "time": 102.54554000000043,
          "velocity": 0.9921259842519685,
          "duration": 0.272727500000002
        },
        {
          "name": "D#3",
          "midi": 51,
          "time": 102.54554000000043,
          "velocity": 0.9921259842519685,
          "duration": 1.090910000000008
        },
        {
          "name": "G4",
          "midi": 67,
          "time": 102.54554000000043,
          "velocity": 0.9921259842519685,
          "duration": 0.818182500000006
        },
        {
          "name": "G3",
          "midi": 55,
          "time": 102.54554000000043,
          "velocity": 0.9921259842519685,
          "duration": 0.272727500000002
        },
        {
          "name": "A#3",
          "midi": 58,
          "time": 102.81826750000043,
          "velocity": 0.9921259842519685,
          "duration": 0.136363750000001
        },
        {
          "name": "G3",
          "midi": 55,
          "time": 102.81826750000043,
          "velocity": 0.9921259842519685,
          "duration": 0.136363750000001
        },
        {
          "name": "A#3",
          "midi": 58,
          "time": 102.95463125000043,
          "velocity": 0.9921259842519685,
          "duration": 0.136363750000001
        },
        {
          "name": "G3",
          "midi": 55,
          "time": 102.95463125000043,
          "velocity": 0.9921259842519685,
          "duration": 0.681818750000005
        },
        {
          "name": "D#4",
          "midi": 63,
          "time": 103.09099500000043,
          "velocity": 0.9921259842519685,
          "duration": 0.272727500000002
        },
        {
          "name": "A#3",
          "midi": 58,
          "time": 103.09099500000043,
          "velocity": 0.9921259842519685,
          "duration": 0.272727500000002
        },
        {
          "name": "G4",
          "midi": 67,
          "time": 103.36372250000043,
          "velocity": 0.9921259842519685,
          "duration": 0.272727500000002
        },
        {
          "name": "D#4",
          "midi": 63,
          "time": 103.36372250000043,
          "velocity": 0.9921259842519685,
          "duration": 0.272727500000002
        },
        {
          "name": "D#4",
          "midi": 63,
          "time": 103.63645000000044,
          "velocity": 0.9921259842519685,
          "duration": 0.272727500000002
        },
        {
          "name": "A#3",
          "midi": 58,
          "time": 103.63645000000044,
          "velocity": 0.9921259842519685,
          "duration": 0.272727500000002
        },
        {
          "name": "G4",
          "midi": 67,
          "time": 103.63645000000044,
          "velocity": 0.9921259842519685,
          "duration": 0.545455000000004
        },
        {
          "name": "A#2",
          "midi": 46,
          "time": 103.63645000000044,
          "velocity": 0.9921259842519685,
          "duration": 0.545455000000004
        },
        {
          "name": "G3",
          "midi": 55,
          "time": 103.63645000000044,
          "velocity": 0.9921259842519685,
          "duration": 0.272727500000002
        },
        {
          "name": "A#3",
          "midi": 58,
          "time": 103.90917750000044,
          "velocity": 0.9921259842519685,
          "duration": 0.136363750000001
        },
        {
          "name": "G3",
          "midi": 55,
          "time": 103.90917750000044,
          "velocity": 0.9921259842519685,
          "duration": 0.136363750000001
        },
        {
          "name": "A#3",
          "midi": 58,
          "time": 104.04554125000044,
          "velocity": 0.9921259842519685,
          "duration": 0.136363750000001
        },
        {
          "name": "G3",
          "midi": 55,
          "time": 104.04554125000044,
          "velocity": 0.9921259842519685,
          "duration": 0.136363750000001
        },
        {
          "name": "D#4",
          "midi": 63,
          "time": 104.18190500000044,
          "velocity": 0.9921259842519685,
          "duration": 0.272727500000002
        },
        {
          "name": "A#3",
          "midi": 58,
          "time": 104.18190500000044,
          "velocity": 0.9921259842519685,
          "duration": 0.272727500000002
        },
        {
          "name": "F3",
          "midi": 53,
          "time": 104.18190500000044,
          "velocity": 0.9921259842519685,
          "duration": 0.545455000000004
        },
        {
          "name": "F4",
          "midi": 65,
          "time": 104.18190500000044,
          "velocity": 0.9921259842519685,
          "duration": 0.545455000000004
        },
        {
          "name": "D3",
          "midi": 50,
          "time": 104.18190500000044,
          "velocity": 0.9921259842519685,
          "duration": 0.545455000000004
        },
        {
          "name": "G4",
          "midi": 67,
          "time": 104.45463250000044,
          "velocity": 0.9921259842519685,
          "duration": 0.272727500000002
        },
        {
          "name": "D#4",
          "midi": 63,
          "time": 104.45463250000044,
          "velocity": 0.9921259842519685,
          "duration": 0.272727500000002
        },
        {
          "name": "G4",
          "midi": 67,
          "time": 104.72736000000044,
          "velocity": 0.9921259842519685,
          "duration": 0.545455000000004
        },
        {
          "name": "D#4",
          "midi": 63,
          "time": 104.72736000000044,
          "velocity": 0.9921259842519685,
          "duration": 1.090910000000008
        },
        {
          "name": "D#3",
          "midi": 51,
          "time": 104.72736000000044,
          "velocity": 0.9921259842519685,
          "duration": 1.090910000000008
        },
        {
          "name": "G4",
          "midi": 67,
          "time": 105.27281500000045,
          "velocity": 0.9921259842519685,
          "duration": 0.409091250000003
        },
        {
          "name": "A#3",
          "midi": 58,
          "time": 105.27281500000045,
          "velocity": 0.9921259842519685,
          "duration": 0.545455000000004
        },
        {
          "name": "A#2",
          "midi": 46,
          "time": 105.27281500000045,
          "velocity": 0.9921259842519685,
          "duration": 0.545455000000004
        },
        {
          "name": "A#4",
          "midi": 70,
          "time": 105.27281500000045,
          "velocity": 0.9921259842519685,
          "duration": 0.409091250000003
        },
        {
          "name": "A#4",
          "midi": 70,
          "time": 105.68190625000045,
          "velocity": 0.9921259842519685,
          "duration": 0.136363750000001
        },
        {
          "name": "G4",
          "midi": 67,
          "time": 105.68190625000045,
          "velocity": 0.9921259842519685,
          "duration": 0.136363750000001
        },
        {
          "name": "A#4",
          "midi": 70,
          "time": 105.81827000000045,
          "velocity": 0.9921259842519685,
          "duration": 0.272727500000002
        },
        {
          "name": "G4",
          "midi": 67,
          "time": 105.81827000000045,
          "velocity": 0.9921259842519685,
          "duration": 0.272727500000002
        },
        {
          "name": "G3",
          "midi": 55,
          "time": 105.81827000000045,
          "velocity": 0.9921259842519685,
          "duration": 0.545455000000004
        },
        {
          "name": "G2",
          "midi": 43,
          "time": 105.81827000000045,
          "velocity": 0.9921259842519685,
          "duration": 0.545455000000004
        },
        {
          "name": "G4",
          "midi": 67,
          "time": 105.81827000000045,
          "velocity": 0.9921259842519685,
          "duration": 0.545455000000004
        },
        {
          "name": "D#4",
          "midi": 63,
          "time": 105.81827000000045,
          "velocity": 0.9921259842519685,
          "duration": 0.545455000000004
        },
        {
          "name": "D#3",
          "midi": 51,
          "time": 105.81827000000045,
          "velocity": 0.9921259842519685,
          "duration": 0.545455000000004
        },
        {
          "name": "A#4",
          "midi": 70,
          "time": 106.09099750000046,
          "velocity": 0.9921259842519685,
          "duration": 0.272727500000002
        },
        {
          "name": "G4",
          "midi": 67,
          "time": 106.09099750000046,
          "velocity": 0.9921259842519685,
          "duration": 0.272727500000002
        },
        {
          "name": "G4",
          "midi": 67,
          "time": 106.36372500000046,
          "velocity": 0.9921259842519685,
          "duration": 0.272727500000002
        },
        {
          "name": "D#4",
          "midi": 63,
          "time": 106.36372500000046,
          "velocity": 0.9921259842519685,
          "duration": 0.272727500000002
        },
        {
          "name": "D#3",
          "midi": 51,
          "time": 106.36372500000046,
          "velocity": 0.9921259842519685,
          "duration": 0.545455000000004
        },
        {
          "name": "D#4",
          "midi": 63,
          "time": 106.36372500000046,
          "velocity": 0.9921259842519685,
          "duration": 0.545455000000004
        },
        {
          "name": "D#4",
          "midi": 63,
          "time": 106.63645250000046,
          "velocity": 0.9921259842519685,
          "duration": 0.272727500000002
        },
        {
          "name": "A#3",
          "midi": 58,
          "time": 106.63645250000046,
          "velocity": 0.9921259842519685,
          "duration": 0.272727500000002
        },
        {
          "name": "F3",
          "midi": 53,
          "time": 106.90918000000046,
          "velocity": 0.9921259842519685,
          "duration": 1.090910000000008
        },
        {
          "name": "F2",
          "midi": 41,
          "time": 106.90918000000046,
          "velocity": 0.9921259842519685,
          "duration": 1.090910000000008
        },
        {
          "name": "D3",
          "midi": 50,
          "time": 106.90918000000046,
          "velocity": 0.9921259842519685,
          "duration": 0.545455000000004
        },
        {
          "name": "G#4",
          "midi": 68,
          "time": 106.90918000000046,
          "velocity": 0.9921259842519685,
          "duration": 0.272727500000002
        },
        {
          "name": "F4",
          "midi": 65,
          "time": 106.90918000000046,
          "velocity": 0.9921259842519685,
          "duration": 0.272727500000002
        },
        {
          "name": "G#4",
          "midi": 68,
          "time": 107.18190750000046,
          "velocity": 0.9921259842519685,
          "duration": 0.136363750000001
        },
        {
          "name": "F4",
          "midi": 65,
          "time": 107.18190750000046,
          "velocity": 0.9921259842519685,
          "duration": 0.136363750000001
        },
        {
          "name": "G#4",
          "midi": 68,
          "time": 107.31827125000046,
          "velocity": 0.9921259842519685,
          "duration": 0.136363750000001
        },
        {
          "name": "F4",
          "midi": 65,
          "time": 107.31827125000046,
          "velocity": 0.9921259842519685,
          "duration": 0.136363750000001
        },
        {
          "name": "F4",
          "midi": 65,
          "time": 107.45463500000047,
          "velocity": 0.9921259842519685,
          "duration": 0.272727500000002
        },
        {
          "name": "A#2",
          "midi": 46,
          "time": 107.45463500000047,
          "velocity": 0.9921259842519685,
          "duration": 0.545455000000004
        },
        {
          "name": "G#4",
          "midi": 68,
          "time": 107.45463500000047,
          "velocity": 0.9921259842519685,
          "duration": 0.272727500000002
        },
        {
          "name": "G#4",
          "midi": 68,
          "time": 107.72736250000047,
          "velocity": 0.9921259842519685,
          "duration": 0.272727500000002
        },
        {
          "name": "F4",
          "midi": 65,
          "time": 107.72736250000047,
          "velocity": 0.9921259842519685,
          "duration": 0.272727500000002
        },
        {
          "name": "F3",
          "midi": 53,
          "time": 108.00009000000047,
          "velocity": 0.9921259842519685,
          "duration": 0.545455000000004
        },
        {
          "name": "F2",
          "midi": 41,
          "time": 108.00009000000047,
          "velocity": 0.9921259842519685,
          "duration": 0.545455000000004
        },
        {
          "name": "C3",
          "midi": 48,
          "time": 108.00009000000047,
          "velocity": 0.9921259842519685,
          "duration": 0.545455000000004
        },
        {
          "name": "G#4",
          "midi": 68,
          "time": 108.00009000000047,
          "velocity": 0.9921259842519685,
          "duration": 0.272727500000002
        },
        {
          "name": "F4",
          "midi": 65,
          "time": 108.00009000000047,
          "velocity": 0.9921259842519685,
          "duration": 0.272727500000002
        },
        {
          "name": "G#4",
          "midi": 68,
          "time": 108.27281750000047,
          "velocity": 0.9921259842519685,
          "duration": 0.136363750000001
        },
        {
          "name": "F4",
          "midi": 65,
          "time": 108.27281750000047,
          "velocity": 0.9921259842519685,
          "duration": 0.136363750000001
        },
        {
          "name": "G#4",
          "midi": 68,
          "time": 108.40918125000047,
          "velocity": 0.9921259842519685,
          "duration": 0.136363750000001
        },
        {
          "name": "F4",
          "midi": 65,
          "time": 108.40918125000047,
          "velocity": 0.9921259842519685,
          "duration": 0.136363750000001
        },
        {
          "name": "G#2",
          "midi": 44,
          "time": 108.54554500000047,
          "velocity": 0.9921259842519685,
          "duration": 0.545455000000004
        },
        {
          "name": "G#3",
          "midi": 56,
          "time": 108.54554500000047,
          "velocity": 0.9921259842519685,
          "duration": 0.545455000000004
        },
        {
          "name": "D3",
          "midi": 50,
          "time": 108.54554500000047,
          "velocity": 0.9921259842519685,
          "duration": 0.545455000000004
        },
        {
          "name": "G#4",
          "midi": 68,
          "time": 108.54554500000047,
          "velocity": 0.9921259842519685,
          "duration": 0.272727500000002
        },
        {
          "name": "F4",
          "midi": 65,
          "time": 108.54554500000047,
          "velocity": 0.9921259842519685,
          "duration": 0.272727500000002
        },
        {
          "name": "G#4",
          "midi": 68,
          "time": 108.81827250000048,
          "velocity": 0.9921259842519685,
          "duration": 0.272727500000002
        },
        {
          "name": "F4",
          "midi": 65,
          "time": 108.81827250000048,
          "velocity": 0.9921259842519685,
          "duration": 0.272727500000002
        },
        {
          "name": "D#4",
          "midi": 63,
          "time": 109.09100000000048,
          "velocity": 0.9921259842519685,
          "duration": 0.272727500000002
        },
        {
          "name": "A#3",
          "midi": 58,
          "time": 109.09100000000048,
          "velocity": 0.9921259842519685,
          "duration": 0.272727500000002
        },
        {
          "name": "G2",
          "midi": 43,
          "time": 109.09100000000048,
          "velocity": 0.9921259842519685,
          "duration": 0.545455000000004
        },
        {
          "name": "G4",
          "midi": 67,
          "time": 109.09100000000048,
          "velocity": 0.9921259842519685,
          "duration": 0.545455000000004
        },
        {
          "name": "D#3",
          "midi": 51,
          "time": 109.09100000000048,
          "velocity": 0.9921259842519685,
          "duration": 0.545455000000004
        },
        {
          "name": "G3",
          "midi": 55,
          "time": 109.09100000000048,
          "velocity": 0.9921259842519685,
          "duration": 0.272727500000002
        },
        {
          "name": "A#3",
          "midi": 58,
          "time": 109.36372750000048,
          "velocity": 0.9921259842519685,
          "duration": 0.272727500000002
        },
        {
          "name": "G3",
          "midi": 55,
          "time": 109.36372750000048,
          "velocity": 0.9921259842519685,
          "duration": 0.272727500000002
        },
        {
          "name": "D#4",
          "midi": 63,
          "time": 109.63645500000048,
          "velocity": 0.9921259842519685,
          "duration": 0.272727500000002
        },
        {
          "name": "A#3",
          "midi": 58,
          "time": 109.63645500000048,
          "velocity": 0.9921259842519685,
          "duration": 0.272727500000002
        },
        {
          "name": "F2",
          "midi": 41,
          "time": 109.63645500000048,
          "velocity": 0.9921259842519685,
          "duration": 0.545455000000004
        },
        {
          "name": "F3",
          "midi": 53,
          "time": 109.63645500000048,
          "velocity": 0.9921259842519685,
          "duration": 0.545455000000004
        },
        {
          "name": "F4",
          "midi": 65,
          "time": 109.63645500000048,
          "velocity": 0.9921259842519685,
          "duration": 0.545455000000004
        },
        {
          "name": "A#3",
          "midi": 58,
          "time": 109.90918250000048,
          "velocity": 0.9921259842519685,
          "duration": 0.272727500000002
        },
        {
          "name": "G3",
          "midi": 55,
          "time": 109.90918250000048,
          "velocity": 0.9921259842519685,
          "duration": 0.272727500000002
        },
        {
          "name": "D#3",
          "midi": 51,
          "time": 110.18191000000049,
          "velocity": 0.9921259842519685,
          "duration": 1.090910000000008
        },
        {
          "name": "D#4",
          "midi": 63,
          "time": 110.18191000000049,
          "velocity": 0.9921259842519685,
          "duration": 0.545455000000004
        },
        {
          "name": "A#3",
          "midi": 58,
          "time": 110.18191000000049,
          "velocity": 0.9921259842519685,
          "duration": 0.272727500000002
        },
        {
          "name": "G3",
          "midi": 55,
          "time": 110.18191000000049,
          "velocity": 0.9921259842519685,
          "duration": 0.272727500000002
        },
        {
          "name": "A#3",
          "midi": 58,
          "time": 110.45463750000049,
          "velocity": 0.9921259842519685,
          "duration": 0.136363750000001
        },
        {
          "name": "G3",
          "midi": 55,
          "time": 110.45463750000049,
          "velocity": 0.9921259842519685,
          "duration": 0.136363750000001
        },
        {
          "name": "A#3",
          "midi": 58,
          "time": 110.59100125000049,
          "velocity": 0.9921259842519685,
          "duration": 0.136363750000001
        },
        {
          "name": "G3",
          "midi": 55,
          "time": 110.59100125000049,
          "velocity": 0.9921259842519685,
          "duration": 0.681818750000005
        },
        {
          "name": "D#4",
          "midi": 63,
          "time": 110.72736500000049,
          "velocity": 0.9921259842519685,
          "duration": 0.272727500000002
        },
        {
          "name": "A#3",
          "midi": 58,
          "time": 110.72736500000049,
          "velocity": 0.9921259842519685,
          "duration": 0.272727500000002
        },
        {
          "name": "G4",
          "midi": 67,
          "time": 111.00009250000049,
          "velocity": 0.9921259842519685,
          "duration": 0.272727500000002
        },
        {
          "name": "D#4",
          "midi": 63,
          "time": 111.00009250000049,
          "velocity": 0.9921259842519685,
          "duration": 0.272727500000002
        },
        {
          "name": "D#4",
          "midi": 63,
          "time": 111.2728200000005,
          "velocity": 0.9921259842519685,
          "duration": 0.272727500000002
        },
        {
          "name": "A#4",
          "midi": 70,
          "time": 111.2728200000005,
          "velocity": 0.9921259842519685,
          "duration": 1.090910000000008
        },
        {
          "name": "D#3",
          "midi": 51,
          "time": 111.2728200000005,
          "velocity": 0.9921259842519685,
          "duration": 0.545455000000004
        },
        {
          "name": "A#3",
          "midi": 58,
          "time": 111.2728200000005,
          "velocity": 0.9921259842519685,
          "duration": 0.272727500000002
        },
        {
          "name": "A#2",
          "midi": 46,
          "time": 111.2728200000005,
          "velocity": 0.9921259842519685,
          "duration": 0.545455000000004
        },
        {
          "name": "A#3",
          "midi": 58,
          "time": 111.5455475000005,
          "velocity": 0.9921259842519685,
          "duration": 0.136363750000001
        },
        {
          "name": "G3",
          "midi": 55,
          "time": 111.5455475000005,
          "velocity": 0.9921259842519685,
          "duration": 0.136363750000001
        },
        {
          "name": "A#3",
          "midi": 58,
          "time": 111.6819112500005,
          "velocity": 0.9921259842519685,
          "duration": 0.136363750000001
        },
        {
          "name": "G3",
          "midi": 55,
          "time": 111.6819112500005,
          "velocity": 0.9921259842519685,
          "duration": 0.136363750000001
        },
        {
          "name": "D#4",
          "midi": 63,
          "time": 111.8182750000005,
          "velocity": 0.9921259842519685,
          "duration": 0.272727500000002
        },
        {
          "name": "A#3",
          "midi": 58,
          "time": 111.8182750000005,
          "velocity": 0.9921259842519685,
          "duration": 0.545455000000004
        },
        {
          "name": "A#2",
          "midi": 46,
          "time": 111.8182750000005,
          "velocity": 0.9921259842519685,
          "duration": 0.545455000000004
        },
        {
          "name": "G4",
          "midi": 67,
          "time": 112.0910025000005,
          "velocity": 0.9921259842519685,
          "duration": 0.272727500000002
        },
        {
          "name": "D#4",
          "midi": 63,
          "time": 112.0910025000005,
          "velocity": 0.9921259842519685,
          "duration": 0.272727500000002
        },
        {
          "name": "D#4",
          "midi": 63,
          "time": 112.3637300000005,
          "velocity": 0.9921259842519685,
          "duration": 0.272727500000002
        },
        {
          "name": "A#4",
          "midi": 70,
          "time": 112.3637300000005,
          "velocity": 0.9921259842519685,
          "duration": 0.545455000000004
        },
        {
          "name": "A#2",
          "midi": 46,
          "time": 112.3637300000005,
          "velocity": 0.9921259842519685,
          "duration": 0.545455000000004
        },
        {
          "name": "D#3",
          "midi": 51,
          "time": 112.3637300000005,
          "velocity": 0.9921259842519685,
          "duration": 0.545455000000004
        },
        {
          "name": "A#3",
          "midi": 58,
          "time": 112.3637300000005,
          "velocity": 0.9921259842519685,
          "duration": 0.272727500000002
        },
        {
          "name": "A#3",
          "midi": 58,
          "time": 112.6364575000005,
          "velocity": 0.9921259842519685,
          "duration": 0.136363750000001
        },
        {
          "name": "G3",
          "midi": 55,
          "time": 112.6364575000005,
          "velocity": 0.9921259842519685,
          "duration": 0.136363750000001
        },
        {
          "name": "A#3",
          "midi": 58,
          "time": 112.7728212500005,
          "velocity": 0.9921259842519685,
          "duration": 0.136363750000001
        },
        {
          "name": "G3",
          "midi": 55,
          "time": 112.7728212500005,
          "velocity": 0.9921259842519685,
          "duration": 0.136363750000001
        },
        {
          "name": "D#4",
          "midi": 63,
          "time": 112.9091850000005,
          "velocity": 0.9921259842519685,
          "duration": 0.272727500000002
        },
        {
          "name": "A#3",
          "midi": 58,
          "time": 112.9091850000005,
          "velocity": 0.9921259842519685,
          "duration": 0.272727500000002
        },
        {
          "name": "G#4",
          "midi": 68,
          "time": 112.9091850000005,
          "velocity": 0.9921259842519685,
          "duration": 0.545455000000004
        },
        {
          "name": "G#3",
          "midi": 56,
          "time": 112.9091850000005,
          "velocity": 0.9921259842519685,
          "duration": 0.545455000000004
        },
        {
          "name": "G#2",
          "midi": 44,
          "time": 112.9091850000005,
          "velocity": 0.9921259842519685,
          "duration": 0.545455000000004
        },
        {
          "name": "A#2",
          "midi": 46,
          "time": 112.9091850000005,
          "velocity": 0.9921259842519685,
          "duration": 0.545455000000004
        },
        {
          "name": "G4",
          "midi": 67,
          "time": 113.18191250000051,
          "velocity": 0.9921259842519685,
          "duration": 0.272727500000002
        },
        {
          "name": "D#4",
          "midi": 63,
          "time": 113.18191250000051,
          "velocity": 0.9921259842519685,
          "duration": 0.272727500000002
        },
        {
          "name": "D#4",
          "midi": 63,
          "time": 113.45464000000051,
          "velocity": 0.9921259842519685,
          "duration": 0.272727500000002
        },
        {
          "name": "A#3",
          "midi": 58,
          "time": 113.45464000000051,
          "velocity": 0.9921259842519685,
          "duration": 0.272727500000002
        },
        {
          "name": "G2",
          "midi": 43,
          "time": 113.45464000000051,
          "velocity": 0.9921259842519685,
          "duration": 1.090910000000008
        },
        {
          "name": "D#3",
          "midi": 51,
          "time": 113.45464000000051,
          "velocity": 0.9921259842519685,
          "duration": 0.545455000000004
        },
        {
          "name": "G4",
          "midi": 67,
          "time": 113.45464000000051,
          "velocity": 0.9921259842519685,
          "duration": 0.818182500000006
        },
        {
          "name": "G3",
          "midi": 55,
          "time": 113.45464000000051,
          "velocity": 0.9921259842519685,
          "duration": 0.272727500000002
        },
        {
          "name": "A#3",
          "midi": 58,
          "time": 113.72736750000051,
          "velocity": 0.9921259842519685,
          "duration": 0.136363750000001
        },
        {
          "name": "G3",
          "midi": 55,
          "time": 113.72736750000051,
          "velocity": 0.9921259842519685,
          "duration": 0.136363750000001
        },
        {
          "name": "A#3",
          "midi": 58,
          "time": 113.86373125000051,
          "velocity": 0.9921259842519685,
          "duration": 0.136363750000001
        },
        {
          "name": "G3",
          "midi": 55,
          "time": 113.86373125000051,
          "velocity": 0.9921259842519685,
          "duration": 0.681818750000005
        },
        {
          "name": "D#4",
          "midi": 63,
          "time": 114.00009500000051,
          "velocity": 0.9921259842519685,
          "duration": 0.272727500000002
        },
        {
          "name": "A#3",
          "midi": 58,
          "time": 114.00009500000051,
          "velocity": 0.9921259842519685,
          "duration": 0.272727500000002
        },
        {
          "name": "A#2",
          "midi": 46,
          "time": 114.00009500000051,
          "velocity": 0.9921259842519685,
          "duration": 0.545455000000004
        },
        {
          "name": "G4",
          "midi": 67,
          "time": 114.27282250000052,
          "velocity": 0.9921259842519685,
          "duration": 0.272727500000002
        },
        {
          "name": "D#4",
          "midi": 63,
          "time": 114.27282250000052,
          "velocity": 0.9921259842519685,
          "duration": 0.272727500000002
        },
        {
          "name": "D#4",
          "midi": 63,
          "time": 114.54555000000052,
          "velocity": 0.9921259842519685,
          "duration": 0.272727500000002
        },
        {
          "name": "A#3",
          "midi": 58,
          "time": 114.54555000000052,
          "velocity": 0.9921259842519685,
          "duration": 0.272727500000002
        },
        {
          "name": "G2",
          "midi": 43,
          "time": 114.54555000000052,
          "velocity": 0.9921259842519685,
          "duration": 1.090910000000008
        },
        {
          "name": "D#3",
          "midi": 51,
          "time": 114.54555000000052,
          "velocity": 0.9921259842519685,
          "duration": 0.545455000000004
        },
        {
          "name": "G4",
          "midi": 67,
          "time": 114.54555000000052,
          "velocity": 0.9921259842519685,
          "duration": 0.818182500000006
        },
        {
          "name": "G3",
          "midi": 55,
          "time": 114.54555000000052,
          "velocity": 0.9921259842519685,
          "duration": 0.272727500000002
        },
        {
          "name": "A#3",
          "midi": 58,
          "time": 114.81827750000052,
          "velocity": 0.9921259842519685,
          "duration": 0.136363750000001
        },
        {
          "name": "G3",
          "midi": 55,
          "time": 114.81827750000052,
          "velocity": 0.9921259842519685,
          "duration": 0.136363750000001
        },
        {
          "name": "A#3",
          "midi": 58,
          "time": 114.95464125000052,
          "velocity": 0.9921259842519685,
          "duration": 0.136363750000001
        },
        {
          "name": "G3",
          "midi": 55,
          "time": 114.95464125000052,
          "velocity": 0.9921259842519685,
          "duration": 0.136363750000001
        },
        {
          "name": "D#4",
          "midi": 63,
          "time": 115.09100500000052,
          "velocity": 0.9921259842519685,
          "duration": 0.272727500000002
        },
        {
          "name": "A#3",
          "midi": 58,
          "time": 115.09100500000052,
          "velocity": 0.9921259842519685,
          "duration": 0.272727500000002
        },
        {
          "name": "G2",
          "midi": 43,
          "time": 115.09100500000052,
          "velocity": 0.9921259842519685,
          "duration": 0.545455000000004
        },
        {
          "name": "G3",
          "midi": 55,
          "time": 115.09100500000052,
          "velocity": 0.9921259842519685,
          "duration": 0.545455000000004
        },
        {
          "name": "G4",
          "midi": 67,
          "time": 115.36373250000052,
          "velocity": 0.9921259842519685,
          "duration": 0.272727500000002
        },
        {
          "name": "D#4",
          "midi": 63,
          "time": 115.36373250000052,
          "velocity": 0.9921259842519685,
          "duration": 0.272727500000002
        },
        {
          "name": "F4",
          "midi": 65,
          "time": 115.63646000000053,
          "velocity": 0.9921259842519685,
          "duration": 0.272727500000002
        },
        {
          "name": "C4",
          "midi": 60,
          "time": 115.63646000000053,
          "velocity": 0.9921259842519685,
          "duration": 0.272727500000002
        },
        {
          "name": "F4",
          "midi": 65,
          "time": 115.63646000000053,
          "velocity": 0.9921259842519685,
          "duration": 0.272727500000002
        },
        {
          "name": "F2",
          "midi": 41,
          "time": 115.63646000000053,
          "velocity": 0.9921259842519685,
          "duration": 0.545455000000004
        },
        {
          "name": "F3",
          "midi": 53,
          "time": 115.63646000000053,
          "velocity": 0.9921259842519685,
          "duration": 0.545455000000004
        },
        {
          "name": "A#3",
          "midi": 58,
          "time": 117.81828000000053,
          "velocity": 0.9921259842519685,
          "duration": 0.409091250000003
        },
        {
          "name": "D#3",
          "midi": 51,
          "time": 117.81828000000053,
          "velocity": 0.9921259842519685,
          "duration": 1.0909099999999938
        },
        {
          "name": "C4",
          "midi": 60,
          "time": 118.22737125000053,
          "velocity": 0.9921259842519685,
          "duration": 0.0681818749999934
        },
        {
          "name": "D4",
          "midi": 62,
          "time": 118.29555312500052,
          "velocity": 0.9921259842519685,
          "duration": 0.0681818749999934
        },
        {
          "name": "D#4",
          "midi": 63,
          "time": 118.36373500000052,
          "velocity": 0.9921259842519685,
          "duration": 0.272727500000002
        },
        {
          "name": "G4",
          "midi": 67,
          "time": 118.63646250000052,
          "velocity": 0.9921259842519685,
          "duration": 0.272727500000002
        },
        {
          "name": "A#3",
          "midi": 58,
          "time": 118.90919000000052,
          "velocity": 0.9921259842519685,
          "duration": 0.409091250000003
        },
        {
          "name": "D#3",
          "midi": 51,
          "time": 118.90919000000052,
          "velocity": 0.9921259842519685,
          "duration": 1.0909099999999938
        },
        {
          "name": "C4",
          "midi": 60,
          "time": 119.31828125000052,
          "velocity": 0.9921259842519685,
          "duration": 0.0681818749999934
        },
        {
          "name": "D4",
          "midi": 62,
          "time": 119.38646312500052,
          "velocity": 0.9921259842519685,
          "duration": 0.0681818749999934
        },
        {
          "name": "D#4",
          "midi": 63,
          "time": 119.45464500000051,
          "velocity": 0.9921259842519685,
          "duration": 0.545455000000004
        },
        {
          "name": "A#3",
          "midi": 58,
          "time": 120.00010000000051,
          "velocity": 0.9921259842519685,
          "duration": 0.409091250000003
        },
        {
          "name": "D#3",
          "midi": 51,
          "time": 120.00010000000051,
          "velocity": 0.9921259842519685,
          "duration": 1.0909099999999938
        },
        {
          "name": "C4",
          "midi": 60,
          "time": 120.40919125000052,
          "velocity": 0.9921259842519685,
          "duration": 0.0681818749999934
        },
        {
          "name": "D4",
          "midi": 62,
          "time": 120.47737312500051,
          "velocity": 0.9921259842519685,
          "duration": 0.0681818749999934
        },
        {
          "name": "D#4",
          "midi": 63,
          "time": 120.5455550000005,
          "velocity": 0.9921259842519685,
          "duration": 0.272727500000002
        },
        {
          "name": "G4",
          "midi": 67,
          "time": 120.8182825000005,
          "velocity": 0.9921259842519685,
          "duration": 0.272727500000002
        },
        {
          "name": "A#2",
          "midi": 46,
          "time": 121.09101000000051,
          "velocity": 0.9921259842519685,
          "duration": 0.2727274999999736
        },
        {
          "name": "G#3",
          "midi": 56,
          "time": 121.09101000000051,
          "velocity": 0.9921259842519685,
          "duration": 0.0681818749999934
        },
        {
          "name": "F4",
          "midi": 65,
          "time": 121.09101000000051,
          "velocity": 0.9921259842519685,
          "duration": 0.0681818749999934
        },
        {
          "name": "A#3",
          "midi": 58,
          "time": 121.1591918750005,
          "velocity": 0.9921259842519685,
          "duration": 0.0681818749999934
        },
        {
          "name": "G4",
          "midi": 67,
          "time": 121.1591918750005,
          "velocity": 0.9921259842519685,
          "duration": 0.0681818749999934
        },
        {
          "name": "G#3",
          "midi": 56,
          "time": 121.2273737500005,
          "velocity": 0.9921259842519685,
          "duration": 0.0681818749999934
        },
        {
          "name": "F4",
          "midi": 65,
          "time": 121.2273737500005,
          "velocity": 0.9921259842519685,
          "duration": 0.0681818749999934
        },
        {
          "name": "A#3",
          "midi": 58,
          "time": 121.29555562500049,
          "velocity": 0.9921259842519685,
          "duration": 0.0681818749999934
        },
        {
          "name": "G4",
          "midi": 67,
          "time": 121.29555562500049,
          "velocity": 0.9921259842519685,
          "duration": 0.0681818749999934
        },
        {
          "name": "F4",
          "midi": 65,
          "time": 121.36373750000048,
          "velocity": 0.9921259842519685,
          "duration": 0.0681818749999934
        },
        {
          "name": "G#3",
          "midi": 56,
          "time": 121.36373750000048,
          "velocity": 0.9921259842519685,
          "duration": 0.0681818749999934
        },
        {
          "name": "D3",
          "midi": 50,
          "time": 121.36373750000048,
          "velocity": 0.9921259842519685,
          "duration": 0.2727274999999736
        },
        {
          "name": "G4",
          "midi": 67,
          "time": 121.43191937500048,
          "velocity": 0.9921259842519685,
          "duration": 0.0681818749999934
        },
        {
          "name": "A#3",
          "midi": 58,
          "time": 121.43191937500048,
          "velocity": 0.9921259842519685,
          "duration": 0.0681818749999934
        },
        {
          "name": "F4",
          "midi": 65,
          "time": 121.50010125000047,
          "velocity": 0.9921259842519685,
          "duration": 0.0681818749999934
        },
        {
          "name": "G#3",
          "midi": 56,
          "time": 121.50010125000047,
          "velocity": 0.9921259842519685,
          "duration": 0.0681818749999934
        },
        {
          "name": "G4",
          "midi": 67,
          "time": 121.56828312500046,
          "velocity": 0.9921259842519685,
          "duration": 0.0681818749999934
        },
        {
          "name": "A#3",
          "midi": 58,
          "time": 121.56828312500046,
          "velocity": 0.9921259842519685,
          "duration": 0.0681818749999934
        },
        {
          "name": "D#4",
          "midi": 63,
          "time": 121.63646500000046,
          "velocity": 0.9921259842519685,
          "duration": 0.545455000000004
        },
        {
          "name": "D#3",
          "midi": 51,
          "time": 121.63646500000046,
          "velocity": 0.9921259842519685,
          "duration": 0.545455000000004
        },
        {
          "name": "A#3",
          "midi": 58,
          "time": 122.18192000000046,
          "velocity": 0.9921259842519685,
          "duration": 0.409091250000003
        },
        {
          "name": "D#3",
          "midi": 51,
          "time": 122.18192000000046,
          "velocity": 0.9921259842519685,
          "duration": 1.0909099999999938
        },
        {
          "name": "C4",
          "midi": 60,
          "time": 122.59101125000046,
          "velocity": 0.9921259842519685,
          "duration": 0.0681818749999934
        },
        {
          "name": "D4",
          "midi": 62,
          "time": 122.65919312500046,
          "velocity": 0.9921259842519685,
          "duration": 0.0681818749999934
        },
        {
          "name": "D#4",
          "midi": 63,
          "time": 122.72737500000045,
          "velocity": 0.9921259842519685,
          "duration": 0.272727500000002
        },
        {
          "name": "G4",
          "midi": 67,
          "time": 123.00010250000045,
          "velocity": 0.9921259842519685,
          "duration": 0.272727500000002
        },
        {
          "name": "A#3",
          "midi": 58,
          "time": 123.27283000000045,
          "velocity": 0.9921259842519685,
          "duration": 0.409091250000003
        },
        {
          "name": "D#3",
          "midi": 51,
          "time": 123.27283000000045,
          "velocity": 0.9921259842519685,
          "duration": 1.0909099999999938
        },
        {
          "name": "C4",
          "midi": 60,
          "time": 123.68192125000046,
          "velocity": 0.9921259842519685,
          "duration": 0.0681818749999934
        },
        {
          "name": "D4",
          "midi": 62,
          "time": 123.75010312500045,
          "velocity": 0.9921259842519685,
          "duration": 0.0681818749999934
        },
        {
          "name": "D#4",
          "midi": 63,
          "time": 123.81828500000044,
          "velocity": 0.9921259842519685,
          "duration": 0.545455000000004
        },
        {
          "name": "G4",
          "midi": 67,
          "time": 124.36374000000045,
          "velocity": 0.9921259842519685,
          "duration": 0.272727500000002
        },
        {
          "name": "A#3",
          "midi": 58,
          "time": 124.36374000000045,
          "velocity": 0.9921259842519685,
          "duration": 0.272727500000002
        },
        {
          "name": "D#3",
          "midi": 51,
          "time": 124.36374000000045,
          "velocity": 0.9921259842519685,
          "duration": 1.090910000000008
        },
        {
          "name": "G3",
          "midi": 55,
          "time": 124.63646750000045,
          "velocity": 0.9921259842519685,
          "duration": 0.272727500000002
        },
        {
          "name": "D#4",
          "midi": 63,
          "time": 124.63646750000045,
          "velocity": 0.9921259842519685,
          "duration": 0.272727500000002
        },
        {
          "name": "A#3",
          "midi": 58,
          "time": 124.90919500000045,
          "velocity": 0.9921259842519685,
          "duration": 0.272727500000002
        },
        {
          "name": "G4",
          "midi": 67,
          "time": 124.90919500000045,
          "velocity": 0.9921259842519685,
          "duration": 0.272727500000002
        },
        {
          "name": "G3",
          "midi": 55,
          "time": 125.18192250000045,
          "velocity": 0.9921259842519685,
          "duration": 0.272727500000002
        },
        {
          "name": "D#4",
          "midi": 63,
          "time": 125.18192250000045,
          "velocity": 0.9921259842519685,
          "duration": 0.272727500000002
        },
        {
          "name": "A#2",
          "midi": 46,
          "time": 125.45465000000046,
          "velocity": 0.9921259842519685,
          "duration": 0.2727274999999736
        },
        {
          "name": "G#3",
          "midi": 56,
          "time": 125.45465000000046,
          "velocity": 0.9921259842519685,
          "duration": 0.0681818749999934
        },
        {
          "name": "F4",
          "midi": 65,
          "time": 125.45465000000046,
          "velocity": 0.9921259842519685,
          "duration": 0.0681818749999934
        },
        {
          "name": "A#3",
          "midi": 58,
          "time": 125.52283187500045,
          "velocity": 0.9921259842519685,
          "duration": 0.0681818749999934
        },
        {
          "name": "G4",
          "midi": 67,
          "time": 125.52283187500045,
          "velocity": 0.9921259842519685,
          "duration": 0.0681818749999934
        },
        {
          "name": "G#3",
          "midi": 56,
          "time": 125.59101375000044,
          "velocity": 0.9921259842519685,
          "duration": 0.0681818749999934
        },
        {
          "name": "F4",
          "midi": 65,
          "time": 125.59101375000044,
          "velocity": 0.9921259842519685,
          "duration": 0.0681818749999934
        },
        {
          "name": "A#3",
          "midi": 58,
          "time": 125.65919562500044,
          "velocity": 0.9921259842519685,
          "duration": 0.0681818749999934
        },
        {
          "name": "G4",
          "midi": 67,
          "time": 125.65919562500044,
          "velocity": 0.9921259842519685,
          "duration": 0.0681818749999934
        },
        {
          "name": "F4",
          "midi": 65,
          "time": 125.72737750000043,
          "velocity": 0.9921259842519685,
          "duration": 0.0681818749999934
        },
        {
          "name": "G#3",
          "midi": 56,
          "time": 125.72737750000043,
          "velocity": 0.9921259842519685,
          "duration": 0.0681818749999934
        },
        {
          "name": "D3",
          "midi": 50,
          "time": 125.72737750000043,
          "velocity": 0.9921259842519685,
          "duration": 0.2727274999999736
        },
        {
          "name": "G4",
          "midi": 67,
          "time": 125.79555937500042,
          "velocity": 0.9921259842519685,
          "duration": 0.0681818749999934
        },
        {
          "name": "A#3",
          "midi": 58,
          "time": 125.79555937500042,
          "velocity": 0.9921259842519685,
          "duration": 0.0681818749999934
        },
        {
          "name": "F4",
          "midi": 65,
          "time": 125.86374125000042,
          "velocity": 0.9921259842519685,
          "duration": 0.0681818749999934
        },
        {
          "name": "G#3",
          "midi": 56,
          "time": 125.86374125000042,
          "velocity": 0.9921259842519685,
          "duration": 0.0681818749999934
        },
        {
          "name": "G4",
          "midi": 67,
          "time": 125.93192312500041,
          "velocity": 0.9921259842519685,
          "duration": 0.0681818749999934
        },
        {
          "name": "A#3",
          "midi": 58,
          "time": 125.93192312500041,
          "velocity": 0.9921259842519685,
          "duration": 0.0681818749999934
        },
        {
          "name": "D#4",
          "midi": 63,
          "time": 126.0001050000004,
          "velocity": 0.9921259842519685,
          "duration": 0.545455000000004
        },
        {
          "name": "D#3",
          "midi": 51,
          "time": 126.0001050000004,
          "velocity": 0.9921259842519685,
          "duration": 0.545455000000004
        },
        {
          "name": "G4",
          "midi": 67,
          "time": 126.5455600000004,
          "velocity": 0.9921259842519685,
          "duration": 0.272727500000002
        },
        {
          "name": "D#4",
          "midi": 63,
          "time": 126.5455600000004,
          "velocity": 0.9921259842519685,
          "duration": 0.272727500000002
        },
        {
          "name": "A#3",
          "midi": 58,
          "time": 126.5455600000004,
          "velocity": 0.9921259842519685,
          "duration": 0.272727500000002
        },
        {
          "name": "D#3",
          "midi": 51,
          "time": 126.5455600000004,
          "velocity": 0.9921259842519685,
          "duration": 0.272727500000002
        },
        {
          "name": "G4",
          "midi": 67,
          "time": 126.81828750000041,
          "velocity": 0.9921259842519685,
          "duration": 0.272727500000002
        },
        {
          "name": "D#4",
          "midi": 63,
          "time": 126.81828750000041,
          "velocity": 0.9921259842519685,
          "duration": 0.272727500000002
        },
        {
          "name": "A#3",
          "midi": 58,
          "time": 126.81828750000041,
          "velocity": 0.9921259842519685,
          "duration": 0.272727500000002
        },
        {
          "name": "A#2",
          "midi": 46,
          "time": 126.81828750000041,
          "velocity": 0.9921259842519685,
          "duration": 0.272727500000002
        },
        {
          "name": "G4",
          "midi": 67,
          "time": 127.09101500000041,
          "velocity": 0.9921259842519685,
          "duration": 0.545455000000004
        },
        {
          "name": "D#4",
          "midi": 63,
          "time": 127.09101500000041,
          "velocity": 0.9921259842519685,
          "duration": 0.545455000000004
        },
        {
          "name": "A#3",
          "midi": 58,
          "time": 127.09101500000041,
          "velocity": 0.9921259842519685,
          "duration": 0.545455000000004
        },
        {
          "name": "D#3",
          "midi": 51,
          "time": 127.09101500000041,
          "velocity": 0.9921259842519685,
          "duration": 0.272727500000002
        },
        {
          "name": "A#2",
          "midi": 46,
          "time": 127.36374250000041,
          "velocity": 0.9921259842519685,
          "duration": 0.272727500000002
        },
        {
          "name": "G4",
          "midi": 67,
          "time": 127.63647000000041,
          "velocity": 0.9921259842519685,
          "duration": 0.136363750000001
        },
        {
          "name": "A#3",
          "midi": 58,
          "time": 127.63647000000041,
          "velocity": 0.9921259842519685,
          "duration": 0.136363750000001
        },
        {
          "name": "D#3",
          "midi": 51,
          "time": 127.63647000000041,
          "velocity": 0.9921259842519685,
          "duration": 0.272727500000002
        },
        {
          "name": "G#4",
          "midi": 68,
          "time": 127.77283375000042,
          "velocity": 0.9921259842519685,
          "duration": 0.136363750000001
        },
        {
          "name": "C4",
          "midi": 60,
          "time": 127.77283375000042,
          "velocity": 0.9921259842519685,
          "duration": 0.136363750000001
        },
        {
          "name": "G4",
          "midi": 67,
          "time": 127.90919750000042,
          "velocity": 0.9921259842519685,
          "duration": 0.136363750000001
        },
        {
          "name": "A#3",
          "midi": 58,
          "time": 127.90919750000042,
          "velocity": 0.9921259842519685,
          "duration": 0.136363750000001
        },
        {
          "name": "A#2",
          "midi": 46,
          "time": 127.90919750000042,
          "velocity": 0.9921259842519685,
          "duration": 0.2727274999999878
        },
        {
          "name": "F4",
          "midi": 65,
          "time": 128.04556125000042,
          "velocity": 0.9921259842519685,
          "duration": 0.1363637499999868
        },
        {
          "name": "G#3",
          "midi": 56,
          "time": 128.04556125000042,
          "velocity": 0.9921259842519685,
          "duration": 0.1363637499999868
        },
        {
          "name": "D#4",
          "midi": 63,
          "time": 128.1819250000004,
          "velocity": 0.9921259842519685,
          "duration": 0.545455000000004
        },
        {
          "name": "G3",
          "midi": 55,
          "time": 128.1819250000004,
          "velocity": 0.9921259842519685,
          "duration": 0.545455000000004
        },
        {
          "name": "D#3",
          "midi": 51,
          "time": 128.1819250000004,
          "velocity": 0.9921259842519685,
          "duration": 0.272727500000002
        },
        {
          "name": "A#2",
          "midi": 46,
          "time": 128.4546525000004,
          "velocity": 0.9921259842519685,
          "duration": 0.272727500000002
        },
        {
          "name": "A#4",
          "midi": 70,
          "time": 128.7273800000004,
          "velocity": 0.9921259842519685,
          "duration": 0.272727500000002
        },
        {
          "name": "A#3",
          "midi": 58,
          "time": 128.7273800000004,
          "velocity": 0.9921259842519685,
          "duration": 0.272727500000002
        },
        {
          "name": "D#4",
          "midi": 63,
          "time": 128.7273800000004,
          "velocity": 0.9921259842519685,
          "duration": 0.272727500000002
        },
        {
          "name": "G3",
          "midi": 55,
          "time": 128.7273800000004,
          "velocity": 0.9921259842519685,
          "duration": 0.272727500000002
        },
        {
          "name": "G2",
          "midi": 43,
          "time": 128.7273800000004,
          "velocity": 0.9921259842519685,
          "duration": 0.272727500000002
        },
        {
          "name": "A#4",
          "midi": 70,
          "time": 129.0001075000004,
          "velocity": 0.9921259842519685,
          "duration": 0.272727500000002
        },
        {
          "name": "A#3",
          "midi": 58,
          "time": 129.0001075000004,
          "velocity": 0.9921259842519685,
          "duration": 0.272727500000002
        },
        {
          "name": "D#4",
          "midi": 63,
          "time": 129.0001075000004,
          "velocity": 0.9921259842519685,
          "duration": 0.272727500000002
        },
        {
          "name": "D#3",
          "midi": 51,
          "time": 129.0001075000004,
          "velocity": 0.9921259842519685,
          "duration": 0.272727500000002
        },
        {
          "name": "A#4",
          "midi": 70,
          "time": 129.2728350000004,
          "velocity": 0.9921259842519685,
          "duration": 0.545455000000004
        },
        {
          "name": "A#3",
          "midi": 58,
          "time": 129.2728350000004,
          "velocity": 0.9921259842519685,
          "duration": 0.545455000000004
        },
        {
          "name": "D#4",
          "midi": 63,
          "time": 129.2728350000004,
          "velocity": 0.9921259842519685,
          "duration": 0.545455000000004
        },
        {
          "name": "G3",
          "midi": 55,
          "time": 129.2728350000004,
          "velocity": 0.9921259842519685,
          "duration": 0.272727500000002
        },
        {
          "name": "G2",
          "midi": 43,
          "time": 129.2728350000004,
          "velocity": 0.9921259842519685,
          "duration": 0.272727500000002
        },
        {
          "name": "D#3",
          "midi": 51,
          "time": 129.54556250000041,
          "velocity": 0.9921259842519685,
          "duration": 0.272727500000002
        },
        {
          "name": "A#4",
          "midi": 70,
          "time": 129.81829000000042,
          "velocity": 0.9921259842519685,
          "duration": 0.1363637499999868
        },
        {
          "name": "D4",
          "midi": 62,
          "time": 129.81829000000042,
          "velocity": 0.9921259842519685,
          "duration": 0.1363637499999868
        },
        {
          "name": "A#3",
          "midi": 58,
          "time": 129.81829000000042,
          "velocity": 0.9921259842519685,
          "duration": 0.1363637499999868
        },
        {
          "name": "G3",
          "midi": 55,
          "time": 129.81829000000042,
          "velocity": 0.9921259842519685,
          "duration": 0.2727274999999736
        },
        {
          "name": "G2",
          "midi": 43,
          "time": 129.81829000000042,
          "velocity": 0.9921259842519685,
          "duration": 0.2727274999999736
        },
        {
          "name": "C5",
          "midi": 72,
          "time": 129.9546537500004,
          "velocity": 0.9921259842519685,
          "duration": 0.1363637499999868
        },
        {
          "name": "D#4",
          "midi": 63,
          "time": 129.9546537500004,
          "velocity": 0.9921259842519685,
          "duration": 0.1363637499999868
        },
        {
          "name": "C4",
          "midi": 60,
          "time": 129.9546537500004,
          "velocity": 0.9921259842519685,
          "duration": 0.1363637499999868
        },
        {
          "name": "A#4",
          "midi": 70,
          "time": 130.0910175000004,
          "velocity": 0.9921259842519685,
          "duration": 0.1363637499999868
        },
        {
          "name": "D4",
          "midi": 62,
          "time": 130.0910175000004,
          "velocity": 0.9921259842519685,
          "duration": 0.1363637499999868
        },
        {
          "name": "A#3",
          "midi": 58,
          "time": 130.0910175000004,
          "velocity": 0.9921259842519685,
          "duration": 0.1363637499999868
        },
        {
          "name": "D#3",
          "midi": 51,
          "time": 130.0910175000004,
          "velocity": 0.9921259842519685,
          "duration": 0.2727274999999736
        },
        {
          "name": "G#4",
          "midi": 68,
          "time": 130.22738125000038,
          "velocity": 0.9921259842519685,
          "duration": 0.1363637499999868
        },
        {
          "name": "C4",
          "midi": 60,
          "time": 130.22738125000038,
          "velocity": 0.9921259842519685,
          "duration": 0.1363637499999868
        },
        {
          "name": "A#3",
          "midi": 58,
          "time": 130.22738125000038,
          "velocity": 0.9921259842519685,
          "duration": 0.1363637499999868
        },
        {
          "name": "G4",
          "midi": 67,
          "time": 130.36374500000036,
          "velocity": 0.9921259842519685,
          "duration": 0.545455000000004
        },
        {
          "name": "A#3",
          "midi": 58,
          "time": 130.36374500000036,
          "velocity": 0.9921259842519685,
          "duration": 0.545455000000004
        },
        {
          "name": "G2",
          "midi": 43,
          "time": 130.36374500000036,
          "velocity": 0.9921259842519685,
          "duration": 0.272727500000002
        },
        {
          "name": "G3",
          "midi": 55,
          "time": 130.36374500000036,
          "velocity": 0.9921259842519685,
          "duration": 0.272727500000002
        },
        {
          "name": "D#3",
          "midi": 51,
          "time": 130.63647250000037,
          "velocity": 0.9921259842519685,
          "duration": 0.272727500000002
        },
        {
          "name": "G4",
          "midi": 67,
          "time": 130.90920000000037,
          "velocity": 0.9921259842519685,
          "duration": 0.272727500000002
        },
        {
          "name": "A#3",
          "midi": 58,
          "time": 130.90920000000037,
          "velocity": 0.9921259842519685,
          "duration": 0.272727500000002
        },
        {
          "name": "D#4",
          "midi": 63,
          "time": 130.90920000000037,
          "velocity": 0.9921259842519685,
          "duration": 0.272727500000002
        },
        {
          "name": "D#3",
          "midi": 51,
          "time": 130.90920000000037,
          "velocity": 0.9921259842519685,
          "duration": 0.272727500000002
        },
        {
          "name": "G4",
          "midi": 67,
          "time": 131.18192750000037,
          "velocity": 0.9921259842519685,
          "duration": 0.272727500000002
        },
        {
          "name": "D#4",
          "midi": 63,
          "time": 131.18192750000037,
          "velocity": 0.9921259842519685,
          "duration": 0.272727500000002
        },
        {
          "name": "A#3",
          "midi": 58,
          "time": 131.18192750000037,
          "velocity": 0.9921259842519685,
          "duration": 0.272727500000002
        },
        {
          "name": "A#2",
          "midi": 46,
          "time": 131.18192750000037,
          "velocity": 0.9921259842519685,
          "duration": 0.272727500000002
        },
        {
          "name": "G4",
          "midi": 67,
          "time": 131.45465500000037,
          "velocity": 0.9921259842519685,
          "duration": 0.545455000000004
        },
        {
          "name": "D#4",
          "midi": 63,
          "time": 131.45465500000037,
          "velocity": 0.9921259842519685,
          "duration": 0.545455000000004
        },
        {
          "name": "A#3",
          "midi": 58,
          "time": 131.45465500000037,
          "velocity": 0.9921259842519685,
          "duration": 0.545455000000004
        },
        {
          "name": "D#3",
          "midi": 51,
          "time": 131.45465500000037,
          "velocity": 0.9921259842519685,
          "duration": 0.272727500000002
        },
        {
          "name": "A#2",
          "midi": 46,
          "time": 131.72738250000037,
          "velocity": 0.9921259842519685,
          "duration": 0.272727500000002
        },
        {
          "name": "D#3",
          "midi": 51,
          "time": 132.00011000000038,
          "velocity": 0.9921259842519685,
          "duration": 0.2727274999999736
        },
        {
          "name": "A#3",
          "midi": 58,
          "time": 132.00011000000038,
          "velocity": 0.9921259842519685,
          "duration": 0.1363637499999868
        },
        {
          "name": "G4",
          "midi": 67,
          "time": 132.00011000000038,
          "velocity": 0.9921259842519685,
          "duration": 0.1363637499999868
        },
        {
          "name": "C4",
          "midi": 60,
          "time": 132.13647375000036,
          "velocity": 0.9921259842519685,
          "duration": 0.1363637499999868
        },
        {
          "name": "G#4",
          "midi": 68,
          "time": 132.13647375000036,
          "velocity": 0.9921259842519685,
          "duration": 0.1363637499999868
        },
        {
          "name": "A#2",
          "midi": 46,
          "time": 132.27283750000035,
          "velocity": 0.9921259842519685,
          "duration": 0.2727274999999736
        },
        {
          "name": "A#3",
          "midi": 58,
          "time": 132.27283750000035,
          "velocity": 0.9921259842519685,
          "duration": 0.1363637499999868
        },
        {
          "name": "G4",
          "midi": 67,
          "time": 132.27283750000035,
          "velocity": 0.9921259842519685,
          "duration": 0.1363637499999868
        },
        {
          "name": "G#3",
          "midi": 56,
          "time": 132.40920125000034,
          "velocity": 0.9921259842519685,
          "duration": 0.1363637499999868
        },
        {
          "name": "F4",
          "midi": 65,
          "time": 132.40920125000034,
          "velocity": 0.9921259842519685,
          "duration": 0.1363637499999868
        },
        {
          "name": "D#3",
          "midi": 51,
          "time": 132.54556500000032,
          "velocity": 0.9921259842519685,
          "duration": 0.272727500000002
        },
        {
          "name": "G3",
          "midi": 55,
          "time": 132.54556500000032,
          "velocity": 0.9921259842519685,
          "duration": 0.545455000000004
        },
        {
          "name": "D#4",
          "midi": 63,
          "time": 132.54556500000032,
          "velocity": 0.9921259842519685,
          "duration": 0.545455000000004
        },
        {
          "name": "A#2",
          "midi": 46,
          "time": 132.81829250000033,
          "velocity": 0.9921259842519685,
          "duration": 0.272727500000002
        },
        {
          "name": "D3",
          "midi": 50,
          "time": 133.09102000000033,
          "velocity": 0.9921259842519685,
          "duration": 0.2727274999999736
        },
        {
          "name": "G#3",
          "midi": 56,
          "time": 133.09102000000033,
          "velocity": 0.9921259842519685,
          "duration": 0.0681818749999934
        },
        {
          "name": "F4",
          "midi": 65,
          "time": 133.09102000000033,
          "velocity": 0.9921259842519685,
          "duration": 0.0681818749999934
        },
        {
          "name": "A#3",
          "midi": 58,
          "time": 133.15920187500032,
          "velocity": 0.9921259842519685,
          "duration": 0.0681818749999934
        },
        {
          "name": "G4",
          "midi": 67,
          "time": 133.15920187500032,
          "velocity": 0.9921259842519685,
          "duration": 0.0681818749999934
        },
        {
          "name": "G#3",
          "midi": 56,
          "time": 133.2273837500003,
          "velocity": 0.9921259842519685,
          "duration": 0.0681818749999934
        },
        {
          "name": "F4",
          "midi": 65,
          "time": 133.2273837500003,
          "velocity": 0.9921259842519685,
          "duration": 0.0681818749999934
        },
        {
          "name": "A#3",
          "midi": 58,
          "time": 133.2955656250003,
          "velocity": 0.9921259842519685,
          "duration": 0.0681818749999934
        },
        {
          "name": "G4",
          "midi": 67,
          "time": 133.2955656250003,
          "velocity": 0.9921259842519685,
          "duration": 0.0681818749999934
        },
        {
          "name": "A#2",
          "midi": 46,
          "time": 133.3637475000003,
          "velocity": 0.9921259842519685,
          "duration": 0.2727274999999736
        },
        {
          "name": "G#3",
          "midi": 56,
          "time": 133.3637475000003,
          "velocity": 0.9921259842519685,
          "duration": 0.0681818749999934
        },
        {
          "name": "F4",
          "midi": 65,
          "time": 133.3637475000003,
          "velocity": 0.9921259842519685,
          "duration": 0.0681818749999934
        },
        {
          "name": "A#3",
          "midi": 58,
          "time": 133.4319293750003,
          "velocity": 0.9921259842519685,
          "duration": 0.0681818749999934
        },
        {
          "name": "G4",
          "midi": 67,
          "time": 133.4319293750003,
          "velocity": 0.9921259842519685,
          "duration": 0.0681818749999934
        },
        {
          "name": "G#3",
          "midi": 56,
          "time": 133.5001112500003,
          "velocity": 0.9921259842519685,
          "duration": 0.0681818749999934
        },
        {
          "name": "F4",
          "midi": 65,
          "time": 133.5001112500003,
          "velocity": 0.9921259842519685,
          "duration": 0.0681818749999934
        },
        {
          "name": "A#3",
          "midi": 58,
          "time": 133.56829312500028,
          "velocity": 0.9921259842519685,
          "duration": 0.0681818749999934
        },
        {
          "name": "G4",
          "midi": 67,
          "time": 133.56829312500028,
          "velocity": 0.9921259842519685,
          "duration": 0.0681818749999934
        },
        {
          "name": "F4",
          "midi": 65,
          "time": 133.63647500000027,
          "velocity": 0.9921259842519685,
          "duration": 0.0681818749999934
        },
        {
          "name": "G#3",
          "midi": 56,
          "time": 133.63647500000027,
          "velocity": 0.9921259842519685,
          "duration": 0.0681818749999934
        },
        {
          "name": "D3",
          "midi": 50,
          "time": 133.63647500000027,
          "velocity": 0.9921259842519685,
          "duration": 0.2727274999999736
        },
        {
          "name": "G4",
          "midi": 67,
          "time": 133.70465687500027,
          "velocity": 0.9921259842519685,
          "duration": 0.0681818749999934
        },
        {
          "name": "A#3",
          "midi": 58,
          "time": 133.70465687500027,
          "velocity": 0.9921259842519685,
          "duration": 0.0681818749999934
        },
        {
          "name": "F4",
          "midi": 65,
          "time": 133.77283875000026,
          "velocity": 0.9921259842519685,
          "duration": 0.0681818749999934
        },
        {
          "name": "G#3",
          "midi": 56,
          "time": 133.77283875000026,
          "velocity": 0.9921259842519685,
          "duration": 0.0681818749999934
        },
        {
          "name": "G4",
          "midi": 67,
          "time": 133.84102062500025,
          "velocity": 0.9921259842519685,
          "duration": 0.0681818749999934
        },
        {
          "name": "A#3",
          "midi": 58,
          "time": 133.84102062500025,
          "velocity": 0.9921259842519685,
          "duration": 0.0681818749999934
        },
        {
          "name": "F4",
          "midi": 65,
          "time": 133.90920250000025,
          "velocity": 0.9921259842519685,
          "duration": 0.0681818749999934
        },
        {
          "name": "G#3",
          "midi": 56,
          "time": 133.90920250000025,
          "velocity": 0.9921259842519685,
          "duration": 0.0681818749999934
        },
        {
          "name": "A#2",
          "midi": 46,
          "time": 133.90920250000025,
          "velocity": 0.9921259842519685,
          "duration": 0.2727274999999736
        },
        {
          "name": "G4",
          "midi": 67,
          "time": 133.97738437500024,
          "velocity": 0.9921259842519685,
          "duration": 0.0681818749999934
        },
        {
          "name": "A#3",
          "midi": 58,
          "time": 133.97738437500024,
          "velocity": 0.9921259842519685,
          "duration": 0.0681818749999934
        },
        {
          "name": "F4",
          "midi": 65,
          "time": 134.04556625000023,
          "velocity": 0.9921259842519685,
          "duration": 0.0681818749999934
        },
        {
          "name": "G#3",
          "midi": 56,
          "time": 134.04556625000023,
          "velocity": 0.9921259842519685,
          "duration": 0.0681818749999934
        },
        {
          "name": "G4",
          "midi": 67,
          "time": 134.11374812500023,
          "velocity": 0.9921259842519685,
          "duration": 0.0681818749999934
        },
        {
          "name": "A#3",
          "midi": 58,
          "time": 134.11374812500023,
          "velocity": 0.9921259842519685,
          "duration": 0.0681818749999934
        },
        {
          "name": "D#4",
          "midi": 63,
          "time": 134.18193000000022,
          "velocity": 0.9921259842519685,
          "duration": 0.272727500000002
        },
        {
          "name": "D#3",
          "midi": 51,
          "time": 134.18193000000022,
          "velocity": 0.9921259842519685,
          "duration": 0.272727500000002
        },
        {
          "name": "A#2",
          "midi": 46,
          "time": 134.45465750000022,
          "velocity": 0.9921259842519685,
          "duration": 0.272727500000002
        },
        {
          "name": "A#3",
          "midi": 58,
          "time": 135.27284000000023,
          "velocity": 0.9921259842519685,
          "duration": 0.4090912499999888
        },
        {
          "name": "D#3",
          "midi": 51,
          "time": 135.27284000000023,
          "velocity": 0.9921259842519685,
          "duration": 1.0909099999999796
        },
        {
          "name": "C4",
          "midi": 60,
          "time": 135.68193125000022,
          "velocity": 0.9921259842519685,
          "duration": 0.0681818749999934
        },
        {
          "name": "D4",
          "midi": 62,
          "time": 135.7501131250002,
          "velocity": 0.9921259842519685,
          "duration": 0.0681818749999934
        },
        {
          "name": "D#4",
          "midi": 63,
          "time": 135.8182950000002,
          "velocity": 0.9921259842519685,
          "duration": 0.272727500000002
        },
        {
          "name": "G4",
          "midi": 67,
          "time": 136.0910225000002,
          "velocity": 0.9921259842519685,
          "duration": 0.272727500000002
        },
        {
          "name": "A#3",
          "midi": 58,
          "time": 136.3637500000002,
          "velocity": 0.9921259842519685,
          "duration": 0.4090912499999888
        },
        {
          "name": "D#3",
          "midi": 51,
          "time": 136.3637500000002,
          "velocity": 0.9921259842519685,
          "duration": 1.0909099999999796
        },
        {
          "name": "C4",
          "midi": 60,
          "time": 136.7728412500002,
          "velocity": 0.9921259842519685,
          "duration": 0.0681818749999934
        },
        {
          "name": "D4",
          "midi": 62,
          "time": 136.8410231250002,
          "velocity": 0.9921259842519685,
          "duration": 0.0681818749999934
        },
        {
          "name": "D#4",
          "midi": 63,
          "time": 136.90920500000018,
          "velocity": 0.9921259842519685,
          "duration": 0.545455000000004
        },
        {
          "name": "A#3",
          "midi": 58,
          "time": 137.4546600000002,
          "velocity": 0.9921259842519685,
          "duration": 0.4090912499999888
        },
        {
          "name": "D#3",
          "midi": 51,
          "time": 137.4546600000002,
          "velocity": 0.9921259842519685,
          "duration": 1.0909099999999796
        },
        {
          "name": "C4",
          "midi": 60,
          "time": 137.86375125000018,
          "velocity": 0.9921259842519685,
          "duration": 0.0681818749999934
        },
        {
          "name": "D4",
          "midi": 62,
          "time": 137.93193312500017,
          "velocity": 0.9921259842519685,
          "duration": 0.0681818749999934
        },
        {
          "name": "D#4",
          "midi": 63,
          "time": 138.00011500000016,
          "velocity": 0.9921259842519685,
          "duration": 0.272727500000002
        },
        {
          "name": "G4",
          "midi": 67,
          "time": 138.27284250000017,
          "velocity": 0.9921259842519685,
          "duration": 0.272727500000002
        },
        {
          "name": "A#2",
          "midi": 46,
          "time": 138.54557000000017,
          "velocity": 0.9921259842519685,
          "duration": 0.2727274999999736
        },
        {
          "name": "G#3",
          "midi": 56,
          "time": 138.54557000000017,
          "velocity": 0.9921259842519685,
          "duration": 0.0681818749999934
        },
        {
          "name": "F4",
          "midi": 65,
          "time": 138.54557000000017,
          "velocity": 0.9921259842519685,
          "duration": 0.0681818749999934
        },
        {
          "name": "A#3",
          "midi": 58,
          "time": 138.61375187500016,
          "velocity": 0.9921259842519685,
          "duration": 0.0681818749999934
        },
        {
          "name": "G4",
          "midi": 67,
          "time": 138.61375187500016,
          "velocity": 0.9921259842519685,
          "duration": 0.0681818749999934
        },
        {
          "name": "G#3",
          "midi": 56,
          "time": 138.68193375000016,
          "velocity": 0.9921259842519685,
          "duration": 0.0681818749999934
        },
        {
          "name": "F4",
          "midi": 65,
          "time": 138.68193375000016,
          "velocity": 0.9921259842519685,
          "duration": 0.0681818749999934
        },
        {
          "name": "A#3",
          "midi": 58,
          "time": 138.75011562500015,
          "velocity": 0.9921259842519685,
          "duration": 0.0681818749999934
        },
        {
          "name": "G4",
          "midi": 67,
          "time": 138.75011562500015,
          "velocity": 0.9921259842519685,
          "duration": 0.0681818749999934
        },
        {
          "name": "F4",
          "midi": 65,
          "time": 138.81829750000014,
          "velocity": 0.9921259842519685,
          "duration": 0.0681818749999934
        },
        {
          "name": "G#3",
          "midi": 56,
          "time": 138.81829750000014,
          "velocity": 0.9921259842519685,
          "duration": 0.0681818749999934
        },
        {
          "name": "D3",
          "midi": 50,
          "time": 138.81829750000014,
          "velocity": 0.9921259842519685,
          "duration": 0.2727274999999736
        },
        {
          "name": "G4",
          "midi": 67,
          "time": 138.88647937500014,
          "velocity": 0.9921259842519685,
          "duration": 0.0681818749999934
        },
        {
          "name": "A#3",
          "midi": 58,
          "time": 138.88647937500014,
          "velocity": 0.9921259842519685,
          "duration": 0.0681818749999934
        },
        {
          "name": "F4",
          "midi": 65,
          "time": 138.95466125000013,
          "velocity": 0.9921259842519685,
          "duration": 0.0681818749999934
        },
        {
          "name": "G#3",
          "midi": 56,
          "time": 138.95466125000013,
          "velocity": 0.9921259842519685,
          "duration": 0.0681818749999934
        },
        {
          "name": "G4",
          "midi": 67,
          "time": 139.02284312500012,
          "velocity": 0.9921259842519685,
          "duration": 0.0681818749999934
        },
        {
          "name": "A#3",
          "midi": 58,
          "time": 139.02284312500012,
          "velocity": 0.9921259842519685,
          "duration": 0.0681818749999934
        },
        {
          "name": "D#4",
          "midi": 63,
          "time": 139.09102500000012,
          "velocity": 0.9921259842519685,
          "duration": 0.545455000000004
        },
        {
          "name": "D#3",
          "midi": 51,
          "time": 139.09102500000012,
          "velocity": 0.9921259842519685,
          "duration": 0.545455000000004
        },
        {
          "name": "A#3",
          "midi": 58,
          "time": 139.63648000000012,
          "velocity": 0.9921259842519685,
          "duration": 0.4090912499999888
        },
        {
          "name": "D#3",
          "midi": 51,
          "time": 139.63648000000012,
          "velocity": 0.9921259842519685,
          "duration": 1.0909099999999796
        },
        {
          "name": "C4",
          "midi": 60,
          "time": 140.0455712500001,
          "velocity": 0.9921259842519685,
          "duration": 0.0681818749999934
        },
        {
          "name": "D4",
          "midi": 62,
          "time": 140.1137531250001,
          "velocity": 0.9921259842519685,
          "duration": 0.0681818749999934
        },
        {
          "name": "D#4",
          "midi": 63,
          "time": 140.1819350000001,
          "velocity": 0.9921259842519685,
          "duration": 0.272727500000002
        },
        {
          "name": "G4",
          "midi": 67,
          "time": 140.4546625000001,
          "velocity": 0.9921259842519685,
          "duration": 0.272727500000002
        },
        {
          "name": "A#3",
          "midi": 58,
          "time": 140.7273900000001,
          "velocity": 0.9921259842519685,
          "duration": 0.4090912499999888
        },
        {
          "name": "D#3",
          "midi": 51,
          "time": 140.7273900000001,
          "velocity": 0.9921259842519685,
          "duration": 1.0909099999999796
        },
        {
          "name": "C4",
          "midi": 60,
          "time": 141.1364812500001,
          "velocity": 0.9921259842519685,
          "duration": 0.0681818749999934
        },
        {
          "name": "D4",
          "midi": 62,
          "time": 141.20466312500008,
          "velocity": 0.9921259842519685,
          "duration": 0.0681818749999934
        },
        {
          "name": "D#4",
          "midi": 63,
          "time": 141.27284500000007,
          "velocity": 0.9921259842519685,
          "duration": 0.545455000000004
        },
        {
          "name": "G4",
          "midi": 67,
          "time": 141.81830000000008,
          "velocity": 0.9921259842519685,
          "duration": 0.272727500000002
        },
        {
          "name": "A#3",
          "midi": 58,
          "time": 141.81830000000008,
          "velocity": 0.9921259842519685,
          "duration": 0.272727500000002
        },
        {
          "name": "D#3",
          "midi": 51,
          "time": 141.81830000000008,
          "velocity": 0.9921259842519685,
          "duration": 1.090910000000008
        },
        {
          "name": "G3",
          "midi": 55,
          "time": 142.09102750000008,
          "velocity": 0.9921259842519685,
          "duration": 0.272727500000002
        },
        {
          "name": "D#4",
          "midi": 63,
          "time": 142.09102750000008,
          "velocity": 0.9921259842519685,
          "duration": 0.272727500000002
        },
        {
          "name": "A#3",
          "midi": 58,
          "time": 142.36375500000008,
          "velocity": 0.9921259842519685,
          "duration": 0.272727500000002
        },
        {
          "name": "G4",
          "midi": 67,
          "time": 142.36375500000008,
          "velocity": 0.9921259842519685,
          "duration": 0.272727500000002
        },
        {
          "name": "G3",
          "midi": 55,
          "time": 142.63648250000008,
          "velocity": 0.9921259842519685,
          "duration": 0.272727500000002
        },
        {
          "name": "D#4",
          "midi": 63,
          "time": 142.63648250000008,
          "velocity": 0.9921259842519685,
          "duration": 0.272727500000002
        },
        {
          "name": "A#2",
          "midi": 46,
          "time": 142.9092100000001,
          "velocity": 0.9921259842519685,
          "duration": 0.2727274999999736
        },
        {
          "name": "G#3",
          "midi": 56,
          "time": 142.9092100000001,
          "velocity": 0.9921259842519685,
          "duration": 0.0681818749999934
        },
        {
          "name": "F4",
          "midi": 65,
          "time": 142.9092100000001,
          "velocity": 0.9921259842519685,
          "duration": 0.0681818749999934
        },
        {
          "name": "A#3",
          "midi": 58,
          "time": 142.97739187500008,
          "velocity": 0.9921259842519685,
          "duration": 0.0681818749999934
        },
        {
          "name": "G4",
          "midi": 67,
          "time": 142.97739187500008,
          "velocity": 0.9921259842519685,
          "duration": 0.0681818749999934
        },
        {
          "name": "G#3",
          "midi": 56,
          "time": 143.04557375000007,
          "velocity": 0.9921259842519685,
          "duration": 0.0681818749999934
        },
        {
          "name": "F4",
          "midi": 65,
          "time": 143.04557375000007,
          "velocity": 0.9921259842519685,
          "duration": 0.0681818749999934
        },
        {
          "name": "A#3",
          "midi": 58,
          "time": 143.11375562500007,
          "velocity": 0.9921259842519685,
          "duration": 0.0681818749999934
        },
        {
          "name": "G4",
          "midi": 67,
          "time": 143.11375562500007,
          "velocity": 0.9921259842519685,
          "duration": 0.0681818749999934
        },
        {
          "name": "F4",
          "midi": 65,
          "time": 143.18193750000006,
          "velocity": 0.9921259842519685,
          "duration": 0.0681818749999934
        },
        {
          "name": "G#3",
          "midi": 56,
          "time": 143.18193750000006,
          "velocity": 0.9921259842519685,
          "duration": 0.0681818749999934
        },
        {
          "name": "D3",
          "midi": 50,
          "time": 143.18193750000006,
          "velocity": 0.9921259842519685,
          "duration": 0.2727274999999736
        },
        {
          "name": "G4",
          "midi": 67,
          "time": 143.25011937500005,
          "velocity": 0.9921259842519685,
          "duration": 0.0681818749999934
        },
        {
          "name": "A#3",
          "midi": 58,
          "time": 143.25011937500005,
          "velocity": 0.9921259842519685,
          "duration": 0.0681818749999934
        },
        {
          "name": "F4",
          "midi": 65,
          "time": 143.31830125000005,
          "velocity": 0.9921259842519685,
          "duration": 0.0681818749999934
        },
        {
          "name": "G#3",
          "midi": 56,
          "time": 143.31830125000005,
          "velocity": 0.9921259842519685,
          "duration": 0.0681818749999934
        },
        {
          "name": "G4",
          "midi": 67,
          "time": 143.38648312500004,
          "velocity": 0.9921259842519685,
          "duration": 0.0681818749999934
        },
        {
          "name": "A#3",
          "midi": 58,
          "time": 143.38648312500004,
          "velocity": 0.9921259842519685,
          "duration": 0.0681818749999934
        },
        {
          "name": "D#4",
          "midi": 63,
          "time": 143.45466500000003,
          "velocity": 0.9921259842519685,
          "duration": 0.545455000000004
        },
        {
          "name": "D#3",
          "midi": 51,
          "time": 143.45466500000003,
          "velocity": 0.9921259842519685,
          "duration": 0.545455000000004
        }
      ],
      "controlChanges": {},
      "id": 1,
      "name": "FL Keys 1",
      "channelNumber": 0,
      "isPercussion": false
    }
  ]
}
