{
  "header": {
    "PPQ": 96,
    "bpm": 120,
    "timeSignature": [
      4,
      4
    ],
    "name": "Darude Sandstorm"
  },
  "startTime": 0,
  "duration": 90.9531249999999,
  "tracks": [
    {
      "startTime": 0,
      "duration": 0,
      "length": 0,
      "notes": [],
      "controlChanges": {},
      "id": 0
    },
    {
      "startTime": 0,
      "duration": 90.9531249999999,
      "length": 1149,
      "notes": [
        {
          "name": "C3",
          "midi": 48,
          "time": 0,
          "velocity": 0.6299212598425197,
          "duration": 0.18229166666666666
        },
        {
          "name": "D#3",
          "midi": 51,
          "time": 0,
          "velocity": 0.6299212598425197,
          "duration": 0.18229166666666666
        },
        {
          "name": "G3",
          "midi": 55,
          "time": 0,
          "velocity": 0.6299212598425197,
          "duration": 0.18229166666666666
        },
        {
          "name": "C3",
          "midi": 48,
          "time": 0.375,
          "velocity": 0.6299212598425197,
          "duration": 0.18229166666666663
        },
        {
          "name": "D#3",
          "midi": 51,
          "time": 0.375,
          "velocity": 0.6299212598425197,
          "duration": 0.18229166666666663
        },
        {
          "name": "G3",
          "midi": 55,
          "time": 0.375,
          "velocity": 0.6299212598425197,
          "duration": 0.18229166666666663
        },
        {
          "name": "C3",
          "midi": 48,
          "time": 0.75,
          "velocity": 0.6299212598425197,
          "duration": 0.11979166666666663
        },
        {
          "name": "D#3",
          "midi": 51,
          "time": 0.75,
          "velocity": 0.6299212598425197,
          "duration": 0.11979166666666663
        },
        {
          "name": "G3",
          "midi": 55,
          "time": 0.75,
          "velocity": 0.6299212598425197,
          "duration": 0.11979166666666663
        },
        {
          "name": "C3",
          "midi": 48,
          "time": 1,
          "velocity": 0.6299212598425197,
          "duration": 0.18229166666666674
        },
        {
          "name": "D#3",
          "midi": 51,
          "time": 1,
          "velocity": 0.6299212598425197,
          "duration": 0.18229166666666674
        },
        {
          "name": "G3",
          "midi": 55,
          "time": 1,
          "velocity": 0.6299212598425197,
          "duration": 0.18229166666666674
        },
        {
          "name": "C3",
          "midi": 48,
          "time": 1.375,
          "velocity": 0.6299212598425197,
          "duration": 0.18229166666666674
        },
        {
          "name": "D#3",
          "midi": 51,
          "time": 1.375,
          "velocity": 0.6299212598425197,
          "duration": 0.18229166666666674
        },
        {
          "name": "G3",
          "midi": 55,
          "time": 1.375,
          "velocity": 0.6299212598425197,
          "duration": 0.18229166666666674
        },
        {
          "name": "F3",
          "midi": 53,
          "time": 1.75,
          "velocity": 0.6299212598425197,
          "duration": 0.11979166666666674
        },
        {
          "name": "G#3",
          "midi": 56,
          "time": 1.75,
          "velocity": 0.6299212598425197,
          "duration": 0.11979166666666674
        },
        {
          "name": "C4",
          "midi": 60,
          "time": 1.75,
          "velocity": 0.6299212598425197,
          "duration": 0.11979166666666674
        },
        {
          "name": "C3",
          "midi": 48,
          "time": 2,
          "velocity": 0.6299212598425197,
          "duration": 0.18229166666666652
        },
        {
          "name": "D#3",
          "midi": 51,
          "time": 2,
          "velocity": 0.6299212598425197,
          "duration": 0.18229166666666652
        },
        {
          "name": "G3",
          "midi": 55,
          "time": 2,
          "velocity": 0.6299212598425197,
          "duration": 0.18229166666666652
        },
        {
          "name": "C3",
          "midi": 48,
          "time": 2.375,
          "velocity": 0.6299212598425197,
          "duration": 0.18229166666666652
        },
        {
          "name": "D#3",
          "midi": 51,
          "time": 2.375,
          "velocity": 0.6299212598425197,
          "duration": 0.18229166666666652
        },
        {
          "name": "G3",
          "midi": 55,
          "time": 2.375,
          "velocity": 0.6299212598425197,
          "duration": 0.18229166666666652
        },
        {
          "name": "C3",
          "midi": 48,
          "time": 2.75,
          "velocity": 0.6299212598425197,
          "duration": 0.11979166666666652
        },
        {
          "name": "D#3",
          "midi": 51,
          "time": 2.75,
          "velocity": 0.6299212598425197,
          "duration": 0.11979166666666652
        },
        {
          "name": "G3",
          "midi": 55,
          "time": 2.75,
          "velocity": 0.6299212598425197,
          "duration": 0.11979166666666652
        },
        {
          "name": "C3",
          "midi": 48,
          "time": 3,
          "velocity": 0.6299212598425197,
          "duration": 0.18229166666666652
        },
        {
          "name": "D#3",
          "midi": 51,
          "time": 3,
          "velocity": 0.6299212598425197,
          "duration": 0.18229166666666652
        },
        {
          "name": "G3",
          "midi": 55,
          "time": 3,
          "velocity": 0.6299212598425197,
          "duration": 0.18229166666666652
        },
        {
          "name": "C3",
          "midi": 48,
          "time": 3.375,
          "velocity": 0.6299212598425197,
          "duration": 0.18229166666666652
        },
        {
          "name": "D#3",
          "midi": 51,
          "time": 3.375,
          "velocity": 0.6299212598425197,
          "duration": 0.18229166666666652
        },
        {
          "name": "G3",
          "midi": 55,
          "time": 3.375,
          "velocity": 0.6299212598425197,
          "duration": 0.18229166666666652
        },
        {
          "name": "F3",
          "midi": 53,
          "time": 3.75,
          "velocity": 0.6299212598425197,
          "duration": 0.11979166666666652
        },
        {
          "name": "G#3",
          "midi": 56,
          "time": 3.75,
          "velocity": 0.6299212598425197,
          "duration": 0.11979166666666652
        },
        {
          "name": "C4",
          "midi": 60,
          "time": 3.75,
          "velocity": 0.6299212598425197,
          "duration": 0.11979166666666652
        },
        {
          "name": "C3",
          "midi": 48,
          "time": 4,
          "velocity": 0.6299212598425197,
          "duration": 0.18229166666666696
        },
        {
          "name": "D#3",
          "midi": 51,
          "time": 4,
          "velocity": 0.6299212598425197,
          "duration": 0.18229166666666696
        },
        {
          "name": "G3",
          "midi": 55,
          "time": 4,
          "velocity": 0.6299212598425197,
          "duration": 0.18229166666666696
        },
        {
          "name": "C3",
          "midi": 48,
          "time": 4.375,
          "velocity": 0.6299212598425197,
          "duration": 0.18229166666666696
        },
        {
          "name": "D#3",
          "midi": 51,
          "time": 4.375,
          "velocity": 0.6299212598425197,
          "duration": 0.18229166666666696
        },
        {
          "name": "G3",
          "midi": 55,
          "time": 4.375,
          "velocity": 0.6299212598425197,
          "duration": 0.18229166666666696
        },
        {
          "name": "C3",
          "midi": 48,
          "time": 4.75,
          "velocity": 0.6299212598425197,
          "duration": 0.11979166666666696
        },
        {
          "name": "D#3",
          "midi": 51,
          "time": 4.75,
          "velocity": 0.6299212598425197,
          "duration": 0.11979166666666696
        },
        {
          "name": "G3",
          "midi": 55,
          "time": 4.75,
          "velocity": 0.6299212598425197,
          "duration": 0.11979166666666696
        },
        {
          "name": "C3",
          "midi": 48,
          "time": 5,
          "velocity": 0.6299212598425197,
          "duration": 0.18229166666666696
        },
        {
          "name": "D#3",
          "midi": 51,
          "time": 5,
          "velocity": 0.6299212598425197,
          "duration": 0.18229166666666696
        },
        {
          "name": "G3",
          "midi": 55,
          "time": 5,
          "velocity": 0.6299212598425197,
          "duration": 0.18229166666666696
        },
        {
          "name": "C3",
          "midi": 48,
          "time": 5.375,
          "velocity": 0.6299212598425197,
          "duration": 0.18229166666666696
        },
        {
          "name": "D#3",
          "midi": 51,
          "time": 5.375,
          "velocity": 0.6299212598425197,
          "duration": 0.18229166666666696
        },
        {
          "name": "G3",
          "midi": 55,
          "time": 5.375,
          "velocity": 0.6299212598425197,
          "duration": 0.18229166666666696
        },
        {
          "name": "F3",
          "midi": 53,
          "time": 5.75,
          "velocity": 0.6299212598425197,
          "duration": 0.11979166666666696
        },
        {
          "name": "G#3",
          "midi": 56,
          "time": 5.75,
          "velocity": 0.6299212598425197,
          "duration": 0.11979166666666696
        },
        {
          "name": "C4",
          "midi": 60,
          "time": 5.75,
          "velocity": 0.6299212598425197,
          "duration": 0.11979166666666696
        },
        {
          "name": "F3",
          "midi": 53,
          "time": 6,
          "velocity": 0.6299212598425197,
          "duration": 0.18229166666666696
        },
        {
          "name": "G#3",
          "midi": 56,
          "time": 6,
          "velocity": 0.6299212598425197,
          "duration": 0.18229166666666696
        },
        {
          "name": "C4",
          "midi": 60,
          "time": 6,
          "velocity": 0.6299212598425197,
          "duration": 0.18229166666666696
        },
        {
          "name": "F3",
          "midi": 53,
          "time": 6.375,
          "velocity": 0.6299212598425197,
          "duration": 0.18229166666666696
        },
        {
          "name": "G#3",
          "midi": 56,
          "time": 6.375,
          "velocity": 0.6299212598425197,
          "duration": 0.18229166666666696
        },
        {
          "name": "C4",
          "midi": 60,
          "time": 6.375,
          "velocity": 0.6299212598425197,
          "duration": 0.18229166666666696
        },
        {
          "name": "D#3",
          "midi": 51,
          "time": 6.75,
          "velocity": 0.6299212598425197,
          "duration": 0.11979166666666696
        },
        {
          "name": "G3",
          "midi": 55,
          "time": 6.75,
          "velocity": 0.6299212598425197,
          "duration": 0.11979166666666696
        },
        {
          "name": "A#3",
          "midi": 58,
          "time": 6.75,
          "velocity": 0.6299212598425197,
          "duration": 0.11979166666666696
        },
        {
          "name": "D#3",
          "midi": 51,
          "time": 7,
          "velocity": 0.6299212598425197,
          "duration": 0.18229166666666696
        },
        {
          "name": "G3",
          "midi": 55,
          "time": 7,
          "velocity": 0.6299212598425197,
          "duration": 0.18229166666666696
        },
        {
          "name": "A#3",
          "midi": 58,
          "time": 7,
          "velocity": 0.6299212598425197,
          "duration": 0.18229166666666696
        },
        {
          "name": "D#3",
          "midi": 51,
          "time": 7.375,
          "velocity": 0.6299212598425197,
          "duration": 0.18229166666666696
        },
        {
          "name": "G3",
          "midi": 55,
          "time": 7.375,
          "velocity": 0.6299212598425197,
          "duration": 0.18229166666666696
        },
        {
          "name": "A#3",
          "midi": 58,
          "time": 7.375,
          "velocity": 0.6299212598425197,
          "duration": 0.18229166666666696
        },
        {
          "name": "A#2",
          "midi": 46,
          "time": 7.75,
          "velocity": 0.6299212598425197,
          "duration": 0.11979166666666696
        },
        {
          "name": "D3",
          "midi": 50,
          "time": 7.75,
          "velocity": 0.6299212598425197,
          "duration": 0.11979166666666696
        },
        {
          "name": "F3",
          "midi": 53,
          "time": 7.75,
          "velocity": 0.6299212598425197,
          "duration": 0.11979166666666696
        },
        {
          "name": "G4",
          "midi": 67,
          "time": 8,
          "velocity": 0.6299212598425197,
          "duration": 0.057291666666666075
        },
        {
          "name": "C3",
          "midi": 48,
          "time": 8,
          "velocity": 0.6299212598425197,
          "duration": 0.18229166666666607
        },
        {
          "name": "D#3",
          "midi": 51,
          "time": 8,
          "velocity": 0.6299212598425197,
          "duration": 0.18229166666666607
        },
        {
          "name": "G3",
          "midi": 55,
          "time": 8,
          "velocity": 0.6299212598425197,
          "duration": 0.18229166666666607
        },
        {
          "name": "G4",
          "midi": 67,
          "time": 8.125,
          "velocity": 0.6299212598425197,
          "duration": 0.057291666666666075
        },
        {
          "name": "G4",
          "midi": 67,
          "time": 8.25,
          "velocity": 0.6299212598425197,
          "duration": 0.057291666666666075
        },
        {
          "name": "G4",
          "midi": 67,
          "time": 8.375,
          "velocity": 0.6299212598425197,
          "duration": 0.057291666666666075
        },
        {
          "name": "C3",
          "midi": 48,
          "time": 8.375,
          "velocity": 0.6299212598425197,
          "duration": 0.18229166666666607
        },
        {
          "name": "D#3",
          "midi": 51,
          "time": 8.375,
          "velocity": 0.6299212598425197,
          "duration": 0.18229166666666607
        },
        {
          "name": "G3",
          "midi": 55,
          "time": 8.375,
          "velocity": 0.6299212598425197,
          "duration": 0.18229166666666607
        },
        {
          "name": "G4",
          "midi": 67,
          "time": 8.5,
          "velocity": 0.6299212598425197,
          "duration": 0.24479166666666607
        },
        {
          "name": "C3",
          "midi": 48,
          "time": 8.75,
          "velocity": 0.6299212598425197,
          "duration": 0.11979166666666607
        },
        {
          "name": "D#3",
          "midi": 51,
          "time": 8.75,
          "velocity": 0.6299212598425197,
          "duration": 0.11979166666666607
        },
        {
          "name": "G3",
          "midi": 55,
          "time": 8.75,
          "velocity": 0.6299212598425197,
          "duration": 0.11979166666666607
        },
        {
          "name": "C3",
          "midi": 48,
          "time": 9,
          "velocity": 0.6299212598425197,
          "duration": 0.18229166666666607
        },
        {
          "name": "D#3",
          "midi": 51,
          "time": 9,
          "velocity": 0.6299212598425197,
          "duration": 0.18229166666666607
        },
        {
          "name": "G3",
          "midi": 55,
          "time": 9,
          "velocity": 0.6299212598425197,
          "duration": 0.18229166666666607
        },
        {
          "name": "C3",
          "midi": 48,
          "time": 9.375,
          "velocity": 0.6299212598425197,
          "duration": 0.18229166666666607
        },
        {
          "name": "D#3",
          "midi": 51,
          "time": 9.375,
          "velocity": 0.6299212598425197,
          "duration": 0.18229166666666607
        },
        {
          "name": "G3",
          "midi": 55,
          "time": 9.375,
          "velocity": 0.6299212598425197,
          "duration": 0.18229166666666607
        },
        {
          "name": "F3",
          "midi": 53,
          "time": 9.75,
          "velocity": 0.6299212598425197,
          "duration": 0.11979166666666607
        },
        {
          "name": "G#3",
          "midi": 56,
          "time": 9.75,
          "velocity": 0.6299212598425197,
          "duration": 0.11979166666666607
        },
        {
          "name": "C4",
          "midi": 60,
          "time": 9.75,
          "velocity": 0.6299212598425197,
          "duration": 0.11979166666666607
        },
        {
          "name": "C3",
          "midi": 48,
          "time": 10,
          "velocity": 0.6299212598425197,
          "duration": 0.18229166666666607
        },
        {
          "name": "D#3",
          "midi": 51,
          "time": 10,
          "velocity": 0.6299212598425197,
          "duration": 0.18229166666666607
        },
        {
          "name": "G3",
          "midi": 55,
          "time": 10,
          "velocity": 0.6299212598425197,
          "duration": 0.18229166666666607
        },
        {
          "name": "C3",
          "midi": 48,
          "time": 10.375,
          "velocity": 0.6299212598425197,
          "duration": 0.18229166666666607
        },
        {
          "name": "D#3",
          "midi": 51,
          "time": 10.375,
          "velocity": 0.6299212598425197,
          "duration": 0.18229166666666607
        },
        {
          "name": "G3",
          "midi": 55,
          "time": 10.375,
          "velocity": 0.6299212598425197,
          "duration": 0.18229166666666607
        },
        {
          "name": "C3",
          "midi": 48,
          "time": 10.75,
          "velocity": 0.6299212598425197,
          "duration": 0.11979166666666607
        },
        {
          "name": "D#3",
          "midi": 51,
          "time": 10.75,
          "velocity": 0.6299212598425197,
          "duration": 0.11979166666666607
        },
        {
          "name": "G3",
          "midi": 55,
          "time": 10.75,
          "velocity": 0.6299212598425197,
          "duration": 0.11979166666666607
        },
        {
          "name": "C3",
          "midi": 48,
          "time": 11,
          "velocity": 0.6299212598425197,
          "duration": 0.18229166666666607
        },
        {
          "name": "D#3",
          "midi": 51,
          "time": 11,
          "velocity": 0.6299212598425197,
          "duration": 0.18229166666666607
        },
        {
          "name": "G3",
          "midi": 55,
          "time": 11,
          "velocity": 0.6299212598425197,
          "duration": 0.18229166666666607
        },
        {
          "name": "C3",
          "midi": 48,
          "time": 11.375,
          "velocity": 0.6299212598425197,
          "duration": 0.18229166666666607
        },
        {
          "name": "D#3",
          "midi": 51,
          "time": 11.375,
          "velocity": 0.6299212598425197,
          "duration": 0.18229166666666607
        },
        {
          "name": "G3",
          "midi": 55,
          "time": 11.375,
          "velocity": 0.6299212598425197,
          "duration": 0.18229166666666607
        },
        {
          "name": "A#4",
          "midi": 70,
          "time": 11.5,
          "velocity": 0.6299212598425197,
          "duration": 0.24479166666666607
        },
        {
          "name": "A#2",
          "midi": 46,
          "time": 11.75,
          "velocity": 0.6299212598425197,
          "duration": 0.11979166666666607
        },
        {
          "name": "D3",
          "midi": 50,
          "time": 11.75,
          "velocity": 0.6299212598425197,
          "duration": 0.11979166666666607
        },
        {
          "name": "F3",
          "midi": 53,
          "time": 11.75,
          "velocity": 0.6299212598425197,
          "duration": 0.11979166666666607
        },
        {
          "name": "G4",
          "midi": 67,
          "time": 12,
          "velocity": 0.6299212598425197,
          "duration": 0.057291666666666075
        },
        {
          "name": "C3",
          "midi": 48,
          "time": 12,
          "velocity": 0.6299212598425197,
          "duration": 0.18229166666666607
        },
        {
          "name": "D#3",
          "midi": 51,
          "time": 12,
          "velocity": 0.6299212598425197,
          "duration": 0.18229166666666607
        },
        {
          "name": "G3",
          "midi": 55,
          "time": 12,
          "velocity": 0.6299212598425197,
          "duration": 0.18229166666666607
        },
        {
          "name": "G4",
          "midi": 67,
          "time": 12.125,
          "velocity": 0.6299212598425197,
          "duration": 0.057291666666666075
        },
        {
          "name": "G4",
          "midi": 67,
          "time": 12.25,
          "velocity": 0.6299212598425197,
          "duration": 0.057291666666666075
        },
        {
          "name": "G4",
          "midi": 67,
          "time": 12.375,
          "velocity": 0.6299212598425197,
          "duration": 0.057291666666666075
        },
        {
          "name": "C3",
          "midi": 48,
          "time": 12.375,
          "velocity": 0.6299212598425197,
          "duration": 0.18229166666666607
        },
        {
          "name": "D#3",
          "midi": 51,
          "time": 12.375,
          "velocity": 0.6299212598425197,
          "duration": 0.18229166666666607
        },
        {
          "name": "G3",
          "midi": 55,
          "time": 12.375,
          "velocity": 0.6299212598425197,
          "duration": 0.18229166666666607
        },
        {
          "name": "G4",
          "midi": 67,
          "time": 12.5,
          "velocity": 0.6299212598425197,
          "duration": 0.24479166666666607
        },
        {
          "name": "C3",
          "midi": 48,
          "time": 12.75,
          "velocity": 0.6299212598425197,
          "duration": 0.11979166666666607
        },
        {
          "name": "D#3",
          "midi": 51,
          "time": 12.75,
          "velocity": 0.6299212598425197,
          "duration": 0.11979166666666607
        },
        {
          "name": "G3",
          "midi": 55,
          "time": 12.75,
          "velocity": 0.6299212598425197,
          "duration": 0.11979166666666607
        },
        {
          "name": "C3",
          "midi": 48,
          "time": 13,
          "velocity": 0.6299212598425197,
          "duration": 0.18229166666666607
        },
        {
          "name": "D#3",
          "midi": 51,
          "time": 13,
          "velocity": 0.6299212598425197,
          "duration": 0.18229166666666607
        },
        {
          "name": "G3",
          "midi": 55,
          "time": 13,
          "velocity": 0.6299212598425197,
          "duration": 0.18229166666666607
        },
        {
          "name": "C3",
          "midi": 48,
          "time": 13.375,
          "velocity": 0.6299212598425197,
          "duration": 0.18229166666666607
        },
        {
          "name": "D#3",
          "midi": 51,
          "time": 13.375,
          "velocity": 0.6299212598425197,
          "duration": 0.18229166666666607
        },
        {
          "name": "G3",
          "midi": 55,
          "time": 13.375,
          "velocity": 0.6299212598425197,
          "duration": 0.18229166666666607
        },
        {
          "name": "F3",
          "midi": 53,
          "time": 13.75,
          "velocity": 0.6299212598425197,
          "duration": 0.11979166666666607
        },
        {
          "name": "G#3",
          "midi": 56,
          "time": 13.75,
          "velocity": 0.6299212598425197,
          "duration": 0.11979166666666607
        },
        {
          "name": "C4",
          "midi": 60,
          "time": 13.75,
          "velocity": 0.6299212598425197,
          "duration": 0.11979166666666607
        },
        {
          "name": "F3",
          "midi": 53,
          "time": 14,
          "velocity": 0.6299212598425197,
          "duration": 0.18229166666666607
        },
        {
          "name": "G#3",
          "midi": 56,
          "time": 14,
          "velocity": 0.6299212598425197,
          "duration": 0.18229166666666607
        },
        {
          "name": "C4",
          "midi": 60,
          "time": 14,
          "velocity": 0.6299212598425197,
          "duration": 0.18229166666666607
        },
        {
          "name": "F3",
          "midi": 53,
          "time": 14.375,
          "velocity": 0.6299212598425197,
          "duration": 0.18229166666666607
        },
        {
          "name": "G#3",
          "midi": 56,
          "time": 14.375,
          "velocity": 0.6299212598425197,
          "duration": 0.18229166666666607
        },
        {
          "name": "C4",
          "midi": 60,
          "time": 14.375,
          "velocity": 0.6299212598425197,
          "duration": 0.18229166666666607
        },
        {
          "name": "D#3",
          "midi": 51,
          "time": 14.75,
          "velocity": 0.6299212598425197,
          "duration": 0.11979166666666607
        },
        {
          "name": "G3",
          "midi": 55,
          "time": 14.75,
          "velocity": 0.6299212598425197,
          "duration": 0.11979166666666607
        },
        {
          "name": "A#3",
          "midi": 58,
          "time": 14.75,
          "velocity": 0.6299212598425197,
          "duration": 0.11979166666666607
        },
        {
          "name": "D#3",
          "midi": 51,
          "time": 15,
          "velocity": 0.6299212598425197,
          "duration": 0.18229166666666607
        },
        {
          "name": "G3",
          "midi": 55,
          "time": 15,
          "velocity": 0.6299212598425197,
          "duration": 0.18229166666666607
        },
        {
          "name": "A#3",
          "midi": 58,
          "time": 15,
          "velocity": 0.6299212598425197,
          "duration": 0.18229166666666607
        },
        {
          "name": "D#3",
          "midi": 51,
          "time": 15.375,
          "velocity": 0.6299212598425197,
          "duration": 0.18229166666666607
        },
        {
          "name": "G3",
          "midi": 55,
          "time": 15.375,
          "velocity": 0.6299212598425197,
          "duration": 0.18229166666666607
        },
        {
          "name": "A#3",
          "midi": 58,
          "time": 15.375,
          "velocity": 0.6299212598425197,
          "duration": 0.18229166666666607
        },
        {
          "name": "A#4",
          "midi": 70,
          "time": 15.5,
          "velocity": 0.6299212598425197,
          "duration": 0.24479166666666607
        },
        {
          "name": "A#2",
          "midi": 46,
          "time": 15.75,
          "velocity": 0.6299212598425197,
          "duration": 0.11979166666666607
        },
        {
          "name": "D3",
          "midi": 50,
          "time": 15.75,
          "velocity": 0.6299212598425197,
          "duration": 0.11979166666666607
        },
        {
          "name": "F3",
          "midi": 53,
          "time": 15.75,
          "velocity": 0.6299212598425197,
          "duration": 0.11979166666666607
        },
        {
          "name": "G4",
          "midi": 67,
          "time": 16,
          "velocity": 0.6299212598425197,
          "duration": 0.05729166666666785
        },
        {
          "name": "C3",
          "midi": 48,
          "time": 16,
          "velocity": 0.6299212598425197,
          "duration": 0.18229166666666785
        },
        {
          "name": "D#3",
          "midi": 51,
          "time": 16,
          "velocity": 0.6299212598425197,
          "duration": 0.18229166666666785
        },
        {
          "name": "G3",
          "midi": 55,
          "time": 16,
          "velocity": 0.6299212598425197,
          "duration": 0.18229166666666785
        },
        {
          "name": "G4",
          "midi": 67,
          "time": 16.125,
          "velocity": 0.6299212598425197,
          "duration": 0.05729166666666785
        },
        {
          "name": "G4",
          "midi": 67,
          "time": 16.25,
          "velocity": 0.6299212598425197,
          "duration": 0.05729166666666785
        },
        {
          "name": "G4",
          "midi": 67,
          "time": 16.375,
          "velocity": 0.6299212598425197,
          "duration": 0.05729166666666785
        },
        {
          "name": "C3",
          "midi": 48,
          "time": 16.375,
          "velocity": 0.6299212598425197,
          "duration": 0.18229166666666785
        },
        {
          "name": "D#3",
          "midi": 51,
          "time": 16.375,
          "velocity": 0.6299212598425197,
          "duration": 0.18229166666666785
        },
        {
          "name": "G3",
          "midi": 55,
          "time": 16.375,
          "velocity": 0.6299212598425197,
          "duration": 0.18229166666666785
        },
        {
          "name": "G4",
          "midi": 67,
          "time": 16.5,
          "velocity": 0.6299212598425197,
          "duration": 0.24479166666666785
        },
        {
          "name": "C3",
          "midi": 48,
          "time": 16.75,
          "velocity": 0.6299212598425197,
          "duration": 0.11979166666666785
        },
        {
          "name": "D#3",
          "midi": 51,
          "time": 16.75,
          "velocity": 0.6299212598425197,
          "duration": 0.11979166666666785
        },
        {
          "name": "G3",
          "midi": 55,
          "time": 16.75,
          "velocity": 0.6299212598425197,
          "duration": 0.11979166666666785
        },
        {
          "name": "C3",
          "midi": 48,
          "time": 17,
          "velocity": 0.6299212598425197,
          "duration": 0.18229166666666785
        },
        {
          "name": "D#3",
          "midi": 51,
          "time": 17,
          "velocity": 0.6299212598425197,
          "duration": 0.18229166666666785
        },
        {
          "name": "G3",
          "midi": 55,
          "time": 17,
          "velocity": 0.6299212598425197,
          "duration": 0.18229166666666785
        },
        {
          "name": "C3",
          "midi": 48,
          "time": 17.375,
          "velocity": 0.6299212598425197,
          "duration": 0.18229166666666785
        },
        {
          "name": "D#3",
          "midi": 51,
          "time": 17.375,
          "velocity": 0.6299212598425197,
          "duration": 0.18229166666666785
        },
        {
          "name": "G3",
          "midi": 55,
          "time": 17.375,
          "velocity": 0.6299212598425197,
          "duration": 0.18229166666666785
        },
        {
          "name": "F3",
          "midi": 53,
          "time": 17.75,
          "velocity": 0.6299212598425197,
          "duration": 0.11979166666666785
        },
        {
          "name": "G#3",
          "midi": 56,
          "time": 17.75,
          "velocity": 0.6299212598425197,
          "duration": 0.11979166666666785
        },
        {
          "name": "C4",
          "midi": 60,
          "time": 17.75,
          "velocity": 0.6299212598425197,
          "duration": 0.11979166666666785
        },
        {
          "name": "C3",
          "midi": 48,
          "time": 18,
          "velocity": 0.6299212598425197,
          "duration": 0.18229166666666785
        },
        {
          "name": "D#3",
          "midi": 51,
          "time": 18,
          "velocity": 0.6299212598425197,
          "duration": 0.18229166666666785
        },
        {
          "name": "G3",
          "midi": 55,
          "time": 18,
          "velocity": 0.6299212598425197,
          "duration": 0.18229166666666785
        },
        {
          "name": "C3",
          "midi": 48,
          "time": 18.375,
          "velocity": 0.6299212598425197,
          "duration": 0.18229166666666785
        },
        {
          "name": "D#3",
          "midi": 51,
          "time": 18.375,
          "velocity": 0.6299212598425197,
          "duration": 0.18229166666666785
        },
        {
          "name": "G3",
          "midi": 55,
          "time": 18.375,
          "velocity": 0.6299212598425197,
          "duration": 0.18229166666666785
        },
        {
          "name": "C3",
          "midi": 48,
          "time": 18.75,
          "velocity": 0.6299212598425197,
          "duration": 0.11979166666666785
        },
        {
          "name": "D#3",
          "midi": 51,
          "time": 18.75,
          "velocity": 0.6299212598425197,
          "duration": 0.11979166666666785
        },
        {
          "name": "G3",
          "midi": 55,
          "time": 18.75,
          "velocity": 0.6299212598425197,
          "duration": 0.11979166666666785
        },
        {
          "name": "C3",
          "midi": 48,
          "time": 19,
          "velocity": 0.6299212598425197,
          "duration": 0.18229166666666785
        },
        {
          "name": "D#3",
          "midi": 51,
          "time": 19,
          "velocity": 0.6299212598425197,
          "duration": 0.18229166666666785
        },
        {
          "name": "G3",
          "midi": 55,
          "time": 19,
          "velocity": 0.6299212598425197,
          "duration": 0.18229166666666785
        },
        {
          "name": "C3",
          "midi": 48,
          "time": 19.375,
          "velocity": 0.6299212598425197,
          "duration": 0.18229166666666785
        },
        {
          "name": "D#3",
          "midi": 51,
          "time": 19.375,
          "velocity": 0.6299212598425197,
          "duration": 0.18229166666666785
        },
        {
          "name": "G3",
          "midi": 55,
          "time": 19.375,
          "velocity": 0.6299212598425197,
          "duration": 0.18229166666666785
        },
        {
          "name": "A#4",
          "midi": 70,
          "time": 19.5,
          "velocity": 0.6299212598425197,
          "duration": 0.24479166666666785
        },
        {
          "name": "A#2",
          "midi": 46,
          "time": 19.75,
          "velocity": 0.6299212598425197,
          "duration": 0.11979166666666785
        },
        {
          "name": "D3",
          "midi": 50,
          "time": 19.75,
          "velocity": 0.6299212598425197,
          "duration": 0.11979166666666785
        },
        {
          "name": "F3",
          "midi": 53,
          "time": 19.75,
          "velocity": 0.6299212598425197,
          "duration": 0.11979166666666785
        },
        {
          "name": "G4",
          "midi": 67,
          "time": 20,
          "velocity": 0.6299212598425197,
          "duration": 0.05729166666666785
        },
        {
          "name": "C3",
          "midi": 48,
          "time": 20,
          "velocity": 0.6299212598425197,
          "duration": 0.18229166666666785
        },
        {
          "name": "D#3",
          "midi": 51,
          "time": 20,
          "velocity": 0.6299212598425197,
          "duration": 0.18229166666666785
        },
        {
          "name": "G3",
          "midi": 55,
          "time": 20,
          "velocity": 0.6299212598425197,
          "duration": 0.18229166666666785
        },
        {
          "name": "G4",
          "midi": 67,
          "time": 20.125,
          "velocity": 0.6299212598425197,
          "duration": 0.05729166666666785
        },
        {
          "name": "G4",
          "midi": 67,
          "time": 20.25,
          "velocity": 0.6299212598425197,
          "duration": 0.05729166666666785
        },
        {
          "name": "G4",
          "midi": 67,
          "time": 20.375,
          "velocity": 0.6299212598425197,
          "duration": 0.05729166666666785
        },
        {
          "name": "C3",
          "midi": 48,
          "time": 20.375,
          "velocity": 0.6299212598425197,
          "duration": 0.18229166666666785
        },
        {
          "name": "D#3",
          "midi": 51,
          "time": 20.375,
          "velocity": 0.6299212598425197,
          "duration": 0.18229166666666785
        },
        {
          "name": "G3",
          "midi": 55,
          "time": 20.375,
          "velocity": 0.6299212598425197,
          "duration": 0.18229166666666785
        },
        {
          "name": "G4",
          "midi": 67,
          "time": 20.5,
          "velocity": 0.6299212598425197,
          "duration": 0.24479166666666785
        },
        {
          "name": "C3",
          "midi": 48,
          "time": 20.75,
          "velocity": 0.6299212598425197,
          "duration": 0.11979166666666785
        },
        {
          "name": "D#3",
          "midi": 51,
          "time": 20.75,
          "velocity": 0.6299212598425197,
          "duration": 0.11979166666666785
        },
        {
          "name": "G3",
          "midi": 55,
          "time": 20.75,
          "velocity": 0.6299212598425197,
          "duration": 0.11979166666666785
        },
        {
          "name": "C3",
          "midi": 48,
          "time": 21,
          "velocity": 0.6299212598425197,
          "duration": 0.18229166666666785
        },
        {
          "name": "D#3",
          "midi": 51,
          "time": 21,
          "velocity": 0.6299212598425197,
          "duration": 0.18229166666666785
        },
        {
          "name": "G3",
          "midi": 55,
          "time": 21,
          "velocity": 0.6299212598425197,
          "duration": 0.18229166666666785
        },
        {
          "name": "C3",
          "midi": 48,
          "time": 21.375,
          "velocity": 0.6299212598425197,
          "duration": 0.18229166666666785
        },
        {
          "name": "D#3",
          "midi": 51,
          "time": 21.375,
          "velocity": 0.6299212598425197,
          "duration": 0.18229166666666785
        },
        {
          "name": "G3",
          "midi": 55,
          "time": 21.375,
          "velocity": 0.6299212598425197,
          "duration": 0.18229166666666785
        },
        {
          "name": "F3",
          "midi": 53,
          "time": 21.75,
          "velocity": 0.6299212598425197,
          "duration": 0.11979166666666785
        },
        {
          "name": "G#3",
          "midi": 56,
          "time": 21.75,
          "velocity": 0.6299212598425197,
          "duration": 0.11979166666666785
        },
        {
          "name": "C4",
          "midi": 60,
          "time": 21.75,
          "velocity": 0.6299212598425197,
          "duration": 0.11979166666666785
        },
        {
          "name": "F3",
          "midi": 53,
          "time": 22,
          "velocity": 0.6299212598425197,
          "duration": 0.18229166666666785
        },
        {
          "name": "G#3",
          "midi": 56,
          "time": 22,
          "velocity": 0.6299212598425197,
          "duration": 0.18229166666666785
        },
        {
          "name": "C4",
          "midi": 60,
          "time": 22,
          "velocity": 0.6299212598425197,
          "duration": 0.18229166666666785
        },
        {
          "name": "F3",
          "midi": 53,
          "time": 22.375,
          "velocity": 0.6299212598425197,
          "duration": 0.18229166666666785
        },
        {
          "name": "G#3",
          "midi": 56,
          "time": 22.375,
          "velocity": 0.6299212598425197,
          "duration": 0.18229166666666785
        },
        {
          "name": "C4",
          "midi": 60,
          "time": 22.375,
          "velocity": 0.6299212598425197,
          "duration": 0.18229166666666785
        },
        {
          "name": "D#3",
          "midi": 51,
          "time": 22.75,
          "velocity": 0.6299212598425197,
          "duration": 0.11979166666666785
        },
        {
          "name": "G3",
          "midi": 55,
          "time": 22.75,
          "velocity": 0.6299212598425197,
          "duration": 0.11979166666666785
        },
        {
          "name": "A#3",
          "midi": 58,
          "time": 22.75,
          "velocity": 0.6299212598425197,
          "duration": 0.11979166666666785
        },
        {
          "name": "D#3",
          "midi": 51,
          "time": 23,
          "velocity": 0.6299212598425197,
          "duration": 0.18229166666666785
        },
        {
          "name": "G3",
          "midi": 55,
          "time": 23,
          "velocity": 0.6299212598425197,
          "duration": 0.18229166666666785
        },
        {
          "name": "A#3",
          "midi": 58,
          "time": 23,
          "velocity": 0.6299212598425197,
          "duration": 0.18229166666666785
        },
        {
          "name": "D#3",
          "midi": 51,
          "time": 23.375,
          "velocity": 0.6299212598425197,
          "duration": 0.18229166666666785
        },
        {
          "name": "G3",
          "midi": 55,
          "time": 23.375,
          "velocity": 0.6299212598425197,
          "duration": 0.18229166666666785
        },
        {
          "name": "A#3",
          "midi": 58,
          "time": 23.375,
          "velocity": 0.6299212598425197,
          "duration": 0.18229166666666785
        },
        {
          "name": "A#4",
          "midi": 70,
          "time": 23.5,
          "velocity": 0.6299212598425197,
          "duration": 0.24479166666666785
        },
        {
          "name": "A#2",
          "midi": 46,
          "time": 23.75,
          "velocity": 0.6299212598425197,
          "duration": 0.11979166666666785
        },
        {
          "name": "D3",
          "midi": 50,
          "time": 23.75,
          "velocity": 0.6299212598425197,
          "duration": 0.11979166666666785
        },
        {
          "name": "F3",
          "midi": 53,
          "time": 23.75,
          "velocity": 0.6299212598425197,
          "duration": 0.11979166666666785
        },
        {
          "name": "G4",
          "midi": 67,
          "time": 24,
          "velocity": 0.6299212598425197,
          "duration": 0.05729166666666785
        },
        {
          "name": "C3",
          "midi": 48,
          "time": 24,
          "velocity": 0.6299212598425197,
          "duration": 0.18229166666666785
        },
        {
          "name": "D#3",
          "midi": 51,
          "time": 24,
          "velocity": 0.6299212598425197,
          "duration": 0.18229166666666785
        },
        {
          "name": "G3",
          "midi": 55,
          "time": 24,
          "velocity": 0.6299212598425197,
          "duration": 0.18229166666666785
        },
        {
          "name": "G4",
          "midi": 67,
          "time": 24.125,
          "velocity": 0.6299212598425197,
          "duration": 0.05729166666666785
        },
        {
          "name": "G4",
          "midi": 67,
          "time": 24.25,
          "velocity": 0.6299212598425197,
          "duration": 0.05729166666666785
        },
        {
          "name": "G4",
          "midi": 67,
          "time": 24.375,
          "velocity": 0.6299212598425197,
          "duration": 0.05729166666666785
        },
        {
          "name": "C3",
          "midi": 48,
          "time": 24.375,
          "velocity": 0.6299212598425197,
          "duration": 0.18229166666666785
        },
        {
          "name": "D#3",
          "midi": 51,
          "time": 24.375,
          "velocity": 0.6299212598425197,
          "duration": 0.18229166666666785
        },
        {
          "name": "G3",
          "midi": 55,
          "time": 24.375,
          "velocity": 0.6299212598425197,
          "duration": 0.18229166666666785
        },
        {
          "name": "G4",
          "midi": 67,
          "time": 24.5,
          "velocity": 0.6299212598425197,
          "duration": 0.24479166666666785
        },
        {
          "name": "C3",
          "midi": 48,
          "time": 24.75,
          "velocity": 0.6299212598425197,
          "duration": 0.11979166666666785
        },
        {
          "name": "D#3",
          "midi": 51,
          "time": 24.75,
          "velocity": 0.6299212598425197,
          "duration": 0.11979166666666785
        },
        {
          "name": "G3",
          "midi": 55,
          "time": 24.75,
          "velocity": 0.6299212598425197,
          "duration": 0.11979166666666785
        },
        {
          "name": "C3",
          "midi": 48,
          "time": 25,
          "velocity": 0.6299212598425197,
          "duration": 0.18229166666666785
        },
        {
          "name": "D#3",
          "midi": 51,
          "time": 25,
          "velocity": 0.6299212598425197,
          "duration": 0.18229166666666785
        },
        {
          "name": "G3",
          "midi": 55,
          "time": 25,
          "velocity": 0.6299212598425197,
          "duration": 0.18229166666666785
        },
        {
          "name": "C3",
          "midi": 48,
          "time": 25.375,
          "velocity": 0.6299212598425197,
          "duration": 0.18229166666666785
        },
        {
          "name": "D#3",
          "midi": 51,
          "time": 25.375,
          "velocity": 0.6299212598425197,
          "duration": 0.18229166666666785
        },
        {
          "name": "G3",
          "midi": 55,
          "time": 25.375,
          "velocity": 0.6299212598425197,
          "duration": 0.18229166666666785
        },
        {
          "name": "C3",
          "midi": 48,
          "time": 25.75,
          "velocity": 0.6299212598425197,
          "duration": 0.11979166666666785
        },
        {
          "name": "D#3",
          "midi": 51,
          "time": 25.75,
          "velocity": 0.6299212598425197,
          "duration": 0.11979166666666785
        },
        {
          "name": "G3",
          "midi": 55,
          "time": 25.75,
          "velocity": 0.6299212598425197,
          "duration": 0.11979166666666785
        },
        {
          "name": "G4",
          "midi": 67,
          "time": 26,
          "velocity": 0.6299212598425197,
          "duration": 0.05729166666666785
        },
        {
          "name": "C3",
          "midi": 48,
          "time": 26,
          "velocity": 0.6299212598425197,
          "duration": 0.18229166666666785
        },
        {
          "name": "D#3",
          "midi": 51,
          "time": 26,
          "velocity": 0.6299212598425197,
          "duration": 0.18229166666666785
        },
        {
          "name": "G3",
          "midi": 55,
          "time": 26,
          "velocity": 0.6299212598425197,
          "duration": 0.18229166666666785
        },
        {
          "name": "G4",
          "midi": 67,
          "time": 26.125,
          "velocity": 0.6299212598425197,
          "duration": 0.05729166666666785
        },
        {
          "name": "G4",
          "midi": 67,
          "time": 26.25,
          "velocity": 0.6299212598425197,
          "duration": 0.05729166666666785
        },
        {
          "name": "G4",
          "midi": 67,
          "time": 26.375,
          "velocity": 0.6299212598425197,
          "duration": 0.05729166666666785
        },
        {
          "name": "C3",
          "midi": 48,
          "time": 26.375,
          "velocity": 0.6299212598425197,
          "duration": 0.18229166666666785
        },
        {
          "name": "D#3",
          "midi": 51,
          "time": 26.375,
          "velocity": 0.6299212598425197,
          "duration": 0.18229166666666785
        },
        {
          "name": "G3",
          "midi": 55,
          "time": 26.375,
          "velocity": 0.6299212598425197,
          "duration": 0.18229166666666785
        },
        {
          "name": "G4",
          "midi": 67,
          "time": 26.5,
          "velocity": 0.6299212598425197,
          "duration": 0.24479166666666785
        },
        {
          "name": "C3",
          "midi": 48,
          "time": 26.75,
          "velocity": 0.6299212598425197,
          "duration": 0.11979166666666785
        },
        {
          "name": "D#3",
          "midi": 51,
          "time": 26.75,
          "velocity": 0.6299212598425197,
          "duration": 0.11979166666666785
        },
        {
          "name": "G3",
          "midi": 55,
          "time": 26.75,
          "velocity": 0.6299212598425197,
          "duration": 0.11979166666666785
        },
        {
          "name": "C3",
          "midi": 48,
          "time": 27,
          "velocity": 0.6299212598425197,
          "duration": 0.18229166666666785
        },
        {
          "name": "D#3",
          "midi": 51,
          "time": 27,
          "velocity": 0.6299212598425197,
          "duration": 0.18229166666666785
        },
        {
          "name": "G3",
          "midi": 55,
          "time": 27,
          "velocity": 0.6299212598425197,
          "duration": 0.18229166666666785
        },
        {
          "name": "C3",
          "midi": 48,
          "time": 27.375,
          "velocity": 0.6299212598425197,
          "duration": 0.18229166666666785
        },
        {
          "name": "D#3",
          "midi": 51,
          "time": 27.375,
          "velocity": 0.6299212598425197,
          "duration": 0.18229166666666785
        },
        {
          "name": "G3",
          "midi": 55,
          "time": 27.375,
          "velocity": 0.6299212598425197,
          "duration": 0.18229166666666785
        },
        {
          "name": "C3",
          "midi": 48,
          "time": 27.75,
          "velocity": 0.6299212598425197,
          "duration": 0.11979166666666785
        },
        {
          "name": "D#3",
          "midi": 51,
          "time": 27.75,
          "velocity": 0.6299212598425197,
          "duration": 0.11979166666666785
        },
        {
          "name": "G3",
          "midi": 55,
          "time": 27.75,
          "velocity": 0.6299212598425197,
          "duration": 0.11979166666666785
        },
        {
          "name": "G4",
          "midi": 67,
          "time": 28,
          "velocity": 0.6299212598425197,
          "duration": 0.05729166666666785
        },
        {
          "name": "C3",
          "midi": 48,
          "time": 28,
          "velocity": 0.6299212598425197,
          "duration": 0.18229166666666785
        },
        {
          "name": "D#3",
          "midi": 51,
          "time": 28,
          "velocity": 0.6299212598425197,
          "duration": 0.18229166666666785
        },
        {
          "name": "G3",
          "midi": 55,
          "time": 28,
          "velocity": 0.6299212598425197,
          "duration": 0.18229166666666785
        },
        {
          "name": "G4",
          "midi": 67,
          "time": 28.125,
          "velocity": 0.6299212598425197,
          "duration": 0.05729166666666785
        },
        {
          "name": "G4",
          "midi": 67,
          "time": 28.25,
          "velocity": 0.6299212598425197,
          "duration": 0.05729166666666785
        },
        {
          "name": "G4",
          "midi": 67,
          "time": 28.375,
          "velocity": 0.6299212598425197,
          "duration": 0.05729166666666785
        },
        {
          "name": "C3",
          "midi": 48,
          "time": 28.375,
          "velocity": 0.6299212598425197,
          "duration": 0.18229166666666785
        },
        {
          "name": "D#3",
          "midi": 51,
          "time": 28.375,
          "velocity": 0.6299212598425197,
          "duration": 0.18229166666666785
        },
        {
          "name": "G3",
          "midi": 55,
          "time": 28.375,
          "velocity": 0.6299212598425197,
          "duration": 0.18229166666666785
        },
        {
          "name": "G4",
          "midi": 67,
          "time": 28.5,
          "velocity": 0.6299212598425197,
          "duration": 0.24479166666666785
        },
        {
          "name": "C3",
          "midi": 48,
          "time": 28.75,
          "velocity": 0.6299212598425197,
          "duration": 0.11979166666666785
        },
        {
          "name": "D#3",
          "midi": 51,
          "time": 28.75,
          "velocity": 0.6299212598425197,
          "duration": 0.11979166666666785
        },
        {
          "name": "G3",
          "midi": 55,
          "time": 28.75,
          "velocity": 0.6299212598425197,
          "duration": 0.11979166666666785
        },
        {
          "name": "C3",
          "midi": 48,
          "time": 29,
          "velocity": 0.6299212598425197,
          "duration": 0.18229166666666785
        },
        {
          "name": "D#3",
          "midi": 51,
          "time": 29,
          "velocity": 0.6299212598425197,
          "duration": 0.18229166666666785
        },
        {
          "name": "G3",
          "midi": 55,
          "time": 29,
          "velocity": 0.6299212598425197,
          "duration": 0.18229166666666785
        },
        {
          "name": "C3",
          "midi": 48,
          "time": 29.375,
          "velocity": 0.6299212598425197,
          "duration": 0.18229166666666785
        },
        {
          "name": "D#3",
          "midi": 51,
          "time": 29.375,
          "velocity": 0.6299212598425197,
          "duration": 0.18229166666666785
        },
        {
          "name": "G3",
          "midi": 55,
          "time": 29.375,
          "velocity": 0.6299212598425197,
          "duration": 0.18229166666666785
        },
        {
          "name": "C3",
          "midi": 48,
          "time": 29.75,
          "velocity": 0.6299212598425197,
          "duration": 0.11979166666666785
        },
        {
          "name": "D#3",
          "midi": 51,
          "time": 29.75,
          "velocity": 0.6299212598425197,
          "duration": 0.11979166666666785
        },
        {
          "name": "G3",
          "midi": 55,
          "time": 29.75,
          "velocity": 0.6299212598425197,
          "duration": 0.11979166666666785
        },
        {
          "name": "G4",
          "midi": 67,
          "time": 30,
          "velocity": 0.6299212598425197,
          "duration": 0.05729166666666785
        },
        {
          "name": "C3",
          "midi": 48,
          "time": 30,
          "velocity": 0.6299212598425197,
          "duration": 0.18229166666666785
        },
        {
          "name": "D#3",
          "midi": 51,
          "time": 30,
          "velocity": 0.6299212598425197,
          "duration": 0.18229166666666785
        },
        {
          "name": "G3",
          "midi": 55,
          "time": 30,
          "velocity": 0.6299212598425197,
          "duration": 0.18229166666666785
        },
        {
          "name": "G4",
          "midi": 67,
          "time": 30.125,
          "velocity": 0.6299212598425197,
          "duration": 0.05729166666666785
        },
        {
          "name": "G4",
          "midi": 67,
          "time": 30.25,
          "velocity": 0.6299212598425197,
          "duration": 0.05729166666666785
        },
        {
          "name": "G4",
          "midi": 67,
          "time": 30.375,
          "velocity": 0.6299212598425197,
          "duration": 0.05729166666666785
        },
        {
          "name": "C3",
          "midi": 48,
          "time": 30.375,
          "velocity": 0.6299212598425197,
          "duration": 0.18229166666666785
        },
        {
          "name": "D#3",
          "midi": 51,
          "time": 30.375,
          "velocity": 0.6299212598425197,
          "duration": 0.18229166666666785
        },
        {
          "name": "G3",
          "midi": 55,
          "time": 30.375,
          "velocity": 0.6299212598425197,
          "duration": 0.18229166666666785
        },
        {
          "name": "G4",
          "midi": 67,
          "time": 30.5,
          "velocity": 0.6299212598425197,
          "duration": 0.24479166666666785
        },
        {
          "name": "C3",
          "midi": 48,
          "time": 30.75,
          "velocity": 0.6299212598425197,
          "duration": 0.11979166666666785
        },
        {
          "name": "D#3",
          "midi": 51,
          "time": 30.75,
          "velocity": 0.6299212598425197,
          "duration": 0.11979166666666785
        },
        {
          "name": "G3",
          "midi": 55,
          "time": 30.75,
          "velocity": 0.6299212598425197,
          "duration": 0.11979166666666785
        },
        {
          "name": "C3",
          "midi": 48,
          "time": 31,
          "velocity": 0.6299212598425197,
          "duration": 0.18229166666666785
        },
        {
          "name": "D#3",
          "midi": 51,
          "time": 31,
          "velocity": 0.6299212598425197,
          "duration": 0.18229166666666785
        },
        {
          "name": "G3",
          "midi": 55,
          "time": 31,
          "velocity": 0.6299212598425197,
          "duration": 0.18229166666666785
        },
        {
          "name": "C3",
          "midi": 48,
          "time": 31.375,
          "velocity": 0.6299212598425197,
          "duration": 0.18229166666666785
        },
        {
          "name": "D#3",
          "midi": 51,
          "time": 31.375,
          "velocity": 0.6299212598425197,
          "duration": 0.18229166666666785
        },
        {
          "name": "G3",
          "midi": 55,
          "time": 31.375,
          "velocity": 0.6299212598425197,
          "duration": 0.18229166666666785
        },
        {
          "name": "C3",
          "midi": 48,
          "time": 31.75,
          "velocity": 0.6299212598425197,
          "duration": 0.11979166666666785
        },
        {
          "name": "D#3",
          "midi": 51,
          "time": 31.75,
          "velocity": 0.6299212598425197,
          "duration": 0.11979166666666785
        },
        {
          "name": "G3",
          "midi": 55,
          "time": 31.75,
          "velocity": 0.6299212598425197,
          "duration": 0.11979166666666785
        },
        {
          "name": "G4",
          "midi": 67,
          "time": 32,
          "velocity": 0.6299212598425197,
          "duration": 0.0572916666666643
        },
        {
          "name": "C3",
          "midi": 48,
          "time": 32,
          "velocity": 0.6299212598425197,
          "duration": 0.1822916666666643
        },
        {
          "name": "D#3",
          "midi": 51,
          "time": 32,
          "velocity": 0.6299212598425197,
          "duration": 0.1822916666666643
        },
        {
          "name": "G3",
          "midi": 55,
          "time": 32,
          "velocity": 0.6299212598425197,
          "duration": 0.1822916666666643
        },
        {
          "name": "G4",
          "midi": 67,
          "time": 32.125,
          "velocity": 0.6299212598425197,
          "duration": 0.0572916666666643
        },
        {
          "name": "G4",
          "midi": 67,
          "time": 32.25,
          "velocity": 0.6299212598425197,
          "duration": 0.0572916666666643
        },
        {
          "name": "G4",
          "midi": 67,
          "time": 32.375,
          "velocity": 0.6299212598425197,
          "duration": 0.0572916666666643
        },
        {
          "name": "C3",
          "midi": 48,
          "time": 32.375,
          "velocity": 0.6299212598425197,
          "duration": 0.1822916666666643
        },
        {
          "name": "D#3",
          "midi": 51,
          "time": 32.375,
          "velocity": 0.6299212598425197,
          "duration": 0.1822916666666643
        },
        {
          "name": "G3",
          "midi": 55,
          "time": 32.375,
          "velocity": 0.6299212598425197,
          "duration": 0.1822916666666643
        },
        {
          "name": "G4",
          "midi": 67,
          "time": 32.5,
          "velocity": 0.6299212598425197,
          "duration": 0.2447916666666643
        },
        {
          "name": "C3",
          "midi": 48,
          "time": 32.75,
          "velocity": 0.6299212598425197,
          "duration": 0.1197916666666643
        },
        {
          "name": "D#3",
          "midi": 51,
          "time": 32.75,
          "velocity": 0.6299212598425197,
          "duration": 0.1197916666666643
        },
        {
          "name": "G3",
          "midi": 55,
          "time": 32.75,
          "velocity": 0.6299212598425197,
          "duration": 0.1197916666666643
        },
        {
          "name": "G4",
          "midi": 67,
          "time": 33,
          "velocity": 0.6299212598425197,
          "duration": 0.0572916666666643
        },
        {
          "name": "C3",
          "midi": 48,
          "time": 33,
          "velocity": 0.6299212598425197,
          "duration": 0.1822916666666643
        },
        {
          "name": "D#3",
          "midi": 51,
          "time": 33,
          "velocity": 0.6299212598425197,
          "duration": 0.1822916666666643
        },
        {
          "name": "G3",
          "midi": 55,
          "time": 33,
          "velocity": 0.6299212598425197,
          "duration": 0.1822916666666643
        },
        {
          "name": "G4",
          "midi": 67,
          "time": 33.125,
          "velocity": 0.6299212598425197,
          "duration": 0.0572916666666643
        },
        {
          "name": "G4",
          "midi": 67,
          "time": 33.25,
          "velocity": 0.6299212598425197,
          "duration": 0.0572916666666643
        },
        {
          "name": "G4",
          "midi": 67,
          "time": 33.375,
          "velocity": 0.6299212598425197,
          "duration": 0.0572916666666643
        },
        {
          "name": "C3",
          "midi": 48,
          "time": 33.375,
          "velocity": 0.6299212598425197,
          "duration": 0.1822916666666643
        },
        {
          "name": "D#3",
          "midi": 51,
          "time": 33.375,
          "velocity": 0.6299212598425197,
          "duration": 0.1822916666666643
        },
        {
          "name": "G3",
          "midi": 55,
          "time": 33.375,
          "velocity": 0.6299212598425197,
          "duration": 0.1822916666666643
        },
        {
          "name": "G4",
          "midi": 67,
          "time": 33.5,
          "velocity": 0.6299212598425197,
          "duration": 0.2447916666666643
        },
        {
          "name": "C3",
          "midi": 48,
          "time": 33.75,
          "velocity": 0.6299212598425197,
          "duration": 0.1197916666666643
        },
        {
          "name": "D#3",
          "midi": 51,
          "time": 33.75,
          "velocity": 0.6299212598425197,
          "duration": 0.1197916666666643
        },
        {
          "name": "G3",
          "midi": 55,
          "time": 33.75,
          "velocity": 0.6299212598425197,
          "duration": 0.1197916666666643
        },
        {
          "name": "G4",
          "midi": 67,
          "time": 34,
          "velocity": 0.6299212598425197,
          "duration": 0.0572916666666643
        },
        {
          "name": "C3",
          "midi": 48,
          "time": 34,
          "velocity": 0.6299212598425197,
          "duration": 0.1822916666666643
        },
        {
          "name": "D#3",
          "midi": 51,
          "time": 34,
          "velocity": 0.6299212598425197,
          "duration": 0.1822916666666643
        },
        {
          "name": "G3",
          "midi": 55,
          "time": 34,
          "velocity": 0.6299212598425197,
          "duration": 0.1822916666666643
        },
        {
          "name": "G4",
          "midi": 67,
          "time": 34.125,
          "velocity": 0.6299212598425197,
          "duration": 0.0572916666666643
        },
        {
          "name": "G4",
          "midi": 67,
          "time": 34.25,
          "velocity": 0.6299212598425197,
          "duration": 0.0572916666666643
        },
        {
          "name": "G4",
          "midi": 67,
          "time": 34.375,
          "velocity": 0.6299212598425197,
          "duration": 0.0572916666666643
        },
        {
          "name": "C3",
          "midi": 48,
          "time": 34.375,
          "velocity": 0.6299212598425197,
          "duration": 0.1822916666666643
        },
        {
          "name": "D#3",
          "midi": 51,
          "time": 34.375,
          "velocity": 0.6299212598425197,
          "duration": 0.1822916666666643
        },
        {
          "name": "G3",
          "midi": 55,
          "time": 34.375,
          "velocity": 0.6299212598425197,
          "duration": 0.1822916666666643
        },
        {
          "name": "G4",
          "midi": 67,
          "time": 34.5,
          "velocity": 0.6299212598425197,
          "duration": 0.2447916666666643
        },
        {
          "name": "C3",
          "midi": 48,
          "time": 34.75,
          "velocity": 0.6299212598425197,
          "duration": 0.1197916666666643
        },
        {
          "name": "D#3",
          "midi": 51,
          "time": 34.75,
          "velocity": 0.6299212598425197,
          "duration": 0.1197916666666643
        },
        {
          "name": "G3",
          "midi": 55,
          "time": 34.75,
          "velocity": 0.6299212598425197,
          "duration": 0.1197916666666643
        },
        {
          "name": "G4",
          "midi": 67,
          "time": 35,
          "velocity": 0.6299212598425197,
          "duration": 0.0572916666666643
        },
        {
          "name": "C3",
          "midi": 48,
          "time": 35,
          "velocity": 0.6299212598425197,
          "duration": 0.1822916666666643
        },
        {
          "name": "D#3",
          "midi": 51,
          "time": 35,
          "velocity": 0.6299212598425197,
          "duration": 0.1822916666666643
        },
        {
          "name": "G3",
          "midi": 55,
          "time": 35,
          "velocity": 0.6299212598425197,
          "duration": 0.1822916666666643
        },
        {
          "name": "G4",
          "midi": 67,
          "time": 35.125,
          "velocity": 0.6299212598425197,
          "duration": 0.0572916666666643
        },
        {
          "name": "G4",
          "midi": 67,
          "time": 35.25,
          "velocity": 0.6299212598425197,
          "duration": 0.0572916666666643
        },
        {
          "name": "G4",
          "midi": 67,
          "time": 35.375,
          "velocity": 0.6299212598425197,
          "duration": 0.0572916666666643
        },
        {
          "name": "C3",
          "midi": 48,
          "time": 35.375,
          "velocity": 0.6299212598425197,
          "duration": 0.1822916666666643
        },
        {
          "name": "D#3",
          "midi": 51,
          "time": 35.375,
          "velocity": 0.6299212598425197,
          "duration": 0.1822916666666643
        },
        {
          "name": "G3",
          "midi": 55,
          "time": 35.375,
          "velocity": 0.6299212598425197,
          "duration": 0.1822916666666643
        },
        {
          "name": "G4",
          "midi": 67,
          "time": 35.5,
          "velocity": 0.6299212598425197,
          "duration": 0.2447916666666643
        },
        {
          "name": "C3",
          "midi": 48,
          "time": 35.75,
          "velocity": 0.6299212598425197,
          "duration": 0.1197916666666643
        },
        {
          "name": "D#3",
          "midi": 51,
          "time": 35.75,
          "velocity": 0.6299212598425197,
          "duration": 0.1197916666666643
        },
        {
          "name": "G3",
          "midi": 55,
          "time": 35.75,
          "velocity": 0.6299212598425197,
          "duration": 0.1197916666666643
        },
        {
          "name": "G4",
          "midi": 67,
          "time": 36.00520833333333,
          "velocity": 0.6299212598425197,
          "duration": 0.0520833333333357
        },
        {
          "name": "C3",
          "midi": 48,
          "time": 36.00520833333333,
          "velocity": 0.6299212598425197,
          "duration": 0.1145833333333357
        },
        {
          "name": "D#3",
          "midi": 51,
          "time": 36.00520833333333,
          "velocity": 0.6299212598425197,
          "duration": 0.1145833333333357
        },
        {
          "name": "G3",
          "midi": 55,
          "time": 36.00520833333333,
          "velocity": 0.6299212598425197,
          "duration": 0.1145833333333357
        },
        {
          "name": "G4",
          "midi": 67,
          "time": 36.119791666666664,
          "velocity": 0.6299212598425197,
          "duration": 0.0572916666666643
        },
        {
          "name": "G4",
          "midi": 67,
          "time": 36.23958333333333,
          "velocity": 0.6299212598425197,
          "duration": 0.0520833333333357
        },
        {
          "name": "C3",
          "midi": 48,
          "time": 36.23958333333333,
          "velocity": 0.6299212598425197,
          "duration": 0.109375
        },
        {
          "name": "D#3",
          "midi": 51,
          "time": 36.23958333333333,
          "velocity": 0.6299212598425197,
          "duration": 0.109375
        },
        {
          "name": "G3",
          "midi": 55,
          "time": 36.23958333333333,
          "velocity": 0.6299212598425197,
          "duration": 0.109375
        },
        {
          "name": "G4",
          "midi": 67,
          "time": 36.354166666666664,
          "velocity": 0.6299212598425197,
          "duration": 0.0572916666666643
        },
        {
          "name": "G4",
          "midi": 67,
          "time": 36.47395833333333,
          "velocity": 0.6299212598425197,
          "duration": 0.0520833333333357
        },
        {
          "name": "C3",
          "midi": 48,
          "time": 36.47395833333333,
          "velocity": 0.6299212598425197,
          "duration": 0.109375
        },
        {
          "name": "D#3",
          "midi": 51,
          "time": 36.47395833333333,
          "velocity": 0.6299212598425197,
          "duration": 0.109375
        },
        {
          "name": "G3",
          "midi": 55,
          "time": 36.47395833333333,
          "velocity": 0.6299212598425197,
          "duration": 0.109375
        },
        {
          "name": "G4",
          "midi": 67,
          "time": 36.588541666666664,
          "velocity": 0.6299212598425197,
          "duration": 0.0572916666666643
        },
        {
          "name": "G4",
          "midi": 67,
          "time": 36.70833333333333,
          "velocity": 0.6299212598425197,
          "duration": 0.0520833333333357
        },
        {
          "name": "C3",
          "midi": 48,
          "time": 36.70833333333333,
          "velocity": 0.6299212598425197,
          "duration": 0.109375
        },
        {
          "name": "D#3",
          "midi": 51,
          "time": 36.70833333333333,
          "velocity": 0.6299212598425197,
          "duration": 0.109375
        },
        {
          "name": "G3",
          "midi": 55,
          "time": 36.70833333333333,
          "velocity": 0.6299212598425197,
          "duration": 0.109375
        },
        {
          "name": "G4",
          "midi": 67,
          "time": 36.822916666666664,
          "velocity": 0.6299212598425197,
          "duration": 0.0572916666666643
        },
        {
          "name": "G4",
          "midi": 67,
          "time": 36.94270833333333,
          "velocity": 0.6299212598425197,
          "duration": 0.0520833333333357
        },
        {
          "name": "C3",
          "midi": 48,
          "time": 36.94270833333333,
          "velocity": 0.6299212598425197,
          "duration": 0.109375
        },
        {
          "name": "D#3",
          "midi": 51,
          "time": 36.94270833333333,
          "velocity": 0.6299212598425197,
          "duration": 0.109375
        },
        {
          "name": "G3",
          "midi": 55,
          "time": 36.94270833333333,
          "velocity": 0.6299212598425197,
          "duration": 0.109375
        },
        {
          "name": "G4",
          "midi": 67,
          "time": 37.057291666666664,
          "velocity": 0.6299212598425197,
          "duration": 0.0572916666666643
        },
        {
          "name": "G4",
          "midi": 67,
          "time": 37.17708333333333,
          "velocity": 0.6299212598425197,
          "duration": 0.0520833333333357
        },
        {
          "name": "C3",
          "midi": 48,
          "time": 37.17708333333333,
          "velocity": 0.6299212598425197,
          "duration": 0.109375
        },
        {
          "name": "D#3",
          "midi": 51,
          "time": 37.17708333333333,
          "velocity": 0.6299212598425197,
          "duration": 0.109375
        },
        {
          "name": "G3",
          "midi": 55,
          "time": 37.17708333333333,
          "velocity": 0.6299212598425197,
          "duration": 0.109375
        },
        {
          "name": "G4",
          "midi": 67,
          "time": 37.291666666666664,
          "velocity": 0.6299212598425197,
          "duration": 0.0572916666666643
        },
        {
          "name": "G4",
          "midi": 67,
          "time": 37.41145833333333,
          "velocity": 0.6299212598425197,
          "duration": 0.0520833333333357
        },
        {
          "name": "C3",
          "midi": 48,
          "time": 37.41145833333333,
          "velocity": 0.6299212598425197,
          "duration": 0.109375
        },
        {
          "name": "D#3",
          "midi": 51,
          "time": 37.41145833333333,
          "velocity": 0.6299212598425197,
          "duration": 0.109375
        },
        {
          "name": "G3",
          "midi": 55,
          "time": 37.41145833333333,
          "velocity": 0.6299212598425197,
          "duration": 0.109375
        },
        {
          "name": "G4",
          "midi": 67,
          "time": 37.526041666666664,
          "velocity": 0.6299212598425197,
          "duration": 0.0520833333333357
        },
        {
          "name": "G4",
          "midi": 67,
          "time": 37.645833333333336,
          "velocity": 0.6299212598425197,
          "duration": 0.0520833333333357
        },
        {
          "name": "C3",
          "midi": 48,
          "time": 37.645833333333336,
          "velocity": 0.6299212598425197,
          "duration": 0.109375
        },
        {
          "name": "D#3",
          "midi": 51,
          "time": 37.645833333333336,
          "velocity": 0.6299212598425197,
          "duration": 0.109375
        },
        {
          "name": "G3",
          "midi": 55,
          "time": 37.645833333333336,
          "velocity": 0.6299212598425197,
          "duration": 0.109375
        },
        {
          "name": "G4",
          "midi": 67,
          "time": 37.76041666666667,
          "velocity": 0.6299212598425197,
          "duration": 0.0520833333333357
        },
        {
          "name": "G4",
          "midi": 67,
          "time": 37.88020833333334,
          "velocity": 0.6299212598425197,
          "duration": 0.0520833333333357
        },
        {
          "name": "C3",
          "midi": 48,
          "time": 37.88020833333334,
          "velocity": 0.6299212598425197,
          "duration": 0.109375
        },
        {
          "name": "D#3",
          "midi": 51,
          "time": 37.88020833333334,
          "velocity": 0.6299212598425197,
          "duration": 0.109375
        },
        {
          "name": "G3",
          "midi": 55,
          "time": 37.88020833333334,
          "velocity": 0.6299212598425197,
          "duration": 0.109375
        },
        {
          "name": "G4",
          "midi": 67,
          "time": 37.99479166666668,
          "velocity": 0.6299212598425197,
          "duration": 0.0520833333333357
        },
        {
          "name": "G4",
          "midi": 67,
          "time": 38.11458333333335,
          "velocity": 0.6299212598425197,
          "duration": 0.0520833333333357
        },
        {
          "name": "C3",
          "midi": 48,
          "time": 38.11458333333335,
          "velocity": 0.6299212598425197,
          "duration": 0.109375
        },
        {
          "name": "D#3",
          "midi": 51,
          "time": 38.11458333333335,
          "velocity": 0.6299212598425197,
          "duration": 0.109375
        },
        {
          "name": "G3",
          "midi": 55,
          "time": 38.11458333333335,
          "velocity": 0.6299212598425197,
          "duration": 0.109375
        },
        {
          "name": "G4",
          "midi": 67,
          "time": 38.229166666666686,
          "velocity": 0.6299212598425197,
          "duration": 0.0520833333333357
        },
        {
          "name": "G4",
          "midi": 67,
          "time": 38.34375000000002,
          "velocity": 0.6299212598425197,
          "duration": 0.0572916666666643
        },
        {
          "name": "C3",
          "midi": 48,
          "time": 38.34375000000002,
          "velocity": 0.6299212598425197,
          "duration": 0.1145833333333286
        },
        {
          "name": "D#3",
          "midi": 51,
          "time": 38.34375000000002,
          "velocity": 0.6299212598425197,
          "duration": 0.1145833333333286
        },
        {
          "name": "G3",
          "midi": 55,
          "time": 38.34375000000002,
          "velocity": 0.6299212598425197,
          "duration": 0.1145833333333286
        },
        {
          "name": "G4",
          "midi": 67,
          "time": 38.463541666666686,
          "velocity": 0.6299212598425197,
          "duration": 0.0520833333333357
        },
        {
          "name": "G4",
          "midi": 67,
          "time": 38.57812500000002,
          "velocity": 0.6299212598425197,
          "duration": 0.0572916666666643
        },
        {
          "name": "C3",
          "midi": 48,
          "time": 38.57812500000002,
          "velocity": 0.6299212598425197,
          "duration": 0.1145833333333286
        },
        {
          "name": "D#3",
          "midi": 51,
          "time": 38.57812500000002,
          "velocity": 0.6299212598425197,
          "duration": 0.1145833333333286
        },
        {
          "name": "G3",
          "midi": 55,
          "time": 38.57812500000002,
          "velocity": 0.6299212598425197,
          "duration": 0.1145833333333286
        },
        {
          "name": "G4",
          "midi": 67,
          "time": 38.697916666666686,
          "velocity": 0.6299212598425197,
          "duration": 0.0520833333333357
        },
        {
          "name": "G3",
          "midi": 55,
          "time": 38.81250000000002,
          "velocity": 0.6299212598425197,
          "duration": 0.1145833333333286
        },
        {
          "name": "D#3",
          "midi": 51,
          "time": 38.81250000000002,
          "velocity": 0.6299212598425197,
          "duration": 0.1145833333333286
        },
        {
          "name": "C3",
          "midi": 48,
          "time": 38.81250000000002,
          "velocity": 0.6299212598425197,
          "duration": 0.1145833333333286
        },
        {
          "name": "G4",
          "midi": 67,
          "time": 38.81250000000002,
          "velocity": 0.6299212598425197,
          "duration": 0.0572916666666643
        },
        {
          "name": "G4",
          "midi": 67,
          "time": 38.932291666666686,
          "velocity": 0.6299212598425197,
          "duration": 0.0520833333333357
        },
        {
          "name": "G3",
          "midi": 55,
          "time": 39.04687500000002,
          "velocity": 0.6299212598425197,
          "duration": 0.1145833333333286
        },
        {
          "name": "D#3",
          "midi": 51,
          "time": 39.04687500000002,
          "velocity": 0.6299212598425197,
          "duration": 0.1145833333333286
        },
        {
          "name": "C3",
          "midi": 48,
          "time": 39.04687500000002,
          "velocity": 0.6299212598425197,
          "duration": 0.1145833333333286
        },
        {
          "name": "G4",
          "midi": 67,
          "time": 39.04687500000002,
          "velocity": 0.6299212598425197,
          "duration": 0.0572916666666643
        },
        {
          "name": "G4",
          "midi": 67,
          "time": 39.166666666666686,
          "velocity": 0.6299212598425197,
          "duration": 0.0520833333333357
        },
        {
          "name": "G3",
          "midi": 55,
          "time": 39.28125000000002,
          "velocity": 0.6299212598425197,
          "duration": 0.1145833333333286
        },
        {
          "name": "D#3",
          "midi": 51,
          "time": 39.28125000000002,
          "velocity": 0.6299212598425197,
          "duration": 0.1145833333333286
        },
        {
          "name": "C3",
          "midi": 48,
          "time": 39.28125000000002,
          "velocity": 0.6299212598425197,
          "duration": 0.1145833333333286
        },
        {
          "name": "G4",
          "midi": 67,
          "time": 39.28125000000002,
          "velocity": 0.6299212598425197,
          "duration": 0.0572916666666643
        },
        {
          "name": "G4",
          "midi": 67,
          "time": 39.401041666666686,
          "velocity": 0.6299212598425197,
          "duration": 0.0520833333333357
        },
        {
          "name": "G3",
          "midi": 55,
          "time": 39.51562500000002,
          "velocity": 0.6299212598425197,
          "duration": 0.1145833333333286
        },
        {
          "name": "D#3",
          "midi": 51,
          "time": 39.51562500000002,
          "velocity": 0.6299212598425197,
          "duration": 0.1145833333333286
        },
        {
          "name": "C3",
          "midi": 48,
          "time": 39.51562500000002,
          "velocity": 0.6299212598425197,
          "duration": 0.1145833333333286
        },
        {
          "name": "G4",
          "midi": 67,
          "time": 39.51562500000002,
          "velocity": 0.6299212598425197,
          "duration": 0.0572916666666643
        },
        {
          "name": "G4",
          "midi": 67,
          "time": 39.635416666666686,
          "velocity": 0.6299212598425197,
          "duration": 0.0520833333333357
        },
        {
          "name": "C3",
          "midi": 48,
          "time": 39.744791666666686,
          "velocity": 0.6299212598425197,
          "duration": 0.109375
        },
        {
          "name": "G4",
          "midi": 67,
          "time": 39.744791666666686,
          "velocity": 0.6299212598425197,
          "duration": 0.0520833333333357
        },
        {
          "name": "G4",
          "midi": 67,
          "time": 39.854166666666686,
          "velocity": 0.6299212598425197,
          "duration": 0.0520833333333357
        },
        {
          "name": "G3",
          "midi": 55,
          "time": 39.963541666666686,
          "velocity": 0.6299212598425197,
          "duration": 0.109375
        },
        {
          "name": "D#3",
          "midi": 51,
          "time": 39.963541666666686,
          "velocity": 0.6299212598425197,
          "duration": 0.109375
        },
        {
          "name": "C3",
          "midi": 48,
          "time": 39.963541666666686,
          "velocity": 0.6299212598425197,
          "duration": 0.109375
        },
        {
          "name": "G4",
          "midi": 67,
          "time": 39.963541666666686,
          "velocity": 0.6299212598425197,
          "duration": 0.0572916666666643
        },
        {
          "name": "G4",
          "midi": 67,
          "time": 40.07812500000002,
          "velocity": 0.6299212598425197,
          "duration": 0.0520833333333357
        },
        {
          "name": "C3",
          "midi": 48,
          "time": 40.18750000000002,
          "velocity": 0.6299212598425197,
          "duration": 0.109375
        },
        {
          "name": "G4",
          "midi": 67,
          "time": 40.18750000000002,
          "velocity": 0.6299212598425197,
          "duration": 0.2083333333333357
        },
        {
          "name": "G3",
          "midi": 55,
          "time": 40.40625000000002,
          "velocity": 0.6299212598425197,
          "duration": 0.109375
        },
        {
          "name": "D#3",
          "midi": 51,
          "time": 40.40625000000002,
          "velocity": 0.6299212598425197,
          "duration": 0.109375
        },
        {
          "name": "C3",
          "midi": 48,
          "time": 40.40625000000002,
          "velocity": 0.6299212598425197,
          "duration": 0.109375
        },
        {
          "name": "G4",
          "midi": 67,
          "time": 40.40625000000002,
          "velocity": 0.6299212598425197,
          "duration": 0.0520833333333357
        },
        {
          "name": "G4",
          "midi": 67,
          "time": 40.51562500000002,
          "velocity": 0.6299212598425197,
          "duration": 0.0572916666666643
        },
        {
          "name": "C3",
          "midi": 48,
          "time": 40.63020833333335,
          "velocity": 0.6299212598425197,
          "duration": 0.1041666666666714
        },
        {
          "name": "G4",
          "midi": 67,
          "time": 40.63020833333335,
          "velocity": 0.6299212598425197,
          "duration": 0.0520833333333357
        },
        {
          "name": "G4",
          "midi": 67,
          "time": 40.73958333333336,
          "velocity": 0.6299212598425197,
          "duration": 0.0520833333333357
        },
        {
          "name": "G3",
          "midi": 55,
          "time": 40.84895833333336,
          "velocity": 0.6299212598425197,
          "duration": 0.109375
        },
        {
          "name": "D#3",
          "midi": 51,
          "time": 40.84895833333336,
          "velocity": 0.6299212598425197,
          "duration": 0.109375
        },
        {
          "name": "C3",
          "midi": 48,
          "time": 40.84895833333336,
          "velocity": 0.6299212598425197,
          "duration": 0.109375
        },
        {
          "name": "G4",
          "midi": 67,
          "time": 40.84895833333336,
          "velocity": 0.6299212598425197,
          "duration": 0.0520833333333357
        },
        {
          "name": "G4",
          "midi": 67,
          "time": 40.95833333333336,
          "velocity": 0.6299212598425197,
          "duration": 0.0572916666666643
        },
        {
          "name": "C3",
          "midi": 48,
          "time": 41.072916666666686,
          "velocity": 0.6299212598425197,
          "duration": 0.1041666666666643
        },
        {
          "name": "G4",
          "midi": 67,
          "time": 41.072916666666686,
          "velocity": 0.6299212598425197,
          "duration": 0.2083333333333286
        },
        {
          "name": "C4",
          "midi": 60,
          "time": 41.29166666666668,
          "velocity": 0.6299212598425197,
          "duration": 0.109375
        },
        {
          "name": "G#3",
          "midi": 56,
          "time": 41.29166666666668,
          "velocity": 0.6299212598425197,
          "duration": 0.109375
        },
        {
          "name": "F3",
          "midi": 53,
          "time": 41.29166666666668,
          "velocity": 0.6299212598425197,
          "duration": 0.109375
        },
        {
          "name": "C5",
          "midi": 72,
          "time": 41.29166666666668,
          "velocity": 0.6299212598425197,
          "duration": 0.0520833333333357
        },
        {
          "name": "C5",
          "midi": 72,
          "time": 41.40104166666668,
          "velocity": 0.6299212598425197,
          "duration": 0.0520833333333357
        },
        {
          "name": "F3",
          "midi": 53,
          "time": 41.51041666666668,
          "velocity": 0.6299212598425197,
          "duration": 0.109375
        },
        {
          "name": "C5",
          "midi": 72,
          "time": 41.51041666666668,
          "velocity": 0.6299212598425197,
          "duration": 0.0572916666666643
        },
        {
          "name": "C5",
          "midi": 72,
          "time": 41.625000000000014,
          "velocity": 0.6299212598425197,
          "duration": 0.0520833333333357
        },
        {
          "name": "C4",
          "midi": 60,
          "time": 41.734375000000014,
          "velocity": 0.6299212598425197,
          "duration": 0.109375
        },
        {
          "name": "G#3",
          "midi": 56,
          "time": 41.734375000000014,
          "velocity": 0.6299212598425197,
          "duration": 0.109375
        },
        {
          "name": "F3",
          "midi": 53,
          "time": 41.734375000000014,
          "velocity": 0.6299212598425197,
          "duration": 0.109375
        },
        {
          "name": "C5",
          "midi": 72,
          "time": 41.734375000000014,
          "velocity": 0.6299212598425197,
          "duration": 0.0520833333333357
        },
        {
          "name": "C5",
          "midi": 72,
          "time": 41.843750000000014,
          "velocity": 0.6299212598425197,
          "duration": 0.0520833333333357
        },
        {
          "name": "F3",
          "midi": 53,
          "time": 41.953125000000014,
          "velocity": 0.6299212598425197,
          "duration": 0.109375
        },
        {
          "name": "C5",
          "midi": 72,
          "time": 41.953125000000014,
          "velocity": 0.6299212598425197,
          "duration": 0.203125
        },
        {
          "name": "A#3",
          "midi": 58,
          "time": 42.171875000000014,
          "velocity": 0.6299212598425197,
          "duration": 0.1041666666666714
        },
        {
          "name": "G3",
          "midi": 55,
          "time": 42.171875000000014,
          "velocity": 0.6299212598425197,
          "duration": 0.1041666666666714
        },
        {
          "name": "D#3",
          "midi": 51,
          "time": 42.171875000000014,
          "velocity": 0.6299212598425197,
          "duration": 0.1041666666666714
        },
        {
          "name": "A#4",
          "midi": 70,
          "time": 42.171875000000014,
          "velocity": 0.6299212598425197,
          "duration": 0.0520833333333357
        },
        {
          "name": "A#4",
          "midi": 70,
          "time": 42.28125000000002,
          "velocity": 0.6299212598425197,
          "duration": 0.0520833333333357
        },
        {
          "name": "D#3",
          "midi": 51,
          "time": 42.39062500000002,
          "velocity": 0.6299212598425197,
          "duration": 0.109375
        },
        {
          "name": "A#4",
          "midi": 70,
          "time": 42.39062500000002,
          "velocity": 0.6299212598425197,
          "duration": 0.0520833333333357
        },
        {
          "name": "A#4",
          "midi": 70,
          "time": 42.50000000000002,
          "velocity": 0.6299212598425197,
          "duration": 0.0520833333333357
        },
        {
          "name": "A#3",
          "midi": 58,
          "time": 42.61458333333336,
          "velocity": 0.6299212598425197,
          "duration": 0.1041666666666714
        },
        {
          "name": "G3",
          "midi": 55,
          "time": 42.61458333333336,
          "velocity": 0.6299212598425197,
          "duration": 0.1041666666666714
        },
        {
          "name": "D#3",
          "midi": 51,
          "time": 42.61458333333336,
          "velocity": 0.6299212598425197,
          "duration": 0.1041666666666714
        },
        {
          "name": "A#4",
          "midi": 70,
          "time": 42.61458333333336,
          "velocity": 0.6299212598425197,
          "duration": 0.0520833333333357
        },
        {
          "name": "A#4",
          "midi": 70,
          "time": 42.723958333333364,
          "velocity": 0.6299212598425197,
          "duration": 0.0520833333333357
        },
        {
          "name": "A#2",
          "midi": 46,
          "time": 42.833333333333364,
          "velocity": 0.6299212598425197,
          "duration": 0.109375
        },
        {
          "name": "A#4",
          "midi": 70,
          "time": 42.833333333333364,
          "velocity": 0.6299212598425197,
          "duration": 0.2083333333333357
        },
        {
          "name": "F3",
          "midi": 53,
          "time": 43.052083333333364,
          "velocity": 0.6299212598425197,
          "duration": 0.109375
        },
        {
          "name": "D3",
          "midi": 50,
          "time": 43.052083333333364,
          "velocity": 0.6299212598425197,
          "duration": 0.109375
        },
        {
          "name": "A#2",
          "midi": 46,
          "time": 43.052083333333364,
          "velocity": 0.6299212598425197,
          "duration": 0.109375
        },
        {
          "name": "F4",
          "midi": 65,
          "time": 43.052083333333364,
          "velocity": 0.6299212598425197,
          "duration": 0.2135416666666643
        },
        {
          "name": "C3",
          "midi": 48,
          "time": 43.27604166666669,
          "velocity": 0.6299212598425197,
          "duration": 0.109375
        },
        {
          "name": "G4",
          "midi": 67,
          "time": 43.27604166666669,
          "velocity": 0.6299212598425197,
          "duration": 0.0520833333333357
        },
        {
          "name": "G4",
          "midi": 67,
          "time": 43.38541666666669,
          "velocity": 0.6299212598425197,
          "duration": 0.0520833333333357
        },
        {
          "name": "G3",
          "midi": 55,
          "time": 43.49479166666669,
          "velocity": 0.6299212598425197,
          "duration": 0.109375
        },
        {
          "name": "D#3",
          "midi": 51,
          "time": 43.49479166666669,
          "velocity": 0.6299212598425197,
          "duration": 0.109375
        },
        {
          "name": "C3",
          "midi": 48,
          "time": 43.49479166666669,
          "velocity": 0.6299212598425197,
          "duration": 0.109375
        },
        {
          "name": "G4",
          "midi": 67,
          "time": 43.49479166666669,
          "velocity": 0.6299212598425197,
          "duration": 0.0520833333333357
        },
        {
          "name": "G4",
          "midi": 67,
          "time": 43.60416666666669,
          "velocity": 0.6299212598425197,
          "duration": 0.0572916666666643
        },
        {
          "name": "C3",
          "midi": 48,
          "time": 43.71875000000002,
          "velocity": 0.6299212598425197,
          "duration": 0.1041666666666643
        },
        {
          "name": "G4",
          "midi": 67,
          "time": 43.71875000000002,
          "velocity": 0.6299212598425197,
          "duration": 0.2083333333333286
        },
        {
          "name": "G3",
          "midi": 55,
          "time": 43.937500000000014,
          "velocity": 0.6299212598425197,
          "duration": 0.109375
        },
        {
          "name": "D#3",
          "midi": 51,
          "time": 43.937500000000014,
          "velocity": 0.6299212598425197,
          "duration": 0.109375
        },
        {
          "name": "C3",
          "midi": 48,
          "time": 43.937500000000014,
          "velocity": 0.6299212598425197,
          "duration": 0.109375
        },
        {
          "name": "G4",
          "midi": 67,
          "time": 43.937500000000014,
          "velocity": 0.6299212598425197,
          "duration": 0.0520833333333357
        },
        {
          "name": "G4",
          "midi": 67,
          "time": 44.046875000000014,
          "velocity": 0.6299212598425197,
          "duration": 0.0520833333333357
        },
        {
          "name": "C3",
          "midi": 48,
          "time": 44.16145833333335,
          "velocity": 0.6299212598425197,
          "duration": 0.1041666666666714
        },
        {
          "name": "G4",
          "midi": 67,
          "time": 44.16145833333335,
          "velocity": 0.6299212598425197,
          "duration": 0.0520833333333357
        },
        {
          "name": "G4",
          "midi": 67,
          "time": 44.27083333333336,
          "velocity": 0.6299212598425197,
          "duration": 0.0520833333333357
        },
        {
          "name": "G3",
          "midi": 55,
          "time": 44.38020833333336,
          "velocity": 0.6299212598425197,
          "duration": 0.109375
        },
        {
          "name": "D#3",
          "midi": 51,
          "time": 44.38020833333336,
          "velocity": 0.6299212598425197,
          "duration": 0.109375
        },
        {
          "name": "C3",
          "midi": 48,
          "time": 44.38020833333336,
          "velocity": 0.6299212598425197,
          "duration": 0.109375
        },
        {
          "name": "G4",
          "midi": 67,
          "time": 44.38020833333336,
          "velocity": 0.6299212598425197,
          "duration": 0.0520833333333357
        },
        {
          "name": "G4",
          "midi": 67,
          "time": 44.48958333333336,
          "velocity": 0.6299212598425197,
          "duration": 0.0520833333333357
        },
        {
          "name": "C3",
          "midi": 48,
          "time": 44.59895833333336,
          "velocity": 0.6299212598425197,
          "duration": 0.109375
        },
        {
          "name": "G4",
          "midi": 67,
          "time": 44.59895833333336,
          "velocity": 0.6299212598425197,
          "duration": 0.2135416666666643
        },
        {
          "name": "C4",
          "midi": 60,
          "time": 44.822916666666686,
          "velocity": 0.6299212598425197,
          "duration": 0.109375
        },
        {
          "name": "G#3",
          "midi": 56,
          "time": 44.822916666666686,
          "velocity": 0.6299212598425197,
          "duration": 0.109375
        },
        {
          "name": "F3",
          "midi": 53,
          "time": 44.822916666666686,
          "velocity": 0.6299212598425197,
          "duration": 0.109375
        },
        {
          "name": "C5",
          "midi": 72,
          "time": 44.822916666666686,
          "velocity": 0.6299212598425197,
          "duration": 0.0520833333333357
        },
        {
          "name": "C5",
          "midi": 72,
          "time": 44.932291666666686,
          "velocity": 0.6299212598425197,
          "duration": 0.0520833333333357
        },
        {
          "name": "C3",
          "midi": 48,
          "time": 45.041666666666686,
          "velocity": 0.6299212598425197,
          "duration": 0.109375
        },
        {
          "name": "G4",
          "midi": 67,
          "time": 45.041666666666686,
          "velocity": 0.6299212598425197,
          "duration": 0.0520833333333357
        },
        {
          "name": "G4",
          "midi": 67,
          "time": 45.151041666666686,
          "velocity": 0.6299212598425197,
          "duration": 0.0572916666666643
        },
        {
          "name": "G3",
          "midi": 55,
          "time": 45.265625000000014,
          "velocity": 0.6299212598425197,
          "duration": 0.1041666666666714
        },
        {
          "name": "D#3",
          "midi": 51,
          "time": 45.265625000000014,
          "velocity": 0.6299212598425197,
          "duration": 0.1041666666666714
        },
        {
          "name": "C3",
          "midi": 48,
          "time": 45.265625000000014,
          "velocity": 0.6299212598425197,
          "duration": 0.1041666666666714
        },
        {
          "name": "G4",
          "midi": 67,
          "time": 45.265625000000014,
          "velocity": 0.6299212598425197,
          "duration": 0.0520833333333357
        },
        {
          "name": "G4",
          "midi": 67,
          "time": 45.37500000000002,
          "velocity": 0.6299212598425197,
          "duration": 0.0520833333333357
        },
        {
          "name": "C3",
          "midi": 48,
          "time": 45.48437500000002,
          "velocity": 0.6299212598425197,
          "duration": 0.109375
        },
        {
          "name": "G4",
          "midi": 67,
          "time": 45.48437500000002,
          "velocity": 0.6299212598425197,
          "duration": 0.2083333333333357
        },
        {
          "name": "G3",
          "midi": 55,
          "time": 45.70312500000002,
          "velocity": 0.6299212598425197,
          "duration": 0.109375
        },
        {
          "name": "D#3",
          "midi": 51,
          "time": 45.70312500000002,
          "velocity": 0.6299212598425197,
          "duration": 0.109375
        },
        {
          "name": "C3",
          "midi": 48,
          "time": 45.70312500000002,
          "velocity": 0.6299212598425197,
          "duration": 0.109375
        },
        {
          "name": "G4",
          "midi": 67,
          "time": 45.70312500000002,
          "velocity": 0.6299212598425197,
          "duration": 0.0572916666666643
        },
        {
          "name": "G4",
          "midi": 67,
          "time": 45.81770833333336,
          "velocity": 0.6299212598425197,
          "duration": 0.0520833333333357
        },
        {
          "name": "C3",
          "midi": 48,
          "time": 45.92708333333336,
          "velocity": 0.6299212598425197,
          "duration": 0.109375
        },
        {
          "name": "G4",
          "midi": 67,
          "time": 45.92708333333336,
          "velocity": 0.6299212598425197,
          "duration": 0.0520833333333357
        },
        {
          "name": "G4",
          "midi": 67,
          "time": 46.03645833333336,
          "velocity": 0.6299212598425197,
          "duration": 0.0520833333333357
        },
        {
          "name": "G3",
          "midi": 55,
          "time": 46.14583333333336,
          "velocity": 0.6299212598425197,
          "duration": 0.109375
        },
        {
          "name": "D#3",
          "midi": 51,
          "time": 46.14583333333336,
          "velocity": 0.6299212598425197,
          "duration": 0.109375
        },
        {
          "name": "C3",
          "midi": 48,
          "time": 46.14583333333336,
          "velocity": 0.6299212598425197,
          "duration": 0.109375
        },
        {
          "name": "G4",
          "midi": 67,
          "time": 46.14583333333336,
          "velocity": 0.6299212598425197,
          "duration": 0.0520833333333357
        },
        {
          "name": "G4",
          "midi": 67,
          "time": 46.26041666666669,
          "velocity": 0.6299212598425197,
          "duration": 0.0520833333333357
        },
        {
          "name": "C3",
          "midi": 48,
          "time": 46.36979166666669,
          "velocity": 0.6299212598425197,
          "duration": 0.109375
        },
        {
          "name": "G4",
          "midi": 67,
          "time": 46.36979166666669,
          "velocity": 0.6299212598425197,
          "duration": 0.2083333333333357
        },
        {
          "name": "C4",
          "midi": 60,
          "time": 46.58854166666669,
          "velocity": 0.6299212598425197,
          "duration": 0.109375
        },
        {
          "name": "G#3",
          "midi": 56,
          "time": 46.58854166666669,
          "velocity": 0.6299212598425197,
          "duration": 0.109375
        },
        {
          "name": "F3",
          "midi": 53,
          "time": 46.58854166666669,
          "velocity": 0.6299212598425197,
          "duration": 0.109375
        },
        {
          "name": "C5",
          "midi": 72,
          "time": 46.58854166666669,
          "velocity": 0.6299212598425197,
          "duration": 0.0520833333333357
        },
        {
          "name": "C5",
          "midi": 72,
          "time": 46.69791666666669,
          "velocity": 0.6299212598425197,
          "duration": 0.0572916666666643
        },
        {
          "name": "C3",
          "midi": 48,
          "time": 46.80729166666669,
          "velocity": 0.6299212598425197,
          "duration": 0.1041666666666714
        },
        {
          "name": "G4",
          "midi": 67,
          "time": 46.80729166666669,
          "velocity": 0.6299212598425197,
          "duration": 0.0520833333333357
        },
        {
          "name": "G4",
          "midi": 67,
          "time": 46.9166666666667,
          "velocity": 0.6299212598425197,
          "duration": 0.0520833333333357
        },
        {
          "name": "G3",
          "midi": 55,
          "time": 47.0260416666667,
          "velocity": 0.6299212598425197,
          "duration": 0.109375
        },
        {
          "name": "D#3",
          "midi": 51,
          "time": 47.0260416666667,
          "velocity": 0.6299212598425197,
          "duration": 0.109375
        },
        {
          "name": "C3",
          "midi": 48,
          "time": 47.0260416666667,
          "velocity": 0.6299212598425197,
          "duration": 0.109375
        },
        {
          "name": "G4",
          "midi": 67,
          "time": 47.0260416666667,
          "velocity": 0.6299212598425197,
          "duration": 0.0520833333333357
        },
        {
          "name": "G4",
          "midi": 67,
          "time": 47.1354166666667,
          "velocity": 0.6299212598425197,
          "duration": 0.0520833333333357
        },
        {
          "name": "C3",
          "midi": 48,
          "time": 47.2447916666667,
          "velocity": 0.6299212598425197,
          "duration": 0.109375
        },
        {
          "name": "G4",
          "midi": 67,
          "time": 47.2447916666667,
          "velocity": 0.6299212598425197,
          "duration": 0.2135416666666643
        },
        {
          "name": "G3",
          "midi": 55,
          "time": 47.46875000000003,
          "velocity": 0.6299212598425197,
          "duration": 0.109375
        },
        {
          "name": "D#3",
          "midi": 51,
          "time": 47.46875000000003,
          "velocity": 0.6299212598425197,
          "duration": 0.109375
        },
        {
          "name": "C3",
          "midi": 48,
          "time": 47.46875000000003,
          "velocity": 0.6299212598425197,
          "duration": 0.109375
        },
        {
          "name": "G4",
          "midi": 67,
          "time": 47.46875000000003,
          "velocity": 0.6299212598425197,
          "duration": 0.0520833333333357
        },
        {
          "name": "G4",
          "midi": 67,
          "time": 47.57812500000003,
          "velocity": 0.6299212598425197,
          "duration": 0.0520833333333357
        },
        {
          "name": "C3",
          "midi": 48,
          "time": 47.68750000000003,
          "velocity": 0.6299212598425197,
          "duration": 0.109375
        },
        {
          "name": "G4",
          "midi": 67,
          "time": 47.68750000000003,
          "velocity": 0.6299212598425197,
          "duration": 0.0520833333333357
        },
        {
          "name": "G4",
          "midi": 67,
          "time": 47.802083333333364,
          "velocity": 0.6299212598425197,
          "duration": 0.0520833333333357
        },
        {
          "name": "G3",
          "midi": 55,
          "time": 47.911458333333364,
          "velocity": 0.6299212598425197,
          "duration": 0.109375
        },
        {
          "name": "D#3",
          "midi": 51,
          "time": 47.911458333333364,
          "velocity": 0.6299212598425197,
          "duration": 0.109375
        },
        {
          "name": "C3",
          "midi": 48,
          "time": 47.911458333333364,
          "velocity": 0.6299212598425197,
          "duration": 0.109375
        },
        {
          "name": "G4",
          "midi": 67,
          "time": 47.911458333333364,
          "velocity": 0.6299212598425197,
          "duration": 0.0520833333333357
        },
        {
          "name": "G4",
          "midi": 67,
          "time": 48.020833333333364,
          "velocity": 0.6299212598425197,
          "duration": 0.0520833333333357
        },
        {
          "name": "C3",
          "midi": 48,
          "time": 48.130208333333364,
          "velocity": 0.6299212598425197,
          "duration": 0.109375
        },
        {
          "name": "G4",
          "midi": 67,
          "time": 48.130208333333364,
          "velocity": 0.6299212598425197,
          "duration": 0.2083333333333357
        },
        {
          "name": "C4",
          "midi": 60,
          "time": 48.3541666666667,
          "velocity": 0.6299212598425197,
          "duration": 0.1041666666666714
        },
        {
          "name": "G#3",
          "midi": 56,
          "time": 48.3541666666667,
          "velocity": 0.6299212598425197,
          "duration": 0.1041666666666714
        },
        {
          "name": "F3",
          "midi": 53,
          "time": 48.3541666666667,
          "velocity": 0.6299212598425197,
          "duration": 0.1041666666666714
        },
        {
          "name": "C5",
          "midi": 72,
          "time": 48.3541666666667,
          "velocity": 0.6299212598425197,
          "duration": 0.0520833333333357
        },
        {
          "name": "C5",
          "midi": 72,
          "time": 48.46354166666671,
          "velocity": 0.6299212598425197,
          "duration": 0.0520833333333357
        },
        {
          "name": "F3",
          "midi": 53,
          "time": 48.57291666666671,
          "velocity": 0.6299212598425197,
          "duration": 0.109375
        },
        {
          "name": "C5",
          "midi": 72,
          "time": 48.57291666666671,
          "velocity": 0.6299212598425197,
          "duration": 0.0520833333333357
        },
        {
          "name": "C5",
          "midi": 72,
          "time": 48.68229166666671,
          "velocity": 0.6299212598425197,
          "duration": 0.0520833333333357
        },
        {
          "name": "C4",
          "midi": 60,
          "time": 48.79166666666671,
          "velocity": 0.6299212598425197,
          "duration": 0.109375
        },
        {
          "name": "G#3",
          "midi": 56,
          "time": 48.79166666666671,
          "velocity": 0.6299212598425197,
          "duration": 0.109375
        },
        {
          "name": "F3",
          "midi": 53,
          "time": 48.79166666666671,
          "velocity": 0.6299212598425197,
          "duration": 0.109375
        },
        {
          "name": "C5",
          "midi": 72,
          "time": 48.79166666666671,
          "velocity": 0.6299212598425197,
          "duration": 0.0572916666666643
        },
        {
          "name": "C5",
          "midi": 72,
          "time": 48.90625000000004,
          "velocity": 0.6299212598425197,
          "duration": 0.0520833333333357
        },
        {
          "name": "F3",
          "midi": 53,
          "time": 49.01562500000004,
          "velocity": 0.6299212598425197,
          "duration": 0.109375
        },
        {
          "name": "C5",
          "midi": 72,
          "time": 49.01562500000004,
          "velocity": 0.6299212598425197,
          "duration": 0.2083333333333357
        },
        {
          "name": "A#3",
          "midi": 58,
          "time": 49.23437500000004,
          "velocity": 0.6299212598425197,
          "duration": 0.109375
        },
        {
          "name": "G3",
          "midi": 55,
          "time": 49.23437500000004,
          "velocity": 0.6299212598425197,
          "duration": 0.109375
        },
        {
          "name": "D#3",
          "midi": 51,
          "time": 49.23437500000004,
          "velocity": 0.6299212598425197,
          "duration": 0.109375
        },
        {
          "name": "A#4",
          "midi": 70,
          "time": 49.23437500000004,
          "velocity": 0.6299212598425197,
          "duration": 0.0520833333333357
        },
        {
          "name": "A#4",
          "midi": 70,
          "time": 49.34375000000004,
          "velocity": 0.6299212598425197,
          "duration": 0.0572916666666643
        },
        {
          "name": "D#3",
          "midi": 51,
          "time": 49.45833333333337,
          "velocity": 0.6299212598425197,
          "duration": 0.1041666666666714
        },
        {
          "name": "A#4",
          "midi": 70,
          "time": 49.45833333333337,
          "velocity": 0.6299212598425197,
          "duration": 0.0520833333333357
        },
        {
          "name": "A#4",
          "midi": 70,
          "time": 49.56770833333338,
          "velocity": 0.6299212598425197,
          "duration": 0.0520833333333357
        },
        {
          "name": "A#3",
          "midi": 58,
          "time": 49.67708333333338,
          "velocity": 0.6299212598425197,
          "duration": 0.109375
        },
        {
          "name": "G3",
          "midi": 55,
          "time": 49.67708333333338,
          "velocity": 0.6299212598425197,
          "duration": 0.109375
        },
        {
          "name": "D#3",
          "midi": 51,
          "time": 49.67708333333338,
          "velocity": 0.6299212598425197,
          "duration": 0.109375
        },
        {
          "name": "A#4",
          "midi": 70,
          "time": 49.67708333333338,
          "velocity": 0.6299212598425197,
          "duration": 0.0520833333333357
        },
        {
          "name": "A#4",
          "midi": 70,
          "time": 49.78645833333338,
          "velocity": 0.6299212598425197,
          "duration": 0.0572916666666643
        },
        {
          "name": "A#2",
          "midi": 46,
          "time": 49.90104166666671,
          "velocity": 0.6299212598425197,
          "duration": 0.1041666666666643
        },
        {
          "name": "A#4",
          "midi": 70,
          "time": 49.90104166666671,
          "velocity": 0.6299212598425197,
          "duration": 0.2083333333333286
        },
        {
          "name": "F3",
          "midi": 53,
          "time": 50.1197916666667,
          "velocity": 0.6299212598425197,
          "duration": 0.109375
        },
        {
          "name": "D3",
          "midi": 50,
          "time": 50.1197916666667,
          "velocity": 0.6299212598425197,
          "duration": 0.109375
        },
        {
          "name": "A#2",
          "midi": 46,
          "time": 50.1197916666667,
          "velocity": 0.6299212598425197,
          "duration": 0.109375
        },
        {
          "name": "F4",
          "midi": 65,
          "time": 50.1197916666667,
          "velocity": 0.6299212598425197,
          "duration": 0.2083333333333357
        },
        {
          "name": "C3",
          "midi": 48,
          "time": 50.3385416666667,
          "velocity": 0.6299212598425197,
          "duration": 0.109375
        },
        {
          "name": "G4",
          "midi": 67,
          "time": 50.3385416666667,
          "velocity": 0.6299212598425197,
          "duration": 0.0572916666666643
        },
        {
          "name": "G4",
          "midi": 67,
          "time": 50.453125000000036,
          "velocity": 0.6299212598425197,
          "duration": 0.0520833333333357
        },
        {
          "name": "G3",
          "midi": 55,
          "time": 50.562500000000036,
          "velocity": 0.6299212598425197,
          "duration": 0.109375
        },
        {
          "name": "D#3",
          "midi": 51,
          "time": 50.562500000000036,
          "velocity": 0.6299212598425197,
          "duration": 0.109375
        },
        {
          "name": "C3",
          "midi": 48,
          "time": 50.562500000000036,
          "velocity": 0.6299212598425197,
          "duration": 0.109375
        },
        {
          "name": "G4",
          "midi": 67,
          "time": 50.562500000000036,
          "velocity": 0.6299212598425197,
          "duration": 0.0520833333333357
        },
        {
          "name": "G4",
          "midi": 67,
          "time": 50.671875000000036,
          "velocity": 0.6299212598425197,
          "duration": 0.0520833333333357
        },
        {
          "name": "C3",
          "midi": 48,
          "time": 50.781250000000036,
          "velocity": 0.6299212598425197,
          "duration": 0.109375
        },
        {
          "name": "G4",
          "midi": 67,
          "time": 50.781250000000036,
          "velocity": 0.6299212598425197,
          "duration": 0.2083333333333357
        },
        {
          "name": "G3",
          "midi": 55,
          "time": 51.00520833333337,
          "velocity": 0.6299212598425197,
          "duration": 0.1041666666666714
        },
        {
          "name": "D#3",
          "midi": 51,
          "time": 51.00520833333337,
          "velocity": 0.6299212598425197,
          "duration": 0.1041666666666714
        },
        {
          "name": "C3",
          "midi": 48,
          "time": 51.00520833333337,
          "velocity": 0.6299212598425197,
          "duration": 0.1041666666666714
        },
        {
          "name": "G4",
          "midi": 67,
          "time": 51.00520833333337,
          "velocity": 0.6299212598425197,
          "duration": 0.0520833333333357
        },
        {
          "name": "G4",
          "midi": 67,
          "time": 51.11458333333338,
          "velocity": 0.6299212598425197,
          "duration": 0.0520833333333357
        },
        {
          "name": "C3",
          "midi": 48,
          "time": 51.22395833333338,
          "velocity": 0.6299212598425197,
          "duration": 0.109375
        },
        {
          "name": "G4",
          "midi": 67,
          "time": 51.22395833333338,
          "velocity": 0.6299212598425197,
          "duration": 0.0520833333333357
        },
        {
          "name": "G4",
          "midi": 67,
          "time": 51.33333333333338,
          "velocity": 0.6299212598425197,
          "duration": 0.0520833333333357
        },
        {
          "name": "G3",
          "midi": 55,
          "time": 51.447916666666714,
          "velocity": 0.6299212598425197,
          "duration": 0.0989583333333357
        },
        {
          "name": "D#3",
          "midi": 51,
          "time": 51.447916666666714,
          "velocity": 0.6299212598425197,
          "duration": 0.0989583333333357
        },
        {
          "name": "C3",
          "midi": 48,
          "time": 51.447916666666714,
          "velocity": 0.6299212598425197,
          "duration": 0.0989583333333357
        },
        {
          "name": "G4",
          "midi": 67,
          "time": 51.447916666666714,
          "velocity": 0.6299212598425197,
          "duration": 0.0520833333333357
        },
        {
          "name": "G4",
          "midi": 67,
          "time": 51.552083333333385,
          "velocity": 0.6299212598425197,
          "duration": 0.0520833333333357
        },
        {
          "name": "C3",
          "midi": 48,
          "time": 51.661458333333385,
          "velocity": 0.6299212598425197,
          "duration": 0.109375
        },
        {
          "name": "G4",
          "midi": 67,
          "time": 51.661458333333385,
          "velocity": 0.6299212598425197,
          "duration": 0.2083333333333357
        },
        {
          "name": "C4",
          "midi": 60,
          "time": 51.880208333333385,
          "velocity": 0.6299212598425197,
          "duration": 0.109375
        },
        {
          "name": "G#3",
          "midi": 56,
          "time": 51.880208333333385,
          "velocity": 0.6299212598425197,
          "duration": 0.109375
        },
        {
          "name": "F3",
          "midi": 53,
          "time": 51.880208333333385,
          "velocity": 0.6299212598425197,
          "duration": 0.109375
        },
        {
          "name": "C5",
          "midi": 72,
          "time": 51.880208333333385,
          "velocity": 0.6299212598425197,
          "duration": 0.2135416666666643
        },
        {
          "name": "C4",
          "midi": 60,
          "time": 52.104166666666714,
          "velocity": 0.6299212598425197,
          "duration": 0.4166666666666643
        },
        {
          "name": "D4",
          "midi": 62,
          "time": 52.104166666666714,
          "velocity": 0.6299212598425197,
          "duration": 0.4166666666666643
        },
        {
          "name": "G4",
          "midi": 67,
          "time": 52.104166666666714,
          "velocity": 0.6299212598425197,
          "duration": 0.4166666666666643
        },
        {
          "name": "C3",
          "midi": 48,
          "time": 52.104166666666714,
          "velocity": 0.6299212598425197,
          "duration": 0.2083333333333357
        },
        {
          "name": "C3",
          "midi": 48,
          "time": 52.322916666666714,
          "velocity": 0.6299212598425197,
          "duration": 0.2083333333333286
        },
        {
          "name": "C4",
          "midi": 60,
          "time": 52.54687500000004,
          "velocity": 0.6299212598425197,
          "duration": 0.4166666666666643
        },
        {
          "name": "D4",
          "midi": 62,
          "time": 52.54687500000004,
          "velocity": 0.6299212598425197,
          "duration": 0.4166666666666643
        },
        {
          "name": "G4",
          "midi": 67,
          "time": 52.54687500000004,
          "velocity": 0.6299212598425197,
          "duration": 0.4166666666666643
        },
        {
          "name": "C3",
          "midi": 48,
          "time": 52.54687500000004,
          "velocity": 0.6299212598425197,
          "duration": 0.2083333333333357
        },
        {
          "name": "D3",
          "midi": 50,
          "time": 52.54687500000004,
          "velocity": 0.6299212598425197,
          "duration": 0.2083333333333357
        },
        {
          "name": "G3",
          "midi": 55,
          "time": 52.54687500000004,
          "velocity": 0.6299212598425197,
          "duration": 0.2083333333333357
        },
        {
          "name": "C3",
          "midi": 48,
          "time": 52.76562500000004,
          "velocity": 0.6299212598425197,
          "duration": 0.2083333333333286
        },
        {
          "name": "B3",
          "midi": 59,
          "time": 52.98958333333337,
          "velocity": 0.6299212598425197,
          "duration": 0.4166666666666643
        },
        {
          "name": "D4",
          "midi": 62,
          "time": 52.98958333333337,
          "velocity": 0.6299212598425197,
          "duration": 0.4166666666666643
        },
        {
          "name": "G4",
          "midi": 67,
          "time": 52.98958333333337,
          "velocity": 0.6299212598425197,
          "duration": 0.4166666666666643
        },
        {
          "name": "B2",
          "midi": 47,
          "time": 52.98958333333337,
          "velocity": 0.6299212598425197,
          "duration": 0.2083333333333357
        },
        {
          "name": "D3",
          "midi": 50,
          "time": 52.98958333333337,
          "velocity": 0.6299212598425197,
          "duration": 0.2083333333333357
        },
        {
          "name": "G3",
          "midi": 55,
          "time": 52.98958333333337,
          "velocity": 0.6299212598425197,
          "duration": 0.2083333333333357
        },
        {
          "name": "B2",
          "midi": 47,
          "time": 53.20833333333337,
          "velocity": 0.6299212598425197,
          "duration": 0.2083333333333286
        },
        {
          "name": "B3",
          "midi": 59,
          "time": 53.427083333333364,
          "velocity": 0.6299212598425197,
          "duration": 0.4218749999999929
        },
        {
          "name": "D4",
          "midi": 62,
          "time": 53.427083333333364,
          "velocity": 0.6299212598425197,
          "duration": 0.4218749999999929
        },
        {
          "name": "G4",
          "midi": 67,
          "time": 53.427083333333364,
          "velocity": 0.6299212598425197,
          "duration": 0.4218749999999929
        },
        {
          "name": "B2",
          "midi": 47,
          "time": 53.427083333333364,
          "velocity": 0.6299212598425197,
          "duration": 0.2135416666666643
        },
        {
          "name": "D3",
          "midi": 50,
          "time": 53.427083333333364,
          "velocity": 0.6299212598425197,
          "duration": 0.2135416666666643
        },
        {
          "name": "G3",
          "midi": 55,
          "time": 53.427083333333364,
          "velocity": 0.6299212598425197,
          "duration": 0.2135416666666643
        },
        {
          "name": "B2",
          "midi": 47,
          "time": 53.65104166666669,
          "velocity": 0.6299212598425197,
          "duration": 0.2083333333333286
        },
        {
          "name": "G4",
          "midi": 67,
          "time": 53.90625000000002,
          "velocity": 0.6299212598425197,
          "duration": 0.0520833333333357
        },
        {
          "name": "G#2",
          "midi": 44,
          "time": 53.90625000000002,
          "velocity": 0.6299212598425197,
          "duration": 0.8385416666666714
        },
        {
          "name": "G4",
          "midi": 67,
          "time": 54.01562500000002,
          "velocity": 0.6299212598425197,
          "duration": 0.0520833333333357
        },
        {
          "name": "G4",
          "midi": 67,
          "time": 54.12500000000002,
          "velocity": 0.6299212598425197,
          "duration": 0.0520833333333357
        },
        {
          "name": "G4",
          "midi": 67,
          "time": 54.23958333333336,
          "velocity": 0.6299212598425197,
          "duration": 0.046875
        },
        {
          "name": "G4",
          "midi": 67,
          "time": 54.34895833333336,
          "velocity": 0.6299212598425197,
          "duration": 0.203125
        },
        {
          "name": "G4",
          "midi": 67,
          "time": 54.56770833333336,
          "velocity": 0.6299212598425197,
          "duration": 0.0520833333333357
        },
        {
          "name": "G4",
          "midi": 67,
          "time": 54.67708333333336,
          "velocity": 0.6299212598425197,
          "duration": 0.0520833333333357
        },
        {
          "name": "G4",
          "midi": 67,
          "time": 54.78645833333336,
          "velocity": 0.6299212598425197,
          "duration": 0.0520833333333357
        },
        {
          "name": "G#2",
          "midi": 44,
          "time": 54.78645833333336,
          "velocity": 0.6299212598425197,
          "duration": 0.8385416666666714
        },
        {
          "name": "C3",
          "midi": 48,
          "time": 54.78645833333336,
          "velocity": 0.6299212598425197,
          "duration": 0.8385416666666714
        },
        {
          "name": "D#3",
          "midi": 51,
          "time": 54.78645833333336,
          "velocity": 0.6299212598425197,
          "duration": 0.8385416666666714
        },
        {
          "name": "G3",
          "midi": 55,
          "time": 54.78645833333336,
          "velocity": 0.6299212598425197,
          "duration": 0.8385416666666714
        },
        {
          "name": "G4",
          "midi": 67,
          "time": 54.90104166666669,
          "velocity": 0.6299212598425197,
          "duration": 0.046875
        },
        {
          "name": "G4",
          "midi": 67,
          "time": 55.01041666666669,
          "velocity": 0.6299212598425197,
          "duration": 0.046875
        },
        {
          "name": "G4",
          "midi": 67,
          "time": 55.11979166666669,
          "velocity": 0.6299212598425197,
          "duration": 0.0520833333333357
        },
        {
          "name": "G4",
          "midi": 67,
          "time": 55.22916666666669,
          "velocity": 0.6299212598425197,
          "duration": 0.2083333333333357
        },
        {
          "name": "C5",
          "midi": 72,
          "time": 55.44791666666669,
          "velocity": 0.6299212598425197,
          "duration": 0.0520833333333357
        },
        {
          "name": "C5",
          "midi": 72,
          "time": 55.56250000000003,
          "velocity": 0.6299212598425197,
          "duration": 0.046875
        },
        {
          "name": "C5",
          "midi": 72,
          "time": 55.67187500000003,
          "velocity": 0.6299212598425197,
          "duration": 0.046875
        },
        {
          "name": "A#2",
          "midi": 46,
          "time": 55.67187500000003,
          "velocity": 0.6299212598425197,
          "duration": 0.8333333333333357
        },
        {
          "name": "D3",
          "midi": 50,
          "time": 55.67187500000003,
          "velocity": 0.6299212598425197,
          "duration": 0.8333333333333357
        },
        {
          "name": "F3",
          "midi": 53,
          "time": 55.67187500000003,
          "velocity": 0.6299212598425197,
          "duration": 0.8333333333333357
        },
        {
          "name": "C5",
          "midi": 72,
          "time": 55.78125000000003,
          "velocity": 0.6299212598425197,
          "duration": 0.0520833333333357
        },
        {
          "name": "C5",
          "midi": 72,
          "time": 55.89062500000003,
          "velocity": 0.6299212598425197,
          "duration": 0.0520833333333357
        },
        {
          "name": "C5",
          "midi": 72,
          "time": 56.00000000000003,
          "velocity": 0.6299212598425197,
          "duration": 0.0520833333333357
        },
        {
          "name": "C5",
          "midi": 72,
          "time": 56.10937500000003,
          "velocity": 0.6299212598425197,
          "duration": 0.2083333333333357
        },
        {
          "name": "A#4",
          "midi": 70,
          "time": 56.333333333333364,
          "velocity": 0.6299212598425197,
          "duration": 0.046875
        },
        {
          "name": "A#4",
          "midi": 70,
          "time": 56.442708333333364,
          "velocity": 0.6299212598425197,
          "duration": 0.0520833333333357
        },
        {
          "name": "A#4",
          "midi": 70,
          "time": 56.552083333333364,
          "velocity": 0.6299212598425197,
          "duration": 0.0520833333333357
        },
        {
          "name": "B2",
          "midi": 47,
          "time": 56.552083333333364,
          "velocity": 0.6299212598425197,
          "duration": 0.4166666666666714
        },
        {
          "name": "D3",
          "midi": 50,
          "time": 56.552083333333364,
          "velocity": 0.6299212598425197,
          "duration": 0.4166666666666714
        },
        {
          "name": "F3",
          "midi": 53,
          "time": 56.552083333333364,
          "velocity": 0.6299212598425197,
          "duration": 0.4166666666666714
        },
        {
          "name": "G#3",
          "midi": 56,
          "time": 56.552083333333364,
          "velocity": 0.6299212598425197,
          "duration": 0.4166666666666714
        },
        {
          "name": "A#4",
          "midi": 70,
          "time": 56.661458333333364,
          "velocity": 0.6299212598425197,
          "duration": 0.0520833333333357
        },
        {
          "name": "A#4",
          "midi": 70,
          "time": 56.770833333333364,
          "velocity": 0.6299212598425197,
          "duration": 0.0520833333333357
        },
        {
          "name": "A#4",
          "midi": 70,
          "time": 56.8854166666667,
          "velocity": 0.6299212598425197,
          "duration": 0.046875
        },
        {
          "name": "A#4",
          "midi": 70,
          "time": 56.9947916666667,
          "velocity": 0.6299212598425197,
          "duration": 0.2083333333333357
        },
        {
          "name": "B2",
          "midi": 47,
          "time": 56.9947916666667,
          "velocity": 0.6299212598425197,
          "duration": 0.4166666666666643
        },
        {
          "name": "D3",
          "midi": 50,
          "time": 56.9947916666667,
          "velocity": 0.6299212598425197,
          "duration": 0.4166666666666643
        },
        {
          "name": "F3",
          "midi": 53,
          "time": 56.9947916666667,
          "velocity": 0.6299212598425197,
          "duration": 0.4166666666666643
        },
        {
          "name": "G#3",
          "midi": 56,
          "time": 56.9947916666667,
          "velocity": 0.6299212598425197,
          "duration": 0.4166666666666643
        },
        {
          "name": "F4",
          "midi": 65,
          "time": 57.2135416666667,
          "velocity": 0.6299212598425197,
          "duration": 0.2083333333333286
        },
        {
          "name": "G4",
          "midi": 67,
          "time": 57.43750000000003,
          "velocity": 0.6299212598425197,
          "duration": 0.046875
        },
        {
          "name": "C3",
          "midi": 48,
          "time": 57.43750000000003,
          "velocity": 0.6299212598425197,
          "duration": 0.8333333333333357
        },
        {
          "name": "D#3",
          "midi": 51,
          "time": 57.43750000000003,
          "velocity": 0.6299212598425197,
          "duration": 0.8333333333333357
        },
        {
          "name": "G3",
          "midi": 55,
          "time": 57.43750000000003,
          "velocity": 0.6299212598425197,
          "duration": 0.8333333333333357
        },
        {
          "name": "G4",
          "midi": 67,
          "time": 57.54687500000003,
          "velocity": 0.6299212598425197,
          "duration": 0.046875
        },
        {
          "name": "G4",
          "midi": 67,
          "time": 57.65625000000003,
          "velocity": 0.6299212598425197,
          "duration": 0.0520833333333357
        },
        {
          "name": "G4",
          "midi": 67,
          "time": 57.76562500000003,
          "velocity": 0.6299212598425197,
          "duration": 0.0520833333333357
        },
        {
          "name": "G4",
          "midi": 67,
          "time": 57.87500000000003,
          "velocity": 0.6299212598425197,
          "duration": 0.2083333333333357
        },
        {
          "name": "G4",
          "midi": 67,
          "time": 58.098958333333364,
          "velocity": 0.6299212598425197,
          "duration": 0.046875
        },
        {
          "name": "G4",
          "midi": 67,
          "time": 58.208333333333364,
          "velocity": 0.6299212598425197,
          "duration": 0.046875
        },
        {
          "name": "G4",
          "midi": 67,
          "time": 58.317708333333364,
          "velocity": 0.6299212598425197,
          "duration": 0.0520833333333357
        },
        {
          "name": "C3",
          "midi": 48,
          "time": 58.317708333333364,
          "velocity": 0.6299212598425197,
          "duration": 0.8333333333333357
        },
        {
          "name": "D#3",
          "midi": 51,
          "time": 58.317708333333364,
          "velocity": 0.6299212598425197,
          "duration": 0.8333333333333357
        },
        {
          "name": "G3",
          "midi": 55,
          "time": 58.317708333333364,
          "velocity": 0.6299212598425197,
          "duration": 0.8333333333333357
        },
        {
          "name": "G4",
          "midi": 67,
          "time": 58.427083333333364,
          "velocity": 0.6299212598425197,
          "duration": 0.0520833333333357
        },
        {
          "name": "G4",
          "midi": 67,
          "time": 58.536458333333364,
          "velocity": 0.6299212598425197,
          "duration": 0.0520833333333357
        },
        {
          "name": "G4",
          "midi": 67,
          "time": 58.645833333333364,
          "velocity": 0.6299212598425197,
          "duration": 0.0520833333333357
        },
        {
          "name": "G4",
          "midi": 67,
          "time": 58.7604166666667,
          "velocity": 0.6299212598425197,
          "duration": 0.203125
        },
        {
          "name": "C5",
          "midi": 72,
          "time": 58.9791666666667,
          "velocity": 0.6299212598425197,
          "duration": 0.0520833333333357
        },
        {
          "name": "C5",
          "midi": 72,
          "time": 59.0885416666667,
          "velocity": 0.6299212598425197,
          "duration": 0.0520833333333357
        },
        {
          "name": "G4",
          "midi": 67,
          "time": 59.1979166666667,
          "velocity": 0.6299212598425197,
          "duration": 0.0520833333333357
        },
        {
          "name": "C3",
          "midi": 48,
          "time": 59.1979166666667,
          "velocity": 0.6299212598425197,
          "duration": 0.421875
        },
        {
          "name": "D#3",
          "midi": 51,
          "time": 59.1979166666667,
          "velocity": 0.6299212598425197,
          "duration": 0.421875
        },
        {
          "name": "G3",
          "midi": 55,
          "time": 59.1979166666667,
          "velocity": 0.6299212598425197,
          "duration": 0.421875
        },
        {
          "name": "G4",
          "midi": 67,
          "time": 59.3072916666667,
          "velocity": 0.6299212598425197,
          "duration": 0.0520833333333357
        },
        {
          "name": "G4",
          "midi": 67,
          "time": 59.421875000000036,
          "velocity": 0.6299212598425197,
          "duration": 0.046875
        },
        {
          "name": "G4",
          "midi": 67,
          "time": 59.531250000000036,
          "velocity": 0.6299212598425197,
          "duration": 0.046875
        },
        {
          "name": "G4",
          "midi": 67,
          "time": 59.640625000000036,
          "velocity": 0.6299212598425197,
          "duration": 0.1041666666666643
        },
        {
          "name": "D3",
          "midi": 50,
          "time": 59.640625000000036,
          "velocity": 0.6299212598425197,
          "duration": 0.4166666666666714
        },
        {
          "name": "F3",
          "midi": 53,
          "time": 59.640625000000036,
          "velocity": 0.6299212598425197,
          "duration": 0.4166666666666714
        },
        {
          "name": "A#3",
          "midi": 58,
          "time": 59.640625000000036,
          "velocity": 0.6299212598425197,
          "duration": 0.4166666666666714
        },
        {
          "name": "G4",
          "midi": 67,
          "time": 59.859375000000036,
          "velocity": 0.6299212598425197,
          "duration": 0.0520833333333357
        },
        {
          "name": "G4",
          "midi": 67,
          "time": 59.968750000000036,
          "velocity": 0.6299212598425197,
          "duration": 0.0520833333333357
        },
        {
          "name": "G4",
          "midi": 67,
          "time": 60.08333333333337,
          "velocity": 0.6299212598425197,
          "duration": 0.046875
        },
        {
          "name": "D#3",
          "midi": 51,
          "time": 60.08333333333337,
          "velocity": 0.6299212598425197,
          "duration": 0.4166666666666714
        },
        {
          "name": "G3",
          "midi": 55,
          "time": 60.08333333333337,
          "velocity": 0.6299212598425197,
          "duration": 0.4166666666666714
        },
        {
          "name": "A#3",
          "midi": 58,
          "time": 60.08333333333337,
          "velocity": 0.6299212598425197,
          "duration": 0.4166666666666714
        },
        {
          "name": "G4",
          "midi": 67,
          "time": 60.19270833333337,
          "velocity": 0.6299212598425197,
          "duration": 0.0520833333333357
        },
        {
          "name": "G4",
          "midi": 67,
          "time": 60.30208333333337,
          "velocity": 0.6299212598425197,
          "duration": 0.0520833333333357
        },
        {
          "name": "G4",
          "midi": 67,
          "time": 60.41145833333337,
          "velocity": 0.6299212598425197,
          "duration": 0.0520833333333357
        },
        {
          "name": "G4",
          "midi": 67,
          "time": 60.52083333333338,
          "velocity": 0.6299212598425197,
          "duration": 0.109375
        },
        {
          "name": "G2",
          "midi": 43,
          "time": 60.52083333333338,
          "velocity": 0.6299212598425197,
          "duration": 0.4218750000000071
        },
        {
          "name": "A#2",
          "midi": 46,
          "time": 60.52083333333338,
          "velocity": 0.6299212598425197,
          "duration": 0.4218750000000071
        },
        {
          "name": "D3",
          "midi": 50,
          "time": 60.52083333333338,
          "velocity": 0.6299212598425197,
          "duration": 0.4218750000000071
        },
        {
          "name": "F3",
          "midi": 53,
          "time": 60.52083333333338,
          "velocity": 0.6299212598425197,
          "duration": 0.4218750000000071
        },
        {
          "name": "C5",
          "midi": 72,
          "time": 60.744791666666714,
          "velocity": 0.6299212598425197,
          "duration": 0.046875
        },
        {
          "name": "C5",
          "midi": 72,
          "time": 60.854166666666714,
          "velocity": 0.6299212598425197,
          "duration": 0.0520833333333357
        },
        {
          "name": "G4",
          "midi": 67,
          "time": 60.96354166666672,
          "velocity": 0.6299212598425197,
          "duration": 0.0520833333333357
        },
        {
          "name": "G#2",
          "midi": 44,
          "time": 60.96354166666672,
          "velocity": 0.6299212598425197,
          "duration": 0.8385416666666714
        },
        {
          "name": "C3",
          "midi": 48,
          "time": 60.96354166666672,
          "velocity": 0.6299212598425197,
          "duration": 0.8385416666666714
        },
        {
          "name": "D#3",
          "midi": 51,
          "time": 60.96354166666672,
          "velocity": 0.6299212598425197,
          "duration": 0.8385416666666714
        },
        {
          "name": "G3",
          "midi": 55,
          "time": 60.96354166666672,
          "velocity": 0.6299212598425197,
          "duration": 0.8385416666666714
        },
        {
          "name": "G4",
          "midi": 67,
          "time": 61.07291666666672,
          "velocity": 0.6299212598425197,
          "duration": 0.0520833333333357
        },
        {
          "name": "G4",
          "midi": 67,
          "time": 61.18229166666672,
          "velocity": 0.6299212598425197,
          "duration": 0.0520833333333357
        },
        {
          "name": "G4",
          "midi": 67,
          "time": 61.29687500000006,
          "velocity": 0.6299212598425197,
          "duration": 0.046875
        },
        {
          "name": "G4",
          "midi": 67,
          "time": 61.40625000000006,
          "velocity": 0.6299212598425197,
          "duration": 0.1041666666666643
        },
        {
          "name": "G4",
          "midi": 67,
          "time": 61.62500000000006,
          "velocity": 0.6299212598425197,
          "duration": 0.0520833333333357
        },
        {
          "name": "G4",
          "midi": 67,
          "time": 61.73437500000006,
          "velocity": 0.6299212598425197,
          "duration": 0.0520833333333357
        },
        {
          "name": "G4",
          "midi": 67,
          "time": 61.84375000000006,
          "velocity": 0.6299212598425197,
          "duration": 0.0520833333333357
        },
        {
          "name": "G#2",
          "midi": 44,
          "time": 61.84375000000006,
          "velocity": 0.6299212598425197,
          "duration": 0.8385416666666714
        },
        {
          "name": "C3",
          "midi": 48,
          "time": 61.84375000000006,
          "velocity": 0.6299212598425197,
          "duration": 0.8385416666666714
        },
        {
          "name": "D#3",
          "midi": 51,
          "time": 61.84375000000006,
          "velocity": 0.6299212598425197,
          "duration": 0.8385416666666714
        },
        {
          "name": "G3",
          "midi": 55,
          "time": 61.84375000000006,
          "velocity": 0.6299212598425197,
          "duration": 0.8385416666666714
        },
        {
          "name": "G4",
          "midi": 67,
          "time": 61.95833333333339,
          "velocity": 0.6299212598425197,
          "duration": 0.046875
        },
        {
          "name": "G4",
          "midi": 67,
          "time": 62.06770833333339,
          "velocity": 0.6299212598425197,
          "duration": 0.046875
        },
        {
          "name": "G4",
          "midi": 67,
          "time": 62.17708333333339,
          "velocity": 0.6299212598425197,
          "duration": 0.0520833333333357
        },
        {
          "name": "G4",
          "midi": 67,
          "time": 62.28645833333339,
          "velocity": 0.6299212598425197,
          "duration": 0.1041666666666643
        },
        {
          "name": "C5",
          "midi": 72,
          "time": 62.50520833333339,
          "velocity": 0.6299212598425197,
          "duration": 0.0520833333333357
        },
        {
          "name": "C5",
          "midi": 72,
          "time": 62.61979166666673,
          "velocity": 0.6299212598425197,
          "duration": 0.046875
        },
        {
          "name": "C5",
          "midi": 72,
          "time": 62.72916666666673,
          "velocity": 0.6299212598425197,
          "duration": 0.046875
        },
        {
          "name": "A#2",
          "midi": 46,
          "time": 62.72916666666673,
          "velocity": 0.6299212598425197,
          "duration": 0.8333333333333357
        },
        {
          "name": "D3",
          "midi": 50,
          "time": 62.72916666666673,
          "velocity": 0.6299212598425197,
          "duration": 0.8333333333333357
        },
        {
          "name": "F3",
          "midi": 53,
          "time": 62.72916666666673,
          "velocity": 0.6299212598425197,
          "duration": 0.8333333333333357
        },
        {
          "name": "C5",
          "midi": 72,
          "time": 62.83854166666673,
          "velocity": 0.6299212598425197,
          "duration": 0.0520833333333357
        },
        {
          "name": "C5",
          "midi": 72,
          "time": 62.94791666666673,
          "velocity": 0.6299212598425197,
          "duration": 0.0520833333333357
        },
        {
          "name": "C5",
          "midi": 72,
          "time": 63.05729166666673,
          "velocity": 0.6299212598425197,
          "duration": 0.0520833333333357
        },
        {
          "name": "C5",
          "midi": 72,
          "time": 63.16666666666673,
          "velocity": 0.6299212598425197,
          "duration": 0.109375
        },
        {
          "name": "A#4",
          "midi": 70,
          "time": 63.390625000000064,
          "velocity": 0.6299212598425197,
          "duration": 0.0520833333333357
        },
        {
          "name": "A#4",
          "midi": 70,
          "time": 63.500000000000064,
          "velocity": 0.6299212598425197,
          "duration": 0.0520833333333357
        },
        {
          "name": "A#4",
          "midi": 70,
          "time": 63.609375000000064,
          "velocity": 0.6299212598425197,
          "duration": 0.0520833333333357
        },
        {
          "name": "B2",
          "midi": 47,
          "time": 63.609375000000064,
          "velocity": 0.6299212598425197,
          "duration": 0.4166666666666643
        },
        {
          "name": "D3",
          "midi": 50,
          "time": 63.609375000000064,
          "velocity": 0.6299212598425197,
          "duration": 0.4166666666666643
        },
        {
          "name": "F3",
          "midi": 53,
          "time": 63.609375000000064,
          "velocity": 0.6299212598425197,
          "duration": 0.4166666666666643
        },
        {
          "name": "G#3",
          "midi": 56,
          "time": 63.609375000000064,
          "velocity": 0.6299212598425197,
          "duration": 0.4166666666666643
        },
        {
          "name": "A#4",
          "midi": 70,
          "time": 63.718750000000064,
          "velocity": 0.6299212598425197,
          "duration": 0.0520833333333357
        },
        {
          "name": "A#4",
          "midi": 70,
          "time": 63.8333333333334,
          "velocity": 0.6299212598425197,
          "duration": 0.046875
        },
        {
          "name": "A#4",
          "midi": 70,
          "time": 63.9427083333334,
          "velocity": 0.6299212598425197,
          "duration": 0.046875
        },
        {
          "name": "A#4",
          "midi": 70,
          "time": 64.0520833333334,
          "velocity": 0.6299212598425197,
          "duration": 0.1041666666666714
        },
        {
          "name": "B2",
          "midi": 47,
          "time": 64.0520833333334,
          "velocity": 0.6299212598425197,
          "duration": 0.4166666666666714
        },
        {
          "name": "D3",
          "midi": 50,
          "time": 64.0520833333334,
          "velocity": 0.6299212598425197,
          "duration": 0.4166666666666714
        },
        {
          "name": "F3",
          "midi": 53,
          "time": 64.0520833333334,
          "velocity": 0.6299212598425197,
          "duration": 0.4166666666666714
        },
        {
          "name": "G#3",
          "midi": 56,
          "time": 64.0520833333334,
          "velocity": 0.6299212598425197,
          "duration": 0.4166666666666714
        },
        {
          "name": "F4",
          "midi": 65,
          "time": 64.2708333333334,
          "velocity": 0.6299212598425197,
          "duration": 0.1041666666666714
        },
        {
          "name": "G4",
          "midi": 67,
          "time": 64.49479166666674,
          "velocity": 0.6299212598425197,
          "duration": 0.046875
        },
        {
          "name": "C3",
          "midi": 48,
          "time": 64.49479166666674,
          "velocity": 0.6299212598425197,
          "duration": 0.8333333333333286
        },
        {
          "name": "D#3",
          "midi": 51,
          "time": 64.49479166666674,
          "velocity": 0.6299212598425197,
          "duration": 0.8333333333333286
        },
        {
          "name": "G3",
          "midi": 55,
          "time": 64.49479166666674,
          "velocity": 0.6299212598425197,
          "duration": 0.8333333333333286
        },
        {
          "name": "G4",
          "midi": 67,
          "time": 64.60416666666674,
          "velocity": 0.6299212598425197,
          "duration": 0.046875
        },
        {
          "name": "G4",
          "midi": 67,
          "time": 64.71354166666674,
          "velocity": 0.6299212598425197,
          "duration": 0.052083333333328596
        },
        {
          "name": "G4",
          "midi": 67,
          "time": 64.82291666666674,
          "velocity": 0.6299212598425197,
          "duration": 0.052083333333328596
        },
        {
          "name": "G4",
          "midi": 67,
          "time": 64.93229166666674,
          "velocity": 0.6299212598425197,
          "duration": 0.2083333333333286
        },
        {
          "name": "G4",
          "midi": 67,
          "time": 65.15625000000007,
          "velocity": 0.6299212598425197,
          "duration": 0.046875
        },
        {
          "name": "G4",
          "midi": 67,
          "time": 65.26562500000007,
          "velocity": 0.6299212598425197,
          "duration": 0.046875
        },
        {
          "name": "G4",
          "midi": 67,
          "time": 65.37500000000007,
          "velocity": 0.6299212598425197,
          "duration": 0.052083333333328596
        },
        {
          "name": "C3",
          "midi": 48,
          "time": 65.37500000000007,
          "velocity": 0.6299212598425197,
          "duration": 0.4166666666666572
        },
        {
          "name": "D#3",
          "midi": 51,
          "time": 65.37500000000007,
          "velocity": 0.6299212598425197,
          "duration": 0.4166666666666572
        },
        {
          "name": "G3",
          "midi": 55,
          "time": 65.37500000000007,
          "velocity": 0.6299212598425197,
          "duration": 0.4166666666666572
        },
        {
          "name": "G4",
          "midi": 67,
          "time": 65.48437500000007,
          "velocity": 0.6299212598425197,
          "duration": 0.052083333333328596
        },
        {
          "name": "G4",
          "midi": 67,
          "time": 65.59375000000007,
          "velocity": 0.6299212598425197,
          "duration": 0.052083333333328596
        },
        {
          "name": "G4",
          "midi": 67,
          "time": 65.70312500000007,
          "velocity": 0.6299212598425197,
          "duration": 0.052083333333328596
        },
        {
          "name": "G4",
          "midi": 67,
          "time": 65.8177083333334,
          "velocity": 0.6299212598425197,
          "duration": 0.203125
        },
        {
          "name": "C3",
          "midi": 48,
          "time": 65.8177083333334,
          "velocity": 0.6299212598425197,
          "duration": 0.4166666666666714
        },
        {
          "name": "D#3",
          "midi": 51,
          "time": 65.8177083333334,
          "velocity": 0.6299212598425197,
          "duration": 0.4166666666666714
        },
        {
          "name": "G3",
          "midi": 55,
          "time": 65.8177083333334,
          "velocity": 0.6299212598425197,
          "duration": 0.4166666666666714
        },
        {
          "name": "C5",
          "midi": 72,
          "time": 66.0364583333334,
          "velocity": 0.6299212598425197,
          "duration": 0.2083333333333428
        },
        {
          "name": "C4",
          "midi": 60,
          "time": 66.25520833333341,
          "velocity": 0.6299212598425197,
          "duration": 0.421875
        },
        {
          "name": "D4",
          "midi": 62,
          "time": 66.25520833333341,
          "velocity": 0.6299212598425197,
          "duration": 0.421875
        },
        {
          "name": "G4",
          "midi": 67,
          "time": 66.25520833333341,
          "velocity": 0.6299212598425197,
          "duration": 0.421875
        },
        {
          "name": "G2",
          "midi": 43,
          "time": 66.25520833333341,
          "velocity": 0.6299212598425197,
          "duration": 0.421875
        },
        {
          "name": "G3",
          "midi": 55,
          "time": 66.25520833333341,
          "velocity": 0.6299212598425197,
          "duration": 0.421875
        },
        {
          "name": "C4",
          "midi": 60,
          "time": 66.69791666666674,
          "velocity": 0.6299212598425197,
          "duration": 0.4166666666666714
        },
        {
          "name": "D4",
          "midi": 62,
          "time": 66.69791666666674,
          "velocity": 0.6299212598425197,
          "duration": 0.4166666666666714
        },
        {
          "name": "G4",
          "midi": 67,
          "time": 66.69791666666674,
          "velocity": 0.6299212598425197,
          "duration": 0.4166666666666714
        },
        {
          "name": "G2",
          "midi": 43,
          "time": 66.69791666666674,
          "velocity": 0.6299212598425197,
          "duration": 0.4166666666666714
        },
        {
          "name": "G3",
          "midi": 55,
          "time": 66.69791666666674,
          "velocity": 0.6299212598425197,
          "duration": 0.4166666666666714
        },
        {
          "name": "B3",
          "midi": 59,
          "time": 67.14062500000009,
          "velocity": 0.6299212598425197,
          "duration": 0.4166666666666714
        },
        {
          "name": "D4",
          "midi": 62,
          "time": 67.14062500000009,
          "velocity": 0.6299212598425197,
          "duration": 0.4166666666666714
        },
        {
          "name": "G4",
          "midi": 67,
          "time": 67.14062500000009,
          "velocity": 0.6299212598425197,
          "duration": 0.4166666666666714
        },
        {
          "name": "G2",
          "midi": 43,
          "time": 67.14062500000009,
          "velocity": 0.6299212598425197,
          "duration": 0.4166666666666714
        },
        {
          "name": "B3",
          "midi": 59,
          "time": 67.57812500000009,
          "velocity": 0.6299212598425197,
          "duration": 0.421875
        },
        {
          "name": "D4",
          "midi": 62,
          "time": 67.57812500000009,
          "velocity": 0.6299212598425197,
          "duration": 0.421875
        },
        {
          "name": "G4",
          "midi": 67,
          "time": 67.57812500000009,
          "velocity": 0.6299212598425197,
          "duration": 0.421875
        },
        {
          "name": "G2",
          "midi": 43,
          "time": 67.57812500000009,
          "velocity": 0.6299212598425197,
          "duration": 0.421875
        },
        {
          "name": "G4",
          "midi": 67,
          "time": 68.02083333333341,
          "velocity": 0.6299212598425197,
          "duration": 0.052083333333328596
        },
        {
          "name": "C3",
          "midi": 48,
          "time": 68.02083333333341,
          "velocity": 0.6299212598425197,
          "duration": 0.8385416666666572
        },
        {
          "name": "C4",
          "midi": 60,
          "time": 68.02083333333341,
          "velocity": 0.6299212598425197,
          "duration": 0.8385416666666572
        },
        {
          "name": "G4",
          "midi": 67,
          "time": 68.13020833333341,
          "velocity": 0.6299212598425197,
          "duration": 0.052083333333328596
        },
        {
          "name": "G4",
          "midi": 67,
          "time": 68.23958333333341,
          "velocity": 0.6299212598425197,
          "duration": 0.052083333333328596
        },
        {
          "name": "G4",
          "midi": 67,
          "time": 68.35416666666674,
          "velocity": 0.6299212598425197,
          "duration": 0.046875
        },
        {
          "name": "G4",
          "midi": 67,
          "time": 68.46354166666674,
          "velocity": 0.6299212598425197,
          "duration": 0.203125
        },
        {
          "name": "G4",
          "midi": 67,
          "time": 68.68229166666674,
          "velocity": 0.6299212598425197,
          "duration": 0.052083333333328596
        },
        {
          "name": "G4",
          "midi": 67,
          "time": 68.79166666666674,
          "velocity": 0.6299212598425197,
          "duration": 0.052083333333328596
        },
        {
          "name": "G4",
          "midi": 67,
          "time": 68.90104166666674,
          "velocity": 0.6299212598425197,
          "duration": 0.052083333333328596
        },
        {
          "name": "C3",
          "midi": 48,
          "time": 68.90104166666674,
          "velocity": 0.6299212598425197,
          "duration": 0.4218749999999858
        },
        {
          "name": "D#3",
          "midi": 51,
          "time": 68.90104166666674,
          "velocity": 0.6299212598425197,
          "duration": 0.4218749999999858
        },
        {
          "name": "G3",
          "midi": 55,
          "time": 68.90104166666674,
          "velocity": 0.6299212598425197,
          "duration": 0.4218749999999858
        },
        {
          "name": "G4",
          "midi": 67,
          "time": 69.01562500000007,
          "velocity": 0.6299212598425197,
          "duration": 0.046875
        },
        {
          "name": "G4",
          "midi": 67,
          "time": 69.12500000000007,
          "velocity": 0.6299212598425197,
          "duration": 0.046875
        },
        {
          "name": "G4",
          "midi": 67,
          "time": 69.23437500000007,
          "velocity": 0.6299212598425197,
          "duration": 0.052083333333328596
        },
        {
          "name": "G4",
          "midi": 67,
          "time": 69.34375000000006,
          "velocity": 0.6299212598425197,
          "duration": 0.2083333333333286
        },
        {
          "name": "B2",
          "midi": 47,
          "time": 69.34375000000006,
          "velocity": 0.6299212598425197,
          "duration": 0.4166666666666572
        },
        {
          "name": "B3",
          "midi": 59,
          "time": 69.34375000000006,
          "velocity": 0.6299212598425197,
          "duration": 0.4166666666666572
        },
        {
          "name": "C5",
          "midi": 72,
          "time": 69.56250000000006,
          "velocity": 0.6299212598425197,
          "duration": 0.052083333333328596
        },
        {
          "name": "C5",
          "midi": 72,
          "time": 69.67708333333339,
          "velocity": 0.6299212598425197,
          "duration": 0.046875
        },
        {
          "name": "C5",
          "midi": 72,
          "time": 69.78645833333339,
          "velocity": 0.6299212598425197,
          "duration": 0.052083333333328596
        },
        {
          "name": "A#2",
          "midi": 46,
          "time": 69.78645833333339,
          "velocity": 0.6299212598425197,
          "duration": 0.4166666666666572
        },
        {
          "name": "A#3",
          "midi": 58,
          "time": 69.78645833333339,
          "velocity": 0.6299212598425197,
          "duration": 0.4166666666666572
        },
        {
          "name": "C5",
          "midi": 72,
          "time": 69.89583333333339,
          "velocity": 0.6299212598425197,
          "duration": 0.052083333333328596
        },
        {
          "name": "C5",
          "midi": 72,
          "time": 70.00520833333339,
          "velocity": 0.6299212598425197,
          "duration": 0.052083333333328596
        },
        {
          "name": "C5",
          "midi": 72,
          "time": 70.11458333333339,
          "velocity": 0.6299212598425197,
          "duration": 0.052083333333328596
        },
        {
          "name": "C5",
          "midi": 72,
          "time": 70.22395833333337,
          "velocity": 0.6299212598425197,
          "duration": 0.2083333333333286
        },
        {
          "name": "A#2",
          "midi": 46,
          "time": 70.22395833333337,
          "velocity": 0.6299212598425197,
          "duration": 0.4218749999999858
        },
        {
          "name": "D3",
          "midi": 50,
          "time": 70.22395833333337,
          "velocity": 0.6299212598425197,
          "duration": 0.4218749999999858
        },
        {
          "name": "F3",
          "midi": 53,
          "time": 70.22395833333337,
          "velocity": 0.6299212598425197,
          "duration": 0.4218749999999858
        },
        {
          "name": "G#3",
          "midi": 56,
          "time": 70.22395833333337,
          "velocity": 0.6299212598425197,
          "duration": 0.4218749999999858
        },
        {
          "name": "A#4",
          "midi": 70,
          "time": 70.4479166666667,
          "velocity": 0.6299212598425197,
          "duration": 0.052083333333328596
        },
        {
          "name": "A#4",
          "midi": 70,
          "time": 70.5572916666667,
          "velocity": 0.6299212598425197,
          "duration": 0.052083333333328596
        },
        {
          "name": "A#4",
          "midi": 70,
          "time": 70.66666666666669,
          "velocity": 0.6299212598425197,
          "duration": 0.052083333333328596
        },
        {
          "name": "D#3",
          "midi": 51,
          "time": 70.66666666666669,
          "velocity": 0.6299212598425197,
          "duration": 0.4166666666666572
        },
        {
          "name": "D#4",
          "midi": 63,
          "time": 70.66666666666669,
          "velocity": 0.6299212598425197,
          "duration": 0.4166666666666572
        },
        {
          "name": "A#4",
          "midi": 70,
          "time": 70.77604166666669,
          "velocity": 0.6299212598425197,
          "duration": 0.052083333333328596
        },
        {
          "name": "A#4",
          "midi": 70,
          "time": 70.89062500000001,
          "velocity": 0.6299212598425197,
          "duration": 0.046875
        },
        {
          "name": "A#4",
          "midi": 70,
          "time": 71.00000000000001,
          "velocity": 0.6299212598425197,
          "duration": 0.046875
        },
        {
          "name": "A#4",
          "midi": 70,
          "time": 71.10937500000001,
          "velocity": 0.6299212598425197,
          "duration": 0.2083333333333286
        },
        {
          "name": "A#2",
          "midi": 46,
          "time": 71.10937500000001,
          "velocity": 0.6299212598425197,
          "duration": 0.4166666666666714
        },
        {
          "name": "D3",
          "midi": 50,
          "time": 71.10937500000001,
          "velocity": 0.6299212598425197,
          "duration": 0.4166666666666714
        },
        {
          "name": "G3",
          "midi": 55,
          "time": 71.10937500000001,
          "velocity": 0.6299212598425197,
          "duration": 0.4166666666666714
        },
        {
          "name": "F4",
          "midi": 65,
          "time": 71.32812500000001,
          "velocity": 0.6299212598425197,
          "duration": 0.2083333333333428
        },
        {
          "name": "G4",
          "midi": 67,
          "time": 71.55208333333336,
          "velocity": 0.6299212598425197,
          "duration": 0.046875
        },
        {
          "name": "G#2",
          "midi": 44,
          "time": 71.55208333333336,
          "velocity": 0.6299212598425197,
          "duration": 0.8333333333333286
        },
        {
          "name": "G#3",
          "midi": 56,
          "time": 71.55208333333336,
          "velocity": 0.6299212598425197,
          "duration": 0.8333333333333286
        },
        {
          "name": "G4",
          "midi": 67,
          "time": 71.66145833333336,
          "velocity": 0.6299212598425197,
          "duration": 0.046875
        },
        {
          "name": "G4",
          "midi": 67,
          "time": 71.77083333333336,
          "velocity": 0.6299212598425197,
          "duration": 0.052083333333328596
        },
        {
          "name": "G4",
          "midi": 67,
          "time": 71.88020833333336,
          "velocity": 0.6299212598425197,
          "duration": 0.052083333333328596
        },
        {
          "name": "G4",
          "midi": 67,
          "time": 71.98958333333336,
          "velocity": 0.6299212598425197,
          "duration": 0.2083333333333286
        },
        {
          "name": "G4",
          "midi": 67,
          "time": 72.21354166666669,
          "velocity": 0.6299212598425197,
          "duration": 0.046875
        },
        {
          "name": "G4",
          "midi": 67,
          "time": 72.32291666666669,
          "velocity": 0.6299212598425197,
          "duration": 0.046875
        },
        {
          "name": "G4",
          "midi": 67,
          "time": 72.43229166666669,
          "velocity": 0.6299212598425197,
          "duration": 0.052083333333328596
        },
        {
          "name": "G#2",
          "midi": 44,
          "time": 72.43229166666669,
          "velocity": 0.6299212598425197,
          "duration": 0.8333333333333286
        },
        {
          "name": "C3",
          "midi": 48,
          "time": 72.43229166666669,
          "velocity": 0.6299212598425197,
          "duration": 0.8333333333333286
        },
        {
          "name": "D#3",
          "midi": 51,
          "time": 72.43229166666669,
          "velocity": 0.6299212598425197,
          "duration": 0.8333333333333286
        },
        {
          "name": "G3",
          "midi": 55,
          "time": 72.43229166666669,
          "velocity": 0.6299212598425197,
          "duration": 0.8333333333333286
        },
        {
          "name": "G4",
          "midi": 67,
          "time": 72.54166666666669,
          "velocity": 0.6299212598425197,
          "duration": 0.052083333333328596
        },
        {
          "name": "G4",
          "midi": 67,
          "time": 72.65104166666669,
          "velocity": 0.6299212598425197,
          "duration": 0.052083333333328596
        },
        {
          "name": "G4",
          "midi": 67,
          "time": 72.76041666666669,
          "velocity": 0.6299212598425197,
          "duration": 0.052083333333328596
        },
        {
          "name": "G4",
          "midi": 67,
          "time": 72.87500000000001,
          "velocity": 0.6299212598425197,
          "duration": 0.203125
        },
        {
          "name": "C5",
          "midi": 72,
          "time": 73.09375000000001,
          "velocity": 0.6299212598425197,
          "duration": 0.052083333333328596
        },
        {
          "name": "C5",
          "midi": 72,
          "time": 73.20312500000001,
          "velocity": 0.6299212598425197,
          "duration": 0.052083333333328596
        },
        {
          "name": "G4",
          "midi": 67,
          "time": 73.31250000000001,
          "velocity": 0.6299212598425197,
          "duration": 0.052083333333328596
        },
        {
          "name": "G2",
          "midi": 43,
          "time": 73.31250000000001,
          "velocity": 0.6299212598425197,
          "duration": 0.8385416666666572
        },
        {
          "name": "G3",
          "midi": 55,
          "time": 73.31250000000001,
          "velocity": 0.6299212598425197,
          "duration": 0.8385416666666572
        },
        {
          "name": "G4",
          "midi": 67,
          "time": 73.42187500000001,
          "velocity": 0.6299212598425197,
          "duration": 0.052083333333328596
        },
        {
          "name": "G4",
          "midi": 67,
          "time": 73.53645833333334,
          "velocity": 0.6299212598425197,
          "duration": 0.046875
        },
        {
          "name": "G4",
          "midi": 67,
          "time": 73.64583333333334,
          "velocity": 0.6299212598425197,
          "duration": 0.052083333333328596
        },
        {
          "name": "G4",
          "midi": 67,
          "time": 73.75520833333334,
          "velocity": 0.6299212598425197,
          "duration": 0.2083333333333286
        },
        {
          "name": "G4",
          "midi": 67,
          "time": 73.97395833333334,
          "velocity": 0.6299212598425197,
          "duration": 0.052083333333328596
        },
        {
          "name": "G4",
          "midi": 67,
          "time": 74.08854166666667,
          "velocity": 0.6299212598425197,
          "duration": 0.046875
        },
        {
          "name": "G4",
          "midi": 67,
          "time": 74.19791666666667,
          "velocity": 0.6299212598425197,
          "duration": 0.046875
        },
        {
          "name": "G2",
          "midi": 43,
          "time": 74.19791666666667,
          "velocity": 0.6299212598425197,
          "duration": 0.8333333333333286
        },
        {
          "name": "B2",
          "midi": 47,
          "time": 74.19791666666667,
          "velocity": 0.6299212598425197,
          "duration": 0.8333333333333286
        },
        {
          "name": "D3",
          "midi": 50,
          "time": 74.19791666666667,
          "velocity": 0.6299212598425197,
          "duration": 0.8333333333333286
        },
        {
          "name": "F3",
          "midi": 53,
          "time": 74.19791666666667,
          "velocity": 0.6299212598425197,
          "duration": 0.8333333333333286
        },
        {
          "name": "G4",
          "midi": 67,
          "time": 74.30729166666667,
          "velocity": 0.6299212598425197,
          "duration": 0.052083333333328596
        },
        {
          "name": "G4",
          "midi": 67,
          "time": 74.41666666666667,
          "velocity": 0.6299212598425197,
          "duration": 0.052083333333328596
        },
        {
          "name": "G4",
          "midi": 67,
          "time": 74.52604166666667,
          "velocity": 0.6299212598425197,
          "duration": 0.052083333333328596
        },
        {
          "name": "G4",
          "midi": 67,
          "time": 74.63541666666667,
          "velocity": 0.6299212598425197,
          "duration": 0.2083333333333286
        },
        {
          "name": "C5",
          "midi": 72,
          "time": 74.859375,
          "velocity": 0.6299212598425197,
          "duration": 0.046875
        },
        {
          "name": "C5",
          "midi": 72,
          "time": 74.96875,
          "velocity": 0.6299212598425197,
          "duration": 0.052083333333328596
        },
        {
          "name": "G4",
          "midi": 67,
          "time": 75.078125,
          "velocity": 0.6299212598425197,
          "duration": 0.052083333333328596
        },
        {
          "name": "C3",
          "midi": 48,
          "time": 75.078125,
          "velocity": 0.6299212598425197,
          "duration": 0.8385416666666572
        },
        {
          "name": "C4",
          "midi": 60,
          "time": 75.078125,
          "velocity": 0.6299212598425197,
          "duration": 0.8385416666666572
        },
        {
          "name": "G4",
          "midi": 67,
          "time": 75.1875,
          "velocity": 0.6299212598425197,
          "duration": 0.052083333333328596
        },
        {
          "name": "G4",
          "midi": 67,
          "time": 75.296875,
          "velocity": 0.6299212598425197,
          "duration": 0.052083333333328596
        },
        {
          "name": "G4",
          "midi": 67,
          "time": 75.41145833333333,
          "velocity": 0.6299212598425197,
          "duration": 0.046875
        },
        {
          "name": "G4",
          "midi": 67,
          "time": 75.52083333333333,
          "velocity": 0.6299212598425197,
          "duration": 0.203125
        },
        {
          "name": "G4",
          "midi": 67,
          "time": 75.73958333333333,
          "velocity": 0.6299212598425197,
          "duration": 0.052083333333328596
        },
        {
          "name": "G4",
          "midi": 67,
          "time": 75.84895833333333,
          "velocity": 0.6299212598425197,
          "duration": 0.052083333333328596
        },
        {
          "name": "G4",
          "midi": 67,
          "time": 75.95833333333333,
          "velocity": 0.6299212598425197,
          "duration": 0.052083333333328596
        },
        {
          "name": "C3",
          "midi": 48,
          "time": 75.95833333333333,
          "velocity": 0.6299212598425197,
          "duration": 0.4218749999999858
        },
        {
          "name": "D#3",
          "midi": 51,
          "time": 75.95833333333333,
          "velocity": 0.6299212598425197,
          "duration": 0.4218749999999858
        },
        {
          "name": "G3",
          "midi": 55,
          "time": 75.95833333333333,
          "velocity": 0.6299212598425197,
          "duration": 0.4218749999999858
        },
        {
          "name": "G4",
          "midi": 67,
          "time": 76.07291666666666,
          "velocity": 0.6299212598425197,
          "duration": 0.046875
        },
        {
          "name": "G4",
          "midi": 67,
          "time": 76.18229166666666,
          "velocity": 0.6299212598425197,
          "duration": 0.052083333333328596
        },
        {
          "name": "G4",
          "midi": 67,
          "time": 76.29166666666666,
          "velocity": 0.6299212598425197,
          "duration": 0.052083333333328596
        },
        {
          "name": "G4",
          "midi": 67,
          "time": 76.40104166666664,
          "velocity": 0.6299212598425197,
          "duration": 0.2083333333333286
        },
        {
          "name": "B2",
          "midi": 47,
          "time": 76.40104166666664,
          "velocity": 0.6299212598425197,
          "duration": 0.4166666666666572
        },
        {
          "name": "B3",
          "midi": 59,
          "time": 76.40104166666664,
          "velocity": 0.6299212598425197,
          "duration": 0.4166666666666572
        },
        {
          "name": "C5",
          "midi": 72,
          "time": 76.61979166666664,
          "velocity": 0.6299212598425197,
          "duration": 0.052083333333328596
        },
        {
          "name": "C5",
          "midi": 72,
          "time": 76.73437499999997,
          "velocity": 0.6299212598425197,
          "duration": 0.046875
        },
        {
          "name": "C5",
          "midi": 72,
          "time": 76.84374999999997,
          "velocity": 0.6299212598425197,
          "duration": 0.052083333333328596
        },
        {
          "name": "A#2",
          "midi": 46,
          "time": 76.84374999999997,
          "velocity": 0.6299212598425197,
          "duration": 0.4166666666666572
        },
        {
          "name": "A#3",
          "midi": 58,
          "time": 76.84374999999997,
          "velocity": 0.6299212598425197,
          "duration": 0.4166666666666572
        },
        {
          "name": "C5",
          "midi": 72,
          "time": 76.95312499999997,
          "velocity": 0.6299212598425197,
          "duration": 0.052083333333328596
        },
        {
          "name": "C5",
          "midi": 72,
          "time": 77.06249999999997,
          "velocity": 0.6299212598425197,
          "duration": 0.052083333333328596
        },
        {
          "name": "C5",
          "midi": 72,
          "time": 77.17187499999997,
          "velocity": 0.6299212598425197,
          "duration": 0.052083333333328596
        },
        {
          "name": "C5",
          "midi": 72,
          "time": 77.2864583333333,
          "velocity": 0.6299212598425197,
          "duration": 0.203125
        },
        {
          "name": "A#2",
          "midi": 46,
          "time": 77.2864583333333,
          "velocity": 0.6299212598425197,
          "duration": 0.4166666666666572
        },
        {
          "name": "D3",
          "midi": 50,
          "time": 77.2864583333333,
          "velocity": 0.6299212598425197,
          "duration": 0.4166666666666572
        },
        {
          "name": "F3",
          "midi": 53,
          "time": 77.2864583333333,
          "velocity": 0.6299212598425197,
          "duration": 0.4166666666666572
        },
        {
          "name": "G#3",
          "midi": 56,
          "time": 77.2864583333333,
          "velocity": 0.6299212598425197,
          "duration": 0.4166666666666572
        },
        {
          "name": "A#4",
          "midi": 70,
          "time": 77.5052083333333,
          "velocity": 0.6299212598425197,
          "duration": 0.052083333333328596
        },
        {
          "name": "A#4",
          "midi": 70,
          "time": 77.6145833333333,
          "velocity": 0.6299212598425197,
          "duration": 0.052083333333328596
        },
        {
          "name": "A#4",
          "midi": 70,
          "time": 77.72395833333329,
          "velocity": 0.6299212598425197,
          "duration": 0.052083333333328596
        },
        {
          "name": "D#3",
          "midi": 51,
          "time": 77.72395833333329,
          "velocity": 0.6299212598425197,
          "duration": 0.4166666666666572
        },
        {
          "name": "D#4",
          "midi": 63,
          "time": 77.72395833333329,
          "velocity": 0.6299212598425197,
          "duration": 0.4166666666666572
        },
        {
          "name": "A#4",
          "midi": 70,
          "time": 77.83333333333329,
          "velocity": 0.6299212598425197,
          "duration": 0.052083333333328596
        },
        {
          "name": "A#4",
          "midi": 70,
          "time": 77.94791666666661,
          "velocity": 0.6299212598425197,
          "duration": 0.046875
        },
        {
          "name": "A#4",
          "midi": 70,
          "time": 78.05729166666661,
          "velocity": 0.6299212598425197,
          "duration": 0.046875
        },
        {
          "name": "A#4",
          "midi": 70,
          "time": 78.16666666666661,
          "velocity": 0.6299212598425197,
          "duration": 0.2083333333333286
        },
        {
          "name": "A#2",
          "midi": 46,
          "time": 78.16666666666661,
          "velocity": 0.6299212598425197,
          "duration": 0.4166666666666714
        },
        {
          "name": "D3",
          "midi": 50,
          "time": 78.16666666666661,
          "velocity": 0.6299212598425197,
          "duration": 0.4166666666666714
        },
        {
          "name": "G3",
          "midi": 55,
          "time": 78.16666666666661,
          "velocity": 0.6299212598425197,
          "duration": 0.4166666666666714
        },
        {
          "name": "F4",
          "midi": 65,
          "time": 78.38541666666661,
          "velocity": 0.6299212598425197,
          "duration": 0.2083333333333428
        },
        {
          "name": "G4",
          "midi": 67,
          "time": 78.60937499999996,
          "velocity": 0.6299212598425197,
          "duration": 0.046875
        },
        {
          "name": "G#2",
          "midi": 44,
          "time": 78.60937499999996,
          "velocity": 0.6299212598425197,
          "duration": 0.8333333333333286
        },
        {
          "name": "G#3",
          "midi": 56,
          "time": 78.60937499999996,
          "velocity": 0.6299212598425197,
          "duration": 0.8333333333333286
        },
        {
          "name": "G4",
          "midi": 67,
          "time": 78.71874999999996,
          "velocity": 0.6299212598425197,
          "duration": 0.046875
        },
        {
          "name": "G4",
          "midi": 67,
          "time": 78.82812499999996,
          "velocity": 0.6299212598425197,
          "duration": 0.052083333333328596
        },
        {
          "name": "G4",
          "midi": 67,
          "time": 78.93749999999996,
          "velocity": 0.6299212598425197,
          "duration": 0.052083333333328596
        },
        {
          "name": "G4",
          "midi": 67,
          "time": 79.04687499999996,
          "velocity": 0.6299212598425197,
          "duration": 0.2083333333333286
        },
        {
          "name": "G4",
          "midi": 67,
          "time": 79.27083333333329,
          "velocity": 0.6299212598425197,
          "duration": 0.046875
        },
        {
          "name": "G4",
          "midi": 67,
          "time": 79.38020833333329,
          "velocity": 0.6299212598425197,
          "duration": 0.046875
        },
        {
          "name": "G4",
          "midi": 67,
          "time": 79.48958333333329,
          "velocity": 0.6299212598425197,
          "duration": 0.052083333333328596
        },
        {
          "name": "G#2",
          "midi": 44,
          "time": 79.48958333333329,
          "velocity": 0.6299212598425197,
          "duration": 0.838541666666643
        },
        {
          "name": "C3",
          "midi": 48,
          "time": 79.48958333333329,
          "velocity": 0.6299212598425197,
          "duration": 0.838541666666643
        },
        {
          "name": "D#3",
          "midi": 51,
          "time": 79.48958333333329,
          "velocity": 0.6299212598425197,
          "duration": 0.838541666666643
        },
        {
          "name": "G3",
          "midi": 55,
          "time": 79.48958333333329,
          "velocity": 0.6299212598425197,
          "duration": 0.838541666666643
        },
        {
          "name": "G4",
          "midi": 67,
          "time": 79.59895833333329,
          "velocity": 0.6299212598425197,
          "duration": 0.052083333333328596
        },
        {
          "name": "G4",
          "midi": 67,
          "time": 79.70833333333329,
          "velocity": 0.6299212598425197,
          "duration": 0.052083333333328596
        },
        {
          "name": "G4",
          "midi": 67,
          "time": 79.81770833333329,
          "velocity": 0.6299212598425197,
          "duration": 0.052083333333328596
        },
        {
          "name": "G4",
          "midi": 67,
          "time": 79.93229166666661,
          "velocity": 0.6299212598425197,
          "duration": 0.203125
        },
        {
          "name": "G4",
          "midi": 67,
          "time": 80.15104166666661,
          "velocity": 0.6299212598425197,
          "duration": 0.0677083333333286
        },
        {
          "name": "G#4",
          "midi": 68,
          "time": 80.22395833333327,
          "velocity": 0.6299212598425197,
          "duration": 0.0677083333333286
        },
        {
          "name": "F4",
          "midi": 65,
          "time": 80.29687499999993,
          "velocity": 0.6299212598425197,
          "duration": 0.0677083333333286
        },
        {
          "name": "G4",
          "midi": 67,
          "time": 80.36979166666659,
          "velocity": 0.6299212598425197,
          "duration": 0.2083333333333286
        },
        {
          "name": "G2",
          "midi": 43,
          "time": 80.36979166666659,
          "velocity": 0.6299212598425197,
          "duration": 0.421875
        },
        {
          "name": "C4",
          "midi": 60,
          "time": 80.81249999999991,
          "velocity": 0.6299212598425197,
          "duration": 0.0989583333333286
        },
        {
          "name": "D4",
          "midi": 62,
          "time": 80.81249999999991,
          "velocity": 0.6299212598425197,
          "duration": 0.0989583333333286
        },
        {
          "name": "G4",
          "midi": 67,
          "time": 80.81249999999991,
          "velocity": 0.6299212598425197,
          "duration": 0.0989583333333286
        },
        {
          "name": "G2",
          "midi": 43,
          "time": 80.81249999999991,
          "velocity": 0.6299212598425197,
          "duration": 0.0989583333333286
        },
        {
          "name": "G3",
          "midi": 55,
          "time": 80.81249999999991,
          "velocity": 0.6299212598425197,
          "duration": 0.0989583333333286
        },
        {
          "name": "C4",
          "midi": 60,
          "time": 80.92187499999991,
          "velocity": 0.6299212598425197,
          "duration": 0.1041666666666714
        },
        {
          "name": "D4",
          "midi": 62,
          "time": 80.92187499999991,
          "velocity": 0.6299212598425197,
          "duration": 0.1041666666666714
        },
        {
          "name": "G4",
          "midi": 67,
          "time": 80.92187499999991,
          "velocity": 0.6299212598425197,
          "duration": 0.1041666666666714
        },
        {
          "name": "G2",
          "midi": 43,
          "time": 80.92187499999991,
          "velocity": 0.6299212598425197,
          "duration": 0.1041666666666714
        },
        {
          "name": "G3",
          "midi": 55,
          "time": 80.92187499999991,
          "velocity": 0.6299212598425197,
          "duration": 0.1041666666666714
        },
        {
          "name": "C4",
          "midi": 60,
          "time": 81.14583333333326,
          "velocity": 0.6299212598425197,
          "duration": 0.0989583333333286
        },
        {
          "name": "D4",
          "midi": 62,
          "time": 81.14583333333326,
          "velocity": 0.6299212598425197,
          "duration": 0.0989583333333286
        },
        {
          "name": "G4",
          "midi": 67,
          "time": 81.14583333333326,
          "velocity": 0.6299212598425197,
          "duration": 0.0989583333333286
        },
        {
          "name": "G2",
          "midi": 43,
          "time": 81.14583333333326,
          "velocity": 0.6299212598425197,
          "duration": 0.0989583333333286
        },
        {
          "name": "G3",
          "midi": 55,
          "time": 81.14583333333326,
          "velocity": 0.6299212598425197,
          "duration": 0.0989583333333286
        },
        {
          "name": "C4",
          "midi": 60,
          "time": 81.36458333333326,
          "velocity": 0.6299212598425197,
          "duration": 0.0989583333333286
        },
        {
          "name": "D4",
          "midi": 62,
          "time": 81.36458333333326,
          "velocity": 0.6299212598425197,
          "duration": 0.0989583333333286
        },
        {
          "name": "G4",
          "midi": 67,
          "time": 81.36458333333326,
          "velocity": 0.6299212598425197,
          "duration": 0.0989583333333286
        },
        {
          "name": "G2",
          "midi": 43,
          "time": 81.36458333333326,
          "velocity": 0.6299212598425197,
          "duration": 0.0989583333333286
        },
        {
          "name": "G3",
          "midi": 55,
          "time": 81.36458333333326,
          "velocity": 0.6299212598425197,
          "duration": 0.0989583333333286
        },
        {
          "name": "C4",
          "midi": 60,
          "time": 81.58333333333326,
          "velocity": 0.6299212598425197,
          "duration": 0.1041666666666714
        },
        {
          "name": "D4",
          "midi": 62,
          "time": 81.58333333333326,
          "velocity": 0.6299212598425197,
          "duration": 0.1041666666666714
        },
        {
          "name": "G4",
          "midi": 67,
          "time": 81.58333333333326,
          "velocity": 0.6299212598425197,
          "duration": 0.1041666666666714
        },
        {
          "name": "G2",
          "midi": 43,
          "time": 81.58333333333326,
          "velocity": 0.6299212598425197,
          "duration": 0.1041666666666714
        },
        {
          "name": "G3",
          "midi": 55,
          "time": 81.58333333333326,
          "velocity": 0.6299212598425197,
          "duration": 0.1041666666666714
        },
        {
          "name": "C4",
          "midi": 60,
          "time": 81.69270833333326,
          "velocity": 0.6299212598425197,
          "duration": 0.2083333333333286
        },
        {
          "name": "D4",
          "midi": 62,
          "time": 81.69270833333326,
          "velocity": 0.6299212598425197,
          "duration": 0.2083333333333286
        },
        {
          "name": "G4",
          "midi": 67,
          "time": 81.69270833333326,
          "velocity": 0.6299212598425197,
          "duration": 0.2083333333333286
        },
        {
          "name": "G2",
          "midi": 43,
          "time": 81.69270833333326,
          "velocity": 0.6299212598425197,
          "duration": 0.4218749999999716
        },
        {
          "name": "G3",
          "midi": 55,
          "time": 81.69270833333326,
          "velocity": 0.6299212598425197,
          "duration": 0.4218749999999716
        },
        {
          "name": "G4",
          "midi": 67,
          "time": 81.91666666666659,
          "velocity": 0.6299212598425197,
          "duration": 0.0677083333333286
        },
        {
          "name": "G#4",
          "midi": 68,
          "time": 81.98958333333324,
          "velocity": 0.6299212598425197,
          "duration": 0.0677083333333286
        },
        {
          "name": "F4",
          "midi": 65,
          "time": 82.0624999999999,
          "velocity": 0.6299212598425197,
          "duration": 0.0677083333333286
        },
        {
          "name": "G4",
          "midi": 67,
          "time": 82.13541666666656,
          "velocity": 0.6299212598425197,
          "duration": 0.2083333333333286
        },
        {
          "name": "G2",
          "midi": 43,
          "time": 82.13541666666656,
          "velocity": 0.6299212598425197,
          "duration": 0.4166666666666572
        },
        {
          "name": "B3",
          "midi": 59,
          "time": 82.57812499999989,
          "velocity": 0.6299212598425197,
          "duration": 0.0989583333333286
        },
        {
          "name": "D4",
          "midi": 62,
          "time": 82.57812499999989,
          "velocity": 0.6299212598425197,
          "duration": 0.0989583333333286
        },
        {
          "name": "G4",
          "midi": 67,
          "time": 82.57812499999989,
          "velocity": 0.6299212598425197,
          "duration": 0.0989583333333286
        },
        {
          "name": "G2",
          "midi": 43,
          "time": 82.57812499999989,
          "velocity": 0.6299212598425197,
          "duration": 0.0989583333333286
        },
        {
          "name": "G3",
          "midi": 55,
          "time": 82.57812499999989,
          "velocity": 0.6299212598425197,
          "duration": 0.0989583333333286
        },
        {
          "name": "B3",
          "midi": 59,
          "time": 82.68749999999989,
          "velocity": 0.6299212598425197,
          "duration": 0.0989583333333286
        },
        {
          "name": "D4",
          "midi": 62,
          "time": 82.68749999999989,
          "velocity": 0.6299212598425197,
          "duration": 0.0989583333333286
        },
        {
          "name": "G4",
          "midi": 67,
          "time": 82.68749999999989,
          "velocity": 0.6299212598425197,
          "duration": 0.0989583333333286
        },
        {
          "name": "G2",
          "midi": 43,
          "time": 82.68749999999989,
          "velocity": 0.6299212598425197,
          "duration": 0.0989583333333286
        },
        {
          "name": "G3",
          "midi": 55,
          "time": 82.68749999999989,
          "velocity": 0.6299212598425197,
          "duration": 0.0989583333333286
        },
        {
          "name": "B3",
          "midi": 59,
          "time": 82.90624999999989,
          "velocity": 0.6299212598425197,
          "duration": 0.1041666666666714
        },
        {
          "name": "D4",
          "midi": 62,
          "time": 82.90624999999989,
          "velocity": 0.6299212598425197,
          "duration": 0.1041666666666714
        },
        {
          "name": "G4",
          "midi": 67,
          "time": 82.90624999999989,
          "velocity": 0.6299212598425197,
          "duration": 0.1041666666666714
        },
        {
          "name": "G2",
          "midi": 43,
          "time": 82.90624999999989,
          "velocity": 0.6299212598425197,
          "duration": 0.1041666666666714
        },
        {
          "name": "G3",
          "midi": 55,
          "time": 82.90624999999989,
          "velocity": 0.6299212598425197,
          "duration": 0.1041666666666714
        },
        {
          "name": "B3",
          "midi": 59,
          "time": 83.13020833333323,
          "velocity": 0.6299212598425197,
          "duration": 0.0989583333333286
        },
        {
          "name": "D4",
          "midi": 62,
          "time": 83.13020833333323,
          "velocity": 0.6299212598425197,
          "duration": 0.0989583333333286
        },
        {
          "name": "G4",
          "midi": 67,
          "time": 83.13020833333323,
          "velocity": 0.6299212598425197,
          "duration": 0.0989583333333286
        },
        {
          "name": "G2",
          "midi": 43,
          "time": 83.13020833333323,
          "velocity": 0.6299212598425197,
          "duration": 0.0989583333333286
        },
        {
          "name": "G3",
          "midi": 55,
          "time": 83.13020833333323,
          "velocity": 0.6299212598425197,
          "duration": 0.0989583333333286
        },
        {
          "name": "B3",
          "midi": 59,
          "time": 83.34895833333323,
          "velocity": 0.6299212598425197,
          "duration": 0.0989583333333286
        },
        {
          "name": "D4",
          "midi": 62,
          "time": 83.34895833333323,
          "velocity": 0.6299212598425197,
          "duration": 0.0989583333333286
        },
        {
          "name": "G4",
          "midi": 67,
          "time": 83.34895833333323,
          "velocity": 0.6299212598425197,
          "duration": 0.0989583333333286
        },
        {
          "name": "G2",
          "midi": 43,
          "time": 83.34895833333323,
          "velocity": 0.6299212598425197,
          "duration": 0.0989583333333286
        },
        {
          "name": "G3",
          "midi": 55,
          "time": 83.34895833333323,
          "velocity": 0.6299212598425197,
          "duration": 0.0989583333333286
        },
        {
          "name": "B3",
          "midi": 59,
          "time": 83.45833333333323,
          "velocity": 0.6299212598425197,
          "duration": 0.2083333333333286
        },
        {
          "name": "D4",
          "midi": 62,
          "time": 83.45833333333323,
          "velocity": 0.6299212598425197,
          "duration": 0.2083333333333286
        },
        {
          "name": "G4",
          "midi": 67,
          "time": 83.45833333333323,
          "velocity": 0.6299212598425197,
          "duration": 0.2083333333333286
        },
        {
          "name": "G2",
          "midi": 43,
          "time": 83.45833333333323,
          "velocity": 0.6299212598425197,
          "duration": 0.416666666666643
        },
        {
          "name": "G3",
          "midi": 55,
          "time": 83.45833333333323,
          "velocity": 0.6299212598425197,
          "duration": 0.416666666666643
        },
        {
          "name": "G4",
          "midi": 67,
          "time": 83.68229166666656,
          "velocity": 0.6299212598425197,
          "duration": 0.0677083333333286
        },
        {
          "name": "G#4",
          "midi": 68,
          "time": 83.75520833333321,
          "velocity": 0.6299212598425197,
          "duration": 0.0677083333333286
        },
        {
          "name": "F4",
          "midi": 65,
          "time": 83.82812499999987,
          "velocity": 0.6299212598425197,
          "duration": 0.0677083333333286
        },
        {
          "name": "G4",
          "midi": 67,
          "time": 83.90104166666653,
          "velocity": 0.6299212598425197,
          "duration": 0.2083333333333286
        },
        {
          "name": "G2",
          "midi": 43,
          "time": 83.90104166666653,
          "velocity": 0.6299212598425197,
          "duration": 0.4166666666666572
        },
        {
          "name": "G3",
          "midi": 55,
          "time": 84.34374999999986,
          "velocity": 0.6299212598425197,
          "duration": 0.0989583333333286
        },
        {
          "name": "C#4",
          "midi": 61,
          "time": 84.34374999999986,
          "velocity": 0.6299212598425197,
          "duration": 0.0989583333333286
        },
        {
          "name": "G4",
          "midi": 67,
          "time": 84.34374999999986,
          "velocity": 0.6299212598425197,
          "duration": 0.0989583333333286
        },
        {
          "name": "G2",
          "midi": 43,
          "time": 84.34374999999986,
          "velocity": 0.6299212598425197,
          "duration": 0.0989583333333286
        },
        {
          "name": "G3",
          "midi": 55,
          "time": 84.45312499999986,
          "velocity": 0.6299212598425197,
          "duration": 0.0989583333333286
        },
        {
          "name": "C#4",
          "midi": 61,
          "time": 84.45312499999986,
          "velocity": 0.6299212598425197,
          "duration": 0.0989583333333286
        },
        {
          "name": "G4",
          "midi": 67,
          "time": 84.45312499999986,
          "velocity": 0.6299212598425197,
          "duration": 0.0989583333333286
        },
        {
          "name": "G2",
          "midi": 43,
          "time": 84.45312499999986,
          "velocity": 0.6299212598425197,
          "duration": 0.0989583333333286
        },
        {
          "name": "G3",
          "midi": 55,
          "time": 84.67187499999986,
          "velocity": 0.6299212598425197,
          "duration": 0.0989583333333286
        },
        {
          "name": "C#4",
          "midi": 61,
          "time": 84.67187499999986,
          "velocity": 0.6299212598425197,
          "duration": 0.0989583333333286
        },
        {
          "name": "G4",
          "midi": 67,
          "time": 84.67187499999986,
          "velocity": 0.6299212598425197,
          "duration": 0.0989583333333286
        },
        {
          "name": "G2",
          "midi": 43,
          "time": 84.67187499999986,
          "velocity": 0.6299212598425197,
          "duration": 0.0989583333333286
        },
        {
          "name": "G3",
          "midi": 55,
          "time": 84.89062499999986,
          "velocity": 0.6299212598425197,
          "duration": 0.1041666666666714
        },
        {
          "name": "C#4",
          "midi": 61,
          "time": 84.89062499999986,
          "velocity": 0.6299212598425197,
          "duration": 0.1041666666666714
        },
        {
          "name": "G4",
          "midi": 67,
          "time": 84.89062499999986,
          "velocity": 0.6299212598425197,
          "duration": 0.1041666666666714
        },
        {
          "name": "G2",
          "midi": 43,
          "time": 84.89062499999986,
          "velocity": 0.6299212598425197,
          "duration": 0.1041666666666714
        },
        {
          "name": "G3",
          "midi": 55,
          "time": 85.1145833333332,
          "velocity": 0.6299212598425197,
          "duration": 0.0989583333333286
        },
        {
          "name": "C#4",
          "midi": 61,
          "time": 85.1145833333332,
          "velocity": 0.6299212598425197,
          "duration": 0.0989583333333286
        },
        {
          "name": "G4",
          "midi": 67,
          "time": 85.1145833333332,
          "velocity": 0.6299212598425197,
          "duration": 0.0989583333333286
        },
        {
          "name": "G2",
          "midi": 43,
          "time": 85.1145833333332,
          "velocity": 0.6299212598425197,
          "duration": 0.0989583333333286
        },
        {
          "name": "G3",
          "midi": 55,
          "time": 85.2239583333332,
          "velocity": 0.6299212598425197,
          "duration": 0.4166666666666714
        },
        {
          "name": "C#4",
          "midi": 61,
          "time": 85.2239583333332,
          "velocity": 0.6299212598425197,
          "duration": 0.4166666666666714
        },
        {
          "name": "G4",
          "midi": 67,
          "time": 85.2239583333332,
          "velocity": 0.6299212598425197,
          "duration": 0.4166666666666714
        },
        {
          "name": "G2",
          "midi": 43,
          "time": 85.2239583333332,
          "velocity": 0.6299212598425197,
          "duration": 0.4166666666666714
        },
        {
          "name": "A#2",
          "midi": 46,
          "time": 85.66666666666654,
          "velocity": 0.6299212598425197,
          "duration": 0.0989583333333286
        },
        {
          "name": "G3",
          "midi": 55,
          "time": 85.66666666666654,
          "velocity": 0.6299212598425197,
          "duration": 0.0989583333333286
        },
        {
          "name": "G2",
          "midi": 43,
          "time": 85.66666666666654,
          "velocity": 0.6299212598425197,
          "duration": 0.0989583333333286
        },
        {
          "name": "G2",
          "midi": 43,
          "time": 85.77604166666654,
          "velocity": 0.6299212598425197,
          "duration": 0.0989583333333286
        },
        {
          "name": "G#2",
          "midi": 44,
          "time": 85.88541666666654,
          "velocity": 0.6299212598425197,
          "duration": 0.0989583333333286
        },
        {
          "name": "A#2",
          "midi": 46,
          "time": 85.99479166666654,
          "velocity": 0.6299212598425197,
          "duration": 0.1041666666666714
        },
        {
          "name": "B2",
          "midi": 47,
          "time": 86.10416666666654,
          "velocity": 0.6299212598425197,
          "duration": 0.1041666666666714
        },
        {
          "name": "D#3",
          "midi": 51,
          "time": 86.21354166666654,
          "velocity": 0.6299212598425197,
          "duration": 0.1041666666666714
        },
        {
          "name": "F3",
          "midi": 53,
          "time": 86.32812499999989,
          "velocity": 0.6299212598425197,
          "duration": 0.0989583333333286
        },
        {
          "name": "G3",
          "midi": 55,
          "time": 86.43749999999989,
          "velocity": 0.6299212598425197,
          "duration": 0.0989583333333286
        },
        {
          "name": "G#3",
          "midi": 56,
          "time": 86.54687499999989,
          "velocity": 0.6299212598425197,
          "duration": 0.0989583333333286
        },
        {
          "name": "A#3",
          "midi": 58,
          "time": 86.65624999999989,
          "velocity": 0.6299212598425197,
          "duration": 0.1041666666666714
        },
        {
          "name": "B3",
          "midi": 59,
          "time": 86.76562499999989,
          "velocity": 0.6299212598425197,
          "duration": 0.1041666666666714
        },
        {
          "name": "D#4",
          "midi": 63,
          "time": 86.88020833333323,
          "velocity": 0.6299212598425197,
          "duration": 0.0989583333333286
        },
        {
          "name": "F4",
          "midi": 65,
          "time": 86.98958333333323,
          "velocity": 0.6299212598425197,
          "duration": 0.0989583333333286
        },
        {
          "name": "G4",
          "midi": 67,
          "time": 87.09895833333323,
          "velocity": 0.6299212598425197,
          "duration": 0.0989583333333286
        },
        {
          "name": "A#4",
          "midi": 70,
          "time": 87.20833333333323,
          "velocity": 0.6299212598425197,
          "duration": 0.0989583333333286
        },
        {
          "name": "D#4",
          "midi": 63,
          "time": 87.31770833333323,
          "velocity": 0.6299212598425197,
          "duration": 0.9427083333333286
        },
        {
          "name": "G4",
          "midi": 67,
          "time": 87.31770833333323,
          "velocity": 0.6299212598425197,
          "duration": 0.9427083333333286
        },
        {
          "name": "C5",
          "midi": 72,
          "time": 87.31770833333323,
          "velocity": 0.6299212598425197,
          "duration": 0.9427083333333286
        },
        {
          "name": "C3",
          "midi": 48,
          "time": 87.31770833333323,
          "velocity": 0.6299212598425197,
          "duration": 3.458333333333343
        },
        {
          "name": "C4",
          "midi": 60,
          "time": 87.31770833333323,
          "velocity": 0.6299212598425197,
          "duration": 3.458333333333343
        },
        {
          "name": "G3",
          "midi": 55,
          "time": 89.19270833333323,
          "velocity": 0.6299212598425197,
          "duration": 1.7604166666666714
        },
        {
          "name": "A3",
          "midi": 57,
          "time": 89.2499999999999,
          "velocity": 0.6299212598425197,
          "duration": 1.703125
        },
        {
          "name": "D4",
          "midi": 62,
          "time": 89.30729166666657,
          "velocity": 0.6299212598425197,
          "duration": 1.6458333333333286
        }
      ],
      "controlChanges": {},
      "id": 1,
      "name": "FL Keys 1",
      "channelNumber": 0,
      "isPercussion": false
    }
  ]
}
